<?xml version="1.0" encoding="UTF-8"?>
<svg width="58px" height="32px" viewBox="0 0 58 32" version="1.1" xmlns="http://www.w3.org/2000/svg" xmlns:xlink="http://www.w3.org/1999/xlink">
    <title>Basin</title>
    <g id="Basin" stroke="none" stroke-width="1" fill="none" fill-rule="evenodd">
        <rect id="Rectangle" stroke="#272C37" x="0.5" y="0.5" width="57" height="31"></rect>
        <circle id="Oval" fill="#272C37" cx="15.8315587" cy="26.8315587" r="4.47211368"></circle>
        <rect id="Rectangle" stroke="#272C37" x="2.5" y="3.5" width="24" height="28" rx="8"></rect>
        <rect id="Rectangle-Copy-17" stroke="#272C37" x="30.4270659" y="3.5" width="24" height="28" rx="8"></rect>
        <rect id="Rectangle" stroke="#272C37" x="31.4994748" y="10.8384934" width="22" height="1.82273441"></rect>
        <path d="M46.9994748,3.5 L37.9994748,3.5 C36.2045494,3.5 34.5795494,4.22753728 33.4032808,5.40380592 C32.2270121,6.58007456 31.4994748,8.20507456 31.4994748,10 L31.4994748,11.2498606 L53.4994748,11.2498606 L53.4994748,10 C53.4994748,8.20507456 52.7719375,6.58007456 51.5956689,5.40380592 C50.4194003,4.22753728 48.7944003,3.5 46.9994748,3.5 Z" id="Rectangle-Copy-21" stroke="#272C37" fill="#272C37"></path>
        <path d="M49.2496143,26.7501394 L35.7493354,26.7501394 C34.5757688,26.7501394 33.5133037,27.2258213 32.7442302,27.9948948 C32.087144,28.651981 31.6442269,29.5232362 31.52917,30.4949693 L53.4401027,30.2877988 C53.2845891,29.3658845 52.8321107,28.5448715 52.1846191,27.9263819 C51.4217193,27.1976534 50.3879236,26.7501394 49.2496143,26.7501394 Z" id="Rectangle-Copy-22" stroke="#272C37" fill="#272C37" transform="translate(42.499475, 28.625070) scale(1, -1) translate(-42.499475, -28.625070) "></path>
        <rect id="Rectangle-Copy-20" stroke="#272C37" x="31.4994748" y="15.1772656" width="22" height="1.82273441"></rect>
        <rect id="Rectangle-Copy-18" stroke="#272C37" x="31.5" y="20.859445" width="22" height="1"></rect>
        <rect id="Rectangle-Copy-19" stroke="#272C37" x="31.5" y="24.7943164" width="22" height="1"></rect>
        <path d="M15.0527864,25.7763932 C14.853134,26.175698 14.8284387,26.6182063 14.9512203,27.0150907 C15.0740019,27.411975 15.3442606,27.7632353 15.7345161,27.9800439 L23.870437,32.5 L29.8494603,32.5 L17.2176697,25.1314555 C16.84097,24.911714 16.4102209,24.8682009 16.0142866,24.9861532 C15.6420988,25.0970312 15.2973359,25.3520459 15.0527864,25.7763932 Z" id="Path-21" stroke="#272C37" fill="#FFFFFF" stroke-linejoin="round"></path>
    </g>
</svg>