<?xml version="1.0" encoding="UTF-8"?>
<svg width="51px" height="51px" viewBox="0 0 51 51" version="1.1" xmlns="http://www.w3.org/2000/svg" xmlns:xlink="http://www.w3.org/1999/xlink">
    <title>Pot Plant</title>
    <g id="Pot-Plant" stroke="none" stroke-width="1" fill="none" fill-rule="evenodd">
        <ellipse id="Oval" stroke="#272C37" transform="translate(24.649128, 26.059701) rotate(-306.000000) translate(-24.649128, -26.059701) " cx="24.6491281" cy="26.0597011" rx="1" ry="24.5"></ellipse>
        <ellipse id="Oval-Copy" stroke="#272C37" transform="translate(26.377255, 27.487381) rotate(-285.000000) translate(-26.377255, -27.487381) " cx="26.377255" cy="27.487381" rx="1" ry="24.5"></ellipse>
        <ellipse id="Oval-Copy" fill="#272C37" transform="translate(25.937323, 28.249366) rotate(-240.000000) translate(-25.937323, -28.249366) " cx="25.9373229" cy="28.2493658" rx="1.75" ry="25"></ellipse>
        <ellipse id="Oval" stroke="#272C37" transform="translate(27.518402, 26.462951) rotate(-158.000000) translate(-27.518402, -26.462951) " cx="27.5184022" cy="26.4629513" rx="1" ry="24.5"></ellipse>
        <ellipse id="Oval-Copy" stroke="#272C37" transform="translate(25.916153, 25.879328) rotate(-137.000000) translate(-25.916153, -25.879328) " cx="25.9161533" cy="25.8793283" rx="1" ry="24.5"></ellipse>
        <ellipse id="Oval-Copy" fill="#272C37" transform="translate(25.885446, 25.000000) rotate(-92.000000) translate(-25.885446, -25.000000) " cx="25.8854465" cy="25" rx="1.75" ry="25"></ellipse>
        <ellipse id="Oval" stroke="#272C37" transform="translate(26.548469, 27.459633) rotate(-114.000000) translate(-26.548469, -27.459633) " cx="26.5484695" cy="27.4596332" rx="1" ry="24.5"></ellipse>
        <ellipse id="Oval-Copy" stroke="#272C37" transform="translate(25.840637, 25.869816) rotate(-69.000000) translate(-25.840637, -25.869816) " cx="25.8406373" cy="25.8698161" rx="1" ry="24.5"></ellipse>
        <ellipse id="Oval-Copy" fill="#272C37" transform="translate(26.644433, 25.511943) rotate(-24.000000) translate(-26.644433, -25.511943) " cx="26.6444334" cy="25.5119431" rx="1.75" ry="25"></ellipse>
        <ellipse id="Oval" stroke="#272C37" transform="translate(26.548469, 27.459633) rotate(-114.000000) translate(-26.548469, -27.459633) " cx="26.5484695" cy="27.4596332" rx="1" ry="24.5"></ellipse>
        <ellipse id="Oval-Copy" stroke="#272C37" transform="translate(25.840637, 25.869816) rotate(-69.000000) translate(-25.840637, -25.869816) " cx="25.8406373" cy="25.8698161" rx="1" ry="24.5"></ellipse>
        <ellipse id="Oval-Copy" fill="#272C37" transform="translate(27.101206, 25.308575) rotate(-24.000000) translate(-27.101206, -25.308575) " cx="27.1012061" cy="25.3085748" rx="1.25" ry="25"></ellipse>
        <ellipse id="Oval-Copy" stroke="#272C37" transform="translate(25.566482, 25.782879) rotate(-100.000000) translate(-25.566482, -25.782879) " cx="25.566482" cy="25.7828786" rx="1" ry="24.5"></ellipse>
        <ellipse id="Oval-Copy" fill="#272C37" transform="translate(26.378830, 25.127535) rotate(-31.000000) translate(-26.378830, -25.127535) " cx="26.3788305" cy="25.1275352" rx="1.75" ry="25"></ellipse>
        <ellipse id="Oval" stroke="#272C37" transform="translate(24.543947, 26.077302) rotate(-325.000000) translate(-24.543947, -26.077302) " cx="24.5439468" cy="26.0773024" rx="1" ry="24.5"></ellipse>
        <ellipse id="Oval" stroke="#272C37" transform="translate(27.388184, 25.524439) rotate(-177.000000) translate(-27.388184, -25.524439) " cx="27.3881842" cy="25.5244387" rx="1" ry="24.5"></ellipse>
        <ellipse id="Oval-Copy" fill="#272C37" transform="translate(25.875929, 24.632786) rotate(-50.000000) translate(-25.875929, -24.632786) " cx="25.875929" cy="24.6327862" rx="1.75" ry="25"></ellipse>
        <ellipse id="Oval" stroke="#272C37" transform="translate(25.837126, 24.082798) rotate(-214.000000) translate(-25.837126, -24.082798) " cx="25.837126" cy="24.0827975" rx="1" ry="24.5"></ellipse>
        <ellipse id="Oval" stroke="#272C37" transform="translate(25.333985, 26.936250) rotate(-66.000000) translate(-25.333985, -26.936250) " cx="25.3339852" cy="26.9362505" rx="1" ry="24.5"></ellipse>
        <ellipse id="Oval-Copy" fill="#272C37" transform="translate(26.708358, 25.843978) rotate(61.000000) translate(-26.708358, -25.843978) " cx="26.7083582" cy="25.8439783" rx="1.75" ry="25"></ellipse>
        <ellipse id="Oval-Copy" fill="#272C37" transform="translate(26.856395, 26.040237) rotate(13.000000) translate(-26.856395, -26.040237) " cx="26.8563953" cy="26.0402372" rx="1.25" ry="25"></ellipse>
        <polygon id="Path-23" fill="#272C37" points="16 22 18 20 23 19 28 16 32 18 38 22 34 29 29 33 24 34 20 29 19 25"></polygon>
    </g>
</svg>