<?xml version="1.0" encoding="UTF-8"?>
<svg width="42px" height="43px" viewBox="0 0 42 43" version="1.1" xmlns="http://www.w3.org/2000/svg" xmlns:xlink="http://www.w3.org/1999/xlink">
    <title>Printer Scanner</title>
    <g id="Printer-Scanner" stroke="none" stroke-width="1" fill="none" fill-rule="evenodd">
        <rect id="Rectangle" stroke="#272C37" x="0.5" y="0.5" width="41" height="42"></rect>
        <rect id="Rectangle" stroke="#272C37" x="0.5" y="0.5" width="11" height="32"></rect>
        <rect id="Rectangle-Copy-39" stroke="#272C37" x="11.5" y="0.5" width="29" height="32"></rect>
        <line x1="11.5" y1="3.4" x2="41" y2="3.4" id="Line-9-Copy" stroke="#272C37" stroke-linecap="square"></line>
        <line x1="11.5" y1="6.4" x2="23.5" y2="6.4" id="Line-9" stroke="#272C37" stroke-linecap="square"></line>
        <line x1="11.5" y1="23.4" x2="23.5" y2="23.4" id="Line-9-Copy-2" stroke="#272C37" stroke-linecap="square"></line>
        <line x1="11.5" y1="28.2" x2="17.5" y2="28.2" id="Line-9-Copy-3" stroke="#272C37" stroke-linecap="square"></line>
        <line x1="19.7" y1="3.4" x2="19.7" y2="32.1" id="Line-10-Copy" stroke="#272C37" stroke-linecap="square"></line>
        <line x1="35.5" y1="2.5" x2="35.5" y2="18.5" id="Line-10" stroke="#272C37" stroke-linecap="square"></line>
        <rect id="Rectangle" stroke="#272C37" fill="#272C37" x="6.5" y="35.5" width="6" height="5"></rect>
        <rect id="Rectangle-Copy-41" stroke="#272C37" fill="#272C37" x="0.5" y="36.4638888" width="3.25227481" height="5"></rect>
        <rect id="Rectangle-Copy-40" stroke="#272C37" fill="#272C37" x="32.5" y="35.5" width="5.06395207" height="5"></rect>
        <line x1="4.5" y1="33.5" x2="4.5" y2="41.5" id="Line-11" stroke="#272C37" stroke-linecap="square"></line>
        <line x1="18.5" y1="33.5" x2="18.5" y2="41.5" id="Line-11-Copy" stroke="#272C37" stroke-width="2" stroke-linecap="square"></line>
        <line x1="39.3116773" y1="33.5" x2="39.3116773" y2="41.5" id="Line-11-Copy-2" stroke="#272C37" stroke-width="2" stroke-linecap="square"></line>
        <rect id="Rectangle" stroke="#272C37" x="21.5" y="34.5" width="9" height="3"></rect>
    </g>
</svg>