<?xml version="1.0" encoding="UTF-8"?>
<svg width="60px" height="39px" viewBox="0 0 60 39" version="1.1" xmlns="http://www.w3.org/2000/svg" xmlns:xlink="http://www.w3.org/1999/xlink">
    <title>Toilet</title>
    <g id="Toilet" stroke="none" stroke-width="1" fill="none" fill-rule="evenodd">
        <path d="M15,0.5 L0.5,0.5 L0.5,38 L15,38 C16.5187831,38 17.8937831,37.3843915 18.8890873,36.3890873 C19.8843915,35.3937831 20.5,34.0187831 20.5,32.5 L20.5,6 C20.5,4.48121694 19.8843915,3.10621694 18.8890873,2.1109127 C17.8937831,1.11560847 16.5187831,0.5 15,0.5 Z" id="Rectangle" stroke="#272C37"></path>
        <polygon id="Path-21" stroke="#272C37" points="21 9 27 9 27 27 21 27"></polygon>
        <path d="M36.9749863,4.50013468 C32.2899092,4.50476728 29.2880016,5.80495592 27.4181968,7.962423 C25.0630119,10.679944 24.5,14.7000721 24.5,19 C24.5,23.2156302 24.7331453,26.5996023 26.9073166,28.7737736 C28.696288,30.5627449 31.7792022,31.4978299 36.9818703,31.4999962 C43.6594437,31.0528707 48.9317458,29.4062482 52.7045422,27.2737981 C54.8897147,26.0387006 56.5676696,24.6432399 57.7144744,23.2264423 C58.8844437,21.7810266 59.5,20.3198503 59.5,19 C59.5,16.2105917 58.1743594,12.467107 53.5257256,9.43538932 C50.0728112,7.18348862 44.8181814,5.32875052 36.9749863,4.50013468 Z" id="Oval" stroke="#272C37"></path>
    </g>
</svg>