<svg xmlns="http://www.w3.org/2000/svg" width="24" height="24">
  <path d="M18.5193388 21.7071132c.1848762.4105154.0019564.8930911-.4087167 1.0779698l-2.0827109.9380881c-.1969404.0890156-.421433.0957-.6235905.0190748-.2023205-.0766252-.3656767-.2303647-.4545282-.4274708l-.9669321-2.1468099c-1.1148005.2421031-2.2718259.2779702-3.4027664.1036886l-.83422552 2.2019148c-.07662419.2023231-.23036167.3656815-.42746518.4545341C9.2121076 23.9760342 9.09782343 24 8.98353926 24c-.09765509 0-.19563624-.0176075-.28872649-.0528225l-2.13618473-.8092925c-.42094398-.1594456-.63288324-.63012-.47343971-1.0510695l.83438858-2.2020778c-.96106304-.6187077-1.80278797-1.4103928-2.47952634-2.3325037l-2.14694473.9671079c-.19710351.0890156-.42127004.0957-.62359052.0190748-.20215745-.0766252-.36567674-.2303647-.45436517-.4274708l-.93823881-2.0827382c-.08885146-.1971061-.09569873-.4214386-.01907454-.6235987.0766242-.2023231.23036168-.3656815.4274652-.4545341l2.14710775-.9671079c-.24209985-1.1177497-.27731437-2.2729968-.10385024-3.4026479L.52651058 9.74591959C.1055666 9.58647396-.10637267 9.1157996.05307087 8.6948501l.80928192-2.1360497c.0766242-.20232314.23036168-.36568154.42746519-.45453416.19726654-.0886896.4215961-.09553695.62359052-.01907479l2.20204894.83439951c.61869961-.9609126 1.4105373-1.8028116 2.33247309-2.47955884l-.96709515-2.14697287c-.18487625-.41051543-.0021194-.89309115.40839065-1.07796982L7.97209989.27683832c.19710351-.08885263.4215961-.09553695.62359052-.01907478.20232048.0766252.36567674.2303647.4545282.42747079l.96693209 2.14680984c1.1149636-.24210303 2.2718259-.27813317 3.4027664-.10368857l.8342256-2.20191477c.0766241-.20232313.2303616-.36568154.4274651-.45453416.1972666-.08885263.4215961-.09553695.6235906-.01907478l2.1360217.80945556c.4209439.15944563.6328832.63011999.4734397 1.05106949l-.8343886 2.2020778c.9609.61870772 1.802788 1.41055579 2.4795263 2.33250367l2.1469448-.96710784c.410184-.18471564.8930794-.00211942 1.0779557.40839601l.9382388 2.08273813c.0888514.1971061.0956987.4214386.0190745.6235987-.0766242.20232313-.2303617.36568153-.4274652.45453416l-2.1469447.96710783c.2420998 1.1179127.2773144 2.2728338.1038502 3.4026479l2.202049.8343996c.2023204.0766252.3656767.2303646.4545282.4274707.0888514.1971061.0956987.4214386.0190745.6235987l-.8092819 2.1362128c-.1594436.4209495-.6299487.6330545-1.0510557.4734459l-2.202049-.8343995c-.6186996.9609126-1.4105373 1.8028116-2.3324731 2.4795588l.9670952 2.1469729zm-1.3508683-7.748764c.523164-1.3805579.4773525-2.8822488-.1291199-4.22840678-.6063093-1.34599499-1.700568-2.37538118-3.0811078-2.89838892-.6309268-.23900541-1.2894058-.36030147-1.9571775-.36030147-2.28291195 0-4.36040581 1.43484761-5.1695247 3.57057127-.52300089 1.3805578-.4771894 2.8822487.12911992 4.2282437.60630932 1.346158 1.70056803 2.3755442 3.08110778 2.8985519.6309269.2390054 1.2894059.3603015 1.9571776.3603015 2.2829119 0 4.3604057-1.4348476 5.1695246-3.5705712z"/>
</svg>
