<svg xmlns="http://www.w3.org/2000/svg" width="24" height="24" viewBox="0 0 24 24">
  <g fill="none" stroke="#000" stroke-width=".8">
    <path d="M18.1546254,21.8710972 L17.0545764,19.4289959 L17.3155499,19.2374307 C18.1979426,18.5897186 18.9560628,17.7837708 19.5484012,16.8638124 L19.7236808,16.5915862 L20.026449,16.7063095 L22.2285313,17.5407107 C22.4429478,17.6219781 22.6825433,17.514028 22.7637646,17.2995971 L23.5730698,15.163351 C23.612081,15.0604278 23.60859,14.9462346 23.5633675,14.8459153 C23.5180651,14.7454189 23.4348676,14.6671606 23.3317683,14.6281141 L20.8269491,13.6790014 L20.8760845,13.3589746 C21.0421397,12.2774306 21.0084031,11.1717952 20.7766641,10.1017382 L20.7081406,9.78533059 L21.0033185,9.65236718 L23.150162,8.68531764 C23.2506584,8.6400153 23.3289168,8.55681776 23.3679778,8.45367998 C23.406989,8.35075686 23.403498,8.23656363 23.358235,8.13615445 L22.4199782,6.05340366 C22.3259045,5.84451699 22.07994,5.75138754 21.8710252,5.84546564 L19.4289095,6.9455211 L19.2373443,6.68454765 C18.5896322,5.80215494 17.7836845,5.04403475 16.863726,4.45169636 L16.5914998,4.27641672 L16.7062231,3.9736485 L17.5405945,1.77164487 C17.6218062,1.55723945 17.5138346,1.31751367 17.2994763,1.23631986 L15.1635916,0.426926786 C15.0605699,0.387929883 14.946266,0.391402295 14.845992,0.436567022 C14.7454956,0.481869365 14.6672372,0.565066901 14.6281964,0.668151176 L13.6791729,3.17303919 L13.3589401,3.12364477 C12.2780818,2.9569274 11.170646,2.99086163 10.1020277,3.22289821 L9.78547004,3.29163459 L9.65243813,2.99627728 L8.68555732,0.84960947 C8.64025498,0.749113078 8.55705744,0.67085471 8.4540836,0.63185575 C8.35107604,0.592864186 8.236657,0.596339428 8.13638344,0.641541308 L6.0534803,1.5797933 C5.84445011,1.6739316 5.75137124,1.91964339 5.84554229,2.1287463 L6.94559774,4.57086199 L6.68462429,4.76242712 C5.80223159,5.41013925 5.0441114,6.216087 4.45177301,7.13604549 L4.27649336,7.40827164 L3.97372515,7.29354833 L1.7718017,6.45920728 C1.66890963,6.42025943 1.55449539,6.4237572 1.4542021,6.46884752 C1.35370571,6.51414986 1.27544734,6.5973474 1.23640597,6.70043324 L0.427136102,8.83642311 C0.345924443,9.05082854 0.45389607,9.29055431 0.668242864,9.37174377 L3.17306877,10.320859 L3.12392533,10.6408918 C2.95786896,11.722287 2.99161289,12.8282411 3.22334451,13.8981078 L3.29188162,14.2145323 L2.99668227,14.3474953 L0.849686116,15.3145402 C0.749189725,15.3598425 0.670931357,15.4430401 0.631870294,15.5461779 C0.592859114,15.649101 0.59635012,15.7632942 0.641613138,15.8637034 L1.5799244,17.9465751 C1.62501816,18.0467927 1.708255,18.1250881 1.81118618,18.1641023 C1.91443903,18.2032069 2.02840006,18.1997443 2.12882295,18.1543922 L4.5709641,17.0543253 L4.76252373,17.3153374 C5.41021742,18.197861 6.21598226,18.9558068 7.13609617,19.5481448 L7.40835734,19.7234172 L7.29362498,20.0262093 L6.45925357,22.228213 C6.37804191,22.4426184 6.48601353,22.6823442 6.7003374,22.7635249 L8.83633863,23.5727374 C8.88351404,23.5905831 8.93349253,23.5996854 8.98353926,23.5996854 C9.04233504,23.5996854 9.10045543,23.5872808 9.15401917,23.5631278 C9.25451556,23.5178254 9.33277393,23.4346279 9.37181472,23.3315436 L10.3208217,20.8266992 L10.6410154,20.8760415 C11.7222416,21.0426597 12.8298543,21.0087609 13.8979716,20.7767992 L14.214537,20.7080511 L14.347573,21.0034175 L15.3144538,23.1500853 C15.3597562,23.2505817 15.4429537,23.3288401 15.5460915,23.3679012 C15.6491298,23.406956 15.7633276,23.4034875 15.8636407,23.3581476 L17.946422,22.4200401 C18.1556203,22.3258635 18.2487755,22.0801536 18.154619,21.8710829 L18.1546254,21.8710972 Z" transform="matrix(1 0 0 -1 0 24)"/>
    <path d="M16.7441906,13.7973513 C16.0014828,15.7577528 14.094506,17.0748133 11.9989715,17.0748133 C11.3860093,17.0748133 10.7815771,16.9634745 10.2024356,16.7440891 C8.93520817,16.2640152 7.93076429,15.3191316 7.37421978,14.0834801 C6.81767527,12.8479782 6.77562391,11.4695616 7.2556978,10.2023341 C7.99840563,8.24193263 9.90538243,6.92487206 12.0009169,6.92487206 C12.6138791,6.92487206 13.2183113,7.0362109 13.7974528,7.25559628 C15.0646803,7.73567017 16.0691241,8.68055376 16.6256687,9.91605564 C17.1823628,11.1517072 17.2244142,12.5301238 16.7441906,13.7973513 Z" transform="matrix(1 0 0 -1 0 24)"/>
  </g>
</svg>
