<svg xmlns="http://www.w3.org/2000/svg" width="24" height="24" viewBox="0 0 24 24">
  <g fill="none" stroke="#000" transform="matrix(1 0 0 -1 -.197 23.154)">
    <path d="M23.6780886,10.8988801 L23.6611225,10.8715672 L18.0391201,1.13383717 C17.9814059,1.04726581 17.9220603,1.01264753 17.8362341,1.01264753 L6.55829714,1.01264753 C6.47247098,1.01264753 6.41312535,1.04726581 6.3723772,1.10652426 L0.716442635,10.8988801 C0.690873288,10.9372342 0.690873288,10.993505 0.733408716,11.0591719 L6.35541112,20.796902 C6.41312535,20.8834734 6.47247098,20.9180917 6.55829714,20.9180917 L17.8362341,20.9180917 C17.9220603,20.9180917 17.9814059,20.8834734 18.0221541,20.8242149 L23.6780886,11.031859 C23.703658,10.993505 23.703658,10.9372342 23.6780886,10.8988801 Z"/>
    <path d="M12.1972656,15.8673163 C14.9135685,15.8673163 17.1380752,13.6428096 17.1380752,11.0042325 C17.1380752,8.27684604 14.902737,6.06342291 12.1972656,6.06342291 C9.46987915,6.06342291 7.25645601,8.29876112 7.25645601,11.0042325 C7.25645601,13.6649537 9.50286582,15.8673163 12.1972656,15.8673163 Z"/>
  </g>
</svg>
