<svg xmlns="http://www.w3.org/2000/svg" width="24" height="24" viewBox="0 0 24 24">
  <path d="M24.0963851,10.9019225 C24.2339209,11.1082262 24.2339209,11.3832979 24.0963851,11.5896016 L18.4574166,21.3546446 C18.3198808,21.5609483 18.1135771,21.6984841 17.8385055,21.6984841 L6.56056849,21.6984841 C6.28549686,21.6984841 6.07919314,21.5609483 5.94165732,21.3546446 L0.302688837,11.5896016 C0.165153021,11.3832979 0.165153021,11.1082262 0.302688837,10.9019225 L5.94165732,1.13687953 C6.07919314,0.930575809 6.28549686,0.793039992 6.56056849,0.793039992 L17.8385055,0.793039992 C18.1135771,0.793039992 18.3198808,0.930575809 18.4574166,1.13687953 L24.0963851,10.9019225 Z M12.199537,17.459614 C15.6864467,17.459614 18.4580929,14.5985599 18.4580929,11.290466 C18.4580929,7.8035563 15.5970388,5.03191011 12.199537,5.03191011 C8.71262725,5.03191011 5.94098106,7.89296424 5.94098106,11.290466 C5.94098106,14.6879678 8.80203519,17.459614 12.199537,17.459614 Z" transform="matrix(1 0 0 -1 -.2 23.246)"/>
</svg>
