<svg xmlns="http://www.w3.org/2000/svg" width="24" height="24">
  <g fill-rule="evenodd" transform="matrix(-1 0 0 1 24.709 -.715)">
    <path fill-rule="nonzero" d="M19.2310087 22.4218376c.1848763.41051.0019564.8930794-.4087167 1.0779557l-2.0827108.9380758c-.1969405.0890145-.4214331.0956987-.6235906.0190745-.2023204-.0766242-.3656767-.2303617-.4545282-.4274652l-.9669321-2.1467817c-1.1148005.2420999-2.2718258.2779665-3.4027664.1036872l-.8342255 2.2018859c-.0766242.2023205-.2303617.3656768-.4274652.4545282-.10629567.0479309-.22057985.0718964-.33486402.0718964-.09765509 0-.19563624-.0176073-.28872648-.0528218l-2.13618474-.809282c-.42094398-.1594435-.63288324-.6301117-.4734397-1.0510557l.83438857-2.2020489c-.96106304-.6186996-1.80278797-1.4103743-2.47952634-2.3324731l-2.14694473.9670952c-.19710351.0890145-.42127004.0956987-.62359052.0190745-.20215745-.0766242-.36567674-.2303617-.45436517-.4274652l-.93823881-2.0827108c-.08885146-.1971035-.09569873-.4214331-.01907454-.6235905.0766242-.2023205.23036168-.3656768.42746519-.4545282l2.14710776-.9670952c-.24209985-1.1177351-.27731437-2.2729671-.10385024-3.4026033l-2.20204893-.8343886c-.42094398-.1594436-.63288324-.63011174-.4734397-1.05105572l.80928191-2.13602171c.0766242-.20232048.23036168-.36567674.42746519-.4545282.19726655-.08868843.4215961-.0955357.62359052-.01907453l2.20204894.83438857c.61869961-.96090001 1.4105373-1.80278797 2.3324731-2.47952634L6.1925053 3.00803814c-.18487625-.41051004-.00211939-.89307944.40839065-1.07795569L8.68376981.99184364c.19710352-.08885146.4215961-.0955357.62359052-.01907454.20232048.0766242.36567675.23036168.45452821.42746519l.96693216 2.1467817c1.1149635-.24209985 2.2718258-.27812952 3.4027663-.10368721l.8342256-2.2018859c.0766242-.20232048.2303617-.36567674.4274652-.4545282.1972665-.08885146.4215961-.0955357.6235905-.01907454l2.1360217.80944495c.420944.15944354.6328832.63011173.4734397 1.05105571l-.8343886 2.20204894c.9609.61869961 1.802788 1.4105373 2.4795264 2.33247309l2.1469447-.96709515c.410184-.18471322.8930794-.00211939 1.0779557.40839065l.9382388 2.08271083c.0888515.19710351.0956987.42143307.0190745.62359052-.0766242.20232048-.2303616.36567674-.4274652.4545282l-2.1469447.96709512c.2420999 1.1178981.2773144 2.2728041.1038502 3.4026034l2.202049.8343886c.2023205.0766241.3656767.2303616.4545282.4274651.0888514.1971036.0956987.4214331.0190745.6235906l-.8092819 2.1361847c-.1594435.420944-.6299487.6330463-1.0510557.4734397l-2.2020489-.8343886c-.6186997.9609-1.4105374 1.802788-2.3324731 2.4795264l.9670951 2.1469447zm-1.3508682-7.7486625c.5231639-1.3805397.4773524-2.8822109-.12912-4.2283513-.6063093-1.34597732-1.700568-2.37535001-3.0811077-2.8983509-.6309269-.23900228-1.2894059-.36029675-1.9571776-.36029675-2.2829119 0-4.36040579 1.43482881-5.16952468 3.57052445-.52300089 1.3805398-.4771894 2.8822109.12911992 4.2281883.60630932 1.3461404 1.70056803 2.3755131 3.08110776 2.8985139.6309269.2390023 1.2894059.3602968 1.9571776.3602968 2.2829119 0 4.3604058-1.4348288 5.1695247-3.5705245z"/>
    <circle cx="12.712" cy="12.723" r="3.166"/>
  </g>
</svg>
