<svg xmlns="http://www.w3.org/2000/svg" width="24" height="24" viewBox="0 0 24 24">
  <g transform="translate(0 2)">
    <path d="M15.3577797,6.92557295 L11.7337856,0.649875921 C11.6453955,0.517290773 11.5128104,0.428900674 11.3360302,0.428900674 L4.08804208,0.428900674 C3.91126188,0.428900674 3.77867673,0.517290773 3.69028663,0.649875921 L0.0662925743,6.92557295 C-0.0220975248,7.0581581 -0.0220975248,7.2349383 0.0662925743,7.36752345 L3.69028663,13.6432205 C3.77867673,13.7758056 3.91126188,13.8641957 4.08804208,13.8641957 L11.3360302,13.8641957 C11.5128104,13.8641957 11.6453955,13.7758056 11.7337856,13.6432205 L15.3577797,7.36752345 C15.4461698,7.2349383 15.4461698,7.0581581 15.3577797,6.92557295 Z M7.71203614,10.2402017 C6.03262426,10.2402017 4.61838267,8.87015513 4.61838267,7.19074325 C4.61838267,5.51133137 5.98842921,4.09708978 7.71203614,4.09708978 C9.39144802,4.09708978 10.8056896,5.46713632 10.8056896,7.19074325 C10.8056896,8.82596008 9.43564307,10.2402017 7.71203614,10.2402017 Z" transform="matrix(1 0 0 -1 0 14.03)"/>
    <path d="M11.3027819,5.12820134 L8.78300185,0.764679737 C8.7215438,0.672492661 8.62935672,0.61103461 8.50644062,0.61103461 L3.46688046,0.61103461 C3.34396436,0.61103461 3.25177729,0.672492661 3.19031924,0.764679737 L0.670539155,5.12820134 C0.609081105,5.22038842 0.609081105,5.34330452 0.670539155,5.43549159 L3.19031924,9.79901319 C3.25177729,9.89120027 3.34396436,9.95265832 3.46688046,9.95265832 L8.50644062,9.95265832 C8.62935672,9.95265832 8.7215438,9.89120027 8.78300185,9.79901319 L11.3027819,5.43549159 C11.36424,5.34330452 11.36424,5.22038842 11.3027819,5.12820134 Z M5.98666054,7.43287824 C4.81895758,7.43287824 3.83562877,6.48027846 3.83562877,5.31257549 C3.83562877,4.14487253 4.78822855,3.16154372 5.98666054,3.16154372 C7.15436351,3.16154372 8.13769232,4.1141435 8.13769232,5.31257549 C8.13769232,6.44954943 7.18509253,7.43287824 5.98666054,7.43287824 Z" transform="matrix(1 0 0 -1 12.651 19.43)"/>
  </g>
</svg>
