<svg xmlns="http://www.w3.org/2000/svg" width="24" height="24">
  <path d="M12.5176395 14.7261359l-.6536814-1.4511684c.6231572-.4574228 1.1583782-1.0264739 1.5765712-1.6759679l1.4884147.5639821c.2846357.1078817.6026608-.035483.7104323-.3200086l.5470119-1.4438955c.051792-.1366428.0471638-.2882722-.0128929-.42149894-.0600567-.13322672-.1704729-.23714135-.3072259-.28893338l-1.4884146-.56398209c.1172483-.76365687.093446-1.5442839-.0701947-2.29989648l1.4511684-.65368146c.1332267-.06005671.2371414-.1704729.2889334-.30722589.051792-.13664278.0471638-.2882722-.0128929-.42149892l-.6341768-1.40775131c-.1249621-.27747301-.451362-.40089231-.7286146-.27604047l-1.4511685.65368147c-.4574227-.62315723-1.0264738-1.15837822-1.6759679-1.57657127l.5639821-1.48841463c.1077715-.28452555-.035483-.60266081-.3200086-.7104323L10.3451294.0897098c-.1365326-.05168183-.288162-.0471638-.42149893.0128929-.13322672.06005672-.23714136.1704729-.28893338.30722589l-.5638719 1.48830443c-.76442824-.1179095-1.54637761-.09355623-2.30000667.07008453L6.11724725.51715929c-.06005671-.13322671-.1704729-.23714135-.30722588-.28893338-.1365326-.05168182-.28827221-.0471638-.42149893.01289291l-1.4078615.63417681c-.27747302.12496204-.4010025.4511416-.27604047.72861461l.65368147 1.45116845c-.62315724.45742276-1.15837822 1.02647385-1.57657127 1.67596788l-1.48841463-.56398209c-.13653259-.05168183-.28816201-.0470536-.42149892.01289291-.13322672.06005671-.23714136.1704729-.28893338.30722588L.0358718 5.9309686c-.10777149.28452555.03548305.60266082.3200086.71043231l1.48841462.56398209c-.11724832.76354667-.09344603 1.54439409.07019473 2.29989647L.4632111 10.1589609c-.13322672.0600568-.23714135.1704729-.28893338.3072259-.05179202.1366428-.0471638.2882722.0128929.4214989l.63417682 1.4077514c.05994651.1332267.1704729.2371413.30711569.2889333.13675298.0517921.2882722.047274.42149892-.0128929l1.45116845-.6536814c.45742275.6232674 1.02636365 1.1583782 1.67596788 1.5765712l-.56398209 1.4884147c-.10777149.2845255.03548305.6026608.32000859.7104323l1.44389553.5470119c.0629218.0238023.12914947.0357034.19515676.0357034.07724725 0 .1544945-.0161987.22634216-.0485963.13322672-.0600567.23714136-.1704729.28893338-.3072259l.5638719-1.4883044c.76442824.1177993 1.54648781.0935562 2.30000667-.0700846l.65357132 1.4510583c.0600567.1332267.1704729.2371414.3072258.2889334.1366428.051792.2883824.047274.421499-.0128929l1.4077513-.6340666c.2775832-.1249621.4012229-.4511416.2762608-.7286147zm-.9130823-5.23749599c-.5469018 1.44356489-1.95112683 2.41339819-3.49419857 2.41339819-.45136199 0-.89644281-.0819857-1.32290054-.2435328-.93313801-.3535081-1.6727722-1.0492843-2.08259037-1.95917103-.40981817-.9097765-.44078319-1.92478998-.08727507-2.85792799.54690174-1.44356494 1.95112678-2.41339815 3.49419852-2.41339815.45136199 0 .89644281.08198567 1.32290055.24353271.93313798.35350812 1.67277218 1.04928438 2.08259038 1.95906088.4099283.90988669.4408934 1.92490018.0872751 2.85803819zm12.2503565 7.52372819c-.0987354-.1076612-.23637-.171685-.3822692-.1779662l-1.037824-.0445191c-.0955398-.4898203-.2681064-.9626705-.5105372-1.399156l.7653099-.702388c.2242484-.2057356.2391248-.5542849.0333893-.7784231l-.7599102-.8280112c-.0987355-.1076613-.23637-.1716851-.3823794-.1779663-.1456789-.0053995-.2884926.0458415-.3961539.1445769l-.7651997.702388c-.414226-.2789055-.8705467-.4912528-1.3503392-.6283364l.0445191-1.037824c.0130031-.3040302-.2229261-.5610068-.5269563-.5740099l-1.122785-.0481556c-.3024875-.0114603-.5610068.2229261-.5740099.5268461l-.0445191 1.037824c-.4897102.0955398-.9625603.2681064-1.3991561.510427l-.702388-.7653098c-.0987354-.1076613-.23637-.1716851-.3822692-.1779662-.1458992-.0059506-.2884926.0458414-.3961539.1445768l-.8280112.7599103c-.2242485.2057355-.2391249.5542848-.0333893.7784231l.702388.7653098c-.2789056.414226-.4912529.8704366-.6283365 1.3503393l-1.0377138-.0445191c-.3027078-.0122318-.561117.2228159-.5741201.5268461l-.0481555 1.1227849c-.0062812.1460095.0457312.2884926.1445768.3961539.0987355.1076613.23637.1716851.3823795.1779663l1.0377138.0444089c.0955397.4898203.2681064.9626704.5104269 1.3992662l-.7651996.702388c-.1076613.0987354-.1716851.23637-.1779662.3822692-.0062812.1460094.0457312.2884926.1445769.3961539l.7599102.8280112c.0987354.1076613.23637.1716851.3823794.1779662.1453483.0058404.2884926-.0458414.3961539-.1445768l.7651996-.7023881c.414226.2789056.8705468.4912529 1.3503393.6283365l-.0445191 1.037824c-.0130031.3040302.2228159.5610068.5268461.5740099l1.122785.0481556c.0079341.0003305.015758.0004407.0235819.0004407.1377447 0 .2707511-.0515716.372572-.1450176.1076613-.0987355.171685-.23637.1779662-.3822692l.0445191-1.0378241c.4897101-.0955397.9625603-.2681063 1.399156-.5104269l.702388.7653098c.0987355.1076613.23637.1716851.3822692.1779662.1465605.0063914.2886028-.0458414.3961539-.1445769l.8280113-.7599102c.2242484-.2057355.2391248-.5542848.0333893-.7784231l-.702388-.7653098c.2789055-.414226.4912528-.8704366.6283364-1.3503393l1.0377138.0445191c.3036996.0116808.5610068-.2228159.5741201-.5268461l.0481556-1.122785c.0062812-.1460094-.0457313-.2884926-.1445769-.3961539zm-6.2063375 3.2578286c-1.4153548-.0606077-2.5175332-1.2615215-2.4568153-2.6768763.059065-1.3789902 1.1855966-2.4592396 2.5645868-2.4592396.0372462 0 .0747128.0007714.1122895.0024243 1.4153549.0607179 2.5175332 1.2615215 2.4568153 2.6768763-.0607179 1.4163466-1.2499509 2.5167618-2.6768763 2.4568153z"/>
</svg>
