<svg xmlns="http://www.w3.org/2000/svg" width="24" height="24">
  <path d="M23.6775 5.73530457c-.075-.24783692-.276-.4410907-.531-.50747559-.258-.06933533-.528.00442566-.7155.18587769l-3.924 3.77213684-2.871-.56500916-.5715-2.81324402 3.9675-3.81344299c.189-.18145203.267-.44699158.2055-.69925415-.0615-.25226257-.252-.45436768-.504-.53255432-.7965-.24488648-1.527-.3658545-2.2335-.3658545-4.1355 0-7.5 3.30891785-7.5 7.37609864 0 .47649597.057.95889282.177 1.48997192-.843.68302674-1.644 1.27163937-2.5515 1.93843877-1.2975.9529919-2.7675 2.0313775-4.773 3.6969006C.675 15.909895 0 17.3452838 0 18.836731 0 21.683905 2.355 24 5.25 24c1.5315 0 2.9895-.6727002 3.993-1.8440247 1.7235-1.9871209 2.8365-3.4461132 3.816-4.7339801.663-.8718548 1.248-1.6389691 1.9245-2.4488647.54.1194928 1.032.1755511 1.5165.1755511 4.1355 0 7.5-3.3089178 7.5-7.37609859 0-.64467102-.102-1.29081726-.3225-2.03727844zM5.25 20.3119507c-.8295 0-1.5-.6594232-1.5-1.4752197 0-.8157966.6705-1.4752198 1.5-1.4752198s1.5.6594232 1.5 1.4752198c0 .8157965-.6705 1.4752197-1.5 1.4752197z"/>
</svg>
