<?xml version="1.0" encoding="UTF-8"?>
<svg width="21px" height="21px" viewBox="0 0 21 21" version="1.1" xmlns="http://www.w3.org/2000/svg" xmlns:xlink="http://www.w3.org/1999/xlink">
    <!-- Generator: Sketch 55.2 (78181) - https://sketchapp.com -->
    <title>align-right-solid</title>
    <desc>Created with Sketch.</desc>
    <g id="User-Journey-Final-1-Desktop" stroke="none" stroke-width="1" fill="none" fill-rule="evenodd">
        <g id="align-right-solid" fill="#000000" fill-rule="nonzero">
            <path d="M0.75,9.00000026 L20.25,9.00000026 C20.6642136,9.00000026 21,8.66421378 21,8.25000022 L21,6.75000025 C21,6.33578669 20.6642136,6.00000026 20.25,6.00000026 L0.75,6.00000026 C0.335786438,6.00000026 0,6.33578669 0,6.75000025 L0,8.25000022 C0,8.66421378 0.335786438,9.00000026 0.75,9.00000026 Z M20.25,18.0000001 L0.75,18.0000001 C0.335786438,18.0000001 0,18.3357865 0,18.75 L0,20.25 C0,20.6642136 0.335786438,21.0000001 0.75,21.0000001 L20.25,21.0000001 C20.6642136,21.0000001 21,20.6642136 21,20.25 L21,18.75 C21,18.3357865 20.6642136,18.0000001 20.25,18.0000001 Z M20.3985937,1.82689053e-07 L8.10140625,1.82689053e-07 C7.94186526,-0.000124129642 7.78882288,0.0631981519 7.67601034,0.176010699 C7.56319779,0.288823245 7.49999982,0.44186562 7.49999982,0.601406605 L7.49999982,2.39859407 C7.49999982,2.55813506 7.56319779,2.71117743 7.67601034,2.82398998 C7.78882288,2.93680253 7.94186526,3.00012481 8.10140625,3.00000018 L20.3985937,3.00000018 C20.5581347,3.00012481 20.7111771,2.93680253 20.8239897,2.82398998 C20.9368022,2.71117743 20.9999998,2.55813506 20.9999998,2.39859407 L20.9999998,0.601406605 C20.9999998,0.44186562 20.9368022,0.288823245 20.8239897,0.176010699 C20.7111771,0.0631981519 20.5581347,-0.000124129642 20.3985937,1.82689053e-07 Z M20.3985937,12 L8.10140625,12 C7.94186526,11.9998757 7.78882288,12.0631979 7.67601034,12.1760105 C7.56319779,12.288823 7.49999982,12.4418654 7.49999982,12.6014064 L7.49999982,14.3985939 C7.49999982,14.5581348 7.56319779,14.7111772 7.67601034,14.8239898 C7.78882288,14.9368023 7.94186526,15.0001246 8.10140625,15 L20.3985937,15 C20.5581347,15.0001246 20.7111771,14.9368023 20.8239897,14.8239898 C20.9368022,14.7111772 20.9999998,14.5581348 20.9999998,14.3985939 L20.9999998,12.6014064 C20.9999998,12.4418654 20.9368022,12.288823 20.8239897,12.1760105 C20.7111771,12.0631979 20.5581347,11.9998757 20.3985937,12 L20.3985937,12 Z" id="Shape"></path>
        </g>
    </g>
</svg>