<?xml version="1.0" encoding="UTF-8"?>
<svg width="21px" height="21px" viewBox="0 0 21 21" version="1.1" xmlns="http://www.w3.org/2000/svg" xmlns:xlink="http://www.w3.org/1999/xlink">
    <!-- Generator: Sketch 55.2 (78181) - https://sketchapp.com -->
    <title>align-center-solid</title>
    <desc>Created with Sketch.</desc>
    <g id="User-Journey-Final-1-Desktop" stroke="none" stroke-width="1" fill="none" fill-rule="evenodd">
        <g id="align-center-solid" fill="#000000" fill-rule="nonzero">
            <path d="M20.25,6.00000028 L0.75,6.00000028 C0.335786438,6.00000028 0,6.33578671 0,6.75000026 L0,8.25000024 C0,8.66421379 0.335786438,9.00000028 0.75,9.00000028 L20.25,9.00000028 C20.6642136,9.00000028 21,8.66421379 21,8.25000024 L21,6.75000026 C21,6.33578671 20.6642136,6.00000028 20.25,6.00000028 Z M20.25,18.0000001 L0.75,18.0000001 C0.335786438,18.0000001 0,18.3357865 0,18.75 L0,20.25 C0,20.6642136 0.335786438,21.0000001 0.75,21.0000001 L20.25,21.0000001 C20.6642136,21.0000001 21,20.6642136 21,20.25 L21,18.75 C21,18.3357865 20.6642136,18.0000001 20.25,18.0000001 Z M5.0671875,3.00000019 L15.9332813,3.00000019 C16.0836657,3.00000019 16.2278839,2.94022835 16.3341777,2.83384656 C16.4404716,2.72746478 16.5001244,2.5831972 16.5,2.43281284 L16.5,0.566719127 C16.5,0.416415972 16.4402923,0.272268843 16.3340119,0.165988463 C16.2277315,0.0597080834 16.0835844,1.93533716e-07 15.9332813,1.93533716e-07 L5.0671875,1.93533716e-07 C4.91680314,-0.00012399976 4.77253556,0.0595287793 4.66615377,0.165822644 C4.55977199,0.272116509 4.5,0.416334721 4.5,0.566719127 L4.5,2.43281284 C4.5,2.74606184 4.75393849,3.00000019 5.0671875,3.00000019 Z M15.9332813,15 C16.0836657,15 16.2278839,14.9402281 16.3341777,14.8338463 C16.4404716,14.7274646 16.5001244,14.583197 16.5,14.4328126 L16.5,12.5667189 C16.5,12.2537288 16.2462714,12 15.9332813,12 L5.0671875,12 C4.91680314,11.9998758 4.77253556,12.0595286 4.66615377,12.1658224 C4.55977199,12.2721163 4.5,12.4163345 4.5,12.5667189 L4.5,14.4328126 C4.5,14.5832401 4.55975708,14.7275065 4.66612537,14.8338747 C4.77249366,14.940243 4.91676002,15 5.0671875,15 L15.9332813,15 Z" id="Shape"></path>
        </g>
    </g>
</svg>