<?xml version="1.0" encoding="UTF-8"?>
<svg width="21px" height="21px" viewBox="0 0 21 21" version="1.1" xmlns="http://www.w3.org/2000/svg" xmlns:xlink="http://www.w3.org/1999/xlink">
    <!-- Generator: Sketch 55.2 (78181) - https://sketchapp.com -->
    <title>align-left-solid</title>
    <desc>Created with Sketch.</desc>
    <g id="User-Journey-Final-1-Desktop" stroke="none" stroke-width="1" fill="none" fill-rule="evenodd">
        <g id="align-left-solid" fill="#000000" fill-rule="nonzero">
            <path d="M0.601406423,15 L12.8985937,15 C13.0581347,15.0001246 13.2111771,14.9368023 13.3239896,14.8239898 C13.4368022,14.7111772 13.5,14.5581348 13.5,14.3985939 L13.5,12.6014064 C13.5,12.4418654 13.4368022,12.288823 13.3239896,12.1760105 C13.2111771,12.0631979 13.0581347,11.9998757 12.8985937,12 L0.601406423,12 C0.441865438,11.9998757 0.288823063,12.0631979 0.176010516,12.1760105 C0.0631979692,12.288823 0,12.4418654 0,12.6014064 L0,14.3985939 C0,14.5581348 0.0631979692,14.7111772 0.176010516,14.8239898 C0.288823063,14.9368023 0.441865438,15.0001246 0.601406423,15 Z M0.601406423,3.00000018 L12.8985937,3.00000018 C13.0581347,3.00012481 13.2111771,2.93680253 13.3239896,2.82398998 C13.4368022,2.71117743 13.5,2.55813506 13.5,2.39859407 L13.5,0.601406605 C13.5,0.44186562 13.4368022,0.288823245 13.3239896,0.176010699 C13.2111771,0.0631981519 13.0581347,-0.000124129642 12.8985937,1.82689046e-07 L0.601406423,1.82689046e-07 C0.441865438,-0.000124129642 0.288823063,0.0631981519 0.176010516,0.176010699 C0.0631979692,0.288823245 0,0.44186562 0,0.601406605 L0,2.39859407 C0,2.55813506 0.0631979692,2.71117743 0.176010516,2.82398998 C0.288823063,2.93680253 0.441865438,3.00012481 0.601406423,3.00000018 L0.601406423,3.00000018 Z M20.2499998,6.00000026 L0.75000017,6.00000026 C0.335786615,6.00000026 1.83227478e-07,6.33578669 1.83227478e-07,6.75000025 L1.83227478e-07,8.25000022 C1.83227478e-07,8.66421378 0.335786615,9.00000026 0.75000017,9.00000026 L20.2499998,9.00000026 C20.6642134,9.00000026 21.0000002,8.66421378 21.0000002,8.25000022 L21.0000002,6.75000025 C21.0000002,6.33578669 20.6642134,6.00000026 20.2499998,6.00000026 Z M20.2499998,18.0000001 L0.75000017,18.0000001 C0.335786615,18.0000001 1.83227478e-07,18.3357865 1.83227478e-07,18.75 L1.83227478e-07,20.25 C1.83227478e-07,20.6642136 0.335786615,21.0000001 0.75000017,21.0000001 L20.2499998,21.0000001 C20.6642134,21.0000001 21.0000002,20.6642136 21.0000002,20.25 L21.0000002,18.75 C21.0000002,18.3357865 20.6642134,18.0000001 20.2499998,18.0000001 Z" id="Shape"></path>
        </g>
    </g>
</svg>