<?xml version="1.0" encoding="UTF-8"?>
<svg width="24px" height="24px" viewBox="0 0 24 24" version="1.1" xmlns="http://www.w3.org/2000/svg" xmlns:xlink="http://www.w3.org/1999/xlink">
    <!-- Generator: Sketch 56 (81588) - https://sketch.com -->
    <title>Artboard</title>
    <desc>Created with Sketch.</desc>
    <g id="Artboard" stroke="none" stroke-width="1" fill="none" fill-rule="evenodd">
        <g id="eye-solid-(1)" transform="translate(1.000000, 4.000000)" fill="#000000" fill-rule="nonzero">
            <path d="M21.867104,6.9296875 C19.7958153,2.79648437 15.695252,0 11,0 C6.30474803,0 2.20303885,2.7984375 0.132896033,6.93007812 C-0.0442986775,7.28855461 -0.0442986775,7.71183601 0.132896033,8.0703125 C2.20418469,12.2035156 6.30474803,15 11,15 C15.695252,15 19.7969611,12.2015625 21.867104,8.06992188 C22.0442987,7.71144539 22.0442987,7.28816399 21.867104,6.9296875 Z M11.5,13 C8.46243373,13 6,10.5375656 6,7.5 C6,4.46243373 8.46243373,2 11.5,2 C14.5375656,2 17,4.46243373 17,7.5 C17.0007091,8.95890774 16.4214744,10.3582666 15.3898705,11.3898705 C14.3582666,12.4214744 12.9589077,13.0007091 11.5,13 L11.5,13 Z M11.4917714,4 C11.1786741,4.00438572 10.8675971,4.05097037 10.5669513,4.13850416 C11.0790648,4.83449134 11.0060131,5.80021654 10.3950318,6.411237 C9.78405051,7.02225746 8.81838717,7.09531384 8.12244458,6.58316752 C7.72922089,8.0319728 8.30367047,9.57020897 9.55027405,10.4065473 C10.7968776,11.2428857 12.4379663,11.1910399 13.6293,10.2776815 C14.8206338,9.36432315 15.2968545,7.79289389 14.8129756,6.37179829 C14.3290968,4.95070269 12.9928978,3.99647605 11.4917714,4 L11.4917714,4 Z" id="Shape"></path>
        </g>
    </g>
</svg>