<?xml version="1.0" encoding="UTF-8"?>
<svg width="24px" height="24px" viewBox="0 0 24 24" version="1.1" xmlns="http://www.w3.org/2000/svg" xmlns:xlink="http://www.w3.org/1999/xlink">
    <!-- Generator: Sketch 56 (81588) - https://sketch.com -->
    <title>Artboard Copy</title>
    <desc>Created with Sketch.</desc>
    <g id="Artboard-Copy" stroke="none" stroke-width="1" fill="none" fill-rule="evenodd">
        <g id="eye-slash-solid-(1)" transform="translate(0.000000, 2.000000)" fill="#000000" fill-rule="nonzero">
            <path d="M11.9812793,15.0140406 C9.14134165,15.0140406 6.8424337,12.8158502 6.63088924,10.0302028 L2.70327613,6.99482059 C2.18695788,7.6425585 1.71182527,8.32736349 1.32842434,9.07619345 C1.15472309,9.419794 1.15472309,9.82551021 1.32842434,10.1691108 C3.35887676,14.1307956 7.37859594,16.8112324 11.9812793,16.8112324 C12.98883,16.8112324 13.9608112,16.6614665 14.8975975,16.4195944 L12.9547582,14.9163183 C12.6338935,14.978301 12.3080618,15.0110095 11.9812793,15.0140406 Z M23.73117,17.1893916 L19.5920125,13.99039 C20.8493619,12.9307607 21.8834543,11.631686 22.6341342,10.1687363 C22.8078354,9.8251358 22.8078354,9.41941959 22.6341342,9.07581903 C20.6036817,5.11413417 16.5839626,2.43369735 11.9812793,2.43369735 C10.0536037,2.43603325 8.15723558,2.9213243 6.46539782,3.84524181 L1.70209048,0.163619345 C1.57664371,0.0660033271 1.41754469,0.0222445834 1.25982217,0.0419774543 C1.10209965,0.0617103252 0.95868525,0.143316919 0.861154446,0.268829953 L0.126177847,1.2149766 C-0.0768495384,1.47615378 -0.0297485148,1.85245911 0.231388456,2.05553822 L22.260468,19.0813105 C22.3859148,19.1789265 22.5450138,19.2226852 22.7027363,19.2029523 C22.8604589,19.1832195 23.0038733,19.1016129 23.1014041,18.9760998 L23.8367551,18.0299532 C24.039698,17.7686778 23.9924275,17.3923576 23.73117,17.1893916 Z M16.8524181,11.8726989 L15.3809672,10.7352262 C15.5048849,10.377086 15.5706167,10.0014036 15.575663,9.6224649 C15.5904791,8.49741866 15.0707816,7.43203069 14.1750359,6.75115761 C13.2792901,6.07028453 12.1136849,5.85464236 11.0336349,6.1699844 C11.2594112,6.4759194 11.3815419,6.84598452 11.3822153,7.22620905 C11.3766296,7.35273569 11.3572959,7.47827922 11.3245554,7.60062402 L8.56848674,5.47057722 C9.52585909,4.67052961 10.7336266,4.23181121 11.9812793,4.2308884 C13.4114577,4.23009403 14.7832881,4.79787804 15.7945771,5.80916704 C16.8058661,6.82045605 17.3736501,8.19228649 17.3728557,9.6224649 C17.3728557,10.4323245 17.1747894,11.1871451 16.8524181,11.8730733 L16.8524181,11.8726989 Z" id="Shape"></path>
        </g>
    </g>
</svg>