<svg width="24" height="24" xmlns="http://www.w3.org/2000/svg"><path d="M8 2.615v.616c0 .18-.054.327-.16.442a.536.536 0 01-.411.173H5.714c-.404 0-.744.148-1.018.442-.273.295-.41.66-.41 1.097V7.23h2c.166 0 .303.057.41.173.108.115.161.263.161.442v.616c0 .179-.053.326-.16.442a.536.536 0 01-.411.173h-2v5.538c0 .923-.31 1.718-.929 2.385-.619.667-1.357 1-2.214 1H.57a.536.536 0 01-.41-.173.624.624 0 01-.161-.442v-.616c0-.18.054-.327.16-.442a.536.536 0 01.411-.173h.572c.405 0 .744-.148 1.018-.442.274-.295.41-.66.41-1.097V9.077h-2a.536.536 0 01-.41-.173A.624.624 0 010 8.462v-.616c0-.18.054-.327.16-.442a.536.536 0 01.411-.173h2V5.385c0-.923.31-1.718.929-2.385.619-.667 1.357-1 2.214-1H7.43c.166 0 .303.058.41.173.107.115.161.263.161.442zm3.736 1.9c.16.104.248.234.261.39a.85.85 0 01-.1.469A10.13 10.13 0 0010.43 8.28a10.57 10.57 0 000 6.438 10.13 10.13 0 001.467 2.907.85.85 0 01.1.469c-.013.156-.1.286-.261.39l-.482.39a.707.707 0 01-.502.117.605.605 0 01-.422-.273 12.25 12.25 0 01-1.727-3.434A12.291 12.291 0 018 11.5c0-1.275.2-2.536.603-3.785A12.25 12.25 0 0110.33 4.28a.605.605 0 01.422-.273.707.707 0 01.502.117l.482.39zm9.934-.234a12.25 12.25 0 011.727 3.434C23.8 8.964 24 10.225 24 11.5c0 1.275-.2 2.536-.603 3.785a12.25 12.25 0 01-1.727 3.434.605.605 0 01-.422.273.707.707 0 01-.502-.117l-.482-.39c-.16-.104-.248-.234-.261-.39a.85.85 0 01.1-.469 10.13 10.13 0 001.467-2.907 10.57 10.57 0 000-6.438 10.13 10.13 0 00-1.467-2.907.85.85 0 01-.1-.469.468.468 0 01.154-.307l.59-.473a.707.707 0 01.501-.117.605.605 0 01.422.273zm-3.35 3.824l.492.495a.48.48 0 01.188.394.593.593 0 01-.188.431L17.238 11l1.576 1.575a.593.593 0 01.187.431.481.481 0 01-.105.313l-.495.493a.48.48 0 01-.394.188.593.593 0 01-.431-.188L16 12.239l-1.575 1.575a.593.593 0 01-.431.187.481.481 0 01-.313-.105l-.493-.495a.48.48 0 01-.188-.394c0-.162.063-.306.188-.431L14.761 11l-1.575-1.575A.593.593 0 0113 8.994c0-.122.035-.226.105-.313l.495-.493A.48.48 0 0113.994 8c.162 0 .306.063.431.188L16 9.761l1.575-1.575A.593.593 0 0118.006 8c.122 0 .226.035.313.105z" fill="#000" fill-rule="nonzero"/></svg>