<svg width="24" height="24" xmlns="http://www.w3.org/2000/svg"><path d="M8.886 2.571a.574.574 0 01-.464-.24.598.598 0 01-.136-.51L8.504.536A.617.617 0 018.75.134.7.7 0 019.16 0h8.188c.219 0 .392.08.519.241.127.16.173.33.136.509l-.272 1.286a.67.67 0 01-.219.401.669.669 0 01-.437.134h-2.51L10.851 21.43h2.293c.182 0 .336.08.464.24.127.161.173.331.136.51l-.218 1.285a.617.617 0 01-.246.402.7.7 0 01-.41.134H4.684a.627.627 0 01-.519-.241.598.598 0 01-.136-.509l.273-1.286a.67.67 0 01.218-.401.669.669 0 01.437-.134h2.456L11.125 2.57H8.886z" fill="#000" fill-rule="nonzero"/></svg>