<svg xmlns="http://www.w3.org/2000/svg" width="16" height="16"><path fill="#76C422" d="M8 15.75A7.83 7.83 0 0 0 15.75 8 7.83 7.83 0 0 0 8 .25 7.83 7.83 0 0 0 .25 8 7.83 7.83 0 0 0 8 15.75zm0-1.5A6.3 6.3 0 0 1 1.75 8 6.3 6.3 0 0 1 8 1.75 6.3 6.3 0 0 1 14.25 8 6.3 6.3 0 0 1 8 14.25zM8.5 12c.1 0 .2-.04.27-.1a.4.4 0 0 0 .1-.27V8.88h2.75c.1 0 .2-.04.27-.11A.4.4 0 0 0 12 8.5v-1c0-.1-.04-.2-.1-.27a.36.36 0 0 0-.28-.1H8.87V4.38c0-.1-.03-.2-.1-.27A.36.36 0 0 0 8.5 4h-1c-.1 0-.2.04-.27.1a.36.36 0 0 0-.1.28v2.75H4.36c-.1 0-.19.03-.26.1a.36.36 0 0 0-.1.27v1c0 .1.04.2.1.27.08.07.17.1.27.1h2.75v2.76c0 .1.04.19.11.26a.4.4 0 0 0 .27.11h1z"/></svg>