<svg xmlns="http://www.w3.org/2000/svg" viewBox="0 0 128 128"><defs><style>.a{fill:#6d6e71;}.b{fill:none;}</style></defs><title>addSignature</title><polygon class="a" points="29.05 95.3 29.05 96.3 29.05 97.3 42.41 97.3 42.41 96.3 42.41 95.3 29.05 95.3"/><path class="a" d="M68.21,68.3l-23,23H42.41V88.45l23-23,2.83,2.83M70.33,69l-5.66-5.66L40.39,87.64V93.3H46Z" transform="translate(0)"/><path class="a" d="M96.07,37.62a3,3,0,0,1,0,4.24L69.62,68.3l-4.24-4.24L91.83,37.62a3,3,0,0,1,4.24,0m1.41-1.41a5,5,0,0,0-7.07,0L63.26,63.35l3.12,3.12,4,4L97.48,43.27a5,5,0,0,0,0-7.07h0Z" transform="translate(0)"/><path class="a" d="M92.39,47.23l-2.83,2.83,2,2L73.16,70.43a2,2,0,0,0,2.83,0l19.8-19.8Z" transform="translate(0)"/><path class="a" d="M46.27,34.7A11.42,11.42,0,1,1,34.85,46.12,11.44,11.44,0,0,1,46.27,34.7m0-2A13.42,13.42,0,1,0,59.7,46.12,13.42,13.42,0,0,0,46.27,32.7h0Z" transform="translate(0)"/><polygon class="a" points="46.77 45.62 46.77 41.12 45.77 41.12 45.77 45.62 41.27 45.62 41.27 46.62 45.77 46.62 45.77 51.12 46.77 51.12 46.77 46.62 51.27 46.62 51.27 45.62 46.77 45.62"/><rect class="b" width="128" height="128"/></svg>