<svg version="1.1" baseProfile="tiny" id="Layer_1" xmlns="http://www.w3.org/2000/svg" xmlns:xlink="http://www.w3.org/1999/xlink"
	 x="0px" y="0px" viewBox="0 0 128 128" xml:space="preserve">
<g>
	<rect x="52" y="24" fill="#757576" width="24" height="8"/>
	<path fill="#757576" d="M87.7,64.1c0.2,1.3,0.3,2.5,0.3,3.9c0,13.2-10.8,24-24,24S40,81.2,40,68s10.8-24,24-24
		c1.3,0,2.6,0.1,3.9,0.3l6.6-6.6C71.2,36.6,67.7,36,64,36c-17.7,0-32,14.3-32,32s14.3,32,32,32s32-14.3,32-32
		c0-3.7-0.6-7.2-1.8-10.4L87.7,64.1z"/>
	<polygon fill="#757576" points="55.8,67.8 55.8,76.2 64.2,76.2 67.8,72.7 67.8,72.2 68,72.5 89.4,51.1 80.9,42.6 59.5,64
		59.8,64.2 59.3,64.2 	"/>
	<path fill="#757576" d="M98.8,36L96,33.2c-1.6-1.6-4.1-1.6-5.7,0l-3.8,3.8l8.5,8.5l3.8-3.8C100.4,40.1,100.4,37.6,98.8,36z"/>
</g>
</svg>
