<?xml version="1.0" encoding="utf-8"?>
<!-- Generator: Adobe Illustrator 18.1.1, SVG Export Plug-In . SVG Version: 6.00 Build 0)  -->
<svg version="1.1" xmlns="http://www.w3.org/2000/svg" xmlns:xlink="http://www.w3.org/1999/xlink" x="0px" y="0px"
	 viewBox="0 0 96 96" enable-background="new 0 0 96 96" xml:space="preserve">
<symbol  id="icon_x5F_grid" viewBox="-160 -160 320 320">
	<g>
		<polygon opacity="0.3" fill="#BDDDF4" points="160,-160 -160,-160 -160,160 160,160 		"/>
		<g opacity="0.9">
			<polygon opacity="0.3" fill="#BDDDF4" points="120,-120 -120,-120 -120,120 120,120 			"/>
			<polygon opacity="0.5" fill="#FFFFFF" points="100,-100 -100,-100 -100,100 100,100 			"/>
			<path fill="none" stroke="#BDDDF4" stroke-miterlimit="10" d="M100,0c0-55.2-44.8-100-100-100S-100-55.2-100,0S-55.2,100,0,100
				S100,55.2,100,0z"/>
			<path fill="none" stroke="#BDDDF4" stroke-miterlimit="10" d="M60-100H-60c-11,0-20,9-20,20V80c0,11,9,20,20,20H60
				c11,0,20-9,20-20V-80C80-91,71-100,60-100z"/>
			<path fill="none" stroke="#BDDDF4" stroke-miterlimit="10" d="M-100-60V60c0,11,9,20,20,20H80c11,0,20-9,20-20V-60
				c0-11-9-20-20-20H-80C-91-80-100-71-100-60z"/>
			<path fill="none" stroke="#98C2DD" stroke-miterlimit="10" d="M70-90H-70c-11,0-20,9-20,20V70c0,11,9,20,20,20H70
				c11,0,20-9,20-20V-70C90-81,81-90,70-90z"/>
			<line fill="none" stroke="#BDDDF4" stroke-miterlimit="10" x1="0" y1="120" x2="0" y2="-120"/>
			<line fill="none" stroke="#BDDDF4" stroke-miterlimit="10" x1="-120" y1="0" x2="120" y2="0"/>
			<line fill="none" stroke="#BDDDF4" stroke-miterlimit="10" x1="120" y1="120" x2="-120" y2="-120"/>
			<line fill="none" stroke="#BDDDF4" stroke-miterlimit="10" x1="-120" y1="120" x2="120" y2="-120"/>
			<line fill="none" stroke="#BDDDF4" stroke-miterlimit="10" x1="40" y1="120" x2="40" y2="-120"/>
			<line fill="none" stroke="#BDDDF4" stroke-miterlimit="10" x1="-40" y1="120" x2="-40" y2="-120"/>
			<line fill="none" stroke="#BDDDF4" stroke-miterlimit="10" x1="-120" y1="-40" x2="120" y2="-40"/>
			<line fill="none" stroke="#BDDDF4" stroke-miterlimit="10" x1="120" y1="40" x2="-120" y2="40"/>
			<path fill="none" stroke="#BDDDF4" stroke-miterlimit="10" d="M50,0c0-27.6-22.4-50-50-50S-50-27.6-50,0s22.4,50,50,50
				S50,27.6,50,0z"/>
		</g>
	</g>
</symbol>
<symbol  id="icon_x5F_grid_2" viewBox="-160 -160 320 320">
	<g opacity="0">
		<polygon opacity="0.3" fill="#BDDDF4" points="160,-160 -160,-160 -160,160 160,160 		"/>
		<g opacity="0.9">
			<polygon opacity="0.3" fill="#BDDDF4" points="120,-120 -120,-120 -120,120 120,120 			"/>
			<polygon opacity="0.5" fill="#FFFFFF" points="100,-100 -100,-100 -100,100 100,100 			"/>
			<path fill="none" stroke="#BDDDF4" stroke-miterlimit="10" d="M100,0c0-55.2-44.8-100-100-100S-100-55.2-100,0S-55.2,100,0,100
				S100,55.2,100,0z"/>
			<path fill="none" stroke="#BDDDF4" stroke-miterlimit="10" d="M60-100H-60c-11,0-20,9-20,20V80c0,11,9,20,20,20H60
				c11,0,20-9,20-20V-80C80-91,71-100,60-100z"/>
			<path fill="none" stroke="#BDDDF4" stroke-miterlimit="10" d="M-100-60V60c0,11,9,20,20,20H80c11,0,20-9,20-20V-60
				c0-11-9-20-20-20H-80C-91-80-100-71-100-60z"/>
			<path fill="none" stroke="#98C2DD" stroke-miterlimit="10" d="M70-90H-70c-11,0-20,9-20,20V70c0,11,9,20,20,20H70
				c11,0,20-9,20-20V-70C90-81,81-90,70-90z"/>
			<line fill="none" stroke="#BDDDF4" stroke-miterlimit="10" x1="0" y1="120" x2="0" y2="-120"/>
			<line fill="none" stroke="#BDDDF4" stroke-miterlimit="10" x1="-120" y1="0" x2="120" y2="0"/>
			<line fill="none" stroke="#BDDDF4" stroke-miterlimit="10" x1="120" y1="120" x2="-120" y2="-120"/>
			<line fill="none" stroke="#BDDDF4" stroke-miterlimit="10" x1="-120" y1="120" x2="120" y2="-120"/>
			<line fill="none" stroke="#BDDDF4" stroke-miterlimit="10" x1="40" y1="120" x2="40" y2="-120"/>
			<line fill="none" stroke="#BDDDF4" stroke-miterlimit="10" x1="-40" y1="120" x2="-40" y2="-120"/>
			<line fill="none" stroke="#BDDDF4" stroke-miterlimit="10" x1="-120" y1="-40" x2="120" y2="-40"/>
			<line fill="none" stroke="#BDDDF4" stroke-miterlimit="10" x1="120" y1="40" x2="-120" y2="40"/>
			<path fill="none" stroke="#BDDDF4" stroke-miterlimit="10" d="M50,0c0-27.6-22.4-50-50-50S-50-27.6-50,0s22.4,50,50,50
				S50,27.6,50,0z"/>
		</g>
	</g>
</symbol>
<symbol  id="icon_x5F_grid_4" viewBox="-240 -240 480 480">
	<g opacity="0">
		<path display="none" opacity="0.3" fill="#BDDDF4" d="M240-240h-480v480h480V-240z"/>
		<polygon opacity="0.3" fill="#BDDDF4" points="160,-160 -160,-160 -160,160 160,160 		"/>
		<g opacity="0.9">
			<polygon opacity="0.3" fill="#BDDDF4" points="120,-120 -120,-120 -120,120 120,120 			"/>
			<polygon opacity="0.5" fill="#FFFFFF" points="100,-100 -100,-100 -100,100 100,100 			"/>
			<path fill="none" stroke="#BDDDF4" stroke-miterlimit="10" d="M100,0c0-55.2-44.8-100-100-100S-100-55.2-100,0S-55.2,100,0,100
				S100,55.2,100,0z"/>
			<path fill="none" stroke="#BDDDF4" stroke-miterlimit="10" d="M60-100H-60c-11,0-20,9-20,20V80c0,11,9,20,20,20H60
				c11,0,20-9,20-20V-80C80-91,71-100,60-100z"/>
			<path fill="none" stroke="#BDDDF4" stroke-miterlimit="10" d="M-100-60V60c0,11,9,20,20,20H80c11,0,20-9,20-20V-60
				c0-11-9-20-20-20H-80C-91-80-100-71-100-60z"/>
			<path fill="none" stroke="#98C2DD" stroke-miterlimit="10" d="M70-90H-70c-11,0-20,9-20,20V70c0,11,9,20,20,20H70
				c11,0,20-9,20-20V-70C90-81,81-90,70-90z"/>
			<line fill="none" stroke="#BDDDF4" stroke-miterlimit="10" x1="0" y1="120" x2="0" y2="-120"/>
			<line fill="none" stroke="#BDDDF4" stroke-miterlimit="10" x1="-120" y1="0" x2="120" y2="0"/>
			<line fill="none" stroke="#BDDDF4" stroke-miterlimit="10" x1="120" y1="120" x2="-120" y2="-120"/>
			<line fill="none" stroke="#BDDDF4" stroke-miterlimit="10" x1="-120" y1="120" x2="120" y2="-120"/>
			<line fill="none" stroke="#BDDDF4" stroke-miterlimit="10" x1="40" y1="120" x2="40" y2="-120"/>
			<line fill="none" stroke="#BDDDF4" stroke-miterlimit="10" x1="-40" y1="120" x2="-40" y2="-120"/>
			<line fill="none" stroke="#BDDDF4" stroke-miterlimit="10" x1="-120" y1="-40" x2="120" y2="-40"/>
			<line fill="none" stroke="#BDDDF4" stroke-miterlimit="10" x1="120" y1="40" x2="-120" y2="40"/>
			<path fill="none" stroke="#BDDDF4" stroke-miterlimit="10" d="M50,0c0-27.6-22.4-50-50-50S-50-27.6-50,0s22.4,50,50,50
				S50,27.6,50,0z"/>
		</g>
	</g>
</symbol>
<symbol  id="icon_x5F_grid_5" viewBox="-240 -240 480 480">
	<g>
		<path display="none" opacity="0.3" fill="#BDDDF4" d="M240-240h-480v480h480V-240z"/>
		<polygon opacity="0.3" fill="#BDDDF4" points="160,-160 -160,-160 -160,160 160,160 		"/>
		<g opacity="0.9">
			<polygon opacity="0.3" fill="#BDDDF4" points="120,-120 -120,-120 -120,120 120,120 			"/>
			<polygon opacity="0.5" fill="#FFFFFF" points="100,-100 -100,-100 -100,100 100,100 			"/>
			<path fill="none" stroke="#BDDDF4" stroke-miterlimit="10" d="M100,0c0-55.2-44.8-100-100-100S-100-55.2-100,0S-55.2,100,0,100
				S100,55.2,100,0z"/>
			<path fill="none" stroke="#BDDDF4" stroke-miterlimit="10" d="M60-100H-60c-11,0-20,9-20,20V80c0,11,9,20,20,20H60
				c11,0,20-9,20-20V-80C80-91,71-100,60-100z"/>
			<path fill="none" stroke="#BDDDF4" stroke-miterlimit="10" d="M-100-60V60c0,11,9,20,20,20H80c11,0,20-9,20-20V-60
				c0-11-9-20-20-20H-80C-91-80-100-71-100-60z"/>
			<path fill="none" stroke="#98C2DD" stroke-miterlimit="10" d="M70-90H-70c-11,0-20,9-20,20V70c0,11,9,20,20,20H70
				c11,0,20-9,20-20V-70C90-81,81-90,70-90z"/>
			<line fill="none" stroke="#BDDDF4" stroke-miterlimit="10" x1="0" y1="120" x2="0" y2="-120"/>
			<line fill="none" stroke="#BDDDF4" stroke-miterlimit="10" x1="-120" y1="0" x2="120" y2="0"/>
			<line fill="none" stroke="#BDDDF4" stroke-miterlimit="10" x1="120" y1="120" x2="-120" y2="-120"/>
			<line fill="none" stroke="#BDDDF4" stroke-miterlimit="10" x1="-120" y1="120" x2="120" y2="-120"/>
			<line fill="none" stroke="#BDDDF4" stroke-miterlimit="10" x1="40" y1="120" x2="40" y2="-120"/>
			<line fill="none" stroke="#BDDDF4" stroke-miterlimit="10" x1="-40" y1="120" x2="-40" y2="-120"/>
			<line fill="none" stroke="#BDDDF4" stroke-miterlimit="10" x1="-120" y1="-40" x2="120" y2="-40"/>
			<line fill="none" stroke="#BDDDF4" stroke-miterlimit="10" x1="120" y1="40" x2="-120" y2="40"/>
			<path fill="none" stroke="#BDDDF4" stroke-miterlimit="10" d="M50,0c0-27.6-22.4-50-50-50S-50-27.6-50,0s22.4,50,50,50
				S50,27.6,50,0z"/>
		</g>
	</g>
</symbol>
<g id="Layer_1" display="none">
	<g id="filter" display="inline">
		
			<use xlink:href="#icon_x5F_grid"  width="320" height="320" id="XMLID_1_" x="-160" y="-160" transform="matrix(0.3 0 0 -0.3 48.0001 48.0006)" overflow="visible"/>
	</g>
	<g display="inline">
		<rect x="-8.3" y="0" fill="#434343" stroke="#95C8EC" stroke-width="0.1" stroke-miterlimit="10" width="3" height="3"/>
		<rect x="0" y="-8.3" fill="#434343" stroke="#95C8EC" stroke-width="0.1" stroke-miterlimit="10" width="3" height="3"/>
		<rect x="3" y="-8.3" fill="#434343" stroke="#95C8EC" stroke-width="0.1" stroke-miterlimit="10" width="3" height="3"/>
		<rect x="6" y="-8.3" fill="#434343" stroke="#95C8EC" stroke-width="0.1" stroke-miterlimit="10" width="3" height="3"/>
		<rect x="9" y="-8.3" fill="#434343" stroke="#95C8EC" stroke-width="0.1" stroke-miterlimit="10" width="3" height="3"/>
		<rect x="12" y="-8.3" fill="#434343" stroke="#95C8EC" stroke-width="0.1" stroke-miterlimit="10" width="3" height="3"/>
		<rect x="15" y="-8.3" fill="#434343" stroke="#95C8EC" stroke-width="0.1" stroke-miterlimit="10" width="3" height="3"/>
		<rect x="18" y="-8.3" fill="#434343" stroke="#95C8EC" stroke-width="0.1" stroke-miterlimit="10" width="3" height="3"/>
		<rect x="21" y="-8.3" fill="#434343" stroke="#95C8EC" stroke-width="0.1" stroke-miterlimit="10" width="3" height="3"/>
		<rect x="24" y="-8.3" fill="#434343" stroke="#95C8EC" stroke-width="0.1" stroke-miterlimit="10" width="3" height="3"/>
		<rect x="27" y="-8.3" fill="#434343" stroke="#95C8EC" stroke-width="0.1" stroke-miterlimit="10" width="3" height="3"/>
		<rect x="30" y="-8.3" fill="#434343" stroke="#95C8EC" stroke-width="0.1" stroke-miterlimit="10" width="3" height="3"/>
		<rect x="33" y="-8.3" fill="#434343" stroke="#95C8EC" stroke-width="0.1" stroke-miterlimit="10" width="3" height="3"/>
		<rect x="36" y="-8.3" fill="#434343" stroke="#95C8EC" stroke-width="0.1" stroke-miterlimit="10" width="3" height="3"/>
		<rect x="39" y="-8.3" fill="#434343" stroke="#95C8EC" stroke-width="0.1" stroke-miterlimit="10" width="3" height="3"/>
		<rect x="42" y="-8.3" fill="#434343" stroke="#95C8EC" stroke-width="0.1" stroke-miterlimit="10" width="3" height="3"/>
		<rect x="45" y="-8.3" fill="#434343" stroke="#95C8EC" stroke-width="0.1" stroke-miterlimit="10" width="3" height="3"/>
		<rect x="48" y="-8.3" fill="#434343" stroke="#95C8EC" stroke-width="0.1" stroke-miterlimit="10" width="3" height="3"/>
		<rect x="51" y="-8.3" fill="#434343" stroke="#95C8EC" stroke-width="0.1" stroke-miterlimit="10" width="3" height="3"/>
		<rect x="54" y="-8.3" fill="#434343" stroke="#95C8EC" stroke-width="0.1" stroke-miterlimit="10" width="3" height="3"/>
		<rect x="57" y="-8.3" fill="#434343" stroke="#95C8EC" stroke-width="0.1" stroke-miterlimit="10" width="3" height="3"/>
		<rect x="60" y="-8.3" fill="#434343" stroke="#95C8EC" stroke-width="0.1" stroke-miterlimit="10" width="3" height="3"/>
		<rect x="63" y="-8.3" fill="#434343" stroke="#95C8EC" stroke-width="0.1" stroke-miterlimit="10" width="3" height="3"/>
		<rect x="66" y="-8.3" fill="#434343" stroke="#95C8EC" stroke-width="0.1" stroke-miterlimit="10" width="3" height="3"/>
		<rect x="69" y="-8.3" fill="#434343" stroke="#95C8EC" stroke-width="0.1" stroke-miterlimit="10" width="3" height="3"/>
		<rect x="72" y="-8.3" fill="#434343" stroke="#95C8EC" stroke-width="0.1" stroke-miterlimit="10" width="3" height="3"/>
		<rect x="75" y="-8.3" fill="#434343" stroke="#95C8EC" stroke-width="0.1" stroke-miterlimit="10" width="3" height="3"/>
		<rect x="78" y="-8.3" fill="#434343" stroke="#95C8EC" stroke-width="0.1" stroke-miterlimit="10" width="3" height="3"/>
		<rect x="81" y="-8.3" fill="#434343" stroke="#95C8EC" stroke-width="0.1" stroke-miterlimit="10" width="3" height="3"/>
		<rect x="84" y="-8.3" fill="#434343" stroke="#95C8EC" stroke-width="0.1" stroke-miterlimit="10" width="3" height="3"/>
		<rect x="87" y="-8.3" fill="#434343" stroke="#95C8EC" stroke-width="0.1" stroke-miterlimit="10" width="3" height="3"/>
		<rect x="90" y="-8.3" fill="#434343" stroke="#95C8EC" stroke-width="0.1" stroke-miterlimit="10" width="3" height="3"/>
		<rect x="93" y="-8.3" fill="#434343" stroke="#95C8EC" stroke-width="0.1" stroke-miterlimit="10" width="3" height="3"/>
		<rect x="-8.3" y="3" fill="#434343" stroke="#95C8EC" stroke-width="0.1" stroke-miterlimit="10" width="3" height="3"/>
		<rect x="-8.3" y="6" fill="#434343" stroke="#95C8EC" stroke-width="0.1" stroke-miterlimit="10" width="3" height="3"/>
		<rect x="-8.3" y="9" fill="#434343" stroke="#95C8EC" stroke-width="0.1" stroke-miterlimit="10" width="3" height="3"/>
		<rect x="-8.3" y="12" fill="#434343" stroke="#95C8EC" stroke-width="0.1" stroke-miterlimit="10" width="3" height="3"/>
		<rect x="-8.3" y="15" fill="#434343" stroke="#95C8EC" stroke-width="0.1" stroke-miterlimit="10" width="3" height="3"/>
		<rect x="-8.3" y="18" fill="#434343" stroke="#95C8EC" stroke-width="0.1" stroke-miterlimit="10" width="3" height="3"/>
		<rect x="-8.3" y="21" fill="#434343" stroke="#95C8EC" stroke-width="0.1" stroke-miterlimit="10" width="3" height="3"/>
		<rect x="-8.3" y="24" fill="#434343" stroke="#95C8EC" stroke-width="0.1" stroke-miterlimit="10" width="3" height="3"/>
		<rect x="-8.3" y="27" fill="#434343" stroke="#95C8EC" stroke-width="0.1" stroke-miterlimit="10" width="3" height="3"/>
		<rect x="-8.3" y="30" fill="#434343" stroke="#95C8EC" stroke-width="0.1" stroke-miterlimit="10" width="3" height="3"/>
		<rect x="-8.3" y="33" fill="#434343" stroke="#95C8EC" stroke-width="0.1" stroke-miterlimit="10" width="3" height="3"/>
		<rect x="-8.3" y="36" fill="#434343" stroke="#95C8EC" stroke-width="0.1" stroke-miterlimit="10" width="3" height="3"/>
		<rect x="-8.3" y="39" fill="#434343" stroke="#95C8EC" stroke-width="0.1" stroke-miterlimit="10" width="3" height="3"/>
		<rect x="-8.3" y="42" fill="#434343" stroke="#95C8EC" stroke-width="0.1" stroke-miterlimit="10" width="3" height="3"/>
		<rect x="-8.3" y="45" fill="#434343" stroke="#95C8EC" stroke-width="0.1" stroke-miterlimit="10" width="3" height="3"/>
		<rect x="-8.3" y="48" fill="#434343" stroke="#95C8EC" stroke-width="0.1" stroke-miterlimit="10" width="3" height="3"/>
		<rect x="-8.3" y="51" fill="#434343" stroke="#95C8EC" stroke-width="0.1" stroke-miterlimit="10" width="3" height="3"/>
		<rect x="-8.3" y="54" fill="#434343" stroke="#95C8EC" stroke-width="0.1" stroke-miterlimit="10" width="3" height="3"/>
		<rect x="-8.3" y="57" fill="#434343" stroke="#95C8EC" stroke-width="0.1" stroke-miterlimit="10" width="3" height="3"/>
		<rect x="-8.3" y="60" fill="#434343" stroke="#95C8EC" stroke-width="0.1" stroke-miterlimit="10" width="3" height="3"/>
		<rect x="-8.3" y="63" fill="#434343" stroke="#95C8EC" stroke-width="0.1" stroke-miterlimit="10" width="3" height="3"/>
		<rect x="-8.3" y="66" fill="#434343" stroke="#95C8EC" stroke-width="0.1" stroke-miterlimit="10" width="3" height="3"/>
		<rect x="-8.3" y="69" fill="#434343" stroke="#95C8EC" stroke-width="0.1" stroke-miterlimit="10" width="3" height="3"/>
		<rect x="-8.3" y="72" fill="#434343" stroke="#95C8EC" stroke-width="0.1" stroke-miterlimit="10" width="3" height="3"/>
		<rect x="-8.3" y="75" fill="#434343" stroke="#95C8EC" stroke-width="0.1" stroke-miterlimit="10" width="3" height="3"/>
		<rect x="-8.3" y="78" fill="#434343" stroke="#95C8EC" stroke-width="0.1" stroke-miterlimit="10" width="3" height="3"/>
		<rect x="-8.3" y="81" fill="#434343" stroke="#95C8EC" stroke-width="0.1" stroke-miterlimit="10" width="3" height="3"/>
		<rect x="-8.3" y="84" fill="#434343" stroke="#95C8EC" stroke-width="0.1" stroke-miterlimit="10" width="3" height="3"/>
		<rect x="-8.3" y="87" fill="#434343" stroke="#95C8EC" stroke-width="0.1" stroke-miterlimit="10" width="3" height="3"/>
		<rect x="-8.3" y="90" fill="#434343" stroke="#95C8EC" stroke-width="0.1" stroke-miterlimit="10" width="3" height="3"/>
		<rect x="-8.3" y="93" fill="#434343" stroke="#95C8EC" stroke-width="0.1" stroke-miterlimit="10" width="3" height="3"/>
	</g>
</g>
<g id="landing" display="none">
	<g id="hamburger">
		<rect display="inline" fill="none" width="96" height="96"/>
		<g display="inline">
			<rect x="21" y="27" fill="#434343" width="54" height="6"/>
			<rect x="21" y="63" fill="#434343" width="54" height="6"/>
			<rect x="21" y="45" fill="#434343" width="54" height="6"/>
		</g>
		<rect display="inline" fill="none" width="96" height="96"/>
	</g>
	<g id="overflow" display="inline">
		<g>
			<circle fill="#434343" cx="48" cy="25.4" r="4.4"/>
			<circle fill="#434343" cx="48" cy="48" r="4.4"/>
			<circle fill="#434343" cx="48" cy="70.5" r="4.4"/>
		</g>
	</g>
	<g id="search">
		<g display="inline">
			
				<rect x="52.3" y="48.3" transform="matrix(0.7071 -0.7071 0.7071 0.7071 -22.9011 55.2881)" fill="#434343" width="6" height="14"/>
			<path fill="#434343" d="M54.4,62.9l12.3,12.3c4.3-0.8,7.8-4.2,8.5-8.5L62.9,54.4C58.6,55.1,55.1,58.6,54.4,62.9z"/>
			<path fill="#434343" d="M40.6,21C29.8,21,21,29.8,21,40.6s8.8,19.6,19.6,19.6s19.6-8.8,19.6-19.6S51.5,21,40.6,21z M40.6,54.2
				c-7.5,0-13.6-6.1-13.6-13.6C27,33.1,33.1,27,40.6,27c7.5,0,13.6,6.1,13.6,13.6C54.2,48.1,48.1,54.2,40.6,54.2z"/>
		</g>
		<rect display="inline" fill="none" width="96" height="96"/>
	</g>
	<g id="filter_2">
		<polygon display="inline" fill="#434343" points="42,75 43.5,75 54,64.5 54,48 72,27 72,21 24,21 24,27 42,48 		"/>
		<rect display="inline" fill="none" width="96" height="96"/>
	</g>
	<g id="ascending2">
		<g display="inline">
			<rect x="20.6" y="24" fill="#434343" width="54.6" height="6.8"/>
			<rect x="27.4" y="37.7" fill="#434343" width="41" height="6.8"/>
			<rect x="34.2" y="51.3" fill="#434343" width="27.3" height="6.8"/>
			<rect x="41" y="65" fill="#434343" width="13.7" height="6.8"/>
		</g>
		<rect display="inline" fill="none" width="96" height="96"/>
	</g>
	<g id="Layer_10">
		<path display="inline" fill="#434343" d="M69.6,24H26.4c-3,0-5.4,2.4-5.4,5.4v29.7c0,3,2.4,5.4,5.4,5.4h43.2c3,0,5.4-2.4,5.4-5.4
			V29.4C75,26.4,72.5,24,69.6,24z M69.6,59.1H26.4V29.4h43.2V59.1z M37.2,63.9V72l8.1-8.1H37.2z M61.5,37.5H31.8v-2.7h29.7V37.5z
			 M64.2,45.6H31.8v-2.7h32.4V45.6z M58.8,53.7h-27V51h27V53.7z"/>
	</g>
</g>
<g id="connections">
	<g id="tick_1_" display="none">
		
			<rect x="19.3" y="52.3" transform="matrix(0.7071 0.7071 -0.7071 0.7071 48.9045 -7.1461)" display="inline" fill="#434343" width="27.6" height="6.2"/>
		
			<rect x="52.5" y="23.7" transform="matrix(-0.7071 -0.7071 0.7071 -0.7071 61.0537 121.2893)" display="inline" fill="#434343" width="6.2" height="48.7"/>
	</g>
	<g id="cross_1_" display="none">
		
			<rect x="44.5" y="13.3" transform="matrix(0.7071 0.7071 -0.7071 0.7071 47.9656 -19.868)" display="inline" fill="#434343" width="6.9" height="69.3"/>
		
			<rect x="44.5" y="13.3" transform="matrix(-0.7071 0.7071 -0.7071 -0.7071 115.7992 47.9656)" display="inline" fill="#434343" width="6.9" height="69.3"/>
	</g>
	<polygon display="none" fill="#434343" points="74.9,44.9 32.9,44.9 52.4,25.4 48,21.1 21.1,48 48,74.9 52.4,70.6 32.9,51.1 
		74.9,51.1 	"/>
	<g display="none">
		<rect x="44.9" y="21.1" display="inline" fill="#434343" width="6" height="53.9"/>
		<rect x="21" y="45" display="inline" fill="#434343" width="53.9" height="6"/>
	</g>
	<g display="none">
		<g display="inline">
			<path fill="#434343" d="M64.2,21H39.9c-3,0-5.4,2.4-5.4,5.4v35.1c0,3,2.4,5.4,5.4,5.4h24.3c3,0,5.4-2.4,5.4-5.4V26.4
				C69.6,23.4,67.2,21,64.2,21z M64.2,61.5H39.9V26.4h24.3V61.5z"/>
			<path fill="#434343" d="M31.8,69.6V34.5v-5.4c-3,0-5.4,2.4-5.4,5.4v35.1c0,3,2.4,5.4,5.4,5.4h21.6c3,0,5.4-2.4,5.4-5.4h-5.4H31.8
				z"/>
		</g>
	</g>
	<g display="none">
		
			<rect x="37.7" y="26.5" transform="matrix(0.7071 0.7071 -0.7071 0.7071 49.8614 -15.3884)" display="inline" fill="#434343" width="11.7" height="51.9"/>
		<path display="inline" fill="#434343" d="M70.4,33.9l-8.3-8.3l3.8-3.8c1.1-1.1,3-1.1,4.1,0l4.1,4.1c1.1,1.1,1.1,3,0,4.1L70.4,33.9
			z"/>
		<polygon display="inline" fill="#434343" points="29.8,66.2 21,66.7 21,75 29.3,75 		"/>
	</g>
	<g id="Layer_11" display="none">
		<g display="inline">
			<g>
				<path fill="#434343" d="M67.6,61.5c2.7-3.9,4.3-8.6,4.3-13.6v0H65v0c0,3.2-0.9,6.1-2.4,8.7L67.6,61.5z"/>
				<path fill="#434343" d="M60.1,59.9c-3.1,3.1-7.3,5-12,5c-6.1,0-11.5-3.2-14.5-8.1c0,0-5.6,4.2-4.1,6c4.4,5.5,11.1,8.9,18.6,8.9
					c6.6,0,12.5-2.7,16.9-7L60.1,59.9z"/>
			</g>
			
				<rect x="17" y="47.2" transform="matrix(0.7071 0.7071 -0.7071 0.7071 48.5134 -18.4428)" fill="#434343" width="59" height="4.2"/>
			<g>
				<path fill="#434343" d="M39.3,33.2c2.5-1.5,5.5-2.4,8.7-2.4c6.1,0,11.5,3.2,14.5,8.1c0,0,5.2-4.8,3.4-6.8
					C61.5,27.1,55.1,24,48,24c-5.1,0-9.8,1.6-13.6,4.3L39.3,33.2z"/>
				<path fill="#434343" d="M31.1,31c-4.3,4.3-7,10.3-7,16.9H31c0-4.7,1.9-9,5-12L31.1,31z"/>
			</g>
			<polygon fill="#434343" points="57,38.9 68.9,38.9 68.9,27 			"/>
			<polygon fill="#434343" points="39.1,56.8 27.1,56.8 27.1,68.7 			"/>
		</g>
	</g>
	<g display="none">
		<g display="inline">
			<path fill="#434343" d="M30.6,48c0-9.5,7.7-17.1,17.1-17.1c6.2,0,11.6,3.3,14.6,8.1c0,0,5.2-4.9,3.4-6.9c-4.4-5-10.8-8.1-18-8.1
				c-13.3,0-24,10.7-24,24H30.6z"/>
			<path fill="#434343" d="M64.9,48L64.9,48c0,9.5-7.7,17.1-17.1,17.1c-6.2,0-11.6-3.3-14.6-8.1c0,0-5.6,4.2-4.1,6
				c4.4,5.5,11.2,9,18.7,9c13.3,0,24-10.7,24-24v0H64.9z"/>
		</g>
		<polygon display="inline" fill="#434343" points="56.8,39 68.8,39 68.8,27 		"/>
		<polygon display="inline" fill="#434343" points="38.8,57 26.8,57 26.8,69 		"/>
	</g>
	<g display="none">
		<path display="inline" fill="#434343" d="M21,21v12h54V21H21z M30,30h-6v-6h6V30z"/>
		<path display="inline" fill="#434343" d="M21,63v12h54V63H21z M30,72h-6v-6h6V72z"/>
		<path display="inline" fill="#434343" d="M21,42v12h54V42H21z M30,51h-6v-6h6V51z"/>
	</g>
</g>
<g id="startTime" display="none">
	<g id="stopTime">
		<g display="inline">
			<rect x="45.5" y="35.5" fill="#434343" width="5" height="7.5"/>
			
				<rect x="61.9" y="29.1" transform="matrix(0.7071 0.7071 -0.7071 0.7071 41.194 -36.2396)" fill="#434343" width="5" height="5"/>
			<rect x="38" y="18.2" fill="#434343" width="19.9" height="5"/>
			<path fill="#434343" d="M43,64.3c-7-2.1-12.1-8.6-12.1-16.4c0-9.4,7.7-17.1,17.1-17.1c7.7,0,14.2,5.1,16.4,12.1h5.4
				C67.5,33,58.6,25.6,48,25.6c-12.3,0-22.4,10-22.4,22.4c0,10.6,7.4,19.5,17.4,21.8V64.3z"/>
			<rect x="48" y="48" fill="#434343" width="26.8" height="26.8"/>
		</g>
	</g>
	<g id="Layer_14" display="inline">
		<g>
			<g>
				<path fill="#434343" d="M45.6,65.1c-8.3-1.2-14.8-8.4-14.8-17.1c0-9.5,7.7-17.3,17.3-17.3c9.5,0,17.3,7.7,17.3,17.3
					c0,0.8-0.1,1.6-0.2,2.4l4.9,2.7c0.4-1.6,0.6-3.3,0.6-5.1c0-12.5-10.1-22.6-22.6-22.6S25.5,35.6,25.5,48
					c0,11.6,8.8,21.2,20.1,22.4V65.1z"/>
				<polygon fill="#434343" points="45.6,39.5 50.6,42.3 50.6,35.5 45.6,35.5 				"/>
			</g>
			<polygon fill="#434343" points="50.6,48 50.6,75 74.8,61.5 			"/>
			<rect x="62.1" y="29" transform="matrix(0.7071 0.7071 -0.7071 0.7071 41.2223 -36.465)" fill="#434343" width="5" height="5"/>
			<rect x="38.1" y="17.9" fill="#434343" width="20.1" height="5"/>
		</g>
	</g>
</g>
<g id="desc_icons" display="none">
	<g id="ci_x5F_phonenumber">
		<path display="inline" fill="#434343" d="M66.6,55.9h-5.4c-1.6,0-3,0.7-4,1.8l-4.5,4.4c-8.1-4.1-14.8-10.8-18.9-18.9l4.3-4.4
			c1.1-1,1.8-2.4,1.8-4v-5.4c0-3-2.4-5.4-5.4-5.4h-2.6h-2.7H29c0,0-0.1,0-0.1,0c-2.4,0.1-4.4,1.8-4.9,4c1.9,23.4,20.6,42,44,44
			c2.3-0.6,4-2.7,4-5.2v-0.1v-2.6v-2.8C72,58.4,69.6,55.9,66.6,55.9z"/>
	</g>
	<g id="ci_x5F_emailaddress">
		<path display="inline" fill="#434343" d="M67.1,33H28.8c-2.6,0-4.8,2.2-4.8,4.8v24c0,2.6,2.2,4.8,4.8,4.8h38.3
			c2.6,0,4.8-2.2,4.8-4.8v-24C71.9,35.1,69.7,33,67.1,33z M67.1,42.6l-19.2,9.6l-19.2-9.6v-4.8l19.2,9.6l19.2-9.6V42.6z"/>
	</g>
	<g id="ci_x5F_location" display="inline">
		<path fill="#434343" d="M48,24c-9.3,0-16.8,7.5-16.8,16.8C31.2,52.9,48,72,48,72s16.8-19.1,16.8-31.2C64.8,31.5,57.3,24,48,24z
			 M48,48c-4,0-7.2-3.2-7.2-7.2s3.2-7.2,7.2-7.2s7.2,3.2,7.2,7.2S52,48,48,48z"/>
	</g>
	<g id="prev">
		<g display="inline">
			<g>
				<polygon fill="#434343" points="44.4,48 56.2,59.8 53.9,62 39.8,48 53.9,34 56.2,36.2 54.5,37.9 				"/>
			</g>
		</g>
	</g>
	<g id="Lanextyer_22">
		<g display="inline">
			<g>
				<polygon fill="#434343" points="51.6,48 39.8,59.8 42.1,62 56.2,48 42.1,34 39.8,36.2 41.5,37.9 				"/>
			</g>
		</g>
	</g>
</g>
<g id="status" display="none">
	<g id="urgent_1_" display="inline">
		<rect x="44" y="23.9" fill="#434343" width="8" height="32.5"/>
		<rect x="44" y="64" fill="#434343" width="8" height="8"/>
	</g>
	<g id="signoff">
		<g id="signoff3" display="inline">
			<g>
				<path fill="#434343" d="M72.1,23.9c-3.8-3.8-10.1-3.8-14,0L39.4,42.7l14,14l18.8-18.8C76,34,76,27.8,72.1,23.9z"/>
				<path fill="#434343" d="M36.8,47.5l-1.2,1.2l0.9,0.9L24.2,58L21,74l10.4-10.4c-0.3-0.4-0.4-0.9-0.4-1.4c0-1.5,1.2-2.7,2.7-2.7
					s2.7,1.2,2.7,2.7s-1.2,2.7-2.7,2.7c-0.5,0-0.9-0.1-1.3-0.3L21.9,75L38,71.7l8.3-12.4l0.9,0.9l1.2-1.2L36.8,47.5z"/>
			</g>
		</g>
	</g>
	<g id="inprogress" opacity="0.9">
		<path display="inline" fill="#434343" d="M48.1,27.7c-11.2,0-20.3,9.1-20.3,20.3s9.1,20.3,20.3,20.3S68.4,59.2,68.4,48
			S59.3,27.7,48.1,27.7z M48.1,63.8c-8.7,0-15.8-7.1-15.8-15.8c0-8.7,7.1-15.8,15.8-15.8c8.7,0,15.8,7.1,15.8,15.8
			C63.8,56.7,56.8,63.8,48.1,63.8z"/>
		<rect x="45.8" y="36.8" display="inline" fill="#434343" width="4.5" height="13.5"/>
		
			<rect x="60.5" y="31.8" transform="matrix(0.7071 0.7071 -0.7071 0.7071 41.9688 -34.5731)" display="inline" fill="#434343" width="4.5" height="3.2"/>
		<rect x="39.1" y="21" display="inline" fill="#434343" width="18" height="4.5"/>
	</g>
	<g id="inprogress_bigger" opacity="0.9">
		<path display="inline" fill="#434343" d="M48.1,24.1c-13.2,0-24,10.7-24,24s10.7,24,24,24s24-10.7,24-24S61.3,24.1,48.1,24.1z
			 M48.1,67.5c-10.7,0-19.5-8.7-19.5-19.5c0-10.7,8.7-19.5,19.5-19.5c10.7,0,19.5,8.7,19.5,19.5C67.5,58.8,58.8,67.5,48.1,67.5z"/>
		<rect x="45.8" y="33" display="inline" fill="#434343" width="4.5" height="17.3"/>
		
			<rect x="63.2" y="29.1" transform="matrix(0.7071 0.7071 -0.7071 0.7071 40.8423 -37.2926)" display="inline" fill="#434343" width="4.5" height="3.2"/>
		<rect x="39.1" y="18" display="inline" fill="#434343" width="18" height="4.5"/>
	</g>
</g>
<g id="Layer_24" display="none">
	<g display="inline">
		
			<rect x="23.1" y="47.7" transform="matrix(0.7071 0.7071 -0.7071 0.7071 48.3554 -19.0216)" fill="#434343" width="48.1" height="2.4"/>
		<g>
			<path fill="#434343" d="M40.6,37.3C43,36.4,45.4,36,48,36c4.5,0,8.7,1.3,12.3,3.9c2.9,2.1,5.3,5,6.6,8.2
				c-1.4,3.2-3.7,6.1-6.6,8.2c-0.1,0.1-0.3,0.2-0.4,0.3l3.5,3.5c4.1-3,7.2-7.1,8.8-11.9C68.8,38.2,59.3,31.2,48,31.2
				c-4,0-7.7,0.9-11,2.4L40.6,37.3z"/>
			<path fill="#434343" d="M57.7,57.7c-3,1.5-6.3,2.3-9.7,2.3c-4.5,0-8.7-1.3-12.3-3.9c-2.9-2.1-5.3-5-6.6-8.2
				c1.4-3.2,3.7-6.1,6.6-8.2c0.8-0.6,1.7-1.1,2.6-1.5l-3.5-3.5c-5.1,3-9,7.7-10.8,13.2c3.2,9.8,12.8,16.8,24.1,16.8
				c4.9,0,9.4-1.3,13.2-3.6L57.7,57.7z"/>
		</g>
		<g>
			<path fill="#434343" d="M56.5,56.5C54.3,58.7,51.3,60,48,60c-6.6,0-12-5.4-12-12c0-3.3,1.3-6.3,3.5-8.5l-1.7-1.7
				c-2.6,2.6-4.2,6.2-4.2,10.2c0,8,6.5,14.4,14.4,14.4c4,0,7.6-1.6,10.2-4.2L56.5,56.5z"/>
			<path fill="#434343" d="M41.4,38c1.9-1.3,4.2-2,6.6-2c6.6,0,12,5.4,12,12c0,2.5-0.7,4.7-2,6.6l1.7,1.7c1.7-2.4,2.7-5.2,2.7-8.4
				c0-8-6.5-14.4-14.4-14.4c-3.1,0-6,1-8.4,2.7L41.4,38z"/>
		</g>
		<g>
			<path fill="#434343" d="M52.6,49.3c0.1-0.4,0.2-0.8,0.2-1.2c0-0.5-0.1-1-0.2-1.4c-0.3,0.6-0.8,1-1.4,1.3L52.6,49.3z"/>
			<path fill="#434343" d="M44.6,44.6c-0.9,0.9-1.4,2.1-1.4,3.4c0,2.7,2.2,4.8,4.8,4.8c1.3,0,2.5-0.5,3.4-1.4L44.6,44.6z"/>
			<path fill="#434343" d="M48.2,44.8c0.2-0.6,0.7-1.1,1.3-1.4c-0.4-0.1-0.9-0.2-1.4-0.2c-0.4,0-0.9,0.1-1.2,0.2L48.2,44.8z"/>
		</g>
	</g>
</g>
<g id="Layer_25" display="none">
	<g display="inline">
		<path fill="#434343" d="M48,36c4.5,0,8.7,1.3,12.2,3.9c2.9,2.1,5.3,4.9,6.6,8.1c-1.4,3.2-3.7,6.1-6.6,8.1C56.7,58.7,52.5,60,48,60
			c-4.5,0-8.7-1.3-12.2-3.9c-2.9-2.1-5.3-4.9-6.6-8.1c1.4-3.2,3.7-6.1,6.6-8.1C39.3,37.3,43.5,36,48,36 M48,31.2
			c-11.3,0-20.8,7.1-24,16.8c3.2,9.7,12.7,16.8,24,16.8c11.3,0,20.8-7.1,24-16.8C68.8,38.3,59.3,31.2,48,31.2L48,31.2z"/>
		<path fill="#434343" d="M48,36c6.6,0,12,5.4,12,12s-5.4,12-12,12s-12-5.4-12-12S41.4,36,48,36 M48,33.6c-8,0-14.4,6.5-14.4,14.4
			S40,62.4,48,62.4S62.4,56,62.4,48S56,33.6,48,33.6L48,33.6z"/>
		<path fill="#434343" d="M50.4,48c-1.3,0-2.4-1.1-2.4-2.4c0-1,0.6-1.8,1.4-2.2c-0.4-0.1-0.9-0.2-1.4-0.2c-2.7,0-4.8,2.2-4.8,4.8
			s2.2,4.8,4.8,4.8s4.8-2.2,4.8-4.8c0-0.5-0.1-1-0.2-1.4C52.2,47.4,51.4,48,50.4,48z"/>
	</g>
</g>
<g id="Layer_26" display="none">
	<path display="inline" fill="#434343" d="M72.9,36.3C72.1,35.9,48,24,48,24S23.8,35.9,23.1,36.4c-1.2,0.8-2,2.2-2,3.8v27.4
		c0,2.5,2.1,4.6,4.6,4.6h44.8c2.5,0,4.6-2.1,4.6-4.6V40.2C75,38.6,74.1,37.1,72.9,36.3z M69.6,40.2L48,51L26.4,40.2l0,0L48,29.4
		L69.6,40.2L69.6,40.2z"/>
</g>
<g id="Layer_30">
	<g id="ci_x5F_phonenumber_1_" display="none">
		<path display="inline" fill="#455B65" d="M-63.7,7.5v2.6c0,0.8,0.3,1.5,0.9,2l2.2,2.2c-2,3.9-5.2,7.1-9.2,9.1l-2.1-2.1
			c-0.5-0.5-1.2-0.9-2-0.9h-2.6c-1.4,0-2.6,1.2-2.6,2.6v1.3v1.3v0.1c0,0,0,0,0,0.1c0.1,1.2,0.9,2.1,2,2.4
			c11.3-0.9,20.4-10,21.3-21.3c-0.3-1.1-1.3-2-2.5-2h0h-1.3h-1.4C-62.5,4.9-63.7,6.1-63.7,7.5z"/>
	</g>
	<g id="ci_x5F_emailaddress_1_" display="none">
		<path display="inline" fill="#455B65" d="M-74.8,7.3v18.6c0,1.3,1,2.3,2.3,2.3h11.6c1.3,0,2.3-1,2.3-2.3V7.3c0-1.3-1-2.3-2.3-2.3
			h-11.6C-73.7,4.9-74.8,6-74.8,7.3z M-70.1,7.3l4.6,9.3l-4.6,9.3h-2.3l4.6-9.3l-4.6-9.3L-70.1,7.3L-70.1,7.3z"/>
	</g>
	<g id="ci_x5F_location_1_" display="none">
		<path display="inline" fill="#455B65" d="M-79.1,16.5c0,4.5,3.6,8.1,8.1,8.1c5.9,0,15.1-8.1,15.1-8.1S-65.1,8.4-71,8.4
			C-75.5,8.4-79.1,12-79.1,16.5z M-67.5,16.5c0,1.9-1.6,3.5-3.5,3.5c-1.9,0-3.5-1.6-3.5-3.5S-72.9,13-71,13
			C-69.1,13-67.5,14.6-67.5,16.5z"/>
	</g>
	<g id="Lanextyer_22_1_" display="none">
		<g display="inline">
			<g>
				<polygon fill="#455B65" points="-67.5,14.8 -61.8,20.5 -60.7,19.3 -67.5,12.6 -74.3,19.3 -73.2,20.5 -72.4,19.7 				"/>
			</g>
		</g>
	</g>
	<polygon fill="#455B65" points="48,58 64,41.9 60.1,38 48,50.1 35.9,38.1 32,42 	"/>
</g>
<g id="Layer_27" display="none">
	<g display="inline">
		<path fill="#434343" d="M57.8,58V38L72,48L57.8,58z"/>
		<path fill="#434343" d="M36,51.5h24v-7H36V51.5z"/>
		<path fill="#434343" d="M58,61.7V66H30V30h28v4.3l6,4.2V27c0-1.6-1.3-3-3-3H27c-1.6,0-3,1.4-3,3v42c0,1.7,1.4,3,3,3h34
			c1.7,0,3-1.3,3-3V57.4L58,61.7z"/>
	</g>
</g>
<g id="Layer_29" display="none">
	<g display="inline">
		<path fill="#434343" d="M72,48c0-1.5-0.1-3-0.4-4.4l-8.5-1.8l4.7-7.3c-1.7-2.5-3.8-4.6-6.3-6.3l-7.3,4.7l-1.8-8.5
			C51,24.2,49.5,24,48,24c-1.5,0-3,0.1-4.4,0.4l-1.8,8.5l-7.3-4.7c-2.5,1.7-4.6,3.8-6.3,6.3l4.7,7.3l-8.5,1.8C24.2,45,24,46.5,24,48
			c0,1.5,0.1,3,0.4,4.4l8.5,1.8l-4.7,7.3c1.7,2.5,3.8,4.6,6.3,6.3l7.3-4.7l1.8,8.5C45,71.8,46.5,72,48,72c1.5,0,3-0.1,4.4-0.4
			l1.8-8.5l7.3,4.7c2.5-1.7,4.6-3.8,6.3-6.3l-4.7-7.3l8.5-1.8C71.8,51,72,49.5,72,48z M48,57.3c-5.1,0-9.3-4.2-9.3-9.3
			c0-5.1,4.2-9.3,9.3-9.3c5.1,0,9.3,4.2,9.3,9.3C57.3,53.1,53.1,57.3,48,57.3z"/>
	</g>
</g>
<g id="Layer_28" display="none">
	<g display="inline">
		<path fill="#434343" d="M48,24c-13.3,0-24,10.7-24,24s10.7,24,24,24c13.3,0,24-10.7,24-24S61.3,24,48,24z M48,67
			c-10.5,0-19-8.5-19-19c0-10.5,8.5-19,19-19c10.5,0,19,8.5,19,19C67,58.5,58.5,67,48,67z"/>
		<path fill="#434343" d="M45.4,53.7c0-1.6,0.2-3,0.6-3.9c0.4-1,1.2-2.1,2.4-3.2c1.2-1.2,2-2,2.3-2.5c0.5-0.8,0.7-1.6,0.7-2.4
			c0-1.2-0.3-2-0.9-2.7C50,38.3,49.2,38,48.1,38c-1.1,0-1.9,0.3-2.6,0.9c-0.6,0.6-1,1.4-1,2.4H40c0-2.2,0.8-3.9,2.2-5.2
			c1.5-1.3,3.4-1.9,5.8-1.9c2.5,0,4.4,0.6,5.8,1.9c1.4,1.3,2.1,3,2.1,5.3c0,2-0.9,4-2.8,6l-2.3,2.2c-0.8,0.9-1.2,2.3-1.3,4.1H45.4z
			 M45.1,59.4c0-0.7,0.2-1.3,0.7-1.8c0.5-0.4,1.1-0.7,1.9-0.7c0.8,0,1.4,0.2,1.9,0.7c0.5,0.5,0.7,1,0.7,1.7c0,0.7-0.2,1.2-0.7,1.7
			c-0.4,0.5-1.1,0.7-1.9,0.7c-0.8,0-1.4-0.2-1.9-0.7C45.3,60.7,45.1,60.1,45.1,59.4z"/>
	</g>
</g>
</svg>
