<svg version="1.1" baseProfile="tiny" id="Layer_1" xmlns="http://www.w3.org/2000/svg" xmlns:xlink="http://www.w3.org/1999/xlink"
	 x="0px" y="0px" viewBox="0 0 128 128" xml:space="preserve">
<g>
	<path fill="#757576" d="M64,32c17.6,0,32,14.4,32,32S81.6,96,64,96S32,81.6,32,64S46.4,32,64,32 M64,24c-22.1,0-40,17.9-40,40
		s17.9,40,40,40s40-17.9,40-40S86.1,24,64,24L64,24z"/>
	<g>
		<path fill="#757576" d="M60,71.7c0-2.5,0.3-4.5,0.9-6c0.6-1.5,1.7-3,3.4-4.4c1.6-1.4,2.7-2.6,3.2-3.5c0.5-0.9,0.8-1.9,0.8-2.9
			c0-3-1.4-4.6-4.2-4.6c-1.3,0-2.4,0.4-3.2,1.2c-0.8,0.8-1.2,1.9-1.3,3.4h-7.8c0-3.4,1.1-6.1,3.3-8.1c2.2-1.9,5.2-2.9,8.9-2.9
			c3.8,0,6.8,0.9,8.9,2.8c2.1,1.8,3.1,4.4,3.1,7.8c0,1.5-0.3,3-1,4.3c-0.7,1.4-1.9,2.9-3.6,4.5l-2.2,2.1C68,66.8,67.2,68.3,67,70
			l-0.1,1.6H60z M59.2,79.9c0-1.2,0.4-2.2,1.2-3c0.8-0.8,1.9-1.2,3.1-1.2s2.3,0.4,3.1,1.2c0.8,0.8,1.2,1.8,1.2,3
			c0,1.2-0.4,2.2-1.2,2.9c-0.8,0.8-1.9,1.2-3.2,1.2s-2.4-0.4-3.2-1.2C59.6,82.1,59.2,81.1,59.2,79.9z"/>
	</g>
</g>
</svg>
