<svg viewBox="0 0 1024 1024" xmlns="http://www.w3.org/2000/svg" fill-rule="evenodd" clip-rule="evenodd" stroke-linejoin="round" stroke-miterlimit="1.414"><path d="M388.34 604.035c-19.12-25.652-30.44-57.464-30.44-91.935 0-33.307 10.576-64.047 28.477-89.208l-.977-.977c-1.444.976-2.877 1.97-4.3 2.985-31.4 22.4-56.1 52.9-70.9 87.1 14.7 34.2 39.5 64.7 70.9 87.1 2.386 1.695 4.8 3.34 7.24 4.935zm16.605-162.575C391.53 461.74 383.7 485.996 383.7 512.1c0 70.7 57.5 128.3 128.3 128.3 26.092 0 50.393-7.823 70.657-21.228l-57.58-57.58c-4.21 1.116-8.632 1.708-13.178 1.708-28.3 0-51.3-22.9-51.3-51.3 0-4.55.593-8.967 1.71-13.174l-57.365-57.366zM561.5 525.4c1.1-4.3 1.8-8.7 1.8-13.3 0-5.3-.8-10.4-2.3-15.1-2.8 6.2-8 11.1-14.5 13.5l15 14.9zm-47.9-47.9c2.4-6.4 7.3-11.7 13.5-14.5-4.8-1.5-9.9-2.3-15.1-2.3-4.6 0-9.1.7-13.3 1.8l14.9 15zm-90.858-90.93L394.3 358.2c35.6-16.5 75.5-25.8 117.7-25.8 120.5 0 222.4 75.5 256.7 179.7-16.8 51.1-49.9 95.2-93.5 127l-36.8-36.8c1.5-1 3-2 4.5-3.1 31.4-22.4 56.1-52.9 70.9-87.1-14.7-34.2-39.5-64.7-70.9-87.1-2.45-1.74-4.927-3.427-7.435-5.06C654.642 445.613 666 477.473 666 512c0 33.3-10.6 64.1-28.6 89.3l-18.5-18.5c13.5-20.3 21.4-44.7 21.4-70.8 0-70.7-57.5-128.3-128.3-128.3-26.2 0-50.5 7.9-70.8 21.4l-18.5-18.5.042-.03zm230.514 266.856l40.128 40.128-18.172 18.173-45.77-45.77c-35.51 16.5-75.353 25.743-117.443 25.743-120.5 0-222.4-75.5-256.7-179.8 16.778-50.94 49.77-95.066 93.245-126.84l-36.36-36.36 18.174-18.17 40.096 40.096.043-.026 37.8 37.8-.047.023.353.353L421.3 421.4l-.035.035 181.4 181.4.035-.035 12.554 12.624 11.828 11.827L653.3 653.4l-.044.026z" fill="#434343"/></svg>