<svg viewBox="0 0 1024 1024" xmlns="http://www.w3.org/2000/svg" fill-rule="evenodd" clip-rule="evenodd" stroke-linejoin="round" stroke-miterlimit="1.414"><path d="M721 655.7c28.7-41.2 45.6-91.2 45.6-145.2h-72.7c0 33.9-9.3 65.5-25.4 92.7l52.5 52.5zm-63.546 63.63C616.276 748.043 566.19 764.9 512.2 764.9c-70.227 0-133.8-28.53-179.816-74.55L289.7 733V605.9h127.2l-33.115 33.088c32.873 32.88 78.287 53.212 128.414 53.212 33.89 0 65.59-9.252 92.736-25.386L355.948 417.826c-16.11 27.13-25.35 58.81-25.35 92.674h-72.7c0-53.964 16.843-104.028 45.53-145.195l-45.548-45.547 31.82-31.82 74.423 74.424L383.8 382l-.02.02 350.968 350.967-31.82 31.82-45.475-45.476zM666.9 415.2l-.062-.1H607.6l33.064-33.038C607.796 349.21 562.404 328.9 512.3 328.9c-33.9 0-65.6 9.3-92.7 25.4L367 301.8c41.2-28.7 91.2-45.6 145.2-45.6 70.238 0 133.814 28.528 179.835 74.532L734.8 288v127.1h-67.793l-.106.1z" fill="#434343"/></svg>