<svg version="1.1" baseProfile="tiny" id="Layer_1" xmlns="http://www.w3.org/2000/svg" xmlns:xlink="http://www.w3.org/1999/xlink"
	 x="0px" y="0px" viewBox="0 0 128 128" xml:space="preserve">
<g>
	<g>
		<path fill="#B72025" d="M46.5,87.5c0,0,0.1-0.1,0.3-0.4C46.7,87,46.5,87.5,46.5,87.5z"/>
		<path fill="#B72025" d="M73.7,24H40c-4.4,0-8,3.6-8,8v64c0,4.4,3.6,8,8,8h48c4.4,0,8-3.6,8-8V46.3L73.7,24z"/>
	</g>
	<path fill="#FFFFFF" d="M81.5,79c0,0-4.4-1.7-10.5-1.3c0,0-6.3-4.2-9.4-12.2c0,0,3-4.6-0.2-11.9c0,0-1-2.3-2.1-2.3
		c-0.4,0-0.8,0.3-1.1,1c0,0-2.9,3.3,1.2,13.1c0,0-4,13.3-6.5,16.2c0,0-6.3,1.4-8.8,7.3c0,0-0.4,3.6,2.8,3.1c0,0,6.7-1.7,8.7-9.1
		l13.9-2.5c0,0,10.8,6.9,14.4,2.5C83.8,82.8,85,80.9,81.5,79z M47.5,88.8c0,0-1.4,0-0.9-1.2c0.1-0.3,0.2-0.5,0.2-0.6
		c0.7-0.8,2.6-2.9,5.2-3.8C52,83.3,51.5,88.2,47.5,88.8z M60.2,55c0.1-0.3,0.2-0.5,0.4-0.5c0,0,0,0,0,0c0.4,0,0.8,1.5,0.8,1.5
		c0.9,3-0.3,6.8-0.3,6.8C59.6,57.9,60.2,55,60.2,55z M56.9,79.5c1.9-2.4,3.4-10.3,3.4-10.3c1.9,3.5,7.2,8.6,7.2,8.6L56.9,79.5z
		 M81.8,82.1c0,0-3.9,0.9-8.2-2.8c0,0,0.5,0,1.2,0c1.4,0,3.9,0.2,6.1,1.2C80.9,80.4,83.4,81.9,81.8,82.1z"/>
	<polygon fill="#FFFFFF" points="72,48 72,28 92,48 	"/>
</g>
</svg>
