<svg version="1.1" baseProfile="tiny" id="Layer_1" xmlns="http://www.w3.org/2000/svg" xmlns:xlink="http://www.w3.org/1999/xlink"
	 x="0px" y="0px" viewBox="0 0 128 128" xml:space="preserve">
<path fill="#757576" d="M92,80H80h0c-1.2,0-2.2,0.5-3,1.3c-0.4,0.4-3.9,4.6-6.4,7.6c-14.7-5.2-26.3-16.8-31.5-31.5
	c3-2.5,7.2-6,7.6-6.4c0.8-0.7,1.3-1.8,1.3-3v0V36c0-2.2-1.8-4-4-4H32c-2.2,0-4,1.8-4,4v4v0v4c0,0.3,0.1,0.8,0.3,1.4
	c2.6,28.8,25.5,51.8,54.3,54.3c0.6,0.2,1.1,0.3,1.4,0.3h8c2.2,0,4-1.8,4-4V84C96,81.8,94.2,80,92,80z"/>
</svg>
