<svg version="1.1" baseProfile="tiny" id="Layer_1" xmlns="http://www.w3.org/2000/svg" xmlns:xlink="http://www.w3.org/1999/xlink"
	 x="0px" y="0px" viewBox="0 0 128 128" xml:space="preserve">
<g>
	<path fill="#757576" d="M90.6,68.2c0.4-2.8,0.5-5.6,0.1-8.3l7.2-8c-1.4-4-3.6-7.7-6.3-11L81.1,43c-2.1-1.7-4.6-3.1-7.3-4.1
		l-3.3-10.2c-4.3-0.8-8.6-0.8-12.8-0.1l-3.4,10.2c-2.6,1-5.1,2.4-7.3,4.1l-10.5-2.2c-2.7,3.2-4.8,6.9-6.3,11.1l7.2,8
		c-0.4,2.8-0.5,5.6-0.1,8.3l-7.2,8c1.4,4,3.6,7.7,6.3,11L46.9,85c2.1,1.7,4.6,3.1,7.3,4.1l3.3,10.2c4.3,0.8,8.6,0.8,12.8,0.1
		l3.4-10.2c2.6-1,5.1-2.4,7.3-4.1l10.5,2.2c2.7-3.2,4.8-6.9,6.3-11.1L90.6,68.2z M60.5,76.8c-7.1-1.9-11.2-9.2-9.3-16.3
		c1.9-7.1,9.2-11.2,16.3-9.3s11.2,9.2,9.3,16.3C74.8,74.6,67.5,78.7,60.5,76.8z"/>
</g>
</svg>
