<svg xmlns="http://www.w3.org/2000/svg" viewBox="0 0 128 128"><defs><style>.a{fill:none;}.b{fill:#757576;}</style></defs><title>spares</title><rect class="a" width="128" height="128"/><path class="b" d="M99.63,46.36L84.35,61.63a20.8,20.8,0,0,1-8.65-3.29,13.46,13.46,0,0,1-3.51-2.53A12.85,12.85,0,0,1,70,52.9a20.91,20.91,0,0,1-3.65-9.38L81.54,28.35a23.16,23.16,0,0,0-4.77-.55A23.39,23.39,0,0,0,53.91,56.37L28,82.28A35.46,35.46,0,0,0,45.71,100L71.61,74.09a23.39,23.39,0,0,0,28.59-22.85A23.16,23.16,0,0,0,99.63,46.36Z"/></svg>