<svg version="1.1" baseProfile="tiny" id="Layer_1" xmlns="http://www.w3.org/2000/svg" xmlns:xlink="http://www.w3.org/1999/xlink"
	 x="0px" y="0px" viewBox="0 0 128 128" xml:space="preserve">
<g>
	<path fill="#757576" d="M64,36c8.7,0,16.5,4.1,21.6,10.4L80,52h16V36l-4.7,4.7C84.8,32.9,75,28,64,28c-19.9,0-36,16.1-36,36h8
		C36,48.6,48.6,36,64,36z"/>
	<path fill="#757576" d="M64,92c-8.7,0-16.5-4.1-21.6-10.4L48,76H32v16l4.7-4.7C43.2,95.1,53,100,64,100c19.9,0,36-16.1,36-36h-8
		C92,79.4,79.4,92,64,92z"/>
</g>
</svg>
