<svg viewBox="0 0 1024 1024" xmlns="http://www.w3.org/2000/svg" fill-rule="evenodd" clip-rule="evenodd" stroke-linejoin="round" stroke-miterlimit="1.414"><path d="M512 385c47.2 0 92 14.1 129.6 40.9 31.1 22.2 55.6 52.3 70.2 86.2-14.6 33.9-39.1 64-70.2 86.2C604 625 559.2 639.1 512 639.1c-47.2 0-92-14.1-129.6-40.9-31.1-22.2-55.6-52.3-70.2-86.2 14.6-33.9 39.1-64 70.2-86.2C420 399.1 464.8 385 512 385m0-50.8c-119.3 0-220.2 74.8-254.1 177.9C291.8 615.2 392.7 690 512 690c119.3 0 220.2-74.8 254.1-177.9C732.2 409 631.3 334.2 512 334.2zm0 50.8c70.1 0 127.1 57 127.1 127.1s-57 127.1-127.1 127.1-127.1-57-127.1-127.1S441.9 385 512 385m0-25.4c-84.2 0-152.5 68.3-152.5 152.5S427.8 664.6 512 664.6s152.5-68.3 152.5-152.5S596.2 359.6 512 359.6zm25.4 152.5c-14 0-25.4-11.4-25.4-25.4 0-10.3 6.2-19.2 15-23.2-4.7-1.5-9.8-2.3-15-2.3-28.1 0-50.8 22.8-50.8 50.8 0 28.1 22.8 50.8 50.8 50.8 28.1 0 50.8-22.8 50.8-50.8 0-5.2-.8-10.3-2.3-15-3.9 8.9-12.8 15.1-23.1 15.1z" fill="#434343" fill-rule="nonzero"/></svg>