<svg version="1.1" baseProfile="tiny" id="Layer_1" xmlns="http://www.w3.org/2000/svg" xmlns:xlink="http://www.w3.org/1999/xlink"
	 x="0px" y="0px" viewBox="0 0 128 128" xml:space="preserve">
<g>
	<path fill="#09BCD4" d="M88,104H40c-4.4,0-8-3.6-8-8V32c0-4.4,3.6-8,8-8h48c4.4,0,8,3.6,8,8v64C96,100.4,92.4,104,88,104z"/>
	<path fill="#FFFFFF" d="M64,44c-13.2,0-24,10.8-24,24s10.8,24,24,24s24-10.8,24-24S77.2,44,64,44z M64,88c-6.5,0-12.3-3.2-16-8l4-4
		l-4-4c0,0-1.8-0.2-3.6-0.2C44.1,70.5,44,69.3,44,68c0-11,9-20,20-20c0.5,0,0.9,0,1.4,0.1l1.3,2.7l7.1,3.7v3.7l-10.7-3.7L56,58.2
		v7.4l7.1,3.7v3.7l3.6,3.7L63.1,84l10.7-3.7l3.6-7.4l3.6-7.4h-3.6v-3.7v-3.7L80,64l2.2-4.3C83.3,62.2,84,65,84,68C84,79,75,88,64,88
		z"/>
</g>
</svg>
