<svg xmlns="http://www.w3.org/2000/svg" viewBox="0 0 24 24"><defs/><path fill="#000" fill-rule="nonzero" d="M9.891 23.654L12 21.497l2.109 2.157c.586.632 1.687.35 1.89-.5l.75-2.938 2.905.828c.836.234 1.625-.555 1.39-1.39l-.827-2.908 2.936-.75c.844-.2 1.143-1.282.5-1.89l-2.155-2.11 2.155-2.11c.643-.608.343-1.689-.5-1.89l-2.936-.75.828-2.907c.234-.836-.555-1.625-1.39-1.39l-2.907.828L16 .839c-.198-.83-1.291-1.133-1.89-.5L12 2.51 9.891.34C9.3-.287 8.201 0 8.001.839l-.75 2.938-2.905-.828c-.836-.235-1.625.554-1.39 1.39l.827 2.907-2.937.75c-.843.201-1.142 1.283-.5 1.89l2.156 2.11-2.156 2.11c-.642.608-.342 1.69.5 1.89l2.937.75-.828 2.907c-.234.836.555 1.625 1.39 1.391l2.907-.828L8 23.154c.208.87 1.298 1.125 1.89.5z"/></svg>