<svg xmlns="http://www.w3.org/2000/svg" viewBox="0 0 24 24"><defs/><path fill="#000" fill-rule="nonzero" d="M11.812 19.5c5.042 0 9.447-2.938 11.67-7.277.079-.155.143-.424.143-.598 0-.175-.064-.443-.143-.599-2.224-4.34-6.628-7.276-11.67-7.276S2.366 6.688.142 11.027a1.574 1.574 0 00-.142.598c0 .175.064.443.143.599 2.224 4.34 6.627 7.276 11.67 7.276zm.003-1.969h-.003a5.908 5.908 0 01-5.906-5.906 5.908 5.908 0 015.906-5.906 5.908 5.908 0 015.907 5.906v.003a5.906 5.906 0 01-5.904 5.903zm.007-1.987a3.93 3.93 0 003.928-3.928 3.93 3.93 0 00-3.928-3.928h-.01a4.694 4.694 0 00-1.038.155c.211.286.382.808.382 1.163 0 1.084-.879 1.963-1.962 1.963-.356 0-.877-.171-1.164-.382-.075.279-.137.74-.137 1.029a3.93 3.93 0 003.929 3.928z"/></svg>