<?xml version="1.0" encoding="UTF-8"?>
<svg width="32px" height="32px" viewBox="0 0 32 32" version="1.1" xmlns="http://www.w3.org/2000/svg" xmlns:xlink="http://www.w3.org/1999/xlink">
    <!-- Generator: Sketch 40.3 (33839) - http://www.bohemiancoding.com/sketch -->
    <title>ic_adhoc</title>
    <desc>Created with Sketch.</desc>
    <defs></defs>
    <g id="Icons" stroke="none" stroke-width="1" fill="none" fill-rule="evenodd">
        <g id="Desktop-HD-Copy" transform="translate(-81.000000, -419.000000)">
            <g id="Page-1" transform="translate(85.000000, 423.000000)">
                <polygon id="Stroke-1" stroke-opacity="0.00784313771" stroke="#000000" stroke-width="1.33333335e-11" points="0 0 23.9999985 0 23.9999985 23.9999985 0 23.9999985"></polygon>
                <path d="M12.9999992,6.99999958 L10.9999993,6.99999958 L10.9999993,10.9999993 L6.99999958,10.9999993 L6.99999958,12.9999992 L10.9999993,12.9999992 L10.9999993,16.999999 L12.9999992,16.999999 L12.9999992,12.9999992 L16.999999,12.9999992 L16.999999,10.9999993 L12.9999992,10.9999993 L12.9999992,6.99999958 L12.9999992,6.99999958 Z M11.9999993,1.99999988 C6.47999962,1.99999988 1.99999988,6.47999962 1.99999988,11.9999993 C1.99999988,17.5199993 6.47999962,21.9999987 11.9999993,21.9999987 C17.5199993,21.9999987 21.9999987,17.5199993 21.9999987,11.9999993 C21.9999987,6.47999915 17.5199993,1.99999988 11.9999993,1.99999988 L11.9999993,1.99999988 Z M11.9999993,19.9999988 C7.58999969,19.9999988 3.99999976,16.4099988 3.99999976,11.9999993 C3.99999976,7.58999969 7.58999969,3.99999976 11.9999993,3.99999976 C16.4099988,3.99999976 19.9999988,7.58999969 19.9999988,11.9999993 C19.9999988,16.4099988 16.4099988,19.9999988 11.9999993,19.9999988 L11.9999993,19.9999988 Z" id="Fill-2" fill="#000000"></path>
            </g>
        </g>
        <g id="ic_adhoc"></g>
    </g>
</svg>