<?xml version="1.0" encoding="UTF-8"?>
<svg width="32px" height="32px" viewBox="0 0 32 32" version="1.1" xmlns="http://www.w3.org/2000/svg" xmlns:xlink="http://www.w3.org/1999/xlink">
    <!-- Generator: Sketch 40.3 (33839) - http://www.bohemiancoding.com/sketch -->
    <title>ic_audio</title>
    <desc>Created with Sketch.</desc>
    <defs></defs>
    <g id="Icons" stroke="none" stroke-width="1" fill="none" fill-rule="evenodd">
        <g id="Desktop-HD" transform="translate(-1009.000000, -755.000000)"></g>
        <g id="ic_audio">
            <g id="documents-a" transform="translate(4.000000, 4.000000)">
                <polygon id="Stroke-1" stroke-opacity="0.00784313771" stroke="#000000" stroke-width="1.33333335e-11" points="0 0 23.9999985 0 23.9999985 23.9999985 0 23.9999985"></polygon>
                <path d="M5.99999964,1.99999988 C4.8999998,1.99999988 4.00999998,2.89999992 4.00999998,3.99999976 L3.99999976,19.9999988 C3.99999976,21.099999 4.88999957,21.9999987 5.98999941,21.9999987 L17.9999989,21.9999987 C19.0999992,21.9999987 19.9999988,21.099999 19.9999988,19.9999988 L19.9999988,7.99999952 L13.9999992,1.99999988 L5.99999964,1.99999988 L5.99999964,1.99999988 Z" id="Fill-2" fill="#9012FE"></path>
                <path d="M15,12.1666667 L15,15.0853529 C14.8436105,15.0300771 14.6753177,15 14.5,15 C13.6715729,15 13,15.6715729 13,16.5 C13,17.3284271 13.6715729,18 14.5,18 C15.3284271,18 16,17.3284271 16,16.5 L16,11.5 L16,10 L10,11 L10,12.5 L10,16.0853529 C9.84361054,16.0300771 9.67531771,16 9.5,16 C8.67157288,16 8,16.6715729 8,17.5 C8,18.3284271 8.67157288,19 9.5,19 C10.3284271,19 11,18.3284271 11,17.5 L11,12.8333333 L15,12.1666667 L15,12.1666667 Z" id="Combined-Shape" fill="#FFFFFF" opacity="0.900000036"></path>
                <polygon id="Path" fill="#C788FE" points="14 8 14 2 20 8"></polygon>
                <polygon id="Path" fill="#000000" opacity="0.400000006" transform="translate(17.000000, 11.000000) scale(-1, -1) translate(-17.000000, -11.000000) " points="14 14 14 8 20 14"></polygon>
            </g>
        </g>
    </g>
</svg>