<?xml version="1.0" encoding="UTF-8"?>
<svg width="32px" height="32px" viewBox="0 0 32 32" version="1.1" xmlns="http://www.w3.org/2000/svg" xmlns:xlink="http://www.w3.org/1999/xlink">
    <!-- Generator: Sketch 40.3 (33839) - http://www.bohemiancoding.com/sketch -->
    <title>ic_barcode</title>
    <desc>Created with Sketch.</desc>
    <defs></defs>
    <g id="Icons" stroke="none" stroke-width="1" fill="none" fill-rule="evenodd">
        <g id="Desktop-HD" transform="translate(-1009.000000, -699.000000)"></g>
        <g id="ic_barcode">
            <g id="Page-1" transform="translate(4.000000, 4.000000)" stroke-opacity="0.00784313771" stroke="#000000" stroke-width="1.33333335e-11">
                <polygon id="Stroke-1" points="0 0 23.9999985 0 23.9999985 23.9999985 0 23.9999985"></polygon>
            </g>
            <path d="M16,15 L16,9 L17,9 L17,15 L18,15 L18,9 L19.979899,9 L19.979899,15 L22,15 L22,9 L23,9 L23,15 L26,15 L26,16 L6,16 L6,15 L9,15 L9,9 L10,9 L10,15 L11,15 L11,9 L12.979899,9 L12.979899,15 L14,15 L14,9 L15,9 L15,15 L16,15 Z M16,17 L16,21.9267125 L17,21.9267125 L17,17 L16,17 Z M18,17 L18,21.9267125 L19.979899,21.9267125 L19.979899,17 L18,17 Z M22,17 L22,21.9267125 L23,21.9267125 L23,17 L22,17 Z M14,17 L14,21.9267125 L15,21.9267125 L15,17 L14,17 Z M11,17 L11,21.9267125 L12.979899,21.9267125 L12.979899,17 L11,17 Z M9,17 L9,21.9267125 L10,21.9267125 L10,17 L9,17 Z M26,24.5100505 L26,26 L22,26 L22,24.020101 L24.020101,24.020101 L24.020101,22 L26,22 L26,24.5100505 Z M26,7.48994949 L26,6 L22,6 L22,7.97989899 L24.020101,7.97989899 L24.020101,10 L26,10 L26,7.48994949 Z M7.48994949,26 L6,26 L6,22 L7.97989899,22 L7.97989899,24.020101 L10,24.020101 L10,26 L7.48994949,26 Z M6,6.98994949 L6,10 L7.97989899,10 L7.97989899,7.97989899 L10,7.97989899 L10,6 L6,6 L6,6.98994949 Z" id="Combined-Shape" fill="#000000"></path>
        </g>
    </g>
</svg>