<?xml version="1.0" encoding="UTF-8"?>
<svg width="32px" height="32px" viewBox="0 0 32 32" version="1.1" xmlns="http://www.w3.org/2000/svg" xmlns:xlink="http://www.w3.org/1999/xlink">
    <!-- Generator: Sketch 40.3 (33839) - http://www.bohemiancoding.com/sketch -->
    <title>ic_clear</title>
    <desc>Created with Sketch.</desc>
    <defs></defs>
    <g id="Icons" stroke="none" stroke-width="1" fill="none" fill-rule="evenodd">
        <g id="Desktop-HD" transform="translate(-81.000000, -699.000000)">
            <g id="Page-1" transform="translate(88.000000, 707.000000)">
                <polygon id="Stroke-1" stroke-opacity="0.00784313771" stroke="#000000" stroke-width="1.33333335e-11" points="0 0 17.9999995 0 17.9999995 17.9999995 0 17.9999995"></polygon>
                <path d="M9,1 C4.57999992,1 1,4.57999992 1,9 C1,13.42 4.57999992,17 9,17 C13.42,17 17,13.42 17,9 C17,4.57999992 13.42,1 9,1 L9,1 Z M13,11.8699998 L11.8699998,13 L9,10.1300001 L6.13000011,13 L5,11.8699998 L7.86999988,9 L5,6.13000011 L6.13000011,5 L9,7.86999988 L11.8699998,5 L13,6.13000011 L10.1300001,9 L13,11.8699998 L13,11.8699998 Z" id="Fill-2" fill="#000000"></path>
            </g>
        </g>
        <g id="ic_clear"></g>
    </g>
</svg>