<?xml version="1.0" encoding="UTF-8"?>
<svg width="32px" height="32px" viewBox="0 0 32 32" version="1.1" xmlns="http://www.w3.org/2000/svg" xmlns:xlink="http://www.w3.org/1999/xlink">
    <!-- Generator: Sketch 40.3 (33839) - http://www.bohemiancoding.com/sketch -->
    <title>ic_camera</title>
    <desc>Created with Sketch.</desc>
    <defs></defs>
    <g id="Icons" stroke="none" stroke-width="1" fill="none" fill-rule="evenodd">
        <g id="Desktop-HD" transform="translate(-1009.000000, -867.000000)"></g>
        <g id="ic_camera">
            <g id="Page-1" transform="translate(4.000000, 4.000000)">
                <polygon id="Stroke-1" stroke-opacity="0.00784313771" stroke="#000000" stroke-width="1.33333335e-11" points="0 0 23.9999985 0 23.9999985 23.9999985 0 23.9999985"></polygon>
                <g id="Group-4" transform="translate(2.000000, 2.000000)" fill="#000000">
                    <path d="M13.1999998,9.99999928 C13.1999998,12.1333333 12.1333333,13.1999998 9.99999928,13.1999998 C7.8666662,13.1999998 6.79999966,12.1333333 6.79999966,9.99999928 C6.79999966,7.8666662 7.8666662,6.79999966 9.99999928,6.79999966 C12.1333333,6.79999966 13.1999998,7.8666662 13.1999998,9.99999928 L13.1999998,9.99999928 Z" id="Fill-2"></path>
                    <path d="M6.99999946,-1.19999999e-07 L5.16999964,1.99999976 L1.99999976,1.99999976 C0.899999916,1.99999976 -1.2e-07,2.8999998 -1.2e-07,3.99999964 L-1.2e-07,15.9999989 C-1.2e-07,17.0999992 0.899999916,17.9999988 1.99999976,17.9999988 L17.9999988,17.9999988 C19.099999,17.9999988 19.9999987,17.0999992 19.9999987,15.9999989 L19.9999987,3.99999964 C19.9999987,2.8999998 19.099999,1.99999976 17.9999988,1.99999976 L14.8299989,1.99999976 L12.9999991,-1.19999999e-07 L6.99999946,-1.19999999e-07 L6.99999946,-1.19999999e-07 Z M9.99999928,14.999999 C7.23999922,14.999999 4.99999958,12.7599993 4.99999958,9.99999928 C4.99999958,7.23999922 7.23999922,4.99999958 9.99999928,4.99999958 C12.7599993,4.99999958 14.999999,7.23999922 14.999999,9.99999928 C14.999999,12.7599993 12.7599993,14.999999 9.99999928,14.999999 L9.99999928,14.999999 Z" id="Fill-3"></path>
                </g>
            </g>
        </g>
    </g>
</svg>