<?xml version="1.0" encoding="UTF-8"?>
<svg width="32px" height="32px" viewBox="0 0 32 32" version="1.1" xmlns="http://www.w3.org/2000/svg" xmlns:xlink="http://www.w3.org/1999/xlink">
    <!-- Generator: Sketch 40.3 (33839) - http://www.bohemiancoding.com/sketch -->
    <title>ic_contractor</title>
    <desc>Created with Sketch.</desc>
    <defs></defs>
    <g id="Icons" stroke="none" stroke-width="1" fill="none" fill-rule="evenodd">
        <g id="Desktop-HD-Copy" transform="translate(-81.000000, -307.000000)"></g>
        <g id="ic_contractor">
            <g id="ic_" transform="translate(4.000000, 4.000000)" stroke-opacity="0.00784313771" stroke="#000000" stroke-width="1.33333335e-11">
                <polygon id="Stroke-1" points="0 0 23.9999985 0 23.9999985 23.9999985 0 23.9999985"></polygon>
            </g>
            <path d="M14.1923882,18 L22.747965,18 L26,18 C26,18 23,16 23,16 C23,14.2315178 22.4261648,12.5970621 21.4545345,11.2726727 L21.1975678,9.9878391 C21.0887433,9.44371665 20.5577294,8.91154587 20.0121609,8.80243218 L16.9878391,8.19756782 C16.8899426,8.17798852 16.7952962,8.17341808 16.7058993,8.18227638 C16.1562123,8.06288771 15.5854502,8 15,8 C10.581722,8 7,11.581722 7,16 C7,16 6,18 6,18 L9.94974747,18 L7.70385237,20.2458951 C7.32220338,20.6275441 7.31625215,21.2659996 7.70636896,21.6561164 L8.41495139,22.3646989 C8.80831222,22.7580597 9.43644578,22.7559424 9.82517271,22.3672154 L14.1923882,18 Z" id="Combined-Shape" fill="#000000"></path>
        </g>
    </g>
</svg>