<?xml version="1.0" encoding="UTF-8"?>
<svg width="32px" height="32px" viewBox="0 0 32 32" version="1.1" xmlns="http://www.w3.org/2000/svg" xmlns:xlink="http://www.w3.org/1999/xlink">
    <!-- Generator: Sketch 40.3 (33839) - http://www.bohemiancoding.com/sketch -->
    <title>ic_call</title>
    <desc>Created with Sketch.</desc>
    <defs></defs>
    <g id="Icons" stroke="none" stroke-width="1" fill="none" fill-rule="evenodd">
        <g id="Desktop-HD" transform="translate(-81.000000, -363.000000)"></g>
        <g id="ic_call">
            <g id="Page-1" transform="translate(4.000000, 4.000000)">
                <polygon id="Stroke-1" stroke-opacity="0.00784313771" stroke="#000000" stroke-width="1.33333335e-11" points="0 0 23.9999985 0 23.9999985 23.9999985 0 23.9999985"></polygon>
                <path d="M6.61999948,10.7899993 C8.05999898,13.619999 10.3799995,15.9299993 13.2099992,17.38 L15.4099989,15.1800003 C15.6799994,14.9099999 16.0799989,14.8200007 16.4299993,14.9400005 C17.55,15.3100004 18.7599991,15.5100002 19.9999988,15.5100002 C20.549998,15.5100002 20.9999987,15.9599999 20.9999987,16.5100011 L20.9999987,19.9999988 C20.9999987,20.549998 20.549998,20.9999987 19.9999988,20.9999987 C10.609999,20.9999987 2.99999982,13.3899985 2.99999982,3.99999976 C2.99999982,3.44999983 3.44999983,2.99999982 3.99999976,2.99999982 L7.49999955,2.99999982 C8.04999971,2.99999982 8.49999949,3.44999983 8.49999949,3.99999976 C8.49999949,5.24999968 8.69999928,6.44999941 9.06999915,7.56999924 C9.1799988,7.91999911 9.09999887,8.30999896 8.81999916,8.58999963 L6.61999948,10.7899993 L6.61999948,10.7899993 Z" id="Fill-2" fill="#000000"></path>
            </g>
        </g>
    </g>
</svg>