<?xml version="1.0" encoding="UTF-8"?>
<svg width="32px" height="32px" viewBox="0 0 32 32" version="1.1" xmlns="http://www.w3.org/2000/svg" xmlns:xlink="http://www.w3.org/1999/xlink">
    <!-- Generator: Sketch 40.3 (33839) - http://www.bohemiancoding.com/sketch -->
    <title>ic_connections</title>
    <desc>Created with Sketch.</desc>
    <defs></defs>
    <g id="Icons" stroke="none" stroke-width="1" fill="none" fill-rule="evenodd">
        <g id="Desktop-HD" transform="translate(-777.000000, -923.000000)"></g>
        <g id="ic_connections">
            <g id="Page-1" transform="translate(4.000000, 4.000000)">
                <polygon id="Stroke-1" stroke-opacity="0.00784313771" stroke="#000000" stroke-width="1.33333335e-11" points="0 0 23.9999985 0 23.9999985 23.9999985 0 23.9999985"></polygon>
                <path d="M1.99999988,19.9999988 L21.9999987,19.9999988 L21.9999987,15.999999 L1.99999988,15.999999 L1.99999988,19.9999988 L1.99999988,19.9999988 Z M3.99999976,16.999999 L5.99999964,16.999999 L5.99999964,18.9999989 L3.99999976,18.9999989 L3.99999976,16.999999 L3.99999976,16.999999 Z M1.99999988,3.99999976 L1.99999988,7.99999952 L21.9999987,7.99999952 L21.9999987,3.99999976 L1.99999988,3.99999976 L1.99999988,3.99999976 Z M5.99999964,6.99999958 L3.99999976,6.99999958 L3.99999976,4.9999997 L5.99999964,4.9999997 L5.99999964,6.99999958 L5.99999964,6.99999958 Z M1.99999988,13.9999992 L21.9999987,13.9999992 L21.9999987,9.9999994 L1.99999988,9.9999994 L1.99999988,13.9999992 L1.99999988,13.9999992 Z M3.99999976,10.9999993 L5.99999964,10.9999993 L5.99999964,12.9999992 L3.99999976,12.9999992 L3.99999976,10.9999993 L3.99999976,10.9999993 Z" id="Fill-2" fill="#000003"></path>
            </g>
        </g>
    </g>
</svg>