<?xml version="1.0" encoding="UTF-8"?>
<svg width="32px" height="32px" viewBox="0 0 32 32" version="1.1" xmlns="http://www.w3.org/2000/svg" xmlns:xlink="http://www.w3.org/1999/xlink">
    <!-- Generator: Sketch 40.3 (33839) - http://www.bohemiancoding.com/sketch -->
    <title>ic_detail</title>
    <desc>Created with Sketch.</desc>
    <defs></defs>
    <g id="Icons" stroke="none" stroke-width="1" fill="none" fill-rule="evenodd">
        <g id="Desktop-HD" transform="translate(-545.000000, -419.000000)"></g>
        <g id="ic_detail">
            <g id="Page-1" transform="translate(4.000000, 4.000000)">
                <polygon id="Stroke-1" stroke-opacity="0.00784313771" stroke="#000000" stroke-width="1.33333335e-11" points="0 0 23.9999985 0 23.9999985 23.9999985 0 23.9999985"></polygon>
                <path d="M18.9999989,1.99999988 L14.8199987,1.99999988 C14.3999987,0.839999983 13.2999993,0 11.9999993,0 C10.6999992,0 9.5999998,0.839999983 9.17999975,1.99999988 L4.9999997,1.99999988 C3.89999986,1.99999988 2.99999982,2.89999992 2.99999982,3.99999976 L2.99999982,19.9999988 C2.99999982,21.099999 3.89999986,21.9999987 4.9999997,21.9999987 L18.9999989,21.9999987 C20.0999991,21.9999987 20.9999987,21.099999 20.9999987,19.9999988 L20.9999987,3.99999976 C20.9999987,2.89999992 20.0999991,1.99999988 18.9999989,1.99999988 L18.9999989,1.99999988 Z M11.9999993,1.99999988 C12.5499993,1.99999988 12.9999992,2.44999989 12.9999992,2.99999982 C12.9999992,3.54999974 12.5499993,3.99999976 11.9999993,3.99999976 C11.4499991,3.99999976 10.9999993,3.54999974 10.9999993,2.99999982 C10.9999993,2.44999989 11.4499991,1.99999988 11.9999993,1.99999988 L11.9999993,1.99999988 Z M18.9999989,19.9999988 L4.9999997,19.9999988 L4.9999997,3.99999976 L6.99999958,3.99999976 L6.99999958,6.99999958 L16.999999,6.99999958 L16.999999,3.99999976 L18.9999989,3.99999976 L18.9999989,19.9999988 L18.9999989,19.9999988 Z M13.9999992,16.999999 L6.99999958,16.999999 L6.99999958,14.9999991 L13.9999992,14.9999991 L13.9999992,16.999999 L13.9999992,16.999999 Z M16.999999,13.9999992 L6.99999958,13.9999992 L6.99999958,11.9999993 L16.999999,11.9999993 L16.999999,13.9999992 L16.999999,13.9999992 Z M16.999999,10.9999995 L6.99999958,10.9999995 L6.99999958,8.99999958 L16.999999,8.99999958 L16.999999,10.9999995 L16.999999,10.9999995 Z" id="Fill-2" fill="#000000"></path>
            </g>
        </g>
    </g>
</svg>