<?xml version="1.0" encoding="UTF-8"?>
<svg width="32px" height="32px" viewBox="0 0 32 32" version="1.1" xmlns="http://www.w3.org/2000/svg" xmlns:xlink="http://www.w3.org/1999/xlink">
    <!-- Generator: Sketch 40.3 (33839) - http://www.bohemiancoding.com/sketch -->
    <title>ic_direct_purchase</title>
    <desc>Created with Sketch.</desc>
    <defs></defs>
    <g id="Icons" stroke="none" stroke-width="1" fill="none" fill-rule="evenodd">
        <g id="Desktop-HD-Copy" transform="translate(-81.000000, -475.000000)">
            <g id="Page-1" transform="translate(88.000000, 483.000000)">
                <polygon id="Stroke-1" stroke-opacity="0.00784313771" stroke="#000000" stroke-width="1.33333335e-11" points="0 0 18 0 18 16 0 16"></polygon>
                <path d="M9.55384665,7.21250033 C8.03905381,6.76625013 7.03550355,6.5912503 7.03550355,5.56750023 C7.03550355,4.8412503 7.71716017,4.15000033 9.02366873,4.15000033 C10.5289943,4.15000033 11.0118347,4.92000043 11.0118347,5.84750038 L12.8106511,5.84750038 C12.8106511,4.28125041 11.7029586,3.14375045 9.97041432,2.83750033 L9.97041432,1 L8.07692315,1 L8.07692315,2.8462499 C6.58106519,3.12624984 5.2366864,4.04500001 5.2366864,5.5762496 C5.2366864,7.5449996 6.92189328,8.02624976 9.02366873,8.65625 C10.8035505,9.18999965 11.1538463,9.56624991 11.1538463,10.4850001 C11.1538463,11.2724997 10.5195267,11.8499996 9.02366873,11.8499996 C7.88757421,11.8499996 6.89349117,11.1149995 6.89349117,10.0475001 L5,10.0475001 C5,11.6925002 6.30650901,12.8474999 8.07692315,13.1624996 L8.07692315,15 L9.97041432,15 L9.97041432,13.1887503 C11.9017752,12.9350003 13,11.8850004 13,10.4762499 C13,8.84000003 12.1100595,7.96500003 9.55384575,7.21250033 L9.55384665,7.21250033 L9.55384665,7.21250033 Z" id="Fill-2" fill="#000000"></path>
            </g>
        </g>
        <g id="ic_direct_purchase">
            <g id="Page-1" transform="translate(4.000000, 4.000000)">
                <polygon id="Stroke-1" stroke-opacity="0.00784313771" stroke="#000000" stroke-width="1.33333335e-11" points="0 0 23.9999985 0 23.9999985 23.9999985 0 23.9999985"></polygon>
                <path d="M11.9999993,1.99999988 C6.47999962,1.99999988 1.99999988,6.47999962 1.99999988,11.9999993 C1.99999988,17.5199993 6.47999962,21.9999987 11.9999993,21.9999987 C17.5199993,21.9999987 21.9999987,17.5199993 21.9999987,11.9999993 C21.9999987,6.47999915 17.5199993,1.99999988 11.9999993,1.99999988 L11.9999993,1.99999988 Z M11.9999993,19.9999988 C7.58999969,19.9999988 3.99999976,16.4099988 3.99999976,11.9999993 C3.99999976,7.58999969 7.58999969,3.99999976 11.9999993,3.99999976 C16.4099988,3.99999976 19.9999988,7.58999969 19.9999988,11.9999993 C19.9999988,16.4099988 16.4099988,19.9999988 11.9999993,19.9999988 L11.9999993,19.9999988 Z" id="Fill-2" fill="#000000"></path>
            </g>
        </g>
    </g>
</svg>