<?xml version="1.0" encoding="UTF-8"?>
<svg width="32px" height="32px" viewBox="0 0 32 32" version="1.1" xmlns="http://www.w3.org/2000/svg" xmlns:xlink="http://www.w3.org/1999/xlink">
    <!-- Generator: Sketch 40.3 (33839) - http://www.bohemiancoding.com/sketch -->
    <title>ic_duration</title>
    <desc>Created with Sketch.</desc>
    <defs></defs>
    <g id="Icons" stroke="none" stroke-width="1" fill="none" fill-rule="evenodd">
        <g id="Desktop-HD" transform="translate(-1009.000000, -587.000000)"></g>
        <g id="ic_duration">
            <g id="Page-1" transform="translate(4.000000, 4.000000)" stroke-opacity="0.00784313771" stroke="#000000" stroke-width="1.33333335e-11">
                <polygon id="Stroke-1" points="0 0 23.9999985 0 23.9999985 23.9999985 0 23.9999985"></polygon>
            </g>
            <g id="Page-1-Copy-10" transform="translate(4.000000, 4.000000)">
                <polygon id="Stroke-1" stroke-opacity="0.00784313771" stroke="#000000" stroke-width="1.33333335e-11" points="0 0 23.9999985 0 23.9999985 23.9999985 0 23.9999985"></polygon>
                <path d="M14.9999991,0.99999994 L8.99999946,0.99999994 L8.99999946,2.99999982 L14.9999991,2.99999982 L14.9999991,0.99999994 L14.9999991,0.99999994 Z M19.0299976,7.38999942 L20.4499976,5.96999943 C20.0199973,5.4599997 19.549998,4.97999924 19.0399979,4.55999967 L17.6199978,5.97999965 C16.0699986,4.73999949 14.119999,3.99999976 11.9999993,3.99999976 C7.02999931,3.99999976 2.99999982,8.0300002 2.99999982,12.9999992 C2.99999982,17.9699982 7.01999956,21.9999987 11.9999993,21.9999987 C16.9799985,21.9999987 20.9999987,17.9699982 20.9999987,12.9999992 C20.9999987,10.8799994 20.259999,8.92999976 19.0299995,7.38999942 L19.0299976,7.38999942 L19.0299976,7.38999942 Z M11.9999993,20.0196768 C8.13369933,20.0196768 5.00669168,16.880877 5.00669168,12.9999992 C5.00669168,9.11912139 8.13369933,5.98032163 11.9999993,5.98032163 C15.8662991,5.98032163 18.9933069,9.11912044 18.9933069,12.9999992 C18.9933069,16.880877 15.8662991,20.0196768 11.9999993,20.0196768 L11.9999993,20.0196768 Z M15.626177,9.34187619 C14.6255571,8.33244117 13.3170544,7.82340974 11.9999993,7.82340974 L11.9999993,12.9999993 L8.37382144,16.6581223 C10.3750613,18.6769924 13.6249372,18.6769924 15.6347296,16.6581223 C17.6359695,14.6392523 17.6359695,11.3607462 15.626177,9.34187619 L15.626177,9.34187619 Z" id="Fill-2" fill="#000000"></path>
            </g>
        </g>
    </g>
</svg>