<?xml version="1.0" encoding="UTF-8"?>
<svg width="32px" height="32px" viewBox="0 0 32 32" version="1.1" xmlns="http://www.w3.org/2000/svg" xmlns:xlink="http://www.w3.org/1999/xlink">
    <!-- Generator: Sketch 41.1 (35376) - http://www.bohemiancoding.com/sketch -->
    <title>ic_email</title>
    <desc>Created with Sketch.</desc>
    <defs></defs>
    <g id="Icons" stroke="none" stroke-width="1" fill="none" fill-rule="evenodd">
        <g id="Desktop-HD" transform="translate(-81.000000, -419.000000)"></g>
        <g id="ic_email">
            <g id="Page-1" transform="translate(4.000000, 4.000000)">
                <polygon id="Stroke-1" stroke-opacity="0.00784313771" stroke="#000000" stroke-width="1.33333335e-11" points="0 0 23.9999985 0 23.9999985 23.9999985 0 23.9999985"></polygon>
                <path d="M19.9999988,3.99999976 L3.99999976,3.99999976 C2.89999992,3.99999976 2.00999987,4.8999998 2.00999987,5.99999964 L1.99999988,17.9999989 C1.99999988,19.0999992 2.89999992,19.9999988 3.99999976,19.9999988 L19.9999988,19.9999988 C21.099999,19.9999988 21.9999987,19.0999992 21.9999987,17.9999989 L21.9999987,5.99999964 C21.9999987,4.8999998 21.099999,3.99999976 19.9999988,3.99999976 L19.9999988,3.99999976 Z M19.9999988,7.99999952 L11.9999993,12.9999992 L3.99999976,7.99999952 L3.99999976,5.99999964 L11.9999993,10.9999993 L19.9999988,5.99999964 L19.9999988,7.99999952 L19.9999988,7.99999952 Z" id="Fill-2" fill="#000000"></path>
            </g>
        </g>
    </g>
</svg>