<?xml version="1.0" encoding="UTF-8"?>
<svg width="32px" height="32px" viewBox="0 0 32 32" version="1.1" xmlns="http://www.w3.org/2000/svg" xmlns:xlink="http://www.w3.org/1999/xlink">
    <!-- Generator: Sketch 40.3 (33839) - http://www.bohemiancoding.com/sketch -->
    <title>ic_flashlight</title>
    <desc>Created with Sketch.</desc>
    <defs></defs>
    <g id="Icons" stroke="none" stroke-width="1" fill="none" fill-rule="evenodd">
        <g id="Desktop-HD" transform="translate(-1241.000000, -699.000000)"></g>
        <g id="ic_flashlight">
            <g id="Page-1" transform="translate(4.000000, 4.000000)">
                <polygon id="Stroke-1" stroke-opacity="0.00784313771" stroke="#000000" stroke-width="1.33333335e-11" points="0 0 23.9999985 0 23.9999985 23.9999985 0 23.9999985"></polygon>
                <path d="M5.99999964,13.9999992 L8.99999946,16.999999 L8.99999946,21.9999987 L14.9999991,21.9999987 L14.9999991,16.999999 L17.9999989,13.9999992 L17.9999989,8.99999946 L5.99999964,8.99999946 L5.99999964,13.9999992 L5.99999964,13.9999992 Z M10.9999993,1.99999988 L12.9999992,1.99999988 L12.9999992,4.9999997 L10.9999993,4.9999997 L10.9999993,1.99999988 L10.9999993,1.99999988 Z M3.49999979,5.87499965 L4.91399974,4.45999976 L7.03399949,6.58199938 L5.61999954,7.99699973 L3.49999979,5.87499965 L3.49999979,5.87499965 Z M16.959998,6.58499963 L19.0829971,4.46499988 L20.4969966,5.87899983 L18.3749989,7.99999952 L16.959998,6.58499963 L16.959998,6.58499963 Z" id="Fill-2" fill="#000003"></path>
            </g>
        </g>
    </g>
</svg>