<?xml version="1.0" encoding="UTF-8"?>
<svg width="32px" height="32px" viewBox="0 0 32 32" version="1.1" xmlns="http://www.w3.org/2000/svg" xmlns:xlink="http://www.w3.org/1999/xlink">
    <!-- Generator: Sketch 40.3 (33839) - http://www.bohemiancoding.com/sketch -->
    <title>ic_feedback_alt</title>
    <desc>Created with Sketch.</desc>
    <defs></defs>
    <g id="Icons" stroke="none" stroke-width="1" fill="none" fill-rule="evenodd">
        <g id="Desktop-HD" transform="translate(-777.000000, -363.000000)"></g>
        <g id="ic_feedback_alt">
            <g id="Page-1-Copy-6" transform="translate(4.000000, 4.000000)">
                <polygon id="Stroke-1" stroke-opacity="0.00784313771" stroke="#000000" stroke-width="1.33333335e-11" points="0 0 23.9999985 0 23.9999985 23.9999985 0 23.9999985"></polygon>
                <path d="M19.9999988,1.99999988 L3.99999976,1.99999988 C2.89999992,1.99999988 2.00999987,2.89999992 2.00999987,3.99999976 L1.99999988,21.9999987 L5.99999964,17.9999989 L19.9999988,17.9999989 C21.099999,17.9999989 21.9999987,17.0999993 21.9999987,15.999999 L21.9999987,3.99999976 C21.9999987,2.89999992 21.099999,1.99999988 19.9999988,1.99999988 L19.9999988,1.99999988 Z M5.99999964,8.99999946 L17.9999989,8.99999946 L17.9999989,10.9999993 L5.99999964,10.9999993 L5.99999964,8.99999946 L5.99999964,8.99999946 Z M13.9999992,13.9999992 L5.99999964,13.9999992 L5.99999964,11.9999993 L13.9999992,11.9999993 L13.9999992,13.9999992 L13.9999992,13.9999992 Z M17.9999989,7.99999952 L5.99999964,7.99999952 L5.99999964,5.99999964 L17.9999989,5.99999964 L17.9999989,7.99999952 L17.9999989,7.99999952 Z" id="Fill-2" fill="#000000"></path>
            </g>
        </g>
    </g>
</svg>