<?xml version="1.0" encoding="UTF-8"?>
<svg width="32px" height="32px" viewBox="0 0 32 32" version="1.1" xmlns="http://www.w3.org/2000/svg" xmlns:xlink="http://www.w3.org/1999/xlink">
    <!-- Generator: Sketch 40.3 (33839) - http://www.bohemiancoding.com/sketch -->
    <title>ic_gps_alt</title>
    <desc>Created with Sketch.</desc>
    <defs></defs>
    <g id="Icons" stroke="none" stroke-width="1" fill="none" fill-rule="evenodd">
        <g id="Desktop-HD-Copy" transform="translate(-545.000000, -83.000000)"></g>
        <g id="ic_gps_alt">
            <g id="ic_" transform="translate(4.000000, 4.000000)" stroke-opacity="0.00784313771" stroke="#000000" stroke-width="1.33333335e-11">
                <polygon id="Stroke-1" points="0 0 23.9999985 0 23.9999985 23.9999985 0 23.9999985"></polygon>
            </g>
            <g id="Page-1" transform="translate(4.000000, 4.000000)">
                <polygon id="Stroke-1" stroke-opacity="0.00784313771" stroke="#000000" stroke-width="1.33333335e-11" points="0 0 23.9999985 0 23.9999985 23.9999985 0 23.9999985"></polygon>
                <path d="M20.9399992,10.9999993 C20.4800002,6.82999951 17.169999,3.51999977 12.9999992,3.05999976 L12.9999992,0.99999994 L10.9999993,0.99999994 L10.9999993,3.05999976 C6.82999951,3.51999977 3.51999977,6.82999951 3.05999976,10.9999993 L0.99999994,10.9999993 L0.99999994,12.9999992 L3.05999976,12.9999992 C3.51999977,17.169999 6.82999951,20.4799983 10.9999993,20.9399992 L10.9999993,22.9999986 L12.9999992,22.9999986 L12.9999992,20.9399992 C17.169999,20.4800002 20.4799983,17.169999 20.9399992,12.9999992 L22.9999986,12.9999992 L22.9999986,10.9999993 L20.9399992,10.9999993 L20.9399992,10.9999993 Z M11.9999993,18.9999989 C8.12999962,18.9999989 4.9999997,15.8699988 4.9999997,11.9999993 C4.9999997,8.12999962 8.12999962,4.9999997 11.9999993,4.9999997 C15.8699988,4.9999997 18.9999989,8.12999962 18.9999989,11.9999993 C18.9999989,15.8699988 15.8699988,18.9999989 11.9999993,18.9999989 L11.9999993,18.9999989 Z" id="Fill-2" fill="#000000"></path>
            </g>
        </g>
    </g>
</svg>