<?xml version="1.0" encoding="UTF-8"?>
<svg width="32px" height="32px" viewBox="0 0 32 32" version="1.1" xmlns="http://www.w3.org/2000/svg" xmlns:xlink="http://www.w3.org/1999/xlink">
    <!-- Generator: Sketch 40.3 (33839) - http://www.bohemiancoding.com/sketch -->
    <title>ic_image</title>
    <desc>Created with Sketch.</desc>
    <defs></defs>
    <g id="Icons" stroke="none" stroke-width="1" fill="none" fill-rule="evenodd">
        <g id="Desktop-HD" transform="translate(-545.000000, -755.000000)"></g>
        <g id="ic_image">
            <g id="Page-1" transform="translate(4.000000, 4.000000)" stroke-opacity="0.00784313771" stroke="#000000" stroke-width="1.33333335e-11">
                <polygon id="Stroke-1" points="0 0 23.9999985 0 23.9999985 23.9999985 0 23.9999985"></polygon>
            </g>
            <g id="documents-a" transform="translate(4.000000, 4.000000)">
                <polygon id="Stroke-1" stroke-opacity="0.00784313771" stroke="#000000" stroke-width="1.33333335e-11" points="0 0 23.9999985 0 23.9999985 23.9999985 0 23.9999985"></polygon>
                <path d="M5.99999964,1.99999988 C4.8999998,1.99999988 4.00999998,2.89999992 4.00999998,3.99999976 L3.99999976,19.9999988 C3.99999976,21.099999 4.88999957,21.9999987 5.98999941,21.9999987 L17.9999989,21.9999987 C19.0999992,21.9999987 19.9999988,21.099999 19.9999988,19.9999988 L19.9999988,7.99999952 L13.9999992,1.99999988 L5.99999964,1.99999988 L5.99999964,1.99999988 Z" id="Fill-2" fill="#F6A623"></path>
                <polygon id="Rectangle" fill="#FFFFFF" opacity="0.900000036" transform="translate(12.000000, 15.500000) scale(-1, 1) translate(-12.000000, -15.500000) " points="10 12 13 17 15 15 17 19 7 19"></polygon>
                <circle id="Oval" fill="#FFFFFF" opacity="0.900000036" cx="9.5" cy="11.5" r="1.5"></circle>
                <polygon id="Path" fill="#F9D290" points="14 8 14 2 20 8"></polygon>
                <polygon id="Path" fill="#000000" opacity="0.400000006" transform="translate(17.000000, 11.000000) scale(-1, -1) translate(-17.000000, -11.000000) " points="14 14 14 8 20 14"></polygon>
            </g>
        </g>
    </g>
</svg>