<?xml version="1.0" encoding="UTF-8"?>
<svg width="32px" height="32px" viewBox="0 0 32 32" version="1.1" xmlns="http://www.w3.org/2000/svg" xmlns:xlink="http://www.w3.org/1999/xlink">
    <!-- Generator: Sketch 40.3 (33839) - http://www.bohemiancoding.com/sketch -->
    <title>ic_labour_alt</title>
    <desc>Created with Sketch.</desc>
    <defs></defs>
    <g id="Icons" stroke="none" stroke-width="1" fill="none" fill-rule="evenodd">
        <g id="Desktop-HD" transform="translate(-1241.000000, -363.000000)"></g>
        <g id="ic_labour_alt">
            <g id="Page-1-Copy-12" transform="translate(4.000000, 4.000000)">
                <polygon id="Stroke-1" stroke-opacity="0.00784313771" stroke="#000000" stroke-width="1.33333335e-11" points="0 0 23.9999985 0 23.9999985 23.9999985 0 23.9999985"></polygon>
                <g id="Group-4" transform="translate(2.000000, 2.000000)" fill="#000000">
                    <path d="M9.98999898,-1.19999996e-07 C4.46999987,-1.19999996e-07 -1.19999982e-07,4.47999962 -1.19999982e-07,9.99999928 C-1.19999982e-07,15.5199993 4.46999987,19.9999987 9.98999898,19.9999987 C15.5199993,19.9999987 19.9999987,15.5199993 19.9999987,9.99999928 C19.9999987,4.47999915 15.5199993,-1.19999996e-07 9.98999898,-1.19999996e-07 Z M10.4999992,4.99999958 L8.99999934,4.99999958 L8.99999934,10.9999992 L14.249999,14.1499986 L14.999999,12.9199991 L10.4999992,10.2499993 L10.4999992,4.99999958 Z" id="Combined-Shape"></path>
                </g>
            </g>
        </g>
    </g>
</svg>