<?xml version="1.0" encoding="UTF-8"?>
<svg width="32px" height="32px" viewBox="0 0 32 32" version="1.1" xmlns="http://www.w3.org/2000/svg" xmlns:xlink="http://www.w3.org/1999/xlink">
    <!-- Generator: Sketch 40.3 (33839) - http://www.bohemiancoding.com/sketch -->
    <title>ic_multi_doc</title>
    <desc>Created with Sketch.</desc>
    <defs></defs>
    <g id="Icons" stroke="none" stroke-width="1" fill="none" fill-rule="evenodd">
        <g id="Desktop-HD" transform="translate(-1241.000000, -755.000000)"></g>
        <g id="ic_multi_doc">
            <g id="Page-1" transform="translate(4.000000, 4.000000)" stroke-opacity="0.00784313771" stroke="#000000" stroke-width="1.33333335e-11">
                <polygon id="Stroke-1" points="0 0 23.9999985 0 23.9999985 23.9999985 0 23.9999985"></polygon>
            </g>
            <g id="documents-a" transform="translate(4.000000, 4.000000)">
                <polygon id="Stroke-1" stroke-opacity="0.00784313771" stroke="#000000" stroke-width="1.33333335e-11" points="0 0 23.9999985 0 23.9999985 23.9999985 0 23.9999985"></polygon>
                <path d="M6.01076947,4.11764708 L6,17.8823529 C6,19.0470591 6.9584614,20 8.14307671,20 L17.8461538,20 C19.0307695,20 20,19.0470591 20,17.8823529 L20,6.23529404 L15.6923078,2 L8.15384618,2 C6.96923088,2 6.01076947,2.95294128 6.01076947,4.11764708 Z" id="Fill-2-Copy" fill="#465767" transform="translate(13.000000, 11.000000) scale(-1, -1) translate(-13.000000, -11.000000) "></path>
                <path d="M4.01000022,5.99999988 L4,19.9999989 C4,21.0999992 4.88999981,21.9999988 5.98999965,21.9999988 L15.9999992,21.9999988 C17.0999994,21.9999988 17.999999,21.0999992 17.999999,19.9999989 L17.999999,7.99999964 L13.9999994,4 L5.99999988,4 C4.90000004,4 4.01000022,4.90000004 4.01000022,5.99999988 Z" id="Fill-2" fill="#A3B6CA"></path>
                <polygon id="Path" fill="#D1DAE4" points="14 8 14 4 18 8"></polygon>
                <polygon id="Path-Copy" fill="#000000" opacity="0.400000006" transform="translate(16.000000, 10.000000) scale(-1, -1) translate(-16.000000, -10.000000) " points="14 12 14 8 18 12"></polygon>
            </g>
        </g>
    </g>
</svg>