<?xml version="1.0" encoding="UTF-8"?>
<svg width="32px" height="32px" viewBox="0 0 32 32" version="1.1" xmlns="http://www.w3.org/2000/svg" xmlns:xlink="http://www.w3.org/1999/xlink">
    <!-- Generator: Sketch 43.2 (39069) - http://www.bohemiancoding.com/sketch -->
    <title>ic_not_synced</title>
    <desc>Created with Sketch.</desc>
    <defs></defs>
    <g id="Icons" stroke="none" stroke-width="1" fill="none" fill-rule="evenodd">
        <g id="Desktop-HD" transform="translate(-777.000000, -643.000000)"></g>
        <g id="ic_not_synced">
            <g id="Page-1" transform="translate(4.000000, 4.000000)" stroke-opacity="0.00784313771" stroke="#000000" stroke-width="1.33333335e-11">
                <polygon id="Stroke-1" points="0 0 23.9999985 0 23.9999985 23.9999985 0 23.9999985"></polygon>
            </g>
            <g id="Page-1" transform="translate(4.000000, 4.000000)">
                <polygon id="Stroke-1" stroke-opacity="0.00784313771" stroke="#000000" stroke-width="1.33333335e-11" points="0 0 23.9999985 0 23.9999985 23.9999985 0 23.9999985"></polygon>
                <path d="M9.9999994,6.34999952 L9.9999994,4.25999996 C9.19999925,4.46999999 8.44999929,4.7999999 7.76999951,5.21999995 L9.22999899,6.6799999 C9.47999897,6.56000002 9.72999896,6.44000014 9.9999994,6.35 L9.9999994,6.34999952 Z M2.85999996,5.40999952 L5.21999995,7.76999951 C4.44999953,8.98999923 3.99999976,10.4399989 3.99999976,11.9999993 C3.99999976,14.2099991 4.90999955,16.1999997 6.35999975,17.6399982 L3.99999976,19.9999988 L9.9999994,19.9999988 L9.9999994,13.9999992 L7.75999975,16.2399987 C6.67999942,15.1499987 5.99999964,13.659999 5.99999964,11.9999993 C5.99999964,10.9999993 6.24999962,10.0599988 6.67999942,9.22999899 L14.7599993,17.3099984 C14.5099993,17.4399976 14.2599993,17.5599983 13.9899989,17.6499985 L13.9899989,19.7399985 C14.789999,19.5299994 15.539999,19.1999976 16.2199983,18.7799976 L18.5799988,21.139998 L19.8499991,19.8699977 L4.13999961,4.13999961 L2.85999996,5.40999952 Z M19.9999988,3.99999976 L13.9999992,3.99999976 L13.9999992,9.9999994 L16.2399987,7.75999975 C17.3199986,8.84999985 17.9999989,10.3399995 17.9999989,11.9999993 C17.9999989,12.9999992 17.7499989,13.9399997 17.3199986,14.7699995 L18.7799976,16.2299985 C19.549998,15.0099993 19.9999988,13.5599996 19.9999988,11.9999993 C19.9999988,9.78999937 19.089999,7.79999972 17.6399982,6.35999975 L19.9999988,3.99999976 Z" id="Fill-2" fill="#000000"></path>
            </g>
        </g>
    </g>
</svg>