<?xml version="1.0" encoding="UTF-8"?>
<svg width="32px" height="32px" viewBox="0 0 32 32" version="1.1" xmlns="http://www.w3.org/2000/svg" xmlns:xlink="http://www.w3.org/1999/xlink">
    <!-- Generator: Sketch 40.3 (33839) - http://www.bohemiancoding.com/sketch -->
    <title>ic_nonstock</title>
    <desc>Created with Sketch.</desc>
    <defs></defs>
    <g id="Icons" stroke="none" stroke-width="1" fill="none" fill-rule="evenodd">
        <g id="Desktop-HD-Copy" transform="translate(-81.000000, -251.000000)"></g>
        <g id="ic_nonstock">
            <g id="ic_" transform="translate(4.000000, 4.000000)" stroke-opacity="0.00784313771" stroke="#000000" stroke-width="1.33333335e-11">
                <polygon id="Stroke-1" points="0 0 23.9999985 0 23.9999985 23.9999985 0 23.9999985"></polygon>
            </g>
            <path d="M6,12 L16,8 L26,12 L26,24 L6,24 L6,12 Z M8,16 L24,16 L24,24 L8,24 L8,16 Z" id="Combined-Shape" fill="#000000"></path>
            <polygon id="Combined-Shape" fill="#000000" points="17.3333333 20 19 18.3333333 17.6666667 17 16 18.6666667 14.3333333 17 13 18.3333333 14.6666667 20 13 21.6666667 14.3333333 23 16 21.3333333 17.6666667 23 19 21.6666667"></polygon>
        </g>
    </g>
</svg>