<?xml version="1.0" encoding="UTF-8"?>
<svg width="32px" height="32px" viewBox="0 0 32 32" version="1.1" xmlns="http://www.w3.org/2000/svg" xmlns:xlink="http://www.w3.org/1999/xlink">
    <!-- Generator: Sketch 40.3 (33839) - http://www.bohemiancoding.com/sketch -->
    <title>ic_pdf</title>
    <desc>Created with Sketch.</desc>
    <defs></defs>
    <g id="Icons" stroke="none" stroke-width="1" fill="none" fill-rule="evenodd">
        <g id="Desktop-HD" transform="translate(-81.000000, -755.000000)"></g>
        <g id="ic_pdf">
            <g id="Page-1" transform="translate(4.000000, 4.000000)" stroke-opacity="0.00784313771" stroke="#000000" stroke-width="1.33333335e-11">
                <polygon id="Stroke-1" points="0 0 23.9999985 0 23.9999985 23.9999985 0 23.9999985"></polygon>
            </g>
            <g id="documents-a" transform="translate(8.000000, 6.000000)">
                <path d="M1.99999964,-1.20000095e-07 C0.899999796,-1.20000095e-07 0.0099999794,0.899999916 0.0099999794,1.99999976 L-2.40000189e-07,17.9999988 C-2.40000189e-07,19.099999 0.889999567,19.9999987 1.98999941,19.9999987 L13.9999989,19.9999987 C15.0999992,19.9999987 15.9999988,19.099999 15.9999988,17.9999988 L15.9999988,5.99999952 L9.99999916,-1.20000095e-07 L1.99999964,-1.20000095e-07 L1.99999964,-1.20000095e-07 Z" id="Fill-2" fill="#B62025"></path>
                <path d="M12.4390084,14.7061537 C12.4390084,14.7061537 11.4540084,14.9221537 10.3950084,13.9951537 C10.3950084,13.9951537 10.5090084,13.9831537 10.6940084,13.9831537 C11.0470084,13.9831537 11.6580084,14.0271537 12.2270084,14.2791537 C12.2270084,14.2791537 12.8420084,14.6521537 12.4390084,14.7061537 L12.4390084,14.7061537 Z M6.21600838,14.0611537 C6.69300838,13.4701537 7.07600838,11.4801537 7.07600838,11.4801537 C7.54500838,12.3661537 8.86600838,13.6371537 8.86600838,13.6371537 L6.21600838,14.0611537 Z M7.03700838,7.92615373 C7.06700838,7.84315373 7.09800838,7.80815373 7.12700838,7.80415373 L7.13700838,7.80415373 C7.23900838,7.81415373 7.32800838,8.17115373 7.32800838,8.17115373 C7.55700838,8.91315373 7.25200838,9.88215373 7.25200838,9.88215373 C6.89500838,8.66115373 7.03700838,7.92615373 7.03700838,7.92615373 L7.03700838,7.92615373 Z M3.87800838,16.3861537 C3.87800838,16.3861537 3.52700838,16.3931537 3.64100838,16.0921537 C3.67200838,16.0091537 3.68300838,15.9701537 3.68300838,15.9541537 C3.85100838,15.7501537 4.33400838,15.2181537 4.99400838,15.0081537 C4.99400838,15.0081537 4.87300838,16.2241537 3.87800838,16.3861537 L3.87800838,16.3861537 Z M12.3710084,13.9171537 C12.3710084,13.9171537 11.2590084,13.5031537 9.73400838,13.5911537 C9.73400838,13.5911537 8.16600838,12.5321537 7.38300838,10.5481537 C7.38300838,10.5481537 8.13000838,9.38815373 7.34000838,7.57215373 C7.34000838,7.57215373 7.08600838,6.98915373 6.80400838,7.00015373 C6.70900838,7.00415373 6.61200838,7.07415373 6.52100838,7.25415373 C6.52100838,7.25415373 5.80400838,8.07415373 6.82400838,10.5371537 C6.82400838,10.5371537 5.81400838,13.8711537 5.19700838,14.5811537 C5.19700838,14.5811537 3.62900838,14.9201537 3.00500838,16.3951537 C3.00500838,16.3951537 2.89600838,17.2901537 3.69500838,17.1651537 C3.69500838,17.1651537 5.37100838,16.7321537 5.87200838,14.8871537 L9.34300838,14.2591537 C9.34300838,14.2591537 12.0360084,15.9731537 12.9530084,14.8741537 C12.9530084,14.8741537 13.2460084,14.4121537 12.3710084,13.9171537 L12.3710084,13.9171537 Z" id="Fill-5" fill="#FEFEFE"></path>
                <polygon id="Path" fill="#DA8F92" points="10 6 10 4.4408921e-16 16 6"></polygon>
                <polygon id="Path" fill="#000000" opacity="0.400000006" transform="translate(13.000000, 9.000000) scale(-1, -1) translate(-13.000000, -9.000000) " points="10 12 10 6 16 12"></polygon>
            </g>
        </g>
    </g>
</svg>