<?xml version="1.0" encoding="UTF-8"?>
<svg width="32px" height="32px" viewBox="0 0 32 32" version="1.1" xmlns="http://www.w3.org/2000/svg" xmlns:xlink="http://www.w3.org/1999/xlink">
    <!-- Generator: Sketch 40.3 (33839) - http://www.bohemiancoding.com/sketch -->
    <title>ic_refresh</title>
    <desc>Created with Sketch.</desc>
    <defs></defs>
    <g id="Icons" stroke="none" stroke-width="1" fill="none" fill-rule="evenodd">
        <g id="Desktop-HD" transform="translate(-1241.000000, -475.000000)"></g>
        <g id="ic_refresh">
            <g id="Page-1" transform="translate(4.000000, 4.000000)">
                <polygon id="Stroke-1" stroke-opacity="0.00784313771" stroke="#000000" stroke-width="1.33333335e-11" points="0 0 23.9999985 0 23.9999985 23.9999985 0 23.9999985"></polygon>
                <path d="M18.9999989,7.99999952 L14.9999991,11.9999993 L17.9999989,11.9999993 C17.9999989,15.3099985 15.3099985,17.9999989 11.9999993,17.9999989 C10.989999,17.9999989 10.0299991,17.7499989 9.19999925,17.2999982 L7.73999931,18.7599972 C8.96999972,19.5399997 10.4299997,19.9999988 11.9999993,19.9999988 C16.419999,19.9999988 19.9999988,16.419999 19.9999988,11.9999993 L22.9999986,11.9999993 L18.9999989,7.99999952 L18.9999989,7.99999952 Z M5.99999964,11.9999993 C5.99999964,8.69000001 8.69000001,5.99999964 11.9999993,5.99999964 C13.0099994,5.99999964 13.9699994,6.24999963 14.7999992,6.6999994 L16.2599992,5.23999946 C15.0299988,4.45999976 13.5699988,3.99999976 11.9999993,3.99999976 C7.57999947,3.99999976 3.99999976,7.57999947 3.99999976,11.9999993 L0.99999994,11.9999993 L4.9999997,15.999999 L8.99999946,11.9999993 L5.99999964,11.9999993 L5.99999964,11.9999993 Z" id="Fill-2" fill="#000003"></path>
            </g>
        </g>
    </g>
</svg>