<?xml version="1.0" encoding="UTF-8"?>
<svg width="32px" height="32px" viewBox="0 0 32 32" version="1.1" xmlns="http://www.w3.org/2000/svg" xmlns:xlink="http://www.w3.org/1999/xlink">
    <!-- Generator: Sketch 40.3 (33839) - http://www.bohemiancoding.com/sketch -->
    <title>ic_stop_timer</title>
    <desc>Created with Sketch.</desc>
    <defs></defs>
    <g id="Icons" stroke="none" stroke-width="1" fill="none" fill-rule="evenodd">
        <g id="Desktop-HD" transform="translate(-313.000000, -251.000000)"></g>
        <g id="ic_stop_timer">
            <g id="Page-1" transform="translate(4.000000, 4.000000)" stroke-opacity="0.00784313771" stroke="#000000" stroke-width="1.33333335e-11">
                <polygon id="Stroke-1" points="0 0 23.9999985 0 23.9999985 23.9999985 0 23.9999985"></polygon>
            </g>
            <path d="M14,24.747965 C10.5495456,23.8598794 8,20.7276789 8,17 C8,12.581722 11.581722,9 16,9 C17.5933675,9 19.0779371,9.46581957 20.3249557,10.2687057 L21.6976009,8.89606044 L23.1308262,10.3292857 L21.8822593,11.5778526 C22.5302655,12.2804931 23.0539735,13.0995091 23.418483,14 L21.1973068,14 C20.1598786,12.2065959 18.2208471,11 16,11 C12.6862915,11 10,13.6862915 10,17 C10,19.6124377 11.6696153,21.8349158 14,22.6585886 L14,24.747965 Z M13,6 L19,6 L19,8 L13,8 L13,6 Z M16,16 L26,16 L26,26 L16,26 L16,16 Z" id="Combined-Shape" fill="#000000"></path>
        </g>
    </g>
</svg>