<?xml version="1.0" encoding="UTF-8"?>
<svg width="32px" height="32px" viewBox="0 0 32 32" version="1.1" xmlns="http://www.w3.org/2000/svg" xmlns:xlink="http://www.w3.org/1999/xlink">
    <!-- Generator: Sketch 40.3 (33839) - http://www.bohemiancoding.com/sketch -->
    <title>ic_switch_connection</title>
    <desc>Created with Sketch.</desc>
    <defs></defs>
    <g id="Icons" stroke="none" stroke-width="1" fill="none" fill-rule="evenodd">
        <g id="Desktop-HD" transform="translate(-1009.000000, -923.000000)"></g>
        <g id="ic_switch_connection">
            <g id="Page-1" transform="translate(4.000000, 4.000000)" stroke-opacity="0.00784313771" stroke="#000000" stroke-width="1.33333335e-11">
                <polygon id="Stroke-1" points="0 0 23.9999985 0 23.9999985 23.9999985 0 23.9999985"></polygon>
            </g>
            <g id="Page-1" transform="translate(4.000000, 4.000000)">
                <polygon id="Stroke-1" stroke-opacity="0.00784313771" stroke="#000000" stroke-width="1.33333335e-11" points="0 0 23.9999985 0 23.9999985 23.9999985 0 23.9999985"></polygon>
                <path d="M6,16.9999988 L15.9999987,16.9999988 L15.9999987,12.999999 L6,12.999999 L6,11 L1.99999988,15 L6,19 L6,16.9999988 Z M7.99999976,13.999999 L9.99999964,13.999999 L9.99999964,15.9999989 L7.99999976,15.9999989 L7.99999976,13.999999 Z M18,13 L21.9999987,9 L18,5 L18,6.9999994 L7.99999988,6.9999994 L7.99999988,10.9999992 L18,10.9999992 L18,13 Z M11.9999996,7.99999934 L11.9999996,9.99999922 L9.99999976,9.99999922 L9.99999976,7.99999934 L11.9999996,7.99999934 Z" id="Fill-2" fill="#000003"></path>
            </g>
        </g>
    </g>
</svg>