<?xml version="1.0" encoding="UTF-8"?>
<svg width="32px" height="32px" viewBox="0 0 32 32" version="1.1" xmlns="http://www.w3.org/2000/svg" xmlns:xlink="http://www.w3.org/1999/xlink">
    <!-- Generator: Sketch 41.1 (35376) - http://www.bohemiancoding.com/sketch -->
    <title>ic_submit</title>
    <desc>Created with Sketch.</desc>
    <defs></defs>
    <g id="Icons" stroke="none" stroke-width="1" fill="none" fill-rule="evenodd">
        <g id="Desktop-HD" transform="translate(-777.000000, -531.000000)"></g>
        <g id="ic_submit">
            <g id="Page-1" transform="translate(4.000000, 4.000000)" stroke-opacity="0.00784313771" stroke="#000000" stroke-width="1.33333335e-11">
                <polygon id="Stroke-1" points="0 0 23.9999985 0 23.9999985 23.9999985 0 23.9999985"></polygon>
            </g>
            <g id="Page-1-Copy-13" transform="translate(4.000000, 4.000000)">
                <polygon id="Stroke-1" stroke-opacity="0.00784313771" stroke="#000000" stroke-width="1.33333335e-11" points="0 0 23.9999985 0 23.9999985 23.9999985 0 23.9999985"></polygon>
                <path d="M17.999999,2 L13.8199989,2 C13.3999989,0.840000033 12.2999995,0 10.9999995,0 C9.69999934,0 8.59999998,0.840000033 8.17999993,2 L3.99999988,2 C2.90000004,2 2,2.90000009 2,4 L2,20 C2,21.1000003 2.90000004,22 3.99999988,22 L17.999999,22 C19.0999993,22 19.9999989,21.1000003 19.9999989,20 L19.9999989,4 C19.9999989,2.90000009 19.0999993,2 17.999999,2 Z M17.999999,5.0000003 L19.9999989,5.0000003 L19.9999989,20.0000003 L17.999999,20.0000003 L17.999999,5.0000003 Z M10.9999995,2 C11.5499995,2 11.9999994,2.45000004 11.9999994,3 C11.9999994,3.54999995 11.5499995,4 10.9999995,4 C10.4499993,4 9.99999952,3.54999995 9.99999952,3 C9.99999952,2.45000004 10.4499993,2 10.9999995,2 Z M17.999999,20 L3.99999988,20 L3.99999988,4 L5.99999976,4 L5.99999976,7 L15.9999992,7 L15.9999992,4 L17.999999,4 L17.999999,20 Z M22,12 L20,12 L20,14.9999992 L16,14.9999992 L16,12 L14,12 L18,7 L22,12 Z M13.9999992,17 L13.9999992,17.999999 L21.9999992,17.999999 L21.9999992,17 L13.9999992,17 L13.9999992,17 Z" id="Combined-Shape" fill="#000003"></path>
            </g>
        </g>
    </g>
</svg>