<?xml version="1.0" encoding="UTF-8"?>
<svg width="32px" height="32px" viewBox="0 0 32 32" version="1.1" xmlns="http://www.w3.org/2000/svg" xmlns:xlink="http://www.w3.org/1999/xlink">
    <!-- Generator: Sketch 40.3 (33839) - http://www.bohemiancoding.com/sketch -->
    <title>ic_sign_out</title>
    <desc>Created with Sketch.</desc>
    <defs></defs>
    <g id="Icons" stroke="none" stroke-width="1" fill="none" fill-rule="evenodd">
        <g id="Desktop-HD" transform="translate(-313.000000, -923.000000)"></g>
        <g id="ic_sign_out">
            <g id="Page-1" transform="translate(4.000000, 4.000000)" stroke-opacity="0.00784313771" stroke="#000000" stroke-width="1.33333335e-11">
                <polygon id="Stroke-1" points="0 0 23.9999985 0 23.9999985 23.9999985 0 23.9999985"></polygon>
            </g>
            <g id="Page-1" transform="translate(4.000000, 4.000000)">
                <polygon id="Stroke-1" stroke-opacity="0.00784313771" stroke="#000000" stroke-width="1.33333335e-11" points="0 0 23.9999985 0 23.9999985 23.9999985 0 23.9999985"></polygon>
                <path d="M16.4999993,16.999999 L21.499999,11.9999993 L16.4999993,6.99999958 L15.0899995,8.40999934 L17.6699992,10.9999993 L7.99999982,10.9999993 L7.99999982,12.9999992 L17.6699992,12.9999992 L15.0899995,15.5899992 L16.4999993,16.999999 Z M18.9999989,2.99999982 C20.1099989,2.99999982 20.9999987,3.89999986 20.9999987,4.9999997 L21,7 L19.0000001,7 L18.9999989,4.9999997 L4.9999997,4.9999997 L4.9999997,18.9999989 L18.9999989,18.9999989 L19.0000001,17 L21,17 L20.9999987,18.9999989 C20.9999987,20.0999991 20.1099989,20.9999987 18.9999989,20.9999987 L4.9999997,20.9999987 C3.89999947,20.9999987 2.99999982,20.0999991 2.99999982,18.9999989 L2.99999982,4.9999997 C2.99999982,3.89999986 3.89999947,2.99999982 4.9999997,2.99999982 L18.9999989,2.99999982 Z" id="Fill-2" fill="#000000"></path>
            </g>
        </g>
    </g>
</svg>