<?xml version="1.0" encoding="UTF-8"?>
<svg width="32px" height="32px" viewBox="0 0 32 32" version="1.1" xmlns="http://www.w3.org/2000/svg" xmlns:xlink="http://www.w3.org/1999/xlink">
    <!-- Generator: Sketch 41.1 (35376) - http://www.bohemiancoding.com/sketch -->
    <title>ic_spares</title>
    <desc>Created with Sketch.</desc>
    <defs></defs>
    <g id="Icons" stroke="none" stroke-width="1" fill="none" fill-rule="evenodd">
        <g id="Desktop-HD" transform="translate(-1009.000000, -307.000000)"></g>
        <g id="ic_spares">
            <g id="Page-1" transform="translate(16.000000, 16.000000) scale(-1, 1) translate(-16.000000, -16.000000) translate(4.000000, 4.000000)">
                <polygon id="Stroke-1" stroke-opacity="0.00784313771" stroke="#000000" stroke-width="1.33333335e-11" points="0 0 23.9999985 0 23.9999985 23.9999985 0 23.9999985"></polygon>
                <path d="M22.6999993,18.9999989 L13.5999995,9.89999902 C14.4999991,7.59999896 13.9999992,4.89999932 12.0999996,2.99999934 C10.0999997,0.999999463 7.09999995,0.599999391 4.7,1.69999947 L8.99999946,5.99999964 L5.99999964,8.99999946 L1.59999992,4.69999952 C0.399999981,7.09999947 0.899999981,10.0999997 2.89999992,12.0999996 C4.7999999,13.9999992 7.49999955,14.4999991 9.7999996,13.5999995 L18.9000004,22.6999993 C19.2999999,23.0999989 19.9000003,23.0999989 20.2999999,22.6999993 L22.5999989,20.4000003 C23.0999989,20.0000007 23.0999989,19.2999999 22.6999993,19.0000008 L22.6999993,18.9999989 L22.6999993,18.9999989 Z" id="Fill-2" fill="#000000"></path>
            </g>
        </g>
    </g>
</svg>