<?xml version="1.0" encoding="UTF-8"?>
<svg width="32px" height="32px" viewBox="0 0 32 32" version="1.1" xmlns="http://www.w3.org/2000/svg" xmlns:xlink="http://www.w3.org/1999/xlink">
    <!-- Generator: Sketch 40.3 (33839) - http://www.bohemiancoding.com/sketch -->
    <title>ic_start_date</title>
    <desc>Created with Sketch.</desc>
    <defs></defs>
    <g id="Icons" stroke="none" stroke-width="1" fill="none" fill-rule="evenodd">
        <g id="Desktop-HD" transform="translate(-81.000000, -307.000000)"></g>
        <g id="ic_start_date">
            <g id="Page-1" transform="translate(4.000000, 4.000000)">
                <polygon id="Stroke-1" stroke-opacity="0.00784313771" stroke="#000000" stroke-width="1.33333335e-11" points="0 0 23.9999985 0 23.9999985 23.9999985 0 23.9999985"></polygon>
                <path d="M18.9999989,2.99999982 L17.9999989,2.99999982 L17.9999989,0.99999994 L15.999999,0.99999994 L15.999999,2.99999982 L7.99999952,2.99999982 L7.99999952,0.99999994 L5.99999964,0.99999994 L5.99999964,2.99999982 L4.9999997,2.99999982 C3.88999963,2.99999982 3.00999981,3.89999986 3.00999981,4.9999997 L2.99999982,18.9999989 C2.99999982,20.0999991 3.88999963,20.9999987 4.9999997,20.9999987 L18.9999989,20.9999987 C20.0999991,20.9999987 20.9999987,20.0999991 20.9999987,18.9999989 L20.9999987,4.9999997 C20.9999987,3.89999986 20.0999991,2.99999982 18.9999989,2.99999982 L18.9999989,2.99999982 Z M18.9999989,18.9999989 L4.9999997,18.9999989 L4.9999997,7.99999952 L18.9999989,7.99999952 L18.9999989,18.9999989 L18.9999989,18.9999989 Z M6.99999958,9.9999994 L11.9999993,9.9999994 L11.9999993,14.9999991 L6.99999958,14.9999991 L6.99999958,9.9999994 L6.99999958,9.9999994 Z" id="Fill-2" fill="#000000"></path>
            </g>
        </g>
    </g>
</svg>