<?xml version="1.0" encoding="UTF-8"?>
<svg width="32px" height="32px" viewBox="0 0 32 32" version="1.1" xmlns="http://www.w3.org/2000/svg" xmlns:xlink="http://www.w3.org/1999/xlink">
    <!-- Generator: Sketch 40.3 (33839) - http://www.bohemiancoding.com/sketch -->
    <title>ic_travel</title>
    <desc>Created with Sketch.</desc>
    <defs></defs>
    <g id="Icons" stroke="none" stroke-width="1" fill="none" fill-rule="evenodd">
        <g id="Desktop-HD-Copy" transform="translate(-81.000000, -363.000000)"></g>
        <g id="ic_travel">
            <g id="ic_" transform="translate(4.000000, 4.000000)" stroke-opacity="0.00784313771" stroke="#000000" stroke-width="1.33333335e-11">
                <polygon id="Stroke-1" points="0 0 23.9999985 0 23.9999985 23.9999985 0 23.9999985"></polygon>
            </g>
            <g id="Page-1" transform="translate(4.000000, 4.000000)">
                <polygon id="Stroke-1" stroke-opacity="0.00784313771" stroke="#000000" stroke-width="1.33333335e-11" points="0 0 23.9999985 0 23.9999985 23.9999985 0 23.9999985"></polygon>
                <path d="M18.9199989,6.00999986 C18.7199982,5.41999974 18.1599987,4.9999997 17.499999,4.9999997 L6.49999961,4.9999997 C5.8399998,4.9999997 5.28999964,5.41999974 5.07999962,6.00999986 L2.99999982,11.9999993 L2.99999982,19.9999988 C2.99999982,20.549998 3.44999983,20.9999987 3.99999976,20.9999987 L4.9999997,20.9999987 C5.54999986,20.9999987 5.99999964,20.549998 5.99999964,19.9999988 L5.99999964,18.9999989 L17.9999989,18.9999989 L17.9999989,19.9999988 C17.9999989,20.549998 18.4499996,20.9999987 18.9999989,20.9999987 L19.9999988,20.9999987 C20.549998,20.9999987 20.9999987,20.549998 20.9999987,19.9999988 L20.9999987,11.9999993 L18.9199989,6.00999986 L18.9199989,6.00999986 Z M6.49999961,15.999999 C5.66999973,15.999999 4.9999997,15.329999 4.9999997,14.4999991 C4.9999997,13.6699992 5.66999973,12.9999992 6.49999961,12.9999992 C7.32999948,12.9999992 7.99999952,13.6699992 7.99999952,14.4999991 C7.99999952,15.329999 7.32999948,15.999999 6.49999961,15.999999 L6.49999961,15.999999 Z M17.499999,15.999999 C16.669999,15.999999 15.999999,15.329999 15.999999,14.4999991 C15.999999,13.6699992 16.669999,12.9999992 17.499999,12.9999992 C18.3299988,12.9999992 18.9999989,13.6699992 18.9999989,14.4999991 C18.9999989,15.329999 18.3299988,15.999999 17.499999,15.999999 L17.499999,15.999999 Z M4.9999997,10.9999993 L6.49999961,6.49999961 L17.4999989,6.49999961 L18.9999989,10.9999993 L4.9999997,10.9999993 L4.9999997,10.9999993 Z" id="Fill-2" fill="#000000"></path>
            </g>
        </g>
    </g>
</svg>