<?xml version="1.0" encoding="UTF-8"?>
<svg width="32px" height="32px" viewBox="0 0 32 32" version="1.1" xmlns="http://www.w3.org/2000/svg" xmlns:xlink="http://www.w3.org/1999/xlink">
    <!-- Generator: Sketch 40.3 (33839) - http://www.bohemiancoding.com/sketch -->
    <title>ic_text_doc</title>
    <desc>Created with Sketch.</desc>
    <defs></defs>
    <g id="Icons" stroke="none" stroke-width="1" fill="none" fill-rule="evenodd">
        <g id="Desktop-HD" transform="translate(-313.000000, -867.000000)"></g>
        <g id="ic_text_doc">
            <g id="documents-a" transform="translate(4.000000, 4.000000)">
                <polygon id="Stroke-1" stroke-opacity="0.00784313771" stroke="#000000" stroke-width="1.33333335e-11" points="0 0 23.9999985 0 23.9999985 23.9999985 0 23.9999985"></polygon>
                <path d="M5.99999964,1.99999988 C4.8999998,1.99999988 4.00999998,2.89999992 4.00999998,3.99999976 L3.99999976,19.9999988 C3.99999976,21.099999 4.88999957,21.9999987 5.98999941,21.9999987 L17.9999989,21.9999987 C19.0999992,21.9999987 19.9999988,21.099999 19.9999988,19.9999988 L19.9999988,7.99999952 L13.9999992,1.99999988 L5.99999964,1.99999988 L5.99999964,1.99999988 Z" id="Fill-2" fill="#2B66B0"></path>
                <rect id="Rectangle" fill="#FFFFFF" opacity="0.900000036" x="7" y="6" width="10" height="1"></rect>
                <rect id="Rectangle" fill="#FFFFFF" opacity="0.900000036" x="7" y="9" width="10" height="1"></rect>
                <rect id="Rectangle" fill="#FFFFFF" opacity="0.900000036" x="7" y="12" width="10" height="1"></rect>
                <rect id="Rectangle" fill="#FFFFFF" opacity="0.900000036" x="7" y="15" width="10" height="1"></rect>
                <rect id="Rectangle" fill="#FFFFFF" opacity="0.900000036" x="7" y="18" width="6" height="1"></rect>
                <polygon id="Path" fill="#95B2D7" points="14 8 14 2 20 8"></polygon>
                <polygon id="Path" fill="#000000" opacity="0.400000006" transform="translate(17.000000, 11.000000) scale(-1, -1) translate(-17.000000, -11.000000) " points="14 14 14 8 20 14"></polygon>
            </g>
        </g>
    </g>
</svg>