<?xml version="1.0" encoding="UTF-8"?>
<svg width="32px" height="32px" viewBox="0 0 32 32" version="1.1" xmlns="http://www.w3.org/2000/svg" xmlns:xlink="http://www.w3.org/1999/xlink">
    <!-- Generator: Sketch 40.3 (33839) - http://www.bohemiancoding.com/sketch -->
    <title>ic_time</title>
    <desc>Created with Sketch.</desc>
    <defs></defs>
    <g id="Icons" stroke="none" stroke-width="1" fill="none" fill-rule="evenodd">
        <g id="Desktop-HD" transform="translate(-777.000000, -587.000000)"></g>
        <g id="ic_time">
            <g id="Page-1" transform="translate(4.000000, 4.000000)">
                <polygon id="Stroke-1" stroke-opacity="0.00784313771" stroke="#000000" stroke-width="1.33333335e-11" points="0 0 23.9999985 0 23.9999985 23.9999985 0 23.9999985"></polygon>
                <g id="Group-4" transform="translate(2.000000, 2.000000)" fill="#000000">
                    <path d="M9.98999898,-1.19999999e-07 C4.46999987,-1.19999999e-07 -1.2e-07,4.47999962 -1.2e-07,9.99999928 C-1.2e-07,15.5199993 4.46999987,19.9999987 9.98999898,19.9999987 C15.5199993,19.9999987 19.9999987,15.5199993 19.9999987,9.99999928 C19.9999987,4.47999915 15.5199993,-1.19999999e-07 9.98999898,-1.19999999e-07 L9.98999898,-1.19999999e-07 Z M9.99999928,17.9999988 C5.57999947,17.9999988 1.99999976,14.419999 1.99999976,9.99999928 C1.99999976,5.57999947 5.57999947,1.99999976 9.99999928,1.99999976 C14.419999,1.99999976 17.9999988,5.57999947 17.9999988,9.99999928 C17.9999988,14.419999 14.419999,17.9999988 9.99999928,17.9999988 L9.99999928,17.9999988 Z" id="Fill-2"></path>
                    <polygon id="Fill-3" points="10.4999993 4.99999958 8.99999934 4.99999958 8.99999934 10.9999992 14.249999 14.1499986 14.999999 12.9199991 10.4999993 10.2499993"></polygon>
                </g>
            </g>
        </g>
    </g>
</svg>