<?xml version="1.0" encoding="UTF-8"?>
<svg width="32px" height="32px" viewBox="0 0 32 32" version="1.1" xmlns="http://www.w3.org/2000/svg" xmlns:xlink="http://www.w3.org/1999/xlink">
    <!-- Generator: Sketch 40.3 (33839) - http://www.bohemiancoding.com/sketch -->
    <title>ic_user</title>
    <desc>Created with Sketch.</desc>
    <defs></defs>
    <g id="Icons" stroke="none" stroke-width="1" fill="none" fill-rule="evenodd">
        <g id="Desktop-HD" transform="translate(-1241.000000, -587.000000)"></g>
        <g id="ic_user">
            <g id="Page-1" transform="translate(4.000000, 4.000000)">
                <polygon id="Stroke-1" stroke-opacity="0.00784313771" stroke="#000000" stroke-width="1.33333335e-11" points="0 0 23.9999985 0 23.9999985 23.9999985 0 23.9999985"></polygon>
                <path d="M11.9999993,11.9999993 C14.2099991,11.9999993 15.999999,10.2099994 15.999999,7.99999952 C15.999999,5.78999961 14.2099991,3.99999976 11.9999993,3.99999976 C9.78999937,3.99999976 7.99999952,5.78999961 7.99999952,7.99999952 C7.99999952,10.2099994 9.78999937,11.9999993 11.9999993,11.9999993 L11.9999993,11.9999993 Z M11.9999993,13.9999992 C9.32999936,13.9999992 3.99999976,15.3399992 3.99999976,17.9999989 L3.99999976,19.9999988 L19.9999988,19.9999988 L19.9999988,17.9999989 C19.9999988,15.3399992 14.6699991,13.9999992 11.9999993,13.9999992 L11.9999993,13.9999992 Z" id="Fill-2" fill="#000000"></path>
            </g>
        </g>
    </g>
</svg>