<?xml version="1.0" encoding="UTF-8"?>
<svg width="32px" height="32px" viewBox="0 0 32 32" version="1.1" xmlns="http://www.w3.org/2000/svg" xmlns:xlink="http://www.w3.org/1999/xlink">
    <!-- Generator: Sketch 40.3 (33839) - http://www.bohemiancoding.com/sketch -->
    <title>ic_undo</title>
    <desc>Created with Sketch.</desc>
    <defs></defs>
    <g id="Icons" stroke="none" stroke-width="1" fill="none" fill-rule="evenodd">
        <g id="Desktop-HD" transform="translate(-1241.000000, -867.000000)"></g>
        <g id="ic_undo">
            <g id="Page-1" transform="translate(4.000000, 4.000000)">
                <polygon id="Stroke-1" stroke-opacity="0.00784313771" stroke="#000000" stroke-width="1.33333335e-11" points="0 0 23.9999985 0 23.9999985 23.9999985 0 23.9999985"></polygon>
                <path d="M12.9999992,2.99999982 C8.02999925,2.99999982 3.99999976,7.02999978 3.99999976,11.9999993 L0.99999994,11.9999993 L4.88999957,15.8899983 L4.95999973,16.0299977 L8.99999946,11.9999993 L5.99999964,11.9999993 C5.99999964,8.12999962 9.12999956,4.9999997 12.9999992,4.9999997 C16.8699979,4.9999997 19.9999988,8.12999962 19.9999988,11.9999993 C19.9999988,15.8699988 16.8699979,18.9999989 12.9999992,18.9999989 C11.0699989,18.9999989 9.31999913,18.2099979 8.05999898,16.9399995 L6.63999898,18.3599995 C8.26999995,19.9899985 10.5099996,20.9999987 12.9999992,20.9999987 C17.9700001,20.9999987 21.9999987,16.9699983 21.9999987,11.9999993 C21.9999987,7.03000026 17.9699982,2.99999982 12.9999992,2.99999982 L12.9999992,2.99999982 Z M11.9999993,7.99999952 L11.9999993,12.9999992 L16.2799996,15.539999 L16.999999,14.329999 L13.4999992,12.2499993 L13.4999992,7.99999952 L11.9999993,7.99999952 L11.9999993,7.99999952 Z" id="Fill-2" fill="#000000"></path>
            </g>
        </g>
    </g>
</svg>