<?xml version="1.0" encoding="UTF-8"?>
<svg width="32px" height="32px" viewBox="0 0 32 32" version="1.1" xmlns="http://www.w3.org/2000/svg" xmlns:xlink="http://www.w3.org/1999/xlink">
    <!-- Generator: Sketch 40.3 (33839) - http://www.bohemiancoding.com/sketch -->
    <title>ic_web</title>
    <desc>Created with Sketch.</desc>
    <defs></defs>
    <g id="Icons" stroke="none" stroke-width="1" fill="none" fill-rule="evenodd">
        <g id="Desktop-HD" transform="translate(-545.000000, -867.000000)"></g>
        <g id="ic_web">
            <g id="documents-a" transform="translate(4.000000, 4.000000)">
                <polygon id="Stroke-1" stroke-opacity="0.00784313771" stroke="#000000" stroke-width="1.33333335e-11" points="0 0 23.9999985 0 23.9999985 23.9999985 0 23.9999985"></polygon>
                <path d="M4.01000022,3.99999988 L4,19.9999989 C4,21.0999992 4.88999981,21.9999988 5.98999965,21.9999988 L17.9999992,21.9999988 C19.0999994,21.9999988 19.999999,21.0999992 19.999999,19.9999989 L19.999999,7.99999964 L13.9999994,2 L5.99999988,2 C4.90000004,2 4.01000022,2.90000004 4.01000022,3.99999988 Z" id="Fill-2" fill="#149EDC"></path>
                <path d="M11,11.5104076 L8.49607027,11.5104076 C7.11527349,11.5104076 6,12.6296958 6,14.0104076 C6,15.4007456 7.11752872,16.5104076 8.49607027,16.5104076 L11,16.5104076 L11,15.5104076 L8.49607027,15.5104076 C7.6662414,15.5104076 7,14.8448921 7,14.0104076 C7,13.1807086 7.66882964,12.5104076 8.49607027,12.5104076 L11,12.5104076 L11,11.5104076 Z M13,11.5104076 L15.5039297,11.5104076 C16.8847265,11.5104076 18,12.6296958 18,14.0104076 C18,15.4007456 16.8824713,16.5104076 15.5039297,16.5104076 L13,16.5104076 L13,15.5104076 L15.5039297,15.5104076 C16.3337586,15.5104076 17,14.8448921 17,14.0104076 C17,13.1807086 16.3311704,12.5104076 15.5039297,12.5104076 L13,12.5104076 L13,11.5104076 Z M10,13.5104076 L14,13.5104076 L14,14.5104076 L10,14.5104076 L10,13.5104076 Z" id="Combined-Shape" fill="#FFFFFF" opacity="0.900000036" transform="translate(12.000000, 14.010408) rotate(45.000000) translate(-12.000000, -14.010408) "></path>
                <polygon id="Path" fill="#89CEED" points="14 8 14 2 20 8"></polygon>
                <polygon id="Path" fill="#000000" opacity="0.400000006" transform="translate(17.000000, 11.000000) scale(-1, -1) translate(-17.000000, -11.000000) " points="14 14 14 8 20 14"></polygon>
            </g>
        </g>
    </g>
</svg>