<?xml version="1.0" encoding="UTF-8"?>
<svg width="24px" height="24px" viewBox="0 0 24 24" version="1.1" xmlns="http://www.w3.org/2000/svg" xmlns:xlink="http://www.w3.org/1999/xlink">
    <!-- Generator: Sketch 58 (84663) - https://sketch.com -->
    <title>chart</title>
    <desc>Created with Sketch.</desc>
    <g id="chart" stroke="none" stroke-width="1" fill="none" fill-rule="evenodd">
        <g>
            <polygon id="Rectangle-Copy-5" fill="#000000" transform="translate(5.500000, 11.000000) rotate(-90.000000) translate(-5.500000, -11.000000) " points="0 10 11 10 11 12 0 12"></polygon>
            <polygon id="Rectangle-Copy-5" fill="#000000" transform="translate(17.500000, 11.000000) rotate(-90.000000) translate(-17.500000, -11.000000) " points="12 10 23 10 23 12 12 12"></polygon>
            <polygon id="Rectangle-Copy-5" fill="#000000" transform="translate(9.500000, 13.000000) rotate(-90.000000) translate(-9.500000, -13.000000) " points="6 12 13 12 13 14 6 14"></polygon>
            <polygon id="Rectangle-Copy-5" fill="#000000" transform="translate(13.500000, 14.000000) rotate(-90.000000) translate(-13.500000, -14.000000) " points="11 13 16 13 16 15 11 15"></polygon>
            <path d="M1,0.152529762 L1,19.1517857" id="Line-4" stroke="#000000" stroke-width="1.5" stroke-linecap="square"></path>
            <path d="M24,19.5 L1,19.5" id="Line-4" stroke="#000000" stroke-width="1.5" stroke-linecap="square"></path>
        </g>
    </g>
</svg>