<?xml version="1.0" encoding="UTF-8"?>
<svg width="24px" height="24px" viewBox="0 0 24 24" version="1.1" xmlns="http://www.w3.org/2000/svg" xmlns:xlink="http://www.w3.org/1999/xlink">
    <!-- Generator: Sketch 58 (84663) - https://sketch.com -->
    <title>grid</title>
    <desc>Created with Sketch.</desc>
    <g id="grid" stroke="none" stroke-width="1" fill="none" fill-rule="evenodd">
        <g fill="#000000" id="Combined-Shape">
            <path d="M14.4666667,21.0666667 L14.4666667,22.5333333 L15.9333333,22.5333333 L15.9333333,24 L13,24 L13,21.0666667 L14.4666667,21.0666667 Z M24,21.0666667 L24,24 L21.0666667,24 L21.0666667,22.5333333 L22.5333333,22.5333333 L22.5333333,21.0666667 L24,21.0666667 Z M19.6,22.5333333 L19.6,24 L17.4,24 L17.4,22.5333333 L19.6,22.5333333 Z M6.6,22.5333333 L6.6,24 L4.4,24 L4.4,22.5333333 L6.6,22.5333333 Z M11,21.0666667 L11,24 L8.06666667,24 L8.06666667,22.5333333 L9.53333333,22.5333333 L9.53333333,21.0666667 L11,21.0666667 Z M1.46666667,21.0666667 L1.46666667,22.5333333 L2.93333333,22.5333333 L2.93333333,24 L0,24 L0,21.0666667 L1.46666667,21.0666667 Z M14.4666667,17.4 L14.4666667,19.6 L13,19.6 L13,17.4 L14.4666667,17.4 Z M24,17.4 L24,19.6 L22.5333333,19.6 L22.5333333,17.4 L24,17.4 Z M11,17.4 L11,19.6 L9.53333333,19.6 L9.53333333,17.4 L11,17.4 Z M1.46666667,17.4 L1.46666667,19.6 L0,19.6 L0,17.4 L1.46666667,17.4 Z M15.9333333,13 L15.9333333,14.4666667 L14.4666667,14.4666667 L14.4666667,15.9333333 L13,15.9333333 L13,13 L15.9333333,13 Z M24,13 L24,15.9333333 L22.5333333,15.9333333 L22.5333333,14.4666667 L21.0666667,14.4666667 L21.0666667,13 L24,13 Z M11,13 L11,15.9333333 L9.53333333,15.9333333 L9.53333333,14.4666667 L8.06666667,14.4666667 L8.06666667,13 L11,13 Z M2.93333333,13 L2.93333333,14.4666667 L1.46666667,14.4666667 L1.46666667,15.9333333 L0,15.9333333 L0,13 L2.93333333,13 Z M6.6,13 L6.6,14.4666667 L4.4,14.4666667 L4.4,13 L6.6,13 Z M19.6,13 L19.6,14.4666667 L17.4,14.4666667 L17.4,13 L19.6,13 Z M19.6,9.53333333 L19.6,11 L17.4,11 L17.4,9.53333333 L19.6,9.53333333 Z M24,8.06666667 L24,11 L21.0666667,11 L21.0666667,9.53333333 L22.5333333,9.53333333 L22.5333333,8.06666667 L24,8.06666667 Z M14.4666667,8.06666667 L14.4666667,9.53333333 L15.9333333,9.53333333 L15.9333333,11 L13,11 L13,8.06666667 L14.4666667,8.06666667 Z M6.6,9.53333333 L6.6,11 L4.4,11 L4.4,9.53333333 L6.6,9.53333333 Z M11,8.06666667 L11,11 L8.06666667,11 L8.06666667,9.53333333 L9.53333333,9.53333333 L9.53333333,8.06666667 L11,8.06666667 Z M1.46666667,8.06666667 L1.46666667,9.53333333 L2.93333333,9.53333333 L2.93333333,11 L0,11 L0,8.06666667 L1.46666667,8.06666667 Z M11,4.4 L11,6.6 L9.53333333,6.6 L9.53333333,4.4 L11,4.4 Z M1.46666667,4.4 L1.46666667,6.6 L0,6.6 L0,4.4 L1.46666667,4.4 Z M24,4.4 L24,6.6 L22.5333333,6.6 L22.5333333,4.4 L24,4.4 Z M14.4666667,4.4 L14.4666667,6.6 L13,6.6 L13,4.4 L14.4666667,4.4 Z M2.93333333,0 L2.93333333,1.46666667 L1.46666667,1.46666667 L1.46666667,2.93333333 L0,2.93333333 L0,0 L2.93333333,0 Z M11,0 L11,2.93333333 L9.53333333,2.93333333 L9.53333333,1.46666667 L8.06666667,1.46666667 L8.06666667,0 L11,0 Z M15.9333333,0 L15.9333333,1.46666667 L14.4666667,1.46666667 L14.4666667,2.93333333 L13,2.93333333 L13,0 L15.9333333,0 Z M24,0 L24,2.93333333 L22.5333333,2.93333333 L22.5333333,1.46666667 L21.0666667,1.46666667 L21.0666667,0 L24,0 Z M6.6,0 L6.6,1.46666667 L4.4,1.46666667 L4.4,0 L6.6,0 Z M19.6,0 L19.6,1.46666667 L17.4,1.46666667 L17.4,0 L19.6,0 Z"></path>
        </g>
    </g>
</svg>