<?xml version="1.0" encoding="UTF-8"?>
<svg width="24px" height="24px" viewBox="0 0 24 24" version="1.1" xmlns="http://www.w3.org/2000/svg" xmlns:xlink="http://www.w3.org/1999/xlink">
    <!-- Generator: Sketch 58 (84663) - https://sketch.com -->
    <title>list copy 2</title>
    <desc>Created with Sketch.</desc>
    <g id="list-copy-2" stroke="none" stroke-width="1" fill="none" fill-rule="evenodd">
        <path d="M8,17 L8,19 L5,19 L5,17 L8,17 Z M24,17 L24,19 L10,19 L10,17 L24,17 Z M8,10 L8,12 L5,12 L5,10 L8,10 Z M24,10 L24,12 L10,12 L10,10 L24,10 Z M3,3 L3,5 L0,5 L0,3 L3,3 Z M20,3 L20,5 L5,5 L5,3 L20,3 Z" id="Combined-Shape" fill="#000000"></path>
    </g>
</svg>