<?xml version="1.0" encoding="UTF-8"?>
<svg width="24px" height="24px" viewBox="0 0 24 24" version="1.1" xmlns="http://www.w3.org/2000/svg" xmlns:xlink="http://www.w3.org/1999/xlink">
    <!-- Generator: Sketch 58 (84663) - https://sketch.com -->
    <title>lookup</title>
    <desc>Created with Sketch.</desc>
    <g id="lookup" stroke="none" stroke-width="1" fill="none" fill-rule="evenodd">
        <path d="M9.75,0 C11.53125,0 13.1640623,0.437499762 14.6484375,1.3125 C16.1328127,2.18750024 17.3124998,3.36718726 18.1875,4.8515625 C19.0625002,6.33593774 19.5,7.96875 19.5,9.75 C19.5,10.9374998 19.2890625,12.0781252 18.8671875,13.171875 C18.4453125,14.2656248 17.859375,15.2499998 17.109375,16.125 L17.765625,16.125 C17.9218748,16.125 18.046875,16.171875 18.140625,16.265625 L23.859375,21.984375 C23.953125,22.078125 24,22.2031252 24,22.359375 C24,22.5156248 23.953125,22.6562498 23.859375,22.78125 L22.78125,23.8125 C22.6562498,23.9375002 22.5156248,24 22.359375,24 C22.2031252,24 22.078125,23.9375002 21.984375,23.8125 L16.265625,18.140625 C16.171875,18.0156248 16.125,17.8906252 16.125,17.765625 L16.125,17.109375 C15.2499998,17.859375 14.2656248,18.4453125 13.171875,18.8671875 C12.0781252,19.2890625 10.9374998,19.5 9.75,19.5 C7.96875,19.5 6.33593774,19.0625002 4.8515625,18.1875 C3.36718726,17.3124998 2.18750024,16.1328127 1.3125,14.6484375 C0.437499762,13.1640623 0,11.53125 0,9.75 C0,7.96875 0.437499762,6.33593774 1.3125,4.8515625 C2.18750024,3.36718726 3.36718726,2.18750024 4.8515625,1.3125 C6.33593774,0.437499762 7.96875,0 9.75,0 Z M9.75,2.25 C8.40624976,2.25 7.15625024,2.58593774 6.00000894,3.2578125 C4.84374976,3.92968726 3.92968726,4.84374976 3.2578125,6.00000894 C2.58593774,7.15625024 2.25,8.40624976 2.25,9.75 C2.25,11.0937502 2.58593774,12.3437498 3.2578125,13.5 C3.92968726,14.6562502 4.84374976,15.5703127 6.00000894,16.2421875 C7.15625024,16.9140623 8.40624976,17.25 9.75,17.25 C11.0937502,17.25 12.3437498,16.9140623 13.5,16.2421875 C14.6562502,15.5703127 15.5703127,14.6562502 16.2421875,13.5 C16.9140623,12.3437498 17.25,11.0937502 17.25,9.75 C17.25,8.40624976 16.9140623,7.15625024 16.2421875,6.00000894 C15.5703127,4.84374976 14.6562502,3.92968726 13.5,3.2578125 C12.3437498,2.58593774 11.0937502,2.25 9.75,2.25 Z" id="s" fill="#000000" fill-rule="nonzero"></path>
    </g>
</svg>