<?xml version="1.0" encoding="UTF-8"?>
<svg width="24px" height="24px" viewBox="0 0 24 24" version="1.1" xmlns="http://www.w3.org/2000/svg" xmlns:xlink="http://www.w3.org/1999/xlink">
    <!-- Generator: Sketch 58 (84663) - https://sketch.com -->
    <title>tabs</title>
    <desc>Created with Sketch.</desc>
    <g id="tabs" stroke="none" stroke-width="1" fill="none" fill-rule="evenodd">
        <path d="M24,17.5833333 L24,19 L0,19 L0,17.5833333 L24,17.5833333 Z M18.1818182,14.0416667 L18.1818182,15.4583333 L-1.42108547e-14,15.4583333 L-1.42108547e-14,14.0416667 L18.1818182,14.0416667 Z M24,10.5 L24,11.9166667 L0,11.9166667 L0,10.5 L24,10.5 Z M24,6.95833333 L24,8.375 L0,8.375 L0,6.95833333 L24,6.95833333 Z M5.09090909,2 L5.09090909,4.125 L-1.11022302e-14,4.125 L-1.11022302e-14,2 L5.09090909,2 Z M13.0909091,2 L13.0909091,4.125 L8,4.125 L8,2 L13.0909091,2 Z M21.0909091,2 L21.0909091,4.125 L16,4.125 L16,2 L21.0909091,2 Z" id="Combined-Shape" fill="#000000"></path>
    </g>
</svg>