<svg viewBox="0 0 24 24" xmlns="http://www.w3.org/2000/svg">
<path d="M8.45652 12.0331C8.63656 12.2273 8.7354 12.4809 8.7354 12.7432V20.4738C8.7354 20.939 9.30196 21.1751 9.63732 20.8481L11.8136 18.3767C12.1048 18.0304 12.2654 17.859 12.2654 17.5162V12.745C12.2654 12.4826 12.366 12.229 12.5443 12.0349L18.7889 5.32049C19.2566 4.81678 18.8966 4 18.2047 4H2.79612C2.10423 4 1.7424 4.81503 2.2119 5.32049L8.45652 12.0331Z"/>
<path d="M17.1657 20.8481L21.7657 16.2481C21.9219 16.0918 21.9219 15.8386 21.7657 15.6824L21.2 15.1167C21.0438 14.9605 20.7905 14.9605 20.6343 15.1167L16.8828 18.8682L15.1314 17.1167C14.9752 16.9605 14.7219 16.9605 14.5657 17.1167L14 17.6824C13.8438 17.8386 13.8438 18.0919 14 18.2481L16.6 20.8481C16.7562 21.0043 17.0095 21.0043 17.1657 20.8481Z" />
</svg>
