<svg xmlns="http://www.w3.org/2000/svg" viewBox="0 0 24 24">
  <path d="M13.7499672 20.3742834L13.7499672 9.94456734 21.5958157 2.09729219C22.4595107 1.23368112 21.8474172-.249954104 20.6235661-.249954104L1.37663322-.249954104C.155257809-.249954104-.460989807 1.23191874.404341687 2.09729219L8.24998033 9.94456734 8.24998033 17.9687944C8.24998033 18.313215 8.46033368 18.7767644 8.7195303 19.0035248L11.4695237 21.4090557C12.3477374 22.177456 13.7499672 21.5671669 13.7499672 20.3742834zM12.3749705 20.3749967L9.62497705 17.9687525 9.62497705 9.37502295 1.37499672 1.12504262 20.6249508 1.12504262 12.3749705 9.37502295 12.3749705 20.3749967zM18.9398162 20.2971053L23.5398113 15.6970949C23.6960152 15.5408757 23.6960152 15.287611 23.5398113 15.1314071L22.9741388 14.5657194C22.817935 14.4095155 22.5646549 14.4095155 22.4084511 14.5657194L18.6569799 18.3171905 16.905504 16.5657146C16.7493001 16.4094955 16.4960201 16.4094955 16.3398163 16.5657146L15.7741438 17.1314024C15.6179399 17.2876215 15.6179399 17.5408862 15.7741438 17.6970901L18.3741437 20.29709C18.5303323 20.4533091 18.7835971 20.4533091 18.9398162 20.2971053z" transform="translate(0 1)"/>
</svg>
