<svg xmlns="http://www.w3.org/2000/svg" viewBox="0 0 24 24">
  <path d="M16.775 3.467l3.758 3.758a.407.407 0 010 .575l-9.1 9.1-3.866.43a.81.81 0 01-.896-.897l.429-3.866 9.1-9.1a.407.407 0 01.575 0zm6.75-.954L21.492.479a1.63 1.63 0 00-2.3 0l-1.475 1.475a.407.407 0 000 .575l3.758 3.758a.407.407 0 00.575 0l1.475-1.474a1.63 1.63 0 000-2.3zM16 14.425v4.242H2.667V5.333h9.575a.512.512 0 00.354-.146l1.666-1.666a.5.5 0 00-.354-.854H2a2 2 0 00-2 2v14.666a2 2 0 002 2h14.667a2 2 0 002-2v-6.575a.5.5 0 00-.855-.354l-1.666 1.667a.512.512 0 00-.146.354z"/>
</svg>
