<?xml version="1.0" encoding="UTF-8"?>
<svg viewBox="0 0 24 24" xmlns="http://www.w3.org/2000/svg">
        <path d="M8,4.11538462 L8,4.73076923 C8,4.91025661 7.94642857,5.05769231 7.83928571,5.17307692 C7.73214286,5.28846154 7.59523828,5.34615385 7.42857143,5.34615385 L5.71428571,5.34615385 C5.30952399,5.34615385 4.97023828,5.49358955 4.69642857,5.78846154 C4.42261887,6.08333353 4.28571429,6.44871814 4.28571429,6.88461538 L4.28571429,8.73076923 L6.28571429,8.73076923 C6.45238113,8.73076923 6.58928571,8.78846154 6.69642857,8.90384615 C6.80357143,9.01923077 6.85714286,9.16666647 6.85714286,9.34615385 L6.85714286,9.96153846 C6.85714286,10.1410258 6.80357143,10.2884615 6.69642857,10.4038462 C6.58928571,10.5192308 6.45238113,10.5769231 6.28571429,10.5769231 L4.28571429,10.5769231 L4.28571429,16.1153846 C4.28571429,17.0384615 3.97619029,17.8333335 3.35714286,18.5 C2.73809542,19.1666665 2,19.5 1.14285714,19.5 L0.571428571,19.5 C0.404761723,19.5 0.267857143,19.4423077 0.160714286,19.3269231 C0.0535714286,19.2115385 0,19.0641028 0,18.8846154 L0,18.2692308 C0,18.0897434 0.0535714286,17.9423077 0.160714286,17.8269231 C0.267857143,17.7115385 0.404761723,17.6538462 0.571428571,17.6538462 L1.14285714,17.6538462 C1.54761887,17.6538462 1.88690458,17.5064105 2.16071429,17.2115385 C2.43452399,16.9166665 2.57142857,16.5512819 2.57142857,16.1153846 L2.57142857,10.5769231 L0.571428571,10.5769231 C0.404761723,10.5769231 0.267857143,10.5192308 0.160714286,10.4038462 C0.0535714286,10.2884615 0,10.1410258 0,9.96153846 L0,9.34615385 C0,9.16666647 0.0535714286,9.01923077 0.160714286,8.90384615 C0.267857143,8.78846154 0.404761723,8.73076923 0.571428571,8.73076923 L2.57142857,8.73076923 L2.57142857,6.88461538 C2.57142857,5.96153846 2.88095256,5.16666647 3.5,4.5 C4.11904744,3.83333353 4.85714286,3.5 5.71428571,3.5 L7.42857143,3.5 C7.59523828,3.5 7.73214286,3.55769231 7.83928571,3.67307692 C7.94642857,3.78846154 8,3.93589724 8,4.11538462 Z M11.7360115,6.01508854 C11.8967002,6.11914701 11.9837401,6.24921965 11.9971306,6.40530706 C12.0105211,6.56139446 11.9770445,6.71748187 11.8967002,6.87356928 C11.2539455,7.75806478 10.765184,8.72710723 10.4304161,9.78069723 C10.0956483,10.8342872 9.92826402,11.9073882 9.92826402,13 C9.92826402,14.0926118 10.0956483,15.1657128 10.4304161,16.2193028 C10.765184,17.2728928 11.2539455,18.2419352 11.8967002,19.1264307 C11.9770445,19.2825181 12.0105211,19.4386055 11.9971306,19.5946929 C11.9837401,19.7507804 11.8967002,19.880853 11.7360115,19.9849115 L11.2539455,20.37513 C11.0932569,20.4791884 10.9258726,20.5182103 10.7517934,20.4921955 C10.5777143,20.4661808 10.4371117,20.37513 10.3299857,20.2190426 C9.58010503,19.1784597 9.00430418,18.0338189 8.60258251,16.7851196 C8.20086084,15.5364204 8,14.274714 8,13 C8,11.725286 8.20086084,10.4635796 8.60258251,9.21488038 C9.00430418,7.96618113 9.58010503,6.82154034 10.3299857,5.78095743 C10.4371117,5.62487002 10.5777143,5.53381923 10.7517934,5.50780447 C10.9258726,5.4817897 11.0932569,5.52081155 11.2539455,5.62487002 L11.7360115,6.01508854 Z M21.6700143,5.78095743 C22.419895,6.82154034 22.9956958,7.96618113 23.3974175,9.21488038 C23.7991392,10.4635796 24,11.725286 24,13 C24,14.274714 23.7991392,15.5364204 23.3974175,16.7851196 C22.9956958,18.0338189 22.419895,19.1784597 21.6700143,20.2190426 C21.5628883,20.37513 21.4222857,20.4661808 21.2482066,20.4921955 C21.0741274,20.5182103 20.9067431,20.4791884 20.7460545,20.37513 L20.2639885,19.9849115 C20.1032998,19.880853 20.0162599,19.7507804 20.0028694,19.5946929 C19.9894789,19.4386055 20.0229555,19.2825181 20.1032998,19.1264307 C20.7460545,18.2419352 21.234816,17.2728928 21.5695839,16.2193028 C21.9043517,15.1657128 22.071736,14.0926118 22.071736,13 C22.071736,11.9073882 21.9043517,10.8342872 21.5695839,9.78069723 C21.234816,8.72710723 20.7460545,7.75806478 20.1032998,6.87356928 C20.0229555,6.71748187 19.9894789,6.56139446 20.0028694,6.40530706 C20.0129123,6.2882415 20.0643829,6.18580925 20.1572811,6.09801006 L20.7460545,5.62487002 C20.9067431,5.52081155 21.0741274,5.4817897 21.2482066,5.50780447 C21.4222857,5.53381923 21.5628883,5.62487002 21.6700143,5.78095743 Z M18.3191405,9.60546883 L18.8125,10.1 C18.9374998,10.2000002 19,10.3312502 19,10.49375 C19,10.6562498 18.9374998,10.8000002 18.8125,10.925 L17.2375,12.5 L18.8125,14.075 C18.9374998,14.1999998 19,14.3437502 19,14.50625 C19,14.6281249 18.9648436,14.7324217 18.8945312,14.8191405 L18.4,15.3125 C18.2999998,15.4374998 18.1687498,15.5 18.00625,15.5 C17.8437502,15.5 17.6999998,15.4374998 17.575,15.3125 L16,13.7375 L14.425,15.3125 C14.3000002,15.4374998 14.1562498,15.5 13.99375,15.5 C13.8718751,15.5 13.7675783,15.4648436 13.6808595,15.3945312 L13.1875,14.9 C13.0625002,14.7999998 13,14.6687498 13,14.50625 C13,14.3437502 13.0625002,14.1999998 13.1875,14.075 L14.7625,12.5 L13.1875,10.925 C13.0625002,10.8000002 13,10.6562498 13,10.49375 C13,10.3718751 13.0351564,10.2675783 13.1054688,10.1808595 L13.6,9.6875 C13.7000002,9.56250019 13.8312502,9.5 13.99375,9.5 C14.1562498,9.5 14.3000002,9.56250019 14.425,9.6875 L16,11.2625 L17.575,9.6875 C17.6999998,9.56250019 17.8437502,9.5 18.00625,9.5 C18.1281249,9.5 18.2324217,9.53515636 18.3191405,9.60546883 Z"></path>
</svg>