<svg xmlns="http://www.w3.org/2000/svg" viewBox="0 0 24 24">
    <path d="M13.22 1a10.23 10.23 0 0110.13 10.13 10.23 10.23 0 01-10.67 10.11c.25-.4.47-.84.63-1.3h-.1c.58 0 1.17-.43 1.76-1.3a10 10 0 001.43-3.6h-3.02a6.37 6.37 0 00-.6-1.3h3.87l.06-.52a21 21 0 00-.06-4.7H9.79l-.06.52c-.06.59-.1 1.18-.1 1.77-.41-.2-.84-.36-1.3-.48.03-.6.08-1.2.15-1.82H4.81l-.11.37a8.4 8.4 0 00-.27 1.49 7.2 7.2 0 00-1.34.53v.23A10.23 10.23 0 0113.22 1zm7.88 14.05h-3.35l-.09.41A11.75 11.75 0 0116 19.5a8.7 8.7 0 005.1-4.45zm.53-6.54h-3.67a20.89 20.89 0 01.05 4.7l-.05.53h3.67a8.46 8.46 0 000-5.23zm-5.68-5.75a10.98 10.98 0 011.72 4.06l.08.39h3.35l-.18-.35A8.68 8.68 0 0019 4.46a8.27 8.27 0 00-3.05-1.7zm-2.73-.45c-.57 0-1.16.43-1.76 1.3a9.58 9.58 0 00-1.34 3.23l-.09.37h6.37l-.08-.37a9.58 9.58 0 00-1.35-3.23c-.6-.87-1.18-1.3-1.75-1.3zm-2.74.45a8.27 8.27 0 00-3.04 1.7 8.68 8.68 0 00-1.92 2.4l-.18.35h3.35l.09-.42c.38-1.63.95-2.98 1.7-4.03z"/>
    <path d="M10.33 8.31l-.01.11.16-.01.02-.12-.1-.08zM4 8.93v.43c.08-.35.18-.7.28-1.04l-.29.6z"/>
    <path d="M10.39 17.69c.09-.52.09-1.03 0-1.55l.92-.55c.06-.03.1-.07.12-.13a.29.29 0 00.02-.17 5.47 5.47 0 00-1.22-2.07.33.33 0 00-.15-.1.25.25 0 00-.18.03l-.92.55c-.4-.34-.84-.6-1.34-.77v-1.08a.28.28 0 00-.06-.16.24.24 0 00-.14-.1 5.62 5.62 0 00-2.42 0 .24.24 0 00-.15.1.28.28 0 00-.05.16v1.08c-.5.18-.95.43-1.35.77l-.92-.55a.25.25 0 00-.18-.02.33.33 0 00-.15.09c-.56.6-.96 1.29-1.21 2.07a.29.29 0 00.01.17c.02.06.06.1.12.13l.93.55a4.53 4.53 0 000 1.55l-.93.55a.24.24 0 00-.12.13.29.29 0 00-.01.17c.25.78.65 1.47 1.21 2.07.04.05.1.08.15.1.06 0 .12 0 .18-.03l.92-.55c.4.34.85.6 1.35.77v1.08c0 .06.02.11.05.16.04.06.09.09.15.1.8.18 1.61.18 2.42 0 .06-.01.1-.04.14-.1.04-.05.06-.1.06-.16V20.9c.5-.18.94-.43 1.34-.77l.92.55c.06.03.12.04.18.02a.33.33 0 00.15-.09c.56-.6.97-1.29 1.22-2.07a.29.29 0 00-.02-.17.24.24 0 00-.12-.13l-.92-.55zm-2.4-.77c0 .48-.17.9-.52 1.24a1.7 1.7 0 01-1.24.52c-.49 0-.9-.18-1.25-.52a1.7 1.7 0 01-.51-1.24c0-.49.17-.9.51-1.25a1.7 1.7 0 011.25-.52c.48 0 .9.18 1.24.52.35.35.52.76.52 1.25z"/>
</svg>
