<svg viewBox="0 0 24 24" xmlns="http://www.w3.org/2000/svg">
            <path d="M22.1349293 10.8741112l-4.5053671 4.5038966c-2.4866034 2.4880738-6.5205072 2.4880738-9.00753067 0-.39174821-.3906454-.69821505-.8308108-.96734502-1.2847346l2.09338482-2.0932272c.09951245-.1003527.22239326-.1578546.33981267-.2255966.1447263.494464.3973671.9625663.7862271 1.3514788 1.2418314 1.2428291 3.262538 1.2410962 4.5036341 0l4.5039492-4.5037916c1.2427765-1.24267154 1.2427765-3.26290552 0-4.50463182-1.2411487-1.24172631-3.2613302-1.24172631-4.5039492 0l-1.601599 1.60333196c-1.2997009-.50606937-2.6999644-.64213099-4.06310115-.44237091l3.41288315-3.41277809c2.4880737-2.48760115 6.5209273-2.48760115 9.0090011 0 2.4868659 2.48749612 2.4868659 6.52097983 0 9.00842346zm-11.910196 7.4059317l-1.60275428 1.6033319c-1.24172631 1.2410962-3.26253793 1.2410962-4.50447429 0-1.24183133-1.2428291-1.24183133-3.263063 0-4.505367l4.50447429-4.5038966c1.24272405-1.24256653 3.26217038-1.24256653 4.50389668 0 .3879672.3880723.6408706.8560696.7869623 1.3499034.1181021-.0686347.23946-.1244037.3389199-.2240212l2.0932273-2.09238703c-.267397-.45570924-.5754393-.8942992-.967345-1.28536474-2.4863934-2.48760115-6.52066477-2.48760115-9.00826592 0L1.86558267 13.1261908c-2.48733859 2.4883363-2.48733859 6.5206647 0 9.008791 2.48760115 2.4868135 6.52092731 2.4868135 9.00847593 0l3.4137759-3.4135133c-1.363872.2009154-2.7645031.0636985-4.0631012-.4414256z"/>
        </svg>