<svg viewBox="0 0 24 24" xmlns="http://www.w3.org/2000/svg">
            <path d="M15.358 9.104l-3.624 6.276a.464.464 0 0 1-.398.221H4.088a.464.464 0 0 1-.398-.22L.066 9.103a.401.401 0 0 1 0-.442L3.69 2.387a.464.464 0 0 1 .398-.221h7.248c.177 0 .31.088.398.22l3.624 6.276a.401.401 0 0 1 0 .442zM7.712 5.79c-1.68 0-3.094 1.37-3.094 3.05s1.37 3.093 3.094 3.093c1.68 0 3.094-1.37 3.094-3.094 0-1.635-1.37-3.05-3.094-3.05zm16.242 10.512l-2.52 4.363a.323.323 0 0 1-.277.154h-5.04a.323.323 0 0 1-.276-.154l-2.52-4.363a.28.28 0 0 1 0-.307l2.52-4.364a.323.323 0 0 1 .277-.154h5.04c.122 0 .215.062.276.154l2.52 4.364a.28.28 0 0 1 0 .307zm-5.316-2.305c-1.168 0-2.151.953-2.151 2.12 0 1.168.952 2.151 2.15 2.151a2.157 2.157 0 0 0 2.152-2.15c0-1.138-.953-2.12-2.151-2.12z"/>
        </svg>
