<svg xmlns="http://www.w3.org/2000/svg" viewBox="0 0 24 24">
  <path d="M23.378 1.937H8.586v-.53C8.586.633 7.888 0 7.03 0H4.616C3.76 0 3.061.632 3.061 1.408v.529H.622C.28 1.937 0 2.189 0 2.5c0 .311.279.563.622.563h2.439v.53C3.06 4.367 3.758 5 4.616 5H7.03c.858 0 1.556-.632 1.556-1.408v-.529h14.792c.343 0 .622-.252.622-.563 0-.31-.279-.563-.622-.563zM7.342 3.592c0 .156-.14.282-.312.282H4.616c-.171 0-.31-.126-.31-.282V1.408c0-.156.139-.282.31-.282H7.03c.172 0 .312.126.312.282v2.184zM23.378 15.937h-10.42v-.53c0-.775-.698-1.407-1.556-1.407H8.988c-.858 0-1.556.632-1.556 1.408v.529H.622c-.343 0-.622.252-.622.563 0 .31.279.563.622.563h6.81v.53c0 .775.698 1.407 1.556 1.407h2.414c.858 0 1.556-.632 1.556-1.408v-.529h10.42c.343 0 .622-.252.622-.563 0-.311-.279-.563-.622-.563zm-11.665 1.655c0 .156-.14.282-.311.282H8.988c-.172 0-.311-.126-.311-.282v-2.184c0-.155.14-.282.31-.282h2.415c.172 0 .311.127.311.282v2.184zM23.378 8.937h-2.439v-.53c0-.775-.697-1.407-1.555-1.407H16.97c-.858 0-1.556.632-1.556 1.408v.53H.622C.28 8.937 0 9.188 0 9.5c0 .311.279.563.622.563h14.792v.53c0 .775.698 1.407 1.556 1.407h2.414c.857 0 1.555-.632 1.555-1.408v-.529h2.439c.343 0 .622-.252.622-.563 0-.31-.279-.563-.622-.563zm-3.683 1.655c0 .156-.14.282-.311.282H16.97c-.172 0-.312-.126-.312-.282V8.408c0-.155.14-.282.312-.282h2.414c.171 0 .31.127.31.282v2.184z"/>
</svg>
