<svg xmlns="http://www.w3.org/2000/svg" viewBox="0 0 24 24">
    <path d="M23.2615385,11.8153846 C23.2615385,18.1384615 18.1384615,23.2615385 11.8153846,23.2615385 C5.49230769,23.2615385 0.369230769,18.1384615 0.369230769,11.8153846 C0.369230769,5.49230769 5.49230769,0.369230769 11.8153846,0.369230769 C18.1384615,0.369230769 23.2615385,5.49230769 23.2615385,11.8153846 Z M10.4953846,17.88 L18.9876923,9.38769231 C19.2738462,9.10153846 19.2738462,8.63076923 18.9876923,8.33538462 L17.9353846,7.29230769 C17.6492308,7.00615385 17.1784615,7.00615385 16.8923077,7.29230769 L9.96923077,14.2246154 L6.73846154,10.9846154 C6.45230769,10.6984615 5.98153846,10.6984615 5.69538462,10.9846154 L4.64307692,12.0276923 C4.35692308,12.3138462 4.35692308,12.7846154 4.64307692,13.08 L9.44307692,17.88 C9.72923077,18.1661538 10.2,18.1661538 10.4953846,17.88 Z"></path>
</svg>
