<svg xmlns="http://www.w3.org/2000/svg" viewBox="0 0 24 24">
  <path d="M18 14c-2.208 0-4 1.792-4 4s1.792 4 4 4 4-1.792 4-4-1.792-4-4-4zm0 7.2c-1.768 0-3.2-1.432-3.2-3.2 0-.74.252-1.42.676-1.96l4.484 4.484c-.54.424-1.22.676-1.96.676zm2.524-1.24l-4.484-4.484c.54-.424 1.22-.676 1.96-.676 1.768 0 3.2 1.432 3.2 3.2 0 .74-.252 1.42-.676 1.96zM14.1768489 14.7774829c-.5783097.6853967-.9756617 1.5284519-1.1183827 2.4554923-.3098737.1959278-.6766783.3091857-1.0684662.3091857-1.11 0-2.01-.9-2.01-2.01 0-.35.1-.67.26-.96l5.18-11.64999999.07-.15c.09-.14.24-.23.41-.23.28 0 .5.22.5.5L14.1768489 14.7774829zM1 6.54216091c3.74-3.73 8.89-5.16 13.72-4.3l-1.19 2.68c-3.74-.46-7.65.74-10.53 3.62l-2-2zm20 2c-1.22-1.22-2.62-2.13-4.12-2.75l.53-2.82c2.04.75 3.95 1.93 5.59 3.57l-2 2z"/>
</svg>
