<?xml version="1.0" encoding="UTF-8"?>
<svg width="206px" height="43px" viewBox="0 0 206 43" version="1.1" xmlns="http://www.w3.org/2000/svg" xmlns:xlink="http://www.w3.org/1999/xlink">
    <!-- Generator: Sketch 41.1 (35376) - http://www.bohemiancoding.com/sketch -->
    <title>Page 1 Copy</title>
    <desc>Created with Sketch.</desc>
    <defs>
        <polygon id="path-1" points="34.7347692 0.100839161 0.0407285442 0.100839161 0.0407285442 42.2999981 34.7347692 42.2999981 34.7347692 0.100839161"></polygon>
        <polygon id="path-3" points="36.3594584 42.2998017 36.3594584 0.100970121 0.111761221 0.100970121 0.111761221 42.2998017 36.3594584 42.2998017"></polygon>
    </defs>
    <g id="Mocks" stroke="none" stroke-width="1" fill="none" fill-rule="evenodd">
        <g id="Work-orders-Copy-5" transform="translate(-85.000000, -234.000000)">
            <g id="Page-1-Copy" transform="translate(85.000000, 234.000000)">
                <g id="Group-3" transform="translate(46.621742, 0.030121)">
                    <mask id="mask-2" fill="white">
                        <use xlink:href="#path-1"></use>
                    </mask>
                    <g id="Clip-2"></g>
                    <path d="M4.38755118,0.100773681 L9.04029625,0.100773681 L26.2318017,29.0805079 L26.2318017,0.100773681 L34.7347692,0.100773681 L34.7347692,42.2998671 L25.7359873,42.2999981 L8.54592244,13.3188233 L8.54592244,42.2999981 L0.0407285442,42.2999981 L0.0407285442,4.62936872 C0.0407285442,2.20791926 1.96505404,0.100773681 4.38755118,0.100773681" id="Fill-1" fill="#FFFFFF" mask="url(#mask-2)"></path>
                </g>
                <path d="M103.744966,0.131156389 L108.027749,0.131156389 L108.027749,16.5139841 L123.728144,0.131156389 L134.701147,0.131156389 L118.864292,16.5139841 L136.14079,42.3299879 L125.591312,42.3299879 L112.890292,23.7157336 L108.027749,29.0991043 L108.027749,42.3299879 L99.4010242,42.3299879 L99.4010242,4.65922759 C99.4010242,2.23804005 101.324826,0.131156389 103.744966,0.131156389" id="Fill-4" fill="#FFFFFF"></path>
                <path d="M139.148207,4.65925378 C139.148207,1.74382339 140.575408,0.194043357 143.493196,0.131182581 L166.697335,0.131182581 L166.697335,7.4539391 L147.652222,7.4539391 L147.652222,16.5138793 L163.350522,16.5138793 C163.350522,16.5138793 163.392167,23.4228024 163.350522,23.6511966 L147.652222,23.6511966 L147.652222,34.5746969 L166.697335,34.5746969 L166.697335,42.3298832 L139.148207,42.3298832 L139.148207,4.65925378 Z" id="Fill-6" fill="#FFFFFF"></path>
                <g id="Group-10" transform="translate(169.593134, 0.030121)">
                    <mask id="mask-4" fill="white">
                        <use xlink:href="#path-3"></use>
                    </mask>
                    <g id="Clip-9"></g>
                    <path d="M13.8875692,42.2998017 L13.8875692,25.7937406 L0.111761221,0.100970121 L9.97920051,0.100970121 L18.2921452,16.365672 L25.1141109,2.64368849 C25.9195146,0.968186904 27.2232209,0.100970121 29.0869119,0.100970121 L36.3595107,0.100970121 L22.6371344,25.7937406 L22.6371344,42.2998017 L13.8875692,42.2998017 Z" id="Fill-8" fill="#FFFFFF" mask="url(#mask-4)"></path>
                </g>
                <polygon id="Fill-11" fill="#6CC2E9" points="22.871317 0.142667769 22.871317 8.75393922 33.5156107 8.75393922 33.5156107 19.4864999 42.2159349 19.4864999 42.2159349 0.142667769"></polygon>
                <path d="M33.2560219,25.3601322 C31.4718235,30.2277826 26.8122685,33.7064717 21.3281897,33.7064717 C14.3040219,33.7064717 8.61132384,28.0139046 8.61132384,20.9920941 C8.61132384,15.4981933 12.1032399,10.8323522 16.9835934,9.0548328 L16.9835934,0.142615385 C9.79493986,1.67013223 3.51462454,6.88665989 1.15773833,13.9592829 C0.427898538,16.1494571 5.23839797e-05,18.6779008 5.23839797e-05,20.9920941 C5.23839797e-05,32.7708938 9.54755652,42.318398 21.3281897,42.318398 C29.8539443,42.318398 39.0148547,36.5819593 41.5798362,28.179569 C41.8557688,27.2796122 42.0608521,26.3335575 42.2159087,25.3601322 L33.2560219,25.3601322 Z" id="Fill-13" fill="#FFFFFF"></path>
            </g>
        </g>
    </g>
</svg>