<?xml version="1.0" encoding="UTF-8"?>
<svg width="24px" height="24px" viewBox="0 0 24 24" version="1.1" xmlns="http://www.w3.org/2000/svg" xmlns:xlink="http://www.w3.org/1999/xlink">
    <!-- Generator: Sketch 54.1 (76490) - https://sketchapp.com -->
    <title>asset_operations_management d copy</title>
    <desc>Created with Sketch.</desc>
    <g id="asset_operations_management-d-copy" stroke="none" stroke-width="1" fill="none" fill-rule="evenodd">
        <path d="M1,15 C1,8.92486775 5.92486775,4 12,4 C18.0751322,4 23,8.92486775 23,15 L19.8571429,15 C19.8571429,10.6606198 16.3393802,7.14285714 12,7.14285714 C7.66061982,7.14285714 4.14285714,10.6606198 4.14285714,15 L1,15 Z" id="Combined-Shape" fill="#000000"></path>
        <polygon id="Rectangle" fill="#FFFFFF" points="0.136676122 10.753876 6.7095452 13.2298334 6.28241427 14.753876 -0.290454803 12.2779187"></polygon>
        <g id="meter-needle" transform="translate(4.709545, 3.753876)">
            <path d="M2.67381727,12.205431 L16.5,1.46153846 L8.80431396,14.2664838 C8.73239023,14.4915616 8.60168535,14.7137039 8.40849935,14.9250845 C7.42185094,16.0046572 5.17907101,16.3947111 3.39911016,15.7962941 C1.61914931,15.1978772 0.976042512,13.8375977 1.96269092,12.758025 C2.15587692,12.5466444 2.39722016,12.3616984 2.67381727,12.205431 L2.67381727,12.205431 Z M3.23961518,17.1638292 C3.65382875,17.1638292 3.98961518,16.5094761 3.98961518,15.7022907 C3.98961518,14.8951053 3.65382875,14.2407523 3.23961518,14.2407523 C2.82540162,14.2407523 2.48961518,14.8951053 2.48961518,15.7022907 C2.48961518,16.5094761 2.82540162,17.1638292 3.23961518,17.1638292 Z" id="Shape" fill="#FFFFFF" transform="translate(9.000000, 9.312684) rotate(-7.000000) translate(-9.000000, -9.312684) "></path>
            <path d="M4.41625736,13.6737476 L12.8584775,3.13488961 L8.15951777,15.6954676 C8.11560138,15.9162501 8.03579343,16.134153 7.91783471,16.3414997 C7.31539055,17.4004701 5.94595676,17.7830802 4.85911873,17.1960834 C3.77228069,16.6090865 3.37960187,15.2747664 3.98204603,14.215796 C4.10000475,14.0084493 4.2473681,13.8270328 4.41625736,13.6737476 L4.41625736,13.6737476 Z M6.09366138,16.3468141 C6.71498172,16.3468141 7.21866138,15.8560493 7.21866138,15.2506603 C7.21866138,14.6452712 6.71498172,14.1545064 6.09366138,14.1545064 C5.47234103,14.1545064 4.96866138,14.6452712 4.96866138,15.2506603 C4.96866138,15.8560493 5.47234103,16.3468141 6.09366138,16.3468141 Z" id="Shape" fill="#000000" transform="translate(8.279003, 10.303123) rotate(5.000000) translate(-8.279003, -10.303123) "></path>
        </g>
        <polygon id="Rectangle-Copy" fill="#FFFFFF" points="2.62514762 6.75387602 7.7095452 10.8451189 6.79394277 11.753876 1.7095452 7.66263313"></polygon>
        <polygon id="Rectangle-Copy-2" fill="#FFFFFF" points="10.7493312 2.75387602 11.7095452 8.42647061 10.6697592 8.75387602 9.7095452 3.08128143"></polygon>
    </g>
</svg>