<?xml version="1.0" encoding="UTF-8"?>
<svg width="24px" height="24px" viewBox="0 0 24 24" version="1.1" xmlns="http://www.w3.org/2000/svg" xmlns:xlink="http://www.w3.org/1999/xlink">
    <!-- Generator: Sketch 54.1 (76490) - https://sketchapp.com -->
    <title>resource_management c</title>
    <desc>Created with Sketch.</desc>
    <g id="resource_management-c" stroke="none" stroke-width="1" fill="none" fill-rule="evenodd">
        <path d="M12,6 C10.6192881,6 9.5,4.88071187 9.5,3.5 C9.5,2.11928813 10.6192881,1 12,1 C13.3807119,1 14.5,2.11928813 14.5,3.5 C14.5,4.88071187 13.3807119,6 12,6 Z M18.5,6 C17.3954305,6 16.5,5.1045695 16.5,4 C16.5,2.8954305 17.3954305,2 18.5,2 C19.6045695,2 20.5,2.8954305 20.5,4 C20.5,5.1045695 19.6045695,6 18.5,6 Z M5.5,6 C4.3954305,6 3.5,5.1045695 3.5,4 C3.5,2.8954305 4.3954305,2 5.5,2 C6.6045695,2 7.5,2.8954305 7.5,4 C7.5,5.1045695 6.6045695,6 5.5,6 Z M1,7.47058824 L3.89473684,7 L5.63157895,8.77777778 L7.36842105,7 L9.68421053,7.47058824 L12,10.1111111 L14.3157895,7.47058824 L16.6315789,7 L18.3684211,8.77777778 L20.1052632,7 L23,7.47058824 L23,11 L21.2631579,12.3333333 L20.6842105,19.4444444 L16.6315789,19.4444444 L16.0526316,15 L14.8947368,15.9411765 L14.609656,19.4170282 L14.3157895,23 L9.68421053,23 L9.10526316,15.9411765 L7.94736842,15 L7.36842105,19.4444444 L3.31578947,19.4444444 L2.73684211,12.3333333 L1,11 L1,7.47058824 Z" id="Combined-Shape" fill="#000000"></path>
        <path d="M12,8.5 C13.1016499,8.5 12.9973568,8.16421356 12.9973568,7.75 C12.9973568,7.33578644 13.1016499,7 12,7 C10.8983501,7 11.0026432,7.33578644 11.0026432,7.75 C11.0026432,8.16421356 10.8983501,8.5 12,8.5 Z" id="Oval" fill="#000000"></path>
        <polygon id="Path-16" fill="#000000" points="12 7 11 10 12 11 13 10"></polygon>
        <path d="M18.4,8 C18.950825,8 18.8986784,7.77614237 18.8986784,7.5 C18.8986784,7.22385763 18.950825,7 18.4,7 C17.849175,7 17.9013216,7.22385763 17.9013216,7.5 C17.9013216,7.77614237 17.849175,8 18.4,8 Z" id="Oval" fill="#000000"></path>
        <path d="M5.7,8 C6.25082496,8 6.19867841,7.77614237 6.19867841,7.5 C6.19867841,7.22385763 6.25082496,7 5.7,7 C5.14917504,7 5.20132159,7.22385763 5.20132159,7.5 C5.20132159,7.77614237 5.14917504,8 5.7,8 Z" id="Oval-Copy-3" fill="#000000"></path>
        <polygon id="Path-16" fill="#000000" points="18.4 7 17.9 9.25 18.4 10 18.9 9.25"></polygon>
        <polygon id="Path-16-Copy" fill="#000000" points="5.7 7 5.2 9.25 5.7 10 6.2 9.25"></polygon>
    </g>
</svg>