<svg viewBox="0 0 24 24" version="1.1" xmlns="http://www.w3.org/2000/svg"><g class="nc-icon-wrapper"><g id="asset_value_management-a-copy-2" stroke="none" fill="none" fill-rule="evenodd"><path d="M14 13.637v-2.728c.912-.552 2.364-.909 4-.909 2.761 0 5 1.018 5 2.273 0 1.255-2.239 2.272-5 2.272-1.636 0-3.088-.357-4-.908zm0 .968c.914.566 2.247.85 4 .85 2.564 0 4.23-.607 5-1.819v2.078c-1.026 1.04-2.692 1.559-5 1.559-1.668 0-3.002-.272-4-.815v-1.853zm0 2.727c.914.567 2.247.85 4 .85 2.564 0 4.23-.606 5-1.818v2.078C21.974 19.48 20.308 20 18 20c-1.668 0-3.002-.272-4-.815v-1.853z" id="Combined-Shape"/><g id="Group" transform="translate(1 2)"><ellipse id="Oval-Copy" cx="6" cy="2.5" rx="6" ry="2.5"/><path d="M0 4v2.286C1.23 7.429 3.23 8 6 8s4.77-.571 6-1.714V4c-.923 1.333-2.923 2-6 2S.923 5.333 0 4z" id="Path-16-Copy-2"/><path d="M0 7v2.286C1.23 10.429 3.23 11 6 11s4.77-.571 6-1.714V7c-.923 1.333-2.923 2-6 2S.923 8.333 0 7z" id="Path-16-Copy-3"/><path d="M0 10v2.286C1.23 13.429 3.23 14 6 14s4.77-.571 6-1.714V10c-.923 1.333-2.923 2-6 2s-5.077-.667-6-2z" id="Path-16-Copy-4"/><path d="M0 13v2.286C1.23 16.429 3.23 17 6 17s4.77-.571 6-1.714V13c-.923 1.333-2.923 2-6 2s-5.077-.667-6-2z" id="Path-16-Copy-5"/><path d="M0 16v2.286C1.23 19.429 3.23 20 6 20s4.77-.571 6-1.714V16c-.923 1.333-2.923 2-6 2s-5.077-.667-6-2z" id="Path-16-Copy-6"/></g></g></g></svg>