<?xml version="1.0" encoding="UTF-8"?>
<svg width="24px" height="24px" viewBox="0 0 24 24" version="1.1" xmlns="http://www.w3.org/2000/svg" xmlns:xlink="http://www.w3.org/1999/xlink">
    <!-- Generator: Sketch 54.1 (76490) - https://sketchapp.com -->
    <title>asset_maintenance_plan a</title>
    <desc>Created with Sketch.</desc>
    <g id="asset_maintenance_plan-a" stroke="none" stroke-width="1" fill="none" fill-rule="evenodd">
        <path d="M22.7712223,17.8654765 L17.4976275,12.5918816 C17.6035347,11.6238464 17.4499159,10.6412547 17.0393506,9.72994242 C16.4330413,8.38394743 15.3387826,7.35456124 13.9582428,6.8315535 C13.327316,6.59254809 12.668837,6.47125203 12.0010653,6.47125203 C9.71815335,6.47125203 7.64065949,7.90609964 6.8315406,10.0418233 C6.30853971,11.4223811 6.3543512,12.924072 6.96066052,14.270067 C7.56696984,15.616225 8.66122855,16.6456112 10.0417683,17.1686189 C10.6726952,17.4076243 11.3311742,17.5289204 11.9989459,17.5289204 C12.1655628,17.5289204 12.3310855,17.5212774 12.4951007,17.5062767 L18.0089068,22.8308973 L16.0279112,23.7231711 C15.8309708,23.8121867 15.6064782,23.8188711 15.4043207,23.7422459 C15.2020002,23.6656207 15.038644,23.5118812 14.9497925,23.3147751 L13.9828604,21.1679652 C12.8680599,21.4100683 11.7110345,21.4459354 10.580094,21.2716538 L9.74586848,23.4735686 C9.66924429,23.6758917 9.51550681,23.8392501 9.3184033,23.9281027 C9.2121076,23.9760342 9.09782343,24 8.98353926,24 C8.88588417,24 8.78790302,23.9823925 8.69481277,23.9471775 L6.55862804,23.137885 C6.13768406,22.9784394 5.9257448,22.507765 6.08518833,22.0868155 L6.91957691,19.8847377 C5.95851387,19.26603 5.11678894,18.4743449 4.44005057,17.552234 L2.29310584,18.5193419 C2.09600233,18.6083575 1.8718358,18.6150419 1.66951532,18.5384167 C1.46735787,18.4617915 1.30383858,18.308052 1.21515015,18.1109459 L0.276911337,16.0282077 C0.188059877,15.8311016 0.181212609,15.6067691 0.257836803,15.404609 C0.334460998,15.2022859 0.488198479,15.0389275 0.685301992,14.9500749 L2.83240975,13.982967 C2.5903099,12.8652173 2.55509538,11.7099702 2.72855951,10.5803191 L0.526510576,9.74591959 C0.105566595,9.58647396 -0.106372667,9.1157996 0.0530708701,8.6948501 L0.862352792,6.5588004 C0.938976986,6.35647726 1.09271447,6.19311886 1.28981798,6.10426624 C1.48708452,6.01557664 1.71141408,6.00872929 1.9134085,6.08519145 L4.11545744,6.91959096 C4.73415705,5.95867836 5.52599474,5.11677936 6.44793053,4.44003212 L5.48083538,2.29305925 C5.29595913,1.88254382 5.47871598,1.3999681 5.88922603,1.21508943 L7.97209989,0.276838319 C8.1692034,0.187985695 8.39369599,0.181301369 8.59569041,0.257763536 C8.79801089,0.334388735 8.96136715,0.488128231 9.05021861,0.685234328 L10.0171507,2.83204417 C11.1321143,2.58994114 12.2889766,2.553911 13.4199171,2.7283556 L14.2541427,0.52644083 C14.3307668,0.324117698 14.4845043,0.160759294 14.6816078,0.0719066696 C14.8788744,-0.016945955 15.1032039,-0.0236302809 15.3051984,0.052831886 L17.4412201,0.862287448 C17.862164,1.02173308 18.0741033,1.49240744 17.9146598,1.91335694 L17.0802712,4.11543474 C18.0411712,4.73414246 18.8830592,5.52599053 19.5597975,6.44793841 L21.7067423,5.48083057 C22.1169263,5.29611493 22.5998217,5.47871115 22.784698,5.88922658 L23.7229368,7.97196471 C23.8117882,8.16907081 23.8186355,8.39340331 23.7420113,8.59556341 C23.6653871,8.79788654 23.5116496,8.96124494 23.3145461,9.05009757 L21.1676014,10.0172054 C21.4097012,11.1351181 21.4449158,12.2900392 21.2714516,13.4198533 L23.4735006,14.2542529 C23.675821,14.3308781 23.8391773,14.4846175 23.9280288,14.6817236 C24.0168802,14.8788297 24.0237275,15.1031622 23.9471033,15.3053223 L23.1378214,17.4415351 C23.0667653,17.6291314 22.9339311,17.7752502 22.7712223,17.8654765 Z M19.5894469,17.5121282 C19.0212488,18.2946661 18.3334523,18.9866938 17.5522436,19.5601403 L17.5916552,19.647635 L14.6750982,16.8311486 C15.5544728,16.3421895 16.2984156,15.6179759 16.8057138,14.7283951 L19.5894466,17.5121279 Z" id="Combined-Shape" fill="#000000" fill-rule="nonzero"></path>
        <path d="M16.0501229,14.03845 L24.8246255,22.7221744 C25.3080778,22.514819 25.8406302,22.4 26.4,22.4 C28.609139,22.4 30.4,24.190861 30.4,26.4 C30.4,26.9752037 30.2785887,27.5220503 30.059995,28.0163108 L27.9035775,25.9121855 L27.3954313,25.9121855 C27.3954313,25.9121855 25.9293589,27.3757056 25.9100708,27.3972652 C25.8959215,27.4130808 25.8959215,27.5829911 25.9100708,27.9069962 L28.0437135,30.047752 C27.5422927,30.2740507 26.9858549,30.4 26.4,30.4 C24.190861,30.4 22.4,28.609139 22.4,26.4 C22.4,25.8747674 22.5012323,25.3731789 22.68525,24.9136814 L13.8937487,16.1117658 C13.4322303,16.2976729 12.928065,16.4 12.4,16.4 C10.190861,16.4 8.4,14.609139 8.4,12.4 C8.4,11.8247963 8.52141132,11.2779497 8.74000501,10.7836892 L10.8964225,12.8878145 L11.4045687,12.8878145 C11.4045687,12.8878145 12.8706411,11.4242944 12.8899292,11.4027348 C12.9040785,11.3869192 12.9040785,11.2170089 12.8899292,10.8930038 L10.7562865,8.75224804 C11.2577073,8.52594934 11.8141451,8.4 12.4,8.4 C14.609139,8.4 16.4,10.190861 16.4,12.4 C16.4,12.9838057 16.2749302,13.5383998 16.0501229,14.03845 Z" id="Combined-Shape" fill="#000000"></path>
    </g>
</svg>