<svg xmlns="http://www.w3.org/2000/svg"><g class="nc-icon-wrapper"><g fill="none" stroke="currentColor"><path d="M23.481 12.255l-.017.027-5.622 9.738c-.058.087-.117.121-.203.121H6.361a.21.21 0 0 1-.186-.094L.52 12.255c-.025-.038-.025-.095.017-.16l5.622-9.738c.058-.086.117-.121.203-.121H17.64a.21.21 0 0 1 .186.094l5.656 9.792a.125.125 0 0 1 0 .133z"/><path d="M12 7.287c2.717 0 4.941 2.224 4.941 4.863 0 2.727-2.235 4.94-4.94 4.94-2.728 0-4.942-2.235-4.942-4.94 0-2.661 2.247-4.863 4.941-4.863z"/></g></g></svg>