<svg viewBox="0 0 24 24" version="1.1" xmlns="http://www.w3.org/2000/svg"><g class="nc-icon-wrapper"><g id="contact_management" stroke="none" fill="none" fill-rule="evenodd"><path d="M1.96 17.008c.312-4.242 2.325-7.873 5.185-9.83l3.13 6.264L7.8 6.252l2.446-.734.743 9.35.172.343V4.121c.594-.195 1.377-.146 1.912.088v11.002l.228-.48.733-9.213 2.446.734-2.24 6.502 2.64-5.559c2.847 1.96 4.85 5.582 5.162 9.813.616.354.959.746.959 1.159C23 19.73 18.075 21 12 21S1 19.731 1 18.167c0-.413.343-.805.96-1.16zM11.795 19C17.726 19 20 17 20 17s-2.274 1-8.204 1C5.866 18 3 17 3 17s2.867 2 8.796 2z" id="Combined-Shape"/></g></g></svg>