<svg xmlns="http://www.w3.org/2000/svg" width="24" height="24">
  <path d="M1 20.938C1 22.075 1.924 23 3.063 23h8.959S8 21.23 8 16s3.642-6.75 3.642-6.75H1v11.688zm2.75-8.422c0-.284.232-.516.516-.516h1.718c.284 0 .516.232.516.516v1.718a.517.517 0 0 1-.516.516H4.266a.517.517 0 0 1-.516-.516v-1.718zm0 5.5c0-.284.232-.516.516-.516h1.718c.284 0 .516.232.516.516v1.718a.517.517 0 0 1-.516.516H4.266a.517.517 0 0 1-.516-.516v-1.718zM18.188 3.75h-2.063V1.687A.69.69 0 0 0 15.437 1h-1.374a.69.69 0 0 0-.688.688V3.75h-5.5V1.687A.69.69 0 0 0 7.187 1H5.813a.69.69 0 0 0-.687.688V3.75H3.062A2.063 2.063 0 0 0 1 5.813v2.062h19.25V5.812a2.063 2.063 0 0 0-2.063-2.062z"/>
  <path d="M16 9c-3.867 0-7 3.133-7 7s3.133 7 7 7 7-3.133 7-7-3.133-7-7-7zm.628 10.172l-2.49-1.81A.34.34 0 0 1 14 17.09v-4.75a.34.34 0 0 1 .339-.339h1.355a.34.34 0 0 1 .338.339v3.886l1.793 1.304a.34.34 0 0 1 .073.475l-.796 1.095a.341.341 0 0 1-.474.073z"/>
</svg>
