<?xml version="1.0" encoding="UTF-8"?>
<svg width="24px" height="24px" viewBox="0 0 24 24" version="1.1" xmlns="http://www.w3.org/2000/svg" xmlns:xlink="http://www.w3.org/1999/xlink">
    <!-- Generator: Sketch 54.1 (76490) - https://sketchapp.com -->
    <title>device_management</title>
    <desc>Created with Sketch.</desc>
    <g id="device_management" stroke="none" stroke-width="1" fill="none" fill-rule="evenodd">
        <path d="M16,5 L14,5 L14,3.5 C14,3.22385763 13.7761424,3 13.5,3 L3.5,3 C3.22385763,3 3,3.22385763 3,3.5 L3,18.5 C3,18.7761424 3.22385763,19 3.5,19 L12,19 L12,22.5 C12,22.7761424 12.2238576,23 12.5,23 L1.5,23 C1.22385763,23 1,22.7761424 1,22.5 L1,1.5 C1,1.22385763 1.22385763,1 1.5,1 L15.5,1 C15.7761424,1 16,1.22385763 16,1.5 L16,5 Z M8.5,22.5 C9.32842712,22.5 10,21.8284271 10,21 C10,20.1715729 9.32842712,19.5 8.5,19.5 C7.67157288,19.5 7,20.1715729 7,21 C7,21.8284271 7.67157288,22.5 8.5,22.5 Z" id="Combined-Shape" fill="#000000"></path>
        <g id="Group-2" transform="translate(13.000000, 6.000000)" fill="#000000">
            <path d="M0.5,0 L9.5,0 C9.77614237,-5.07265313e-17 10,0.223857625 10,0.5 L10,15.5 C10,15.7761424 9.77614237,16 9.5,16 L0.5,16 C0.223857625,16 3.38176876e-17,15.7761424 0,15.5 L0,0.5 C-3.38176876e-17,0.223857625 0.223857625,5.07265313e-17 0.5,0 Z M2.5,2 C2.22385763,2 2,2.22385763 2,2.5 L2,11.5 C2,11.7761424 2.22385763,12 2.5,12 L7.5,12 C7.77614237,12 8,11.7761424 8,11.5 L8,2.5 C8,2.22385763 7.77614237,2 7.5,2 L2.5,2 Z M5,15 C5.55228475,15 6,14.5522847 6,14 C6,13.4477153 5.55228475,13 5,13 C4.44771525,13 4,13.4477153 4,14 C4,14.5522847 4.44771525,15 5,15 Z" id="Combined-Shape"></path>
        </g>
    </g>
</svg>