<svg xmlns="http://www.w3.org/2000/svg" width="24" height="24">
  <path d="M3.93 20.173c-2.608-2.35-2.56-6.14.062-8.482l9.365-8.365c1.978-1.768 5.194-1.768 7.173 0 1.959 1.75 1.961 4.574 0 6.326l-8.163 7.285c-1.333 1.19-3.51 1.174-4.82-.04-1.263-1.168-1.223-3.02.064-4.169l6.417-5.724a.79.79 0 0 1 1.01-.01l1.02.873a.57.57 0 0 1 .011.882l-6.416 5.724c-.22.196-.234.523-.029.713.195.18.502.184.7.006l8.163-7.284c.876-.782.876-2.056 0-2.838-.857-.766-2.23-.766-3.087 0l-9.365 8.365c-1.552 1.386-1.576 3.63-.053 5.002 1.518 1.368 3.973 1.37 5.494.011l7.681-6.861a.79.79 0 0 1 1.01-.01l1.021.871a.57.57 0 0 1 .012.883l-7.681 6.861c-2.66 2.376-6.962 2.348-9.588-.019z"/>
</svg>
