<svg xmlns="http://www.w3.org/2000/svg"><g class="nc-icon-wrapper"><path d="M18.66 13.472a5.884 5.884 0 0 0-9.317 6.98 84.06 84.06 0 0 1-.2.237 4.885 4.885 0 0 1-3.734 1.753A4.915 4.915 0 0 1 .5 17.533c0-1.418.631-2.783 1.732-3.745 1.876-1.584 3.25-2.609 4.463-3.515A61.733 61.733 0 0 0 9.081 8.43a6.444 6.444 0 0 1-.165-1.417A7.021 7.021 0 0 1 15.929 0c.66 0 1.344.115 2.089.348a.702.702 0 0 1 .279 1.171l-3.71 3.626.534 2.675 2.685.537 3.669-3.587a.692.692 0 0 1 .67-.176.708.708 0 0 1 .496.482c.206.71.301 1.324.301 1.937a7.024 7.024 0 0 1-4.281 6.46z"/><path d="M20.568 17.681a6.1 6.1 0 0 0-6.09-6.09 6.1 6.1 0 0 0-6.09 6.09 6.1 6.1 0 0 0 6.09 6.09 6.1 6.1 0 0 0 6.09-6.09zm-1.324 0a4.756 4.756 0 0 1-4.766 4.766 4.756 4.756 0 0 1-4.766-4.766 4.756 4.756 0 0 1 4.766-4.765 4.756 4.756 0 0 1 4.766 4.765zm-2.117 0l-.37-.403-2.845-3.082-.87.808 2.47 2.677-2.47 2.678.87.808 2.844-3.082.37-.404z"/></g></svg>