<svg xmlns="http://www.w3.org/2000/svg"><g class="nc-icon-wrapper"><path d="M23 12c0 6.076-4.925 11-11 11S1 18.076 1 12C1 5.927 5.925 1 12 1s11 4.927 11 11zM12.295 4.637c-2.417 0-3.959 1.018-5.17 2.828a.533.533 0 0 0 .121.721l1.54 1.167a.53.53 0 0 0 .738-.094c.793-1.005 1.336-1.588 2.542-1.588.906 0 2.027.583 2.027 1.462 0 .664-.548 1.006-1.443 1.507-1.044.585-2.424 1.313-2.424 3.134v.178c0 .294.238.532.532.532h2.484a.532.532 0 0 0 .532-.532v-.06c0-1.262 3.69-1.315 3.69-4.73 0-2.573-2.669-4.525-5.169-4.525zm-.295 11c-1.125 0-2.04.915-2.04 2.04s.915 2.04 2.04 2.04 2.04-.915 2.04-2.04-.915-2.04-2.04-2.04z"/></g></svg>