<svg viewBox="0 0 24 24" version="1.1" xmlns="http://www.w3.org/2000/svg"><g class="nc-icon-wrapper"><g id="material_management-a-copy" stroke="none" fill="none" fill-rule="evenodd"><rect id="Rectangle" x="1" y="1" width="3.5" height="5" rx=".5"/><rect id="Rectangle-Copy" x="5" y="1" width="5" height="5" rx=".5"/><rect id="Rectangle-Copy-2" x="10.5" y="1" width="3.5" height="5" rx=".5"/><rect id="Rectangle-Copy-3" x="5" y="6.5" width="5" height="6" rx=".5"/><path d="M5.898 13.144l3.152-.136a.911.911 0 0 1 .95.884.938.938 0 0 1-.898.964l-3.152.136a.911.911 0 0 1-.95-.884.938.938 0 0 1 .898-.964z" id="Rectangle"/><path d="M5.898 15.81l3.152-.135a.911.911 0 0 1 .95.884.938.938 0 0 1-.898.964l-3.152.136a.911.911 0 0 1-.95-.885.938.938 0 0 1 .898-.964z" id="Rectangle-Copy-4"/><path d="M5.898 18.477l3.152-.136a.911.911 0 0 1 .95.885.938.938 0 0 1-.898.964l-3.152.135a.911.911 0 0 1-.95-.884.938.938 0 0 1 .898-.964z" id="Rectangle-Copy-5"/><path d="M5.898 21.144l3.152-.136a.911.911 0 0 1 .95.884.938.938 0 0 1-.898.964l-3.152.136a.911.911 0 0 1-.95-.884.938.938 0 0 1 .898-.964z" id="Rectangle-Copy-5"/><path d="M22.948 15.836a.288.288 0 0 1 0 .328l-2.82 4.672a.365.365 0 0 1-.309.164h-5.638a.365.365 0 0 1-.31-.164l-2.82-4.672a.288.288 0 0 1 0-.328l2.82-4.672a.365.365 0 0 1 .31-.164h5.638c.138 0 .241.066.31.164l2.82 4.672zM17 19c1.671 0 3-1.381 3-2.978A3.02 3.02 0 0 0 17 13c-1.671 0-3 1.381-3 3.022C14 17.662 15.371 19 17 19z" id="Combined-Shape" fill-rule="nonzero"/></g></g></svg>