<svg xmlns="http://www.w3.org/2000/svg"><g class="nc-icon-wrapper"><path d="M23.677 5.735a.752.752 0 0 0-.53-.507.748.748 0 0 0-.716.186l-3.924 3.772-2.871-.565-.571-2.813 3.967-3.814a.729.729 0 0 0 .205-.7.743.743 0 0 0-.503-.532C17.936.517 17.206.396 16.5.396 12.364.396 9 3.706 9 7.773c0 .476.057.958.177 1.49A65.898 65.898 0 0 1 6.626 11.2c-1.298.953-2.768 2.031-4.774 3.697C.675 15.91 0 17.345 0 18.837 0 21.684 2.355 24 5.25 24a5.26 5.26 0 0 0 3.993-1.844c1.724-1.987 2.837-3.446 3.816-4.734a66.13 66.13 0 0 1 1.925-2.449 6.93 6.93 0 0 0 1.516.176c4.136 0 7.5-3.31 7.5-7.376 0-.645-.102-1.291-.323-2.038zM5.25 20.312c-.83 0-1.5-.66-1.5-1.475 0-.816.67-1.475 1.5-1.475s1.5.659 1.5 1.475c0 .816-.67 1.475-1.5 1.475z"/></g></svg>