<?xml version="1.0" encoding="UTF-8"?>
<svg width="1926px" height="812px" viewBox="0 0 1926 812" version="1.1" xmlns="http://www.w3.org/2000/svg" xmlns:xlink="http://www.w3.org/1999/xlink">
    <!-- Generator: Sketch 55.2 (78181) - https://sketchapp.com -->
    <title>dashboard</title>
    <desc>Created with Sketch.</desc>
    <defs>
        <filter x="-3.1%" y="-1.4%" width="106.2%" height="102.8%" filterUnits="objectBoundingBox" id="filter-1">
            <feOffset dx="0" dy="0" in="SourceAlpha" result="shadowOffsetOuter1"></feOffset>
            <feGaussianBlur stdDeviation="2.5" in="shadowOffsetOuter1" result="shadowBlurOuter1"></feGaussianBlur>
            <feColorMatrix values="0 0 0 0 0   0 0 0 0 0   0 0 0 0 0  0 0 0 0.5 0" type="matrix" in="shadowBlurOuter1" result="shadowMatrixOuter1"></feColorMatrix>
            <feMerge>
                <feMergeNode in="shadowMatrixOuter1"></feMergeNode>
                <feMergeNode in="SourceGraphic"></feMergeNode>
            </feMerge>
        </filter>
        <rect id="path-2" x="0" y="0" width="1543" height="660" rx="4"></rect>
        <filter x="-0.7%" y="-1.6%" width="101.4%" height="103.2%" filterUnits="objectBoundingBox" id="filter-3">
            <feOffset dx="0" dy="0" in="SourceAlpha" result="shadowOffsetOuter1"></feOffset>
            <feGaussianBlur stdDeviation="3.5" in="shadowOffsetOuter1" result="shadowBlurOuter1"></feGaussianBlur>
            <feColorMatrix values="0 0 0 0 0   0 0 0 0 0   0 0 0 0 0  0 0 0 0.5 0" type="matrix" in="shadowBlurOuter1"></feColorMatrix>
        </filter>
    </defs>
    <g id="Page-1" stroke="none" stroke-width="1" fill="none" fill-rule="evenodd">
        <g id="dashboard">
            <rect id="--c-global-bg" fill="#F4F6F8" x="0" y="0" width="1921" height="807"></rect>
            <g id="OK-Assist" transform="translate(1585.000000, 49.000000)">
                <g id="appbarbg">
                    <g id="path-1-link" filter="url(#filter-1)" fill="#000000" fill-rule="nonzero">
                        <polygon id="path-1" points="0 0 336 0 336 758 0 758"></polygon>
                    </g>
                    <g id="path-1-link" fill="#FFFFFF">
                        <polygon id="--c-surface-bg" points="0 0 336 0 336 758 0 758"></polygon>
                    </g>
                </g>
                <g id="Actions_button" transform="translate(13.000000, 137.000000)">
                    <rect id="--c-surface-bg" stroke="#BCBCBE" fill="#FFFFFF" fill-rule="nonzero" x="0.5" y="0.5" width="309" height="113" rx="4"></rect>
                    <rect id="--c-group-bar" stroke="#BCBCBE" fill="#F4F4F4" fill-rule="nonzero" x="0.5" y="0.5" width="309" height="48" rx="3"></rect>
                    <path d="M24.0390621,26.5664121 C23.9843747,26.5117247 23.9570311,26.4388081 23.9570311,26.3476626 C23.9570311,26.2565171 23.9843747,26.174486 24.0390621,26.1015694 L29.7812359,20.3867393 C29.8359233,20.3138227 29.9088399,20.2773645 29.9999854,20.2773645 C30.0911309,20.2773645 30.1640475,20.3138227 30.2187349,20.3867393 L35.9609087,26.1015694 C36.0155961,26.174486 36.0429397,26.2565171 36.0429397,26.3476626 C36.0429397,26.4388081 36.0155961,26.5117247 35.9609087,26.5664121 L35.414035,27.1132857 C35.3593476,27.1862024 35.286431,27.2226605 35.1952855,27.2226605 C35.10414,27.2226605 35.022109,27.1862024 34.9491923,27.1132857 L29.9999854,22.1640788 L25.0507784,27.1132857 C24.9778618,27.1862024 24.8958308,27.2226605 24.8046853,27.2226605 C24.7135398,27.2226605 24.6406232,27.1862024 24.5859358,27.1132857 L24.0390621,26.5664121 Z" id="--c-text" fill="#292C36" fill-rule="nonzero"></path>
                    <path d="M3.04954242,1 L8,1 L8,48.0067626 L3.04954242,48.0067626 C2.27634377,48.0067626 1,46.7458016 1,46.1292977 L1,2.89700165 C1,2.28049774 2.27634377,1 3.04954242,1 Z" id="--c-accent" fill="#0076C2" fill-rule="nonzero"></path>
                    <g id="--c-subheading" transform="translate(52.000000, 13.000000)" fill="#292C36" font-family="SourceSansPro-Bold, Source Sans Pro" font-size="16" font-weight="bold">
                        <text id="&lt;?xml-version=&quot;1.0&quot;-encoding=&quot;UTF-8&quot;?&gt;-">
                            <tspan x="0.348" y="16">Actions</tspan>
                        </text>
                    </g>
                    <g id="--c-text" transform="translate(35.000000, 71.000000)" fill="#292C36" font-family="SourceSansPro-Bold, Source Sans Pro" font-size="16" font-weight="bold">
                        <text id="Cross-Reference">
                            <tspan x="0.328" y="16">Cross Reference</tspan>
                        </text>
                    </g>
                </g>
                <g id="btn_action-copy" transform="translate(12.000000, 69.000000)">
                    <path d="M3,0.5 L309,0.5 C310.380712,0.5 311.5,1.95204946 311.5,3.74324324 L311.5,45.2567568 C311.5,47.0479506 310.380712,48.5 309,48.5 L3,48.5 C1.61928812,48.5 0.5,47.0479506 0.5,45.2567568 L0.5,3.74324324 C0.5,1.95204946 1.61928812,0.5 3,0.5 Z" id="--c-p-button-bg" stroke="#69666F" fill="#F4F4F4" stroke-linecap="square"></path>
                    <g id="Button-text-Copy" transform="translate(111.000000, 14.000000)" fill="#292C36" font-family="SourceSansPro-Bold, Source Sans Pro" font-size="16" font-weight="bold">
                        <text id="--c-p-button">
                            <tspan x="0.672" y="16">Data Actions</tspan>
                        </text>
                    </g>
                </g>
                <rect id="--c-sidebar-header" fill="#F4F4F4" x="0" y="0" width="336" height="48"></rect>
                <g id="Close" transform="translate(296.000000, 12.000000)">
                    <rect id="Rectangle" x="0" y="0" width="24" height="24"></rect>
                    <path d="M13.3124826,12.6249866 L17.0741923,16.4218525 C17.1913794,16.5156025 17.2499732,16.6445081 17.2499732,16.8085704 C17.2499732,16.9726327 17.1913794,17.1015382 17.0741923,17.1952882 L16.1952882,18.0741923 C16.1015382,18.1913794 15.9726327,18.2499732 15.8085704,18.2499732 C15.6445081,18.2499732 15.5156025,18.1913794 15.4218525,18.0741923 L11.6249866,14.3124826 L7.82812064,18.0741923 C7.73437069,18.1913794 7.6054651,18.2499732 7.44140281,18.2499732 C7.27734053,18.2499732 7.14843494,18.1913794 7.05468499,18.0741923 L6.17578083,17.1952882 C6.05859379,17.1015382 6,16.9726327 6,16.8085704 C6,16.6445081 6.05859379,16.5156025 6.17578083,16.4218525 L9.93749061,12.6249866 L6.17578083,8.8281206 C6.05859379,8.7343707 6,8.6054651 6,8.4414028 C6,8.2773405 6.05859379,8.1484349 6.17578083,8.054685 L7.05468499,7.17578083 C7.14843494,7.05859379 7.27734053,7 7.44140281,7 C7.6054651,7 7.73437069,7.05859379 7.82812064,7.17578083 L11.6249866,10.9374906 L15.4218525,7.17578083 C15.5156025,7.05859379 15.6445081,7 15.8085704,7 C15.9726327,7 16.1015382,7.05859379 16.1952882,7.17578083 L17.0741923,8.054685 C17.1913794,8.1484349 17.2499732,8.2773405 17.2499732,8.4414028 C17.2499732,8.6054651 17.1913794,8.7343707 17.0741923,8.8281206 L13.3124826,12.6249866 Z" id="--c-text" fill="#292C36" fill-rule="nonzero"></path>
                </g>
                <g id="--c-text" transform="translate(14.000000, 14.000000)" fill="#292C36" font-family="SourceSansPro-Bold, Source Sans Pro" font-size="16" font-weight="bold">
                    <text id="Assist">
                        <tspan x="0" y="16">Assist</tspan>
                    </text>
                </g>
            </g>
            <g id="Grid" transform="translate(8.000000, 119.000000)">
                <g id="Grid-Background" transform="translate(11.000000, 0.000000)">
                    <g id="path-4-link" fill-rule="nonzero">
                        <g id="path-4">
                            <use fill="black" fill-opacity="1" filter="url(#filter-3)" xlink:href="#path-2"></use>
                            <use fill="#000000" xlink:href="#path-2"></use>
                        </g>
                    </g>
                    <g id="path-4-link" fill="#FFFFFF">
                        <rect id="--c-surface-bg" x="0" y="0" width="1543" height="660" rx="4"></rect>
                    </g>
                </g>
                <g id="Deviders" transform="translate(52.000000, 168.000000)" fill="#DADADA" fill-rule="nonzero">
                    <rect id="Rectangle" x="214" y="0" width="1" height="443"></rect>
                    <rect id="Rectangle" x="0" y="0" width="1" height="443"></rect>
                    <rect id="Rectangle" x="546" y="0" width="1" height="443"></rect>
                    <rect id="Rectangle" x="809" y="0" width="1" height="443"></rect>
                </g>
                <g id="--c-text" transform="translate(1436.000000, 627.000000)" fill="#292929" fill-opacity="0.8" font-size="13.9200001">
                    <text font-family="SourceSansPro-Regular, Source Sans Pro" font-weight="normal">
                        <tspan x="0.10352" y="14">Total Records:</tspan>
                    </text>
                    <text font-family="SourceSansPro-Bold, Source Sans Pro" font-weight="bold">
                        <tspan x="90.50048" y="14">13</tspan>
                    </text>
                </g>
                <g id="Tier-2-Details" transform="translate(0.452767, 167.000000)">
                    <polygon id="--c-surface-bg" fill="#FFFFFF" fill-rule="nonzero" points="10.5472335 1 1553.54723 1 1553.54723 444 10.5472335 444"></polygon>
                    <g id="Row-9" transform="translate(11.547935, 394.000000)">
                        <polygon id="Background-light" fill-opacity="0" fill="#FFFFFF" fill-rule="nonzero" points="0 0 951.32978 0 951.32978 49 0 49"></polygon>
                        <g id="Group-17" opacity="0.800000012" transform="translate(56.849583, 19.000000)" fill="#292929" font-family="SourceSansPro-Regular, Source Sans Pro" font-size="16" font-weight="normal">
                            <g id="--c-text">
                                <text id="BERA">
                                    <tspan x="1.42108547e-13" y="16">BERA</tspan>
                                </text>
                            </g>
                        </g>
                        <g id="Group-17-Copy" opacity="0.800000012" transform="translate(274.310317, 19.000000)" fill="#292929" font-family="SourceSansPro-Regular, Source Sans Pro" font-size="16" font-weight="normal">
                            <g id="--c-text">
                                <text id="Ben-Randell">
                                    <tspan x="1.42108547e-13" y="16">Ben Randell</tspan>
                                </text>
                            </g>
                        </g>
                        <g id="Group-17-Copy-2" opacity="0.800000012" transform="translate(603.729309, 19.000000)" fill="#292929" font-family="SourceSansPro-Regular, Source Sans Pro" font-size="16" font-weight="normal">
                            <g id="--c-text">
                                <text id="1">
                                    <tspan x="1.13686838e-13" y="16">1</tspan>
                                </text>
                            </g>
                        </g>
                        <g id="Group-17-Copy-3" opacity="0.800000012" transform="translate(862.702850, 19.000000)" fill="#292929" font-family="SourceSansPro-Regular, Source Sans Pro" font-size="16" font-weight="normal">
                            <g id="--c-text">
                                <text id="A31">
                                    <tspan x="1.13686838e-13" y="16">A31</tspan>
                                </text>
                            </g>
                        </g>
                        <path d="M16.7227256,18.375 L26.5309894,18.375 C27.9117013,18.375 29.0309894,19.4942881 29.0309894,20.875 L29.0309894,30.125 C29.0309894,31.5057119 27.9117013,32.625 26.5309894,32.625 L16.7227256,32.625 C15.3420137,32.625 14.2227256,31.5057119 14.2227256,30.125 L14.2227256,20.875 C14.2227256,19.4942881 15.3420137,18.375 16.7227256,18.375 Z M16.7227256,19.375 C15.8942985,19.375 15.2227256,20.0465729 15.2227256,20.875 L15.2227256,30.125 C15.2227256,30.9534271 15.8942985,31.625 16.7227256,31.625 L26.5309894,31.625 C27.3594165,31.625 28.0309894,30.9534271 28.0309894,30.125 L28.0309894,20.875 C28.0309894,20.0465729 27.3594165,19.375 26.5309894,19.375 L16.7227256,19.375 Z" id="--c-text" fill-opacity="0.8" fill="#292929" fill-rule="nonzero"></path>
                    </g>
                    <g id="Row-8" transform="translate(10.570997, 345.000000)">
                        <polygon id="Background-light" points="0 -1.13686838e-13 1542.41027 -1.13686838e-13 1542.41027 49 0 49"></polygon>
                        <g id="Group" transform="translate(14.022116, 14.000000)" fill="#292929">
                            <g id="--c-text" opacity="0.800000012" transform="translate(42.000000, 0.000000)" font-family="SourceSansPro-Regular, Source Sans Pro" font-size="16" font-weight="normal">
                                <text id="BBB">
                                    <tspan x="0" y="16.5">BBB</tspan>
                                </text>
                            </g>
                            <path d="M2.5,3.375 L11.8076791,3.375 C13.188391,3.375 14.3076791,4.49428813 14.3076791,5.875 L14.3076791,15.125 C14.3076791,16.5057119 13.188391,17.625 11.8076791,17.625 L2.5,17.625 C1.11928813,17.625 1.11022302e-16,16.5057119 1.11022302e-16,15.125 L1.11022302e-16,5.875 C1.11022302e-16,4.49428813 1.11928813,3.375 2.5,3.375 Z M2.5,4.375 C1.67157288,4.375 1,5.04657288 1,5.875 L1,15.125 C1,15.9534271 1.67157288,16.625 2.5,16.625 L11.8076791,16.625 C12.6361062,16.625 13.3076791,15.9534271 13.3076791,15.125 L13.3076791,5.875 C13.3076791,5.04657288 12.6361062,4.375 11.8076791,4.375 L2.5,4.375 Z" id="--c-text" fill-opacity="0.8" fill-rule="nonzero"></path>
                            <g id="Group-17-Copy" opacity="0.800000012" transform="translate(259.070917, 0.000000)" font-family="SourceSansPro-Regular, Source Sans Pro" font-size="16" font-weight="normal">
                                <g id="--c-text">
                                    <text id="BBB">
                                        <tspan x="-2.27373675e-13" y="16.5">BBB</tspan>
                                    </text>
                                </g>
                            </g>
                            <g id="Group-17-Copy-2" opacity="0.800000012" transform="translate(590.456205, 0.000000)" font-family="SourceSansPro-Regular, Source Sans Pro" font-size="16" font-weight="normal">
                                <g id="--c-text">
                                    <text id="1">
                                        <tspan x="-1.13686838e-13" y="16.5">1</tspan>
                                    </text>
                                </g>
                            </g>
                            <g id="Group-17-Copy-3" opacity="0.800000012" transform="translate(848.575049, 0.000000)" font-family="SourceSansPro-Regular, Source Sans Pro" font-size="16" font-weight="normal">
                                <g id="--c-text">
                                    <text id="A11">
                                        <tspan x="0" y="16.5">A11</tspan>
                                    </text>
                                </g>
                            </g>
                        </g>
                    </g>
                    <g id="Row-7" transform="translate(24.591496, 313.000000)" fill="#292929">
                        <g id="Group-17-Copy" opacity="0.800000012" transform="translate(259.174235, 0.000000)" font-family="SourceSansPro-Regular, Source Sans Pro" font-size="16" font-weight="normal">
                            <g id="--c-text">
                                <text id="Arch-Welder">
                                    <tspan x="0" y="16.5">Arch Welder</tspan>
                                </text>
                            </g>
                        </g>
                        <g id="Group-17-Copy-2" opacity="0.800000012" transform="translate(589.880876, 0.000000)" font-family="SourceSansPro-Regular, Source Sans Pro" font-size="16" font-weight="normal">
                            <g id="--c-text">
                                <text id="1">
                                    <tspan x="0" y="16.5">1</tspan>
                                </text>
                            </g>
                        </g>
                        <g id="Group-17-Copy-3" opacity="0.800000012" transform="translate(849.028442, 0.000000)" font-family="SourceSansPro-Regular, Source Sans Pro" font-size="16" font-weight="normal">
                            <g id="--c-text">
                                <text id="VIRTUAL-_-GLOBAL">
                                    <tspan x="0" y="16.5">VIRTUAL _ GLOBAL</tspan>
                                </text>
                            </g>
                        </g>
                        <g id="checkbox-copy-3" transform="translate(0.000000, 0.500000)" fill-opacity="0.8" fill-rule="nonzero">
                            <path d="M2.5,0 L11.5,0 C12.8807119,0 14,1.11928813 14,2.5 L14,11.5 C14,12.8807119 12.8807119,14 11.5,14 L2.5,14 C1.11928813,14 0,12.8807119 0,11.5 L0,2.5 C0,1.11928813 1.11928813,0 2.5,0 Z M2.5,1 C1.67157288,1 1,1.67157288 1,2.5 L1,11.5 C1,12.3284271 1.67157288,13 2.5,13 L11.5,13 C12.3284271,13 13,12.3284271 13,11.5 L13,2.5 C13,1.67157288 12.3284271,1 11.5,1 L2.5,1 Z" id="--c-text"></path>
                        </g>
                        <g id="--c-text" opacity="0.800000012" transform="translate(42.000000, 0.000000)" font-family="SourceSansPro-Regular, Source Sans Pro" font-size="16" font-weight="normal">
                            <text id="AW001">
                                <tspan x="0" y="16.5">AW001</tspan>
                            </text>
                        </g>
                    </g>
                    <g id="Row-6" transform="translate(10.570997, 247.000000)">
                        <polygon id="Background-light" points="0 0 1542.41027 0 1542.41027 49 0 49"></polygon>
                        <path d="M15.4539745,17.375 L25.2716669,17.375 C26.6523788,17.375 27.7716669,18.4942881 27.7716669,19.875 L27.7716669,29.125 C27.7716669,30.5057119 26.6523788,31.625 25.2716669,31.625 L15.4539745,31.625 C14.0732626,31.625 12.9539745,30.5057119 12.9539745,29.125 L12.9539745,19.875 C12.9539745,18.4942881 14.0732626,17.375 15.4539745,17.375 Z M15.4539745,18.375 C14.6255474,18.375 13.9539745,19.0465729 13.9539745,19.875 L13.9539745,29.125 C13.9539745,29.9534271 14.6255474,30.625 15.4539745,30.625 L25.2716669,30.625 C26.100094,30.625 26.7716669,29.9534271 26.7716669,29.125 L26.7716669,19.875 C26.7716669,19.0465729 26.100094,18.375 25.2716669,18.375 L15.4539745,18.375 Z" id="--c-text" fill-opacity="0.8" fill="#292929" fill-rule="nonzero"></path>
                        <g id="Group-17" opacity="0.800000012" transform="translate(56.679616, 17.000000)" fill="#292929" font-family="SourceSansPro-Regular, Source Sans Pro" font-size="16" font-weight="normal">
                            <g id="--c-text">
                                <text id="ANWA">
                                    <tspan x="5.68434189e-14" y="16.5">ANWA</tspan>
                                </text>
                            </g>
                        </g>
                        <g id="Group-17-Copy" opacity="0.800000012" transform="translate(273.217566, 17.000000)" fill="#292929" font-family="SourceSansPro-Regular, Source Sans Pro" font-size="16" font-weight="normal">
                            <g id="--c-text">
                                <text id="Andre-Watson">
                                    <tspan x="8.52651283e-14" y="16.5">Andre Watson</tspan>
                                </text>
                            </g>
                        </g>
                        <g id="Group-17-Copy-2" opacity="0.800000012" transform="translate(603.954557, 17.000000)" fill="#292929" font-family="SourceSansPro-Regular, Source Sans Pro" font-size="16" font-weight="normal">
                            <g id="--c-text">
                                <text id="1">
                                    <tspan x="1.13686838e-13" y="16.5">1</tspan>
                                </text>
                            </g>
                        </g>
                        <g id="Group-17-Copy-3" opacity="0.800000012" transform="translate(863.126097, 17.000000)" fill="#292929" font-family="SourceSansPro-Regular, Source Sans Pro" font-size="16" font-weight="normal">
                            <g id="--c-text">
                                <text id="A11">
                                    <tspan x="1.13686838e-13" y="16.5">A11</tspan>
                                </text>
                            </g>
                        </g>
                    </g>
                    <g id="Row-5" transform="translate(0.560747, 211.000000)">
                        <g id="Group-17" opacity="0.800000012" transform="translate(68.255935, 3.000000)" fill="#292929" font-family="SourceSansPro-Regular, Source Sans Pro" font-size="16" font-weight="normal">
                            <g id="--c-text">
                                <text id="ANSM">
                                    <tspan x="1.13686838e-13" y="16.5">ANSM</tspan>
                                </text>
                            </g>
                        </g>
                        <g id="Group-17-Copy" opacity="0.800000012" transform="translate(283.618413, 3.000000)" fill="#292929" font-family="SourceSansPro-Regular, Source Sans Pro" font-size="16" font-weight="normal">
                            <g id="--c-text">
                                <text id="Anton-Smith">
                                    <tspan x="1.13686838e-13" y="16.5">Anton Smith</tspan>
                                </text>
                            </g>
                        </g>
                        <g id="Group-17-Copy-2" transform="translate(614.168307, 3.000000)" fill="#292929" font-family="SourceSansPro-Regular, Source Sans Pro" font-size="16" font-weight="normal">
                            <g id="--c-text">
                                <text id="1">
                                    <tspan x="1.13686838e-13" y="16.5">1</tspan>
                                </text>
                            </g>
                        </g>
                        <g id="Group-17-Copy-3" opacity="0.800000012" transform="translate(873.192047, 3.000000)" fill="#292929" font-family="SourceSansPro-Regular, Source Sans Pro" font-size="16" font-weight="normal">
                            <g id="--c-text">
                                <text id="A31">
                                    <tspan x="1.13686838e-13" y="16.5">A31</tspan>
                                </text>
                            </g>
                        </g>
                        <g id="checkbox" opacity="0" transform="translate(0.000000, 0.500000)">
                            <g id="check">
                                <rect id="checkbox-on-hover-copy" stroke="#9B9B9B" stroke-width="2" fill-opacity="0.8" fill="#292929" fill-rule="nonzero" x="0" y="0" width="20" height="20" rx="2"></rect>
                                <g id="tick-copy-3" transform="translate(2.000000, 4.000000)">
                                    <g id="path-6-link" fill="#000000" fill-rule="nonzero">
                                        <polygon id="path-6" points="5.71428571 12 0 6.23208707 1.61142839 4.61082471 5.71428571 8.7272215 14.3885715 0 16 1.63276089"></polygon>
                                    </g>
                                    <g id="path-6-link" fill="#FFFFFF">
                                        <polygon id="path-6" points="5.71428571 12 0 6.23208707 1.61142839 4.61082471 5.71428571 8.7272215 14.3885715 0 16 1.63276089"></polygon>
                                    </g>
                                </g>
                            </g>
                            <rect id="checkbox-on-hover-copy-2" stroke="#9B9B9B" stroke-width="2" fill="#9B9B9B" fill-rule="nonzero" x="0" y="0" width="20" height="20" rx="2"></rect>
                        </g>
                        <path d="M27.0537541,3.375 L36.8644084,3.375 C38.2451203,3.375 39.3644084,4.49428813 39.3644084,5.875 L39.3644084,15.125 C39.3644084,16.5057119 38.2451203,17.625 36.8644084,17.625 L27.0537541,17.625 C25.6730422,17.625 24.5537541,16.5057119 24.5537541,15.125 L24.5537541,5.875 C24.5537541,4.49428813 25.6730422,3.375 27.0537541,3.375 Z M27.0537541,4.375 C26.225327,4.375 25.5537541,5.04657288 25.5537541,5.875 L25.5537541,15.125 C25.5537541,15.9534271 26.225327,16.625 27.0537541,16.625 L36.8644084,16.625 C37.6928355,16.625 38.3644084,15.9534271 38.3644084,15.125 L38.3644084,5.875 C38.3644084,5.04657288 37.6928355,4.375 36.8644084,4.375 L27.0537541,4.375 Z" id="--c-text" fill-opacity="0.8" fill="#292929" fill-rule="nonzero"></path>
                    </g>
                    <g id="Row-4" transform="translate(10.573559, 149.000000)">
                        <polygon id="Background-light" points="0.32539 0 1543.32539 0 1543.32539 49 0.32539 49"></polygon>
                        <path d="M16.3862774,17.375 L25.1362044,17.375 C26.5169163,17.375 27.6362044,18.4942881 27.6362044,19.875 L27.6362044,29.125 C27.6362044,30.5057119 26.5169163,31.625 25.1362044,31.625 L16.3862774,31.625 C15.0055655,31.625 13.8862774,30.5057119 13.8862774,29.125 L13.8862774,19.875 C13.8862774,18.4942881 15.0055655,17.375 16.3862774,17.375 Z M16.3862774,18.375 C15.5578503,18.375 14.8862774,19.0465729 14.8862774,19.875 L14.8862774,29.125 C14.8862774,29.9534271 15.5578503,30.625 16.3862774,30.625 L25.1362044,30.625 C25.9646315,30.625 26.6362044,29.9534271 26.6362044,29.125 L26.6362044,19.875 C26.6362044,19.0465729 25.9646315,18.375 25.1362044,18.375 L16.3862774,18.375 Z" id="--c-text" fill-opacity="0.8" fill="#292929" fill-rule="nonzero"></path>
                        <g id="Group-17" opacity="0.800000012" transform="translate(55.476934, 17.000000)" fill="#292929" font-family="SourceSansPro-Regular, Source Sans Pro" font-size="16" font-weight="normal">
                            <g id="--c-text">
                                <text id="ANHO">
                                    <tspan x="0" y="16.5">ANHO</tspan>
                                </text>
                            </g>
                        </g>
                        <g id="Group-17-Copy" opacity="0.800000012" transform="translate(273.089344, 17.000000)" fill="#292929" font-family="SourceSansPro-Regular, Source Sans Pro" font-size="16" font-weight="normal">
                            <g id="--c-text">
                                <text id="Andrew-Howlett">
                                    <tspan x="2.84217094e-14" y="16.5">Andrew Howlett</tspan>
                                </text>
                            </g>
                        </g>
                        <g id="Group-17-Copy-2" opacity="0.800000012" transform="translate(603.837228, 17.000000)" fill="#292929" font-family="SourceSansPro-Regular, Source Sans Pro" font-size="16" font-weight="normal">
                            <g id="--c-text">
                                <text id="1">
                                    <tspan x="0" y="16.5">1</tspan>
                                </text>
                            </g>
                        </g>
                        <g id="Group-17-Copy-3" opacity="0.800000012" transform="translate(863.017374, 17.000000)" fill="#292929" font-family="SourceSansPro-Regular, Source Sans Pro" font-size="16" font-weight="normal">
                            <g id="--c-text">
                                <text id="A12">
                                    <tspan x="-1.13686838e-13" y="16.5">A12</tspan>
                                </text>
                            </g>
                        </g>
                    </g>
                    <g id="Row-3-Selected" transform="translate(23.570997, 115.000000)" fill="#292929">
                        <g id="--c-text" opacity="0.800000012" transform="translate(41.000000, 0.000000)" font-family="SourceSansPro-Regular, Source Sans Pro" font-size="16" font-weight="normal">
                            <text id="ALDA">
                                <tspan x="1.42108547e-14" y="16.5">ALDA</tspan>
                            </text>
                        </g>
                        <g id="checkbox" transform="translate(0.000000, 2.500000)" fill-opacity="0.8" fill-rule="nonzero">
                            <path d="M2.5,0 L11.5,0 C12.8807119,0 14,1.11928813 14,2.5 L14,11.5 C14,12.8807119 12.8807119,14 11.5,14 L2.5,14 C1.11928813,14 1.11022302e-16,12.8807119 1.11022302e-16,11.5 L1.11022302e-16,2.5 C1.11022302e-16,1.11928813 1.11928813,0 2.5,0 Z M2.5,1 C1.67157288,1 1,1.67157288 1,2.5 L1,11.5 C1,12.3284271 1.67157288,13 2.5,13 L11.5,13 C12.3284271,13 13,12.3284271 13,11.5 L13,2.5 C13,1.67157288 12.3284271,1 11.5,1 L2.5,1 Z" id="--c-text"></path>
                        </g>
                        <g id="Group-17-Copy" opacity="0.800000012" transform="translate(260.217566, 0.000000)" font-family="SourceSansPro-Regular, Source Sans Pro" font-size="16" font-weight="normal">
                            <g id="--c-text">
                                <text id="Alan-Dawson">
                                    <tspan x="-1.13686838e-13" y="16.5">Alan Dawson</tspan>
                                </text>
                            </g>
                        </g>
                        <g id="Group-17-Copy-2" opacity="0.800000012" transform="translate(590.954557, 0.000000)" font-family="SourceSansPro-Regular, Source Sans Pro" font-size="16" font-weight="normal">
                            <g id="--c-text">
                                <text id="1">
                                    <tspan x="-2.27373675e-13" y="16.5">1</tspan>
                                </text>
                            </g>
                        </g>
                        <g id="Group-17-Copy-3" opacity="0.800000012" transform="translate(850.126097, 0.000000)" font-family="SourceSansPro-Regular, Source Sans Pro" font-size="16" font-weight="normal">
                            <g id="--c-text">
                                <text id="A31">
                                    <tspan x="0" y="16.5">A31</tspan>
                                </text>
                            </g>
                        </g>
                    </g>
                    <g id="Row-2" transform="translate(9.570997, 50.000000)">
                        <polygon id="Background-light" points="1.41027 1.13686838e-13 1544.41027 1.13686838e-13 1544.41027 49 1.41027 49"></polygon>
                        <rect id="--c-item-selected" fill="#BAD8EC" fill-rule="nonzero" x="0.976236" y="0" width="1543" height="49"></rect>
                        <g id="checkbox" transform="translate(13.000000, 16.500000)">
                            <g id="check" transform="translate(0.019218, 0.500000)">
                                <rect id="--c-accent" fill="#0076C2" fill-rule="nonzero" x="0.5" y="0.5" width="13.5" height="13.5" rx="2"></rect>
                                <g id="tick-copy-3" transform="translate(2.000000, 3.000000)">
                                    <g id="path-8-link" fill="#000000" fill-rule="nonzero">
                                        <polygon id="path-8" points="3.80952381 8 0 4.15472471 1.07428559 3.07388314 3.80952381 5.81814768 9.592381 0 10.6666667 1.08850726"></polygon>
                                    </g>
                                    <g id="path-8-link" fill="#FFFFFF">
                                        <polygon id="path-8" points="3.80952381 8 0 4.15472471 1.07428559 3.07388314 3.80952381 5.81814768 9.592381 0 10.6666667 1.08850726"></polygon>
                                    </g>
                                </g>
                            </g>
                        </g>
                        <g id="Group-17" opacity="0.800000012" transform="translate(56.679616, 15.000000)" fill="#292929" font-family="SourceSansPro-Regular, Source Sans Pro" font-size="16" font-weight="normal">
                            <g id="--c-text">
                                <text id="ADMIN">
                                    <tspan x="5.68434189e-14" y="16.5">ADMIN</tspan>
                                </text>
                            </g>
                        </g>
                        <g id="Group-17-Copy" opacity="0.800000012" transform="translate(274.217566, 15.000000)" fill="#292929" font-family="SourceSansPro-Regular, Source Sans Pro" font-size="16" font-weight="normal">
                            <g id="--c-text">
                                <text id="A21-Administrator">
                                    <tspan x="1.13686838e-13" y="16.5">A21 Administrator</tspan>
                                </text>
                            </g>
                        </g>
                        <g id="Group-17-Copy-2" opacity="0.800000012" transform="translate(604.954557, 15.000000)" fill="#292929" font-family="SourceSansPro-Regular, Source Sans Pro" font-size="16" font-weight="normal">
                            <g id="--c-text">
                                <text id="1">
                                    <tspan x="1.13686838e-13" y="16.5">1</tspan>
                                </text>
                            </g>
                        </g>
                        <g id="Group-17-Copy-3" opacity="0.800000012" transform="translate(864.126097, 15.000000)" fill="#292929" font-family="SourceSansPro-Regular, Source Sans Pro" font-size="16" font-weight="normal">
                            <g id="--c-text">
                                <text id="A21">
                                    <tspan x="0" y="16.5">A21</tspan>
                                </text>
                            </g>
                        </g>
                    </g>
                    <g id="Row-border" transform="translate(11.547233, 49.000000)" fill="#DADADA" fill-rule="nonzero">
                        <polygon id="--c-border" transform="translate(771.000000, 0.500000) rotate(-270.000000) translate(-771.000000, -0.500000) " points="770.5 -770.5 771.5 -770.5 771.5 771.5 770.5 771.5"></polygon>
                    </g>
                    <g id="Row-border" transform="translate(11.547233, 0.000000)" fill="#DADADA" fill-rule="nonzero">
                        <polygon id="--c-border" transform="translate(771.000000, 443.500000) rotate(-270.000000) translate(-771.000000, -443.500000) " points="770.5 -327.5 771.5 -327.5 771.5 1214.5 770.5 1214.5"></polygon>
                        <polygon id="--c-border" transform="translate(771.000000, 394.500000) rotate(-270.000000) translate(-771.000000, -394.500000) " points="770.5 -376.5 771.5 -376.5 771.5 1165.5 770.5 1165.5"></polygon>
                        <polygon id="--c-border" transform="translate(771.000000, 345.500000) rotate(-270.000000) translate(-771.000000, -345.500000) " points="770.5 -425.5 771.5 -425.5 771.5 1116.5 770.5 1116.5"></polygon>
                        <polygon id="--c-border" transform="translate(771.000000, 296.500000) rotate(-270.000000) translate(-771.000000, -296.500000) " points="770.5 -474.5 771.5 -474.5 771.5 1067.5 770.5 1067.5"></polygon>
                        <polygon id="--c-border" transform="translate(771.000000, 247.500000) rotate(-270.000000) translate(-771.000000, -247.500000) " points="770.5 -523.5 771.5 -523.5 771.5 1018.5 770.5 1018.5"></polygon>
                        <polygon id="--c-border" transform="translate(771.000000, 198.500000) rotate(-270.000000) translate(-771.000000, -198.500000) " points="770.5 -572.5 771.5 -572.5 771.5 969.5 770.5 969.5"></polygon>
                        <polygon id="--c-border" transform="translate(771.000000, 148.500000) rotate(-270.000000) translate(-771.000000, -148.500000) " points="770.5 -622.5 771.5 -622.5 771.5 919.5 770.5 919.5"></polygon>
                        <polygon id="--c-border" transform="translate(771.000000, 99.500000) rotate(-270.000000) translate(-771.000000, -99.500000) " points="770.5 -671.5 771.5 -671.5 771.5 870.5 770.5 870.5"></polygon>
                        <polygon id="--c-border" transform="translate(771.000000, 49.500000) rotate(-270.000000) translate(-771.000000, -49.500000) " points="770.5 -721.5 771.5 -721.5 771.5 820.5 770.5 820.5"></polygon>
                        <polygon id="--c-border" transform="translate(771.000000, 0.500000) rotate(-270.000000) translate(-771.000000, -0.500000) " points="770.5 -770.5 771.5 -770.5 771.5 771.5 770.5 771.5"></polygon>
                    </g>
                </g>
                <g id="Grid-Top" transform="translate(11.000000, 110.000000)">
                    <polygon id="--c-surface-bg" fill="#FFFFFF" fill-rule="nonzero" points="0 0 1543 0 1543 56 0 56"></polygon>
                    <g id="--c-text" transform="translate(870.000000, 22.000000)" fill="#292929" fill-opacity="0.8" font-family="SourceSansPro-Bold, Source Sans Pro" font-size="13.9200001" font-weight="bold">
                        <text id="--c-subheading">
                            <tspan x="0" y="14">SITE CODE</tspan>
                        </text>
                    </g>
                    <rect id="--c-border" fill="#DADADA" fill-rule="nonzero" x="849.792261" y="0" width="1" height="500"></rect>
                    <g id="--c-text" transform="translate(606.000000, 22.000000)" fill="#292929" fill-opacity="0.8" font-family="SourceSansPro-Bold, Source Sans Pro" font-size="13.9200001" font-weight="bold">
                        <text id="--c-subheading">
                            <tspan x="0.733964" y="14">SEQUENCE NUMBER</tspan>
                        </text>
                    </g>
                    <rect id="--c-border" fill="#DADADA" fill-rule="nonzero" x="586.315003" y="0" width="1" height="500"></rect>
                    <g id="--c-text" transform="translate(277.000000, 22.000000)" fill="#292929" fill-opacity="0.8" font-family="SourceSansPro-Bold, Source Sans Pro" font-size="13.9200001" font-weight="bold">
                        <text id="--c-subheading">
                            <tspan x="0.336287" y="14">DESCRIPTION</tspan>
                        </text>
                    </g>
                    <rect id="--c-border" fill="#DADADA" fill-rule="nonzero" x="255.145961" y="0" width="1" height="500"></rect>
                    <g id="--c-text" transform="translate(55.000000, 22.000000)" fill="#292929" fill-opacity="0.8" font-family="SourceSansPro-Bold, Source Sans Pro" font-size="13.9200001" font-weight="bold">
                        <text id="--c-subheading">
                            <tspan x="0" y="14">CODE</tspan>
                        </text>
                    </g>
                    <rect id="--c-border" fill="#DADADA" fill-rule="nonzero" x="40.6150713" y="0" width="1" height="500"></rect>
                    <path d="M18.1625933,21 L27.6595383,21 C29.0402502,21 30.1595383,22.1192881 30.1595383,23.5 L30.1595383,32.5 C30.1595383,33.8807119 29.0402502,35 27.6595383,35 L18.1625933,35 C16.7818814,35 15.6625933,33.8807119 15.6625933,32.5 L15.6625933,23.5 C15.6625933,22.1192881 16.7818814,21 18.1625933,21 Z M18.1625933,22 C17.3341662,22 16.6625933,22.6715729 16.6625933,23.5 L16.6625933,32.5 C16.6625933,33.3284271 17.3341662,34 18.1625933,34 L27.6595383,34 C28.4879654,34 29.1595383,33.3284271 29.1595383,32.5 L29.1595383,23.5 C29.1595383,22.6715729 28.4879654,22 27.6595383,22 L18.1625933,22 Z" id="--c-text" fill-opacity="0.8" fill="#292929" fill-rule="nonzero"></path>
                </g>
                <g id="Filter" transform="translate(10.000000, 50.000000)">
                    <g id="Group-level" transform="translate(0.042982, 316.000000)">
                        <rect id="--c-group-item-bg" fill="#F4F4F4" x="0" y="0" width="1544" height="48"></rect>
                        <path d="M16.480782,17.5 L25.480782,17.5 C26.8614939,17.5 27.980782,18.6192881 27.980782,20 L27.980782,29 C27.980782,30.3807119 26.8614939,31.5 25.480782,31.5 L16.480782,31.5 C15.1000701,31.5 13.980782,30.3807119 13.980782,29 L13.980782,20 C13.980782,18.6192881 15.1000701,17.5 16.480782,17.5 Z M16.480782,18.5 C15.6523549,18.5 14.980782,19.1715729 14.980782,20 L14.980782,29 C14.980782,29.8284271 15.6523549,30.5 16.480782,30.5 L25.480782,30.5 C26.3092091,30.5 26.980782,29.8284271 26.980782,29 L26.980782,20 C26.980782,19.1715729 26.3092091,18.5 25.480782,18.5 L16.480782,18.5 Z" id="--c-text" fill-opacity="0.8" fill="#292929" fill-rule="nonzero"></path>
                        <path d="M58.7851243,25.3750206 L53.2538875,30.8125076 C53.1601377,30.9375075 53.0351378,31.0000072 52.8788884,31.0000072 C52.722639,31.0000072 52.5820144,30.9375075 52.4570144,30.8125076 L52.1288902,30.4843834 C52.0038903,30.3906336 51.9413907,30.2656337 51.9413907,30.1093843 C51.9413907,29.9531349 52.0038903,29.8125102 52.1288902,29.6875103 L56.9101288,25.0000215 L52.1288902,20.3125326 C52.0351404,20.1875327 51.9882655,20.046908 51.9882655,19.8906586 C51.9882655,19.7344092 52.0351404,19.6094093 52.1288902,19.5156595 L52.4570144,19.1406604 C52.5820144,19.0469107 52.722639,19.0000358 52.8788884,19.0000358 C53.0351378,19.0000358 53.1601377,19.0469107 53.2538875,19.1406604 L58.7851243,24.5781475 C58.8788741,24.7031474 58.925749,24.8437721 58.925749,25.0000215 C58.925749,25.1562708 58.8788741,25.2968955 58.7851243,25.4218955 L58.7851243,25.3750206 Z" id="--c-text" fill="#292929" fill-rule="nonzero" transform="translate(55.433570, 25.000021) rotate(-269.000000) translate(-55.433570, -25.000021) "></path>
                        <text id="--c-text" fill="#292929" font-family="SourceSansPro-Regular, Source Sans Pro" font-size="16" font-weight="normal">
                            <tspan x="74.660398" y="30.5">Group 2</tspan>
                        </text>
                    </g>
                    <g id="Group-level" transform="translate(1.042982, 118.000000)">
                        <rect id="--c-group-item-bg" fill="#F4F4F4" x="0" y="0" width="1543" height="48"></rect>
                        <path d="M15.480782,18.5 L24.480782,18.5 C25.8614939,18.5 26.980782,19.6192881 26.980782,21 L26.980782,30 C26.980782,31.3807119 25.8614939,32.5 24.480782,32.5 L15.480782,32.5 C14.1000701,32.5 12.980782,31.3807119 12.980782,30 L12.980782,21 C12.980782,19.6192881 14.1000701,18.5 15.480782,18.5 Z M15.480782,19.5 C14.6523549,19.5 13.980782,20.1715729 13.980782,21 L13.980782,30 C13.980782,30.8284271 14.6523549,31.5 15.480782,31.5 L24.480782,31.5 C25.3092091,31.5 25.980782,30.8284271 25.980782,30 L25.980782,21 C25.980782,20.1715729 25.3092091,19.5 24.480782,19.5 L15.480782,19.5 Z" id="--c-text" fill-opacity="0.8" fill="#292929" fill-rule="nonzero"></path>
                        <path d="M57.7851243,26.3750206 L52.2538875,31.8125076 C52.1601377,31.9375075 52.0351378,32.0000072 51.8788884,32.0000072 C51.722639,32.0000072 51.5820144,31.9375075 51.4570144,31.8125076 L51.1288902,31.4843834 C51.0038903,31.3906336 50.9413907,31.2656337 50.9413907,31.1093843 C50.9413907,30.9531349 51.0038903,30.8125102 51.1288902,30.6875103 L55.9101288,26.0000215 L51.1288902,21.3125326 C51.0351404,21.1875327 50.9882655,21.046908 50.9882655,20.8906586 C50.9882655,20.7344093 51.0351404,20.6094093 51.1288902,20.5156595 L51.4570144,20.1406604 C51.5820144,20.0469107 51.722639,20.0000358 51.8788884,20.0000358 C52.0351378,20.0000358 52.1601377,20.0469107 52.2538875,20.1406604 L57.7851243,25.5781475 C57.8788741,25.7031474 57.925749,25.8437721 57.925749,26.0000215 C57.925749,26.1562708 57.8788741,26.2968955 57.7851243,26.4218955 L57.7851243,26.3750206 Z" id="--c-text" fill="#292929" fill-rule="nonzero" transform="translate(54.433570, 26.000021) rotate(-269.000000) translate(-54.433570, -26.000021) "></path>
                        <text id="--c-text" fill="#292929" font-family="SourceSansPro-Regular, Source Sans Pro" font-size="16" font-weight="normal">
                            <tspan x="73.660398" y="31.5">Group 1</tspan>
                        </text>
                    </g>
                    <g id="Background-light" transform="translate(1.000000, 0.000000)">
                        <g id="path-10-link" fill="#000000" fill-rule="nonzero">
                            <polygon id="path-10" points="0 0 1543 0 1543 59 0 59"></polygon>
                        </g>
                        <g id="path-10-link" fill="#F3F4F7">
                            <polygon id="path-10" points="0 0 1543 0 1543 59 0 59"></polygon>
                        </g>
                        <g id="path-10-link" transform="translate(0.000000, 2.000000)" fill="#F3F4F7" fill-rule="nonzero">
                            <polygon id="--c-filter-bar" points="0 0 1543 0 1543 56 0 56"></polygon>
                        </g>
                    </g>
                    <g id="Group" transform="translate(8.000000, 18.000000)">
                        <g transform="translate(0.000000, 0.666667)">
                            <g id="--c-placeholder-text" fill="#919298" font-family="SourceSansPro-Regular, Source Sans Pro" font-size="16" font-weight="normal">
                                <text id="Filter">
                                    <tspan x="0" y="16.6666667">Filter</tspan>
                                </text>
                            </g>
                            <g id="Rectangle" transform="translate(0.000000, 30.000000)" fill="#D8D8D8" fill-rule="nonzero">
                                <rect id="--c-border" x="0" y="0.6666667" width="1528" height="1.66666667"></rect>
                            </g>
                        </g>
                    </g>
                </g>
                <g id="Top" transform="translate(11.000000, 0.000000)">
                    <g id="card-bg-copy-5">
                        <g id="path-15-link" transform="translate(3.000000, 2.000000)" fill="#000000" fill-rule="nonzero">
                            <path d="M4,0 L1536,0 C1538.20914,0 1540,1.790861 1540,4 L1540,48 L0,48 L0,4 C0,1.790861 1.790861,0 4,0 Z" id="path-15"></path>
                        </g>
                        <g id="path-15-link">
                            <path d="M4.00779221,0 L1538.99221,0 C1541.20565,0 1543,1.86548021 1543,4.16666667 L1543,50 L4.54747351e-13,50 L4.54747351e-13,4.16666667 C4.54747351e-13,1.86548021 1.79434969,0 4.00779221,0 Z" id="--c-header-bar" fill="#FFFFFF"></path>
                            <polygon id="--c-border" fill="#DADADA" fill-rule="nonzero" transform="translate(771.500000, 50.500000) rotate(-270.000000) translate(-771.500000, -50.500000) " points="771 -721 772 -721 772 822 771 822"></polygon>
                        </g>
                    </g>
                    <g id="--c-text" transform="translate(1467.000000, 15.000000)" fill="#292929" font-family="SourceSansPro-Bold, Source Sans Pro" font-size="16" font-weight="bold">
                        <text id="Details">
                            <tspan x="0.30616" y="16.856">Details</tspan>
                        </text>
                    </g>
                    <g id="--c-text" transform="translate(1396.000000, 15.000000)" fill="#292929" font-family="SourceSansPro-Bold, Source Sans Pro" font-size="16" font-weight="bold">
                        <text id="View">
                            <tspan x="0.87895" y="16.856">View</tspan>
                        </text>
                    </g>
                    <path d="M1344.39591,20.6250271 L1344.39591,19.7500292 C1344.39591,19.5416962 1344.46883,19.3646136 1344.61466,19.2187805 C1344.76049,19.0729473 1344.93758,19.0000334 1345.14591,19.0000334 L1348.6459,19.0000334 L1348.92715,18.4062824 C1348.98965,18.2812827 1349.0834,18.1823245 1349.2084,18.1094081 C1349.3334,18.0364918 1349.46882,18.0000334 1349.61465,18.0000334 L1353.17714,18.0000334 C1353.32297,18.0000334 1353.45839,18.0364918 1353.58339,18.1094081 C1353.70839,18.1823245 1353.80214,18.2812827 1353.86464,18.4062824 L1354.14589,19.0000334 L1357.64588,19.0000334 C1357.85421,19.0000334 1358.03129,19.0729473 1358.17713,19.2187805 C1358.32296,19.3646136 1358.39588,19.5416962 1358.39588,19.7500292 L1358.39588,20.6250271 C1358.39588,20.7291934 1358.35942,20.8177352 1358.2865,20.8906515 C1358.21359,20.9635678 1358.12504,21.0000334 1358.02088,21.0000334 L1344.77091,21.0000334 C1344.66674,21.0000334 1344.5782,20.9635678 1344.50529,20.8906515 C1344.43237,20.8177352 1344.39591,20.7291934 1344.39591,20.6250271 Z M1357.36463,22.4062729 L1356.73963,32.5937486 C1356.7188,32.9895811 1356.56255,33.3229134 1356.27088,33.5937462 C1355.97922,33.864579 1355.63547,33.9999952 1355.23963,33.9999952 L1347.55215,33.9999952 C1347.15632,33.9999952 1346.81257,33.864579 1346.52091,33.5937462 C1346.22924,33.3229134 1346.07299,32.9895811 1346.05216,32.5937486 L1345.42716,22.4062729 C1345.42716,22.3021066 1345.46362,22.2083568 1345.53653,22.1250235 C1345.60945,22.0416903 1345.69799,22.0000238 1345.80216,22.0000238 L1356.98963,22.0000238 C1357.0938,22.0000238 1357.18234,22.0416903 1357.25526,22.1250235 C1357.32817,22.2083568 1357.36463,22.3021066 1357.36463,22.4062729 Z" id="--c-text" fill="#292929" fill-rule="nonzero"></path>
                    <path d="M1314.39581,18.2500328 C1315.41664,18.2500328 1316.38538,18.4375323 1317.30205,18.8125314 C1318.21871,19.1875305 1319.03121,19.7187793 1319.73954,20.4062776 L1320.86454,19.2812803 C1321.01037,19.1354472 1321.18746,19.0625308 1321.39579,19.0625308 C1321.60412,19.0625308 1321.7812,19.1354472 1321.92704,19.2812803 C1322.07287,19.4271135 1322.14579,19.6041961 1322.14579,19.8125291 L1322.14579,24.0000191 C1322.14579,24.2083521 1322.07287,24.3854347 1321.92704,24.5312678 C1321.7812,24.677101 1321.60412,24.7500173 1321.39579,24.7500173 L1317.2083,24.7500173 C1316.99997,24.7500173 1316.82288,24.677101 1316.67705,24.5312678 C1316.53122,24.3854347 1316.4583,24.2083521 1316.4583,24.0000191 C1316.4583,23.7916861 1316.53122,23.6146035 1316.67705,23.4687703 L1317.98955,22.1562735 C1317.51038,21.7187745 1316.96351,21.3750253 1316.34893,21.1250259 C1315.73434,20.8750265 1315.09372,20.7500328 1314.42706,20.7500328 C1313.48956,20.7500328 1312.61456,20.9844013 1311.80206,21.4531501 C1310.98956,21.921899 1310.34373,22.5625225 1309.86457,23.3750206 C1309.3854,24.1875186 1309.14582,25.067725 1309.14582,26.0156393 C1309.14582,26.9635535 1309.38019,27.8385514 1309.84894,28.640633 C1310.31769,29.4427146 1310.95311,30.0781296 1311.75519,30.5468785 C1312.55727,31.0156273 1313.43747,31.2500018 1314.39581,31.2500018 C1315.04164,31.2500018 1315.66143,31.140627 1316.25518,30.9218776 C1316.84892,30.7031281 1317.38538,30.3750039 1317.86455,29.9375049 C1317.92705,29.8750051 1318.01038,29.8489636 1318.11455,29.8593801 C1318.21871,29.8697966 1318.30205,29.906255 1318.36455,29.9687548 L1319.61454,31.2187519 C1319.67704,31.2812517 1319.70829,31.369793 1319.70829,31.4843762 C1319.70829,31.5989594 1319.66663,31.6875007 1319.58329,31.7500006 C1318.89579,32.3749991 1318.10413,32.8645814 1317.2083,33.2187471 C1316.31247,33.5729128 1315.37497,33.7499958 1314.39581,33.7499958 C1312.99998,33.7499958 1311.70831,33.4010382 1310.52081,32.7031233 C1309.33332,32.0052085 1308.39061,31.0625022 1307.6927,29.8750051 C1306.99478,28.6875079 1306.64582,27.3958445 1306.64582,26.0000143 C1306.64582,24.6041841 1306.99478,23.3125207 1307.6927,22.1250235 C1308.39061,20.9375264 1309.33332,19.9948201 1310.52081,19.2969053 C1311.70831,18.5989904 1312.99998,18.2500328 1314.39581,18.2500328 Z" id="--c-text" fill="#292929" fill-rule="nonzero"></path>
                    <path d="M1284.3957,20.2812779 L1284.3957,21.7187745 C1284.3957,22.13544 1284.08321,22.5156476 1283.45821,22.8593968 C1282.83321,23.203146 1281.98425,23.4791868 1280.91134,23.6875198 C1279.83842,23.8958528 1278.66655,24.0000191 1277.39572,24.0000191 C1276.12489,24.0000191 1274.95302,23.8958528 1273.88011,23.6875198 C1272.80719,23.4791868 1271.95823,23.203146 1271.33324,22.8593968 C1270.70824,22.5156476 1270.39574,22.13544 1270.39574,21.7187745 L1270.39574,20.2812779 C1270.39574,19.8646124 1270.70824,19.4844048 1271.33324,19.1406557 C1271.95823,18.7969065 1272.80719,18.5208656 1273.88011,18.3125326 C1274.95302,18.1041996 1276.12489,18.0000334 1277.39572,18.0000334 C1278.66655,18.0000334 1279.83842,18.1041996 1280.91134,18.3125326 C1281.98425,18.5208656 1282.83321,18.7969065 1283.45821,19.1406557 C1284.08321,19.4844048 1284.3957,19.8646124 1284.3957,20.2812779 Z M1284.3957,23.5000203 L1284.3957,26.7187626 C1284.3957,27.1354281 1284.08321,27.5156357 1283.45821,27.8593849 C1282.83321,28.2031341 1281.98425,28.4791749 1280.91134,28.6875079 C1279.83842,28.8958409 1278.66655,29.0000072 1277.39572,29.0000072 C1276.12489,29.0000072 1274.95302,28.8958409 1273.88011,28.6875079 C1272.80719,28.4791749 1271.95823,28.2031341 1271.33324,27.8593849 C1270.70824,27.5156357 1270.39574,27.1354281 1270.39574,26.7187626 L1270.39574,23.5000203 C1271.1249,24.0000203 1272.13532,24.3854347 1273.42698,24.6562675 C1274.63531,24.9062669 1275.95823,25.0312666 1277.39572,25.0312666 C1278.83322,25.0312666 1280.15613,24.9062669 1281.36446,24.6562675 C1282.65613,24.3854347 1283.66654,24.0000203 1284.3957,23.5000203 Z M1284.3957,28.5000083 L1284.3957,31.7187507 C1284.3957,32.1354162 1284.08321,32.5156238 1283.45821,32.859373 C1282.83321,33.2031221 1281.98425,33.479163 1280.91134,33.687496 C1279.83842,33.895829 1278.66655,33.9999952 1277.39572,33.9999952 C1276.12489,33.9999952 1274.95302,33.895829 1273.88011,33.687496 C1272.80719,33.479163 1271.95823,33.2031221 1271.33324,32.859373 C1270.70824,32.5156238 1270.39574,32.1354162 1270.39574,31.7187507 L1270.39574,28.5000083 C1271.1249,29.0000083 1272.13532,29.3854227 1273.42698,29.6562556 C1274.63531,29.906255 1275.95823,30.0312547 1277.39572,30.0312547 C1278.83322,30.0312547 1280.15613,29.906255 1281.36446,29.6562556 C1282.65613,29.3854227 1283.66654,29.0000083 1284.3957,28.5000083 Z" id="--c-text" fill="#292929" fill-rule="nonzero"></path>
                    <path d="M1246.39562,24.5000179 C1246.66645,24.5000179 1246.90083,24.5989761 1247.09874,24.7968922 C1247.29666,24.9948082 1247.39562,25.2291827 1247.39562,25.5000155 L1247.39562,26.5000131 C1247.39562,26.770846 1247.29666,27.0052204 1247.09874,27.2031364 C1246.90083,27.4010525 1246.66645,27.5000107 1246.39562,27.5000107 L1241.89563,27.5000107 L1241.89563,32 C1241.89563,32.2708328 1241.79667,32.5052073 1241.59876,32.7031233 C1241.40084,32.9010394 1241.16647,32.9999976 1240.89563,32.9999976 L1239.89565,32.9999976 C1239.6248,32.9999976 1239.39043,32.9010394 1239.19251,32.7031233 C1238.9946,32.5052073 1238.89565,32.2708328 1238.89565,32 L1238.89565,27.5000107 L1234.39565,27.5000107 C1234.12482,27.5000107 1233.89044,27.4010525 1233.69253,27.2031364 C1233.49461,27.0052204 1233.39565,26.770846 1233.39565,26.5000131 L1233.39565,25.5000155 C1233.39565,25.2291827 1233.49461,24.9948082 1233.69253,24.7968922 C1233.89044,24.5989761 1234.12482,24.5000179 1234.39565,24.5000179 L1238.89565,24.5000179 L1238.89565,20.000031 C1238.89565,19.7291958 1238.9946,19.4948213 1239.19251,19.2969053 C1239.39043,19.0989893 1239.6248,19.000031 1239.89565,19.000031 L1240.89563,19.000031 C1241.16647,19.000031 1241.40084,19.0989893 1241.59876,19.2969053 C1241.79667,19.4948213 1241.89563,19.7291958 1241.89563,20.000031 L1241.89563,24.5000179 L1246.39562,24.5000179 Z" id="--c-text" fill="#292929" fill-rule="nonzero"></path>
                    <g id="--c-heading" transform="translate(17.000000, 17.000000)" fill="#292929" font-family="SourceSansPro-Bold, Source Sans Pro" font-size="16" font-weight="bold">
                        <text id="Dashboard">
                            <tspan x="0" y="16">Dashboard</tspan>
                        </text>
                    </g>
                </g>
            </g>
            <g id="Breadcrumbs" transform="translate(25.000000, 70.000000)">
                <g id="--c-accent" transform="translate(261.000000, 9.000000)" fill="#2776C1" font-family="SourceSansPro-Bold, Source Sans Pro" font-size="12" font-weight="bold">
                    <text id="5000001078">
                        <tspan x="0" y="12">5000001078</tspan>
                    </text>
                </g>
                <g id="--c-accent" transform="translate(261.000000, 0.000000)" fill="#2776C1" font-family="SourceSansPro-Regular, Source Sans Pro" font-size="8" font-weight="normal">
                    <text id="MeterReading">
                        <tspan x="0" y="8">MeterReading</tspan>
                    </text>
                </g>
                <path d="M246.828106,15.3750206 L241.29687,20.8125076 C241.20312,20.9375075 241.07812,21.0000072 240.92187,21.0000072 C240.765621,21.0000072 240.624996,20.9375075 240.499996,20.8125076 L240.171872,20.4843834 C240.046872,20.3906336 239.984373,20.2656337 239.984373,20.1093843 C239.984373,19.9531349 240.046872,19.8125102 240.171872,19.6875103 L244.953111,15.0000215 L240.171872,10.3125326 C240.078122,10.1875327 240.031248,10.046908 240.031248,9.89065864 C240.031248,9.73440925 240.078122,9.60940931 240.171872,9.51565953 L240.499996,9.14066043 C240.624996,9.04691065 240.765621,9.00003576 240.92187,9.00003576 C241.07812,9.00003576 241.20312,9.04691065 241.29687,9.14066043 L246.828106,14.5781475 C246.921856,14.7031474 246.968731,14.8437721 246.968731,15.0000215 C246.968731,15.1562708 246.921856,15.2968955 246.828106,15.4218955 L246.828106,15.3750206 Z" id="--c-text" fill="#292929" fill-rule="nonzero"></path>
                <g id="--c-text" transform="translate(162.000000, 9.000000)" fill="#292C36" font-family="SourceSansPro-Regular, Source Sans Pro" font-size="12" font-weight="normal">
                    <text id="5000001010">
                        <tspan x="0" y="12">5000001010</tspan>
                    </text>
                </g>
                <g id="--c-text" transform="translate(162.000000, 0.000000)" fill="#292C36" font-family="SourceSansPro-Regular, Source Sans Pro" font-size="8" font-weight="normal">
                    <text id="Meters">
                        <tspan x="0" y="8">Meters</tspan>
                    </text>
                </g>
                <path d="M147.828106,15.3750206 L142.29687,20.8125076 C142.20312,20.9375075 142.07812,21.0000072 141.92187,21.0000072 C141.765621,21.0000072 141.624996,20.9375075 141.499996,20.8125076 L141.171872,20.4843834 C141.046872,20.3906336 140.984373,20.2656337 140.984373,20.1093843 C140.984373,19.9531349 141.046872,19.8125102 141.171872,19.6875103 L145.953111,15.0000215 L141.171872,10.3125326 C141.078122,10.1875327 141.031248,10.046908 141.031248,9.89065864 C141.031248,9.73440925 141.078122,9.60940931 141.171872,9.51565953 L141.499996,9.14066043 C141.624996,9.04691065 141.765621,9.00003576 141.92187,9.00003576 C142.07812,9.00003576 142.20312,9.04691065 142.29687,9.14066043 L147.828106,14.5781475 C147.921856,14.7031474 147.968731,14.8437721 147.968731,15.0000215 C147.968731,15.1562708 147.921856,15.2968955 147.828106,15.4218955 L147.828106,15.3750206 Z" id="--c-text" fill="#292929" fill-rule="nonzero"></path>
                <g id="--c-text" transform="translate(90.000000, 9.000000)" fill="#292C36" font-family="SourceSansPro-Regular, Source Sans Pro" font-size="12" font-weight="normal">
                    <text id="Details">
                        <tspan x="0" y="12">Details</tspan>
                    </text>
                </g>
                <g id="--c-text" transform="translate(90.000000, 0.000000)" fill="#292C36" font-family="SourceSansPro-Regular, Source Sans Pro" font-size="8" font-weight="normal">
                    <text id="Meters">
                        <tspan x="0" y="8">Meters</tspan>
                    </text>
                </g>
                <path d="M75.8281063,15.3750206 L70.2968695,20.8125076 C70.2031197,20.9375075 70.0781198,21.0000072 69.9218704,21.0000072 C69.765621,21.0000072 69.6249964,20.9375075 69.4999964,20.8125076 L69.1718722,20.4843834 C69.0468723,20.3906336 68.9843727,20.2656337 68.9843727,20.1093843 C68.9843727,19.9531349 69.0468723,19.8125102 69.1718722,19.6875103 L73.9531108,15.0000215 L69.1718722,10.3125326 C69.0781224,10.1875327 69.0312475,10.046908 69.0312475,9.89065864 C69.0312475,9.73440925 69.0781224,9.60940931 69.1718722,9.51565953 L69.4999964,9.14066043 C69.6249964,9.04691065 69.765621,9.00003576 69.9218704,9.00003576 C70.0781198,9.00003576 70.2031197,9.04691065 70.2968695,9.14066043 L75.8281063,14.5781475 C75.9218561,14.7031474 75.968731,14.8437721 75.968731,15.0000215 C75.968731,15.1562708 75.9218561,15.2968955 75.8281063,15.4218955 L75.8281063,15.3750206 Z" id="--c-text" fill="#292929" fill-rule="nonzero"></path>
                <g id="--c-text" transform="translate(0.000000, 9.000000)" fill="#292929" font-family="SourceSansPro-Regular, Source Sans Pro" font-size="12" font-weight="normal">
                    <text id="Dashboard">
                        <tspan x="0" y="12">Dashboard</tspan>
                    </text>
                </g>
                <g id="--c-text" fill="#292929" font-family="SourceSansPro-Regular, Source Sans Pro" font-size="8" font-weight="normal">
                    <text id="Meters">
                        <tspan x="0" y="8">Meters</tspan>
                    </text>
                </g>
            </g>
            <g id="Top-Bar">
                <polygon id="--c-app-bar" fill="#F4F4F4" fill-rule="nonzero" points="0 0 0 49 1921 49 1921 0"></polygon>
                <g id="Right-Menu" transform="translate(1790.000000, 0.000000)">
                    <g id="Error" transform="translate(0.000000, 14.000000)" fill="#292C36" fill-rule="nonzero">
                        <path d="M21.7520358,16.8057502 C22.4570358,18.0277502 21.5720358,19.5557502 20.1640358,19.5557502 L1.8350358,19.5557502 C0.4250358,19.5557502 -0.4559642,18.0257502 0.2470358,16.8057502 L9.4120358,0.9157502 C10.1170358,-0.3062498 11.8840358,-0.3042498 12.5880358,0.9157502 L21.7520358,16.8057502 Z M11.0000358,13.5207502 C10.0296715,13.5207502 9.2430358,14.3073858 9.2430358,15.2777502 C9.2430358,16.2481145 10.0296715,17.0347502 11.0000358,17.0347502 C11.9704001,17.0347502 12.7570358,16.2481145 12.7570358,15.2777502 C12.7570358,14.3073858 11.9704001,13.5207502 11.0000358,13.5207502 Z M9.3320358,7.2057502 L9.6150358,12.3997502 C9.6283269,12.6428839 9.8295394,12.8331132 10.0730358,12.8327507 L11.9270358,12.8327507 C12.1710358,12.8327507 12.3710358,12.6427502 12.3850358,12.3997502 L12.6680358,7.2057502 C12.6751951,7.0798423 12.6301212,6.9565537 12.5434413,6.8649532 C12.4567615,6.7733527 12.3361469,6.7215468 12.2100358,6.7217496 L9.7900358,6.7217496 C9.6639247,6.7215468 9.5433102,6.7733527 9.4566303,6.8649532 C9.3699505,6.9565537 9.3248765,7.0798423 9.3320358,7.2057502 L9.3320358,7.2057502 Z" id="--c-icon"></path>
                    </g>
                    <g id="Assist" transform="translate(35.000000, 0.000000)">
                        <polygon id="--c-icon-active-bg" fill="#272C37" points="0 7.10542736e-15 48 7.10542736e-15 48 49 0 49"></polygon>
                        <path d="M20.2502729,16.844364 L20.2502729,19.6580911 C20.2502729,20.1244548 19.8722729,20.5016366 19.4059093,20.5016366 L15.8435458,20.5016366 C15.3775362,20.501185 15.0000004,20.1232828 15.0000004,19.657273 L15.0000004,16.8435458 C15.0000004,16.3780004 15.3780004,16.0008186 15.8435458,16.0008186 L19.4059093,16.0008186 C19.8722729,16.0008186 20.2502729,16.3788186 20.2502729,16.844364 Z M26.6247276,25.2822727 L26.6247276,22.4693637 C26.6249443,22.2457169 26.5362531,22.0311556 26.3781875,21.8729366 C26.220122,21.7147176 26.0056469,21.6258179 25.7819999,21.6258179 L22.2180001,21.6258179 C21.9942114,21.625601 21.779526,21.7144044 21.6212834,21.872647 C21.4630408,22.0308896 21.3742373,22.245575 21.3744543,22.4693637 L21.3744543,25.2822727 C21.3744543,25.7486363 21.7516365,26.1258179 22.2171819,26.1258179 L25.7803636,26.1258179 C26.0041523,26.1260355 26.2188377,26.037232 26.3770803,25.8789894 C26.5353229,25.7207468 26.6241264,25.5060614 26.623909,25.2822727 L26.6247276,25.2822727 Z M27.7497271,16.8435458 L27.7497271,19.6580911 C27.7497271,20.1244548 28.1277271,20.501637 28.5940907,20.501637 L32.1564542,20.501637 C32.3802429,20.5018539 32.5949283,20.4130505 32.7531709,20.2548079 C32.9114135,20.0965653 33.000217,19.8818799 33,19.6580911 L33,16.8435458 C33,16.6198988 32.9111003,16.4054238 32.7528813,16.2473582 C32.5946623,16.0892927 32.3801011,16.0006014 32.1564542,16.0008182 L28.5940907,16.0008182 C28.1277271,16.0008182 27.7497271,16.3788186 27.7497271,16.844364 L27.7497271,16.8435458 Z M26.6247276,19.6580911 L26.6247276,16.8435458 C26.6249443,16.6198989 26.5362531,16.4053377 26.3781875,16.2471187 C26.220122,16.0888997 26.0056469,16 25.7819999,16 L22.2180001,16 C21.9942114,15.999783 21.779526,16.0885865 21.6212834,16.2468291 C21.4630408,16.4050717 21.3742373,16.6197571 21.3744543,16.8435458 L21.3744543,19.6580911 C21.3744543,20.1244548 21.7516365,20.501637 22.2171819,20.501637 L25.7803636,20.501637 C26.0041523,20.5018539 26.2188377,20.4130505 26.3770803,20.2548079 C26.5353229,20.0965653 26.6241264,19.8818799 26.623909,19.6580911 L26.6247276,19.6580911 Z M19.4059093,21.6258179 L15.8435458,21.6258179 C15.6197571,21.625601 15.4050717,21.7144044 15.2468291,21.872647 C15.0885865,22.0308896 14.999783,22.245575 15,22.4693637 L15,25.2822727 C15,25.7486363 15.3780004,26.1258179 15.8435458,26.1258179 L19.4059093,26.1258179 C19.8722729,26.1258179 20.2502729,25.7478181 20.2502729,25.2822727 L20.2502729,22.4693637 C20.2502729,22.0030001 19.8722729,21.6258179 19.4059093,21.6258179 Z M15,28.0943635 L15,30.9072725 C15,31.3736361 15.3780004,31.7508179 15.8435458,31.7508179 L19.4059093,31.7508179 C19.8722729,31.7508179 20.2502729,31.3728179 20.2502729,30.9072725 L20.2502729,28.0935453 C20.2502729,27.6271817 19.8722729,27.2499995 19.4059093,27.2499995 L15.8435458,27.2499995 C15.6197571,27.2497825 15.4050717,27.338586 15.2468291,27.4968286 C15.0885865,27.6550712 14.999783,27.8697566 15,28.0935453 L15,28.0943635 Z M28.5940907,26.1258179 L32.1564542,26.1258179 C32.3802429,26.1260355 32.5949283,26.037232 32.7531709,25.8789894 C32.9114135,25.7207468 33.000217,25.5060614 33,25.2822727 L33,22.4693637 C33.000217,22.245575 32.9114135,22.0308896 32.7531709,21.872647 C32.5949283,21.7144044 32.3802429,21.625601 32.1564542,21.6258179 L28.5940907,21.6258179 C28.1277271,21.6258179 27.7497271,22.0038183 27.7497271,22.4693637 L27.7497271,25.2822727 C27.7497271,25.7486363 28.1277271,26.1258179 28.5940907,26.1258179 L28.5940907,26.1258179 Z M28.5940907,31.7508183 L32.1564542,31.7508183 C32.3802429,31.7510353 32.5949283,31.6622318 32.7531709,31.5039892 C32.9114135,31.3457466 33.000217,31.1310612 33,30.9072725 L33,28.0935453 C33.000217,27.8697566 32.9114135,27.6550712 32.7531709,27.4968286 C32.5949283,27.338586 32.3802429,27.2497825 32.1564542,27.2499995 L28.5940907,27.2499995 C28.1277271,27.2499995 27.7497271,27.6279999 27.7497271,28.0935453 L27.7497271,30.9064543 C27.7497271,31.3728179 28.1277271,31.7499995 28.5940907,31.7499995 L28.5940907,31.7508183 Z M21.3752728,28.0943635 L21.3752728,30.9072725 C21.3752728,31.3736361 21.7524546,31.7508183 22.2180001,31.7508183 L25.7811817,31.7508183 C26.0049705,31.7510353 26.2196559,31.6622318 26.3778985,31.5039892 C26.5361411,31.3457466 26.6249445,31.1310612 26.6247276,30.9072725 L26.6247276,28.0935453 C26.6249443,27.8698984 26.5362531,27.6553372 26.3781875,27.4971182 C26.220122,27.3388992 26.0056469,27.2499995 25.7819999,27.2499995 L22.2180001,27.2499995 C21.9942114,27.2497825 21.779526,27.338586 21.6212834,27.4968286 C21.4630408,27.6550712 21.3742373,27.8697566 21.3744543,28.0935453 L21.3752728,28.0943635 Z" id="--c-icon-active" fill="#FFFFFF" fill-rule="nonzero"></path>
                    </g>
                    <g id="Overflow" transform="translate(83.000000, 0.000000)" fill-rule="nonzero">
                        <polygon id="appbarbg-copy-3" fill="#B6B6B6" opacity="0" points="0 7.10542736e-15 48 7.10542736e-15 48 48 0 48"></polygon>
                        <path d="M25.6130016,23.6130008 C25.6135319,24.3061742 25.3384051,24.9711096 24.8482573,25.4612573 C24.3581096,25.9514051 23.6931742,26.2265319 23.0000008,26.2260016 C22.3068274,26.2265319 21.6418919,25.9514051 21.1517442,25.4612573 C20.6615964,24.9711096 20.3864696,24.3061742 20.387,23.6130008 C20.3864696,22.9198274 20.6615964,22.2548919 21.1517442,21.7647442 C21.6418919,21.2745964 22.3068274,20.9994696 23.0000008,21 C23.6931742,20.9994696 24.3581096,21.2745964 24.8482573,21.7647442 C25.3384051,22.2548919 25.6135319,22.9198274 25.6130016,23.6130008 L25.6130016,23.6130008 Z M29.3870008,21 C28.6938274,20.9994696 28.0288919,21.2745964 27.5387442,21.7647442 C27.0485964,22.2548919 26.7734696,22.9198274 26.774,23.6130008 C26.7734696,24.3061742 27.0485964,24.9711096 27.5387442,25.4612573 C28.0288919,25.9514051 28.6938274,26.2265319 29.3870008,26.2260016 C30.0801742,26.2265319 30.7451096,25.9514051 31.2352573,25.4612573 C31.7254051,24.9711096 32.0005319,24.3061742 32.0000016,23.6130008 C32.0005319,22.9198274 31.7254051,22.2548919 31.2352573,21.7647442 C30.7451096,21.2745964 30.0801742,20.9994696 29.3870008,21 L29.3870008,21 Z M16.6130008,21 C15.9198274,20.9994696 15.2548919,21.2745964 14.7647442,21.7647442 C14.2745964,22.2548919 13.9994696,22.9198274 14,23.6130008 C13.9994696,24.3061742 14.2745964,24.9711096 14.7647442,25.4612573 C15.2548919,25.9514051 15.9198274,26.2265319 16.6130008,26.2260016 C17.3061742,26.2265319 17.9711096,25.9514051 18.4612573,25.4612573 C18.9514051,24.9711096 19.2265319,24.3061742 19.2260016,23.6130008 C19.2265319,22.9198274 18.9514051,22.2548919 18.4612573,21.7647442 C17.9711096,21.2745964 17.3061742,20.9994696 16.6130008,21 L16.6130008,21 Z" id="--c-icon" fill="#000000"></path>
                    </g>
                </g>
                <rect id="Rectangle" x="0" y="0" width="48" height="49"></rect>
                <text id="--c-text" fill="#292929" font-family="SourceSansPro-Bold, Source Sans Pro" font-size="18" font-weight="bold">
                    <tspan x="64" y="31">On Key Plus</tspan>
                </text>
                <g id="Menu-Icon" transform="translate(15.000000, 18.000000)" fill="#292C36" fill-rule="nonzero">
                    <path d="M17.2655838,1.4062466 L0.2343744,1.4062466 C0.1822914,1.4062466 0.1302078,1.3802048 0.0781248,1.3281218 C0.0260418,1.2760388 0,1.2239552 0,1.1718722 L0,0.2343744 C0,0.1822914 0.0260418,0.1302078 0.0781248,0.0781248 C0.1302078,0.0260418 0.1822914,0 0.2343744,0 L17.2655838,0 C17.3176668,0 17.3697505,0.0260418 17.4218335,0.0781248 C17.4739165,0.1302078 17.4999583,0.1822914 17.4999583,0.2343744 L17.4999583,1.1718722 C17.4999583,1.2239552 17.4739165,1.2760388 17.4218335,1.3281218 C17.3697505,1.3802048 17.3176668,1.4062466 17.2655838,1.4062466 Z M17.2655838,7.6562317 L0.2343744,7.6562317 C0.1822914,7.6562317 0.1302078,7.6301899 0.0781248,7.5781069 C0.0260418,7.5260239 0,7.4739403 0,7.4218573 L0,6.4843595 C0,6.4322765 0.0260418,6.3801929 0.0781248,6.3281099 C0.1302078,6.2760269 0.1822914,6.2499851 0.2343744,6.2499851 L17.2655838,6.2499851 C17.3176668,6.2499851 17.3697505,6.2760269 17.4218335,6.3281099 C17.4739165,6.3801929 17.4999583,6.4322765 17.4999583,6.4843595 L17.4999583,7.4218573 C17.4999583,7.4739403 17.4739165,7.5260239 17.4218335,7.5781069 C17.3697505,7.6301899 17.3176668,7.6562317 17.2655838,7.6562317 Z M17.2655838,13.9062168 L0.2343744,13.9062168 C0.1822914,13.9062168 0.1302078,13.880175 0.0781248,13.828092 C0.0260418,13.776009 0,13.7239254 0,13.6718424 L0,12.7343446 C0,12.6822616 0.0260418,12.630178 0.0781248,12.578095 C0.1302078,12.526012 0.1822914,12.4999702 0.2343744,12.4999702 L17.2655838,12.4999702 C17.3176668,12.4999702 17.3697505,12.526012 17.4218335,12.578095 C17.4739165,12.630178 17.4999583,12.6822616 17.4999583,12.7343446 L17.4999583,13.6718424 C17.4999583,13.7239254 17.4739165,13.776009 17.4218335,13.828092 C17.3697505,13.880175 17.3176668,13.9062168 17.2655838,13.9062168 Z" id="--c-icon"></path>
                </g>
                <rect id="--c-border" fill="#DEE2E6" x="0" y="48" width="1921" height="1"></rect>
            </g>
        </g>
    </g>
</svg>