<svg xmlns="http://www.w3.org/2000/svg"><g class="nc-icon-wrapper"><g fill="none" stroke="currentColor"><path d="M18.155 2.129l-1.1 2.442.26.192a8.973 8.973 0 0 1 2.233 2.373l.176.272.302-.114 2.203-.835a.415.415 0 0 1 .535.241l.81 2.137a.415.415 0 0 1-.242.535l-2.505.949.05.32a8.97 8.97 0 0 1-.1 3.257l-.069.317.295.133 2.147.967a.415.415 0 0 1 .208.549l-.938 2.083a.415.415 0 0 1-.549.208l-2.442-1.1-.192.26a8.973 8.973 0 0 1-2.373 2.233l-.273.176.115.302.835 2.202a.415.415 0 0 1-.242.536l-2.135.81a.415.415 0 0 1-.536-.242l-.949-2.505-.32.05a8.946 8.946 0 0 1-3.257-.1l-.317-.069-.133.296-.966 2.146a.415.415 0 0 1-.55.208l-2.083-.938a.415.415 0 0 1-.207-.549l1.1-2.442-.261-.191a8.973 8.973 0 0 1-2.233-2.374l-.176-.272-.302.114-2.202.835a.416.416 0 0 1-.536-.241l-.809-2.136a.415.415 0 0 1 .241-.536l2.505-.949-.05-.32a8.97 8.97 0 0 1 .1-3.257l.069-.317-.295-.132L.85 8.685a.415.415 0 0 1-.208-.549l.938-2.083a.415.415 0 0 1 .549-.207l2.442 1.1.192-.261a8.968 8.968 0 0 1 2.373-2.233l.272-.175-.114-.303-.835-2.202a.415.415 0 0 1 .241-.536L8.836.427a.416.416 0 0 1 .536.241l.949 2.505.32-.049a8.95 8.95 0 0 1 3.257.1l.317.068.133-.295.966-2.147a.415.415 0 0 1 .55-.208l2.082.938c.21.094.303.34.209.549z"/><path d="M16.744 10.203A5.101 5.101 0 0 0 12 6.925c-.613 0-1.217.112-1.797.33a5.04 5.04 0 0 0-2.828 2.662 5.04 5.04 0 0 0-.118 3.88A5.101 5.101 0 0 0 12 17.076c.613 0 1.217-.111 1.796-.33a5.04 5.04 0 0 0 2.829-2.661 5.04 5.04 0 0 0 .118-3.881z"/></g></g></svg>