<?xml version="1.0" encoding="UTF-8"?>
<svg width="24px" height="24px" viewBox="0 0 24 24" version="1.1" xmlns="http://www.w3.org/2000/svg" xmlns:xlink="http://www.w3.org/1999/xlink">
    <!-- Generator: Sketch 54.1 (76490) - https://sketchapp.com -->
    <title>asset_health_management c</title>
    <desc>Created with Sketch.</desc>
    <g id="asset_health_management-c" stroke="none" stroke-width="1" fill="none" fill-rule="evenodd">
        <path d="M11.9009006,8.95670378 C12.3978046,6.13311084 14.6709248,4 17.4,4 C20.4927946,4 23,6.73958376 23,10.1190316 C23,12.1411269 22.1023611,13.9341358 20.7187391,15.0482482 L12.2,23 L3.37452616,15.0605558 C3.16290917,14.894694 2.96163811,14.7136123 2.77232785,14.5188149 L2.69583333,14.45 L2.70284119,14.4461267 C1.6615527,13.3387769 1,11.808903 1,10.1190362 C1,6.73958583 3.46243388,4 6.5,4 C9.1803405,4 11.4128685,6.13311057 11.9009006,8.95670378 Z M7.70306193,15.4613861 L8.93710685,12.4120092 L10.2540963,16.1448314 L11.8439159,13.6029657 L13.2614542,15.3543641 L14.6727075,13.0295199 L15.8705133,14.5094341 L18.3416575,13.4999973 L21.1999995,13.5 L21.2000005,12.5 L18.2434737,12.4999972 L18.0543952,12.5371262 L16.1802959,13.3026764 L14.555595,11.2953243 L13.1443417,13.6201686 L11.7393734,11.8843006 L10.5066864,13.8551686 L9.00116927,9.58799084 L7.41270759,13.5131466 L5.91477727,11.6624221 L3.2,11.6624221 L3.2,12.6624221 L5.43765012,12.6624221 L7.70306193,15.4613861 Z" id="Combined-Shape" fill="#000000"></path>
    </g>
</svg>