<?xml version="1.0" encoding="UTF-8"?>
<svg width="24px" height="24px" viewBox="0 0 24 24" version="1.1" xmlns="http://www.w3.org/2000/svg" xmlns:xlink="http://www.w3.org/1999/xlink">
    <!-- Generator: Sketch 54.1 (76490) - https://sketchapp.com -->
    <title>asset_operations_management d copy</title>
    <desc>Created with Sketch.</desc>
    <g id="asset_operations_management-d-copy" stroke="none" stroke-width="1" fill="none" fill-rule="evenodd">
        <path d="M18.5711698,6.17761261 L16.3427445,8.45106011 C15.0986928,7.62444883 13.6055873,7.14285714 12,7.14285714 C11.8303464,7.14285714 11.6619488,7.14823411 11.494968,7.15882691 L10.9683469,4.0477413 C11.3079867,4.01615004 11.6521073,4 12,4 C14.463405,4 16.737681,4.80975702 18.5711698,6.17761261 Z M19.052725,6.55814339 C21.4653866,8.5759572 23,11.6087645 23,15 L19.8571429,15 C19.8571429,12.919995 19.0489037,11.0287643 17.7293547,9.62323751 L19.052725,6.55814339 Z M9.89898483,4.20042174 L10.4238262,7.30099323 C8.78485694,7.63474394 7.33139204,8.47871498 6.23651586,9.65982199 L3.78362388,7.68606271 C5.3552537,5.92177321 7.48660934,4.6669909 9.89898483,4.20042174 Z M4.57434388,12.4255168 L1.6316944,11.3170398 C1.96590374,10.376219 2.42453677,9.49434181 2.9878001,8.69120165 L5.44411967,10.667719 C5.0848938,11.2102304 4.79120591,11.7999257 4.57434388,12.4255168 Z M4.20937357,13.972975 C4.16549318,14.3091019 4.14285714,14.6519075 4.14285714,15 L1,15 C1,14.2619724 1.07268224,13.5409207 1.21127931,12.8436122 L4.20937357,13.972975 Z" id="Combined-Shape" fill="#000000"></path>
        <g id="meter-needle" transform="translate(4.709545, 3.753876)" fill="#000000">
            <path d="M4.41625736,13.6737476 L12.8584775,3.13488961 L8.15951777,15.6954676 C8.11560138,15.9162501 8.03579343,16.134153 7.91783471,16.3414997 C7.31539055,17.4004701 5.94595676,17.7830802 4.85911873,17.1960834 C3.77228069,16.6090865 3.37960187,15.2747664 3.98204603,14.215796 C4.10000475,14.0084493 4.2473681,13.8270328 4.41625736,13.6737476 L4.41625736,13.6737476 Z M6.09366138,16.3468141 C6.71498172,16.3468141 7.21866138,15.8560493 7.21866138,15.2506603 C7.21866138,14.6452712 6.71498172,14.1545064 6.09366138,14.1545064 C5.47234103,14.1545064 4.96866138,14.6452712 4.96866138,15.2506603 C4.96866138,15.8560493 5.47234103,16.3468141 6.09366138,16.3468141 Z" id="Shape" transform="translate(8.279003, 10.303123) rotate(5.000000) translate(-8.279003, -10.303123) "></path>
        </g>
    </g>
</svg>