<svg viewBox="0 0 24 24" version="1.1" xmlns="http://www.w3.org/2000/svg"><g class="nc-icon-wrapper"><g id="doc_management--copy" stroke="none" stroke-width="1" fill="none" fill-rule="evenodd"><g id="Group" transform="translate(1 1)" fill="#000" fill-rule="nonzero"><path d="M22 10.96l-2.788-.002a8.208 8.208 0 0 1-2.411 5.828 8.209 8.209 0 0 1-5.828 2.411 8.252 8.252 0 0 1-5.847-2.404L3.72 15.362l1.961-1.96H.003v5.676l1.76-1.76 1.419 1.42C5.189 20.745 7.949 22 10.96 22c3.01 0 5.771-1.254 7.778-3.262C20.745 16.731 22 13.971 22 10.96zM11.041 0C8.03 0 5.271 1.256 3.263 3.263 1.256 5.271 0 8.03 0 11.041h2.787c0-2.278.92-4.335 2.41-5.825a8.212 8.212 0 0 1 5.83-2.415 8.267 8.267 0 0 1 5.849 2.406l1.407 1.43-1.962 1.961h5.674V2.92l-1.76 1.76-1.416-1.417C16.812 1.256 14.053 0 11.041 0z" id="Shape" transform="rotate(90 11 11)"/><path d="M22 10.96l-2.788-.002a8.208 8.208 0 0 1-2.411 5.828 8.209 8.209 0 0 1-5.828 2.411 8.252 8.252 0 0 1-5.847-2.404L3.72 15.362l1.961-1.96H.003v5.676l1.76-1.76 1.419 1.42C5.189 20.745 7.949 22 10.96 22c3.01 0 5.771-1.254 7.778-3.262C20.745 16.731 22 13.971 22 10.96zM11.041 0C8.03 0 5.271 1.256 3.263 3.263 1.256 5.271 0 8.03 0 11.041h2.787c0-2.278.92-4.335 2.41-5.825a8.212 8.212 0 0 1 5.83-2.415 8.267 8.267 0 0 1 5.849 2.406l1.407 1.43-1.962 1.961h5.674V2.92l-1.76 1.76-1.416-1.417C16.812 1.256 14.053 0 11.041 0z" id="Shape" transform="rotate(-180 11 11)"/></g><path id="Rectangle" fill="#FFF" d="M9.5 1h2v6h-2z"/><path id="Rectangle" fill="#FFF" d="M12.5 17h2v6h-2z"/><path id="Rectangle" fill="#FFF" transform="rotate(90 4 13.5)" d="M3 10.5h2v6H3z"/><path id="Rectangle" fill="#FFF" transform="rotate(90 20 10.5)" d="M19 7.5h2v6h-2z"/></g></g></svg>