<svg xmlns="http://www.w3.org/2000/svg"><g class="nc-icon-wrapper"><g fill-rule="evenodd" transform="matrix(-1 0 0 1 24.709 -.715)"><path fill-rule="nonzero" d="M19.231 22.422a.815.815 0 0 1-.409 1.078l-2.082.938a.814.814 0 0 1-1.079-.409l-.966-2.146a9.35 9.35 0 0 1-3.403.103l-.834 2.202a.815.815 0 0 1-1.052.474l-2.136-.81a.815.815 0 0 1-.473-1.05l.834-2.203a9.368 9.368 0 0 1-2.48-2.332l-2.146.967a.814.814 0 0 1-1.078-.408l-.938-2.083a.815.815 0 0 1 .408-1.078l2.147-.967a9.37 9.37 0 0 1-.104-3.403l-2.202-.834A.815.815 0 0 1 .765 9.41l.809-2.136A.815.815 0 0 1 2.625 6.8l2.202.835a9.373 9.373 0 0 1 2.333-2.48l-.967-2.147A.815.815 0 0 1 6.6 1.93L8.684.992a.816.816 0 0 1 1.078.408l.967 2.147a9.346 9.346 0 0 1 3.403-.104l.834-2.202a.815.815 0 0 1 1.05-.473l2.137.81c.42.159.633.63.473 1.05l-.834 2.202a9.373 9.373 0 0 1 2.48 2.333l2.146-.967a.815.815 0 0 1 1.078.408l.939 2.083a.815.815 0 0 1-.409 1.078l-2.147.967a9.37 9.37 0 0 1 .104 3.403l2.202.834a.815.815 0 0 1 .474 1.051l-.81 2.136a.815.815 0 0 1-1.05.474l-2.203-.835a9.373 9.373 0 0 1-2.332 2.48l.967 2.147zm-1.35-7.749a5.49 5.49 0 0 0-.13-4.228 5.49 5.49 0 0 0-3.081-2.899 5.507 5.507 0 0 0-1.957-.36 5.557 5.557 0 0 0-5.17 3.57 5.491 5.491 0 0 0 .13 4.229 5.49 5.49 0 0 0 3.08 2.898c.631.24 1.29.36 1.958.36a5.557 5.557 0 0 0 5.17-3.57z"/><circle cx="12.712" cy="12.723" r="3.166"/></g></g></svg>