<svg xmlns="http://www.w3.org/2000/svg">
<path d="M22.423 4.931H8.868v-.527C8.868 3.63 8.228 3 7.443 3H5.23c-.786 0-1.425.63-1.425 1.404v.527H1.57a.566.566 0 0 0-.57.562c0 .31.255.561.57.561h2.235v.528c0 .774.64 1.404 1.425 1.404h2.213c.786 0 1.425-.63 1.425-1.404v-.528h13.555c.315 0 .57-.251.57-.561a.566.566 0 0 0-.57-.562zM7.728 6.581a.284.284 0 0 1-.285.282H5.23a.283.283 0 0 1-.285-.281V4.404c0-.155.128-.281.285-.281h2.213c.157 0 .285.126.285.28v2.179zm14.695 4.604H20.19v-.528c0-.774-.64-1.403-1.426-1.403h-2.212c-.786 0-1.426.63-1.426 1.403v.528H1.57a.566.566 0 0 0-.57.562c0 .31.255.561.57.561h13.555v.527c0 .774.64 1.404 1.426 1.404h2.212c.786 0 1.426-.63 1.426-1.404v-.527h2.234c.315 0 .57-.251.57-.561a.566.566 0 0 0-.57-.562zm-3.375 1.65a.283.283 0 0 1-.285.281h-2.212a.283.283 0 0 1-.285-.28v-2.179c0-.155.127-.28.285-.28h2.212c.157 0 .285.125.285.28v2.178zm3.375 5.063h-9.549v-.527c0-.774-.64-1.404-1.425-1.404H9.236c-.786 0-1.425.63-1.425 1.404v.527H1.57a.566.566 0 0 0-.57.562c0 .31.255.561.57.561h6.24v.528c0 .774.64 1.403 1.426 1.403h2.213c.786 0 1.425-.63 1.425-1.403v-.528h9.55c.314 0 .57-.251.57-.561a.566.566 0 0 0-.57-.562zm-10.69 1.65a.283.283 0 0 1-.284.282H9.236a.283.283 0 0 1-.285-.281V17.37c0-.155.128-.281.285-.281h2.213c.157 0 .285.126.285.28v2.179z"/></svg>