<?xml version="1.0" encoding="UTF-8"?>
<svg width="24px" height="24px" viewBox="0 0 24 24" version="1.1" xmlns="http://www.w3.org/2000/svg" xmlns:xlink="http://www.w3.org/1999/xlink">
    <!-- Generator: Sketch 54.1 (76490) - https://sketchapp.com -->
    <title>work_permit</title>
    <desc>Created with Sketch.</desc>
    <g id="work_permit" stroke="none" stroke-width="1" fill="none" fill-rule="evenodd">
        <path d="M23,12.6826613 C22.5484479,12.2556581 22.2917264,11.6489062 22.3146776,11.009356 C22.3157746,10.9787866 22.3157746,10.9481878 22.3146776,10.9176185 C22.289457,10.2148284 21.7017854,9.66487117 21,9.68502021 L21,3 L3,3 L3,21 L9.68502093,21 C9.68423679,21.0274558 9.68433728,21.0549306 9.6853224,21.0823815 C9.71065502,21.7882925 10.303445,22.3400102 11.009356,22.3146776 C11.6489062,22.2917264 12.2556581,22.5484479 12.6826613,23 L1,23 L1,1 L23,1 L23,12.6826613 Z M23,19.3173387 L23,23 L19.3173387,23 C19.7443419,22.5484479 20.3510938,22.2917264 20.990644,22.3146776 C21.0212134,22.3157746 21.0518122,22.3157746 21.0823815,22.3146776 C21.7882925,22.289345 22.3400102,21.696555 22.3146776,20.990644 C22.2917264,20.3510938 22.5484479,19.7443419 23,19.3173387 Z M12.6826613,9 C12.2556581,9.45155214 11.6489062,9.70827357 11.009356,9.6853224 C10.9787866,9.68422538 10.9481878,9.68422538 10.9176185,9.6853224 C10.2148284,9.71054302 9.66487117,10.2982146 9.68502021,11 L4.5,11 L4.5,9 L12.6826613,9 Z M8.56938335,13 C8.55327727,13.009071 8.5370277,13.0179558 8.5206367,13.0266508 C8.49361437,13.0409854 8.46711498,13.0562848 8.44118967,13.0725196 C7.84251918,13.4474137 7.66111261,14.2366438 8.03600677,14.8353143 C8.06972957,14.8891664 8.10090311,14.944117 8.1295274,15 L4.5,15 L4.5,13 L8.56938335,13 Z M8.1295274,17 C8.10090311,17.055883 8.06972957,17.1108336 8.03600677,17.1646857 C8.01977205,17.190611 8.00447263,17.2171104 7.99013801,17.2441327 C7.65912123,17.8681358 7.89663359,18.6423324 8.5206367,18.9733492 C8.5370277,18.9820442 8.55327727,18.990929 8.56938335,19 L4.5,19 L4.5,17 L8.1295274,17 Z M4.5,5 L19.5,5 L19.5,7 L4.5,7 L4.5,5 Z" id="Combined-Shape" fill="#000000"></path>
        <path d="M8.92089491,14.9647238 C8.58765566,14.4325723 8.74890594,13.7310344 9.28105749,13.3977952 C9.30410221,13.3833643 9.32765721,13.3697648 9.35167707,13.3570229 C10.0117004,13.0068984 10.4137482,12.3105312 10.3869532,11.563872 C10.3644354,10.9363956 10.8548511,10.4094711 11.4823275,10.3869532 C11.5095003,10.3859781 11.5366992,10.3859781 11.563872,10.3869532 C12.3105312,10.4137482 13.0068984,10.0117004 13.3570229,9.35167707 C13.6512601,8.79700763 14.3394348,8.58588554 14.8941042,8.88012268 C14.9181241,8.89286456 14.9416791,8.90646405 14.9647238,8.92089491 C15.5979522,9.31742961 16.4020478,9.31742961 17.0352762,8.92089491 C17.5674277,8.58765566 18.2689656,8.74890594 18.6022048,9.28105749 C18.6166357,9.30410221 18.6302352,9.32765721 18.6429771,9.35167707 C18.9931016,10.0117004 19.6894688,10.4137482 20.436128,10.3869532 C21.0636044,10.3644354 21.5905289,10.8548511 21.6130468,11.4823275 C21.6140219,11.5095003 21.6140219,11.5366992 21.6130468,11.563872 C21.5862518,12.3105312 21.9882996,13.0068984 22.6483229,13.3570229 C23.2029924,13.6512601 23.4141145,14.3394348 23.1198773,14.8941042 C23.1071354,14.9181241 23.093536,14.9416791 23.0791051,14.9647238 C22.6825704,15.5979522 22.6825704,16.4020478 23.0791051,17.0352762 C23.4123443,17.5674277 23.2510941,18.2689656 22.7189425,18.6022048 C22.6958978,18.6166357 22.6723428,18.6302352 22.6483229,18.6429771 C21.9882996,18.9931016 21.5862518,19.6894688 21.6130468,20.436128 C21.6355646,21.0636044 21.1451489,21.5905289 20.5176725,21.6130468 C20.4904997,21.6140219 20.4633008,21.6140219 20.436128,21.6130468 C19.6894688,21.5862518 18.9931016,21.9882996 18.6429771,22.6483229 C18.3487399,23.2029924 17.6605652,23.4141145 17.1058958,23.1198773 C17.0818759,23.1071354 17.0583209,23.093536 17.0352762,23.0791051 C16.4020478,22.6825704 15.5979522,22.6825704 14.9647238,23.0791051 C14.4325723,23.4123443 13.7310344,23.2510941 13.3977952,22.7189425 C13.3833643,22.6958978 13.3697648,22.6723428 13.3570229,22.6483229 C13.0068984,21.9882996 12.3105312,21.5862518 11.563872,21.6130468 C10.9363956,21.6355646 10.4094711,21.1451489 10.3869532,20.5176725 C10.3859781,20.4904997 10.3859781,20.4633008 10.3869532,20.436128 C10.4137482,19.6894688 10.0117004,18.9931016 9.35167707,18.6429771 C8.79700763,18.3487399 8.58588554,17.6605652 8.88012268,17.1058958 C8.89286456,17.0818759 8.90646405,17.0583209 8.92089491,17.0352762 C9.31742961,16.4020478 9.31742961,15.5979522 8.92089491,14.9647238 Z M16,21 C18.7614237,21 21,18.7614237 21,16 C21,13.2385763 18.7614237,11 16,11 C13.2385763,11 11,13.2385763 11,16 C11,18.7614237 13.2385763,21 16,21 Z" id="Combined-Shape" fill="#000000"></path>
        <g id="Group" transform="translate(11.000000, 13.000000)" fill="#000000">
            <path d="M1.43264624,4.10629562 L4.45252022,4.23491362 C4.71197179,4.2459638 4.91977659,4.4537948 4.93079406,4.71324777 L4.94532239,5.05537911 C4.957038,5.33127285 4.74287931,5.56442629 4.46698557,5.5761419 C4.45282895,5.57674305 4.43865316,5.57674216 4.42449661,5.57613922 L1.40462264,5.44752122 C1.14517107,5.43647104 0.937366265,5.22864004 0.926348801,4.96918708 L0.911820466,4.62705574 C0.900104857,4.351162 1.11426355,4.11800855 1.39015729,4.10629294 C1.40431391,4.10569179 1.41848969,4.10569269 1.43264624,4.10629562 Z" id="Rectangle" transform="translate(2.928571, 4.841217) rotate(44.000000) translate(-2.928571, -4.841217) "></path>
            <path d="M2.73722153,2.67941613 L9.77968416,2.97935827 C10.0391357,2.99040845 10.2469405,3.19823945 10.257958,3.45769241 L10.2724863,3.79982376 C10.2842019,4.0757175 10.0700433,4.30887094 9.79414951,4.32058655 C9.77999289,4.3211877 9.76581711,4.32118681 9.75166056,4.32058387 L2.70919792,4.02064173 C2.44974635,4.00959155 2.24194155,3.80176055 2.23092409,3.54230759 L2.21639575,3.20017624 C2.20468014,2.9242825 2.41883883,2.69112906 2.69473257,2.67941345 C2.7088892,2.6788123 2.72306498,2.67881319 2.73722153,2.67941613 Z" id="Rectangle" transform="translate(6.244441, 3.500000) scale(-1, 1) rotate(44.000000) translate(-6.244441, -3.500000) "></path>
        </g>
    </g>
</svg>