<svg xmlns="http://www.w3.org/2000/svg" width="24" height="24">
  <path d="M11.778 19.422C7.91 19.422 4 18.712 2 17.333v3.69c0 1.155 3.822 2.844 9.778 2.844 5.955 0 9.778-1.69 9.778-2.845v-3.689c-2 1.378-5.912 2.09-9.778 2.09zm0-13.555c5.955 0 9.778-1.69 9.778-2.845 0-1.155-3.823-2.844-9.778-2.844C5.822.178 2 1.867 2 3.022c0 1.156 3.822 2.845 9.778 2.845z"/>
  <path d="M11.778 13.2C7.91 13.2 4 12.489 2 11.111v4.133c0 1.156 3.822 2.845 9.778 2.845 5.955 0 9.778-1.689 9.778-2.845v-4.133c-2 1.378-5.912 2.089-9.778 2.089z"/>
  <path d="M11.778 7.2C7.91 7.2 4 6.489 2 5.111v3.867c0 1.155 3.822 2.844 9.778 2.844 5.955 0 9.778-1.689 9.778-2.844V5.11c-2 1.378-5.912 2.089-9.778 2.089z"/>
</svg>
