<svg xmlns="http://www.w3.org/2000/svg" width="24" height="24">
  <path d="M19.434 2.378h-1.509v-.481a.784.784 0 0 0-.788-.788.784.784 0 0 0-.787.788V2.4h-3.5v-.503a.784.784 0 0 0-.787-.788.784.784 0 0 0-.788.788V2.4H7.753v-.503a.784.784 0 0 0-.787-.788.784.784 0 0 0-.788.788V2.4h-1.51a2.53 2.53 0 0 0-2.515 2.516v14.459a2.53 2.53 0 0 0 2.516 2.516h14.744a2.53 2.53 0 0 0 2.515-2.516V4.894a2.484 2.484 0 0 0-2.494-2.516zM4.691 3.953H6.2v.503c0 .438.35.788.787.788.438 0 .788-.35.788-.788v-.503h3.522v.503c0 .438.35.788.787.788.438 0 .788-.35.788-.788v-.503h3.522v.503c0 .438.35.788.787.788.438 0 .788-.35.788-.788v-.503h1.51c.524 0 .962.438.962.963v1.487H3.728V4.916c0-.547.438-.963.963-.963zm14.743 16.384H4.691a.971.971 0 0 1-.963-.962V7.956h16.647v11.419a.939.939 0 0 1-.94.962z"/>
  <path d="M8.125 9.531H6.222a.635.635 0 0 0-.635.635v.678c0 .35.285.634.635.634h1.903c.35 0 .634-.284.634-.634v-.678a.635.635 0 0 0-.634-.635zm9.756 0H16a.635.635 0 0 0-.634.635v.678c0 .35.284.634.634.634h1.903c.35 0 .635-.284.635-.634v-.678a.64.64 0 0 0-.657-.635zm-4.878 0H11.1a.635.635 0 0 0-.634.635v.678c0 .35.284.634.634.634h1.903c.35 0 .634-.284.634-.634v-.678a.635.635 0 0 0-.634-.635zm-4.878 3.675H6.222a.635.635 0 0 0-.635.635v.678c0 .35.285.634.635.634h1.903c.35 0 .634-.284.634-.634v-.678a.635.635 0 0 0-.634-.635zm9.756 0H16a.635.635 0 0 0-.634.635v.678c0 .35.284.634.634.634h1.903c.35 0 .635-.284.635-.634v-.678a.64.64 0 0 0-.657-.635zm-4.878 0H11.1a.635.635 0 0 0-.634.635v.678c0 .35.284.634.634.634h1.903c.35 0 .634-.284.634-.634v-.678a.635.635 0 0 0-.634-.635zm-4.878 3.697H6.222a.635.635 0 0 0-.635.635v.678c0 .35.285.634.635.634h1.903c.35 0 .634-.284.634-.634v-.678a.635.635 0 0 0-.634-.635zm9.756 0H16a.635.635 0 0 0-.634.635v.678c0 .35.284.634.634.634h1.903c.35 0 .635-.284.635-.634v-.678a.64.64 0 0 0-.657-.635zm-4.878 0H11.1a.635.635 0 0 0-.634.635v.678c0 .35.284.634.634.634h1.903c.35 0 .634-.284.634-.634v-.678a.635.635 0 0 0-.634-.635z"/>
</svg>
