<svg xmlns="http://www.w3.org/2000/svg" width="24" height="24">
  <path d="M7.05 8.4a3.3 3.3 0 0 0-3.18 2.4H.15v1.8h3.72a3.3 3.3 0 0 0 6.36 0h13.62v-1.8H10.23a3.3 3.3 0 0 0-3.18-2.4zm0 4.8a1.5 1.5 0 1 1 0-3 1.5 1.5 0 0 1 0 3zM16.95.15a3.3 3.3 0 0 0-3.18 2.4H.15v1.8h13.62a3.3 3.3 0 0 0 6.36 0h3.72v-1.8h-3.72a3.3 3.3 0 0 0-3.18-2.4zm0 4.8a1.5 1.5 0 1 1 0-3 1.5 1.5 0 0 1 0 3zm0 11.7a3.3 3.3 0 0 0-3.18 2.4H.15v1.8h13.62a3.3 3.3 0 0 0 6.36 0h3.72v-1.8h-3.72a3.3 3.3 0 0 0-3.18-2.4zm0 4.8a1.5 1.5 0 1 1 0-3 1.5 1.5 0 0 1 0 3z"/>
</svg>
