<svg xmlns="http://www.w3.org/2000/svg" width="24" height="24">
  <path d="M19.96 12.326l-.627.626v.581a1.1 1.1 0 0 1-1.1 1.1.367.367 0 1 1 0-.733.372.372 0 0 0 .367-.367V12.8a.37.37 0 0 1 .107-.26l.475-.473-.475-.474a.366.366 0 0 1-.107-.26V10.6a.372.372 0 0 0-.367-.367.367.367 0 1 1 0-.733c.607 0 1.1.494 1.1 1.1v.582l.626.625a.366.366 0 0 1 0 .519zm-4.4.215a.367.367 0 0 1 .107.259v.733c0 .2.168.367.366.367a.367.367 0 1 1 0 .733c-.606 0-1.1-.493-1.1-1.1v-.582l-.626-.63a.365.365 0 0 1 .001-.52l.625-.62V10.6c0-.606.494-1.1 1.1-1.1a.367.367 0 1 1 0 .733.372.372 0 0 0-.366.367v.733a.367.367 0 0 1-.108.26l-.474.47.475.479zM20.433 8.4h-6.6a.367.367 0 0 0-.366.367v2.2c0 .097-.039.19-.108.259l-.84.84.84.841a.366.366 0 0 1 .108.26v2.2c0 .202.164.366.366.366h6.6a.367.367 0 0 0 .367-.366v-6.6a.367.367 0 0 0-.367-.367z"/>
  <path d="M21.533 15.367c0 .606-.493 1.1-1.1 1.1h-6.6c-.606 0-1.1-.494-1.1-1.1v-2.049l-.992-.992a.366.366 0 0 1 0-.519l.992-.992V8.767c0-.607.494-1.1 1.1-1.1h6.6a1.1 1.1 0 0 1 1.1 1.1v6.6zM10.9 16.833H5.767a.367.367 0 1 1 0-.733H10.9a.367.367 0 1 1 0 .733zm-2.2 2.2H4.667a.367.367 0 1 1 0-.733H8.7a.367.367 0 1 1 0 .733zm.367-4.766a.367.367 0 0 1-.367.366H4.667a.367.367 0 1 1 0-.733H8.7c.203 0 .367.164.367.367zm-5.867-2.2c0-.203.164-.367.367-.367H9.8a.367.367 0 1 1 0 .733H3.567a.367.367 0 0 1-.367-.366zM3.567 9.5H6.5a.367.367 0 1 1 0 .733H3.567a.367.367 0 1 1 0-.733zm0-4.4H6.5a.367.367 0 1 1 0 .733H3.567a.367.367 0 1 1 0-.733zm6.6 2.567a.367.367 0 0 1-.367.366H4.667a.367.367 0 1 1 0-.733H9.8c.203 0 .367.164.367.367zM2.1 4c-.892.046-1.1.757-1.1 1.136v14.63c0 .607.494 1.1 1.1 1.1h19.8c.606 0 1.1-.493 1.1-1.1V5.137c0-.484-.059-1.064-1.1-1.136H2.1z"/>
</svg>
