<svg xmlns="http://www.w3.org/2000/svg" width="48" height="48" viewBox="0 0 48 48">
  <path d="M11.875,0 C5.325,0 0,5.325 0,11.875 C0,18.425 5.325,23.75 11.875,23.75 C18.425,23.75 23.75,18.425 23.75,11.875 C23.75,5.325 18.425,0 11.875,0 Z M12.8,13.575 L12.8,17.6 C12.8,17.9 12.575,18.125 12.275,18.125 L11.475,18.125 C11.175,18.125 10.95,17.9 10.95,17.6 L10.95,13.575 C10.95,13.15 10.6,12.825 10.2,12.825 L6.175,12.825 C5.875,12.825 5.65,12.6 5.65,12.3 L5.65,11.5 C5.65,11.2 5.875,10.975 6.175,10.975 L10.2,10.975 C10.625,10.975 10.95,10.625 10.95,10.225 L10.95,6.2 C10.95,5.9 11.175,5.675 11.475,5.675 L12.275,5.675 C12.575,5.675 12.8,5.9 12.8,6.2 L12.8,10.225 C12.8,10.65 13.15,10.975 13.55,10.975 L17.575,10.975 C17.875,10.975 18.1,11.2 18.1,11.5 L18.1,12.3 C18.1,12.6 17.875,12.825 17.575,12.825 L13.55,12.825 C13.15,12.8 12.8,13.15 12.8,13.575 Z" />
</svg>
