<svg xmlns="http://www.w3.org/2000/svg" width="48" height="48">
  <path d="M23.778 31.422c-3.867 0-7.778-.71-9.778-2.089v3.69c0 1.155 3.822 2.844 9.778 2.844 5.955 0 9.778-1.69 9.778-2.845v-3.689c-2 1.378-5.912 2.09-9.778 2.09zm0-13.555c5.955 0 9.778-1.69 9.778-2.845 0-1.155-3.823-2.844-9.778-2.844-5.956 0-9.778 1.689-9.778 2.844 0 1.156 3.822 2.845 9.778 2.845z"/>
  <path d="M23.778 25.2C19.91 25.2 16 24.489 14 23.111v4.133c0 1.156 3.822 2.845 9.778 2.845 5.955 0 9.778-1.689 9.778-2.845v-4.133c-2 1.378-5.912 2.089-9.778 2.089z"/>
  <path d="M23.778 19.2C19.91 19.2 16 18.489 14 17.111v3.867c0 1.155 3.822 2.844 9.778 2.844 5.955 0 9.778-1.689 9.778-2.844V17.11c-2 1.378-5.912 2.089-9.778 2.089z"/>
</svg>
