<svg viewBox="0 0 24 24" xmlns="http://www.w3.org/2000/svg">
<path id="sort-alt" d="M11.25 16.5H9V2.25C9 1.875 8.625 1.5 8.25 1.5H6.75C6.32812 1.5 6 1.875 6 2.25V16.5H3.75C3.04687 16.5 2.71875 17.3438 3.1875 17.8125L6.9375 22.3125C7.07812 22.4062 7.3125 22.5 7.5 22.5C7.64062 22.5 7.875 22.4062 8.01562 22.3125L11.7656 17.8125C12.2344 17.3438 11.9062 16.5 11.25 16.5ZM20.7656 6.23438L17.0156 1.73438C16.875 1.64062 16.6406 1.54688 16.4531 1.54688C16.3125 1.54688 16.0781 1.64062 15.9375 1.73438L12.1875 6.23438C11.7188 6.70312 12.0469 7.5 12.75 7.5H15V21.75C15 22.1719 15.3281 22.5 15.75 22.5H17.25C17.625 22.5 18 22.1719 18 21.75V7.5H20.25C20.9062 7.5 21.2344 6.70312 20.7656 6.23438Z"/>
</svg>
