<svg width="34" height="34" xmlns="http://www.w3.org/2000/svg"><g fill="#000" fill-rule="evenodd"><path d="M0 0h4v2H2v2H0V0zm0 9V6h2v3H0zm0 2v4h4v-2H2v-2H0zm13 0v2h-2v2h4v-4h-2zm2-2V6h-2v3h2zm-2-7v2h2V0h-4v2h2zM9 2H6V0h3v2zm0 11H6v2h3v-2zM19 0h4v2h-2v2h-2V0zm0 9V6h2v3h-2zm0 2v4h4v-2h-2v-2h-2zm13 0v2h-2v2h4v-4h-2zm2-2V6h-2v3h2zm-2-7v2h2V0h-4v2h2zm-4 0h-3V0h3v2zm0 11h-3v2h3v-2zM19 19h4v2h-2v2h-2v-4zm0 9v-3h2v3h-2zm0 2v4h4v-2h-2v-2h-2zm13 0v2h-2v2h4v-4h-2zm2-2v-3h-2v3h2zm-2-7v2h2v-4h-4v2h2zm-4 0h-3v-2h3v2zm0 11h-3v2h3v-2zM0 19h4v2H2v2H0v-4zm0 9v-3h2v3H0zm0 2v4h4v-2H2v-2H0zm13 0v2h-2v2h4v-4h-2zm2-2v-3h-2v3h2zm-2-7v2h2v-4h-4v2h2zm-4 0H6v-2h3v2zm0 11H6v2h3v-2z"/></g></svg>