<?xml version="1.0" encoding="UTF-8"?>
<svg width="125px" height="122px" viewBox="0 0 125 122" version="1.1" xmlns="http://www.w3.org/2000/svg" xmlns:xlink="http://www.w3.org/1999/xlink">
    <title>Corner desk Straight and Chair</title>
    <g id="Corner-desk-Straight-and-Chair" stroke="none" stroke-width="1" fill="none" fill-rule="evenodd">
        <g id="Corner-desk-and-Chair-Copy-19" transform="translate(71.000000, 47.500000) rotate(-329.000000) translate(-71.000000, -47.500000) translate(-11.000000, -18.000000)">
            <path d="M1.42108547e-14,61.2895309 L102.002909,-1.56319402e-13 L163.29244,102.002909 L119.355299,128.001797 L95.6635471,88.5721008 C87.7042385,80.672237 78.5562027,78.3913755 68.2194395,81.7295163 C67.0998982,82.0910595 53.3852213,90.3316687 27.0754091,106.451344 L1.42108547e-14,61.2895309 Z" id="Path-17" stroke="#272C37"></path>
            <g id="Group" transform="translate(52.911369, 87.627854)"></g>
            <path d="M55.0721893,94.6969248 C55.0721893,94.6969248 55.8446304,97.3505932 57.3895128,102.65793 L63.3895128,123.65793 C78.7228461,123.65793 89.3895128,121.65793 95.3895128,117.65793 C95.3895128,116.991263 94.7228461,107.65793 93.3895128,89.65793 C81.2184075,88.0925063 68.4459664,89.7721712 55.0721893,94.6969248 Z" id="Path-18" stroke="#272C37"></path>
            <path d="M58.0898832,102.917161 L56.2141993,102.919862 C55.8053845,102.944364 55.4441459,103.130726 55.1896623,103.413249 C54.9327388,103.69848 54.7846273,104.081724 54.8062253,104.495374 L55.5973724,119.647611 C55.6183102,120.048616 55.7967488,120.405862 56.0914655,120.659737 C56.3931198,120.919589 56.8111819,121.069397 57.2987361,121.069397 C57.6977519,121.069397 58.061839,120.913187 58.3313735,120.657359 C58.600908,120.40153 58.77589,120.046084 58.7966956,119.647611 L59.5898355,104.405077 C59.586605,103.995657 59.4193479,103.625305 59.1505434,103.356501 C58.8790968,103.085054 58.5040968,102.917161 58.0898832,102.917161 Z" id="Rectangle" stroke="#272C37" transform="translate(57.197034, 111.993279) rotate(-19.000000) translate(-57.197034, -111.993279) "></path>
            <path d="M96.7823048,95.2987869 L94.9066209,95.3014875 C94.4978061,95.3259903 94.1365675,95.5123524 93.8820839,95.7948748 C93.6251604,96.0801059 93.4770489,96.4633501 93.4986469,96.8770002 L94.289794,112.029237 C94.3107318,112.430242 94.4891704,112.787488 94.7838871,113.041363 C95.0855414,113.301214 95.5036035,113.451023 95.9911577,113.451023 C96.3901734,113.451023 96.7542605,113.294813 97.0237951,113.038985 C97.2933296,112.783156 97.4683116,112.42771 97.4891172,112.029237 L98.2822571,96.786703 C98.2790266,96.3772831 98.1117694,96.0069313 97.8429649,95.7381268 C97.5715183,95.4666802 97.1965183,95.2987869 96.7823048,95.2987869 Z" id="Rectangle-Copy-3" stroke="#272C37"></path>
            <path d="M63.3895128,123.65793 C62.0561794,126.991263 62.3895128,129.324597 64.3895128,130.65793 C70.3895128,130.65793 91.3895128,129.65793 97.3895128,124.65793 C98.0561794,121.991263 97.3895128,119.65793 95.3895128,117.65793" id="Path-19" stroke="#272C37"></path>
        </g>
    </g>
</svg>