<?xml version="1.0" encoding="UTF-8"?>
<svg width="125px" height="122px" viewBox="0 0 125 122" version="1.1" xmlns="http://www.w3.org/2000/svg" xmlns:xlink="http://www.w3.org/1999/xlink">
    <title>Corner desk and Chair</title>
    <g id="Corner-desk-and-Chair" stroke="none" stroke-width="1" fill="none" fill-rule="evenodd">
        <path d="M-9.10956892,43.3291548 L92.8933399,-17.9603761 L153.667833,83.1853654 L115.095304,106.362079 L91.9185908,67.7895502 C88.7155488,65.0475984 85.7994587,64.0776175 83.1703205,64.8796075 C80.9409478,65.0525164 56.3210727,68.9886153 40.8159281,73.9958264 C39.136616,74.5381412 36.8722208,75.1988114 34.815757,77.6010929 C31.3408085,81.6603934 30.0185709,85.1500667 25.7327344,87.7252571 C20.7000852,84.527133 12.6912506,75.7286034 1.70623065,61.3296681 L-9.10956892,43.3291548 Z" id="Path-17" stroke="#272C37" transform="translate(72.279132, 44.200851) rotate(31.000000) translate(-72.279132, -44.200851) "></path>
        <g id="Group" transform="translate(44.509227, 81.724527) rotate(31.000000) translate(-44.509227, -81.724527) translate(20.509227, 60.724527)"></g>
        <path d="M26.0705171,67.2498854 C26.0705171,67.2498854 26.8429583,69.9035538 28.3878406,75.2108906 L34.3878406,96.2108906 C49.7211739,96.2108906 60.3878406,94.2108906 66.3878406,90.2108906 C66.3878406,89.5442239 65.7211739,80.2108906 64.3878406,62.2108906 C52.2167354,60.6454669 39.4442942,62.3251318 26.0705171,67.2498854 Z" id="Path-18" stroke="#272C37" transform="translate(46.229179, 78.927707) rotate(31.000000) translate(-46.229179, -78.927707) "></path>
        <path d="M28.7702713,65.3795089 L26.8945875,65.3822095 C26.4857726,65.4067122 26.124534,65.5930744 25.8700505,65.8755967 C25.6131269,66.1608279 25.4650154,66.5440721 25.4866134,66.9577222 L26.2777606,82.1099586 C26.2986983,82.5109641 26.477137,82.8682097 26.7718537,83.122085 C27.073508,83.3819364 27.49157,83.5317453 27.9791242,83.5317453 C28.37814,83.5317453 28.7422271,83.3755352 29.0117616,83.1197067 C29.2812962,82.8638783 29.4562782,82.5084316 29.4770837,82.1099586 L30.2702237,66.8674249 C30.2669932,66.4580051 30.099736,66.0876532 29.8309315,65.8188487 C29.5594849,65.5474021 29.1844849,65.3795089 28.7702713,65.3795089 Z" id="Rectangle" stroke="#272C37" transform="translate(27.877422, 74.455627) rotate(12.000000) translate(-27.877422, -74.455627) "></path>
        <path d="M65.8599026,78.7773581 L63.9842187,78.7800587 C63.5754039,78.8045614 63.2141653,78.9909236 62.9596817,79.2734459 C62.7027582,79.5586771 62.5546467,79.9419213 62.5762447,80.3555714 L63.3673918,95.5078078 C63.3883296,95.9088133 63.5667682,96.2660589 63.8614849,96.5199342 C64.1631392,96.7797856 64.5812013,96.9295945 65.0687555,96.9295945 C65.4677713,96.9295945 65.8318583,96.7733844 66.1013929,96.5175559 C66.3709274,96.2617275 66.5459094,95.9062808 66.566715,95.5078078 L67.3598549,80.2652741 C67.3566244,79.8558543 67.1893673,79.4855024 66.9205628,79.2166979 C66.6491161,78.9452513 66.2741161,78.7773581 65.8599026,78.7773581 Z" id="Rectangle-Copy-3" stroke="#272C37" transform="translate(64.967053, 87.853476) rotate(31.000000) translate(-64.967053, -87.853476) "></path>
        <path d="M24.5312772,96.1861421 C23.1979439,99.5194755 23.5312772,101.852809 25.5312772,103.186142 C31.5312772,103.186142 52.5312772,102.186142 58.5312772,97.1861421 C59.1979439,94.5194755 58.5312772,92.1861421 56.5312772,90.1861421" id="Path-19" stroke="#272C37" transform="translate(41.256277, 96.686142) rotate(31.000000) translate(-41.256277, -96.686142) "></path>
    </g>
</svg>