<?xml version="1.0" encoding="UTF-8"?>
<svg width="119px" height="98px" viewBox="0 0 119 98" version="1.1" xmlns="http://www.w3.org/2000/svg" xmlns:xlink="http://www.w3.org/1999/xlink">
    <title>Desk and Chair</title>
    <g id="Desk-and-Chair" stroke="none" stroke-width="1" fill="none" fill-rule="evenodd">
        <g id="Group-2" stroke="#272C37">
            <path d="M0,74 L0,0 L119,0 L119,57 L80,57 C67.3333333,58.3333333 56,61.3333333 46,66 C36,70.6666667 25.6666667,73.3333333 15,74 L0,74 Z" id="Path-17"></path>
            <g id="Group" transform="translate(37.807521, 57.000000)">
                <path d="M5.19247875,10 C5.19247875,10 5.52581209,11 6.19247875,13 L12.1924788,34 C27.5258121,34 38.1924788,32 44.1924788,28 C44.1924788,27.3333333 43.5258121,18 42.1924788,0 C30.8591454,0.666666667 18.5258121,4 5.19247875,10 Z" id="Path-18"></path>
                <path d="M6.89284919,13.259231 L5.01716531,13.2619316 C4.6083505,13.2864343 4.24711188,13.4727965 3.99262834,13.7553188 C3.73570481,14.04055 3.5875933,14.4237942 3.60919131,14.8374443 L4.40033841,29.9896807 C4.4212762,30.3906862 4.59971481,30.7479318 4.89443151,31.0018071 C5.19608582,31.2616585 5.6141479,31.4114674 6.10170208,31.4114674 C6.50071786,31.4114674 6.86480495,31.2552572 7.1343395,30.9994288 C7.40387404,30.7436004 7.57885603,30.3881537 7.59966159,29.9896807 L8.39280153,14.747147 C8.38957102,14.3377272 8.22231386,13.9673753 7.95350936,13.6985708 C7.68206275,13.4271242 7.30706275,13.259231 6.89284919,13.259231 Z" id="Rectangle" transform="translate(6.000000, 22.335349) rotate(-19.000000) translate(-6.000000, -22.335349) "></path>
                <path d="M45.5852708,5.64085694 L43.7095869,5.64355754 C43.3007721,5.66806028 42.9395335,5.85442241 42.6850499,6.13694477 C42.4281264,6.42217594 42.2800149,6.80542014 42.3016129,7.21907024 L43.09276,22.3713067 C43.1136978,22.7723122 43.2921364,23.1295578 43.5868531,23.383433 C43.8885074,23.6432845 44.3065695,23.7930934 44.7941237,23.7930934 C45.1931394,23.7930934 45.5572265,23.6368832 45.8267611,23.3810548 C46.0962956,23.1252263 46.2712776,22.7697797 46.2920832,22.3713067 L47.0852231,7.12877298 C47.0819926,6.71935311 46.9147354,6.34900127 46.6459309,6.08019677 C46.3744843,5.80875016 45.9994843,5.64085694 45.5852708,5.64085694 Z" id="Rectangle-Copy-3"></path>
                <path d="M12.1924788,34 C10.8591454,37.3333333 11.1924788,39.6666667 13.1924788,41 C19.1924788,41 40.1924788,40 46.1924788,35 C46.8591454,32.3333333 46.1924788,30 44.1924788,28" id="Path-19"></path>
            </g>
        </g>
    </g>
</svg>