<?xml version="1.0" encoding="UTF-8"?>
<svg width="174px" height="161px" viewBox="0 0 174 161" version="1.1" xmlns="http://www.w3.org/2000/svg" xmlns:xlink="http://www.w3.org/1999/xlink">
    <title>Executive Desk</title>
    <g id="Executive-Desk" stroke="none" stroke-width="1" fill="none" fill-rule="evenodd">
        <g id="Group-8" transform="translate(55.493162, 74.010044)" stroke="#272C37">
            <path d="M3.03322751,8.60536255 C3.03322751,8.60536255 3.80566866,11.259031 5.35055098,16.5663677 L11.350551,37.5663677 C26.6838843,37.5663677 37.350551,35.5663677 43.350551,31.5663677 C43.350551,30.8997011 42.6838843,21.5663677 41.350551,3.56636775 C29.1794457,2.00094404 16.4070046,3.68060897 3.03322751,8.60536255 Z" id="Path-18" transform="translate(23.191889, 20.283184) rotate(9.000000) translate(-23.191889, -20.283184) "></path>
            <path d="M5.89284919,11.698616 L4.01716531,11.7013166 C3.6083505,11.7258193 3.24711188,11.9121815 2.99262834,12.1947038 C2.73570481,12.479935 2.5875933,12.8631792 2.60919131,13.2768293 L3.40033841,28.4290657 C3.4212762,28.8300712 3.59971481,29.1873168 3.89443151,29.4411921 C4.19608582,29.7010435 4.6141479,29.8508524 5.10170208,29.8508524 C5.50071786,29.8508524 5.86480495,29.6946422 6.1343395,29.4388138 C6.40387404,29.1829854 6.57885603,28.8275387 6.59966159,28.4290657 L7.39280153,13.186532 C7.38957102,12.7771122 7.22231386,12.4067603 6.95350936,12.1379558 C6.68206275,11.8665092 6.30706275,11.698616 5.89284919,11.698616 Z" id="Rectangle"></path>
            <path d="M45.1020195,12.4814989 L43.2263356,12.4841995 C42.8175208,12.5087022 42.4562822,12.6950644 42.2017986,12.9775867 C41.9448751,13.2628179 41.7967636,13.6460621 41.8183616,14.0597122 L42.6095087,29.2119486 C42.6304465,29.6129541 42.8088851,29.9701997 43.1036018,30.224075 C43.4052561,30.4839264 43.8233182,30.6337354 44.3108724,30.6337354 C44.7098881,30.6337354 45.0739752,30.4775252 45.3435098,30.2216967 C45.6130443,29.9658683 45.7880263,29.6104216 45.8088319,29.2119486 L46.6019718,13.9694149 C46.5987413,13.5599951 46.4314841,13.1896432 46.1626796,12.9208387 C45.891233,12.6493921 45.516233,12.4814989 45.1020195,12.4814989 Z" id="Rectangle-Copy-3"></path>
            <path d="M8.8322223,38.112842 C7.49888896,41.4461753 7.8322223,43.7795087 9.8322223,45.112842 C15.8322223,45.112842 36.8322223,44.112842 42.8322223,39.112842 C43.498889,36.4461753 42.8322223,34.112842 40.8322223,32.112842" id="Path-19" transform="translate(25.557222, 38.612842) rotate(7.000000) translate(-25.557222, -38.612842) "></path>
        </g>
        <path d="M15,-0.0674446753 C50.4427589,-21.3703337 68.1575498,-32.0145188 68.1443726,-32 C111.574426,1.39299265 135.781216,41.6798558 144.370103,94.8609552 C144.383217,94.8463066 126.668394,105.490427 91.2256351,126.793316 L15,-0.0674446753 Z" id="Path-17" stroke="#272C37" transform="translate(79.685051, 47.396658) rotate(-59.000000) translate(-79.685051, -47.396658) "></path>
        <path d="M154.476319,30.5 L164.976319,30.5 C169.976319,97.5 169.976319,140.833333 164.976319,160.5 C164.976319,160.5 153.976319,160.5 131.976319,160.5 C126.642986,122.833333 123.976319,95.3333333 123.976319,78" id="Path-22" stroke="#272C37"></path>
    </g>
</svg>