<?xml version="1.0" encoding="UTF-8"?>
<svg width="140px" height="112px" viewBox="0 0 140 112" version="1.1" xmlns="http://www.w3.org/2000/svg" xmlns:xlink="http://www.w3.org/1999/xlink">
    <title>Straight Desk and Chair</title>
    <g id="Straight-Desk-and-Chair" stroke="none" stroke-width="1" fill="none" fill-rule="evenodd">
        <g transform="translate(66.000000, 42.000000) rotate(-419.000000) translate(-66.000000, -42.000000) translate(-5.000000, -34.000000)">
            <polygon id="Path-17" stroke="#272C37" points="14.049874 34.6680531 71.4800831 0.16050212 141.525261 116.735255 84.0950522 151.242806"></polygon>
            <g id="Group" transform="translate(38.911369, 78.627854)"></g>
            <g id="Group-6" transform="translate(29.955419, 101.244844) rotate(64.000000) translate(-29.955419, -101.244844) translate(5.955419, 80.244844)" stroke="#272C37">
                <path d="M3.87515528,5.60536255 C3.87515528,5.60536255 4.64759644,8.25903095 6.19247875,13.5663677 L12.1924788,34.5663677 C27.5258121,34.5663677 38.1924788,32.5663677 44.1924788,28.5663677 C44.1924788,27.8997011 43.5258121,18.5663677 42.1924788,0.566367747 C30.0213735,-0.999055963 17.2489324,0.680608972 3.87515528,5.60536255 Z" id="Path-18"></path>
                <path d="M6.89284919,13.8255987 L5.01716531,13.8282993 C4.6083505,13.8528021 4.24711188,14.0391642 3.99262834,14.3216866 C3.73570481,14.6069177 3.5875933,14.9901619 3.60919131,15.403812 L4.40033841,30.5560485 C4.4212762,30.9570539 4.59971481,31.3142996 4.89443151,31.5681748 C5.19608582,31.8280262 5.6141479,31.9778352 6.10170208,31.9778352 C6.50071786,31.9778352 6.86480495,31.821625 7.1343395,31.5657966 C7.40387404,31.3099681 7.57885603,30.9545214 7.59966159,30.5560485 L8.39280153,15.3135148 C8.38957102,14.9040949 8.22231386,14.5337431 7.95350936,14.2649386 C7.68206275,13.9934919 7.30706275,13.8255987 6.89284919,13.8255987 Z" id="Rectangle" transform="translate(6.000000, 22.901717) rotate(-19.000000) translate(-6.000000, -22.901717) "></path>
                <path d="M45.5852708,6.20722469 L43.7095869,6.20992528 C43.3007721,6.23442802 42.9395335,6.42079016 42.6850499,6.70331251 C42.4281264,6.98854369 42.2800149,7.37178789 42.3016129,7.78543798 L43.09276,22.9376744 C43.1136978,23.3386799 43.2921364,23.6959255 43.5868531,23.9498008 C43.8885074,24.2096522 44.3065695,24.3594611 44.7941237,24.3594611 C45.1931394,24.3594611 45.5572265,24.2032509 45.8267611,23.9474225 C46.0962956,23.6915941 46.2712776,23.3361474 46.2920832,22.9376744 L47.0852231,7.69514073 C47.0819926,7.28572086 46.9147354,6.91536902 46.6459309,6.64656452 C46.3744843,6.37511791 45.9994843,6.20722469 45.5852708,6.20722469 Z" id="Rectangle-Copy-3"></path>
                <path d="M12.1924788,34.5663677 C10.8591454,37.8997011 11.1924788,40.2330344 13.1924788,41.5663677 C19.1924788,41.5663677 40.1924788,40.5663677 46.1924788,35.5663677 C46.8591454,32.8997011 46.1924788,30.5663677 44.1924788,28.5663677" id="Path-19"></path>
            </g>
        </g>
    </g>
</svg>