<svg xmlns="http://www.w3.org/2000/svg" width="24" height="24">
  <g fill="none" stroke="#000" stroke-width=".8">
    <path d="M18.1546254 2.1289028l-1.100049 2.4421013.2609735.1915652c.8823927.6477121 1.6405129 1.4536599 2.2328513 2.3736183l.1752796.2722262.3027682-.1147233 2.2020823-.8344012c.2144165-.0812674.454012.0266827.5352333.2411136l.8093052 2.1362461c.0390112.1029232.0355202.2171164-.0097023.3174357-.0453024.1004964-.1284999.1787547-.2315992.2178012l-2.5048192.9491127.0491354.3200268c.1660552 1.081544.1323186 2.1871794-.0994204 3.2572364l-.0685235.31640761.2951779.13296341 2.1468435.96704954c.1004964.04530234.1787548.12849988.2178158.23163766.0390112.10292312.0355202.21711635-.0097428.31752553l-.9382568 2.08275079c-.0940737.20888667-.3400382.30201612-.548953.20793802l-2.4421157-1.10005546-.1915652.26097345c-.6477121.88239271-1.4536598 1.6405129-2.3736183 2.23285129l-.2722262.17527964.1147233.30276822.8343714 2.20200363c.0812117.21440542-.0267599.4541312-.2411182.53532501l-2.1358847.80939307c-.1030217.0389969-.2173256.0355245-.3175996-.00964023-.1004964-.04530235-.1787548-.12849988-.2177956-.23158416l-.9490235-2.50488801-.3202328.04939442c-1.0808583.16671737-2.1882941.13278314-3.2569124-.09925344l-.31655766-.06873638-.13303191.29535731-.96688081 2.14666781c-.04530234.1004964-.12849988.17875476-.23147372.21775372-.10300756.03899156-.2174266.03551632-.31770016-.00968556L6.0534803 22.4202067c-.20903019-.0941383-.30210906-.33985009-.20793801-.548953l1.10005545-2.44211569-.26097345-.19156513c-.8823927-.64771213-1.64051289-1.45365988-2.23285128-2.37361837l-.17527965-.27222615-.30276821.11472331-2.20192345.83434105c-.10289207.03894785-.21730631.03545008-.3175996-.00964024-.10049639-.04530234-.17875476-.12849988-.21779613-.23158572L.4271361 15.16357689c-.08121166-.21440543.02675997-.4541312.24110676-.53532066l2.50482591-.94911523-.04914344-.3200328c-.16605637-1.0813952-.13231244-2.1873493.09941918-3.257216l.06853711-.3164245-.29519935-.132963-2.14699615-.9670449c-.1004964-.0453023-.17875476-.1284999-.21781583-.2316377-.03901118-.1029231-.03552017-.2171163.00974285-.3175255l.93831126-2.0828717c.04509376-.1002176.1283306-.178513.23126178-.2175272.10325285-.0391046.21721388-.035642.31763677.0097101L4.5709641 6.9456747l.19155963-.2610121c.64769369-.8825236 1.45345853-1.6404694 2.37357244-2.2328074l.27226117-.1752724-.11473236-.3027921-.83437141-2.2020037c-.08121166-.2144054.02675996-.4541312.24108383-.5353119L8.83633863.4272626c.04717541-.0178457.0971539-.026948.14720063-.026948.05879578 0 .11691617.0124046.17047991.0365576.10049639.0453024.17875476.1284999.21779555.2315842l.94900698 2.5048444.3201937-.0493423c1.0812262-.1666182 2.1888389-.1327194 3.2569562.0992423l.3165654.0687481.133036-.2953664.9668808-2.1466678c.0453024-.1004964.1284999-.1787548.2316377-.2178159.1030383-.0390548.2172361-.0355863.3175492.0097536l2.0827813.9381075c.2091983.0941766.3023535.3398865.208197.5489572l.0000064-.0000143z"/>
    <path d="M16.7441906 10.2026487c-.7427078-1.9604015-2.6496846-3.277462-4.7452191-3.277462-.6129622 0-1.2173944.1113388-1.7965359.3307242-1.26722743.4800739-2.27167131 1.4249575-2.82821582 2.660609-.55654451 1.2355019-.59859587 2.6139185-.11852198 3.881146.74270783 1.96040147 2.64968463 3.27746204 4.7452191 3.27746204.6129622 0 1.2173944-.11133884 1.7965359-.33072422 1.2672275-.48007389 2.2716713-1.42495748 2.8282159-2.66045936.5566941-1.23565156.5987455-2.61406816.1185219-3.88129566z"/>
  </g>
</svg>
