<svg xmlns="http://www.w3.org/2000/svg" width="24" height="24">
  <g fill="none" fill-rule="evenodd" stroke="#000">
    <path d="M23.1984473 5.87854233c-.0249984-.0805579-.092263-.14454341-.1817138-.16784622-.0849097-.02281877-.1744244.00076468-.239224.06347023L18.665854 9.72669622l-3.4534816-.67964078-.6926063-3.40939737.1982485-.19055058 3.9677075-3.81364235c.0607569-.05833046.0851863-.14146749.0660056-.22014377-.0198537-.0814364-.0821061-.14728857-.1651662-.17306089C17.8322427 1.00834275 17.1511973.89648438 16.5.89648438c-3.8612048 0-7 3.08694173-7 6.87609863 0 .43915601.05287897.88486898.16470493 1.37977254l.06848226.30307915-.24142158.19560782c-.71675185.58073628-1.25769623.98848998-2.57028253 1.95293258-2.0465969 1.503191-3.10423992 2.3121848-4.74308365 3.6731151C1.11022801 16.1951287.5 17.492657.5 18.836731.5 21.4058811 2.62929521 23.5 5.25 23.5c1.38574667 0 2.70495101-.6090762 3.61528047-1.6716341 1.42240203-1.639968 2.30338373-2.7468651 3.79572433-4.7090252.9275533-1.2197465 1.3592089-1.7729225 1.9387546-2.466746l.1949108-.2333443.296858.0656897c.5022485.111139.9584139.1637415 1.4084718.1637415 3.8612048 0 7-3.0869417 7-6.87609859 0-.59452639-.0946215-1.19311406-.3015472-1.89404194z"/>
    <path d="M5.25 20.3119507c-.8295 0-1.5-.6594232-1.5-1.4752197 0-.8157966.6705-1.4752198 1.5-1.4752198s1.5.6594232 1.5 1.4752198c0 .8157965-.6705 1.4752197-1.5 1.4752197z"/>
  </g>
</svg>
