<svg xmlns="http://www.w3.org/2000/svg" viewBox="0 0 24 24">
    <path d="M0.687321626,17.1428575 L14.74125,17.1428575 C14.9235825,17.1429995 15.0984881,17.0706312 15.2274167,16.9417026 C15.3563453,16.812774 15.4285716,16.6378684 15.4285716,16.4555358 L15.4285716,14.4016073 C15.4285716,14.2192748 15.3563453,14.0443692 15.2274167,13.9154406 C15.0984881,13.7865119 14.9235825,13.7141436 14.74125,13.7142857 L0.687321626,13.7142857 C0.504989072,13.7141436 0.3300835,13.7865119 0.201154875,13.9154406 C0.0722262505,14.0443692 0,14.2192748 0,14.4016073 L0,16.4555358 C0,16.6378684 0.0722262505,16.812774 0.201154875,16.9417026 C0.3300835,17.0706312 0.504989072,17.1429995 0.687321626,17.1428575 Z M0.687321626,3.428572 L14.74125,3.428572 C14.9235825,3.42871407 15.0984881,3.35634575 15.2274167,3.22741712 C15.3563453,3.0984885 15.4285716,2.92358292 15.4285716,2.74125037 L15.4285716,0.687321835 C15.4285716,0.504989281 15.3563453,0.330083709 15.2274167,0.201155084 C15.0984881,0.0722264593 14.9235825,-0.000141862448 14.74125,2.08787482e-07 L0.687321626,2.08787482e-07 C0.504989072,-0.000141862448 0.3300835,0.0722264593 0.201154875,0.201155084 C0.0722262505,0.330083709 0,0.504989281 0,0.687321835 L0,2.74125037 C0,2.92358292 0.0722262505,3.0984885 0.201154875,3.22741712 C0.3300835,3.35634575 0.504989072,3.42871407 0.687321626,3.428572 L0.687321626,3.428572 Z M23.1428569,6.85714316 L0.857143052,6.85714316 C0.383756131,6.85714316 2.09402833e-07,7.24089908 2.09402833e-07,7.714286 L2.09402833e-07,9.42857168 C2.09402833e-07,9.9019586 0.383756131,10.2857145 0.857143052,10.2857145 L23.1428569,10.2857145 C23.6162439,10.2857145 24.0000002,9.9019586 24.0000002,9.42857168 L24.0000002,7.714286 C24.0000002,7.24089908 23.6162439,6.85714316 23.1428569,6.85714316 Z M23.1428569,20.5714286 L0.857143052,20.5714286 C0.383756131,20.5714286 2.09402833e-07,20.9551846 2.09402833e-07,21.4285715 L2.09402833e-07,23.1428572 C2.09402833e-07,23.6162441 0.383756131,24 0.857143052,24 L23.1428569,24 C23.6162439,24 24.0000002,23.6162441 24.0000002,23.1428572 L24.0000002,21.4285715 C24.0000002,20.9551846 23.6162439,20.5714286 23.1428569,20.5714286 Z"></path>
</svg>
