<svg xmlns="http://www.w3.org/2000/svg" viewBox="0 0 24 24">
    <path d="M23.1428571,6.85714317 L0.857142857,6.85714317 C0.383755929,6.85714317 0,7.2408991 0,7.71428601 L0,9.4285717 C0,9.90195862 0.383755929,10.2857145 0.857142857,10.2857145 L23.1428571,10.2857145 C23.6162441,10.2857145 24,9.90195862 24,9.4285717 L24,7.71428601 C24,7.2408991 23.6162441,6.85714317 23.1428571,6.85714317 Z M23.1428571,20.5714286 L0.857142857,20.5714286 C0.383755929,20.5714286 0,20.9551846 0,21.4285715 L0,23.1428572 C0,23.6162441 0.383755929,24 0.857142857,24 L23.1428571,24 C23.6162441,24 24,23.6162441 24,23.1428572 L24,21.4285715 C24,20.9551846 23.6162441,20.5714286 23.1428571,20.5714286 Z M5.79107143,3.42857181 L18.2094643,3.42857181 C18.3813322,3.42857181 18.546153,3.36026097 18.6676317,3.23868179 C18.7891104,3.1171026 18.857285,2.95222537 18.8571431,2.78035753 L18.8571431,0.647679003 C18.8571431,0.475903968 18.7889055,0.311164393 18.6674422,0.189701101 C18.5459789,0.0682378097 18.3812393,2.2118139e-07 18.2094643,2.2118139e-07 L5.79107143,2.2118139e-07 C5.61920359,-0.000141714012 5.45432635,0.0680328906 5.33274717,0.189511593 C5.21116799,0.310990296 5.14285714,0.47581111 5.14285714,0.647679003 L5.14285714,2.78035753 C5.14285714,3.13835639 5.43307256,3.42857181 5.79107143,3.42857181 Z M18.2094643,17.1428573 C18.3813322,17.1428573 18.546153,17.0745464 18.6676317,16.9529672 C18.7891104,16.8313881 18.857285,16.6665108 18.8571431,16.494643 L18.8571431,14.3619645 C18.8571431,14.0042615 18.5671673,13.7142857 18.2094643,13.7142857 L5.79107143,13.7142857 C5.61920359,13.7141437 5.45432635,13.7823184 5.33274717,13.9037971 C5.21116799,14.0252758 5.14285714,14.1900966 5.14285714,14.3619645 L5.14285714,16.494643 C5.14285714,16.6665601 5.21115095,16.8314359 5.33271471,16.9529997 C5.45427847,17.0745635 5.61915431,17.1428573 5.79107143,17.1428573 L18.2094643,17.1428573 Z"></path>
</svg>
