<svg xmlns="http://www.w3.org/2000/svg" viewBox="0 0 24 24">
  <path d="M23.68 5.74a.75.75 0 00-.53-.51.75.75 0 00-.72.18L18.51 9.2l-2.87-.57-.58-2.81 3.97-3.82a.73.73 0 00.2-.7.74.74 0 00-.5-.53A7.45 7.45 0 009 7.77c0 .48.06.96.18 1.5a65.9 65.9 0 01-2.55 1.93c-1.3.95-2.77 2.03-4.78 3.7A5.22 5.22 0 000 18.84 5.21 5.21 0 005.25 24a5.26 5.26 0 004-1.84 85.86 85.86 0 003.8-4.74 66.13 66.13 0 011.93-2.45 6.93 6.93 0 001.52.18c4.14 0 7.5-3.31 7.5-7.38 0-.64-.1-1.29-.32-2.04zM5.25 20.3c-.83 0-1.5-.66-1.5-1.47 0-.82.67-1.48 1.5-1.48s1.5.66 1.5 1.48c0 .81-.67 1.47-1.5 1.47z"/>
</svg>
