<svg viewBox="0 0 24 24" xmlns="http://www.w3.org/2000/svg">
            <path d="M22.995 12.123a.55.55 0 0 0-.07-.214l-5.224-9.35a.55.55 0 0 0-.481-.284H6.77a.55.55 0 0 0-.473.284l-5.225 9.35a.55.55 0 0 0 0 .532l5.225 9.35a.55.55 0 0 0 .473.284h10.45a.55.55 0 0 0 .48-.284l5.226-9.35a.55.55 0 0 0 .069-.318zm-1.17.052l-4.923 8.8H7.096l-4.924-8.8 4.924-8.8h9.806l4.924 8.8zm-4.33 0a5.51 5.51 0 0 0-5.5-5.5 5.508 5.508 0 0 0-5.5 5.5c0 3.031 2.469 5.5 5.5 5.5a5.51 5.51 0 0 0 5.5-5.5zm-1.1 0c0 2.437-1.964 4.4-4.4 4.4a4.392 4.392 0 0 1-4.4-4.4c0-2.437 1.963-4.4 4.4-4.4 2.436 0 4.4 1.963 4.4 4.4z"/>
        </svg>
