<svg xmlns="http://www.w3.org/2000/svg" viewBox="0 0 24 24">
  <path d="M12.52 14.73l-.66-1.45a6.34 6.34 0 001.58-1.68l1.49.56a.55.55 0 00.7-.32l.56-1.44a.55.55 0 00-.32-.71l-1.5-.56a6.33 6.33 0 00-.06-2.3l1.45-.66a.55.55 0 00.27-.73l-.63-1.4a.55.55 0 00-.73-.28l-1.45.65a6.34 6.34 0 00-1.68-1.57l.57-1.5a.55.55 0 00-.32-.7L10.35.09a.55.55 0 00-.71.32L9.07 1.9a6.32 6.32 0 00-2.3.07L6.12.52a.55.55 0 00-.73-.28L3.98.88a.55.55 0 00-.28.72l.66 1.46a6.34 6.34 0 00-1.58 1.67L1.3 4.17a.55.55 0 00-.7.32L.03 5.93a.55.55 0 00.32.71l1.48.57a6.33 6.33 0 00.07 2.3l-1.45.65a.55.55 0 00-.27.73l.63 1.4a.55.55 0 00.73.28L3 11.92a6.33 6.33 0 001.68 1.57L4.1 15a.55.55 0 00.32.7l1.45.55a.55.55 0 00.7-.32l.57-1.49a6.32 6.32 0 002.3-.07l.66 1.45a.55.55 0 00.72.28l1.41-.64a.55.55 0 00.28-.72zm-.91-5.24a3.76 3.76 0 01-3.5 2.41c-.45 0-.9-.08-1.32-.24A3.71 3.71 0 014.7 9.7a3.71 3.71 0 01-.08-2.86 3.76 3.76 0 013.5-2.41c.44 0 .89.08 1.32.24a3.71 3.71 0 012.08 1.96c.4.91.44 1.93.08 2.86zM23.86 17a.55.55 0 00-.39-.18l-1.03-.04a4.76 4.76 0 00-.52-1.4l.77-.7a.55.55 0 00.03-.78l-.76-.83a.55.55 0 00-.78-.03l-.76.7a4.76 4.76 0 00-1.35-.63l.04-1.03a.55.55 0 00-.52-.58l-1.13-.05a.55.55 0 00-.57.53l-.05 1.04c-.49.1-.96.26-1.4.5l-.7-.76a.55.55 0 00-.78-.03l-.82.76a.55.55 0 00-.04.78l.7.76a4.76 4.76 0 00-.62 1.35l-1.04-.04a.55.55 0 00-.57.52L11.52 18a.55.55 0 00.52.57l1.04.05c.1.49.27.96.51 1.4l-.76.7a.55.55 0 00-.04.78l.76.83a.55.55 0 00.78.03l.77-.7c.41.28.87.49 1.35.62l-.05 1.04a.55.55 0 00.53.58l1.12.04h.03a.55.55 0 00.55-.52l.04-1.04c.5-.1.96-.27 1.4-.51l.7.76a.55.55 0 00.78.04l.83-.76a.55.55 0 00.03-.78l-.7-.77a4.76 4.76 0 00.63-1.35l1.04.05a.55.55 0 00.57-.53l.05-1.12a.55.55 0 00-.14-.4zm-6.21 3.26a2.57 2.57 0 01-2.46-2.68 2.56 2.56 0 012.68-2.45 2.57 2.57 0 012.45 2.67 2.56 2.56 0 01-2.67 2.46z"/>
</svg>
