<svg xmlns="http://www.w3.org/2000/svg" viewBox="0 0 24 24">
    <path d="M2 20.938C2 22.075 2.924 23 4.063 23h15.125a2.063 2.063 0 0 0 2.062-2.063V9.25H2v11.688zm13.75-8.422c0-.284.232-.516.516-.516h1.718c.284 0 .516.232.516.516v1.718a.517.517 0 0 1-.516.516h-1.718a.517.517 0 0 1-.516-.516v-1.718zm0 5.5c0-.284.232-.516.516-.516h1.718c.284 0 .516.232.516.516v1.718a.517.517 0 0 1-.516.516h-1.718a.517.517 0 0 1-.516-.516v-1.718zm-5.5-5.5c0-.284.232-.516.516-.516h1.718c.284 0 .516.232.516.516v1.718a.517.517 0 0 1-.516.516h-1.718a.517.517 0 0 1-.516-.516v-1.718zm0 5.5c0-.284.232-.516.516-.516h1.718c.284 0 .516.232.516.516v1.718a.517.517 0 0 1-.516.516h-1.718a.517.517 0 0 1-.516-.516v-1.718zm-5.5-5.5c0-.284.232-.516.516-.516h1.718c.284 0 .516.232.516.516v1.718a.517.517 0 0 1-.516.516H5.266a.517.517 0 0 1-.516-.516v-1.718zm0 5.5c0-.284.232-.516.516-.516h1.718c.284 0 .516.232.516.516v1.718a.517.517 0 0 1-.516.516H5.266a.517.517 0 0 1-.516-.516v-1.718zM19.188 3.75h-2.063V1.687A.69.69 0 0 0 16.437 1h-1.375a.69.69 0 0 0-.687.688V3.75h-5.5V1.687A.69.69 0 0 0 8.187 1H6.813a.69.69 0 0 0-.688.688V3.75H4.062A2.063 2.063 0 0 0 2 5.813v2.062h19.25V5.812a2.063 2.063 0 0 0-2.063-2.062z"/>
</svg>
