<svg xmlns="http://www.w3.org/2000/svg" viewBox="0 0 24 24">
    <path d="M9.5765625,0.28125 C4.9171875,1.190625 1.1625,4.9359375 0.24375,9.58125 C-1.490625,18.346875 6.4171875,24.88125 12.375,23.9578125 C14.30625,23.6578125 15.253125,21.3984375 14.3671875,19.659375 C13.284375,17.53125 14.83125,15.046875 17.221875,15.046875 L20.9578125,15.046875 C22.6359375,15.046875 23.9953125,13.659375 24,11.9859375 C23.9765625,4.5984375 17.2546875,-1.2140625 9.5765625,0.28125 Z M4.5,15.046875 C3.6703125,15.046875 3,14.3765625 3,13.546875 C3,12.7171875 3.6703125,12.046875 4.5,12.046875 C5.3296875,12.046875 6,12.7171875 6,13.546875 C6,14.3765625 5.3296875,15.046875 4.5,15.046875 Z M6,9.046875 C5.1703125,9.046875 4.5,8.3765625 4.5,7.546875 C4.5,6.7171875 5.1703125,6.046875 6,6.046875 C6.8296875,6.046875 7.5,6.7171875 7.5,7.546875 C7.5,8.3765625 6.8296875,9.046875 6,9.046875 Z M12,6.046875 C11.1703125,6.046875 10.5,5.3765625 10.5,4.546875 C10.5,3.7171875 11.1703125,3.046875 12,3.046875 C12.8296875,3.046875 13.5,3.7171875 13.5,4.546875 C13.5,5.3765625 12.8296875,6.046875 12,6.046875 Z M18,9.046875 C17.1703125,9.046875 16.5,8.3765625 16.5,7.546875 C16.5,6.7171875 17.1703125,6.046875 18,6.046875 C18.8296875,6.046875 19.5,6.7171875 19.5,7.546875 C19.5,8.3765625 18.8296875,9.046875 18,9.046875 Z"></path>
</svg>
