 <svg viewBox="0 0 24 24" xmlns="http://www.w3.org/2000/svg">
            <path d="M12 24C5.372583 24 0 18.627417 0 12S5.372583 0 12 0s12 5.372583 12 12-5.372583 12-12 12zM5.07723699 12.5450994l.10901989.1635299 4.25177571 4.5788354c.10901989.1090199.21803978.1635298.38156961.1635298.16352984 0 .2725497-.0545099.3815696-.1635298l8.7215912-9.0486509c.2180398-.21803978.2180398-.54509945 0-.76313923l-.7631392-.76313923c-.2180398-.21803978-.5450995-.21803978-.7631392 0h-.05451L10.037642 14.2894177c-.10901991.1090199-.27254974.1090199-.38156963 0l-2.99804698-3.2160868-.05450994-.0545099c-.21803978-.2180398-.54509945-.2180398-.76313923 0l-.76313923.7631392c-.10901989.1090199-.16352984.2725497-.16352984.3815696s.05450995.2725498.16352984.3815696z"/>
        </svg>