<svg viewBox="0 0 24 24" xmlns="http://www.w3.org/2000/svg">
            <path d="M21.6028571 1.49999963c.4071128 0 .7371429.33578632.7371429.74999974v1.49999948c0 .41421342-.3300301.74999974-.7371429.74999974H2.43714286C2.0300301 4.49999859 1.7 4.16421227 1.7 3.74999885V2.24999937c0-.41421342.3300301-.74999974.73714286-.74999974h5.52857143l.43307142-.8765622c.18402837-.38290684.56700402-.6250758.98592858-.62343729h5.26596431c.4197139-.00030627.8034133.24119183.9905357.62343729l.4330714.8765622h5.5285714zM4.151 21.8906176L3.17428571 5.99999808H20.8657143L19.889 21.8906176c-.0729725 1.1856024-1.0392606 2.1092219-2.2068214 2.1093743H6.35782143C5.1902606 23.9998395 4.22397254 23.07622 4.151 21.8906176zm2.47701315-7.5968021l.0853421.1280132 3.32834193 3.5843682c.08534211.0853421.17068421.1280132.29869736.1280132.12801315 0 .21335525-.0426711.29869735-.1280132L17.46646 10.9228026c.1706842-.1706842.1706842-.4267105 0-.5973947l-.5973947-.59739475c-.1706843-.1706842-.4267106-.1706842-.5973948 0h-.042671l-5.71792076 5.93127605c-.0853421.0853421-.21335525.0853421-.29869735 0l-2.34690778-2.517592-.04267105-.0426711c-.1706842-.1706842-.4267105-.1706842-.5973947 0l-.59739471.5973947C6.54267105 13.7817629 6.5 13.9097761 6.5 13.9951182s.04267105.2133552.12801315.2986973z"/>
        </svg>