<svg xmlns="http://www.w3.org/2000/svg" viewBox="0 0 24 24">
  <path class="icon-light" d="M19.4 6.185c0-2.208-1.793-4-4-4h-7c-2.209 0-4 1.792-4 4v5c0 2.208 1.791 4 4 4h7c2.207 0 4-1.792 4-4v-5z"/>
  <path class="icon-dark" d="M15.836 4.893a.64.64 0 0 0-.64-.64H6.82a.64.64 0 0 0 0 1.28h8.376a.64.64 0 0 0 .64-.64zM12.93 7.454a.64.64 0 0 0-.64-.64H6.82a.64.64 0 0 0 0 1.28h5.47a.64.64 0 0 0 .64-.64zM14.243 10.113a.64.64 0 0 0-.64-.64H6.82a.64.64 0 0 0 0 1.28h6.783a.64.64 0 0 0 .64-.64zM9.555 12.772a.64.64 0 0 0-.64-.64H6.82a.64.64 0 0 0 0 1.28h2.095a.64.64 0 0 0 .64-.64z" fill="#292c36"/><path d="M12.22 13.763a.911.911 0 0 0-1.823 0v7.125a.911.911 0 0 0 1.823 0v-7.125z" fill="#dadada"/><path d="M11.31 12.852c.502 0 .91.408.91.912v1.053h-1.823v-1.053c0-.504.408-.912.912-.912z" fill="#292c36"/><path d="M14.211 18.017a.897.897 0 0 1 0 1.228l-2.127 2.25a.801.801 0 0 1-1.16 0 .897.897 0 0 1 0-1.228l2.127-2.25a.801.801 0 0 1 1.16 0z" fill="#dadada"/><path d="M8.424 18.017a.801.801 0 0 1 1.16 0l2.128 2.25a.897.897 0 0 1 0 1.228.801.801 0 0 1-1.16 0l-2.128-2.25a.897.897 0 0 1 0-1.228zM15.53 20.888a.911.911 0 0 0 1.823 0v-7.125a.911.911 0 0 0-1.823 0v7.125z" fill="#dadada"/><path d="M13.54 16.634a.897.897 0 0 1 0-1.228l2.125-2.25a.801.801 0 0 1 1.16 0 .897.897 0 0 1 0 1.228l-2.127 2.25a.801.801 0 0 1-1.16 0h.001z" fill="#dadada"/><path d="M19.325 16.634a.801.801 0 0 1-1.16 0l-2.127-2.25a.897.897 0 0 1 0-1.228.801.801 0 0 1 1.16 0l2.13 2.25a.897.897 0 0 1 0 1.228h-.003z" fill="#dadada"/><path d="M14.16 14.676h3.18c.416 0 .805-.122 1.166-.364-.7-.74-1.17-1.21-1.408-1.414a.826.826 0 0 0-.564-.187c-.12 0-.407.016-.673.187-.064.04-.1.08-.156.139-.236.25-.75.798-1.546 1.639z"/>
</svg>
