<svg viewBox="0 0 24 24" xmlns="http://www.w3.org/2000/svg">
            <path d="M12 0C5.372 0 0 5.372 0 12s5.372 12 12 12 12-5.372 12-12S18.628 0 12 0zm7.742 10.427v.336a.75.75 0 0 1-.415.67l-.744.373a.75.75 0 0 1-.752-.047l-.881-.587a.751.751 0 0 0-.653-.088l-.128.043a.75.75 0 0 0-.387 1.127l.64.961a.75.75 0 0 0 .624.334h.398a.75.75 0 0 1 .75.75v.549a.75.75 0 0 1-.15.45l-.907 1.208a.754.754 0 0 0-.137.311l-.208 1.105a.752.752 0 0 1-.23.414c-.46.42-.865.894-1.21 1.411l-.63.946a1.343 1.343 0 0 1-2.319-.144A3.818 3.818 0 0 1 12 18.841v-1.446a.75.75 0 0 0-.75-.75H9.998a2.645 2.645 0 0 1-2.644-2.643v-.68c0-.832.392-1.616 1.058-2.115l1.334-1.001a2.645 2.645 0 0 1 1.586-.53h.043c.41 0 .816.096 1.182.28l.713.356a.75.75 0 0 0 .572.04l2.29-.762a.75.75 0 0 0-.238-1.461h-.488a.75.75 0 0 1-.53-.22l-.335-.335a.75.75 0 0 0-.53-.22H9.652a.75.75 0 0 1-.75-.75v-.213a.75.75 0 0 1 .568-.727l.7-.175a.751.751 0 0 0 .442-.312l.39-.586a.75.75 0 0 1 .624-.333H12.8a.75.75 0 0 0 .75-.75v-1.05a9.69 9.69 0 0 1 7.835 7.22h-.892a.75.75 0 0 0-.75.75z" />
        </svg>