<svg xmlns="http://www.w3.org/2000/svg" viewBox="0 0 24 24">
    <path d="M11,15 L13,15 L13,17 L11,17 L11,15 Z M11,6.99999998 L13,6.99999998 L13,13 L11,13 L11,6.99999998 Z M11.99,1.99999996 C6.46999998,1.99999996 1.99999996,6.47999998 1.99999996,12 C1.99999996,17.52 6.46999998,22 11.99,22 C17.52,22 22,17.52 22,12 C22,6.47999998 17.52,1.99999996 11.99,1.99999996 Z M12,20 C7.57999998,20 3.99999997,16.42 3.99999997,12 C3.99999997,7.57999998 7.57999998,3.99999997 12,3.99999997 C16.42,3.99999997 20,7.57999998 20,12 C20,16.42 16.42,20 12,20 Z"/>
</svg>
