<svg viewBox="0 0 24 24" xmlns="http://www.w3.org/2000/svg">
            <path d="M12.518 14.726l-.654-1.45a6.336 6.336 0 0 0 1.577-1.677l1.488.564a.55.55 0 0 0 .71-.32l.547-1.444a.55.55 0 0 0-.32-.71l-1.488-.564a6.333 6.333 0 0 0-.07-2.3l1.45-.654a.551.551 0 0 0 .277-.729L15.4 4.035a.551.551 0 0 0-.729-.276l-1.451.653a6.336 6.336 0 0 0-1.676-1.576l.564-1.489a.551.551 0 0 0-.32-.71L10.345.09a.551.551 0 0 0-.71.32L9.07 1.898a6.317 6.317 0 0 0-2.3.07L6.117.518A.551.551 0 0 0 5.39.24L3.98.875a.55.55 0 0 0-.276.729l.653 1.451a6.336 6.336 0 0 0-1.576 1.676l-1.489-.564a.552.552 0 0 0-.71.32L.036 5.931a.551.551 0 0 0 .32.71l1.488.564a6.333 6.333 0 0 0 .07 2.3l-1.45.654a.551.551 0 0 0-.277.729l.634 1.408a.55.55 0 0 0 .729.276l1.451-.654a6.332 6.332 0 0 0 1.676 1.576l-.564 1.489a.551.551 0 0 0 .32.71l1.444.547a.552.552 0 0 0 .71-.32l.564-1.488a6.32 6.32 0 0 0 2.3-.07l.654 1.45a.551.551 0 0 0 .729.277l1.407-.634a.55.55 0 0 0 .277-.729zm-.913-5.237a3.756 3.756 0 0 1-3.495 2.413c-.451 0-.896-.082-1.322-.243a3.711 3.711 0 0 1-2.083-1.96 3.712 3.712 0 0 1-.087-2.858 3.756 3.756 0 0 1 3.494-2.413c.451 0 .896.082 1.323.244a3.711 3.711 0 0 1 2.082 1.959c.41.91.441 1.925.088 2.858zm12.25 7.523a.551.551 0 0 0-.382-.178l-1.038-.044a4.76 4.76 0 0 0-.51-1.4l.765-.702a.55.55 0 0 0 .033-.778l-.76-.828a.551.551 0 0 0-.778-.033l-.766.702a4.762 4.762 0 0 0-1.35-.628l.045-1.038a.551.551 0 0 0-.527-.574l-1.123-.048a.553.553 0 0 0-.574.527l-.045 1.037c-.49.096-.962.268-1.399.51l-.702-.765a.551.551 0 0 0-.779-.033l-.828.76a.55.55 0 0 0-.033.778l.702.766a4.76 4.76 0 0 0-.628 1.35l-1.038-.044a.552.552 0 0 0-.574.526l-.048 1.123a.55.55 0 0 0 .527.574l1.038.045c.095.49.268.962.51 1.399l-.765.702a.551.551 0 0 0-.033.779l.76.828a.551.551 0 0 0 .778.033l.765-.702c.414.279.87.491 1.35.628l-.044 1.038a.55.55 0 0 0 .527.574l1.123.048h.023a.551.551 0 0 0 .55-.527l.045-1.038c.49-.095.963-.268 1.4-.51l.702.765a.551.551 0 0 0 .778.034l.828-.76a.55.55 0 0 0 .034-.779l-.703-.765a4.76 4.76 0 0 0 .629-1.35l1.037.044a.552.552 0 0 0 .574-.527L24 17.41a.55.55 0 0 0-.145-.397zm-6.206 3.258a2.572 2.572 0 0 1-2.457-2.677 2.563 2.563 0 0 1 2.677-2.456 2.572 2.572 0 0 1 2.457 2.676 2.565 2.565 0 0 1-2.677 2.457z"></path>
        </svg>