<svg viewBox="0 0 24 24" xmlns="http://www.w3.org/2000/svg"><g fill="none" fill-rule="evenodd"><path stroke="#000" d="M13.77 2.5h-7.7A1.5 1.5 0 0 0 4.59 4v16a1.5 1.5 0 0 0 1.46 1.5h11.89c.3 0 .58-.1.82-.26.13-.19.23-.35.28-.5.1-.24.22-.65.38-1.22V8.21L13.77 2.5z"/><path fill="#000" d="M12 7.83a5 5 0 0 1 5 5c0 .52-.19 2.4-.65 2.96-.18.22 2.71 2.73 3.12 3.27.32 1-.61 2.12-1.02 2.4-.08.06-4.04-4.15-4.12-4.1-.76.47-1.37.47-2.33.47a5 5 0 1 1 0-10zm.08 1.84a3.33 3.33 0 1 0 0 6.65 3.33 3.33 0 0 0 0-6.65z"/></g></svg>