<svg viewBox="0 0 24 24" xmlns="http://www.w3.org/2000/svg">
            <path d="M1 1h22v22H1V1zm16.9095847 12.974167c1.0974359 0 1.9870835-.8896475 1.9870835-1.9870835C19.8966682 10.8896476 19.0070206 10 17.9095847 10c-1.097436 0-1.9870836.8896476-1.9870836 1.9870835 0 1.097436.8896476 1.9870835 1.9870836 1.9870835zm-5.9612506 0c1.0974359 0 1.9870835-.8896475 1.9870835-1.9870835C13.9354176 10.8896476 13.04577 10 11.9483341 10c-1.09743593 0-1.98708353.8896476-1.98708353 1.9870835 0 1.097436.8896476 1.9870835 1.98708353 1.9870835zm-5.96125058 0c1.09743593 0 1.98708353-.8896475 1.98708353-1.9870835C7.97416705 10.8896476 7.08451945 10 5.98708352 10 4.8896476 10 4 10.8896476 4 11.9870835c0 1.097436.8896476 1.9870835 1.98708352 1.9870835z"/>
        </svg>