<svg viewBox="0 0 24 24" xmlns="http://www.w3.org/2000/svg">
            <path d="M12 24C5.372583 24 0 18.627417 0 12S5.372583 0 12 0s12 5.372583 12 12-5.372583 12-12 12zm5.145077-10.3871209c.997669 0 1.8064395-.8087705 1.8064395-1.8064395C18.9515165 10.8087705 18.142746 10 17.145077 10s-1.8064396.8087705-1.8064396 1.8064396c0 .997669.8087706 1.8064395 1.8064396 1.8064395zm-5.4193187 0c.997669 0 1.8064395-.8087705 1.8064395-1.8064395 0-.9976691-.8087705-1.8064396-1.8064395-1.8064396-.9976691 0-1.8064396.8087705-1.8064396 1.8064396 0 .997669.8087705 1.8064395 1.8064396 1.8064395zm-5.41931873 0c.99766902 0 1.80643957-.8087705 1.80643957-1.8064395C8.11287914 10.8087705 7.30410859 10 6.30643957 10 5.30877054 10 4.5 10.8087705 4.5 11.8064396c0 .997669.80877054 1.8064395 1.80643957 1.8064395z"/>
        </svg>