<svg viewBox="0 0 24 24" xmlns="http://www.w3.org/2000/svg">
            <path d="M18.52 21.707a.815.815 0 0 1-.41 1.078l-2.082.938a.814.814 0 0 1-1.078-.408l-.967-2.147a9.35 9.35 0 0 1-3.403.104l-.834 2.202a.815.815 0 0 1-1.051.473l-2.136-.81a.815.815 0 0 1-.474-1.05l.835-2.202a9.368 9.368 0 0 1-2.48-2.333l-2.147.967a.814.814 0 0 1-1.078-.408l-.938-2.083a.815.815 0 0 1 .408-1.078l2.147-.967a9.37 9.37 0 0 1-.103-3.403L.527 9.746a.815.815 0 0 1-.474-1.051l.81-2.136a.815.815 0 0 1 1.05-.474l2.202.835a9.373 9.373 0 0 1 2.333-2.48L5.48 2.293a.815.815 0 0 1 .408-1.078L7.972.277A.815.815 0 0 1 9.05.685l.967 2.147a9.346 9.346 0 0 1 3.403-.104l.834-2.202a.815.815 0 0 1 1.051-.473l2.136.81c.421.159.633.63.474 1.05l-.835 2.202a9.373 9.373 0 0 1 2.48 2.333l2.147-.967a.815.815 0 0 1 1.078.408l.938 2.083a.815.815 0 0 1-.408 1.078l-2.147.967a9.37 9.37 0 0 1 .103 3.403l2.203.834a.815.815 0 0 1 .473 1.051l-.81 2.137a.815.815 0 0 1-1.05.473l-2.202-.834a9.373 9.373 0 0 1-2.333 2.48l.967 2.146zm-1.352-7.749a5.49 5.49 0 0 0-.129-4.228 5.49 5.49 0 0 0-3.08-2.898A5.507 5.507 0 0 0 12 6.472a5.557 5.557 0 0 0-5.17 3.57 5.491 5.491 0 0 0 .13 4.228 5.49 5.49 0 0 0 3.08 2.899c.632.239 1.29.36 1.958.36a5.557 5.557 0 0 0 5.17-3.57z" />
        </svg>