<svg xmlns="http://www.w3.org/2000/svg" viewBox="0 0 24 24">
    <path d="M13.572 8.735c.03-.24.053-.48.053-.735s-.023-.495-.053-.735l1.583-1.237a.378.378 0 0 0 .09-.48l-1.5-2.595a.375.375 0 0 0-.457-.165l-1.868.75a5.48 5.48 0 0 0-1.268-.735L9.867.815A.366.366 0 0 0 9.5.5h-3a.366.366 0 0 0-.368.315l-.285 1.987a5.762 5.762 0 0 0-1.267.735l-1.868-.75a.366.366 0 0 0-.457.165l-1.5 2.595a.37.37 0 0 0 .09.48l1.582 1.238c-.03.24-.052.487-.052.735 0 .247.022.495.052.735L.845 9.972a.378.378 0 0 0-.09.48l1.5 2.595c.09.165.292.225.457.165l1.868-.75c.39.3.81.548 1.267.735l.285 1.988c.023.18.18.315.368.315h3a.366.366 0 0 0 .367-.315l.285-1.988a5.762 5.762 0 0 0 1.268-.735l1.867.75c.173.068.368 0 .458-.165l1.5-2.595a.378.378 0 0 0-.09-.48l-1.583-1.237zM8 10.625A2.628 2.628 0 0 1 5.375 8 2.628 2.628 0 0 1 8 5.375 2.628 2.628 0 0 1 10.625 8 2.628 2.628 0 0 1 8 10.625z"/>
</svg>
