<svg xmlns="http://www.w3.org/2000/svg" width="24" height="24"><g fill-rule="evenodd"><path d="M7.46 15.43c.1.18.22.36.33.53H4.17v-1.57h2.79c.14.36.3.7.5 1.04zM6.4 11.4v.38H3.14v-1.56h3.35a8.5 8.5 0 0 0-.08 1.18zm1.06-4.03l-.13.24H0V6.04h8.42c-.36.4-.68.85-.96 1.33z"/><path fill-rule="nonzero" d="M14.5 5a6.57 6.57 0 0 1 6.5 6.5 6.3 6.3 0 0 1-1.38 4h.5c.21 0 .39.07.54.22l3.12 3.12c.15.15.22.33.22.54 0 .2-.07.38-.22.53l-.87.87a.72.72 0 0 1-.54.22.72.72 0 0 1-.53-.22l-3.12-3.12a.72.72 0 0 1-.22-.54v-.5a6.3 6.3 0 0 1-4 1.38A6.57 6.57 0 0 1 8 11.5 6.57 6.57 0 0 1 14.5 5zm-.1 2.13a4.23 4.23 0 0 0-4.27 4.27 4.23 4.23 0 0 0 4.27 4.27 4.23 4.23 0 0 0 4.27-4.27 4.23 4.23 0 0 0-4.27-4.27z"/></g></svg>