<svg xmlns="http://www.w3.org/2000/svg" width="48" height="48"><path d="M21.303 27.885h-5.086l-.51 1.53h.51c.504 0 .863.117 1.078.35.214.232.321.536.321.911 0 .368-.107.667-.321.9-.215.233-.574.349-1.078.349H13.4c-.504 0-.863-.116-1.077-.349-.215-.233-.322-.537-.322-.912s.112-.681.337-.918c.225-.237.596-.347 1.113-.33l3.288-9.82H15.37c-.504 0-.863-.115-1.077-.348-.215-.233-.322-.537-.322-.912s.107-.68.322-.912c.214-.233.573-.349 1.077-.349l4.524.012 4.166 12.328c.49 0 .814.066.97.196.313.27.47.625.47 1.065 0 .368-.106.667-.317.9-.21.233-.568.349-1.072.349h-2.818c-.504 0-.863-.116-1.078-.349-.214-.233-.321-.537-.321-.912 0-.367.107-.667.321-.9.215-.232.574-.349 1.078-.349h.51l-.5-1.53zm-.868-2.51l-1.685-4.97-1.695 4.97h3.38zm11.923 6.145v-.572a5.689 5.689 0 0 1-1.642.733c-.599.163-1.143.244-1.632.244-1.063 0-1.926-.347-2.59-1.042-.662-.695-.994-1.463-.994-2.304 0-1.024.423-1.975 1.27-2.852.847-.878 2.017-1.316 3.512-1.316.598 0 1.29.08 2.076.238v-.584a1.15 1.15 0 0 0-.381-.893c-.255-.23-.74-.345-1.454-.345-.586 0-1.346.143-2.28.429-.347.103-.618.154-.811.154-.264 0-.488-.117-.671-.35-.184-.235-.276-.535-.276-.9 0-.206.032-.385.097-.536a.903.903 0 0 1 .27-.363c.116-.091.358-.2.725-.328.49-.166.988-.3 1.497-.399.509-.099.97-.148 1.381-.148 1.23 0 2.185.327 2.864.982.68.655 1.02 1.55 1.02 2.685v5.026h.338c.476 0 .816.113 1.019.34.203.226.304.521.304.886 0 .358-.101.65-.304.876-.203.226-.543.34-1.02.34h-2.318zm0-4.37a9.424 9.424 0 0 0-2.192-.286c-.805 0-1.498.242-2.077.726-.36.31-.541.623-.541.941 0 .23.087.417.26.56.323.262.764.393 1.324.393.477 0 1.016-.115 1.618-.346a5.535 5.535 0 0 0 1.608-.94V27.15z"/></svg>