<svg xmlns="http://www.w3.org/2000/svg" width="48" height="48">
  <path d="M10.567 34.376c.392-.196.794-.496 1.207-.901.413-.405.801-.935 1.166-1.591.364-.656.622-1.479.777-2.471l1.344-8.52h2.331c.211-.364.28-.729.211-1.092h-2.331l.209-1.05c.154-.727.316-1.302.484-1.723.167-.42.346-.745.535-.976.189-.231.388-.388.599-.472.211-.085.442-.161.693-.231l1.596 1.302c.28-.238.48-.521.599-.85.119-.329.193-.648.22-.956a2.975 2.975 0 0 0-.829-.252 5.206 5.206 0 0 0-.852-.085c-.574 0-1.113.063-1.616.19a3.662 3.662 0 0 0-1.386.682c-.42.328-.787.777-1.102 1.344-.316.566-.565 1.284-.746 2.152l-.146.736c-.28.072-.578.17-.893.293a6.923 6.923 0 0 0-.893.424v.565h1.533l-1.364 8.918a8.979 8.979 0 0 1-.473 1.832c-.202.524-.42.967-.651 1.33a4.268 4.268 0 0 1-.703.868 2.922 2.922 0 0 1-.61.45l.19.461c.208-.056.508-.182.901-.377zm7.518-6.533c0 1.288.256 2.495.767 3.622.51 1.128 1.367 2.209 2.572 3.246l.61-.421c-.827-1.008-1.393-2.062-1.702-3.16-.308-1.099-.454-2.279-.44-3.538a11.703 11.703 0 0 1 .536-3.717c.371-1.162.85-2.23 1.438-3.203a17.807 17.807 0 0 1 1.952-2.656 22.56 22.56 0 0 1 2.1-2.078l-.357-.379a22.041 22.041 0 0 0-2.583 1.943 15.165 15.165 0 0 0-2.405 2.656 14.322 14.322 0 0 0-1.784 3.423c-.47 1.273-.704 2.694-.704 4.262zm7.119-7.392v.525l1.344.168 1.427 3.864c-.224.197-.561.494-1.008.893a26.69 26.69 0 0 0-1.386 1.333 16.32 16.32 0 0 0-1.302 1.512c-.392.518-.651.987-.778 1.407.309.182.693.273 1.155.273.224 0 .458-.021.704-.063.245-.042.485-.112.725-.211a2.421 2.421 0 0 1-.022-.388c0-.175.004-.364.011-.566l.021-.578c.007-.182.025-.321.053-.42.097-.182.231-.377.399-.588.167-.211.349-.42.546-.63.196-.209.395-.413.599-.608.202-.197.381-.379.535-.547l1.155 3.801c.071.224.185.414.34.567.156.154.383.231.682.231.183 0 .386-.027.606-.083.22-.056.425-.126.617-.211.193-.083.369-.168.533-.252a4.23 4.23 0 0 0 .372-.211v-.525l-1.364-.168-1.512-4.095c.139-.126.332-.297.577-.514.245-.217.507-.462.787-.736.28-.272.57-.567.872-.882.301-.314.584-.633.85-.956.265-.321.496-.644.693-.965.196-.323.335-.623.42-.904-.338-.182-.73-.273-1.179-.273-.239 0-.474.025-.705.074a5.546 5.546 0 0 0-.705.2c.014.085.029.213.042.388.014.175.027.365.042.567.014.204.021.395.021.577 0 .183-.007.323-.021.421-.197.364-.487.749-.872 1.154-.386.407-.738.771-1.06 1.092l-1.029-3.653a1.932 1.932 0 0 0-.34-.558c-.141-.16-.368-.241-.679-.241-.198 0-.403.027-.615.083a4.982 4.982 0 0 0-.628.211c-.205.083-.39.171-.552.263a6.527 6.527 0 0 0-.371.222zm12.254-1.324c.16.504.272 1.016.335 1.534s.096 1.077.096 1.68c0 1.4-.2 2.715-.599 3.947a17.003 17.003 0 0 1-1.492 3.371 16.425 16.425 0 0 1-1.952 2.697c-.707.785-1.369 1.429-1.985 1.932l.42.421a15.62 15.62 0 0 0 2.656-1.965 15.308 15.308 0 0 0 2.363-2.719 14.284 14.284 0 0 0 1.702-3.412c.433-1.252.651-2.607.651-4.063 0-1.315-.262-2.537-.787-3.664-.525-1.127-1.39-2.237-2.594-3.329l-.547.379c.435.588.792 1.14 1.072 1.658s.5 1.03.661 1.533z"/>
</svg>
