<svg xmlns="http://www.w3.org/2000/svg" width="48" height="48"><path d="M19.05 20.4a3.3 3.3 0 0 0-3.18 2.4h-3.72v1.8h3.72a3.3 3.3 0 0 0 6.36 0h13.62v-1.8H22.23a3.3 3.3 0 0 0-3.18-2.4zm0 4.8a1.5 1.5 0 1 1 0-3 1.5 1.5 0 0 1 0 3zm9.9-13.05a3.3 3.3 0 0 0-3.18 2.4H12.15v1.8h13.62a3.3 3.3 0 0 0 6.36 0h3.72v-1.8h-3.72a3.3 3.3 0 0 0-3.18-2.4zm0 4.8a1.5 1.5 0 1 1 0-3 1.5 1.5 0 0 1 0 3zm0 11.7a3.3 3.3 0 0 0-3.18 2.4H12.15v1.8h13.62a3.3 3.3 0 0 0 6.36 0h3.72v-1.8h-3.72a3.3 3.3 0 0 0-3.18-2.4zm0 4.8a1.5 1.5 0 1 1 0-3 1.5 1.5 0 0 1 0 3z"/></svg>