<?xml version="1.0" encoding="UTF-8"?>
<svg width="24px" height="24px" viewBox="0 0 24 24" version="1.1" xmlns="http://www.w3.org/2000/svg" xmlns:xlink="http://www.w3.org/1999/xlink">
    <!-- Generator: Sketch 55.2 (78181) - https://sketchapp.com -->
    <title>aux task icon</title>
    <desc>Created with Sketch.</desc>
    <g id="aux-task-icon" stroke="none" stroke-width="1" fill="none" fill-rule="evenodd">
        <path d="M7.3015873,7.98120675 L2.68732852,8.06366411 L2.7215858,10.0729309 C2.72325186,10.1706489 2.70457472,10.2511314 2.66553655,10.3147088 C2.62651996,10.3781758 2.57569309,10.4104949 2.51328902,10.4115841 C2.45969935,10.4125195 2.40551677,10.3786787 2.35073638,10.3097749 L0.158921576,7.00960627 C0.117673334,6.94768361 0.0962770005,6.86773389 0.0945706988,6.76997993 C0.092867596,6.67240923 0.111605287,6.59177898 0.15055093,6.52827659 L2.23526944,3.14127303 C2.27421446,3.07773398 2.32501851,3.04545194 2.38751635,3.04436104 C2.44551322,3.0433487 2.49629069,3.07552536 2.53987596,3.14110937 C2.58336808,3.20673172 2.60580232,3.28471969 2.60734902,3.37543688 L2.6416063,5.38470366 L7.3015873,5.30142924 L7.3015873,7.98120675 Z M15.6984127,18.9598507 L20.3872737,18.9598507 L20.3872737,16.9502579 C20.3872737,16.8525241 20.40732,16.7723867 20.447436,16.7095159 C20.4875286,16.6467551 20.5388986,16.6153747 20.6013118,16.6153747 C20.6549092,16.6153747 20.7085067,16.6502011 20.7621041,16.7200738 L22.8973269,20.0589349 C22.9375133,20.1215857 22.957583,20.2019064 22.957583,20.2996769 C22.957583,20.3972641 22.9375133,20.4775481 22.8974911,20.5403456 L20.7553517,23.8896179 C20.7153294,23.952452 20.6639828,23.9837958 20.6014759,23.9837958 C20.5434706,23.9837958 20.4932494,23.9506924 20.4507887,23.8843389 C20.4084219,23.8179488 20.3873206,23.7395711 20.3873206,23.6488392 L20.3873206,21.6392465 L15.6984127,21.6392465 L15.6984127,18.9598507 Z M23.6909375,5.2023125 C23.90225,5.9296875 24,6.5593125 24,7.1875 C24,11.1506875 20.7756875,14.375 16.8125,14.375 C16.3481875,14.375 15.8766875,14.320375 15.3591875,14.2039375 C14.710875,14.993125 14.15025,15.740625 13.514875,16.5901875 C12.5761875,17.845125 11.5095625,19.2668125 9.857875,21.203125 C8.8961875,22.3445 7.4989375,23 6.03125,23 C3.256875,23 1,20.743125 1,17.96875 C1,16.5154375 1.646875,15.11675 2.7753125,14.130625 C4.69725,12.5076875 6.106,11.456875 7.3494375,10.52825 C8.219125,9.8785 8.98675,9.3049375 9.794625,8.639375 C9.679625,8.121875 9.625,7.6518125 9.625,7.1875 C9.625,3.2243125 12.8493125,0 16.8125,0 C17.4895625,0 18.189625,0.117875 18.9529375,0.3565 C19.1944375,0.4326875 19.377,0.629625 19.4359375,0.8754375 C19.494875,1.12125 19.420125,1.38 19.239,1.5568125 L15.4368125,5.27275 L15.9845,8.0140625 L18.735875,8.564625 L22.496375,4.8889375 C22.6760625,4.712125 22.9348125,4.64025 23.1820625,4.7078125 C23.4264375,4.7725 23.6190625,4.9608125 23.6909375,5.2023125 Z M5.84210526,19.3684211 C6.51152632,19.3684211 7.05263158,18.8273158 7.05263158,18.1578947 C7.05263158,17.4884737 6.51152632,16.9473684 5.84210526,16.9473684 C5.17268421,16.9473684 4.63157895,17.4884737 4.63157895,18.1578947 C4.63157895,18.8273158 5.17268421,19.3684211 5.84210526,19.3684211 Z" id="Combined-Shape" fill="#000000" fill-rule="nonzero"></path>
    </g>
</svg>