<svg xmlns="http://www.w3.org/2000/svg" width="24" height="24">
  <path d="M23.8963851 12.3440775c.1375358-.2063037.1375358-.4813754 0-.6876791l-5.6389685-9.765043c-.1375358-.2063037-.3438395-.3438395-.6189111-.3438395H6.36056849c-.27507163 0-.48137535.1375358-.61891117.3438395l-5.63896848 9.765043c-.13753582.2063037-.13753582.4813754 0 .6876791l5.63896848 9.76504297c.13753582.20630372.34383954.34383954.61891117.34383954H17.6385055c.2750716 0 .4813753-.13753582.6189111-.34383954l5.6389685-9.76504297zM11.999537 5.786386c3.4869097 0 6.2585559 2.8610541 6.2585559 6.169148 0 3.4869097-2.8610541 6.25855589-6.2585559 6.25855589-3.48690975 0-6.25855594-2.86105413-6.25855594-6.25855589 0-3.3975018 2.86105413-6.169148 6.25855594-6.169148z"/>
</svg>
