<svg xmlns="http://www.w3.org/2000/svg" width="24" height="24">
  <g fill="none" stroke="#000">
    <path d="M23.4810886 12.2551199l-.0169661.0273129-5.6220024 9.73773003c-.0577142.08657136-.1170598.12118964-.202886.12118964H6.36129714c-.08582616 0-.14517179-.03461828-.18591994-.09387673L.51944264 12.2551199c-.02556935-.0383541-.02556935-.0946249.01696608-.1602918l5.6220024-9.7377301c.05771423-.0865714.11705986-.1211897.20288602-.1211897H17.6392341c.0858262 0 .1451718.0346183.18592.0938768l5.6559345 9.7923559c.0255694.038354.0255694.0946248 0 .1329789z"/>
    <path d="M12.0002656 7.2866837c2.7163029 0 4.9408096 2.2245067 4.9408096 4.8630838 0 2.72738646-2.2353382 4.94080959-4.9408096 4.94080959-2.72738645 0-4.94080959-2.23533821-4.94080959-4.94080959 0-2.6607212 2.24640981-4.8630838 4.94080959-4.8630838z"/>
  </g>
</svg>
