<svg xmlns="http://www.w3.org/2000/svg" width="24" height="24">
  <path d="M15.3577797 9.10442705l-3.6239941 6.27569703c-.0883901.13258515-.2209752.22097525-.3977554.22097525H4.08804208c-.1767802 0-.30936535-.0883901-.39775545-.22097525L.06629257 9.10442705c-.0883901-.13258515-.0883901-.30936535 0-.4419505L3.69028663 2.3867795c.0883901-.1325851.22097525-.2209752.39775545-.2209752h7.24798812c.1767802 0 .3093653.0883901.3977554.2209752l3.6239941 6.27569705c.0883901.13258515.0883901.30936535 0 .4419505zM7.71203614 5.7897983c-1.67941188 0-3.09365347 1.37004657-3.09365347 3.04945845s1.37004654 3.09365347 3.09365347 3.09365347c1.67941188 0 3.09365346-1.37004654 3.09365346-3.09365347 0-1.63521683-1.37004653-3.04945845-3.09365346-3.04945845zM23.9537819 16.30179866l-2.51978005 4.3635216c-.06145805.09218708-.15364513.15364513-.27656123.15364513h-5.03956016c-.1229161 0-.21510317-.06145805-.27656122-.15364513l-2.51978008-4.3635216c-.06145806-.09218708-.06145806-.21510318 0-.30729025l2.51978008-4.3635216c.06145805-.09218708.15364512-.15364513.27656122-.15364513h5.03956016c.1229161 0 .21510318.06145805.27656123.15364513l2.51978005 4.3635216c.0614581.09218707.0614581.21510317 0 .30729025zm-5.31612136-2.3046769c-1.16770296 0-2.15103177.95259978-2.15103177 2.12030275 0 1.16770296.95259978 2.15103177 2.15103177 2.15103177 1.16770297 0 2.15103178-.95259978 2.15103178-2.15103177 0-1.13697394-.95259979-2.12030275-2.15103178-2.12030275z"/>
</svg>
