<svg xmlns="http://www.w3.org/2000/svg" width="23" height="24">
  <g fill-rule="evenodd">
    <path fill-rule="nonzero" d="M18.6607095 13.4724773c-1.063263-1.0540333-2.5266569-1.7050847-4.142112-1.7050847-3.2494757 0-5.88369628 2.6342205-5.88369628 5.8836963 0 1.0143783.25669977 1.9688012.70868227 2.8018516-.0658543.0777811-.13268698.1564268-.20053133.2359624-.93836447 1.1136941-2.30172811 1.7532968-3.73382097 1.7532968C2.70214085 22.4421997.5 20.2400589.5 17.5329685c0-1.4180665.63118687-2.7828327 1.73225729-3.7450421 1.87532631-1.5835777 3.24991104-2.6089057 4.46319247-3.5150095.84859567-.63399213 1.59760409-1.19364448 2.38588635-1.84306564-.112211-.50494949-.16551122-.96361195-.16551122-1.41666385C8.91582489 3.14611587 12.0619408 0 15.9290123 0c.6606423 0 1.3437267.11501627 2.0885272.3478541.2356431.07433978.4137781.26650112.4712862.50635213.0575081.23985101-.015429.49232575-.1921613.66485016l-3.7099762 3.62581789.5344049 2.67482968 2.6846481.53721016 3.6692997-3.58654405c.1753297-.17252441.4278044-.24265628.6690581-.17673232.2384484.06311869.4264018.2468642.4965336.4825073.2061878.70973456.3015671 1.32408978.3015671 1.93704236 0 2.89858755-1.7675966 5.39211729-4.2814902 6.45928989z"/>
    <path fill-rule="nonzero" d="M20.5676324 17.68147448c0-3.35543955-2.7343187-6.08977152-6.08977413-6.08977152-3.35542366 0-6.0897702 2.73432667-6.0897702 6.08977152 0 3.35545014 2.73434654 6.08977022 6.0897702 6.08977022 3.35545283 0 6.08977413-2.73432008 6.08977413-6.08977022zm-1.323863 0c0 2.63998157-2.12592426 4.76590712-4.76591113 4.76590712-2.63995509 0-4.76590711-2.12592555-4.76590711-4.76590712 0-2.63996437 2.12595202-4.76590844 4.76590711-4.76590844 2.63998422 0 4.76591113 2.12593878 4.76591113 4.76590844z"/>
    <path d="M11.544 17.136h6v1.443h-6z"/>
  </g>
</svg>
