<svg xmlns="http://www.w3.org/2000/svg" width="24" height="24" viewBox="0 0 24 24">
  <path d="M12,24 C18.6290323,24 24,18.6290323 24,12 C24,5.37096774 18.6290323,0 12,0 C5.37096774,0 0,5.37096774 0,12 C0,18.6290323 5.37096774,24 12,24 Z M12,13.1612903 C9.648406,13.1612903 7.74193548,11.2548198 7.74193548,8.90322581 C7.74193548,6.5516318 9.648406,4.64516129 12,4.64516129 C14.351594,4.64516129 16.2580645,6.5516318 16.2580645,8.90322581 C16.2580645,11.2548198 14.351594,13.1612903 12,13.1612903 Z M12,21.2903226 C9.15966797,21.2903226 6.61452558,20.0032447 4.91129032,17.9903131 C5.82095829,16.2774383 7.601594,15.0967742 9.67741935,15.0967742 C9.79356729,15.0967742 9.90966797,15.1161479 10.0209488,15.1499811 C10.6499811,15.3532164 11.308074,15.483871 12,15.483871 C12.691926,15.483871 13.3548387,15.3532164 13.9790512,15.1499811 C14.090332,15.1161479 14.2064327,15.0967742 14.3225806,15.0967742 C16.398406,15.0967742 18.1790417,16.2774383 19.0887097,17.9903131 C17.3854744,20.0032447 14.840332,21.2903226 12,21.2903226 Z"/>
</svg>
