<svg xmlns="http://www.w3.org/2000/svg" width="24" height="24" viewBox="0 0 24 24">
  <path d="M16.2855286,7.35483871 C15.5837748,3.03388042 13.9285942,0 12.0024104,0 C10.0762266,0 8.421046,3.03388042 7.71929217,7.35483871 L16.2855286,7.35483871 Z M23.0707717,7.35483871 C21.6865944,4.06933594 18.8844471,1.52901336 15.4240747,0.503244708 C16.6049287,2.13871913 17.418033,4.601594 17.8439155,7.35483871 L23.0707717,7.35483871 Z M6.16090523,7.35483871 C6.58196699,4.601594 7.39502404,2.13871913 8.57592526,0.503244708 C5.12037369,1.52901336 2.31335836,4.06933594 0.934049098,7.35483871 L6.16090523,7.35483871 Z M16.4839367,15.0967742 C16.5855983,14.1048387 16.643684,13.074203 16.643684,12 C16.643684,10.925797 16.5855983,9.89516129 16.4839367,8.90322581 L7.51601609,8.90322581 C7.41440168,9.89516129 7.35631604,10.925797 7.35631604,12 C7.35631604,13.074203 7.41440168,14.1048387 7.51601609,15.0967742 L16.4839367,15.0967742 Z M23.583759,15.0967742 C23.8499415,14.1048387 24,13.074203 24,12 C24,10.925797 23.8499415,9.89516129 23.5886271,8.90322581 L18.0375028,8.90322581 C18.1391172,9.91935484 18.1972028,10.9596774 18.1972028,12 C18.1972028,13.0403226 18.1391172,14.0806452 18.0375028,15.0967742 L23.583759,15.0967742 Z M5.96249719,15.0967742 C5.86570356,14.0806452 5.80761793,13.0403226 5.80761793,12 C5.80761793,10.9596774 5.86570356,9.91935484 5.96731797,8.90322581 L0.416193713,8.90322581 C0.154879264,9.89516129 0,10.925797 0,12 C0,13.074203 0.154879264,14.1048387 0.416193713,15.0967742 L5.96249719,15.0967742 Z M12.0024104,24 C13.9285942,24 15.5837748,20.9661196 16.2855286,16.6451613 L7.71929217,16.6451613 C8.421046,20.9661196 10.0762266,24 12.0024104,24 Z M15.4288955,23.4967553 C18.8844471,22.4709866 21.6914624,19.9306641 23.0755925,16.6451613 L17.8487363,16.6451613 C17.4228538,19.398406 16.6097967,21.8612809 15.4288955,23.4967553 Z M8.58074604,23.4967553 C7.39989208,21.8612809 6.58678776,19.398406 6.16090523,16.6451613 L0.934049098,16.6451613 C2.3182264,19.9306641 5.12037369,22.4709866 8.58074604,23.4967553 Z"/>
</svg>
