<svg xmlns="http://www.w3.org/2000/svg" viewBox="0 0 24 24">
  <path d="M7.3 7.98l-4.61.08.03 2.01a.44.44 0 01-.05.25c-.04.06-.1.09-.16.1-.05 0-.1-.04-.16-.11l-2.2-3.3a.44.44 0 01-.06-.24.44.44 0 01.06-.24l2.08-3.39c.04-.06.1-.1.16-.1s.1.04.15.1a.43.43 0 01.07.23l.03 2.01L7.3 5.3v2.68zm8.4 10.98h4.69v-2.01a.44.44 0 01.06-.24c.04-.06.09-.1.15-.1.05 0 .1.04.16.11l2.14 3.34c.04.06.06.14.06.24a.44.44 0 01-.06.24l-2.15 3.35c-.04.06-.09.1-.15.1s-.1-.04-.15-.1a.43.43 0 01-.06-.24v-2.01h-4.7v-2.68zm8-13.76a7.2 7.2 0 01-8.33 9 64.3 64.3 0 00-1.85 2.39c-.94 1.26-2.01 2.68-3.66 4.61A5 5 0 016.03 23 5.04 5.04 0 011 17.97c0-1.45.65-2.85 1.77-3.84 1.93-1.62 3.34-2.67 4.58-3.6.87-.65 1.64-1.22 2.45-1.9a6.6 6.6 0 01-.18-1.44A7.2 7.2 0 0116.82 0c.67 0 1.37.12 2.13.36a.72.72 0 01.29 1.2l-3.8 3.71.55 2.74 2.75.55L22.5 4.9a.7.7 0 01.68-.18.73.73 0 01.51.5zM5.83 19.37a1.21 1.21 0 100-2.42 1.21 1.21 0 100 2.42z"/>
</svg>
