<svg xmlns="http://www.w3.org/2000/svg" viewBox="0 0 24 24">
  <path d="M18.66 13.47a5.88 5.88 0 00-9.32 6.98l-.2.24A4.89 4.89 0 01.5 17.53c0-1.42.63-2.78 1.73-3.74 1.88-1.59 3.25-2.61 4.47-3.52.84-.63 1.6-1.2 2.38-1.84A7.02 7.02 0 0115.93 0c.66 0 1.34.12 2.09.35a.7.7 0 01.28 1.17l-3.71 3.62.53 2.68 2.69.54 3.67-3.59a.7.7 0 01.66-.18.7.7 0 01.5.49c.2.7.3 1.32.3 1.93 0 2.9-1.77 5.4-4.28 6.46z"/>
  <path d="M20.57 17.68a6.1 6.1 0 00-12.18 0 6.1 6.1 0 0012.18 0zm-1.33 0a4.76 4.76 0 11-9.53 0 4.76 4.76 0 119.53 0zm-2.11 0l-.37-.4-2.85-3.08-.87.8 2.47 2.68-2.47 2.68.87.8 2.85-3.07.37-.4z"/>
</svg>
