<svg xmlns="http://www.w3.org/2000/svg" viewBox="0 0 24 24">
  <g fill="none" fill-rule="evenodd" stroke="#000">
    <path d="M23.198 5.879a.254.254 0 00-.181-.168.249.249 0 00-.24.063l-4.111 3.953-3.454-.68-.692-3.41.198-.19 3.968-3.814a.23.23 0 00.066-.22.242.242 0 00-.165-.173C17.832 1.008 17.15.896 16.5.896c-3.861 0-7 3.087-7 6.877 0 .439.053.884.165 1.38l.068.302-.241.196c-.717.58-1.258.989-2.57 1.953-2.047 1.503-3.105 2.312-4.744 3.673C1.11 16.195.5 17.493.5 18.837c0 2.569 2.13 4.663 4.75 4.663 1.386 0 2.705-.61 3.615-1.672 1.423-1.64 2.304-2.746 3.796-4.709.928-1.22 1.36-1.773 1.939-2.466l.195-.234.297.066c.502.111.958.164 1.408.164 3.861 0 7-3.087 7-6.876 0-.595-.095-1.194-.302-1.894z"/>
    <path d="M5.25 20.312c-.83 0-1.5-.66-1.5-1.475 0-.816.67-1.475 1.5-1.475s1.5.659 1.5 1.475c0 .816-.67 1.475-1.5 1.475z"/>
  </g>
</svg>
