<svg xmlns="http://www.w3.org/2000/svg" viewBox="0 0 24 24">
  <g fill="none" fill-rule="evenodd">
    <g fill-rule="nonzero" stroke="#000" stroke-width=".8">
      <path d="M18.16 2.13l-1.1 2.44.26.2a8.97 8.97 0 012.23 2.37l.17.27.3-.12 2.2-.83a.41.41 0 01.54.24l.81 2.14a.41.41 0 01-.24.53l-2.5.95.05.32a8.97 8.97 0 01-.1 3.26l-.07.31.3.14 2.14.96a.41.41 0 01.2.55l-.93 2.09a.41.41 0 01-.55.2l-2.44-1.1-.2.26a8.97 8.97 0 01-2.37 2.24l-.27.17.12.3.83 2.2a.41.41 0 01-.24.54l-2.14.81a.41.41 0 01-.53-.24l-.95-2.5-.32.05a8.95 8.95 0 01-3.26-.1l-.31-.07-.14.3-.96 2.14a.41.41 0 01-.55.2l-2.09-.93a.41.41 0 01-.2-.55l1.1-2.44-.26-.2a8.97 8.97 0 01-2.24-2.37l-.17-.27-.3.12-2.2.83a.42.42 0 01-.54-.24l-.81-2.14a.41.41 0 01.24-.53l2.5-.95-.05-.32a8.97 8.97 0 01.1-3.26l.07-.31-.3-.14L.86 8.7a.41.41 0 01-.2-.55l.93-2.09a.41.41 0 01.55-.2l2.44 1.1.2-.26a8.97 8.97 0 012.37-2.24l.27-.17-.12-.3-.83-2.2a.41.41 0 01.24-.54L8.84.43a.42.42 0 01.53.24l.95 2.5.32-.05a8.95 8.95 0 013.26.1l.31.07.14-.3.96-2.14a.41.41 0 01.55-.2l2.09.93c.2.1.3.34.2.55z"/>
      <path d="M17.6 9.88A6.03 6.03 0 0012 6c-.73 0-1.44.13-2.12.4a5.96 5.96 0 00-3.35 3.14 5.96 5.96 0 00-.14 4.59A6.03 6.03 0 0012 18c.73 0 1.44-.13 2.12-.39a5.96 5.96 0 003.35-3.15c.66-1.46.7-3.09.14-4.59z"/>
    </g>
    <circle cx="12" cy="12.01" r="3.17" fill="#000" transform="matrix(-1 0 0 1 24 0)"/>
  </g>
</svg>
