<svg xmlns="http://www.w3.org/2000/svg" viewBox="0 0 24 24">
  <path d="M8.485 21.261c0 .294.088.582.25.826l.799 1.2c.276.416.743.667 1.243.667h2.883c.5 0 .967-.25 1.244-.667l.798-1.2c.163-.244.25-.532.25-.826l.002-1.79h-7.47l.002 1.79zM4 8.265c0 2.071.768 3.961 2.034 5.406.771.88 1.978 2.719 2.438 4.27l.005.036h7.482l.005-.036c.46-1.551 1.667-3.39 2.438-4.27a8.172 8.172 0 002.034-5.406A8.218 8.218 0 0012.192.047C7.43.06 4 3.92 4 8.265zm8.218-3.736a3.74 3.74 0 00-3.736 3.736.747.747 0 11-1.494 0 5.235 5.235 0 015.23-5.23.747.747 0 110 1.494z"/>
</svg>
