<svg xmlns="http://www.w3.org/2000/svg" width="24" height="24" viewBox="0 0 24 24">
  <path d="M12.2187495,23.9687787 C18.8477817,23.9687787 24.2187495,18.5978109 24.2187495,11.9687787 C24.2187495,5.33974643 18.8477817,-0.0312213153 12.2187495,-0.0312213153 C5.58971722,-0.0312213153 0.218749478,5.33974643 0.218749478,11.9687787 C0.218749478,18.5978109 5.58971722,23.9687787 12.2187495,23.9687787 Z M12.2187495,21.646198 C6.87197528,21.646198 2.54133012,17.3155529 2.54133012,11.9687787 C2.54133012,6.62200449 6.87197528,2.29135933 12.2187495,2.29135933 C17.5655237,2.29135933 21.8961688,6.62200449 21.8961688,11.9687787 C21.8961688,17.3155529 17.5655237,21.646198 12.2187495,21.646198 Z M16.0219564,16.4687787 L16.9316716,15.215534 C17.1203529,14.954272 17.067146,14.5913688 16.8058368,14.4026402 L13.5735882,12.0510462 L13.5735882,5.19458514 C13.5735882,4.8752492 13.312279,4.61393998 12.992943,4.61393998 L11.4445559,4.61393998 C11.12522,4.61393998 10.8639108,4.8752492 10.8639108,5.19458514 L10.8639108,13.1397559 C10.8639108,13.3236174 10.9509981,13.497792 11.1010264,13.6091202 L15.2090626,16.5945662 C15.4703718,16.7832948 15.8332751,16.7252208 16.0219564,16.4687787 Z"/>
</svg>
