<svg xmlns="http://www.w3.org/2000/svg" width="24" height="24" viewBox="0 0 24 24">
  <path d="M17.2609558,24 C18.4274292,24 19.4333649,23.0548553 19.5062408,21.890625 L20.5,6 L21.25,6 C21.6640015,6 22,5.66400146 22,5.25 L22,4.5 C22,4.08599854 21.6640015,3.75 21.25,3.75 L17.3874817,3.75 L15.7937317,1.09217834 C15.4319153,0.489303589 14.5676117,0 13.8644867,0 L9.13551331,0 C8.43238831,0 7.56808472,0.489303589 7.20626831,1.09217834 L5.61251831,3.75 L1.75,3.75 C1.33599854,3.75 1,4.08599854 1,4.5 L1,5.25 C1,5.66400146 1.33599854,6 1.75,6 L2.5,6 L3.49375916,21.890625 C3.56663513,23.0548553 4.5725708,24 5.73904419,24 L17.2609558,24 Z M14.7624817,3.75 L8.23751831,3.75 L9.13748169,2.25 L13.8625183,2.25 L14.7624817,3.75 Z M17.2609558,21.75 L5.73954773,21.75 L4.75517273,6 L18.2457886,6 L17.2609558,21.75 Z"/>
</svg>
