 <svg viewBox="0 0 24 24" xmlns="http://www.w3.org/2000/svg">
            <path d="M21.4285714,0 L2.57142857,0 C1.15178571,0 0,1.15178571 0,2.57142857 L0,21.4285714 C0,22.8482143 1.15178571,24 2.57142857,24 L21.4285714,24 C22.8482143,24 24,22.8482143 24,21.4285714 L24,2.57142857 C24,1.15178571 22.8482143,0 21.4285714,0 Z M4.92857143,14.1428571 C4.575,14.1428571 4.28571429,13.8535714 4.28571429,13.5 L4.28571429,10.5 C4.28571429,10.1464286 4.575,9.85714286 4.92857143,9.85714286 L19.0714286,9.85714286 C19.425,9.85714286 19.7142857,10.1464286 19.7142857,10.5 L19.7142857,13.5 C19.7142857,13.8535714 19.425,14.1428571 19.0714286,14.1428571 L4.92857143,14.1428571 Z"></path>
        </svg>