<svg xmlns="http://www.w3.org/2000/svg" viewBox="0 0 24 24">
    <path d="M11.999883,15.1785141 C9.15552253,15.1785141 6.85303428,12.9507027 6.64116036,10.127518 L2.70743044,7.05123328 C2.19030808,7.70769961 1.71443551,8.40173251 1.33043747,9.16065313 C1.1564657,9.50888378 1.1564657,9.92006711 1.33043747,10.2682978 C3.36405209,14.2833673 7.39003154,16.9999236 11.999883,16.9999236 C13.0090029,16.9999236 13.9824979,16.8481395 14.9207431,16.6030081 L12.974878,15.079475 C12.6535136,15.142293 12.3271745,15.1754422 11.999883,15.1785141 Z M23.7680729,17.3831785 L19.6224691,14.1410697 C20.8817767,13.0671615 21.9174796,11.7505816 22.6693285,10.2679183 C22.8433003,9.91968765 22.8433003,9.50850432 22.6693285,9.16027367 C20.6357139,5.14520416 16.6097345,2.42864783 11.999883,2.42864783 C10.0692053,2.4310152 8.16988382,2.92284566 6.47541121,3.85921318 L1.70468556,0.127979987 C1.57904342,0.0290485701 1.41969662,-0.0152998329 1.26172846,0.00469894309 C1.10376031,0.0246977191 0.960122557,0.107403981 0.86243986,0.234608333 L0.126318617,1.19350453 C-0.0770249607,1.45820114 -0.0298505825,1.83957727 0.231693079,2.04539292 L22.2950805,19.3005914 C22.4207226,19.3995229 22.5800694,19.4438713 22.7380376,19.4238725 C22.8960057,19.4038737 23.0396435,19.3211674 23.1373262,19.1939631 L23.8738224,18.2350669 C24.0770814,17.9702708 24.0297373,17.5888795 23.7680729,17.3831785 Z M16.8786081,11.9948422 L15.4048656,10.8420417 C15.5289763,10.4790755 15.5948104,10.0983307 15.5998646,9.71428571 C15.6147038,8.57407921 15.0941969,7.49433489 14.1970561,6.80428688 C13.2999154,6.11423888 12.1324949,5.89569088 11.0507629,6.21528223 C11.2768907,6.52533977 11.3992116,6.90039161 11.3998861,7.28573975 C11.3942917,7.41397137 11.3749278,7.54120663 11.3421364,7.66520006 L8.58177546,5.50645037 C9.5406388,4.69562193 10.7502873,4.25099169 11.999883,4.25005645 C13.4322888,4.24925138 14.8062557,4.82468641 15.8191196,5.84960277 C16.8319836,6.87451913 17.4006519,8.26483532 17.3998563,9.71428571 C17.3998563,10.5350584 17.2014815,11.3000503 16.8786081,11.9952216 L16.8786081,11.9948422 Z"></path>
</svg>
