<svg viewBox="0 0 24 24" xmlns="http://www.w3.org/2000/svg">
    <path d="M12.7307139,22.6979887 L16.1336886,19.2950559 C16.7833409,18.6453616 16.32323,17.5345493 15.4044767,17.5345493 L13.2031616,17.5345493 L13.2031616,13.2031282 L17.5345407,13.2031282 L17.5345407,15.4043594 C17.5344988,16.3231546 18.6453531,16.7832656 19.2950054,16.1336133 L22.6979381,12.7306386 C23.1006873,12.3279313 23.1006873,11.674964 22.6979381,11.2722568 L19.2950054,7.86928211 C18.6453531,7.21962979 17.5345407,7.67974074 17.5345407,8.59849397 L17.5345407,10.7968718 L13.2031197,10.7968718 L13.2031197,6.46545067 L15.4014974,6.46545067 C16.3202507,6.46545067 16.7803616,5.3545964 16.1307093,4.70494408 L12.7277346,1.30201135 C12.3250274,0.899262158 11.672102,0.899262158 11.2693529,1.30201135 L7.86637817,4.70494408 C7.21672585,5.35463836 7.67683679,6.46545067 8.59559002,6.46545067 L10.7969051,6.46545067 L10.7969051,10.7968718 L6.46548405,10.7968718 L6.46548405,8.59564057 C6.46548405,7.67684538 5.35462978,7.21673443 4.70497746,7.86638675 L1.30204473,11.2693614 C0.899295536,11.6720687 0.899295536,12.325036 1.30204473,12.7277432 L4.70497746,16.1307179 C5.35467174,16.7803702 6.46548405,16.3202593 6.46548405,15.401506 L6.46548405,13.2031282 L10.7969051,13.2031282 L10.7969471,17.5345913 L8.59856931,17.5345913 C7.67981608,17.5345493 7.21970513,18.6454036 7.86935745,19.2950559 L11.2723321,22.6979887 C11.6750394,23.1007378 12.3279647,23.1007378 12.7307139,22.6979887 Z"></path>
</svg>