<svg xmlns="http://www.w3.org/2000/svg" viewBox="0 0 24 24"><path d="M2.15 23l4.9-.55 6.08-6.08-5.5-5.5-6.08 6.08-.54 4.9c-.08.66.48 1.22 1.14 1.14zm6.36-4v-1.47H6.47v-2.04H5l3.62-3.62 3.51 3.5L8.51 19zm-5.12 3L2 20.61l.3-2.7.91-.91h1.6v2.2H7v1.59l-.9.91-2.71.3zm12.99-8.88L22.2 7.3c1.08-1.08 1.52-3.1.44-4.17l-1.61-1.6c-1.07-1.08-3.25-.8-4.33.27l-5.81 5.81 5.5 5.5zM19.5 8L16 4.5l1.78-1.8a1.35 1.35 0 0 1 1.9 0l1.6 1.58c.52.52.52 1.38 0 1.9L19.48 8zm-7.61.62L14.49 6 18 9.5l-2.62 2.62-3.5-3.5zM23.5 23.78l.37-.47a.59.59 0 0 0-.1-.83L1.35.13a.6.6 0 0 0-.84.1L.13.68c-.2.25-.16.63.1.83l22.42 22.35c.26.2.64.16.84-.1z"/></svg>