<svg viewBox="0 0 333 144" version="1.1" xmlns="http://www.w3.org/2000/svg"><g class="nc-icon-wrapper"><g id="Page-1" stroke="none" stroke-width="1" fill="none" fill-rule="evenodd"><g id="Artboard" transform="translate(-749 -516)"><g id="Group-3" transform="translate(749 517)"><g id="Group-2" transform="translate(0 18)"><g id="Group-Copy"><path d="M58 124c-3.106-8-8.286-12-15.537-12-7.252 0-12.406 4-15.463 12h31z" id="Oval" stroke="#ACB0BA" fill="#FFF"/><path d="M28.5 120.5h21" id="Line-3" stroke="#ACB0BA" stroke-linecap="square"/><path d="M53.5 120.5h3" id="Line-5" stroke="#ACB0BA" stroke-linecap="square"/><circle id="Oval" fill="#E9EBF2" cx="25" cy="8" r="3"/><circle id="Oval" fill="#3A9FFE" cx="13.5" cy="63.5" r="4.5"/><circle id="Oval" fill="#E9EBF2" cx="315" cy="20" r="3"/><path d="M65.5 112.5v1.5a9.5 9.5 0 0 0 9.5 9.5h187a9.5 9.5 0 0 0 9.5-9.5v-1.5h-206z" id="Rectangle" stroke="#ACB0BA" fill="#FFF"/><path d="M65.522 107.5a5.5 5.5 0 0 0 5.478 5h195a5.5 5.5 0 0 0 5.478-5H65.522z" id="Rectangle" stroke="#ACB0BA" fill="#FFF" transform="matrix(1 0 0 -1 0 220)"/><path d="M139.522 112.5a5.5 5.5 0 0 0 5.478 5h47a5.5 5.5 0 0 0 5.478-5h-57.956z" id="Rectangle" stroke="#B1B6BF"/><path d="M.5 123.5h4.823" id="Line-2" stroke="#ACB0BA" stroke-linecap="square"/><path d="M328.5 123.5h4" id="Line-2" stroke="#ACB0BA" stroke-linecap="square"/><path d="M15.5 68l25 44" id="Line-6" stroke="#ACB0BA" stroke-linecap="square"/><path d="M16.5 59.5l33-33" id="Line-7" stroke="#ACB0BA" stroke-linecap="square"/><path d="M9.503 123.5h314.998" id="Line" stroke="#ACB0BA" stroke-linecap="square"/><path d="M52.06 1.761C52.331 1.505 54.2.256 54.614.014c.277-.16 1.405 1.043 3.385 3.612L52.764 7c-.651-3.322-.886-5.068-.705-5.239z" id="Path-2" fill="#3A9FFE"/><path d="M53.77 34l-5.124-11.277c-1.877-7.783.336-13.574 6.638-17.373 6.302-3.8 12.622-2.992 18.958 2.422L82 17.814 53.77 34z" id="Path" fill="#3497E8"/><path d="M85 40.159c-2.227-3.025-4.67-4.4-7.327-4.125C72.922 36.527 69 40.01 69 44.911c0 .983.324 2.346.973 4.089L85 40.159z" id="Oval" stroke="#ACB0BA" fill="#FFF" transform="rotate(180 77 42.5)"/><path d="M99 29.156c-6.682-8.842-14.008-12.86-21.98-12.055C62.765 18.539 51 28.718 51 43.049c0 2.873.973 6.857 2.918 11.951L99 29.156z" id="Oval" fill="#3A9FFE"/><path d="M53 7c1.272-1.13 2.241-1.93 2.907-2.4.666-.47 1.697-1.003 3.093-1.6" id="Path-3" stroke="#FFF" stroke-width=".2"/></g><path d="M281.482 53.829h43.868c0 18.171-20.186 22.477-20.186 31.61 0 11.561 20.186 9.577 20.186 31.654h-43.868c0-22.077 20.841-20.093 20.841-31.593 0-9.5-20.841-13.5-20.841-31.671z" id="Path-12" stroke="#E9EBF2"/><path d="M281.3 116.2h44.5a1 1 0 0 1 1 1v5h-46.498l-.002-5a1 1 0 0 1 1-1z" id="Path-4" fill="#3A9FFE"/><path d="M279.5 117.5h48a1 1 0 0 1 1 1v5h-49.998l-.002-5a1 1 0 0 1 1-1z" id="Path-4" fill="#3497E8"/><path d="M281 52h45a1 1 0 0 1 1 1v1.5h-46.998l-.001-1.5a.999.999 0 0 1 .999-1z" id="Path-4" fill="#3A9FFE" transform="matrix(1 0 0 -1 0 106.5)"/><path d="M279.5 47h48a1 1 0 0 1 1 1v4.3a1 1 0 0 1-1 1h-47.998c-.552 0-1-.448-1-1L278.5 48a1 1 0 0 1 1-1z" id="Path-4" fill="#3497E8" transform="matrix(1 0 0 -1 0 100.3)"/><path d="M283.854 62c5.11 1.71 8.18 2.66 19.027 3.136 7.409.324 16.974-1.535 17.483-1.535.509 0 3.296-1.184 3.053-1.601-.227-.39-1.046-.91-2.261-1.257-2.345-.265-5.791-.474-6.458-.265-1.048.328-3.026.407-4.225.265-.635-.075-1.585-.379-2.514-.425-.563-.029-1.328.192-1.942.16-.74-.039-1.56-.287-2.382-.33-1.878.253-4.44.239-6.847.17-1.083-.032-2.162-.302-3.084-.17-.868.126-1.494.27-2.347.33-2.064.146-4.21-.16-4.862 0-.518 0-2.821 1.073-2.641 1.522z" id="Path-13" fill="#82C4F1"/><path d="M283.844 61.939c-.07 2.622 3.792 7.754 11.094 13.273 4.618 3.27 7.473 6.461 8.562 9.576.095 12.072.137 18.574.127 19.506-1.786.595-4.885 3.907-6.748 5.234-2.928 2.055-6.397 5.64-5.968 6.672h25.567c.598-1.29-3.019-4.438-6.675-7.385-2.238-2.214-4.636-4.205-5.864-4.52 0-4.277 0-12.495.12-19.507.441-2.08 2.837-5.245 6.643-8.251 2.792-2.205 6.28-4.99 9.036-7.898 2.85-2.907 3.35-5.045 3.694-6.534-1.944 1.298-5.456 1.88-9.337 2.373-4.403.559-9.638.736-14.477.425-7.517-.483-14.12-2.19-15.774-2.964z" id="Path-14" fill="#3A9FFE" opacity=".9"/><path d="M300.05 106.852c.045-.05.624-.554 1.375-1.17.609-.5 1.438-1.095 2.003-1.314.397-.154.552-.064.744 0 .244.083.933.452 1.674.988.922.667 1.889 1.513 2.078 1.692.14.351-.504.056-1.055-.054-.243-.049-.539-.162-.838-.211-.286-.047-.654.056-.967 0-.341-.062-.677-.267-1.033-.307-.566-.064-1.162.244-1.693.207-.397-.028-1.043.389-1.378.389-.888 0-.982-.072-.91-.22z" id="Path-15" fill="#A4D1E6"/></g><circle id="Oval" stroke="#B8BBC4" fill="#E9EBF2" cx="222" cy="42" r="42"/><circle id="Oval" fill="#FFF" cx="222" cy="42" r="35"/><circle id="Oval" stroke="#B8BBC4" cx="222" cy="42" r="35"/><path d="M190.605 50.18c3.733 18.92 32.23 34.99 54.726 14.82 21.772-27 .373-51.026-14.975-54.318" id="Path-16" stroke="#F4F5F8" stroke-width="4"/><path d="M220 71c17.12 0 32.176-10 32.176-30.876 0-16.003-15.055-32.38-32.176-32.38-17.12 0-33 17.256-32.323 36.024.423 11.746 7.372 20.257 15.886 24.382C208.653 70.616 213.595 71 220 71z" id="Oval" fill="#FFF"/><path d="M222.603 40V13.5" id="Line-4" stroke="#C5C8CF" stroke-linecap="square"/><path d="M222.603 44L235.5 65.5" id="Line-4" stroke="#C5C8CF" stroke-linecap="square"/><path d="M222.603 44L225 67.5" id="Line-4" stroke="#C5C8CF" stroke-width=".2" stroke-linecap="square"/><rect id="Rectangle" fill="#A4A8B3" x="220" y="40" width="5" height="5" rx="2.5"/></g></g></g></g></svg>