<?xml version="1.0" encoding="UTF-8"?>
<svg width="472px" height="265px" viewBox="0 0 472 265" version="1.1" xmlns="http://www.w3.org/2000/svg" xmlns:xlink="http://www.w3.org/1999/xlink">
    <!-- Generator: Sketch 56.3 (81716) - https://sketch.com -->
    <title>Welcome Screen 2</title>
    <desc>Created with Sketch.</desc>
    <g id="Welcome-Screen-2" stroke="none" stroke-width="1" fill="none" fill-rule="evenodd">
        <g id="Group-5" transform="translate(12.000000, 2.000000)">
            <g id="factory" fill="#E7F4FF" fill-rule="nonzero">
                <path d="M154.413168,14.7138203 C153.271058,12.9420989 152.90431,11.7448685 152.90431,11.7448685 L153.448571,11.2416279 C153.448571,11.2416279 154.506948,11.6837167 156.356876,12.4455905 C157.229926,12.795671 158.29891,13.2254172 159.524194,13.7101441 C160.731057,14.1494277 162.04454,14.6616449 163.452361,15.004993 C164.145665,15.2209882 164.851808,15.4358613 165.581397,15.5183322 C165.948703,15.5671415 166.298704,15.6686873 166.662661,15.7360104 C167.023269,15.7606956 167.384993,15.7724771 167.744484,15.8184813 C169.198637,16.0148406 170.535564,15.8560701 172.00144,15.7792095 C172.681347,15.5278696 173.437171,15.4571803 174.176808,15.1373953 C174.854482,14.7351393 175.740371,14.5017523 176.36948,13.9861691 C176.702735,13.7561482 177.048829,13.51659 177.420043,13.2798368 C177.805212,13.0621586 178.214943,12.8899234 178.624115,12.4450295 L181.214237,10.2592706 C181.238799,10.225609 181.062961,10.4831201 181.147252,10.3630605 L181.165114,10.3445466 L181.209214,10.3052748 L181.294621,10.2317803 L181.464876,10.0786201 L181.806505,9.77173866 L182.485854,9.17312348 L183.768076,7.95120795 C184.57414,7.11640065 185.588418,6.46561002 186.401181,5.66109814 C187.201663,4.82853495 188.277345,4.31912297 189.13309,3.51180596 C190.048565,2.78695984 191.118665,2.24388627 192.150806,1.54092018 C194.319476,0.515363902 196.853777,-0.245948937 199.122925,0.0738361169 C199.691747,0.134987996 200.244381,0.224191195 200.788084,0.325175949 C201.313923,0.472164869 201.807944,0.653937426 202.296942,0.837954089 C203.298381,1.17008172 204.160825,1.64527109 204.973588,2.1148502 C206.597438,3.0579356 207.888034,4.15025402 208.919617,5.20666675 C209.94506,6.26588462 210.715956,7.29761218 211.270823,8.19693752 C211.852484,9.07718796 212.18853,9.85477057 212.425214,10.3860626 C212.621148,10.9325023 212.724418,11.2270412 212.724418,11.2270412 L212.180715,11.7364531 C212.180715,11.7364531 211.014602,11.3403685 209.223845,10.5880321 C208.351353,10.2385126 207.292975,9.79978998 206.078297,9.30833084 C204.905485,8.823043 203.615448,8.28894585 202.252842,7.82553804 C201.57461,7.57363718 200.872932,7.3127599 200.163998,7.14052479 C199.803949,7.05188262 199.45004,6.90994293 199.088316,6.80615305 C198.727708,6.73265859 198.368217,6.64008923 198.006493,6.52059061 C196.543409,6.04147405 195.03176,5.56908981 193.160061,5.37273057 C192.300408,5.48661893 191.273849,5.44959119 190.379587,5.82435683 C189.519376,6.26307948 188.531334,6.60081738 187.84082,7.38064409 C187.144725,8.13241948 186.350383,8.78994244 185.862503,9.74761452 L185.15301,11.1748657 L184.827012,11.8935405 L184.668478,12.2497923 L184.590328,12.433809 L184.551253,12.5162799 L184.532832,12.5594789 L184.520551,12.5869692 C184.590886,12.4826183 184.411141,12.753033 184.423422,12.7373243 L183.027323,15.8319459 C182.569028,16.8300119 181.517907,17.956553 180.659929,18.9478866 C179.789112,20.0284235 178.622999,20.6489187 177.584717,21.4960686 C176.49787,22.2635527 175.17099,22.7056415 173.956312,23.2610577 C171.371214,24.0032956 168.670564,24.1362589 166.398067,23.5253011 C165.237536,23.26779 164.169668,22.9294911 163.228516,22.438593 C162.243265,22.0206283 161.394218,21.4994348 160.593736,20.995633 C159.00282,19.9369762 157.74181,18.8160454 156.745395,17.7169947 C155.727209,16.6538496 154.973059,15.6041692 154.413168,14.7138203 Z M266,190.2674 L266,254 L0,254 L0,190.2674 L18.1191351,190.2674 L18.1191351,118.674819 L69.179158,82.6698274 L69.179158,118.674819 L120.231366,82.6698274 L120.231366,118.674819 L171.29418,82.6698274 L171.29418,153.439382 L188.911479,153.439382 L198.479302,28.2525097 L227.681259,28.2525097 L236.055616,153.439382 L255.702588,153.439382 L255.702588,190.272449 L266,190.272449 L266,190.2674 L266,190.2674 Z M83.3835238,162.746249 L43.2399741,162.746249 L43.2399741,199.991109 L83.3835238,199.991109 L83.3835238,162.746249 Z M152.556541,162.746249 L112.411875,162.746249 L112.411875,199.991109 L152.556541,199.991109 L152.556541,162.746249 Z M222.598701,162.746249 L182.455152,162.746249 L182.455152,199.991109 L222.598701,199.991109 L222.598701,162.746249 Z" id="Shape"></path>
            </g>
            <circle id="Oval" fill="#E9EBF2" cx="225" cy="108" r="3"></circle>
            <path d="M110.5,242.5 L340.5,242.5 L340.5,112 C340.5,106.20101 335.79899,101.5 330,101.5 L121,101.5 C115.20101,101.5 110.5,106.20101 110.5,112 L110.5,242.5 Z" id="Rectangle" stroke="#B8BBC4" fill="#FFFFFF"></path>
            <path d="M121,112 L330,112 C330.552285,112 331,112.447715 331,113 L331,240 L120,240 L120,113 C120,112.447715 120.447715,112 121,112 Z" id="Rectangle" fill="#E9EBF2"></path>
            <path d="M124.5,231.5 L326.5,231.5 L326.5,118 C326.5,117.723858 326.276142,117.5 326,117.5 L125,117.5 C124.723858,117.5 124.5,117.723858 124.5,118 L124.5,231.5 Z" id="Rectangle" stroke="#B8BBC4"></path>
            <path d="M143.185777,135.5 L163.586045,135.5" id="Line-4" stroke="#B8BBC4" stroke-linecap="square"></path>
            <path d="M135,144.5 L163.59508,144.5" id="Line-4" stroke="#B8BBC4" stroke-linecap="square"></path>
            <path d="M135,152.5 L163.59508,152.5" id="Line-4" stroke="#B8BBC4" stroke-linecap="square"></path>
            <path d="M126,224.5 L155.581117,224.5" id="Line-4" stroke="#B8BBC4" stroke-linecap="square"></path>
            <path d="M164.775709,224.5 L170.609043,224.5" id="Line-4" stroke="#B8BBC4" stroke-linecap="square"></path>
            <path d="M98.5,239.5 L98.5,244 C98.5,249.246705 102.753295,253.5 108,253.5 L342,253.5 C347.246705,253.5 351.5,249.246705 351.5,244 L351.5,239.5 L98.5,239.5 Z" id="Rectangle" stroke="#ACB0BA" fill="#FFFFFF"></path>
            <path d="M189.518945,239.5 C189.774257,242.856224 192.578385,245.5 196,245.5 L255,245.5 C258.421615,245.5 261.225743,242.856224 261.481055,239.5 L189.518945,239.5 Z" id="Rectangle" stroke="#B1B6BF"></path>
            <path d="M5.58333333,253.5 L11.209626,253.5" id="Line-2" stroke="#ACB0BA" stroke-linecap="square"></path>
            <path d="M444.6,253.5 L449.4,253.5" id="Line-2" stroke="#ACB0BA" stroke-linecap="square"></path>
            <path d="M16.6751592,253.5 L439.330115,253.5" id="Line" stroke="#ACB0BA" stroke-linecap="square"></path>
            <path d="M84,111 C85.4843212,109.304385 86.6148702,108.104242 87.3916472,107.399573 C88.1684242,106.694903 89.3712084,105.895046 91,105" id="Path-3" stroke="#FFFFFF" stroke-width="0.2"></path>
            <g id="Group" transform="translate(106.000000, 72.000000)">
                <g fill="#FFFFFF" stroke="#E9EBF1">
                    <path d="M15.8321429,23.3982792 L19.184288,26.8888889 C20.6869737,25.3199803 23.1440279,25.3199803 24.6526414,26.8888889 L28.0107143,23.3982792 C24.6526414,19.9042773 19.184288,19.9042773 15.8321429,23.3982792" id="Fill-79"></path>
                    <path d="M9.74285714,18.81841 L13.4153988,22 C17.7682213,18.2362796 24.851908,18.2300867 29.1982361,22 L32.8821429,18.81841 C26.4998434,13.2788824 16.1202859,13.2866235 9.74285714,18.81841" id="Fill-80"></path>
                    <path d="M4.87142857,13.6832049 L8.53706393,17.1111111 C15.5944654,10.5367933 27.0418783,10.5317964 34.0879361,17.1111111 L37.7535714,13.6832049 C28.6867147,5.21670949 13.9350442,5.21670949 4.87142857,13.6832049" id="Fill-81"></path>
                    <path d="M0,7.77198244 L3.65773504,11 C13.3938841,2.42022777 29.2197816,2.42022777 38.9559307,11 L42.625,7.77198244 C30.866491,-2.59066081 11.7455556,-2.59066081 0,7.77198244" id="Fill-82"></path>
                    <path d="M21.914136,28.1111111 C20.5708469,28.1111111 19.4857143,29.2040422 19.4857143,30.5518929 C19.4857143,31.9070689 20.5708469,33 21.914136,33 C23.2618007,33 24.3571429,31.9070689 24.3571429,30.5518929 C24.3571429,29.2040422 23.2618007,28.1111111 21.914136,28.1111111" id="Fill-83"></path>
                </g>
                <path d="M17.2071429,23.3982792 L20.559288,26.8888889 C22.0619737,25.3199803 24.5190279,25.3199803 26.0276414,26.8888889 L29.3857143,23.3982792 C26.0276414,19.9042773 20.559288,19.9042773 17.2071429,23.3982792" id="Fill-79" stroke="#B8BBC4"></path>
                <path d="M11.1178571,18.81841 L14.7903988,22 C19.1432213,18.2362796 26.226908,18.2300867 30.5732361,22 L34.2571429,18.81841 C27.8748434,13.2788824 17.4952859,13.2866235 11.1178571,18.81841" id="Fill-80" stroke="#B8BBC4"></path>
                <path d="M6.24642857,13.6832049 L9.91206393,17.1111111 C16.9694654,10.5367933 28.4168783,10.5317964 35.4629361,17.1111111 L39.1285714,13.6832049 C30.0617147,5.21670949 15.3100442,5.21670949 6.24642857,13.6832049" id="Fill-81" stroke="#B8BBC4"></path>
                <path d="M1.375,7.77198244 L5.03273504,11 C14.7688841,2.42022777 30.5947816,2.42022777 40.3309307,11 L44,7.77198244 C32.241491,-2.59066081 13.1205556,-2.59066081 1.375,7.77198244" id="Fill-82" stroke="#B8BBC4"></path>
                <path d="M23.289136,28.1111111 C21.9458469,28.1111111 20.8607143,29.2040422 20.8607143,30.5518929 C20.8607143,31.9070689 21.9458469,33 23.289136,33 C24.6368007,33 25.7321429,31.9070689 25.7321429,30.5518929 C25.7321429,29.2040422 24.6368007,28.1111111 23.289136,28.1111111" id="Fill-83" stroke="#B8BBC4" fill="#FFFFFF"></path>
            </g>
            <path d="M322.889504,70.2803349 C323.028161,70.5882215 322.890971,70.9501533 322.582967,71.0888123 L321.020933,71.7923783 C320.873228,71.8591401 320.704859,71.8641533 320.553241,71.8066844 C320.4015,71.7492155 320.278983,71.6339109 320.212344,71.4860813 L319.487145,69.8759739 C318.651045,70.0575512 317.783276,70.0844515 316.935071,69.9537404 L316.309401,71.6051764 C316.251933,71.7569188 316.13663,71.8794376 315.988802,71.9460771 C315.909081,71.9820257 315.823368,72 315.737654,72 C315.664413,72 315.590927,71.9867944 315.52111,71.9603831 L313.918971,71.3534137 C313.603263,71.2338295 313.444309,70.8808238 313.563891,70.5651116 L314.189683,68.9135533 C313.468885,68.4495225 312.837592,67.8557587 312.330038,67.1641755 L310.719829,67.8895064 C310.572002,67.9562681 310.403877,67.9612814 310.252136,67.9038125 C310.100518,67.8463436 309.977879,67.731039 309.911363,67.5832094 L309.207684,66.0211558 C309.141045,65.8733262 309.135909,65.7050769 309.193378,65.5534568 C309.250846,65.4017144 309.366149,65.2791956 309.513976,65.2125562 L311.124307,64.4872253 C310.942732,63.648913 310.916322,62.7824776 311.04642,61.9352393 L309.394883,61.3094397 C309.079175,61.1898555 308.92022,60.8368497 309.039803,60.5211376 L309.646765,58.9191003 C309.704233,58.7673579 309.819536,58.6448391 309.967363,58.5781997 C310.115313,58.5116825 310.283561,58.506547 310.435056,58.5638936 L312.086593,59.1896932 C312.550618,58.4690088 313.144496,57.8375845 313.835948,57.3300241 L313.110627,55.7197944 C312.971969,55.4119079 313.109037,55.0499761 313.41692,54.9113171 L314.979075,54.2076287 C315.126903,54.1409893 315.295272,54.135976 315.446768,54.1933227 C315.598508,54.2507916 315.721025,54.3660962 315.787664,54.5139257 L316.512863,56.1240331 C317.349086,55.9424559 318.216732,55.9154332 319.064938,56.0462667 L319.690607,54.3948306 C319.748075,54.2430883 319.863378,54.1205695 320.011206,54.05393 C320.159156,53.9872905 320.327403,53.9822773 320.478899,54.0396239 L322.080915,54.6467156 C322.396623,54.7662998 322.555577,55.1193056 322.435995,55.4350177 L321.810203,57.0865761 C322.530878,57.5506068 323.162294,58.1444929 323.669848,58.8359538 L325.280057,58.1106229 C325.587695,57.9720862 325.949866,58.1090334 326.088523,58.4169199 L326.792203,59.9789735 C326.858841,60.1268031 326.863977,60.2950525 326.806508,60.4466726 C326.74904,60.5984149 326.633737,60.7209337 326.48591,60.7875732 L324.875701,61.512904 C325.057276,62.3513386 325.083687,63.2175294 324.953589,64.06489 L326.605125,64.6906896 C326.756866,64.7481585 326.879383,64.8634632 326.946022,65.0112927 C327.01266,65.1591223 327.017796,65.3273717 326.960327,65.4789918 L326.353366,67.0811513 C326.233783,67.3968634 325.880905,67.5559422 325.565074,67.4362357 L323.913538,66.8104361 C323.449513,67.5311206 322.855635,68.1625448 322.164183,68.6701052 L322.889504,70.2803349 Z M321.925372,64.4876019 C322.322712,63.4388559 322.287919,62.2980907 321.827307,61.2754766 C321.366818,60.2529864 320.535735,59.4710092 319.487223,59.0737044 C319.008038,58.892143 318.507927,58.8 318.000759,58.8 C316.266901,58.8 314.689056,59.8899875 314.074535,61.5123981 C313.677319,62.5611441 313.712113,63.7019093 314.172601,64.7243996 C314.633089,65.7470136 315.464172,66.5289908 316.512684,66.9262956 C316.991869,67.107857 317.49198,67.2 317.999149,67.2 C319.733007,67.2 321.310851,66.1100125 321.925372,64.4876019 Z" id="asset-type-copy" stroke="#DCDCDC" fill="#FFFFFF" fill-rule="nonzero"></path>
            <path d="M356.704375,46.976125 C356.635625,46.745125 356.451375,46.565 356.217625,46.503125 C355.981125,46.4385 355.733625,46.50725 355.56175,46.676375 L351.96475,50.19225 L349.333,49.665625 L348.809125,47.0435 L352.446,43.489125 C352.61925,43.32 352.69075,43.0725 352.634375,42.837375 C352.578,42.60225 352.403375,42.413875 352.172375,42.341 C351.44225,42.11275 350.772625,42 350.125,42 C346.334125,42 343.25,45.084125 343.25,48.875 C343.25,49.319125 343.30225,49.76875 343.41225,50.26375 C342.6395,50.900375 341.90525,51.449 341.073375,52.0705 C339.884,52.95875 338.5365,53.963875 336.698125,55.51625 C335.61875,56.4595 335,57.797375 335,59.1875 C335,61.84125 337.15875,64 339.8125,64 C341.216375,64 342.552875,63.373 343.47275,62.28125 C345.052625,60.429125 346.072875,59.06925 346.97075,57.868875 C347.5785,57.05625 348.11475,56.34125 348.734875,55.586375 C349.229875,55.69775 349.680875,55.75 350.125,55.75 C353.915875,55.75 357,52.665875 357,48.875 C357,48.274125 356.9065,47.671875 356.704375,46.976125 Z M339.888889,60.3333333 C339.213,60.3333333 338.666667,59.787 338.666667,59.1111111 C338.666667,58.4352222 339.213,57.8888889 339.888889,57.8888889 C340.564778,57.8888889 341.111111,58.4352222 341.111111,59.1111111 C341.111111,59.787 340.564778,60.3333333 339.888889,60.3333333 Z" id="Shape" stroke="#E9EBF1" fill="#FFFFFF" fill-rule="nonzero"></path>
            <path d="M356.704375,47.976125 C356.635625,47.745125 356.451375,47.565 356.217625,47.503125 C355.981125,47.4385 355.733625,47.50725 355.56175,47.676375 L351.96475,51.19225 L349.333,50.665625 L348.809125,48.0435 L352.446,44.489125 C352.61925,44.32 352.69075,44.0725 352.634375,43.837375 C352.578,43.60225 352.403375,43.413875 352.172375,43.341 C351.44225,43.11275 350.772625,43 350.125,43 C346.334125,43 343.25,46.084125 343.25,49.875 C343.25,50.319125 343.30225,50.76875 343.41225,51.26375 C342.6395,51.900375 341.90525,52.449 341.073375,53.0705 C339.884,53.95875 338.5365,54.963875 336.698125,56.51625 C335.61875,57.4595 335,58.797375 335,60.1875 C335,62.84125 337.15875,65 339.8125,65 C341.216375,65 342.552875,64.373 343.47275,63.28125 C345.052625,61.429125 346.072875,60.06925 346.97075,58.868875 C347.5785,58.05625 348.11475,57.34125 348.734875,56.586375 C349.229875,56.69775 349.680875,56.75 350.125,56.75 C353.915875,56.75 357,53.665875 357,49.875 C357,49.274125 356.9065,48.671875 356.704375,47.976125 Z M339.888889,61.3333333 C339.213,61.3333333 338.666667,60.787 338.666667,60.1111111 C338.666667,59.4352222 339.213,58.8888889 339.888889,58.8888889 C340.564778,58.8888889 341.111111,59.4352222 341.111111,60.1111111 C341.111111,60.787 340.564778,61.3333333 339.888889,61.3333333 Z" id="Shape" stroke="#B8BBC4" fill-rule="nonzero"></path>
            <g id="Group" transform="translate(327.000000, 71.000000)">
                <path d="M28.0813374,12.1834942 L28.0648354,12.1562963 L21.5920483,0.677954079 C21.5113399,0.55400438 21.4209173,0.5 21.2988129,0.5 L8.32023468,0.5 C8.19813031,0.5 8.10770775,0.55400438 8.04350132,0.650756085 L1.53771021,12.1834942 C1.48742993,12.2607133 1.48742993,12.3708657 1.55421219,12.4752827 L8.02699934,23.9536249 C8.10770775,24.0775746 8.19813031,24.1315789 8.32023468,24.1315789 L21.2988129,24.1315789 C21.4209173,24.1315789 21.5113399,24.0775746 21.5755463,23.9808229 L28.0813374,12.4480847 C28.1316177,12.3708657 28.1316177,12.2607133 28.0813374,12.1834942 Z M14.8095238,19.6578947 C10.7687454,19.6578947 7.4047619,16.3662879 7.4047619,12.3650133 C7.4047619,8.3146291 10.7194009,4.97368421 14.8095238,4.97368421 C18.8668355,4.97368421 22.2142857,8.28186788 22.2142857,12.3650133 C22.2142857,16.3331572 18.8830675,19.6578947 14.8095238,19.6578947 Z" id="Combined-Shape-Copy" stroke="#E9EBF1" fill="#FFFFFF" fill-rule="nonzero"></path>
                <path d="M28.4562592,12.7884423 L28.4397722,12.7612483 L21.6425056,0.698389107 C21.553316,0.561309588 21.4507404,0.5 21.3137536,0.5 L7.68624642,0.5 C7.54925964,0.5 7.44668398,0.561309588 7.37398138,0.67119513 L0.54374084,12.7884423 C0.48541972,12.8780787 0.48541972,13.0048521 0.560227802,13.1216825 L7.35749442,25.1845417 C7.44668398,25.3216212 7.54925964,25.3829308 7.68624642,25.3829308 L21.3137536,25.3829308 C21.4507404,25.3829308 21.553316,25.3216212 21.6260186,25.2117357 L28.4562592,13.0944885 C28.5145803,13.0048521 28.5145803,12.8780787 28.4562592,12.7884423 Z M14.5,20.8700368 C10.2395005,20.8700368 6.69784173,17.3122999 6.69784173,12.9949084 C6.69784173,8.62381366 10.1874103,5.01289398 14.5,5.01289398 C18.777954,5.01289398 22.3021583,8.58849927 22.3021583,12.9949084 C22.3021583,17.2765865 18.7950889,20.8700368 14.5,20.8700368 Z" id="Combined-Shape" stroke="#B8BBC4" fill-rule="nonzero"></path>
                <ellipse id="Oval" stroke="#B8BBC4" fill="#FFFFFF" transform="translate(14.500000, 12.941465) scale(-1, -1) translate(-14.500000, -12.941465) " cx="14.5" cy="12.9414654" rx="4.83333333" ry="4.95238095"></ellipse>
            </g>
            <path d="M171.5,126 L171.5,231" id="Line-8" stroke="#B8BBC4" stroke-linecap="square"></path>
            <path d="M325.882796,125.5 L253.254949,125.5" id="Line-8" stroke="#B8BBC4" stroke-linecap="square"></path>
            <path d="M244.880605,125.5 L124.510813,125.5" id="Line-8" stroke="#B8BBC4" stroke-linecap="square"></path>
            <path d="M305.069986,122.076709 L302.611953,116.530362 C304.955206,114.782099 306.967794,112.607193 308.540322,110.124835 L314.137196,112.280368 C315.20751,112.69269 316.403377,112.144752 316.808629,111.057299 L318.865554,105.538749 C319.060307,105.016502 319.042904,104.436977 318.817073,103.927786 C318.591242,103.418595 318.176045,103.021435 317.661814,102.823487 L312.06494,100.667954 C312.505828,97.749268 312.416324,94.7657219 311.800987,91.8777806 L317.257805,89.3794187 C317.758776,89.1498828 318.149526,88.7278736 318.344279,88.2052055 C318.539032,87.6829585 318.521628,87.1034329 318.295798,86.5942422 L315.911107,81.2138353 C315.441214,80.1533371 314.213854,79.6816302 313.171303,80.1588123 L307.714485,82.6571742 C305.994442,80.2754755 303.854643,78.229868 301.412356,76.6315397 L303.533094,70.9428388 C303.938346,69.8553859 303.399667,68.6394771 302.329768,68.2275759 L296.900713,66.1364824 C296.38731,65.9389551 295.817139,65.9562229 295.315753,66.1857589 C294.814782,66.4152948 294.424032,66.8373041 294.229279,67.3599721 L292.108956,73.048252 C289.234482,72.5976034 286.294124,72.6906813 283.460258,73.3161141 L281.002639,67.7701887 C280.776808,67.2609979 280.361611,66.8638376 279.84738,66.6658891 C279.333977,66.4683619 278.763392,66.4856297 278.262421,66.7151657 L272.968449,69.138981 C271.92507,69.6165843 271.460563,70.8632382 271.930457,71.9237364 L274.38849,77.470083 C272.045237,79.2183467 270.032649,81.3932524 268.460121,83.87561 L262.863247,81.7200779 C262.349844,81.5225507 261.779673,81.5402397 261.278287,81.7693544 C260.777316,81.9988904 260.386567,82.4208996 260.191813,82.9435677 L258.134888,88.4616961 C257.729636,89.549149 258.268315,90.7650577 259.338214,91.1769589 L264.935089,93.332491 C264.494201,96.2507563 264.583704,99.2351448 265.199041,102.122665 L259.741809,104.621027 C259.240838,104.850563 258.850088,105.272572 258.655335,105.79524 C258.460582,106.317487 258.477986,106.897013 258.703816,107.406203 L261.088507,112.78661 C261.313923,113.295801 261.729535,113.692961 262.243351,113.89091 C262.757583,114.088858 263.327339,114.07159 263.828311,113.841633 L269.285129,111.343271 C271.005172,113.725391 273.144556,115.770577 275.587258,117.368906 L273.46652,123.057607 C273.061268,124.14506 273.599947,125.360968 274.669846,125.77287 L280.099316,127.863542 C280.33592,127.954514 280.584956,128 280.833162,128 C281.123635,128 281.414107,127.938088 281.684275,127.814265 C282.185246,127.584729 282.575996,127.16272 282.770749,126.640052 L284.891072,120.951772 C287.765546,121.402 290.706319,121.309343 293.53977,120.68391 L295.997389,126.229836 C296.22322,126.739026 296.638417,127.136187 297.152649,127.334135 C297.666465,127.532084 298.237051,127.514816 298.737608,127.284859 L304.031164,124.861464 C305.074959,124.383861 305.53988,123.137207 305.069986,122.076709 Z" id="Path-5" stroke="#E9EBF1" stroke-width="1.5" fill="#FFFFFF" fill-rule="nonzero"></path>
            <path d="M305.841625,123.981172 L303.343296,118.345368 C305.724964,116.568907 307.770544,114.358922 309.368852,111.836526 L315.057478,114.026825 C316.145338,114.445798 317.360809,113.889022 317.772705,112.78403 L319.86335,107.176471 C320.061296,106.645801 320.043607,106.056928 319.814074,105.539525 C319.584541,105.022121 319.162538,104.618555 318.639876,104.417414 L312.95125,102.227115 C313.399366,99.261353 313.308395,96.2296851 312.68297,93.2951642 L318.229244,90.7565061 C318.738428,90.523268 319.135583,90.0944522 319.333529,89.5633539 C319.531475,89.0326837 319.513786,88.4438109 319.284253,87.9264074 L316.86047,82.4592198 C316.382873,81.3816168 315.135393,80.9023017 314.075751,81.3871803 L308.529477,83.9258383 C306.781236,81.5057251 304.606359,79.427124 302.124034,77.8030162 L304.279538,72.022562 C304.691434,70.9175695 304.143924,69.6820493 303.056485,69.2635046 L297.538429,67.1386837 C297.01661,66.9379705 296.437092,66.9555169 295.927487,67.188755 C295.418303,67.4219931 295.021148,67.850809 294.823202,68.3819072 L292.668119,74.1619334 C289.746523,73.7040164 286.757962,73.7985955 283.877639,74.4341159 L281.379731,68.7987401 C281.150198,68.2813366 280.728195,67.8777704 280.205534,67.6766293 C279.683715,67.4759161 279.103775,67.4934624 278.594591,67.7267006 L273.213834,70.1896098 C272.15335,70.6749163 271.681228,71.9416775 272.158825,73.0192805 L274.657154,78.6550843 C272.275486,80.4315458 270.229906,82.6415307 268.631598,85.1639263 L262.942972,82.9736276 C262.421153,82.7729144 261.841635,82.7908887 261.33203,83.0236989 C260.822846,83.256937 260.425691,83.6857528 260.227745,84.216851 L258.1371,89.8239815 C257.725204,90.9289739 258.272714,92.1644941 259.360152,92.5830389 L265.048779,94.7733376 C264.600663,97.7386717 264.691634,100.771195 265.317059,103.705288 L259.770363,106.243947 C259.261179,106.477185 258.864024,106.906 258.666078,107.437099 C258.468133,107.967769 258.485821,108.556642 258.715354,109.074045 L261.139138,114.541233 C261.36825,115.058636 261.790674,115.462203 262.312915,115.663344 C262.835576,115.864485 263.414673,115.846939 263.923857,115.613272 L269.470131,113.074614 C271.218371,115.495155 273.392827,117.573329 275.875574,119.197436 L273.72007,124.977891 C273.308174,126.082883 273.855684,127.318403 274.943122,127.736948 L280.4616,129.861341 C280.702083,129.95378 280.955201,130 281.207476,130 C281.502711,130 281.797945,129.93709 282.072542,129.81127 C282.581726,129.578032 282.978881,129.149216 283.176827,128.618118 L285.33191,122.838091 C288.253506,123.29558 291.242488,123.201429 294.122389,122.565909 L296.620297,128.201285 C296.84983,128.718688 297.271834,129.122254 297.794495,129.323395 C298.316735,129.524537 298.896674,129.50699 299.405437,129.273324 L304.785774,126.810843 C305.846679,126.325536 306.319222,125.058775 305.841625,123.981172 Z" id="Path-5" stroke="#B8BBC4" fill-rule="nonzero"></path>
            <path d="M302.084575,103.635769 C300.036171,109.236948 294.77669,113 288.997163,113 C287.306601,113 285.639565,112.681887 284.042281,112.055068 C280.547241,110.683421 277.776965,107.983738 276.242004,104.453284 C274.707042,100.923258 274.591064,96.9849023 275.915118,93.3642315 C277.963521,87.763052 283.223002,84 289.002529,84 C290.693091,84 292.360127,84.3181128 293.957412,84.9449318 C297.452451,86.3165794 300.222728,89.0162624 301.757689,92.5462882 C303.293063,96.0767416 303.409041,100.015098 302.084575,103.635769 Z" id="Path" stroke="#E9EBF1" stroke-width="1.5" fill="#FFFFFF" fill-rule="nonzero"></path>
            <path d="M303.051881,104.312864 C300.93032,110.107188 295.483001,114 289.497062,114 C287.746123,114 286.019549,113.670918 284.365219,113.022484 C280.745357,111.603539 277.876142,108.810763 276.286361,105.15857 C274.69658,101.506819 274.576459,97.4326576 275.9478,93.687136 C278.069361,87.8928124 283.516681,84 289.502619,84 C291.253559,84 292.980132,84.3290822 294.634462,84.9775157 C298.254324,86.3964615 301.123539,89.189237 302.71332,92.8409878 C304.303529,96.493181 304.42365,100.567342 303.051881,104.312864 Z" id="Path" stroke="#B8BBC4" fill-rule="nonzero"></path>
            <circle id="Oval" stroke="#B8BBC4" cx="321.5" cy="121.5" r="1.5"></circle>
            <circle id="Oval" stroke="#B8BBC4" cx="317.5" cy="121.5" r="1.5"></circle>
            <g id="Group-3" transform="translate(361.000000, 170.000000)" fill-rule="nonzero">
                <polygon id="Path" fill="#3A9FFE" points="0 73.0895522 20.8857143 73.0895522 20.8857143 83 0 83"></polygon>
                <polygon id="Path" fill="#3497E8" points="0 64.4179104 20.8857143 64.4179104 20.8857143 69.3731343 0 69.3731343"></polygon>
                <polygon id="Path" fill="#3A9FFE" points="0 0 20.8857143 0 20.8857143 9.91044776 0 9.91044776"></polygon>
                <polygon id="Path" fill="#3497E8" points="0 13.6268657 20.8857143 13.6268657 20.8857143 18.5820896 0 18.5820896"></polygon>
                <polygon id="Path" fill="#3A9FFE" points="0 21.0597015 20.8857143 21.0597015 20.8857143 61.9402985 0 61.9402985"></polygon>
                <path d="M44.2285714,0 L23.3428571,0 L23.3428571,83 L44.2285714,83 L44.2285714,0 Z M40.5428571,78.0447761 L27.0285714,78.0447761 L27.0285714,74.3283582 L40.5428571,74.3283582 L40.5428571,78.0447761 Z M40.5428571,70.6119403 L27.0285714,70.6119403 L27.0285714,66.8955224 L40.5428571,66.8955224 L40.5428571,70.6119403 Z M40.5428571,64.4179104 L27.0285714,64.4179104 L27.0285714,60.7014925 L40.5428571,60.7014925 L40.5428571,64.4179104 Z M40.5428571,22.2985075 L27.0285714,22.2985075 L27.0285714,18.5820896 L40.5428571,18.5820896 L40.5428571,22.2985075 Z M40.5428571,16.1044776 L27.0285714,16.1044776 L27.0285714,12.3880597 L40.5428571,12.3880597 L40.5428571,16.1044776 Z M40.5428571,8.67164179 L27.0285714,8.67164179 L27.0285714,4.95522388 L40.5428571,4.95522388 L40.5428571,8.67164179 Z" id="Shape" fill="#3497E8"></path>
                <path d="M86,78.5427441 L67.1382235,8.67164179 L50.3714286,13.1288976 L69.233205,83 L86,78.5427441 Z M82.3142857,77.7621791 L72.1636956,80.5223881 L71.2571429,77.0885672 L81.407733,74.3283582 L82.3142857,77.7621791 Z M79.8571429,69.7122537 L76.5873349,70.6119403 L63.8857143,21.9593881 L67.1572156,21.0597015 L79.8571429,69.7122537 Z M55.2857143,17.624895 L65.4379113,14.8656716 L66.3428571,18.2987002 L56.1906601,21.0597015 L55.2857143,17.624895 Z M59.775627,22.2985075 L72.4857143,70.9510281 L69.214213,71.8507463 L56.5142857,23.1964887 L59.775627,22.2985075 Z" id="Shape" fill="#3A9FFE"></path>
            </g>
            <g id="Group-2" transform="translate(15.000000, 199.000000)">
                <g id="Group-4" transform="translate(0.000000, 0.589286)">
                    <g id="Group-6">
                        <path d="M3.55874683,53.0357143 L76.4421796,53.0357143 C78.4073194,53.0357143 80,51.4164545 80,49.4196812 C80,47.4219666 78.4073194,45.8027068 76.4421796,45.8027068 L73.4532398,45.8027068 L73.4532398,42.063346 C73.4532398,30.4065582 67.6532516,20.1035469 58.8337484,13.9738952 L58.8337484,29.2335364 C58.8337484,31.231251 57.2410678,32.8505109 55.275928,32.8505109 C53.3117147,32.8505109 51.7181076,31.231251 51.7181076,29.2335364 L51.7181076,11.6739813 C51.7181076,11.1929107 51.8126121,10.7334928 51.9812381,10.3136149 C49.3193582,9.27239324 46.4953383,8.56726214 43.5582836,8.25 L43.5582836,33.6695552 C43.5582836,35.6672698 41.9646766,37.2865297 40.0004632,37.2865297 C38.0353234,37.2865297 36.4426429,35.6672698 36.4426429,33.6695552 L36.4426429,8.25 C33.5055881,8.56632052 30.6824947,9.27239324 28.0215415,10.3126735 C28.1892408,10.7334928 28.2837453,11.1919691 28.2837453,11.6739813 L28.2837453,29.2335364 C28.2837453,31.231251 26.6910649,32.8505109 24.7259249,32.8505109 C22.7607851,32.8505109 21.1681045,31.231251 21.1681045,29.2335364 L21.1681045,13.9720125 C12.3476749,20.1016639 6.54675998,30.4065582 6.54675998,42.063346 L6.54675998,45.8027068 L3.55782037,45.8027068 C1.59360704,45.8027068 0,47.4219666 0,49.4196812 C0,51.4164545 1.59360704,53.0357143 3.55874683,53.0357143 Z" id="Path" fill="#3A9FFE" fill-rule="nonzero"></path>
                        <rect id="Rectangle" fill="#248FE7" x="19.6923077" y="7.00595238" width="9.84615385" height="31.1011905" rx="4"></rect>
                        <rect id="Rectangle" fill="#248FE7" x="51.6923077" y="7.00595238" width="9.84615385" height="31.1011905" rx="4"></rect>
                        <rect id="Rectangle" fill="#248FE7" x="34.4615385" y="0.785714286" width="11.0769231" height="44.7857143" rx="4"></rect>
                    </g>
                </g>
            </g>
        </g>
    </g>
</svg>