<?xml version="1.0" encoding="UTF-8"?>
<svg width="182px" height="323px" viewBox="0 0 182 323" version="1.1" xmlns="http://www.w3.org/2000/svg" xmlns:xlink="http://www.w3.org/1999/xlink">
    <!-- Generator: Sketch 57.1 (83088) - https://sketch.com -->
    <title>Designer Mobile Copy 2</title>
    <desc>Created with Sketch.</desc>
    <defs>
        <path d="M72.5,137.032258 C108.696743,137.032258 138.04,107.656361 138.04,71.4193548 C138.04,35.182349 108.696743,5.80645161 72.5,5.80645161 C36.3032575,5.80645161 6.96,35.182349 6.96,71.4193548 C6.96,92.8225788 17.1967502,111.832222 33.0361471,123.809027 C44.0138464,132.109706 57.6827001,137.032258 72.5,137.032258 Z" id="path-1"></path>
        <ellipse id="path-3" cx="72.5" cy="72" rx="72.5" ry="72"></ellipse>
    </defs>
    <g id="Designer-Mobile-Copy-2" stroke="none" stroke-width="1" fill="none" fill-rule="evenodd">
        <g id="Group-19" transform="translate(16.000000, 78.000000)">
            <circle id="Oval-Copy-5" fill="#E9EBF2" cx="40" cy="163" r="4"></circle>
            <circle id="Oval-Copy-6" fill="#E9EBF2" cx="20.5" cy="153.5" r="7.5"></circle>
            <polygon id="Rectangle-Copy-10" fill="#FFFFFF" points="25 36.7164154 29.6731651 31 40 39.2835846 35.3268349 45"></polygon>
            <polygon id="Rectangle" fill="#FFFFFF" points="46 127.161977 63.1902195 123 67 137.838023 49.8097805 142"></polygon>
            <circle id="Oval" fill="#E9EBF2" cx="56.5" cy="91.5" r="3.5"></circle>
            <g id="Group-7" transform="translate(67.000000, 92.000000)" stroke="#B8BBC4">
                <ellipse id="Oval" cx="7.74704724" cy="2.09283088" rx="1.779149" ry="1.86121324"></ellipse>
                <ellipse id="Oval" cx="1.81655058" cy="2.09283088" rx="1.779149" ry="1.86121324"></ellipse>
            </g>
            <g id="Group-2" transform="translate(0.000000, 15.000000)">
                <mask id="mask-2" fill="white">
                    <use xlink:href="#path-1"></use>
                </mask>
                <use id="Mask" stroke="#D1D1D1" stroke-width="0.75" xlink:href="#path-1"></use>
                <ellipse id="Oval" stroke="#3498DB" stroke-width="2" cx="72.5" cy="72" rx="50.46" ry="51.0967742"></ellipse>
                <mask id="mask-4" fill="white">
                    <use xlink:href="#path-3"></use>
                </mask>
                <use id="Mask" stroke="#EBEBEB" stroke-width="0.75" xlink:href="#path-3"></use>
            </g>
            <path d="M88.5267079,110.267783 L86.1492656,104.900351 C88.4156911,103.208483 90.3622921,101.103735 91.883262,98.7014537 L97.2966323,100.787452 C98.3318537,101.186474 99.4885122,100.656211 99.8804776,99.6038377 L101.869962,94.2633059 C102.05833,93.7579056 102.041497,93.1970744 101.823071,92.7043091 C101.604644,92.2115439 101.20306,91.8271951 100.705689,91.6356321 L95.2923186,89.5496334 C95.7187512,86.7250981 95.6321822,83.8377954 95.0370201,81.0430135 L100.314926,78.6252439 C100.799472,78.4031124 101.17741,77.9947163 101.365778,77.4889085 C101.554146,76.9835083 101.537313,76.422677 101.318886,75.9299118 L99.0123825,70.7230665 C98.557895,69.6967779 97.370777,69.2402873 96.3624081,69.7020764 L91.0845023,72.119846 C89.4208538,69.8149763 87.3512126,67.8353562 84.989,66.2885868 L87.0402053,60.7833923 C87.4321706,59.7310186 86.9111533,58.5543327 85.8763327,58.1557186 L80.6252793,56.1320797 C80.1287097,55.9409243 79.5772329,55.9576351 79.0922859,56.1797667 C78.6077398,56.4018982 78.2298018,56.8102942 78.041434,57.3161021 L75.9906296,62.820889 C73.2104008,62.3847775 70.3664476,62.4748529 67.6254956,63.0801104 L65.2484541,57.7130858 C65.0300276,57.2203206 64.6284434,56.8359718 64.1310723,56.6444088 C63.6345026,56.4532534 63.082625,56.4699642 62.5980789,56.6920958 L57.4776807,59.0377236 C56.4685101,59.4999203 56.0192329,60.7063596 56.4737203,61.7326481 L58.8511626,67.1000803 C56.5847371,68.7919484 54.6381361,70.8966959 53.1171662,73.2989774 L47.7037959,71.2129786 C47.2072263,71.0218232 46.6557495,71.0389416 46.1708025,71.2606656 C45.6862564,71.4827972 45.3083184,71.8911932 45.1199506,72.397001 L43.1304659,77.7371253 C42.7385005,78.789499 43.2595179,79.9661849 44.2943385,80.364799 L49.7077088,82.4507977 C49.2812761,85.2749254 49.3678452,88.1630433 49.9630073,90.9574176 L44.6847007,93.3751872 C44.2001546,93.5973187 43.8222166,94.0057148 43.6338488,94.5115226 C43.445481,95.0169228 43.4623139,95.5777541 43.6807404,96.0705193 L45.9872441,101.277365 C46.2052698,101.77013 46.6072548,102.154479 47.1042252,102.346042 C47.6015963,102.537605 48.1526724,102.520894 48.6372185,102.298355 L53.9151243,99.8805851 C55.5787728,102.185862 57.6480133,104.165075 60.0106266,105.711844 L57.9594213,111.217039 C57.567456,112.269413 58.0884733,113.446098 59.1232939,113.844712 L64.3747481,115.867944 C64.6035949,115.955981 64.8444653,116 65.084534,116 C65.3654826,116 65.6464312,115.940086 65.9077414,115.820257 C66.3922876,115.598125 66.7702255,115.189729 66.9585934,114.683921 L69.0093978,109.179135 C71.7896266,109.614838 74.6339805,109.525171 77.3745318,108.919913 L79.7515733,114.286938 C79.9699998,114.779703 80.3715839,115.164052 80.8689551,115.355615 C81.3659255,115.547178 81.9178031,115.530467 82.4019485,115.307928 L87.5219459,112.962708 C88.5315173,112.500511 88.9811953,111.294072 88.5267079,110.267783 Z" id="Path-5" stroke="#E9EBF1" stroke-width="1.5" fill="#FFFFFF" fill-rule="nonzero"></path>
            <path d="M88.9502102,111.248931 L86.4921766,105.702585 C88.8354301,103.954321 90.8480176,101.779415 92.4205458,99.2970577 L98.0174201,101.45259 C99.0877338,101.864912 100.283601,101.316974 100.688853,100.229521 L102.745778,94.7109716 C102.940531,94.1887247 102.923128,93.6091991 102.697297,93.1000083 C102.471466,92.5908176 102.056269,92.1936572 101.542038,91.9957088 L95.9451636,89.8401767 C96.3860516,86.9214902 96.296548,83.9379441 95.6812109,81.0500028 L101.138029,78.5516409 C101.639,78.322105 102.02975,77.9000958 102.224503,77.3774277 C102.419256,76.8551808 102.401852,76.2756551 102.176022,75.7664644 L99.7913314,70.3860576 C99.3214376,69.3255594 98.0940783,68.8538525 97.0515273,69.3310345 L91.5947095,71.8293964 C89.8746661,69.4476978 87.7348676,67.4020902 85.29258,65.803762 L87.4133177,60.115061 C87.81857,59.0276081 87.279891,57.8116993 86.2099917,57.3997981 L80.7809366,55.3087046 C80.2675341,55.1111773 79.6973631,55.1284452 79.1959773,55.3579811 C78.6950059,55.5875171 78.3042565,56.0095263 78.1095033,56.5321944 L75.9891801,62.2204742 C73.1147063,61.7698256 70.1743479,61.8629035 67.3404822,62.4883363 L64.882863,56.9424109 C64.6570322,56.4332202 64.2418351,56.0360598 63.7276039,55.8381114 C63.2142014,55.6405841 62.643616,55.6578519 62.1426446,55.8873879 L56.8486736,58.3112032 C55.8052939,58.7888065 55.3407868,60.0354604 55.8106806,61.0959586 L58.2687142,66.6423052 C55.9254607,68.3905689 53.9128732,70.5654746 52.340345,73.0478322 L46.7434707,70.8923001 C46.2300682,70.6947729 45.6598972,70.7124619 45.1585114,70.9415767 C44.65754,71.1711126 44.2667906,71.5931218 44.0720374,72.1157899 L42.0151125,77.6339183 C41.6098602,78.7213712 42.1485392,79.93728 43.2184384,80.3491812 L48.8153128,82.5047132 C48.3744248,85.4229785 48.4639284,88.407367 49.0792655,91.2948871 L43.6220333,93.793249 C43.1210619,94.0227849 42.7303124,94.4447941 42.5355593,94.9674622 C42.3408061,95.4897092 42.3582096,96.0692348 42.5840404,96.5784255 L44.9687307,101.958832 C45.1941471,102.468023 45.6097586,102.865183 46.1235755,103.063132 C46.6378067,103.26108 47.2075633,103.243812 47.7085347,103.013855 L53.1653526,100.515493 C54.8853959,102.897613 57.0247801,104.9428 59.467482,106.541128 L57.3467444,112.229829 C56.9414921,113.317282 57.480171,114.533191 58.5500703,114.945092 L63.9795399,117.035764 C64.2161442,117.126736 64.4651797,117.172222 64.7133864,117.172222 C65.0038586,117.172222 65.2943309,117.110311 65.5644991,116.986488 C66.0654705,116.756952 66.45622,116.334942 66.6509731,115.812274 L68.7712964,110.123995 C71.6457702,110.574222 74.5865429,110.481565 77.4199942,109.856132 L79.8776134,115.402058 C80.1034442,115.911249 80.5186414,116.308409 81.0328726,116.506357 C81.5466894,116.704306 82.1172748,116.687038 82.6178318,116.457081 L87.9113885,114.033687 C88.9551826,113.556083 89.420104,112.309429 88.9502102,111.248931 Z" id="Path-5" stroke="#3498DB" stroke-width="1.5" fill="#FFFFFF" fill-rule="nonzero"></path>
            <path d="M87.0191872,91.312864 C84.8244693,97.1071876 79.1893111,101 72.9969608,101 C71.1856441,101 69.3995338,100.670918 67.6881579,100.022484 C63.943473,98.6035385 60.9753194,95.810763 59.3307181,92.1585698 C57.6861169,88.506819 57.5618542,84.4326576 58.9804831,80.687136 C61.175201,74.8928124 66.8103592,71 73.0027096,71 C74.8140262,71 76.6001366,71.3290822 78.3115124,71.9775157 C82.0561973,73.3964615 85.024351,76.189237 86.6689522,79.8409878 C88.3139956,83.493181 88.4382583,87.5673424 87.0191872,91.312864 Z" id="Path" stroke="#3498DB" stroke-width="1.5" fill-rule="nonzero"></path>
            <polyline id="Shape" fill="#FFFFFF" transform="translate(71.500000, 24.000000) rotate(90.000000) translate(-71.500000, -24.000000) " points="64 22.7164154 68.6731651 17 79 25.2835846 74.3268349 31"></polyline>
            <polygon id="Rectangle-Copy-12" fill="#FFFFFF" points="22 57.7164154 26.6731651 52 37 60.2835846 32.3268349 66"></polygon>
            <polygon id="Rectangle-Copy-13" fill="#FFFFFF" points="104 147.716415 108.673165 142 119 150.283585 114.326835 156"></polygon>
            <g id="Group-15" transform="translate(118.385583, 29.069927) rotate(2.000000) translate(-118.385583, -29.069927) translate(87.385583, 1.569927)">
                <path d="M35.018059,11.4766574 C35.1036781,11.4381361 35.2010434,11.4352382 35.2887146,11.4683877 L35.2887146,11.4683877 L36.2158073,11.8193198 C36.3985087,11.8884461 36.4904962,12.0925027 36.4212933,12.2750016 L36.4212933,12.2750016 L36.0591455,13.2296926 C36.4762028,13.4979278 36.8416055,13.8412264 37.1353288,14.2409286 L37.1353288,14.2409286 L38.0671624,13.8216477 C38.2451937,13.7415659 38.4547837,13.8207289 38.5350252,13.9987042 L38.5350252,13.9987042 L38.9422469,14.9016566 C38.9808109,14.9871101 38.9837828,15.0843675 38.9505257,15.1720122 C38.9172687,15.2597275 38.8505424,15.3305501 38.764994,15.3690714 L38.764994,15.3690714 L37.8331603,15.7883523 C37.9382384,16.2730133 37.9535225,16.773719 37.8782342,17.2635397 L37.8782342,17.2635397 L38.8339846,17.6252862 C38.9217973,17.6585063 38.9926985,17.7251587 39.0312625,17.8106123 C39.0698265,17.8960659 39.0727984,17.9933232 39.0395414,18.0809679 L39.0395414,18.0809679 L38.6882905,19.0071037 C38.6190876,19.1896026 38.4148753,19.2815589 38.2321032,19.212362 L38.2321032,19.212362 L37.2763527,18.8506155 C37.0078199,19.2672106 36.6641404,19.6322083 36.2639946,19.925606 L36.2639946,19.925606 L36.6837408,20.8564068 C36.7639822,21.0343821 36.6845899,21.2435985 36.5063464,21.3237509 L36.5063464,21.3237509 L35.602392,21.7304506 C35.5169144,21.7690425 35.4194784,21.7719405 35.3317364,21.7387203 C35.2439237,21.7055001 35.1730226,21.6388478 35.1344586,21.5533942 L35.1344586,21.5533942 L34.7147832,20.6226641 C34.2309288,20.7276257 33.7287476,20.7431755 33.237888,20.6676173 L33.237888,20.6676173 L32.875811,21.6222377 C32.8425539,21.7099531 32.7758276,21.7807756 32.6902792,21.8192969 C32.6441439,21.8400772 32.5945414,21.8504673 32.5449389,21.8504673 C32.5025539,21.8504673 32.4600274,21.8428337 32.4196236,21.8275666 L32.4196236,21.8275666 L31.4924601,21.4767051 C31.3097587,21.4075789 31.2177712,21.2035222 31.2869741,21.0210233 L31.2869741,21.0210233 L31.6491219,20.0663323 C31.2319939,19.7980971 30.8666619,19.4548692 30.5729386,19.0550963 L30.5729386,19.0550963 L29.641105,19.4743772 C29.5555566,19.5129691 29.4582621,19.5158671 29.3704494,19.4826469 C29.2827074,19.4494267 29.2117355,19.3827743 29.1732423,19.2973208 L29.1732423,19.2973208 L28.7660205,18.3943684 C28.7274565,18.3089148 28.7244846,18.2116574 28.7577417,18.1240127 C28.7909987,18.0362974 28.857725,17.9654748 28.9432734,17.9269535 L28.9432734,17.9269535 L29.8751778,17.5076726 C29.7700998,17.0230823 29.7548157,16.5222353 29.830104,16.0324852 L29.830104,16.0324852 L28.8743535,15.6707388 C28.6916522,15.6016125 28.5996646,15.3975559 28.6688676,15.215057 L28.6688676,15.215057 L29.0201184,14.2889919 C29.0533754,14.2012765 29.1201018,14.1304539 29.2056502,14.0919327 C29.2912693,14.0534821 29.3886346,14.0505135 29.4763058,14.083663 L29.4763058,14.083663 L30.4320562,14.4454094 C30.700589,14.0288143 31.0442686,13.6638166 31.4444143,13.3704189 L31.4444143,13.3704189 L31.0246681,12.4396181 C30.9444267,12.2616428 31.0237483,12.0524265 31.201921,11.972274 L31.201921,11.972274 L32.1059461,11.5655036 C32.1914945,11.5269824 32.2889306,11.5240844 32.3766017,11.5572339 C32.4644144,11.5904541 32.5353156,11.6571065 32.5738796,11.7425601 L32.5738796,11.7425601 L32.993555,12.6732902 C33.4774802,12.5683286 33.9795905,12.552708 34.4704501,12.6283369 L34.4704501,12.6283369 L34.8325272,11.6737166 C34.8657842,11.5860012 34.9325106,11.5151786 35.018059,11.4766574 Z M33.8546057,14.2201454 C32.8512156,14.2201454 31.9381113,14.8502177 31.5824857,15.7880598 C31.3526153,16.3942924 31.3727504,17.0537171 31.6392367,17.6447723 C31.905723,18.2358992 32.3866739,18.6879248 32.9934515,18.9175887 C33.2707578,19.0225411 33.5601738,19.0758048 33.8536742,19.0758048 C34.8570643,19.0758048 35.7701686,18.4457324 36.1257942,17.5078903 C36.3557363,16.9016578 36.3356011,16.2422331 36.0690432,15.6511062 C35.8025569,15.060051 35.321606,14.6080254 34.7148284,14.3783615 C34.4375221,14.2734091 34.1481061,14.2201454 33.8546057,14.2201454 Z" id="asset-type-copy" stroke="#DCDCDC" stroke-width="0.75" fill="#FFFFFF" fill-rule="nonzero"></path>
                <path d="M61.2483724,3.53021612 C61.1995443,3.36633762 61.0686849,3.2385514 60.9026693,3.19465537 C60.7347005,3.14880841 60.5589193,3.19758178 60.436849,3.31756425 L57.8821615,5.81183411 L56.0130208,5.43823014 L55.6409505,3.57801402 L58.2239583,1.05643107 C58.3470052,0.936448598 58.3977865,0.760864486 58.3577474,0.594059579 C58.3177083,0.427254673 58.1936849,0.293615654 58.0296224,0.241915888 C57.5110677,0.0799883178 57.0354818,0 56.5755208,0 C53.883138,0 51.6927083,2.18797313 51.6927083,4.87733645 C51.6927083,5.19241238 51.7298177,5.51139019 51.8079427,5.86255841 C51.2591146,6.31419977 50.7376302,6.70341121 50.1468099,7.14432243 C49.3020833,7.7744743 48.3450521,8.48754089 47.039388,9.58884346 C46.2727865,10.258014 45.8333333,11.2071437 45.8333333,12.1933411 C45.8333333,14.075993 47.3665365,15.6074766 49.2513021,15.6074766 C50.2483724,15.6074766 51.1975911,15.1626636 51.8509115,14.3881425 C52.9729818,13.0741881 53.6975911,12.1094509 54.3352865,11.257868 C54.7669271,10.6813668 55.1477865,10.1741238 55.5882161,9.63859229 C55.9397786,9.71760514 56.2600911,9.7546729 56.5755208,9.7546729 C59.2679036,9.7546729 61.4583333,7.56669977 61.4583333,4.87733645 C61.4583333,4.45105724 61.3919271,4.02380257 61.2483724,3.53021612 Z M49.5949074,13.2952579 C49.1148727,13.2952579 48.7268519,12.9076722 48.7268519,12.4281758 C48.7268519,11.9486795 49.1148727,11.5610938 49.5949074,11.5610938 C50.0749421,11.5610938 50.462963,11.9486795 50.462963,12.4281758 C50.462963,12.9076722 50.0749421,13.2952579 49.5949074,13.2952579 Z" id="Shape" stroke="#E9EBF1" fill="#FFFFFF" fill-rule="nonzero"></path>
                <path d="M61.2483724,4.05046534 C61.1995443,3.88658684 61.0686849,3.75880062 60.9026693,3.7149046 C60.7347005,3.66905763 60.5589193,3.717831 60.436849,3.83781347 L57.8821615,6.33208333 L56.0130208,5.95847936 L55.6409505,4.09826324 L58.2239583,1.5766803 C58.3470052,1.45669782 58.3977865,1.28111371 58.3577474,1.1143088 C58.3177083,0.947503894 58.1936849,0.813864875 58.0296224,0.762165109 C57.5110677,0.600237539 57.0354818,0.520249221 56.5755208,0.520249221 C53.883138,0.520249221 51.6927083,2.70822235 51.6927083,5.39758567 C51.6927083,5.7126616 51.7298177,6.03163941 51.8079427,6.38280763 C51.2591146,6.83444899 50.7376302,7.22366044 50.1468099,7.66457165 C49.3020833,8.29472352 48.3450521,9.00779011 47.039388,10.1090927 C46.2727865,10.7782632 45.8333333,11.7273929 45.8333333,12.7135903 C45.8333333,14.5962422 47.3665365,16.1277259 49.2513021,16.1277259 C50.2483724,16.1277259 51.1975911,15.6829128 51.8509115,14.9083917 C52.9729818,13.5944373 53.6975911,12.6297002 54.3352865,11.7781172 C54.7669271,11.201616 55.1477865,10.6943731 55.5882161,10.1588415 C55.9397786,10.2378544 56.2600911,10.2749221 56.5755208,10.2749221 C59.2679036,10.2749221 61.4583333,8.08694899 61.4583333,5.39758567 C61.4583333,4.97130646 61.3919271,4.54405179 61.2483724,4.05046534 Z M49.5949074,13.8155071 C49.1148727,13.8155071 48.7268519,13.4279214 48.7268519,12.9484251 C48.7268519,12.4689287 49.1148727,12.081343 49.5949074,12.081343 C50.0749421,12.081343 50.462963,12.4689287 50.462963,12.9484251 C50.462963,13.4279214 50.0749421,13.8155071 49.5949074,13.8155071 Z" id="Shape" stroke="#B8BBC4" stroke-width="0.75" fill-rule="nonzero"></path>
                <g id="comp-2" transform="translate(-0.000000, 22.370717)">
                    <g id="comp" transform="translate(-0.000000, 0.000000)">
                        <path d="M17.1618852,23.8111583 C21.3255586,23.8111583 24.7428279,20.3395775 24.7428279,16.2183697 C24.7428279,11.9552728 21.3089778,8.50104786 17.1618852,8.50104786 C12.9812378,8.50104786 9.58094262,11.9895862 9.58094262,16.2183697 C9.58094262,20.3742429 13.0317518,23.8111583 17.1618852,23.8111583 Z" id="Path" stroke="#E9EBF1" stroke-width="2" fill="#FFFFFF" fill-rule="nonzero"></path>
                        <path d="M34.4297904,15.5474587 L34.4177012,15.5271414 L26.2307693,0.723778593 C26.0828866,0.49218414 25.8904745,0.375 25.6469377,0.375 L9.24889565,0.375 C9.00535884,0.375 8.81294668,0.49218414 8.67715318,0.703461337 L0.466042979,15.5474587 C0.34465234,15.7375648 0.34465234,15.9976377 0.478132165,16.208061 L8.66506399,31.0114239 C8.81294668,31.2430184 9.00535884,31.3602025 9.24889565,31.3602025 L25.6469377,31.3602025 C25.8904745,31.3602025 26.0828866,31.2430184 26.2186802,31.0317412 L34.4297904,16.1877438 C34.551181,15.9976377 34.551181,15.7375648 34.4297904,15.5474587 Z" id="Path-Copy" stroke="#B8BBC4" stroke-width="0.75" fill="#FFFFFF" fill-rule="nonzero"></path>
                        <path d="M17.2421387,24.2715035 C21.7532152,24.2715035 25.4480813,20.5179139 25.4480813,16.0537148 C25.4480813,11.446265 21.7352395,7.71139303 17.2421387,7.71139303 C12.7126787,7.71139303 9.03619604,11.4832864 9.03619604,16.0537148 C9.03619604,20.5553317 12.7673904,24.2715035 17.2421387,24.2715035 Z" id="Path" stroke="#B8BBC4" stroke-width="0.75" fill-rule="nonzero"></path>
                        <circle id="Oval" stroke="#B8BBC4" stroke-width="0.75" fill="#FFFFFF" transform="translate(17.403136, 16.105320) scale(-1, -1) translate(-17.403136, -16.105320) " cx="17.4031358" cy="16.1053203" r="5"></circle>
                    </g>
                </g>
                <g id="Group-17" transform="translate(39.062500, 21.850467)" fill-rule="nonzero">
                    <path d="M14.0298021,17.3548509 L13.2971543,15.6383447 C13.9955905,15.0972849 14.5954675,14.4241861 15.0641793,13.6559358 L16.7323982,14.3230388 C17.0514187,14.450646 17.407862,14.2810679 17.5286526,13.9445185 L18.1417449,12.236615 C18.1997936,12.0749879 18.1946062,11.8956339 18.1272945,11.7380475 C18.0599828,11.580461 17.9362281,11.4575462 17.782955,11.3962843 L16.1147361,10.7291814 C16.2461483,9.82589425 16.2194706,8.9025341 16.0360617,8.00876214 L17.6625349,7.23555881 C17.8118558,7.16452108 17.9283236,7.03391593 17.9863722,6.87215846 C18.0444208,6.71053133 18.0392335,6.53117735 17.9719218,6.3735909 L17.2611348,4.70844043 C17.1210771,4.38023308 16.7552472,4.23424729 16.4445017,4.38192756 L14.8180284,5.15513089 C14.3053479,4.41803297 13.6675539,3.78494993 12.9395994,3.29029271 L13.5717119,1.5297301 C13.6925025,1.1931807 13.5319425,0.816876249 13.2130455,0.689399368 L11.5948472,0.0422391267 C11.4418212,-0.0188924248 11.2718745,-0.0135483019 11.1224302,0.0574894285 C10.9731093,0.128527159 10.8566416,0.259132307 10.7985929,0.420889781 L10.1666039,2.18132205 C9.30983076,2.04185348 8.43341992,2.0706596 7.58875056,2.26422113 L6.85622622,0.547845285 C6.78891451,0.390258833 6.66515977,0.267344008 6.51188668,0.206082112 C6.3588606,0.144950561 6.18879046,0.150294684 6.03946961,0.221332414 L4.46153487,0.971464778 C4.15054241,1.11927539 4.01209025,1.50509499 4.15214801,1.83330234 L4.88479586,3.54980853 C4.18635965,4.09086838 3.58648262,4.76396717 3.11777079,5.53221741 L1.4495519,4.86511447 C1.29652582,4.80398292 1.12657919,4.80945739 0.977134834,4.88036477 C0.82781399,4.9514025 0.711346202,5.08200765 0.653297569,5.24376512 L0.0402052046,6.95153823 C-0.080585354,7.28808763 0.0799746932,7.66439208 0.398871648,7.79186896 L2.06709054,8.4589719 C1.93567832,9.36212866 1.96235598,10.2857495 2.14576496,11.1793911 L0.519168176,11.9525945 C0.369847332,12.0236322 0.253379544,12.1542373 0.195330912,12.3159948 C0.137282279,12.4776219 0.142469604,12.6569759 0.209781316,12.8145624 L0.920568294,14.4797128 C0.987756498,14.6372993 1.11163475,14.7602141 1.26478433,14.821476 C1.41805742,14.8827379 1.58788055,14.8773938 1.7372014,14.8062257 L3.36367467,14.0330224 C3.87635525,14.7702506 4.51402566,15.4032033 5.24210372,15.8978605 L4.60999116,17.6584232 C4.4892006,17.9949726 4.64976065,18.371277 4.96865761,18.4987539 L6.58697937,19.1457838 C6.65750229,19.1739382 6.73173043,19.1880154 6.80571156,19.1880154 C6.89229048,19.1880154 6.9788694,19.1688548 7.05939644,19.1305335 C7.20871728,19.0594958 7.32518507,18.9288906 7.3832337,18.7671331 L8.01522275,17.0067009 C8.87199586,17.1460391 9.74853021,17.1173633 10.5930761,16.9238018 L11.3256004,18.6401776 C11.3929121,18.7977641 11.5166669,18.9206789 11.6699399,18.9819408 C11.8230895,19.0432027 11.9931597,19.0378586 12.142357,18.9666905 L13.7201682,18.2166885 C14.0312842,18.0688779 14.1698599,17.6830583 14.0298021,17.3548509 Z" id="Path-5" stroke="#E9EBF1" stroke-width="1.5" fill="#FFFFFF"></path>
                    <path d="M14.4682334,17.9363059 L13.7126903,16.2197997 C14.4329527,15.6787399 15.0515759,15.0056411 15.5349349,14.2373909 L17.2552857,14.9044938 C17.5842755,15.032101 17.9518577,14.8625229 18.076423,14.5259735 L18.7086745,12.81807 C18.7685371,12.6564429 18.7631877,12.4770889 18.6937725,12.3195025 C18.6243573,12.161916 18.4967352,12.0390012 18.3386723,11.9777393 L16.6183216,11.3106364 C16.7538404,10.4073493 16.7263291,9.48398911 16.5371886,8.59021715 L18.2144892,7.81701382 C18.3684763,7.74597609 18.4885837,7.61537094 18.5484463,7.45361347 C18.608309,7.29198634 18.6029596,7.11263236 18.5335444,6.95504591 L17.8005453,5.28989544 C17.6561107,4.96168809 17.2788486,4.8157023 16.9583924,4.96338257 L15.2810918,5.7365859 C14.75239,4.99948799 14.094665,4.36640495 13.3439619,3.87174772 L13.9958279,2.11118511 C14.1203932,1.77463572 13.9548157,1.39833126 13.6259532,1.27085438 L11.9571862,0.623694139 C11.7993781,0.562562587 11.6241206,0.56790671 11.4700061,0.63894444 C11.316019,0.709982171 11.1959116,0.840587319 11.1360489,1.00234479 L10.4843102,2.76277706 C9.60076297,2.62330849 8.69696429,2.65211462 7.82589902,2.84567614 L7.07048329,1.1293003 C7.00106809,0.971713845 6.87344601,0.84879902 6.71538313,0.787537124 C6.55757499,0.726405573 6.38219016,0.731749695 6.22820304,0.802787426 L4.60095784,1.55291979 C4.28024686,1.70073041 4.13746807,2.08655001 4.28190264,2.41475736 L5.03744573,4.13126354 C4.31718339,4.67232339 3.6985602,5.34542218 3.21520112,6.11367242 L1.49485039,5.44656948 C1.33704225,5.38543793 1.16178478,5.3909124 1.0076703,5.46181978 C0.853683177,5.53285751 0.733575771,5.66346266 0.673713118,5.82522014 L0.0414616173,7.53299324 C-0.0831036463,7.86954264 0.0824739024,8.24584709 0.411336387,8.37332397 L2.13168712,9.04042692 C1.99616826,9.94358368 2.02367961,10.8672045 2.21282012,11.7608461 L0.535392182,12.5340495 C0.381405061,12.6050872 0.261297655,12.7356923 0.201435003,12.8974498 C0.141572351,13.0590769 0.146921779,13.2384309 0.216336982,13.3960174 L0.949336053,15.0611678 C1.01862389,15.2187543 1.14637334,15.3416691 1.30430884,15.402931 C1.46237172,15.4641929 1.63750182,15.4588488 1.79148894,15.3876807 L3.46878951,14.6144774 C3.99749136,15.3517056 4.65508896,15.9846583 5.40591946,16.4793156 L4.75405339,18.2398782 C4.62948812,18.5764276 4.79506567,18.952732 5.12392816,19.0802089 L6.79282248,19.7272388 C6.86554923,19.7553932 6.94209701,19.7694704 7.01839005,19.7694704 C7.10767456,19.7694704 7.19695907,19.7503098 7.28000257,19.7119885 C7.43398969,19.6409508 7.5540971,19.5103456 7.61395975,19.3485881 L8.26569846,17.5881559 C9.14924573,17.7274941 10.0531718,17.6988183 10.9241097,17.5052568 L11.6795254,19.2216326 C11.7489406,19.3792191 11.8765627,19.5021339 12.0346256,19.5633958 C12.1925611,19.6246577 12.3679459,19.6193136 12.5218057,19.5481455 L14.1489235,18.7981435 C14.4697618,18.6503329 14.612668,18.2645133 14.4682334,17.9363059 Z" id="Path-5" stroke="#B8BBC4" stroke-width="0.75"></path>
                    <path d="M13.3577236,11.0120547 C12.7342242,12.8089286 11.133327,14.0161261 9.37413658,14.0161261 C8.85955799,14.0161261 8.35214028,13.9140746 7.86595396,13.7129893 C6.80212302,13.272961 5.95889755,12.4068952 5.49168129,11.274316 C5.02446503,10.141874 4.98916313,8.87843846 5.3921827,7.71691724 C6.0156821,5.92004336 7.61657932,4.71284589 9.37576976,4.71284589 C9.89034836,4.71284589 10.3977661,4.81489735 10.8839524,5.01598262 C11.9477833,5.45601097 12.7910088,6.32207675 13.2582251,7.45451879 C13.7255669,8.58709799 13.7608688,9.85053351 13.3577236,11.0120547 Z" id="Path" stroke="#E9EBF1" stroke-width="1.5" fill="#FFFFFF"></path>
                    <path d="M13.678327,11.7417369 C13.0305804,13.4499493 11.3674261,14.5975811 9.5398227,14.5975811 C9.00523272,14.5975811 8.47808209,14.5005651 7.97298853,14.3094018 C6.86778639,13.8910853 5.99176882,13.0677531 5.50638304,11.9910577 C5.02099726,10.9144927 4.98432251,9.71339779 5.40301505,8.60918848 C6.05076166,6.90097614 7.71391599,5.75334433 9.5415194,5.75334433 C10.0761094,5.75334433 10.60326,5.85036036 11.1083536,6.04152366 C12.2135557,6.45984009 13.0895733,7.28317235 13.5749591,8.35973732 C14.0604753,9.43643268 14.0971501,10.6375276 13.678327,11.7417369 Z" id="Path" stroke="#B8BBC4" stroke-width="0.75"></path>
                </g>
            </g>
        </g>
    </g>
</svg>