<svg viewBox="0 0 24 24"><path d="M18.14 3.67c.56 0 1.13.1 1.75.29a.58.58 0 0 1 .23.97l-3.1 3.02.45 2.23 2.24.44 3.06-2.98c.15-.15.36-.2.56-.15.2.05.36.2.42.4.17.6.25 1.1.25 1.61a5.85 5.85 0 0 1-7.04 5.7c-.53.64-.98 1.25-1.5 1.94a68.25 68.25 0 0 1-2.98 3.75 4.08 4.08 0 1 1-5.77-5.75c1.56-1.32 2.71-2.17 3.72-2.92.71-.53 1.34-1 2-1.54a5.85 5.85 0 0 1 5.72-7.02zM9.21 17.43a.98.98 0 1 0 .98.98.98.98 0 0 0-.98-.98zM6.67 6.72l4 3.02-4 2.9v-2.27h-4V9.04h4V6.72zm-1.34.62l-4-3.02 4-2.91v2.27h4v1.34h-4v2.32z"/></svg>