<svg viewBox="0 0 24 24"><path d="M17.7 21c.1 0 .19-.03.26-.1l2.92-2.67A.29.29 0 0 0 21 18c0-.1-.04-.17-.12-.23l-2.92-2.67a.37.37 0 0 0-.26-.1c-.1 0-.18.03-.26.1l-.33.3a.33.33 0 0 0-.1.23c-.01.1.02.17.09.24L19.43 18l-2.33 2.13a.28.28 0 0 0-.1.24c0 .09.04.17.11.23l.33.3c.08.07.16.1.26.1z"/><path d="M16.5.4c.7 0 1.44.12 2.23.36a.7.7 0 0 1 .5.53c.06.22.01.45-.12.62l-.08.08-3.97 3.82.58 2.81 2.87.57 3.92-3.78a.75.75 0 0 1 .72-.18c.25.06.45.26.53.5.22.75.32 1.4.32 2.04a7.3 7.3 0 0 1-2.41 5.42 6 6 0 1 1-9.52 5.73l-.03-.18-.2.27c-.71.9-1.54 1.93-2.6 3.15A5.26 5.26 0 0 1 0 18.84c0-1.5.68-2.93 1.85-3.94 2-1.67 3.48-2.75 4.78-3.7.9-.67 1.7-1.25 2.55-1.94A6.67 6.67 0 0 1 9 7.77 7.45 7.45 0 0 1 16.5.4zM18 13a5 5 0 1 0 0 10 5 5 0 0 0 0-10zM5.25 17.36c-.83 0-1.5.66-1.5 1.48 0 .81.67 1.47 1.5 1.47s1.5-.66 1.5-1.47c0-.82-.67-1.48-1.5-1.48z"/></svg>