<svg viewBox="0 0 24 24"><path d="M15.46 2c.53 0 1.08.1 1.68.28a.57.57 0 0 1 .3.87l-.07.07-3 2.92.44 2.15 2.16.44 2.97-2.89c.14-.14.34-.2.54-.14.19.05.34.2.4.39a5.65 5.65 0 0 1-3.12 6.71 6.38 6.38 0 0 1-4.42 11.03 6.41 6.41 0 0 1-5.85-3.8 3.96 3.96 0 0 1-3.1-6.93C5.92 11.82 7.03 11 8 10.27c.69-.51 1.3-.96 1.93-1.48A5.66 5.66 0 0 1 15.46 2zm-2.12 10.42h-.21a5.8 5.8 0 0 0-4.78 4.54l-.02.47a5 5 0 1 0 10.02 0 5 5 0 0 0-5.01-5.01zm-.15 1.18l3.6 3.42.46.45-.46.45-3.6 3.42-1.1-.9 3.12-2.97-3.11-2.97 1.1-.9z"/></svg>