<svg viewBox="0 0 24 24"><path d="M12.52 14.73l-.66-1.45a6.34 6.34 0 0 0 1.58-1.68l1.49.56c.28.11.6-.03.7-.32l.56-1.44a.55.55 0 0 0-.32-.71l-1.5-.57c.13-.76.1-1.54-.06-2.3l1.45-.65a.55.55 0 0 0 .27-.73l-.63-1.4a.55.55 0 0 0-.73-.28l-1.45.65a6.34 6.34 0 0 0-1.68-1.57l.57-1.5a.55.55 0 0 0-.32-.7L10.35.09a.55.55 0 0 0-.72.32L9.07 1.9a6.32 6.32 0 0 0-2.3.07L6.12.52a.55.55 0 0 0-.73-.28l-1.4.64a.55.55 0 0 0-.29.72l.66 1.46a6.34 6.34 0 0 0-1.58 1.67L1.3 4.17a.55.55 0 0 0-.7.32L.03 5.93c-.11.29.03.6.32.71l1.48.57c-.11.76-.09 1.54.07 2.3l-1.45.65a.55.55 0 0 0-.27.73l.63 1.4a.55.55 0 0 0 .73.28L3 11.92a6.33 6.33 0 0 0 1.68 1.57L4.1 15c-.1.28.04.6.32.7l1.45.55a.55.55 0 0 0 .7-.32l.57-1.49c.77.12 1.55.1 2.3-.07l.65 1.45a.55.55 0 0 0 .73.28l1.41-.64c.28-.12.4-.45.28-.72zm-.92-5.24a3.76 3.76 0 0 1-4.81 2.17 3.71 3.71 0 0 1-2.17-4.82 3.76 3.76 0 0 1 4.81-2.17A3.71 3.71 0 0 1 11.6 9.5zM23.85 17a.55.55 0 0 0-.38-.18l-1.04-.04c-.1-.49-.26-.96-.5-1.4l.76-.7c.22-.2.24-.56.03-.78l-.76-.83a.55.55 0 0 0-.78-.03l-.76.7a4.76 4.76 0 0 0-1.35-.63l.04-1.04a.55.55 0 0 0-.52-.57l-1.13-.05a.55.55 0 0 0-.57.53l-.04 1.04c-.5.1-.97.27-1.4.5l-.7-.76a.55.55 0 0 0-.78-.03l-.83.76a.55.55 0 0 0-.04.78l.7.76c-.27.42-.48.87-.62 1.35l-1.04-.04a.55.55 0 0 0-.57.53L11.52 18a.55.55 0 0 0 .52.57l1.04.05a5 5 0 0 0 .51 1.4l-.76.7a.55.55 0 0 0-.04.78l.76.82a.55.55 0 0 0 .78.04l.77-.7c.41.27.87.49 1.35.62l-.05 1.04c0 .3.23.56.53.58l1.12.04h.03a.55.55 0 0 0 .55-.52l.04-1.04c.5-.1.96-.27 1.4-.51l.7.76a.55.55 0 0 0 .78.04l.83-.76c.22-.2.24-.56.03-.78l-.7-.77c.28-.41.5-.87.63-1.35l1.04.05c.3.01.56-.22.57-.53l.05-1.12a.55.55 0 0 0-.15-.4zm-6.2 3.26a2.57 2.57 0 1 1 .22-5.14 2.57 2.57 0 0 1-.22 5.14z"/></svg>