<svg viewBox="0 0 24 24"><path d="M16.26 2.18c.53 0 1.09.1 1.69.28a.57.57 0 0 1 .29.87l-.07.07-3 2.92.44 2.15 2.17.43 2.96-2.88c.14-.14.34-.2.54-.14.19.05.34.2.4.39a5.65 5.65 0 0 1-3.12 6.71A6.38 6.38 0 0 1 14.14 24a6.41 6.41 0 0 1-5.84-3.8c-.18.02-.35.04-.53.04a3.96 3.96 0 0 1-2.56-6.97 64.68 64.68 0 0 1 3.6-2.82 49.8 49.8 0 0 0 1.92-1.49 5.66 5.66 0 0 1 5.53-6.78zM14.14 12.6h-.2a5.8 5.8 0 0 0-4.78 4.55c-.02.15-.02.3-.02.46a5 5 0 1 0 10.01 0 5 5 0 0 0-5-5zm.05 2.48a2.58 2.58 0 1 1 0 5.15 2.58 2.58 0 0 1 0-5.15zM5.17 5.13l3.87 2.92-3.87 2.81v-2.2H1.3V7.37h3.87V5.13zm-1.3.6L0 2.81 3.88 0v2.2h3.86v1.29H3.88v2.24z"/></svg>