<svg viewBox="0 0 24 24"><g fill="none" fill-rule="evenodd"><path fill="#000" fill-rule="nonzero" d="M16.5.4c.7 0 1.44.12 2.23.36a.7.7 0 0 1 .5.53.73.73 0 0 1-.2.7l-3.97 3.82.58 2.81 2.87.57 3.92-3.78a.75.75 0 0 1 .72-.18c.25.06.45.26.53.5.22.75.32 1.4.32 2.04a7.3 7.3 0 0 1-2.42 5.42 6 6 0 0 0-9.54 5.55c-.75.97-1.63 2.07-2.8 3.42A5.26 5.26 0 0 1 0 18.84c0-1.5.68-2.93 1.85-3.94 2-1.67 3.48-2.75 4.78-3.7.9-.67 1.7-1.25 2.55-1.94A6.67 6.67 0 0 1 9 7.77 7.45 7.45 0 0 1 16.5.4zM5.25 17.36c-.83 0-1.5.66-1.5 1.48 0 .81.67 1.47 1.5 1.47s1.5-.66 1.5-1.47c0-.82-.67-1.48-1.5-1.48z"/><path fill="#000" fill-rule="nonzero" d="M8.04 8.05l-3.87 2.8v-5.7z"/><path fill="#000" fill-rule="nonzero" d="M1.3 7.37h3.87v1.29H1.3zM0 2.81L3.88 0v5.73zm6.88.68h-3v-1.3h3z"/><circle cx="18" cy="18" r="5.4" stroke="#000" stroke-width="1.2"/><circle cx="18" cy="18" r="3" fill="#000"/></g></svg>