<svg viewBox="0 0 24 24"><path d="M17.45 16.5c.47 0 .9.05 1.28.15.38.1.7.23.96.4.25.16.44.35.58.55.13.2.2.4.2.6 0 .2-.07.38-.22.52a.85.85 0 0 1-.6.2.74.74 0 0 1-.48-.16 2.8 2.8 0 0 1-.46-.49c-.14-.18-.3-.32-.5-.43a1.48 1.48 0 0 0-.76-.16c-.34 0-.61.07-.84.2-.22.15-.33.33-.33.54 0 .2.08.35.25.48.16.12.38.22.65.3l1.14.3c.57.14 1.04.3 1.4.5.36.2.64.42.82.69.2.26.28.56.28.9 0 .5-.12.94-.37 1.3-.25.37-.61.64-1.1.83-.48.19-1.07.28-1.76.28a4.3 4.3 0 0 1-1.7-.3c-.48-.2-.83-.46-1.05-.76a1.5 1.5 0 0 1-.34-.92c0-.2.07-.38.22-.52a.74.74 0 0 1 .54-.22c.2 0 .35.05.45.15.1.09.2.22.3.4a2 2 0 0 0 .68.73c.26.16.62.24 1.07.24.37 0 .68-.08.91-.24.24-.17.36-.36.36-.57 0-.32-.13-.56-.37-.7-.25-.15-.65-.3-1.21-.43-.64-.16-1.16-.33-1.55-.5-.4-.17-.72-.4-.96-.68a1.57 1.57 0 0 1-.36-1.05c0-.37.11-.72.33-1.05.22-.33.55-.59.98-.79.43-.2.95-.29 1.56-.29zM16.47 0c.66 0 1.35.12 2.1.35a.7.7 0 0 1 .27 1.17l-3.72 3.64.54 2.68 2.69.54 3.68-3.6a.7.7 0 0 1 .67-.17.7.7 0 0 1 .5.48c.2.71.3 1.33.3 1.94a7.04 7.04 0 0 1-8.45 6.87 62.9 62.9 0 0 0-1.8 2.33 82.17 82.17 0 0 1-3.58 4.51A4.9 4.9 0 0 1 1 17.58a5 5 0 0 1 1.74-3.76 90.04 90.04 0 0 1 4.47-3.52c.85-.64 1.6-1.2 2.4-1.85-.12-.5-.17-.96-.17-1.42A7.04 7.04 0 0 1 16.47 0zM5.92 16.17a1.4 1.4 0 1 0 0 2.81 1.4 1.4 0 0 0 0-2.8z"/></svg>