<svg viewBox="0 0 24 24"><path fill="none" stroke="#000" stroke-width=".8" d="M8.98.4c-.05 0-.1 0-.14.03l-2.14.8a.42.42 0 0 0-.24.54l.95 2.5-.27.18a8.97 8.97 0 0 0-2.38 2.23l-.19.27-.3-.14-2.14-.96a.41.41 0 0 0-.55.2L.64 8.14a.41.41 0 0 0 .21.55l2.44 1.1-.07.31a8.97 8.97 0 0 0-.1 3.26l.05.32-.3.11-2.2.84a.42.42 0 0 0-.24.53l.8 2.14a.41.41 0 0 0 .54.24l2.5-.95.18.27c.6.92 1.35 1.73 2.23 2.38l.27.19-.14.3-.96 2.14c-.1.21 0 .46.2.55l2.09.94a.42.42 0 0 0 .55-.2l1.1-2.45.31.07c1.07.23 2.18.26 3.26.1l.32-.05.11.3.84 2.2a.42.42 0 0 0 .53.24l2.14-.8a.42.42 0 0 0 .24-.54l-.95-2.5.27-.18a8.97 8.97 0 0 0 2.38-2.23l.19-.27.3.14 2.14.96c.21.1.46 0 .55-.2l.94-2.09a.41.41 0 0 0-.21-.55l-2.44-1.1.07-.31c.23-1.07.26-2.18.1-3.26l-.05-.32.3-.11 2.2-.84a.42.42 0 0 0 .24-.53l-.8-2.14a.42.42 0 0 0-.54-.24l-2.5.95-.18-.27a8.97 8.97 0 0 0-2.23-2.38l-.27-.19.14-.3.96-2.14c.1-.21 0-.46-.2-.55L15.86.64a.41.41 0 0 0-.55.21l-1.1 2.44-.31-.07a8.95 8.95 0 0 0-3.26-.1l-.32.05-.11-.3-.84-2.2A.42.42 0 0 0 8.98.4zM12 6.6a5.42 5.42 0 0 1 4.92 7.62A5.36 5.36 0 0 1 12 17.4a5.42 5.42 0 0 1-4.92-7.62A5.36 5.36 0 0 1 12 6.6z"/></svg>