<svg viewBox="0 0 24 24"><path d="M23.73 5.8a.75.75 0 0 0-.53-.5.75.75 0 0 0-.72.18l-3.92 3.77-2.87-.56-.58-2.82 3.97-3.8a.73.73 0 0 0 .2-.7.74.74 0 0 0-.5-.54 7.45 7.45 0 0 0-9.73 7.01c0 .48.06.96.18 1.49a65.9 65.9 0 0 1-2.55 1.94 89 89 0 0 0-4.78 3.7A5.21 5.21 0 0 0 .05 18.9a5.26 5.26 0 1 0 9.24 3.32 86.44 86.44 0 0 0 3.82-4.73c.66-.87 1.25-1.64 1.92-2.45a7.45 7.45 0 0 0 9.02-7.2c0-.65-.1-1.3-.32-2.04zM5.3 20.38c-.83 0-1.5-.66-1.5-1.48 0-.81.67-1.47 1.5-1.47s1.5.66 1.5 1.47c0 .82-.67 1.48-1.5 1.48z"/><path d="M8.1 8.12l-3.88 2.8V5.2z"/><path d="M1.35 7.44h3.87v1.29H1.35zM.05 2.88L3.92.07V5.8zm6.87.67h-3V2.26h3z"/></svg>