<svg viewBox="0 0 24 24"><path d="M8.82.02a.82.82 0 0 1 .92.5l.84 2.2.38-.04a9.35 9.35 0 0 1 3.02.15L14.95.7 15 .6a.82.82 0 0 1 1.03-.31l2.08.94.1.05a.8.8 0 0 1 .3 1.02l-.96 2.15.3.23c.8.64 1.48 1.4 2.03 2.25l2.2-.83.13-.04a.82.82 0 0 1 .93.5l.8 2.14.04.11c.09.4-.12.8-.5.95l-2.21.83.05.38c.11 1 .06 2.03-.15 3.02l2.14.97.1.05a.82.82 0 0 1 .31 1.03l-.94 2.08-.05.1a.82.82 0 0 1-1.03.3l-2.14-.96-.23.3c-.64.8-1.4 1.48-2.25 2.03l.83 2.2.04.11c.09.4-.12.8-.51.95l-2.14.8-.1.04a.82.82 0 0 1-.95-.5l-.83-2.2-.38.04a9.35 9.35 0 0 1-3.02-.15l-.97 2.14-.05.1a.82.82 0 0 1-1.03.31l-2.08-.94-.1-.05a.82.82 0 0 1-.31-1.02l.97-2.15-.3-.23a9.37 9.37 0 0 1-2.04-2.25l-2.2.83-.1.04a.82.82 0 0 1-.95-.5l-.8-2.14-.05-.13a.81.81 0 0 1 .51-.93l2.2-.83-.04-.38a9.3 9.3 0 0 1 .15-3.02L.68 9.05.58 9a.82.82 0 0 1-.3-1.03L1.2 5.9l.06-.1a.82.82 0 0 1 1.02-.3l2.15.96.23-.3c.63-.8 1.4-1.48 2.25-2.03l-.84-2.2-.03-.11c-.09-.4.12-.8.5-.95L8.7.06zM12 6.47a5.5 5.5 0 0 0-5.04 3.26 5.56 5.56 0 0 0 7 7.44 5.49 5.49 0 0 0 3.2-7.13A5.56 5.56 0 0 0 12 6.47zm0 2.37a3.17 3.17 0 1 1 0 6.33 3.17 3.17 0 0 1 0-6.33z"/></svg>