<svg viewBox="0 0 24 24"><path d="M17.59 24a5 5 0 0 0 1.76-.28c.49-.19.85-.46 1.1-.82.25-.37.37-.8.37-1.31 0-.34-.09-.64-.28-.9-.18-.27-.46-.5-.82-.69-.36-.2-.83-.36-1.4-.5l-1.14-.3c-.27-.08-.5-.18-.65-.3a.57.57 0 0 1-.25-.48c0-.21.11-.39.33-.53.23-.14.5-.21.84-.21.32 0 .58.05.77.16.19.1.35.25.49.43.17.22.32.38.46.49.13.1.29.16.48.16.26 0 .46-.07.6-.2a.67.67 0 0 0 .22-.52c0-.2-.07-.4-.2-.6-.14-.2-.33-.39-.58-.55-.26-.17-.58-.3-.96-.4a5 5 0 0 0-1.28-.15c-.61 0-1.13.1-1.56.3-.43.19-.76.45-.98.78-.22.33-.33.68-.33 1.05 0 .41.12.76.36 1.05.24.28.56.5.96.68.4.17.91.34 1.55.5.56.13.96.28 1.2.42.25.15.38.39.38.71 0 .21-.12.4-.36.57-.23.16-.54.24-.9.24-.46 0-.82-.08-1.08-.24-.27-.16-.5-.4-.68-.74-.1-.17-.2-.3-.3-.4-.1-.09-.25-.14-.45-.14a.74.74 0 0 0-.76.74c0 .3.11.61.34.92.22.3.57.55 1.05.76.47.2 1.04.3 1.7.3z"/><path d="M23.68 5.74a.75.75 0 0 0-.53-.51.75.75 0 0 0-.72.18L18.51 9.2l-2.87-.57-.58-2.81L19.03 2a.73.73 0 0 0 .2-.7.74.74 0 0 0-.5-.53 7.45 7.45 0 0 0-9.73 7c0 .48.06.96.18 1.5a65.9 65.9 0 0 1-2.55 1.93 89 89 0 0 0-4.78 3.7A5.21 5.21 0 0 0 0 18.84a5.26 5.26 0 1 0 9.24 3.32 86.44 86.44 0 0 0 3.82-4.74c.66-.87 1.25-1.64 1.92-2.45A7.45 7.45 0 0 0 24 7.77a7 7 0 0 0-.32-2.03zM5.25 20.3c-.83 0-1.5-.66-1.5-1.47 0-.82.67-1.48 1.5-1.48s1.5.66 1.5 1.48c0 .81-.67 1.47-1.5 1.47z"/></svg>