<svg xmlns="http://www.w3.org/2000/svg" width="1332" height="808" viewBox="0 0 1332 808">
  <g id="Page-1" fill="none" fill-rule="evenodd" stroke="none" stroke-width="1">
    <g id="dashboard">
      <rect id="--c-global-bg" width="1331" height="807" x="0" y="0" fill="#F4F6F8"/>
      <g id="OK-Assist" transform="translate(944 49)">
        <g id="appbarbg">
          <g id="path-1-link" fill="#DADADA" fill-rule="nonzero">
            <path id="--c-border" d="M336.5,-0.5 L-0.5,-0.5 L-0.5,758.5 L336.5,758.5 L336.5,-0.5 Z M335.5,0.5 L335.5,757.5 L0.5,757.5 L0.5,0.5 L335.5,0.5 Z"/>
          </g>
          <g id="path-1-link" fill="#FFF">
            <polygon id="--c-surface-bg" points="0 0 336 0 336 758 0 758"/>
          </g>
        </g>
        <g id="Actions_button" transform="translate(0 478)">
          <rect id="--c-group-bar" width="336" height="48" x="0" y="0" fill="#F4F4F4" fill-rule="nonzero"/>
          <path id="--c-text" fill="#292C36" fill-rule="nonzero" d="M24.0390621,26.5664121 C23.9843747,26.5117247 23.9570311,26.4388081 23.9570311,26.3476626 C23.9570311,26.2565171 23.9843747,26.174486 24.0390621,26.1015694 L29.7812359,20.3867393 C29.8359233,20.3138227 29.9088399,20.2773645 29.9999854,20.2773645 C30.0911309,20.2773645 30.1640475,20.3138227 30.2187349,20.3867393 L35.9609087,26.1015694 C36.0155961,26.174486 36.0429397,26.2565171 36.0429397,26.3476626 C36.0429397,26.4388081 36.0155961,26.5117247 35.9609087,26.5664121 L35.414035,27.1132857 C35.3593476,27.1862024 35.286431,27.2226605 35.1952855,27.2226605 C35.10414,27.2226605 35.022109,27.1862024 34.9491923,27.1132857 L29.9999854,22.1640788 L25.0507784,27.1132857 C24.9778618,27.1862024 24.8958308,27.2226605 24.8046853,27.2226605 C24.7135398,27.2226605 24.6406232,27.1862024 24.5859358,27.1132857 L24.0390621,26.5664121 Z"/>
          <rect id="--c-accent" width="8" height="48" x="0" y="0" fill="#0276C2"/>
          <g id="--c-subheading" fill="#292C36" font-family="SourceSansPro-Bold, Source Sans Pro" font-size="16" font-weight="bold" transform="translate(52 13)">
            <text id="&lt;?xml-version=&quot;1.0&quot;-encoding=&quot;UTF-8&quot;?&gt;-">
              <tspan x=".348" y="16">Preview</tspan>
            </text>
          </g>
          <g id="Button/Alternative" transform="translate(222.5 185)">
            <rect id="--c-p-button-bg" width="99.5" height="40.5" x=".75" y=".75" fill="#292C36" stroke="#272C37" stroke-width="1.5" rx="4"/>
            <g id="--c-p-button" fill="#FFF" font-family="SourceSansPro-Bold, Source Sans Pro" font-size="16" font-weight="bold" transform="translate(23.5 11)">
              <text id="Preview">
                <tspan x=".66" y="16">Preview</tspan>
              </text>
            </g>
          </g>
          <path id="--c-warning" fill="#F97825" fill-rule="nonzero" d="M321,135.5 L16,135.5 C14.6192881,135.5 13.5,136.619288 13.5,138 L13.5,166 C13.5,167.380712 14.6192881,168.5 16,168.5 L321,168.5 C322.380712,168.5 323.5,167.380712 323.5,166 L323.5,138 C323.5,136.619288 322.380712,135.5 321,135.5 Z M16,136.5 L321,136.5 C321.828427,136.5 322.5,137.171573 322.5,138 L322.5,166 C322.5,166.828427 321.828427,167.5 321,167.5 L16,167.5 C15.1715729,167.5 14.5,166.828427 14.5,166 L14.5,138 C14.5,137.171573 15.1715729,136.5 16,136.5 Z"/>
          <rect id="--c-input-req-bg" width="309" height="32" x="14" y="136" fill="#FFFCEA" rx="2"/>
          <text id="--c-font-label" fill="#333949" font-family="SourceSansPro-Regular, Source Sans Pro" font-size="14" font-weight="normal" opacity=".803">
            <tspan x="14" y="129">Code</tspan>
          </text>
          <g id="Resource" transform="translate(13 57)">
            <g id="Input/completed">
              <path id="--c-border" fill="#C8C8C8" fill-rule="nonzero" d="M308,17.5 L3,17.5 C1.61928813,17.5 0.5,18.6192881 0.5,20 L0.5,48 C0.5,49.3807119 1.61928813,50.5 3,50.5 L308,50.5 C309.380712,50.5 310.5,49.3807119 310.5,48 L310.5,20 C310.5,18.6192881 309.380712,17.5 308,17.5 Z M3,18.5 L308,18.5 C308.828427,18.5 309.5,19.1715729 309.5,20 L309.5,48 C309.5,48.8284271 308.828427,49.5 308,49.5 L3,49.5 C2.17157288,49.5 1.5,48.8284271 1.5,48 L1.5,20 C1.5,19.1715729 2.17157288,18.5 3,18.5 Z"/>
              <g id="--c-text" transform="translate(5 21)">
                <text id="Input" fill="#2C323F" font-family="SourceSansPro-Regular, Source Sans Pro" font-size="16" font-weight="normal">
                  <tspan x="0" y="16">Acquisition Status</tspan>
                </text>
                <path fill="#333949" fill-rule="nonzero" d="M289.546861,16.5466994 L293.928369,12.1617967 C294.357647,11.7325195 294.054438,11 293.447953,11 L284.681575,11 C284.075123,11 283.771881,11.7325195 284.201191,12.1617967 L288.582667,16.5466994 C288.848412,16.812444 289.281116,16.812444 289.546861,16.5466994 Z"/>
              </g>
              <g id="--c-font-label" fill="#2C323F" font-family="SourceSansPro-Regular, Source Sans Pro" font-size="14" font-weight="normal" opacity=".803" transform="translate(1)">
                <text id="Label">
                  <tspan x="0" y="14">Resource</tspan>
                </text>
              </g>
            </g>
          </g>
        </g>
        <g id="Actions_button" transform="translate(0 235)">
          <rect id="--c-group-bar" width="336" height="48" x="0" y="0" fill="#F4F4F4" fill-rule="nonzero"/>
          <path id="--c-text" fill="#292C36" fill-rule="nonzero" d="M24.0390621,26.5664121 C23.9843747,26.5117247 23.9570311,26.4388081 23.9570311,26.3476626 C23.9570311,26.2565171 23.9843747,26.174486 24.0390621,26.1015694 L29.7812359,20.3867393 C29.8359233,20.3138227 29.9088399,20.2773645 29.9999854,20.2773645 C30.0911309,20.2773645 30.1640475,20.3138227 30.2187349,20.3867393 L35.9609087,26.1015694 C36.0155961,26.174486 36.0429397,26.2565171 36.0429397,26.3476626 C36.0429397,26.4388081 36.0155961,26.5117247 35.9609087,26.5664121 L35.414035,27.1132857 C35.3593476,27.1862024 35.286431,27.2226605 35.1952855,27.2226605 C35.10414,27.2226605 35.022109,27.1862024 34.9491923,27.1132857 L29.9999854,22.1640788 L25.0507784,27.1132857 C24.9778618,27.1862024 24.8958308,27.2226605 24.8046853,27.2226605 C24.7135398,27.2226605 24.6406232,27.1862024 24.5859358,27.1132857 L24.0390621,26.5664121 Z"/>
          <rect id="--c-accent" width="8" height="48" x="0" y="0" fill="#0276C2"/>
          <g id="--c-subheading" fill="#292C36" font-family="SourceSansPro-Bold, Source Sans Pro" font-size="16" font-weight="bold" transform="translate(52 13)">
            <text id="&lt;?xml-version=&quot;1.0&quot;-encoding=&quot;UTF-8&quot;?&gt;-">
              <tspan x=".348" y="16">Edit</tspan>
            </text>
          </g>
          <g id="Button/Alternative" transform="translate(222.5 184)">
            <rect id="--c-p-button-bg" width="99.5" height="40.5" x=".75" y=".75" fill="#292C36" stroke="#272C37" stroke-width="1.5" rx="4"/>
            <g id="--c-p-button" fill="#FFF" font-family="SourceSansPro-Bold, Source Sans Pro" font-size="16" font-weight="bold" transform="translate(23.5 11)">
              <text id="Edit">
                <tspan x="11.26" y="16">Edit</tspan>
              </text>
            </g>
          </g>
          <g id="Stacked-Group" transform="translate(13 114)">
            <g id="--c-font-label" fill="#333949" font-family="SourceSansPro-Regular, Source Sans Pro" font-size="14" font-weight="normal" opacity=".803" transform="translate(1)">
              <text id="Label">
                <tspan x="0" y="14">Code</tspan>
              </text>
            </g>
            <path id="--c-warning" fill="#D8D8D7" fill-rule="nonzero" d="M308,20.5 L3,20.5 C1.61928813,20.5 0.5,21.6192881 0.5,23 L0.5,51 C0.5,52.3807119 1.61928813,53.5 3,53.5 L308,53.5 C309.380712,53.5 310.5,52.3807119 310.5,51 L310.5,23 C310.5,21.6192881 309.380712,20.5 308,20.5 Z M3,21.5 L308,21.5 C308.828427,21.5 309.5,22.1715729 309.5,23 L309.5,51 C309.5,51.8284271 308.828427,52.5 308,52.5 L3,52.5 C2.17157288,52.5 1.5,51.8284271 1.5,51 L1.5,23 C1.5,22.1715729 2.17157288,21.5 3,21.5 Z"/>
            <rect id="--c-input-req-bg" width="309" height="32" x="1" y="21" fill="#FFFCEA" rx="2"/>
          </g>
          <g id="Input/completed" transform="translate(13 57)">
            <path id="--c-border" fill="#C8C8C8" fill-rule="nonzero" d="M308,17.5 L3,17.5 C1.61928813,17.5 0.5,18.6192881 0.5,20 L0.5,48 C0.5,49.3807119 1.61928813,50.5 3,50.5 L308,50.5 C309.380712,50.5 310.5,49.3807119 310.5,48 L310.5,20 C310.5,18.6192881 309.380712,17.5 308,17.5 Z M3,18.5 L308,18.5 C308.828427,18.5 309.5,19.1715729 309.5,20 L309.5,48 C309.5,48.8284271 308.828427,49.5 308,49.5 L3,49.5 C2.17157288,49.5 1.5,48.8284271 1.5,48 L1.5,20 C1.5,19.1715729 2.17157288,18.5 3,18.5 Z"/>
            <path id="--c-text" fill="#333949" fill-rule="nonzero" d="M294.546861,37.5466994 L298.928369,33.1617967 C299.357647,32.7325195 299.054438,32 298.447953,32 L289.681575,32 C289.075123,32 288.771881,32.7325195 289.201191,33.1617967 L293.582667,37.5466994 C293.848412,37.812444 294.281116,37.812444 294.546861,37.5466994 Z"/>
            <g id="--c-text" fill="#2C323F" font-family="SourceSansPro-Regular, Source Sans Pro" font-size="16" font-weight="normal" transform="translate(5 21)">
              <text id="Input">
                <tspan x="0" y="16">Acquisition Status</tspan>
              </text>
            </g>
            <g id="--c-font-label" fill="#2C323F" font-family="SourceSansPro-Regular, Source Sans Pro" font-size="14" font-weight="normal" opacity=".803" transform="translate(1)">
              <text id="Label">
                <tspan x="0" y="14">Resource</tspan>
              </text>
            </g>
          </g>
        </g>
        <g id="Actions_button" transform="translate(0 51)">
          <rect id="--c-group-bar" width="336" height="48" x="0" y="0" fill="#F4F4F4" fill-rule="nonzero"/>
          <path id="--c-text" fill="#292C36" fill-rule="nonzero" d="M24.0390621,26.5664121 C23.9843747,26.5117247 23.9570311,26.4388081 23.9570311,26.3476626 C23.9570311,26.2565171 23.9843747,26.174486 24.0390621,26.1015694 L29.7812359,20.3867393 C29.8359233,20.3138227 29.9088399,20.2773645 29.9999854,20.2773645 C30.0911309,20.2773645 30.1640475,20.3138227 30.2187349,20.3867393 L35.9609087,26.1015694 C36.0155961,26.174486 36.0429397,26.2565171 36.0429397,26.3476626 C36.0429397,26.4388081 36.0155961,26.5117247 35.9609087,26.5664121 L35.414035,27.1132857 C35.3593476,27.1862024 35.286431,27.2226605 35.1952855,27.2226605 C35.10414,27.2226605 35.022109,27.1862024 34.9491923,27.1132857 L29.9999854,22.1640788 L25.0507784,27.1132857 C24.9778618,27.1862024 24.8958308,27.2226605 24.8046853,27.2226605 C24.7135398,27.2226605 24.6406232,27.1862024 24.5859358,27.1132857 L24.0390621,26.5664121 Z"/>
          <rect id="--c-accent" width="8" height="48" x="0" y="0" fill="#0276C2"/>
          <g id="--c-subheading" fill="#292C36" font-family="SourceSansPro-Bold, Source Sans Pro" font-size="16" font-weight="bold" transform="translate(52 13)">
            <text id="&lt;?xml-version=&quot;1.0&quot;-encoding=&quot;UTF-8&quot;?&gt;-">
              <tspan x=".348" y="16">Create</tspan>
            </text>
          </g>
          <g id="Button/Alternative" transform="translate(222.5 125)">
            <rect id="--c-p-button-bg" width="99.5" height="40.5" x=".75" y=".75" fill="#292C36" stroke="#272C37" stroke-width="1.5" rx="4"/>
            <g id="--c-p-button" fill="#FFF" font-family="SourceSansPro-Bold, Source Sans Pro" font-size="16" font-weight="bold" transform="translate(23.5 11)">
              <text id="Alternative">
                <tspan x="2.092" y="16">Create</tspan>
              </text>
            </g>
          </g>
          <g id="--c-text" transform="translate(13 57)">
            <g id="Input/completed">
              <g id="Stacked-Group">
                <g id="--c-font-label" fill="#2C323F" font-family="SourceSansPro-Regular, Source Sans Pro" font-size="14" font-weight="normal" opacity=".803" transform="translate(1)">
                  <text id="Label">
                    <tspan x="0" y="14">Resource</tspan>
                  </text>
                </g>
                <path id="--c-border" fill="#C8C8C8" fill-rule="nonzero" d="M308,17.5 L3,17.5 C1.61928813,17.5 0.5,18.6192881 0.5,20 L0.5,48 C0.5,49.3807119 1.61928813,50.5 3,50.5 L308,50.5 C309.380712,50.5 310.5,49.3807119 310.5,48 L310.5,20 C310.5,18.6192881 309.380712,17.5 308,17.5 Z M3,18.5 L308,18.5 C308.828427,18.5 309.5,19.1715729 309.5,20 L309.5,48 C309.5,48.8284271 308.828427,49.5 308,49.5 L3,49.5 C2.17157288,49.5 1.5,48.8284271 1.5,48 L1.5,20 C1.5,19.1715729 2.17157288,18.5 3,18.5 Z"/>
              </g>
              <g id="--c-text" transform="translate(5 21)">
                <text id="Input" fill="#2C323F" font-family="SourceSansPro-Regular, Source Sans Pro" font-size="16" font-weight="normal">
                  <tspan x="0" y="16">Acquisition Status</tspan>
                </text>
                <path fill="#333949" fill-rule="nonzero" d="M289.546861,16.5466994 L293.928369,12.1617967 C294.357647,11.7325195 294.054438,11 293.447953,11 L284.681575,11 C284.075123,11 283.771881,11.7325195 284.201191,12.1617967 L288.582667,16.5466994 C288.848412,16.812444 289.281116,16.812444 289.546861,16.5466994 Z"/>
              </g>
            </g>
          </g>
        </g>
        <rect id="--c-sidebar-header" width="336" height="48" x="0" y="0"/>
        <line id="--c-border" x1=".5" x2="335.5" y1="47.5" y2="47.5" stroke="#D8D8D8" stroke-linecap="square"/>
        <g id="Close" transform="translate(296 12)">
          <rect id="Rectangle" width="24" height="24" x="0" y="0"/>
          <path id="--c-text" fill="#292C36" fill-rule="nonzero" d="M13.3124826,12.6249866 L17.0741923,16.4218525 C17.1913794,16.5156025 17.2499732,16.6445081 17.2499732,16.8085704 C17.2499732,16.9726327 17.1913794,17.1015382 17.0741923,17.1952882 L16.1952882,18.0741923 C16.1015382,18.1913794 15.9726327,18.2499732 15.8085704,18.2499732 C15.6445081,18.2499732 15.5156025,18.1913794 15.4218525,18.0741923 L11.6249866,14.3124826 L7.82812064,18.0741923 C7.73437069,18.1913794 7.6054651,18.2499732 7.44140281,18.2499732 C7.27734053,18.2499732 7.14843494,18.1913794 7.05468499,18.0741923 L6.17578083,17.1952882 C6.05859379,17.1015382 6,16.9726327 6,16.8085704 C6,16.6445081 6.05859379,16.5156025 6.17578083,16.4218525 L9.93749061,12.6249866 L6.17578083,8.8281206 C6.05859379,8.7343707 6,8.6054651 6,8.4414028 C6,8.2773405 6.05859379,8.1484349 6.17578083,8.054685 L7.05468499,7.17578083 C7.14843494,7.05859379 7.27734053,7 7.44140281,7 C7.6054651,7 7.73437069,7.05859379 7.82812064,7.17578083 L11.6249866,10.9374906 L15.4218525,7.17578083 C15.5156025,7.05859379 15.6445081,7 15.8085704,7 C15.9726327,7 16.1015382,7.05859379 16.1952882,7.17578083 L17.0741923,8.054685 C17.1913794,8.1484349 17.2499732,8.2773405 17.2499732,8.4414028 C17.2499732,8.6054651 17.1913794,8.7343707 17.0741923,8.8281206 L13.3124826,12.6249866 Z"/>
        </g>
        <g id="--c-text" fill="#292C36" font-family="SourceSansPro-Bold, Source Sans Pro" font-size="16" font-weight="bold" transform="translate(14 14)">
          <text id="Global-Actions">
            <tspan x="0" y="16">Global Actions</tspan>
          </text>
        </g>
      </g>
      <g id="Group-4" transform="translate(1280 48)">
        <rect id="--c-app-bar" width="51" height="758" x="0" y="1" fill="#F4F4F4"/>
        <polygon id="--c-border" fill="#D8D8D8" fill-rule="nonzero" points="1 1 1 759 0 759 0 1"/>
        <g id="Group-7" fill="#272C37" transform="translate(5 399)">
          <path id="--c-icon" fill-rule="nonzero" d="M15.3734108,23.8265466 L21.4999678,20.6062326 L27.6265249,23.8265466 C28.7140314,24.3984294 30.0124292,23.4796999 29.8014922,22.2468537 L28.62962,15.4265575 L33.5843048,10.598444 C34.4749277,9.73125856 33.9827414,8.21720882 32.7546102,8.0390934 L25.9062073,7.04066744 L22.8452863,0.834413923 C22.2968409,-0.271815129 20.7077639,-0.28586844 20.1546494,0.834413923 L17.0937283,7.04066744 L10.2453255,8.0390934 C9.01719423,8.21720882 8.5250079,9.73125856 9.41563078,10.598444 L14.3703156,15.4265575 L13.1984434,22.2468537 C12.9875064,23.4796999 14.2859042,24.4030986 15.3734108,23.8265466 Z"/>
          <g id="--c-icon" font-family="SourceSansPro-Regular, Source Sans Pro" font-size="10" font-weight="normal" transform="translate(0 29)">
            <text id="Favourites">
              <tspan x=".015" y="10">Favourites</tspan>
            </text>
          </g>
        </g>
        <g id="Group-6" fill="#272C37" transform="translate(13 346)">
          <path id="--c-icon" fill-rule="nonzero" d="M27.8062,7.07348901 L29.4655436,5.41409966 C30.178051,4.69692302 30.178051,3.53910413 29.4655436,2.82659667 L27.1780582,0.539111283 C26.4655507,-0.173396174 25.3077776,-0.173396174 24.5905552,0.539111283 L22.9312116,2.19850064 C22.7530962,2.37661606 22.7530962,2.66724952 22.9312116,2.84536494 L27.1593357,7.07348901 C27.3374511,7.25160443 27.6280846,7.25160443 27.8062,7.07348901 Z M21.7499553,23.9999928 C22.9921398,23.9999928 23.9999499,22.9921828 23.9999499,21.7499982 L23.9999499,14.35315 C23.9999499,13.8515795 23.3952456,13.6031518 23.0390147,13.9547135 L21.1640192,15.829709 C21.0608853,15.9375121 20.9999571,16.0781367 20.9999571,16.2281455 L20.9999571,21 L6,21 L6,6.00004292 L16.771833,6.00004292 C16.9218418,6.00004292 17.0624665,5.93910756 17.1702696,5.83597365 L19.0452651,3.96097812 C19.4015417,3.60474728 19.148399,3.00004292 18.6468285,3.00004292 L5.24999464,3.00004292 C4.0078101,3.00004292 3,4.00785301 3,5.25003755 L3,21.7499982 C3,22.9921828 4.0078101,23.9999928 5.24999464,23.9999928 L21.7499553,23.9999928 Z M11.5124614,19.4953344 L15.8624876,19.0124864 L26.0999358,8.7750383 C26.2780512,8.59692288 26.2780512,8.30628942 26.0999358,8.128174 L21.8718117,3.90004992 C21.6936963,3.7219345 21.4030628,3.7219345 21.2249474,3.90004992 L10.9874993,14.1374981 L10.5046513,18.4875243 C10.4390539,19.0687454 10.9312402,19.5609318 11.5124614,19.4953344 Z"/>
          <g id="--c-icon" font-family="SourceSansPro-Regular, Source Sans Pro" font-size="10" font-weight="normal" transform="translate(0 28)">
            <text id="Drafts">
              <tspan x="1.605" y="10">Drafts</tspan>
            </text>
          </g>
        </g>
        <text id="--c-icon" fill="#272C37" font-family="SourceSansPro-Regular, Source Sans Pro" font-size="10" font-weight="normal" transform="translate(5 247)">
          <tspan x="9.355" y="10">Errors</tspan>
        </text>
        <g id="Group-Copy" transform="translate(4 274)">
          <path id="--c-icon" fill="#333949" fill-rule="nonzero" d="M22.499975,12.0000215 C25.8140387,12.0000215 28.4999607,9.31409952 28.4999607,6.00003576 C28.4999607,2.68597201 25.8140387,5.00679016e-05 22.499975,5.00679016e-05 C19.1859112,5.00679016e-05 16.4999893,2.68597201 16.4999893,6.00003576 C16.4999893,9.31409952 19.1859112,12.0000215 22.499975,12.0000215 Z M30.7499553,23.9999928 C31.9921398,23.9999928 32.9999499,22.9921828 32.9999499,21.7499982 L32.9999499,19.8000212 C32.9999499,16.3218953 30.1780725,13.5000179 26.6999466,13.5000179 L25.9171726,13.5000179 C24.876541,13.9781509 23.7187221,14.2500161 22.499975,14.2500161 C21.2812279,14.2500161 20.1281239,13.9781509 19.0827773,13.5000179 L18.3000033,13.5000179 C14.8218774,13.5000179 12,16.3218953 12,19.8000212 L12,21.7499982 C12,22.9921828 13.0078101,23.9999928 14.2499946,23.9999928 L30.7499553,23.9999928 Z"/>
          <g id="--c-icon" fill="#272C37" font-family="SourceSansPro-Regular, Source Sans Pro" font-size="10" font-weight="normal" transform="translate(0 26)">
            <text id="Profile">
              <tspan x="8.28" y="10">Profile</tspan>
            </text>
          </g>
        </g>
        <g id="Group-2" fill="#272C37" font-family="SourceSansPro-Regular, Source Sans Pro" font-size="10" font-weight="normal" transform="translate(4 192)">
          <g id="--c-text">
            <text id="Messages">
              <tspan x="3.08" y="10">Messages</tspan>
            </text>
          </g>
        </g>
        <g id="Group-3" fill="#272C37" transform="translate(3 118)">
          <path id="--c-icon" fill-rule="nonzero" d="M24.4999714,23.6249937 C30.9198169,23.6249937 36.1249437,18.4217438 36.1249437,12.0000215 C36.1249437,5.58205275 30.9198169,0.375049174 24.4999714,0.375049174 C18.0801259,0.375049174 12.8749991,5.58205275 12.8749991,12.0000215 C12.8749991,18.4217438 18.0801259,23.6249937 24.4999714,23.6249937 Z M24.4999714,9.46877749 C23.4126479,9.46877749 22.5312261,8.58735564 22.5312261,7.50003219 C22.5312261,6.41270873 23.4126479,5.53128688 24.4999714,5.53128688 C25.5872948,5.53128688 26.4687167,6.41270873 26.4687167,7.50003219 C26.4687167,8.58735564 25.5872948,9.46877749 24.4999714,9.46877749 Z M26.5624665,18.0000072 L22.4374763,18.0000072 C22.1268386,18.0000072 21.8749776,17.7481462 21.8749776,17.4375085 L21.8749776,16.3125112 C21.8749776,16.0018735 22.1268386,15.7500125 22.4374763,15.7500125 L22.999975,15.7500125 L22.999975,12.7500197 L22.4374763,12.7500197 C22.1268386,12.7500197 21.8749776,12.4981587 21.8749776,12.187521 L21.8749776,11.0625237 C21.8749776,10.751886 22.1268386,10.500025 22.4374763,10.500025 L25.4374692,10.500025 C25.7481068,10.500025 25.9999678,10.751886 25.9999678,11.0625237 L25.9999678,15.7500125 L26.5624665,15.7500125 C26.8731042,15.7500125 27.1249651,16.0018735 27.1249651,16.3125112 L27.1249651,17.4375085 C27.1249651,17.7481462 26.8731042,18.0000072 26.5624665,18.0000072 Z"/>
          <g id="--c-icon" font-family="SourceSansPro-Regular, Source Sans Pro" font-size="10" font-weight="normal" transform="translate(0 25)">
            <text id="Help">
              <tspan x="14.21" y="10">Help</tspan>
            </text>
          </g>
        </g>
        <polygon id="--c-border" fill="#979797" fill-rule="nonzero" points="42 50 42 53 11 53 11 50"/>
        <rect id="--c-icon-active-bg" width="52" height="49" x="0" y="0" fill="#272C37"/>
        <polygon id="--c-border" fill="#979797" fill-rule="nonzero" points="41 327 41 330 10 330 10 327"/>
        <g id="Group-5" fill="#272C37" transform="translate(3 67)">
          <path id="--c-icon" fill-rule="nonzero" d="M27.1296682,15.5003874 C27.1312322,15.4902404 27.1324148,15.4804748 27.1339788,15.4699462 C27.5187283,14.1722656 28.5280948,12.6339926 29.1734256,11.8976815 C30.232383,10.6894553 30.8749672,9.1082289 30.8749672,7.37502533 C30.8749672,3.57075126 27.7855276,0.488330631 23.9785069,0.500008463 C19.9937599,0.512134285 17.125,3.74103894 17.125,7.37502533 C17.125,9.1082289 17.7675842,10.6894553 18.8265417,11.8976815 C19.4718725,12.6339926 20.4812389,14.1722656 20.8659884,15.4699462 C20.8675524,15.4800933 20.868735,15.4902404 20.870299,15.5003874 L27.1296682,15.5003874 Z M20.2499925,8.00002384 C19.904687,8.00002384 19.624994,7.72033091 19.624994,7.37502533 C19.624994,4.96254024 21.5874985,3.00003576 23.9999836,3.00003576 C24.3452892,3.00003576 24.6249821,3.2797287 24.6249821,3.62503427 C24.6249821,3.97033985 24.3452892,4.25003278 23.9999836,4.25003278 C22.2769271,4.25003278 20.8749911,5.65196883 20.8749911,7.37502533 C20.8749911,7.72033091 20.5952981,8.00002384 20.2499925,8.00002384 Z M25.2054632,20.5003755 C25.5751828,20.5003755 26.0413758,20.2504753 26.246072,19.9425918 L26.9136424,18.9390618 C27.0289986,18.7657987 27.1228018,18.4561986 27.1230307,18.248031 L27.1245947,16.750003 L20.8753725,16.750003 L20.877318,18.248031 C20.8777376,18.4937351 20.9503693,18.7343656 21.0867063,18.9390618 L21.7542767,19.9425918 C21.9589728,20.2504753 22.4251659,20.5003755 22.7949236,20.5003755 L25.2054632,20.5003755 Z"/>
          <text id="--c-icon" font-family="SourceSansPro-Regular, Source Sans Pro" font-size="10" font-weight="normal" transform="translate(0 25)">
            <tspan x="12.075" y="10">Assist</tspan>
          </text>
        </g>
        <path id="--c-icon" fill="#272C37" fill-rule="nonzero" d="M28 184C29.0875092 184.018768 30.6531067 182.631241 31.4406433 182.059357 37.6609192 177.545303 38.1343842 177.151581 39.5687408 176.026581 39.8406067 175.815643 40 175.487518 40 175.140625L40 174.25C40 173.007812 38.9921875 172 37.75 172L18.25 172C17.0078125 172 16 173.007812 16 174.25L16 175.140625C16 175.487518 16.1593933 175.810928 16.4312592 176.026581 17.8656158 177.146866 18.3390808 177.545303 24.5593567 182.059357 25.3468933 182.631241 26.9124908 184.018768 28 184zM37.75 190C38.9921875 190 40 188.992188 40 187.75L40 178.164062C40 177.934357 39.7281342 177.798447 39.5453033 177.943741 38.4953308 178.759384 37.1078033 179.800018 32.3265533 183.273438 31.375 183.967178 29.6734467 185.518768 28 185.504669 26.3359375 185.514053 24.6672058 183.995331 23.6781158 183.273438 18.8968658 179.800018 17.5046692 178.764053 16.4546967 177.948456 16.2671967 177.803116 16 177.934357 16 178.168732L16 187.75C16 188.992188 17.0078125 190 18.25 190L37.75 190zM38.7472314 243C40.4752889 243 41.5613331 241.12532 40.6961141 239.625595L29.448954 220.124314C28.5848336 218.626602 26.4167279 218.623856 25.5510969 220.124314L14.3036163 239.625595C13.4400911 241.122437 14.5211456 243 16.2525449 243L38.7472314 243zM28.6378426 234.75L26.3622082 234.75C26.0634717 234.75 25.8168287 234.516449 25.8005781 234.21817L25.4528608 227.84317C25.4352827 227.52095 25.6917677 227.25 26.0144452 227.25L28.9855599 227.25C29.3082374 227.25 29.5647682 227.52095 29.54719 227.84317L29.1994728 234.21817C29.1832222 234.516449 28.9365792 234.75 28.6378426 234.75zM27.5000254 239.90625C26.3091534 239.90625 25.3437758 238.940872 25.3437758 237.75 25.3437758 236.559128 26.3091534 235.59375 27.5000254 235.59375 28.6908974 235.59375 29.6562751 236.559128 29.6562751 237.75 29.6562751 238.940872 28.6908974 239.90625 27.5000254 239.90625z"/>
        <path id="--c-icon-active" fill="#FFF" fill-rule="nonzero" d="M25.5,32 C31.8514188,32 37,26.8514188 37,20.5 C37,14.1485812 31.8514188,9 25.5,9 C19.1485812,9 14,14.1485812 14,20.5 C14,26.8514188 19.1485812,32 25.5,32 Z M27.0372157,29.4041315 C26.5498224,29.4041315 26.1042264,29.1287133 25.8862738,28.6928081 C25.6996861,28.3196724 25.543886,27.7118162 25.5078514,27.2462658 L25.5,27.0563748 L25.5,25.6703629 C25.5,25.2734473 25.1781656,24.9516129 24.78125,24.9516129 L23.5811748,24.9516129 C22.9092486,24.9516129 22.2651722,24.684527 21.7898697,24.2096774 C21.3804105,23.800037 21.0479343,22.9975566 21.0479343,22.4183724 L21.0479343,21.7663712 C21.0479343,20.9692796 21.423521,20.2185137 22.0611218,19.7399961 L23.3400367,18.7805609 C23.7129517,18.5009313 24.3939347,18.2738313 24.8600897,18.2737407 L24.9013436,18.2737407 C25.2945911,18.2737407 25.6827215,18.3650788 26.0341718,18.5412795 L26.7167851,18.8825861 C26.8874157,18.9679014 27.0844923,18.9818036 27.2653572,18.9215304 L29.4591478,18.190282 C29.7526796,18.092423 29.9507072,17.8179105 29.9507072,17.5086197 C29.9507072,17.1116589 29.6288728,16.7898697 29.2319572,16.7898697 L28.7640361,16.7898697 C28.5734804,16.7898697 28.3907589,16.7142905 28.2558121,16.5793437 L27.9349286,16.2584603 C27.8381338,16.1615899 27.6639156,16.0799715 27.5134559,16.0554562 L27.4267047,16.0479343 L23.2510081,16.0479343 C22.8540925,16.0479343 22.5322581,15.7260998 22.5322581,15.3291843 L22.5322581,15.1251339 C22.5322581,14.7954653 22.7566863,14.5079562 23.0766641,14.4277127 L23.7467336,14.2603425 C23.9201266,14.2167339 24.0713304,14.1105425 24.170548,13.9616935 L24.545229,13.4001248 C24.6783191,13.2002859 24.9027474,13.0801923 25.1429345,13.0801923 L26.2655738,13.0801923 C26.6625347,13.0801923 26.9843238,12.7583579 26.9843238,12.3614423 L26.9843238,11.3551833 C30.6578645,11.9505792 33.6084437,14.7045347 34.4927073,18.2741935 L33.6381048,18.2741935 C33.2411893,18.2741935 32.9193548,18.596028 32.9193548,18.9929435 L32.9193548,19.3142799 C32.9193548,19.5864829 32.7653887,19.8355004 32.5219412,19.9569978 L31.8083083,20.3140633 C31.7245779,20.3559511 31.5805743,20.3899595 31.4869267,20.3899595 C31.3667425,20.3899595 31.1880966,20.3357997 31.0881545,20.2690508 L30.2437409,19.7061236 C30.1437083,19.6395106 29.965017,19.5854413 29.8448329,19.5854413 C29.7804841,19.5854413 29.6787759,19.6019248 29.6177329,19.6222121 L29.494877,19.6630131 C29.0450695,19.8127678 28.8614423,20.3488415 29.1243621,20.7434476 L29.7383246,21.6643913 C29.8713694,21.8642302 30.0958429,21.9843238 30.33603,21.9843238 L30.7167339,21.9843238 C31.1136494,21.9843238 31.4354839,22.3061583 31.4354839,22.7030738 L31.4354839,23.2289133 C31.4354839,23.3842833 31.3849468,23.5358946 31.291752,23.6601996 L30.4227492,24.8185228 C30.356906,24.9066457 30.3118936,25.0086709 30.2915157,25.1166736 L30.0921296,26.1753264 C30.0633742,26.3278887 29.9859383,26.4670016 29.8713694,26.5722873 C29.506198,26.9067107 28.9868341,27.5124768 28.7120952,27.9244719 L28.1079141,28.8310153 C27.8970258,29.1473251 27.4173761,29.4041315 27.0372157,29.4041315 Z"/>
        <text id="--c-icon-active" fill="#FFF" font-family="SourceSansPro-Regular, Source Sans Pro" font-size="10" font-weight="normal">
          <tspan x="10.04" y="42">Actions</tspan>
        </text>
      </g>
      <g id="Grid" transform="translate(8 95)">
        <g id="Grid-Background" transform="translate(11)">
          <g id="path-4-link" fill-rule="nonzero" stroke="#979797">
            <rect id="--c-border" width="911" height="680" x="0" y="0" rx="4"/>
          </g>
          <g id="path-4-link" fill="#FFF">
            <rect id="--c-surface-bg" width="911" height="679" x="0" y="0" rx="4"/>
          </g>
        </g>
        <g id="Deviders" fill="#DADADA" fill-rule="nonzero" transform="translate(52 168)">
          <rect id="Rectangle" width="1" height="443" x="214" y="0"/>
          <rect id="Rectangle" width="1" height="443" x="0" y="0"/>
          <rect id="Rectangle" width="1" height="443" x="546" y="0"/>
          <rect id="Rectangle" width="1" height="443" x="809" y="0"/>
        </g>
        <g id="--c-text" fill="#292929" fill-opacity=".8" font-size="13.92" transform="translate(808 649)">
          <text font-family="SourceSansPro-Regular, Source Sans Pro">
            <tspan x="0" y="14">Total Records:</tspan>
          </text>
          <text font-family="SourceSansPro-Bold, Source Sans Pro" font-weight="bold">
            <tspan x="90.397" y="14">13</tspan>
          </text>
        </g>
        <g id="Tier-2-Details" transform="translate(.453 129)">
          <polygon id="--c-surface-bg" fill="#FFF" fill-rule="nonzero" points="10.547 39 921.547 39 921.547 482 10.547 482"/>
          <g id="Row-13" fill="#292929" transform="translate(25.548 482)">
            <g id="Group-17" font-family="SourceSansPro-Regular, Source Sans Pro" font-size="16" font-weight="normal" opacity=".8" transform="translate(34.85)">
              <g id="--c-text">
                <text id="TYGO">
                  <tspan x="0" y="16">TYGO</tspan>
                </text>
              </g>
            </g>
            <g id="Group-17-Copy" font-family="SourceSansPro-Regular, Source Sans Pro" font-size="16" font-weight="normal" opacity=".8" transform="translate(252.31)">
              <g id="--c-text">
                <text id="Bill-Anderson">
                  <tspan x="0" y="16">Bill Anderson</tspan>
                </text>
              </g>
            </g>
            <g id="Group-17-Copy-2" font-family="SourceSansPro-Regular, Source Sans Pro" font-size="16" font-weight="normal" opacity=".8" transform="translate(581.73)">
              <g id="--c-text">
                <text id="1">
                  <tspan x="0" y="16">1</tspan>
                </text>
              </g>
            </g>
            <g id="Group-17-Copy-3" font-family="SourceSansPro-Regular, Source Sans Pro" font-size="16" font-weight="normal" opacity=".8" transform="translate(844.703)">
              <g id="--c-text">
                <text id="A31">
                  <tspan x="0" y="16">A31</tspan>
                </text>
              </g>
            </g>
            <path id="--c-text" fill-opacity=".8" fill-rule="nonzero" d="M2.7227256,2.375 L12.5309894,2.375 C13.9117013,2.375 15.0309894,3.49428813 15.0309894,4.875 L15.0309894,14.125 C15.0309894,15.5057119 13.9117013,16.625 12.5309894,16.625 L2.7227256,16.625 C1.34201373,16.625 0.2227256,15.5057119 0.2227256,14.125 L0.2227256,4.875 C0.2227256,3.49428813 1.34201373,2.375 2.7227256,2.375 Z M2.7227256,3.375 C1.89429848,3.375 1.2227256,4.04657288 1.2227256,4.875 L1.2227256,14.125 C1.2227256,14.9534271 1.89429848,15.625 2.7227256,15.625 L12.5309894,15.625 C13.3594165,15.625 14.0309894,14.9534271 14.0309894,14.125 L14.0309894,4.875 C14.0309894,4.04657288 13.3594165,3.375 12.5309894,3.375 L2.7227256,3.375 Z"/>
          </g>
          <g id="Row-12" fill="#292929" transform="translate(25.548 448)">
            <g id="Group-17" font-family="SourceSansPro-Regular, Source Sans Pro" font-size="16" font-weight="normal" opacity=".8" transform="translate(34.85)">
              <g id="--c-text">
                <text id="BERA">
                  <tspan x="0" y="16">BERA</tspan>
                </text>
              </g>
            </g>
            <g id="Group-17-Copy" font-family="SourceSansPro-Regular, Source Sans Pro" font-size="16" font-weight="normal" opacity=".8" transform="translate(252.31)">
              <g id="--c-text">
                <text id="Ben-Randell">
                  <tspan x="0" y="16">Ben Randell</tspan>
                </text>
              </g>
            </g>
            <g id="Group-17-Copy-2" font-family="SourceSansPro-Regular, Source Sans Pro" font-size="16" font-weight="normal" opacity=".8" transform="translate(581.73)">
              <g id="--c-text">
                <text id="1">
                  <tspan x="0" y="16">1</tspan>
                </text>
              </g>
            </g>
            <g id="Group-17-Copy-3" font-family="SourceSansPro-Regular, Source Sans Pro" font-size="16" font-weight="normal" opacity=".8" transform="translate(844.703)">
              <g id="--c-text">
                <text id="A31">
                  <tspan x="0" y="16">A31</tspan>
                </text>
              </g>
            </g>
            <path id="--c-text" fill-opacity=".8" fill-rule="nonzero" d="M2.7227256,2.375 L12.5309894,2.375 C13.9117013,2.375 15.0309894,3.49428813 15.0309894,4.875 L15.0309894,14.125 C15.0309894,15.5057119 13.9117013,16.625 12.5309894,16.625 L2.7227256,16.625 C1.34201373,16.625 0.2227256,15.5057119 0.2227256,14.125 L0.2227256,4.875 C0.2227256,3.49428813 1.34201373,2.375 2.7227256,2.375 Z M2.7227256,3.375 C1.89429848,3.375 1.2227256,4.04657288 1.2227256,4.875 L1.2227256,14.125 C1.2227256,14.9534271 1.89429848,15.625 2.7227256,15.625 L12.5309894,15.625 C13.3594165,15.625 14.0309894,14.9534271 14.0309894,14.125 L14.0309894,4.875 C14.0309894,4.04657288 13.3594165,3.375 12.5309894,3.375 L2.7227256,3.375 Z"/>
          </g>
          <g id="Row-11" fill="#292929" transform="translate(24.571 378)">
            <g id="Group" transform="translate(.022)">
              <g id="--c-text" font-family="SourceSansPro-Regular, Source Sans Pro" font-size="16" font-weight="normal" opacity=".8" transform="translate(37 1)">
                <text id="BBB">
                  <tspan x="0" y="16">BBB</tspan>
                </text>
              </g>
              <path id="--c-text" fill-opacity=".8" fill-rule="nonzero" d="M2.5,3.375 L11.8076791,3.375 C13.188391,3.375 14.3076791,4.49428813 14.3076791,5.875 L14.3076791,15.125 C14.3076791,16.5057119 13.188391,17.625 11.8076791,17.625 L2.5,17.625 C1.11928813,17.625 0,16.5057119 0,15.125 L0,5.875 C0,4.49428813 1.11928813,3.375 2.5,3.375 Z M2.5,4.375 C1.67157288,4.375 1,5.04657288 1,5.875 L1,15.125 C1,15.9534271 1.67157288,16.625 2.5,16.625 L11.8076791,16.625 C12.6361062,16.625 13.3076791,15.9534271 13.3076791,15.125 L13.3076791,5.875 C13.3076791,5.04657288 12.6361062,4.375 11.8076791,4.375 L2.5,4.375 Z"/>
              <g id="Group-17-Copy" font-family="SourceSansPro-Regular, Source Sans Pro" font-size="16" font-weight="normal" opacity=".8" transform="translate(252.07 1)">
                <g id="--c-text">
                  <text id="BBB">
                    <tspan x="0" y="16">BBB</tspan>
                  </text>
                </g>
              </g>
              <g id="Group-17-Copy-2" font-family="SourceSansPro-Regular, Source Sans Pro" font-size="16" font-weight="normal" opacity=".8" transform="translate(582.456)">
                <g id="--c-text">
                  <text id="1">
                    <tspan x="0" y="16.5">1</tspan>
                  </text>
                </g>
              </g>
              <g id="Group-17-Copy-3" font-family="SourceSansPro-Regular, Source Sans Pro" font-size="16" font-weight="normal" opacity=".8" transform="translate(845.575 1)">
                <g id="--c-text">
                  <text id="A11">
                    <tspan x="0" y="16">A11</tspan>
                  </text>
                </g>
              </g>
            </g>
          </g>
          <g id="Row-10" fill="#292929" transform="translate(24.591 345)">
            <g id="Group-17-Copy" font-family="SourceSansPro-Regular, Source Sans Pro" font-size="16" font-weight="normal" opacity=".8" transform="translate(252.174 1)">
              <g id="--c-text">
                <text id="Arch-Welder">
                  <tspan x="0" y="16">Arch Welder</tspan>
                </text>
              </g>
            </g>
            <g id="Group-17-Copy-2" font-family="SourceSansPro-Regular, Source Sans Pro" font-size="16" font-weight="normal" opacity=".8" transform="translate(581.88)">
              <g id="--c-text">
                <text id="1">
                  <tspan x="0" y="16.5">1</tspan>
                </text>
              </g>
            </g>
            <g id="Group-17-Copy-3" font-family="SourceSansPro-Regular, Source Sans Pro" font-size="16" font-weight="normal" opacity=".8" transform="translate(846.028 1)">
              <g id="--c-text">
                <text id="VIRTUA">
                  <tspan x="0" y="16">VIRTUA</tspan>
                </text>
              </g>
            </g>
            <g id="checkbox-copy-3" fill-opacity=".8" fill-rule="nonzero" transform="translate(0 4.5)">
              <path id="--c-text" d="M2.5,0 L11.5,0 C12.8807119,0 14,1.11928813 14,2.5 L14,11.5 C14,12.8807119 12.8807119,14 11.5,14 L2.5,14 C1.11928813,14 0,12.8807119 0,11.5 L0,2.5 C0,1.11928813 1.11928813,0 2.5,0 Z M2.5,1 C1.67157288,1 1,1.67157288 1,2.5 L1,11.5 C1,12.3284271 1.67157288,13 2.5,13 L11.5,13 C12.3284271,13 13,12.3284271 13,11.5 L13,2.5 C13,1.67157288 12.3284271,1 11.5,1 L2.5,1 Z"/>
            </g>
            <g id="--c-text" font-family="SourceSansPro-Regular, Source Sans Pro" font-size="16" font-weight="normal" opacity=".8" transform="translate(37 1)">
              <text id="AW001">
                <tspan x="0" y="16">AW001</tspan>
              </text>
            </g>
          </g>
          <g id="Row-9" transform="translate(11.548 296)">
            <polygon id="Background-light" fill="#FFF" fill-opacity="0" fill-rule="nonzero" points="0 0 951.33 0 951.33 49 0 49"/>
            <g id="Group-17" fill="#292929" font-family="SourceSansPro-Regular, Source Sans Pro" font-size="16" font-weight="normal" opacity=".8" transform="translate(48.85 16)">
              <g id="--c-text">
                <text id="BERA">
                  <tspan x="0" y="16">BERA</tspan>
                </text>
              </g>
            </g>
            <g id="Group-17-Copy" fill="#292929" font-family="SourceSansPro-Regular, Source Sans Pro" font-size="16" font-weight="normal" opacity=".8" transform="translate(266.31 16)">
              <g id="--c-text">
                <text id="Ben-Randell">
                  <tspan x="0" y="16">Ben Randell</tspan>
                </text>
              </g>
            </g>
            <g id="Group-17-Copy-2" fill="#292929" font-family="SourceSansPro-Regular, Source Sans Pro" font-size="16" font-weight="normal" opacity=".8" transform="translate(595.73 16)">
              <g id="--c-text">
                <text id="1">
                  <tspan x="0" y="16">1</tspan>
                </text>
              </g>
            </g>
            <g id="Group-17-Copy-3" fill="#292929" font-family="SourceSansPro-Regular, Source Sans Pro" font-size="16" font-weight="normal" opacity=".8" transform="translate(858.703 16)">
              <g id="--c-text">
                <text id="A31">
                  <tspan x="0" y="16">A31</tspan>
                </text>
              </g>
            </g>
            <path id="--c-text" fill="#292929" fill-opacity=".8" fill-rule="nonzero" d="M16.7227256,18.375 L26.5309894,18.375 C27.9117013,18.375 29.0309894,19.4942881 29.0309894,20.875 L29.0309894,30.125 C29.0309894,31.5057119 27.9117013,32.625 26.5309894,32.625 L16.7227256,32.625 C15.3420137,32.625 14.2227256,31.5057119 14.2227256,30.125 L14.2227256,20.875 C14.2227256,19.4942881 15.3420137,18.375 16.7227256,18.375 Z M16.7227256,19.375 C15.8942985,19.375 15.2227256,20.0465729 15.2227256,20.875 L15.2227256,30.125 C15.2227256,30.9534271 15.8942985,31.625 16.7227256,31.625 L26.5309894,31.625 C27.3594165,31.625 28.0309894,30.9534271 28.0309894,30.125 L28.0309894,20.875 C28.0309894,20.0465729 27.3594165,19.375 26.5309894,19.375 L16.7227256,19.375 Z"/>
          </g>
          <g id="Row-8" fill="#292929" transform="translate(24.571 276)">
            <g id="Group" transform="translate(.022)">
              <g id="--c-text" font-family="SourceSansPro-Regular, Source Sans Pro" font-size="16" font-weight="normal" opacity=".8" transform="translate(37 1)">
                <text id="BBB">
                  <tspan x="0" y="16">BBB</tspan>
                </text>
              </g>
              <path id="--c-text" fill-opacity=".8" fill-rule="nonzero" d="M2.5,3.375 L11.8076791,3.375 C13.188391,3.375 14.3076791,4.49428813 14.3076791,5.875 L14.3076791,15.125 C14.3076791,16.5057119 13.188391,17.625 11.8076791,17.625 L2.5,17.625 C1.11928813,17.625 0,16.5057119 0,15.125 L0,5.875 C0,4.49428813 1.11928813,3.375 2.5,3.375 Z M2.5,4.375 C1.67157288,4.375 1,5.04657288 1,5.875 L1,15.125 C1,15.9534271 1.67157288,16.625 2.5,16.625 L11.8076791,16.625 C12.6361062,16.625 13.3076791,15.9534271 13.3076791,15.125 L13.3076791,5.875 C13.3076791,5.04657288 12.6361062,4.375 11.8076791,4.375 L2.5,4.375 Z"/>
              <g id="Group-17-Copy" font-family="SourceSansPro-Regular, Source Sans Pro" font-size="16" font-weight="normal" opacity=".8" transform="translate(252.07 1)">
                <g id="--c-text">
                  <text id="BBB">
                    <tspan x="0" y="16">BBB</tspan>
                  </text>
                </g>
              </g>
              <g id="Group-17-Copy-2" font-family="SourceSansPro-Regular, Source Sans Pro" font-size="16" font-weight="normal" opacity=".8" transform="translate(582.456)">
                <g id="--c-text">
                  <text id="1">
                    <tspan x="0" y="16.5">1</tspan>
                  </text>
                </g>
              </g>
              <g id="Group-17-Copy-3" font-family="SourceSansPro-Regular, Source Sans Pro" font-size="16" font-weight="normal" opacity=".8" transform="translate(845.575 1)">
                <g id="--c-text">
                  <text id="A11">
                    <tspan x="0" y="16">A11</tspan>
                  </text>
                </g>
              </g>
            </g>
          </g>
          <g id="Row-7" fill="#292929" transform="translate(24.591 241)">
            <g id="Group-17-Copy" font-family="SourceSansPro-Regular, Source Sans Pro" font-size="16" font-weight="normal" opacity=".8" transform="translate(252.174 1)">
              <g id="--c-text">
                <text id="Arch-Welder">
                  <tspan x="0" y="16">Arch Welder</tspan>
                </text>
              </g>
            </g>
            <g id="Group-17-Copy-2" font-family="SourceSansPro-Regular, Source Sans Pro" font-size="16" font-weight="normal" opacity=".8" transform="translate(581.88)">
              <g id="--c-text">
                <text id="1">
                  <tspan x="0" y="16.5">1</tspan>
                </text>
              </g>
            </g>
            <g id="Group-17-Copy-3" font-family="SourceSansPro-Regular, Source Sans Pro" font-size="16" font-weight="normal" opacity=".8" transform="translate(846.028 1)">
              <g id="--c-text">
                <text id="VIRTUA">
                  <tspan x="0" y="16">VIRTUA</tspan>
                </text>
              </g>
            </g>
            <g id="checkbox-copy-3" fill-opacity=".8" fill-rule="nonzero" transform="translate(0 4.5)">
              <path id="--c-text" d="M2.5,0 L11.5,0 C12.8807119,0 14,1.11928813 14,2.5 L14,11.5 C14,12.8807119 12.8807119,14 11.5,14 L2.5,14 C1.11928813,14 0,12.8807119 0,11.5 L0,2.5 C0,1.11928813 1.11928813,0 2.5,0 Z M2.5,1 C1.67157288,1 1,1.67157288 1,2.5 L1,11.5 C1,12.3284271 1.67157288,13 2.5,13 L11.5,13 C12.3284271,13 13,12.3284271 13,11.5 L13,2.5 C13,1.67157288 12.3284271,1 11.5,1 L2.5,1 Z"/>
            </g>
            <g id="--c-text" font-family="SourceSansPro-Regular, Source Sans Pro" font-size="16" font-weight="normal" opacity=".8" transform="translate(37 1)">
              <text id="AW001">
                <tspan x="0" y="16">AW001</tspan>
              </text>
            </g>
          </g>
          <g id="Row-6" transform="translate(9.571 159)">
            <polygon id="Background-light" points=".976 0 911.976 0 911.976 49 .976 49"/>
            <path id="--c-text" fill="#292929" fill-opacity=".8" fill-rule="nonzero" d="M16.4539745,17.375 L26.2716669,17.375 C27.6523788,17.375 28.7716669,18.4942881 28.7716669,19.875 L28.7716669,29.125 C28.7716669,30.5057119 27.6523788,31.625 26.2716669,31.625 L16.4539745,31.625 C15.0732626,31.625 13.9539745,30.5057119 13.9539745,29.125 L13.9539745,19.875 C13.9539745,18.4942881 15.0732626,17.375 16.4539745,17.375 Z M16.4539745,18.375 C15.6255474,18.375 14.9539745,19.0465729 14.9539745,19.875 L14.9539745,29.125 C14.9539745,29.9534271 15.6255474,30.625 16.4539745,30.625 L26.2716669,30.625 C27.100094,30.625 27.7716669,29.9534271 27.7716669,29.125 L27.7716669,19.875 C27.7716669,19.0465729 27.100094,18.375 26.2716669,18.375 L16.4539745,18.375 Z"/>
            <g id="Group-17" fill="#292929" font-family="SourceSansPro-Regular, Source Sans Pro" font-size="16" font-weight="normal" opacity=".8" transform="translate(51.68 15)">
              <g id="--c-text">
                <text id="ANWA">
                  <tspan x="0" y="16">ANWA</tspan>
                </text>
              </g>
            </g>
            <g id="Group-17-Copy" fill="#292929" font-family="SourceSansPro-Regular, Source Sans Pro" font-size="16" font-weight="normal" opacity=".8" transform="translate(267.218 15)">
              <g id="--c-text">
                <text id="Andre-Watson">
                  <tspan x="0" y="16">Andre Watson</tspan>
                </text>
              </g>
            </g>
            <g id="Group-17-Copy-2" fill="#292929" font-family="SourceSansPro-Regular, Source Sans Pro" font-size="16" font-weight="normal" opacity=".8" transform="translate(596.955 14)">
              <g id="--c-text">
                <text id="1">
                  <tspan x="0" y="16.5">1</tspan>
                </text>
              </g>
            </g>
            <g id="Group-17-Copy-3" fill="#292929" font-family="SourceSansPro-Regular, Source Sans Pro" font-size="16" font-weight="normal" opacity=".8" transform="translate(860.126 15)">
              <g id="--c-text">
                <text id="A11">
                  <tspan x="0" y="16">A11</tspan>
                </text>
              </g>
            </g>
          </g>
          <g id="Row-5" transform="translate(.56 133)">
            <g id="Group-17" opacity=".8" transform="translate(9.256)">
              <rect id="--c-hover" width="911" height="34" x=".731" y="0" fill="#DBDBDB" fill-rule="nonzero"/>
              <text id="--c-text" fill="#292929" font-family="SourceSansPro-Regular, Source Sans Pro" font-size="16" font-weight="normal" transform="translate(51 8)">
                <tspan x="0" y="16">ANSM</tspan>
              </text>
            </g>
            <g id="Group-17-Copy" fill="#292929" font-family="SourceSansPro-Regular, Source Sans Pro" font-size="16" font-weight="normal" opacity=".8" transform="translate(275.618 8)">
              <g id="--c-text">
                <text id="Anton-Smith">
                  <tspan x="0" y="16">Anton Smith</tspan>
                </text>
              </g>
            </g>
            <g id="Group-17-Copy-2" fill="#292929" font-family="SourceSansPro-Regular, Source Sans Pro" font-size="16" font-weight="normal" transform="translate(606.168 7)">
              <g id="--c-text">
                <text id="1">
                  <tspan x="0" y="16.5">1</tspan>
                </text>
              </g>
            </g>
            <g id="Group-17-Copy-3" fill="#292929" font-family="SourceSansPro-Regular, Source Sans Pro" font-size="16" font-weight="normal" opacity=".8" transform="translate(869.192 8)">
              <g id="--c-text">
                <text id="A31">
                  <tspan x="0" y="16">A31</tspan>
                </text>
              </g>
            </g>
            <g id="checkbox" opacity="0" transform="translate(0 7.5)">
              <g id="check">
                <rect id="checkbox-on-hover-copy" width="20" height="20" x="0" y="0" fill="#292929" fill-opacity=".8" fill-rule="nonzero" stroke="#9B9B9B" stroke-width="2" rx="2"/>
                <g id="tick-copy-3" transform="translate(2 4)">
                  <g id="path-6-link" fill="#000" fill-rule="nonzero">
                    <polygon id="path-6" points="5.714 12 0 6.232 1.611 4.611 5.714 8.727 14.389 0 16 1.633"/>
                  </g>
                  <g id="path-6-link" fill="#FFF">
                    <polygon id="path-6" points="5.714 12 0 6.232 1.611 4.611 5.714 8.727 14.389 0 16 1.633"/>
                  </g>
                </g>
              </g>
              <rect id="checkbox-on-hover-copy-2" width="20" height="20" x="0" y="0" fill="#9B9B9B" fill-rule="nonzero" stroke="#9B9B9B" stroke-width="2" rx="2"/>
            </g>
            <path id="--c-text" fill="#292929" fill-opacity=".8" fill-rule="nonzero" d="M26.0537541,10.375 L35.8644084,10.375 C37.2451203,10.375 38.3644084,11.4942881 38.3644084,12.875 L38.3644084,22.125 C38.3644084,23.5057119 37.2451203,24.625 35.8644084,24.625 L26.0537541,24.625 C24.6730422,24.625 23.5537541,23.5057119 23.5537541,22.125 L23.5537541,12.875 C23.5537541,11.4942881 24.6730422,10.375 26.0537541,10.375 Z M26.0537541,11.375 C25.225327,11.375 24.5537541,12.0465729 24.5537541,12.875 L24.5537541,22.125 C24.5537541,22.9534271 25.225327,23.625 26.0537541,23.625 L35.8644084,23.625 C36.6928355,23.625 37.3644084,22.9534271 37.3644084,22.125 L37.3644084,12.875 C37.3644084,12.0465729 36.6928355,11.375 35.8644084,11.375 L26.0537541,11.375 Z"/>
          </g>
          <g id="Row-4" fill="#292929" transform="translate(22.574 106)">
            <path id="--c-text" fill-opacity=".8" fill-rule="nonzero" d="M3.3862774,3.375 L12.1362044,3.375 C13.5169163,3.375 14.6362044,4.49428813 14.6362044,5.875 L14.6362044,15.125 C14.6362044,16.5057119 13.5169163,17.625 12.1362044,17.625 L3.3862774,17.625 C2.00556553,17.625 0.8862774,16.5057119 0.8862774,15.125 L0.8862774,5.875 C0.8862774,4.49428813 2.00556553,3.375 3.3862774,3.375 Z M3.3862774,4.375 C2.55785028,4.375 1.8862774,5.04657288 1.8862774,5.875 L1.8862774,15.125 C1.8862774,15.9534271 2.55785028,16.625 3.3862774,16.625 L12.1362044,16.625 C12.9646315,16.625 13.6362044,15.9534271 13.6362044,15.125 L13.6362044,5.875 C13.6362044,5.04657288 12.9646315,4.375 12.1362044,4.375 L3.3862774,4.375 Z"/>
            <g id="Group-17" font-family="SourceSansPro-Regular, Source Sans Pro" font-size="16" font-weight="normal" opacity=".8" transform="translate(38.477 1)">
              <g id="--c-text">
                <text id="ANHO">
                  <tspan x="0" y="16">ANHO</tspan>
                </text>
              </g>
            </g>
            <g id="Group-17-Copy" font-family="SourceSansPro-Regular, Source Sans Pro" font-size="16" font-weight="normal" opacity=".8" transform="translate(254.09 1)">
              <g id="--c-text">
                <text id="Andrew-Howlett">
                  <tspan x="0" y="16">Andrew Howlett</tspan>
                </text>
              </g>
            </g>
            <g id="Group-17-Copy-2" font-family="SourceSansPro-Regular, Source Sans Pro" font-size="16" font-weight="normal" opacity=".8" transform="translate(583.837)">
              <g id="--c-text">
                <text id="1">
                  <tspan x="0" y="16.5">1</tspan>
                </text>
              </g>
            </g>
            <g id="Group-17-Copy-3" font-family="SourceSansPro-Regular, Source Sans Pro" font-size="16" font-weight="normal" opacity=".8" transform="translate(848.017 1)">
              <g id="--c-text">
                <text id="A12">
                  <tspan x="0" y="16">A12</tspan>
                </text>
              </g>
            </g>
          </g>
          <g id="Row-3-Selected" fill="#292929" transform="translate(23.571 72)">
            <g id="--c-text" font-family="SourceSansPro-Regular, Source Sans Pro" font-size="16" font-weight="normal" opacity=".8" transform="translate(38 1)">
              <text id="ALDA">
                <tspan x="0" y="16">ALDA</tspan>
              </text>
            </g>
            <g id="checkbox" fill-opacity=".8" fill-rule="nonzero" transform="translate(0 3.5)">
              <path id="--c-text" d="M2.5,0 L11.5,0 C12.8807119,0 14,1.11928813 14,2.5 L14,11.5 C14,12.8807119 12.8807119,14 11.5,14 L2.5,14 C1.11928813,14 1.11022302e-16,12.8807119 1.11022302e-16,11.5 L1.11022302e-16,2.5 C1.11022302e-16,1.11928813 1.11928813,0 2.5,0 Z M2.5,1 C1.67157288,1 1,1.67157288 1,2.5 L1,11.5 C1,12.3284271 1.67157288,13 2.5,13 L11.5,13 C12.3284271,13 13,12.3284271 13,11.5 L13,2.5 C13,1.67157288 12.3284271,1 11.5,1 L2.5,1 Z"/>
            </g>
            <g id="Group-17-Copy" font-family="SourceSansPro-Regular, Source Sans Pro" font-size="16" font-weight="normal" opacity=".8" transform="translate(253.218 1)">
              <g id="--c-text">
                <text id="Alan-Dawson">
                  <tspan x="0" y="16">Alan Dawson</tspan>
                </text>
              </g>
            </g>
            <g id="Group-17-Copy-2" font-family="SourceSansPro-Regular, Source Sans Pro" font-size="16" font-weight="normal" opacity=".8" transform="translate(582.955)">
              <g id="--c-text">
                <text id="1">
                  <tspan x="0" y="16.5">1</tspan>
                </text>
              </g>
            </g>
            <g id="Group-17-Copy-3" font-family="SourceSansPro-Regular, Source Sans Pro" font-size="16" font-weight="normal" opacity=".8" transform="translate(846.126 1)">
              <g id="--c-text">
                <text id="A31">
                  <tspan x="0" y="16">A31</tspan>
                </text>
              </g>
            </g>
          </g>
          <g id="Row-2" transform="translate(9.571 32)">
            <rect id="--c-item-selected" width="911" height="34" x=".976" y="0" fill="#BAD8EC" fill-rule="nonzero"/>
            <g id="checkbox" transform="translate(13 9.5)">
              <g id="check" transform="translate(.02 .5)">
                <rect id="--c-accent" width="13.5" height="13.5" x=".5" y=".5" fill="#0076C2" fill-rule="nonzero" rx="2"/>
                <g id="tick-copy-3" transform="translate(2 3)">
                  <g id="path-8-link" fill="#000" fill-rule="nonzero">
                    <polygon id="path-8" points="3.81 8 0 4.155 1.074 3.074 3.81 5.818 9.592 0 10.667 1.089"/>
                  </g>
                  <g id="path-8-link" fill="#FFF">
                    <polygon id="path-8" points="3.81 8 0 4.155 1.074 3.074 3.81 5.818 9.592 0 10.667 1.089"/>
                  </g>
                </g>
              </g>
            </g>
            <g id="Group-17" fill="#292929" font-family="SourceSansPro-Regular, Source Sans Pro" font-size="16" font-weight="normal" opacity=".8" transform="translate(51.68 6)">
              <g id="--c-text">
                <text id="ADMIN">
                  <tspan x="0" y="16">ADMIN</tspan>
                </text>
              </g>
            </g>
            <g id="Group-17-Copy" fill="#292929" font-family="SourceSansPro-Regular, Source Sans Pro" font-size="16" font-weight="normal" opacity=".8" transform="translate(267.218 6)">
              <g id="--c-text">
                <text id="A21-Administrator">
                  <tspan x="0" y="16">A21 Administrator</tspan>
                </text>
              </g>
            </g>
            <g id="Group-17-Copy-2" fill="#292929" font-family="SourceSansPro-Regular, Source Sans Pro" font-size="16" font-weight="normal" opacity=".8" transform="translate(596.955 5)">
              <g id="--c-text">
                <text id="1">
                  <tspan x="0" y="16.5">1</tspan>
                </text>
              </g>
            </g>
            <g id="Group-17-Copy-3" fill="#292929" font-family="SourceSansPro-Regular, Source Sans Pro" font-size="16" font-weight="normal" opacity=".8" transform="translate(860.126 6)">
              <g id="--c-text">
                <text id="A21">
                  <tspan x="0" y="16">A21</tspan>
                </text>
              </g>
            </g>
          </g>
          <g id="Row-border" fill="#DADADA" fill-rule="nonzero" transform="translate(10.547)">
            <polygon id="--c-border" points="454.5 -185.5 455.5 -185.5 455.5 724.5 454.5 724.5" transform="rotate(90 455 269.5)"/>
            <polygon id="--c-border" points="454.5 -150.5 455.5 -150.5 455.5 759.5 454.5 759.5" transform="rotate(90 455 304.5)"/>
            <polygon id="--c-border" points="454.5 -116.5 455.5 -116.5 455.5 793.5 454.5 793.5" transform="rotate(90 455 338.5)"/>
            <polygon id="--c-border" points="454.5 -82.5 455.5 -82.5 455.5 827.5 454.5 827.5" transform="rotate(90 455 372.5)"/>
            <polygon id="--c-border" points="454.5 -48.5 455.5 -48.5 455.5 861.5 454.5 861.5" transform="rotate(90 455 406.5)"/>
            <polygon id="--c-border" points="454.5 -14.5 455.5 -14.5 455.5 895.5 454.5 895.5" transform="rotate(90 455 440.5)"/>
            <polygon id="--c-border" points="454.5 19.5 455.5 19.5 455.5 929.5 454.5 929.5" transform="rotate(90 455 474.5)"/>
            <polygon id="--c-border" points="454.5 53.5 455.5 53.5 455.5 963.5 454.5 963.5" transform="rotate(90 455 508.5)"/>
            <polygon id="--c-border" points="454 -219 455 -219 455 690 454 690" transform="rotate(90 454.5 235.5)"/>
            <polygon id="--c-border" points="454 -253 455 -253 455 656 454 656" transform="rotate(90 454.5 201.5)"/>
            <polygon id="--c-border" points="454.5 -287.5 455.5 -287.5 455.5 622.5 454.5 622.5" transform="rotate(90 455 167.5)"/>
            <polygon id="--c-border" points="454.5 -321.5 455.5 -321.5 455.5 588.5 454.5 588.5" transform="rotate(90 455 133.5)"/>
            <polygon id="--c-border" points="454.5 -355.5 455.5 -355.5 455.5 554.5 454.5 554.5" transform="rotate(90 455 99.5)"/>
            <polygon id="--c-border" points="454 -389 455 -389 455 520 454 520" transform="rotate(90 454.5 65.5)"/>
            <polygon id="--c-border" points="454 -423 455 -423 455 486 454 486" transform="rotate(90 454.5 31.5)"/>
            <polygon id="--c-border" points="455 -454 456 -454 456 455 455 455" transform="rotate(90 455.5 .5)"/>
          </g>
        </g>
        <g id="Grid-Top" fill="#292929" fill-opacity=".8" transform="translate(24 104)">
          <g id="--c-text" font-family="SourceSansPro-Bold, Source Sans Pro" font-size="13.92" font-weight="bold" transform="translate(846)">
            <text id="--c-subheading">
              <tspan x="0" y="14">Site Cod</tspan>
            </text>
          </g>
          <g id="--c-text" font-family="SourceSansPro-Bold, Source Sans Pro" font-size="14" font-weight="bold" transform="translate(580)">
            <text id="--c-subheading">
              <tspan x=".734" y="14">Sequence Number</tspan>
            </text>
          </g>
          <g id="--c-text" font-family="SourceSansPro-Bold, Source Sans Pro" font-size="14" font-weight="bold" transform="translate(251)">
            <text id="--c-subheading">
              <tspan x=".336" y="14">First Name</tspan>
            </text>
          </g>
          <g id="--c-text" font-family="SourceSansPro-Bold, Source Sans Pro" font-size="14" font-weight="bold" transform="translate(36)">
            <text id="--c-subheading">
              <tspan x="0" y="14">Code</tspan>
            </text>
          </g>
          <path id="--c-text" fill-rule="nonzero" d="M2.41430177,2 L11.5856982,2 C12.9190803,2 14,3.19923728 14,4.67857143 L14,14.3214286 C14,15.8007627 12.9190803,17 11.5856982,17 L2.41430177,17 C1.08091972,17 0,15.8007627 0,14.3214286 L0,4.67857143 C0,3.19923728 1.08091972,2 2.41430177,2 Z M2.41430177,3.07142857 C1.61427254,3.07142857 0.965720709,3.79097094 0.965720709,4.67857143 L0.965720709,14.3214286 C0.965720709,15.2090291 1.61427254,15.9285714 2.41430177,15.9285714 L11.5856982,15.9285714 C12.3857275,15.9285714 13.0342793,15.2090291 13.0342793,14.3214286 L13.0342793,4.67857143 C13.0342793,3.79097094 12.3857275,3.07142857 11.5856982,3.07142857 L2.41430177,3.07142857 Z"/>
        </g>
        <g id="Vertical-Borders" fill="#DADADA" fill-rule="nonzero" transform="translate(267 97)">
          <rect id="--c-border" width="1" height="541" x="593" y="0"/>
          <rect id="--c-border" width="1" height="541" x="330" y="0"/>
          <rect id="--c-border" width="1" height="541" x="0" y="0"/>
        </g>
        <g id="Group-Headings" transform="translate(10.453 130)">
          <g id="Group-3" transform="translate(0 406)">
            <rect id="--c-group-item-bg" width="911" height="33" x=".547" y="0" fill="#F4F4F4"/>
            <path id="--c-text" fill="#292929" fill-opacity=".8" fill-rule="nonzero" d="M15.9615348,9 L25.1329312,9 C26.4663133,9 27.547233,10.1992373 27.547233,11.6785714 L27.547233,21.3214286 C27.547233,22.8007627 26.4663133,24 25.1329312,24 L15.9615348,24 C14.6281527,24 13.547233,22.8007627 13.547233,21.3214286 L13.547233,11.6785714 C13.547233,10.1992373 14.6281527,9 15.9615348,9 Z M15.9615348,10.0714286 C15.1615055,10.0714286 14.5129537,10.7909709 14.5129537,11.6785714 L14.5129537,21.3214286 C14.5129537,22.2090291 15.1615055,22.9285714 15.9615348,22.9285714 L25.1329312,22.9285714 C25.9329605,22.9285714 26.5815123,22.2090291 26.5815123,21.3214286 L26.5815123,11.6785714 C26.5815123,10.7909709 25.9329605,10.0714286 25.1329312,10.0714286 L15.9615348,10.0714286 Z"/>
            <path id="--c-text" fill="#000" fill-rule="nonzero" d="M49.2272194,20.1753236 L54.8252703,14.5772727 C54.9508979,14.451619 54.9508979,14.2484532 54.8252703,14.1227995 L54.2959218,13.5934771 C54.1702942,13.4678234 53.9671023,13.4678234 53.8414486,13.5934771 L48.9999828,18.4242651 L44.158517,13.5934771 C44.0328633,13.4678234 43.8296714,13.4678234 43.7040438,13.5934771 L43.1746954,14.1227995 C43.0490678,14.2484532 43.0490678,14.451619 43.1746954,14.5772727 L48.7727462,20.1753236 C48.8983999,20.3009772 49.1015657,20.3009772 49.2272194,20.1753236 Z"/>
            <g id="--c-text" fill="#000" font-family="SourceSansPro-Regular, Source Sans Pro" font-size="16" font-weight="normal" transform="translate(70.547 6)">
              <text id="Group-3">
                <tspan x="0" y="16">Group 3</tspan>
              </text>
            </g>
          </g>
          <g id="Group-2" transform="translate(0 201)">
            <rect id="--c-group-item-bg" width="911" height="33" x=".547" y="0" fill="#F4F4F4"/>
            <path id="--c-text" fill="#292929" fill-opacity=".8" fill-rule="nonzero" d="M15.9615348,9 L25.1329312,9 C26.4663133,9 27.547233,10.1992373 27.547233,11.6785714 L27.547233,21.3214286 C27.547233,22.8007627 26.4663133,24 25.1329312,24 L15.9615348,24 C14.6281527,24 13.547233,22.8007627 13.547233,21.3214286 L13.547233,11.6785714 C13.547233,10.1992373 14.6281527,9 15.9615348,9 Z M15.9615348,10.0714286 C15.1615055,10.0714286 14.5129537,10.7909709 14.5129537,11.6785714 L14.5129537,21.3214286 C14.5129537,22.2090291 15.1615055,22.9285714 15.9615348,22.9285714 L25.1329312,22.9285714 C25.9329605,22.9285714 26.5815123,22.2090291 26.5815123,21.3214286 L26.5815123,11.6785714 C26.5815123,10.7909709 25.9329605,10.0714286 25.1329312,10.0714286 L15.9615348,10.0714286 Z"/>
            <path id="--c-text" fill="#000" fill-rule="nonzero" d="M49.2272194,20.1753236 L54.8252703,14.5772727 C54.9508979,14.451619 54.9508979,14.2484532 54.8252703,14.1227995 L54.2959218,13.5934771 C54.1702942,13.4678234 53.9671023,13.4678234 53.8414486,13.5934771 L48.9999828,18.4242651 L44.158517,13.5934771 C44.0328633,13.4678234 43.8296714,13.4678234 43.7040438,13.5934771 L43.1746954,14.1227995 C43.0490678,14.2484532 43.0490678,14.451619 43.1746954,14.5772727 L48.7727462,20.1753236 C48.8983999,20.3009772 49.1015657,20.3009772 49.2272194,20.1753236 Z"/>
            <g id="--c-text" fill="#000" font-family="SourceSansPro-Regular, Source Sans Pro" font-size="16" font-weight="normal" transform="translate(70.547 6)">
              <text id="Group-2">
                <tspan x="0" y="16">Group 2</tspan>
              </text>
            </g>
          </g>
          <g id="Group-1">
            <rect id="--c-group-item-bg" width="911" height="32" x=".547" y="0" fill="#F4F4F4"/>
            <path id="--c-text" fill="#292929" fill-opacity=".8" fill-rule="nonzero" d="M15.9615348,9 L25.1329312,9 C26.4663133,9 27.547233,10.1992373 27.547233,11.6785714 L27.547233,21.3214286 C27.547233,22.8007627 26.4663133,24 25.1329312,24 L15.9615348,24 C14.6281527,24 13.547233,22.8007627 13.547233,21.3214286 L13.547233,11.6785714 C13.547233,10.1992373 14.6281527,9 15.9615348,9 Z M15.9615348,10.0714286 C15.1615055,10.0714286 14.5129537,10.7909709 14.5129537,11.6785714 L14.5129537,21.3214286 C14.5129537,22.2090291 15.1615055,22.9285714 15.9615348,22.9285714 L25.1329312,22.9285714 C25.9329605,22.9285714 26.5815123,22.2090291 26.5815123,21.3214286 L26.5815123,11.6785714 C26.5815123,10.7909709 25.9329605,10.0714286 25.1329312,10.0714286 L15.9615348,10.0714286 Z"/>
            <path id="--c-text" fill="#000" fill-rule="nonzero" d="M49.2272194,20.1753236 L54.8252703,14.5772727 C54.9508979,14.451619 54.9508979,14.2484532 54.8252703,14.1227995 L54.2959218,13.5934771 C54.1702942,13.4678234 53.9671023,13.4678234 53.8414486,13.5934771 L48.9999828,18.4242651 L44.158517,13.5934771 C44.0328633,13.4678234 43.8296714,13.4678234 43.7040438,13.5934771 L43.1746954,14.1227995 C43.0490678,14.2484532 43.0490678,14.451619 43.1746954,14.5772727 L48.7727462,20.1753236 C48.8983999,20.3009772 49.1015657,20.3009772 49.2272194,20.1753236 Z"/>
            <g id="--c-text" fill="#000" font-family="SourceSansPro-Regular, Source Sans Pro" font-size="16" font-weight="normal" transform="translate(70.547 6)">
              <text id="Group-1">
                <tspan x="0" y="16">Group 1</tspan>
              </text>
            </g>
          </g>
        </g>
        <g id="Filter-Area" transform="translate(11 51)">
          <rect id="--c-filter-bar" width="911" height="45" x="0" y="0" fill="#F2F2F2"/>
          <polygon id="--c-border" fill="#DADADA" fill-rule="nonzero" points="453.5 -377.5 456.5 -377.5 456.5 532.5 453.5 532.5" transform="rotate(90 455 77.5)"/>
          <polygon id="--c-border" fill="#DADADA" fill-rule="nonzero" points="455.5 -410.5 456.5 -410.5 456.5 499.5 455.5 499.5" transform="rotate(90 456 44.5)"/>
          <text id="--c-placeholder-text" fill="#A8A9AE" font-family="SourceSansPro-Regular, Source Sans Pro" font-size="14" font-weight="normal">
            <tspan x="13" y="27">Drag from the grid to group by field</tspan>
          </text>
        </g>
        <g id="Top" transform="translate(11)">
          <g id="card-bg-copy-5">
            <g id="path-15-link" fill="#000" fill-rule="nonzero" transform="translate(3 2)">
              <path id="path-15" d="M2.35844156,0 L905.641558,0 C906.94409,0 908,1.790861 908,4 L908,48 L0,48 L0,4 C0,1.790861 1.05591025,0 2.35844156,0 Z"/>
            </g>
            <g id="path-15-link">
              <path id="--c-header-bar" fill="#FFF" d="M2.36623377,0 L908.633766,0 C909.940602,0 911,1.86548021 911,4.16666667 L911,50 L4.54747351e-13,50 L4.54747351e-13,4.16666667 C4.54747351e-13,1.86548021 1.05939894,0 2.36623377,0 Z"/>
              <polygon id="--c-border" fill="#DADADA" fill-rule="nonzero" points="455 -405 456 -405 456 506 455 506" transform="rotate(90 455.5 50.5)"/>
            </g>
          </g>
          <g id="--c-s-button" fill="#292929" font-family="SourceSansPro-Bold, Source Sans Pro" font-size="16" font-weight="bold" transform="translate(838 15)">
            <text id="Details">
              <tspan x=".306" y="16.856">Details</tspan>
            </text>
          </g>
          <g id="--c-s-button" fill="#292929" font-family="SourceSansPro-Bold, Source Sans Pro" font-size="16" font-weight="bold" transform="translate(776 15)">
            <text id="Edit">
              <tspan x=".879" y="16.856">Edit</tspan>
            </text>
          </g>
          <path id="--c-text" fill="#292929" fill-rule="nonzero" d="M727.39591 20.6250271L727.39591 19.7500292C727.39591 19.5416962 727.46883 19.3646136 727.61466 19.2187805 727.76049 19.0729473 727.93758 19.0000334 728.14591 19.0000334L731.6459 19.0000334 731.92715 18.4062824C731.98965 18.2812827 732.0834 18.1823245 732.2084 18.1094081 732.3334 18.0364918 732.46882 18.0000334 732.61465 18.0000334L736.17714 18.0000334C736.32297 18.0000334 736.45839 18.0364918 736.58339 18.1094081 736.70839 18.1823245 736.80214 18.2812827 736.86464 18.4062824L737.14589 19.0000334 740.64588 19.0000334C740.85421 19.0000334 741.03129 19.0729473 741.17713 19.2187805 741.32296 19.3646136 741.39588 19.5416962 741.39588 19.7500292L741.39588 20.6250271C741.39588 20.7291934 741.35942 20.8177352 741.2865 20.8906515 741.21359 20.9635678 741.12504 21.0000334 741.02088 21.0000334L727.77091 21.0000334C727.66674 21.0000334 727.5782 20.9635678 727.50529 20.8906515 727.43237 20.8177352 727.39591 20.7291934 727.39591 20.6250271zM740.36463 22.4062729L739.73963 32.5937486C739.7188 32.9895811 739.56255 33.3229134 739.27088 33.5937462 738.97922 33.864579 738.63547 33.9999952 738.23963 33.9999952L730.55215 33.9999952C730.15632 33.9999952 729.81257 33.864579 729.52091 33.5937462 729.22924 33.3229134 729.07299 32.9895811 729.05216 32.5937486L728.42716 22.4062729C728.42716 22.3021066 728.46362 22.2083568 728.53653 22.1250235 728.60945 22.0416903 728.69799 22.0000238 728.80216 22.0000238L739.98963 22.0000238C740.0938 22.0000238 740.18234 22.0416903 740.25526 22.1250235 740.32817 22.2083568 740.36463 22.3021066 740.36463 22.4062729zM697.39581 18.2500328C698.41664 18.2500328 699.38538 18.4375323 700.30205 18.8125314 701.21871 19.1875305 702.03121 19.7187793 702.73954 20.4062776L703.86454 19.2812803C704.01037 19.1354472 704.18746 19.0625308 704.39579 19.0625308 704.60412 19.0625308 704.7812 19.1354472 704.92704 19.2812803 705.07287 19.4271135 705.14579 19.6041961 705.14579 19.8125291L705.14579 24.0000191C705.14579 24.2083521 705.07287 24.3854347 704.92704 24.5312678 704.7812 24.677101 704.60412 24.7500173 704.39579 24.7500173L700.2083 24.7500173C699.99997 24.7500173 699.82288 24.677101 699.67705 24.5312678 699.53122 24.3854347 699.4583 24.2083521 699.4583 24.0000191 699.4583 23.7916861 699.53122 23.6146035 699.67705 23.4687703L700.98955 22.1562735C700.51038 21.7187745 699.96351 21.3750253 699.34893 21.1250259 698.73434 20.8750265 698.09372 20.7500328 697.42706 20.7500328 696.48956 20.7500328 695.61456 20.9844013 694.80206 21.4531501 693.98956 21.921899 693.34373 22.5625225 692.86457 23.3750206 692.3854 24.1875186 692.14582 25.067725 692.14582 26.0156393 692.14582 26.9635535 692.38019 27.8385514 692.84894 28.640633 693.31769 29.4427146 693.95311 30.0781296 694.75519 30.5468785 695.55727 31.0156273 696.43747 31.2500018 697.39581 31.2500018 698.04164 31.2500018 698.66143 31.140627 699.25518 30.9218776 699.84892 30.7031281 700.38538 30.3750039 700.86455 29.9375049 700.92705 29.8750051 701.01038 29.8489636 701.11455 29.8593801 701.21871 29.8697966 701.30205 29.906255 701.36455 29.9687548L702.61454 31.2187519C702.67704 31.2812517 702.70829 31.369793 702.70829 31.4843762 702.70829 31.5989594 702.66663 31.6875007 702.58329 31.7500006 701.89579 32.3749991 701.10413 32.8645814 700.2083 33.2187471 699.31247 33.5729128 698.37497 33.7499958 697.39581 33.7499958 695.99998 33.7499958 694.70831 33.4010382 693.52081 32.7031233 692.33332 32.0052085 691.39061 31.0625022 690.6927 29.8750051 689.99478 28.6875079 689.64582 27.3958445 689.64582 26.0000143 689.64582 24.6041841 689.99478 23.3125207 690.6927 22.1250235 691.39061 20.9375264 692.33332 19.9948201 693.52081 19.2969053 694.70831 18.5989904 695.99998 18.2500328 697.39581 18.2500328z"/>
          <g id="--c-text" fill="#272C37" fill-rule="nonzero" transform="translate(652 20.5)">
            <polygon points="16.5 .5 16.5 2.5 .5 2.5 .5 .5"/>
            <polygon points="11 9.5 11 11.5 6 11.5 6 9.5"/>
            <polygon points="13.5 5 13.5 7 3.5 7 3.5 5"/>
          </g>
          <path id="--c-text" fill="#000" fill-rule="nonzero" d="M624.499985 32C624.562484 32 624.619776 31.9739586 624.671859 31.9218752 624.723942 31.8697918 624.749984 31.8125004 624.749984 31.7500006L624.749984 31.7500006 624.749984 26.7500125 629.749972 26.7500125C629.812472 26.7500125 629.869763 26.7239711 629.921847 26.6718877 629.97393 26.6198043 629.999971 26.562513 629.999971 26.5000131L629.999971 26.5000131 629.999971 25.5000155C629.999971 25.4375156 629.97393 25.3802243 629.921847 25.3281409 629.869763 25.2760575 629.812472 25.2500161 629.749972 25.2500161L629.749972 25.2500161 624.749984 25.2500161 624.749984 20.250028C624.749984 20.1875282 624.723942 20.1302368 624.671859 20.0781534 624.619776 20.0260701 624.562484 20.0000286 624.499985 20.0000286L624.499985 20.0000286 623.499987 20.0000286C623.437487 20.0000286 623.380196 20.0260701 623.328112 20.0781534 623.276029 20.1302368 623.249987 20.1875282 623.249987 20.250028L623.249987 20.250028 623.249987 25.2500161 618.249999 25.2500161C618.1875 25.2500161 618.130208 25.2760575 618.078125 25.3281409 618.026041 25.3802243 618 25.4375156 618 25.5000155L618 25.5000155 618 26.5000131C618 26.562513 618.026041 26.6198043 618.078125 26.6718877 618.130208 26.7239711 618.1875 26.7500125 618.249999 26.7500125L618.249999 26.7500125 623.249987 26.7500125 623.249987 31.7500006C623.249987 31.8125004 623.276029 31.8697918 623.328112 31.9218752 623.380196 31.9739586 623.437487 32 623.499987 32L623.499987 32 624.499985 32zM586.249983 24.0000191C586.458316 24.0000191 586.635398 23.9271027 586.781231 23.7812696 586.927065 23.6354365 586.999981 23.4583539 586.999981 23.2500209L586.999981 23.2500209 586.999981 22.000031 594.749962 22.000031C594.812462 22.000031 594.869754 21.9739824 594.921837 21.921899 594.97392 21.8698157 594.999962 21.8125243 594.999962 21.7500244L594.999962 21.7500244 594.999962 21.2500256C594.999962 21.1875258 594.97392 21.1302344 594.921837 21.078151 594.869754 21.0260677 594.812462 21.000031 594.749962 21.000031L594.749962 21.000031 586.999981 21.000031 586.999981 19.7500292C586.999981 19.5416962 586.927065 19.3646136 586.781231 19.2187805 586.635398 19.0729473 586.458316 19.000031 586.249983 19.000031L586.249983 19.000031 584.749986 19.000031C584.541653 19.000031 584.364571 19.0729473 584.218738 19.2187805 584.072904 19.3646136 583.999988 19.5416962 583.999988 19.7500292L583.999988 19.7500292 583.999988 21.000031 579.249999 21.000031C579.1875 21.000031 579.130208 21.0260677 579.078125 21.078151 579.026041 21.1302344 579 21.1875258 579 21.2500256L579 21.2500256 579 21.7500244C579 21.8125243 579.026041 21.8698157 579.078125 21.921899 579.130208 21.9739824 579.1875 22.000031 579.249999 22.000031L579.249999 22.000031 583.999988 22.000031 583.999988 23.2500209C583.999988 23.4583539 584.072904 23.6354365 584.218738 23.7812696 584.364571 23.9271027 584.541653 24.0000191 584.749986 24.0000191L584.749986 24.0000191 586.249983 24.0000191zM585.999985 23.0000286L584.999985 23.0000286 584.999985 20.0000286 585.999985 20.0000286 585.999985 23.0000286zM591.249971 28.5000083C591.458304 28.5000083 591.635386 28.427092 591.78122 28.2812589 591.927053 28.1354257 591.999969 27.9583431 591.999969 27.7500101L591.999969 27.7500101 591.999969 26.5000203 594.749962 26.5000203C594.812462 26.5000203 594.869754 26.4739717 594.921837 26.4218883 594.97392 26.3698049 594.999962 26.3125136 594.999962 26.2500137L594.999962 26.2500137 594.999962 25.7500149C594.999962 25.6875151 594.97392 25.6302237 594.921837 25.5781403 594.869754 25.5260569 594.812462 25.5000203 594.749962 25.5000203L594.749962 25.5000203 591.999969 25.5000203 591.999969 24.2500185C591.999969 24.0416855 591.927053 23.8646029 591.78122 23.7187697 591.635386 23.5729366 591.458304 23.5000203 591.249971 23.5000203L591.249971 23.5000203 589.749974 23.5000203C589.541641 23.5000203 589.364559 23.5729366 589.218726 23.7187697 589.072892 23.8646029 588.999976 24.0416855 588.999976 24.2500185L588.999976 24.2500185 588.999976 25.5000203 579.249999 25.5000203C579.1875 25.5000203 579.130208 25.5260569 579.078125 25.5781403 579.026041 25.6302237 579 25.6875151 579 25.7500149L579 25.7500149 579 26.2500137C579 26.3125136 579.026041 26.3698049 579.078125 26.4218883 579.130208 26.4739717 579.1875 26.5000203 579.249999 26.5000203L579.249999 26.5000203 588.999976 26.5000203 588.999976 27.7500101C588.999976 27.9583431 589.072892 28.1354257 589.218726 28.2812589 589.364559 28.427092 589.541641 28.5000083 589.749974 28.5000083L589.749974 28.5000083 591.249971 28.5000083zM590.999973 27.5000179L589.999973 27.5000179 589.999973 24.5000179 590.999973 24.5000179 590.999973 27.5000179zM584.249987 32.9999976C584.45832 32.9999976 584.635403 32.9270813 584.781236 32.7812481 584.927069 32.635415 584.999986 32.4583324 584.999986 32.2499994L584.999986 32.2499994 584.999986 31.0000095 594.749962 31.0000095C594.812462 31.0000095 594.869754 30.9739609 594.921837 30.9218776 594.97392 30.8697942 594.999962 30.8125028 594.999962 30.750003L594.999962 30.750003 594.999962 30.2500042C594.999962 30.1875043 594.97392 30.130213 594.921837 30.0781296 594.869754 30.0260462 594.812462 30.0000095 594.749962 30.0000095L594.749962 30.0000095 584.999986 30.0000095 584.999986 28.7500077C584.999986 28.5416748 584.927069 28.3645922 584.781236 28.218759 584.635403 28.0729259 584.45832 28.0000095 584.249987 28.0000095L584.249987 28.0000095 582.749991 28.0000095C582.541658 28.0000095 582.364575 28.0729259 582.218742 28.218759 582.072909 28.3645922 582 28.5416748 582 28.7500077L582 28.7500077 582 30.0000095 579.249999 30.0000095C579.1875 30.0000095 579.130208 30.0260462 579.078125 30.0781296 579.026041 30.130213 579 30.1875043 579 30.2500042L579 30.2500042 579 30.750003C579 30.8125028 579.026041 30.8697942 579.078125 30.9218776 579.130208 30.9739609 579.1875 31.0000095 579.249999 31.0000095L579.249999 31.0000095 582 31.0000095 582 32.2499994C582 32.4583324 582.072909 32.635415 582.218742 32.7812481 582.364575 32.9270813 582.541658 32.9999976 582.749991 32.9999976L582.749991 32.9999976 584.249987 32.9999976zM583.999989 32.0000072L582.999989 32.0000072 582.999989 29.0000072 583.999989 29.0000072 583.999989 32.0000072zM546.361388 34.001623L546.481424 33.9999954C546.725564 33.980464 546.935524 33.8828082 547.111305 33.7070274 547.287086 33.5312466 547.374976 33.3164035 547.374976 33.0624978L547.374976 33.0624978 547.374976 25.9433752 552.736291 20.6113574C552.912072 20.4160453 552.999962 20.1914368 552.999962 19.937531 552.999962 19.6836252 552.912072 19.4638992 552.736291 19.278353 552.56051 19.0928067 552.335901 19.0000334 552.062464 19.0000334L552.062464 19.0000334 538.937498 19.0000334C538.664061 19.0000334 538.439452 19.0928067 538.263671 19.278353 538.08789 19.4638992 538 19.6836252 538 19.937531 538 20.1914368 538.08789 20.4160453 538.263671 20.6113574L538.263671 20.6113574 543.624986 25.9433752 543.624986 31.4218769C543.624986 31.7148449 543.732408 31.9492193 543.947251 32.1250001L543.947251 32.1250001 545.822246 33.765621C546.017558 33.9414018 546.237284 34.0195267 546.481424 33.9999954L546.361388 34.001623zM546.437479 33.0624978L544.562483 31.4218769 544.562483 25.5625168 538.937498 19.937531 552.062464 19.937531 546.437479 25.5625168 546.437479 33.0624978z"/>
          <g id="--c-heading" fill="#292929" font-family="SourceSansPro-Bold, Source Sans Pro" font-size="16" font-weight="bold" transform="translate(17 15)">
            <text id="Dashboard">
              <tspan x="0" y="16">Dashboard</tspan>
            </text>
          </g>
        </g>
      </g>
      <g id="Breadcrumbs" transform="translate(21 59)">
        <g id="--c-accent" fill="#2776C1" font-family="SourceSansPro-Bold, Source Sans Pro" font-size="12" font-weight="bold" transform="translate(261 9)">
          <text id="5000001078">
            <tspan x="0" y="12">5000001078</tspan>
          </text>
        </g>
        <g id="--c-accent" fill="#2776C1" font-family="SourceSansPro-Regular, Source Sans Pro" font-size="8" font-weight="normal" transform="translate(261)">
          <text id="MeterReading">
            <tspan x="0" y="8">MeterReading</tspan>
          </text>
        </g>
        <path id="--c-text" fill="#292929" fill-rule="nonzero" d="M246.828106,15.3750206 L241.29687,20.8125076 C241.20312,20.9375075 241.07812,21.0000072 240.92187,21.0000072 C240.765621,21.0000072 240.624996,20.9375075 240.499996,20.8125076 L240.171872,20.4843834 C240.046872,20.3906336 239.984373,20.2656337 239.984373,20.1093843 C239.984373,19.9531349 240.046872,19.8125102 240.171872,19.6875103 L244.953111,15.0000215 L240.171872,10.3125326 C240.078122,10.1875327 240.031248,10.046908 240.031248,9.89065864 C240.031248,9.73440925 240.078122,9.60940931 240.171872,9.51565953 L240.499996,9.14066043 C240.624996,9.04691065 240.765621,9.00003576 240.92187,9.00003576 C241.07812,9.00003576 241.20312,9.04691065 241.29687,9.14066043 L246.828106,14.5781475 C246.921856,14.7031474 246.968731,14.8437721 246.968731,15.0000215 C246.968731,15.1562708 246.921856,15.2968955 246.828106,15.4218955 L246.828106,15.3750206 Z"/>
        <g id="--c-text" fill="#292C36" font-family="SourceSansPro-Regular, Source Sans Pro" font-size="12" font-weight="normal" transform="translate(162 9)">
          <text id="5000001010">
            <tspan x="0" y="12">5000001010</tspan>
          </text>
        </g>
        <g id="--c-text" fill="#292C36" font-family="SourceSansPro-Regular, Source Sans Pro" font-size="8" font-weight="normal" transform="translate(162)">
          <text id="Meters">
            <tspan x="0" y="8">Meters</tspan>
          </text>
        </g>
        <path id="--c-text" fill="#292929" fill-rule="nonzero" d="M147.828106,15.3750206 L142.29687,20.8125076 C142.20312,20.9375075 142.07812,21.0000072 141.92187,21.0000072 C141.765621,21.0000072 141.624996,20.9375075 141.499996,20.8125076 L141.171872,20.4843834 C141.046872,20.3906336 140.984373,20.2656337 140.984373,20.1093843 C140.984373,19.9531349 141.046872,19.8125102 141.171872,19.6875103 L145.953111,15.0000215 L141.171872,10.3125326 C141.078122,10.1875327 141.031248,10.046908 141.031248,9.89065864 C141.031248,9.73440925 141.078122,9.60940931 141.171872,9.51565953 L141.499996,9.14066043 C141.624996,9.04691065 141.765621,9.00003576 141.92187,9.00003576 C142.07812,9.00003576 142.20312,9.04691065 142.29687,9.14066043 L147.828106,14.5781475 C147.921856,14.7031474 147.968731,14.8437721 147.968731,15.0000215 C147.968731,15.1562708 147.921856,15.2968955 147.828106,15.4218955 L147.828106,15.3750206 Z"/>
        <g id="--c-text" fill="#292C36" font-family="SourceSansPro-Regular, Source Sans Pro" font-size="12" font-weight="normal" transform="translate(90 9)">
          <text id="Details">
            <tspan x="0" y="12">Details</tspan>
          </text>
        </g>
        <g id="--c-text" fill="#292C36" font-family="SourceSansPro-Regular, Source Sans Pro" font-size="8" font-weight="normal" transform="translate(90)">
          <text id="Meters">
            <tspan x="0" y="8">Meters</tspan>
          </text>
        </g>
        <path id="--c-text" fill="#292929" fill-rule="nonzero" d="M75.8281063,15.3750206 L70.2968695,20.8125076 C70.2031197,20.9375075 70.0781198,21.0000072 69.9218704,21.0000072 C69.765621,21.0000072 69.6249964,20.9375075 69.4999964,20.8125076 L69.1718722,20.4843834 C69.0468723,20.3906336 68.9843727,20.2656337 68.9843727,20.1093843 C68.9843727,19.9531349 69.0468723,19.8125102 69.1718722,19.6875103 L73.9531108,15.0000215 L69.1718722,10.3125326 C69.0781224,10.1875327 69.0312475,10.046908 69.0312475,9.89065864 C69.0312475,9.73440925 69.0781224,9.60940931 69.1718722,9.51565953 L69.4999964,9.14066043 C69.6249964,9.04691065 69.765621,9.00003576 69.9218704,9.00003576 C70.0781198,9.00003576 70.2031197,9.04691065 70.2968695,9.14066043 L75.8281063,14.5781475 C75.9218561,14.7031474 75.968731,14.8437721 75.968731,15.0000215 C75.968731,15.1562708 75.9218561,15.2968955 75.8281063,15.4218955 L75.8281063,15.3750206 Z"/>
        <g id="--c-text" fill="#292929" font-family="SourceSansPro-Regular, Source Sans Pro" font-size="12" font-weight="normal" transform="translate(0 9)">
          <text id="Dashboard">
            <tspan x="0" y="12">Dashboard</tspan>
          </text>
        </g>
        <g id="--c-text" fill="#292929" font-family="SourceSansPro-Regular, Source Sans Pro" font-size="8" font-weight="normal">
          <text id="Meters">
            <tspan x="0" y="8">Meters</tspan>
          </text>
        </g>
      </g>
      <g id="Top-Bar">
        <polygon id="--c-app-bar" fill="#F4F4F4" fill-rule="nonzero" points="0 0 0 49 1331 49 1331 0"/>
        <text id="--c-text" fill="#292929" font-family="SourceSansPro-Bold, Source Sans Pro" font-size="18" font-weight="bold">
          <tspan x="64" y="31">On Key Plus</tspan>
        </text>
        <g id="Menu-Icon" fill="#292C36" fill-rule="nonzero" transform="translate(20 18)">
          <path id="--c-icon" d="M17.2655838,1.4062466 L0.2343744,1.4062466 C0.1822914,1.4062466 0.1302078,1.3802048 0.0781248,1.3281218 C0.0260418,1.2760388 0,1.2239552 0,1.1718722 L0,0.2343744 C0,0.1822914 0.0260418,0.1302078 0.0781248,0.0781248 C0.1302078,0.0260418 0.1822914,0 0.2343744,0 L17.2655838,0 C17.3176668,0 17.3697505,0.0260418 17.4218335,0.0781248 C17.4739165,0.1302078 17.4999583,0.1822914 17.4999583,0.2343744 L17.4999583,1.1718722 C17.4999583,1.2239552 17.4739165,1.2760388 17.4218335,1.3281218 C17.3697505,1.3802048 17.3176668,1.4062466 17.2655838,1.4062466 Z M17.2655838,7.6562317 L0.2343744,7.6562317 C0.1822914,7.6562317 0.1302078,7.6301899 0.0781248,7.5781069 C0.0260418,7.5260239 0,7.4739403 0,7.4218573 L0,6.4843595 C0,6.4322765 0.0260418,6.3801929 0.0781248,6.3281099 C0.1302078,6.2760269 0.1822914,6.2499851 0.2343744,6.2499851 L17.2655838,6.2499851 C17.3176668,6.2499851 17.3697505,6.2760269 17.4218335,6.3281099 C17.4739165,6.3801929 17.4999583,6.4322765 17.4999583,6.4843595 L17.4999583,7.4218573 C17.4999583,7.4739403 17.4739165,7.5260239 17.4218335,7.5781069 C17.3697505,7.6301899 17.3176668,7.6562317 17.2655838,7.6562317 Z M17.2655838,13.9062168 L0.2343744,13.9062168 C0.1822914,13.9062168 0.1302078,13.880175 0.0781248,13.828092 C0.0260418,13.776009 0,13.7239254 0,13.6718424 L0,12.7343446 C0,12.6822616 0.0260418,12.630178 0.0781248,12.578095 C0.1302078,12.526012 0.1822914,12.4999702 0.2343744,12.4999702 L17.2655838,12.4999702 C17.3176668,12.4999702 17.3697505,12.526012 17.4218335,12.578095 C17.4739165,12.630178 17.4999583,12.6822616 17.4999583,12.7343446 L17.4999583,13.6718424 C17.4999583,13.7239254 17.4739165,13.776009 17.4218335,13.828092 C17.3697505,13.880175 17.3176668,13.9062168 17.2655838,13.9062168 Z"/>
        </g>
        <rect id="--c-border" width="1331" height="1" x="0" y="48" fill="#DEE2E6"/>
      </g>
    </g>
  </g>
</svg>
