<svg xmlns="http://www.w3.org/2000/svg" width="1337" height="808" viewBox="0 0 1337 808">
  <defs>
    <filter id="filter-1" width="107%" height="105.8%" x="-3.5%" y="-2.9%" filterUnits="objectBoundingBox">
      <feOffset in="SourceAlpha" result="shadowOffsetOuter1"/>
      <feGaussianBlur in="shadowOffsetOuter1" result="shadowBlurOuter1" stdDeviation="5"/>
      <feColorMatrix in="shadowBlurOuter1" result="shadowMatrixOuter1" values="0 0 0 0 0   0 0 0 0 0   0 0 0 0 0  0 0 0 0.5 0"/>
      <feMerge>
        <feMergeNode in="shadowMatrixOuter1"/>
        <feMergeNode in="SourceGraphic"/>
      </feMerge>
    </filter>
  </defs>
  <g id="Page-1" fill="none" fill-rule="evenodd" stroke="none" stroke-width="1">
    <g id="Dialog-box">
      <rect id="Rectangle" width="1337" height="807" x="0" y="0" fill="#F4F6F8" fill-rule="nonzero" opacity=".006"/>
      <g id="Modal" fill="#292C36" fill-rule="nonzero" opacity=".5" transform="translate(1 49)">
        <rect id="--c-overlay" width="943" height="758" x=".5" y=".5"/>
      </g>
      <g filter="url(#filter-1)" transform="translate(183 84)">
        <rect id="--c-surface-bg" width="568" height="688" x="1" y="0" fill="#FFF" rx="4"/>
        <g id="Footer" transform="translate(1 640)">
          <path id="--c-footer-bar" fill="#FFF" d="M0,0 L568,0 L568,44 C568,46.209139 566.209139,48 564,48 L4,48 C1.790861,48 2.705415e-16,46.209139 0,44 L0,0 L0,0 Z"/>
          <g id="secondary" fill="#2F323E" font-family="SourceSansPro-Bold, Source Sans Pro" font-size="16" font-weight="bold" transform="translate(339.5 13)">
            <text id="--c-s-button">
              <tspan x="5.58" y="16">Undo</tspan>
            </text>
          </g>
          <g id="secondary-copy" transform="translate(240 8)">
            <path id="--c-s-button" fill="#272C37" fill-rule="nonzero" d="M71,0 C73.209139,0 75,1.790861 75,4 L75,28 C75,30.209139 73.209139,32 71,32 L4,32 C1.790861,32 0,30.209139 0,28 L0,4 C0,1.790861 1.790861,0 4,0 L71,0 Z M71,1 L4,1 C2.40231912,1 1.09633912,2.24891996 1.00509269,3.82372721 L1,4 L1,28 C1,29.5976809 2.24891996,30.9036609 3.82372721,30.9949073 L4,31 L71,31 C72.5976809,31 73.9036609,29.75108 73.9949073,28.1762728 L74,28 L74,4 C74,2.40231912 72.75108,1.09633912 71.1762728,1.00509269 L71,1 Z"/>
            <rect id="--c-s-button-bg" width="73" height="30" x="1" y="1" fill="#FFF" rx="4"/>
            <text id="--c-s-button" fill="#292C36" font-family="SourceSansPro-Bold, Source Sans Pro" font-size="16" font-weight="bold">
              <tspan x="13.884" y="21">Cancel</tspan>
            </text>
          </g>
          <g id="primary" transform="translate(411 8)">
            <rect id="--c-p-button-bg" width="140" height="31" x=".5" y=".5" fill="#272C37" stroke="#292C36" rx="4"/>
            <text id="--c-p-button" fill="#FFF" font-family="SourceSansPro-Bold, Source Sans Pro" font-size="16" font-weight="bold">
              <tspan x="16.992" y="21">Save And Close</tspan>
            </text>
          </g>
          <polygon id="--c-border" fill="#D8D8D8" fill-rule="nonzero" points="569 0 569 1 0 1 0 0"/>
        </g>
        <g id="Header-Group" transform="translate(1 589)">
          <rect id="--c-group-bar" width="568" height="48" x="0" y="0" fill="#FBFBFB"/>
          <rect id="--c-accent" width="8" height="48" x="0" y="0" fill="#0076C2"/>
          <text id="--c-text" fill="#25313E" font-family="SourceSansPro-Bold, Source Sans Pro" font-size="16" font-weight="bold">
            <tspan x="46" y="31">Details</tspan>
          </text>
          <path id="--c-text" fill="#212B36" fill-rule="nonzero" d="M27.6015468,19.9062764 L33.382783,25.6484503 C33.4609078,25.7526169 33.4999702,25.8632935 33.4999702,25.9804807 C33.4999702,26.0976679 33.4609078,26.2083446 33.382783,26.3125112 L32.6015348,27.0937593 C32.4973682,27.1718841 32.380181,27.2109465 32.2499732,27.2109465 C32.1197654,27.2109465 32.0155987,27.1718841 31.9374739,27.0937593 L27.2499851,22.4453329 L22.5624963,27.0937593 C22.4843715,27.1718841 22.3802048,27.2109465 22.249997,27.2109465 C22.1197892,27.2109465 22.002602,27.1718841 21.8984354,27.0937593 L21.1562496,26.3125112 C21.052083,26.2083446 21,26.0976679 21,25.9804807 C21,25.8632935 21.0390624,25.7526169 21.1171872,25.6484503 L26.9374858,19.9062764 C27.0156107,19.8281516 27.1197773,19.7890892 27.2499851,19.7890892 C27.3801929,19.7890892 27.4973801,19.8281516 27.6015468,19.9062764 Z"/>
        </g>
        <g id="isActive" transform="translate(21 493)">
          <g id="check" transform="translate(0 2)">
            <rect id="--c-disabled" width="13.5" height="13.5" x=".5" y=".5" fill="#A2A2A2" fill-rule="nonzero" rx="2"/>
            <g id="tick-copy-3" transform="translate(2 3)">
              <g id="path-8-link" fill="#000" fill-rule="nonzero">
                <polygon id="path-8" points="3.81 8 0 4.155 1.074 3.074 3.81 5.818 9.592 0 10.667 1.089"/>
              </g>
              <g id="path-8-link" fill="#FFF">
                <polygon id="path-8" points="3.81 8 0 4.155 1.074 3.074 3.81 5.818 9.592 0 10.667 1.089"/>
              </g>
            </g>
          </g>
          <text id="--c-disabled" fill="#888" font-family="SourceSansPro-Regular, Source Sans Pro" font-size="14" font-weight="normal">
            <tspan x="30" y="14">IsActive</tspan>
          </text>
        </g>
        <g id="Description-Input-Field" transform="translate(20 106)">
          <g id="Input-Numbers" transform="translate(0 315)">
            <path id="--c-border" fill="#DADADA" fill-rule="nonzero" d="M527.709677,22 L4.29032258,22 C1.92084285,22 0,23.1192881 0,24.5 L0,52.5 C0,53.8807119 1.92084285,55 4.29032258,55 L527.709677,55 C530.079157,55 532,53.8807119 532,52.5 L532,24.5 C532,23.1192881 530.079157,22 527.709677,22 Z M4.5762987,23 L528.423701,23 C529.846552,23 531,23.6715729 531,24.5 L531,52.5 C531,53.3284271 529.846552,54 528.423701,54 L4.5762987,54 C3.15344822,54 2,53.3284271 2,52.5 L2,24.5 C2,23.6715729 3.15344822,23 4.5762987,23 Z"/>
            <text id="--c-font-label" fill="#272C37" font-family="SourceSansPro-Regular, Source Sans Pro" font-size="14" font-weight="normal" opacity=".8">
              <tspan x="1" y="14">Sequence Number</tspan>
            </text>
            <text id="--c-text" fill="#272C37" font-family="SourceSansPro-Regular, Source Sans Pro" font-size="16" font-weight="normal">
              <tspan x="10" y="43">1</tspan>
            </text>
            <path id="--c-text" fill="#3A4254" fill-rule="nonzero" d="M507.990308,34.9880534 L512.124986,30.8631839 L516.259686,34.9880311 C516.366667,35.0950116 516.540101,35.0950116 516.647081,34.9880311 L517.099057,34.5360779 C517.206015,34.4291197 517.206015,34.2556637 517.099057,34.1486831 L512.318683,29.3683545 C512.211703,29.261374 512.038269,29.261374 511.931266,29.3683545 L507.150938,34.1487054 C507.043957,34.255686 507.043957,34.429142 507.150938,34.5361002 L507.602913,34.9880534 C507.709871,35.0950339 507.883305,35.0950339 507.990308,34.9880534 Z"/>
            <path id="--c-text" fill="#3A4254" fill-rule="nonzero" d="M507.990308,47.9880534 L512.124986,43.8631839 L516.259686,47.9880311 C516.366667,48.0950116 516.540101,48.0950116 516.647081,47.9880311 L517.099057,47.5360779 C517.206015,47.4291197 517.206015,47.2556637 517.099057,47.1486831 L512.318683,42.3683545 C512.211703,42.261374 512.038269,42.261374 511.931266,42.3683545 L507.150938,47.1487054 C507.043957,47.255686 507.043957,47.429142 507.150938,47.5361002 L507.602913,47.9880534 C507.709871,48.0950339 507.883305,48.0950339 507.990308,47.9880534 Z" transform="matrix(1 0 0 -1 0 90.356)"/>
          </g>
          <g id="Input-Disabled" transform="translate(0 416)">
            <text id="--c-font-label" fill="#333949" font-family="SourceSansPro-Regular, Source Sans Pro" font-size="14" font-weight="normal">
              <tspan x="0" y="14">Default Trade Code</tspan>
            </text>
            <path id="--c-border" fill="#DADADA" fill-rule="nonzero" d="M527.709677,19 L4.29032258,19 C1.92084285,19 0,20.1192881 0,21.5 L0,49.5 C0,50.8807119 1.92084285,52 4.29032258,52 L527.709677,52 C530.079157,52 532,50.8807119 532,49.5 L532,21.5 C532,20.1192881 530.079157,19 527.709677,19 Z M4.5762987,20 L528.423701,20 C529.846552,20 531,20.6715729 531,21.5 L531,49.5 C531,50.3284271 529.846552,51 528.423701,51 L4.5762987,51 C3.15344822,51 2,50.3284271 2,49.5 L2,21.5 C2,20.6715729 3.15344822,20 4.5762987,20 Z"/>
            <rect id="--c-input-disabled-bg" width="530" height="32" x="1" y="19.5" fill="#F4F4F4" rx="2"/>
            <text id="--c-text" fill="#4D556B" font-family="SourceSansPro-Regular, Source Sans Pro" font-size="16" font-weight="normal">
              <tspan x="10" y="40">SUPE</tspan>
            </text>
          </g>
          <g id="Input-Focus" transform="translate(0 249)">
            <text id="--c-font-label" fill="#2C323F" font-family="SourceSansPro-Regular, Source Sans Pro" font-size="14" font-weight="normal">
              <tspan x="0" y="14">Site Code</tspan>
            </text>
            <path id="--c-border" fill="#DADADA" fill-rule="nonzero" d="M527.709677,19 L4.29032258,19 C1.92084285,19 0,20.1192881 0,21.5 L0,49.5 C0,50.8807119 1.92084285,52 4.29032258,52 L527.709677,52 C530.079157,52 532,50.8807119 532,49.5 L532,21.5 C532,20.1192881 530.079157,19 527.709677,19 Z M4.5762987,20 L528.423701,20 C529.846552,20 531,20.6715729 531,21.5 L531,49.5 C531,50.3284271 529.846552,51 528.423701,51 L4.5762987,51 C3.15344822,51 2,50.3284271 2,49.5 L2,21.5 C2,20.6715729 3.15344822,20 4.5762987,20 Z"/>
            <text id="--c-text" fill="#272C37" font-family="SourceSansPro-Regular, Source Sans Pro" font-size="16" font-weight="normal">
              <tspan x="7" y="41">CTN</tspan>
            </text>
            <path id="--c-input-btn-bg" fill="#F4F4F4" d="M500,20 L529,20 C530.104569,20 531,20.8954305 531,22 L531,49 C531,50.1045695 530.104569,51 529,51 L500,51 L500,51 L500,20 Z"/>
            <g id="Icon/Input/LookUp" fill="#000" fill-rule="nonzero" transform="translate(509 26)">
              <path id="Shape-Copy" d="M14.7083337,16.0161583 L14.7083337,5.46315802 L9.30208354,0 L2.09375004,0 C1.10260419,0 0.300677084,0.819473703 0.300677084,1.82105267 L0.291666667,16.3894741 C0.291666667,17.391053 1.09359377,18.2105267 2.08473962,18.2105267 L12.9062503,18.2105267 C13.3117191,18.2105267 13.6721357,18.0739478 13.9784899,17.8463162 L9.98687522,13.8126845 C9.26604187,14.2861582 8.41906269,14.5684214 7.50000017,14.5684214 C5.01312511,14.5684214 2.99479173,12.5288424 2.99479173,10.0157897 C2.99479173,7.50273702 5.01312511,5.46315802 7.50000017,5.46315802 C9.98687522,5.46315802 12.0052086,7.50273702 12.0052086,10.0157897 C12.0052086,10.9445266 11.7258857,11.8004213 11.257344,12.5197371 L14.7083337,16.0161583 Z M4.54078957,10.0157897 C4.54078957,11.6952049 5.89646212,13.0508775 7.57587736,13.0508775 C9.2552926,13.0508775 10.6109652,11.6952049 10.6109652,10.0157897 C10.6109652,8.33637446 9.2552926,6.98070192 7.57587736,6.98070192 C5.89646212,6.98070192 4.54078957,8.33637446 4.54078957,10.0157897 Z"/>
            </g>
            <rect id="--c-input-btn-bg" width="32" height="31" x="467" y="20" fill="#F4F4F4"/>
            <path id="--c-text" fill="#272C37" fill-rule="nonzero" d="M483.5,42 C487.554986,42 491.097397,39.5746994 492.885225,35.993927 C492.948588,35.8653208 493,35.6439463 493,35.4998347 C493,35.3557231 492.948588,35.1343486 492.885225,35.0057424 C491.096399,31.4236145 487.554986,29 483.5,29 C479.445014,29 475.902603,31.4253006 474.114775,35.006073 C474.051412,35.1346792 474,35.3560537 474,35.5001653 C474,35.6442769 474.051412,35.8656514 474.114775,35.9942576 C475.903601,39.5763855 479.445014,42 483.5,42 Z M483.502441,40.5 L483.5,40.5 C480.73999,40.5 478.5,38.2600098 478.5,35.5 C478.5,32.7399902 480.73999,30.5 483.5,30.5 C486.26001,30.5 488.5,32.7399902 488.5,35.5 L488.5,35.5024414 C488.5,38.2610948 486.261095,40.5 483.502441,40.5 Z M483.5,38.5 C485.155981,38.5 486.5,37.1560051 486.5,35.4999847 C486.5,33.8439949 485.155981,32.5 483.5,32.5 L483.492934,32.5 C483.269706,32.5031199 482.914554,32.556312 482.700196,32.618711 C482.861148,32.837444 482.991787,33.2354211 482.991787,33.5070097 C482.991787,34.3343164 482.320359,35.0057479 481.493057,35.0057479 C481.221469,35.0057479 480.823494,34.8751077 480.604762,34.714155 C480.546921,34.9271986 480.5,35.279233 480.5,35.4999847 C480.5,37.1560051 481.843988,38.5 483.5,38.5 Z"/>
            <polygon id="--c-border" fill="#D8D8D8" fill-rule="nonzero" points="500 20 500 51 499 51 499 20"/>
            <polygon id="--c-border-copy" fill="#D8D8D8" fill-rule="nonzero" points="467 20 467 51 466 51 466 20"/>
          </g>
          <g id="Input-Error" transform="translate(0 166)">
            <text id="--c-font-label" fill="#2C323F" font-family="SourceSansPro-Regular, Source Sans Pro" font-size="14" font-weight="normal">
              <tspan x="0" y="14">Site Code</tspan>
            </text>
            <path id="--c-error" fill="#E00000" fill-rule="nonzero" d="M527.709677,19 L4.29032258,19 C1.92084285,19 0,20.1192881 0,21.5 L0,49.5 C0,50.8807119 1.92084285,52 4.29032258,52 L527.709677,52 C530.079157,52 532,50.8807119 532,49.5 L532,21.5 C532,20.1192881 530.079157,19 527.709677,19 Z M4.5762987,20 L528.423701,20 C529.846552,20 531,20.6715729 531,21.5 L531,49.5 C531,50.3284271 529.846552,51 528.423701,51 L4.5762987,51 C3.15344822,51 2,50.3284271 2,49.5 L2,21.5 C2,20.6715729 3.15344822,20 4.5762987,20 Z"/>
            <rect id="--c-input-error-bg" width="530" height="32" x="1" y="19.5" fill="#FBF3F3" rx="2"/>
            <text id="--c-font-descriptor" fill="#919298" font-family="SourceSansPro-Regular, Source Sans Pro" font-size="12" font-weight="normal" opacity=".8">
              <tspan x="0" y="65">Description of the code here</tspan>
            </text>
            <g id="icon" fill-rule="nonzero" transform="translate(507 27)">
              <path id="--c-error" fill="#E00000" d="M7.99998093,15.7499958 C9.39581109,15.7499958 10.6874745,15.4010382 11.8749717,14.7031233 C13.0624689,14.0052085 14.0051751,13.0625022 14.7030899,11.8750051 C15.4010048,10.6875079 15.7499624,9.39584447 15.7499624,8.00001431 C15.7499624,6.60418414 15.4010048,5.31252071 14.7030899,4.12502354 C14.0051751,2.93752638 13.0624689,1.99482013 11.8749717,1.29690529 C10.6874745,0.598990443 9.39581109,0.250032783 7.99998093,0.250032783 C6.60415076,0.250032783 5.31248733,0.598990443 4.12499017,1.29690529 C2.937493,1.99482013 1.99478675,2.93752638 1.29687191,4.12502354 C0.598957064,5.31252071 0.249999404,6.60418414 0.249999404,8.00001431 C0.249999404,9.39584447 0.598957064,10.6875079 1.29687191,11.8750051 C1.99478675,13.0625022 2.937493,14.0052085 4.12499017,14.7031233 C5.31248733,15.4010382 6.60415076,15.7499958 7.99998093,15.7499958 Z"/>
              <path id="--c-text-light" fill="#FFF" d="M8.71034477,9.2499851 C8.96013055,9.2499851 9.16602834,9.05411993 9.17850237,8.8046584 L9.44413818,3.49217107 C9.45750867,3.22441811 9.24405779,3 8.9759615,3 L7.14903105,3 C6.88093476,3 6.66748388,3.22441811 6.68085437,3.49217107 L6.94649018,8.8046584 C6.95896421,9.05411993 7.164862,9.2499851 7.41464778,9.2499851 L8.71034477,9.2499851 Z M8.06249627,12.9999762 C8.92406267,12.9999762 9.62499255,12.2990463 9.62499255,11.4374799 C9.62499255,10.5759135 8.92406267,9.87498361 8.06249627,9.87498361 C7.20092988,9.87498361 6.5,10.5759135 6.5,11.4374799 C6.5,12.2990463 7.20092988,12.9999762 8.06249627,12.9999762 Z"/>
            </g>
          </g>
          <g id="Input-Req" transform="translate(0 83)">
            <text id="--c-font-label" fill="#272C37" font-family="SourceSansPro-Regular, Source Sans Pro" font-size="14" font-weight="normal">
              <tspan x="0" y="14">Permission Tree Code</tspan>
            </text>
            <path id="--c-warning" fill="#F97825" fill-rule="nonzero" d="M527.709677,19 L4.29032258,19 C1.92084285,19 0,20.1192881 0,21.5 L0,49.5 C0,50.8807119 1.92084285,52 4.29032258,52 L527.709677,52 C530.079157,52 532,50.8807119 532,49.5 L532,21.5 C532,20.1192881 530.079157,19 527.709677,19 Z M4.5762987,20 L528.423701,20 C529.846552,20 531,20.6715729 531,21.5 L531,49.5 C531,50.3284271 529.846552,51 528.423701,51 L4.5762987,51 C3.15344822,51 2,50.3284271 2,49.5 L2,21.5 C2,20.6715729 3.15344822,20 4.5762987,20 Z"/>
            <text id="--c-font-descriptor" fill="#919298" font-family="SourceSansPro-Regular, Source Sans Pro" font-size="12" font-weight="normal" opacity=".8">
              <tspan x="0" y="65">Description of the code here</tspan>
            </text>
            <g id="icon" transform="translate(1 19)">
              <rect id="--c-input-req-bg" width="530" height="32" x="0" y=".5" fill="#FFFCEA" rx="2"/>
              <path id="--c-warning" fill="#F97825" fill-rule="nonzero" d="M513.999981,23.7499958 C515.395811,23.7499958 516.687475,23.4010382 517.874972,22.7031233 C519.062469,22.0052085 520.005175,21.0625022 520.70309,19.8750051 C521.401005,18.6875079 521.749962,17.3958445 521.749962,16.0000143 C521.749962,14.6041841 521.401005,13.3125207 520.70309,12.1250235 C520.005175,10.9375264 519.062469,9.99482013 517.874972,9.29690529 C516.687475,8.59899044 515.395811,8.25003278 513.999981,8.25003278 C512.604151,8.25003278 511.312487,8.59899044 510.12499,9.29690529 C508.937493,9.99482013 507.994787,10.9375264 507.296872,12.1250235 C506.598957,13.3125207 506.249999,14.6041841 506.249999,16.0000143 C506.249999,17.3958445 506.598957,18.6875079 507.296872,19.8750051 C507.994787,21.0625022 508.937493,22.0052085 510.12499,22.7031233 C511.312487,23.4010382 512.604151,23.7499958 513.999981,23.7499958 Z"/>
              <path id="--c-text-light" fill="#FFF" fill-rule="nonzero" d="M514.562489,21.1249973 C514.64452,21.1249973 514.711902,21.0986302 514.764637,21.0458959 C514.817371,20.9931617 514.843738,20.9257791 514.843738,20.843748 L514.843738,20.843748 L514.843738,18.0839889 L517.234357,19.4726575 C517.30467,19.5078137 517.377912,19.5136729 517.454083,19.4902356 C517.530255,19.4667982 517.585919,19.4257825 517.621075,19.367189 L517.621075,19.367189 L518.183574,18.3828164 C518.21873,18.3242228 518.227519,18.25684 518.209941,18.1806684 C518.192363,18.1044968 518.148418,18.0429735 518.078105,17.9960985 L518.078105,17.9960985 L515.687486,16.625008 L518.078105,15.2539176 C518.148418,15.2070426 518.192363,15.1455193 518.209941,15.0693477 C518.227519,14.9931761 518.21873,14.9257933 518.183574,14.8671997 L518.183574,14.8671997 L517.621075,13.8828271 C517.585919,13.8242336 517.530255,13.7832179 517.454083,13.7597805 C517.377912,13.7363431 517.30467,13.7422024 517.234357,13.7773586 L517.234357,13.7773586 L514.843738,15.1660272 L514.843738,12.4062681 C514.843738,12.324237 514.817371,12.2568544 514.764637,12.2041201 C514.711902,12.1513859 514.64452,12.1250188 514.562489,12.1250188 L514.562489,12.1250188 L513.437491,12.1250188 C513.35546,12.1250188 513.288078,12.1513859 513.235343,12.2041201 C513.182609,12.2568544 513.156242,12.324237 513.156242,12.4062681 L513.156242,12.4062681 L513.156242,15.1660272 L510.765623,13.7773586 C510.69531,13.7422024 510.622068,13.7363431 510.545897,13.7597805 C510.469725,13.7832179 510.414061,13.8242336 510.378905,13.8828271 L510.378905,13.8828271 L509.816406,14.8671997 C509.78125,14.9257933 509.772461,14.9931761 509.790039,15.0693477 C509.807617,15.1455193 509.851562,15.2070426 509.921875,15.2539176 L509.921875,15.2539176 L512.312494,16.625008 L509.921875,17.9960985 C509.851562,18.0429735 509.807617,18.1044968 509.790039,18.1806684 C509.772461,18.25684 509.78125,18.3242228 509.816406,18.3828164 L509.816406,18.3828164 L510.378905,19.367189 C510.414061,19.4257825 510.469725,19.4667982 510.545897,19.4902356 C510.622068,19.5136729 510.69531,19.5078137 510.765623,19.4726575 L510.765623,19.4726575 L513.156242,18.0839889 L513.156242,20.843748 C513.156242,20.9257791 513.182609,20.9931617 513.235343,21.0458959 C513.288078,21.0986302 513.35546,21.1249973 513.437491,21.1249973 L513.437491,21.1249973 L514.562489,21.1249973 Z"/>
            </g>
          </g>
          <g id="Input">
            <text id="--c-font-label" fill="#2C323F" font-family="SourceSansPro-Regular, Source Sans Pro" font-size="14" font-weight="normal">
              <tspan x="0" y="14">Code</tspan>
            </text>
            <path id="--c-focus" fill="#0276C2" fill-rule="nonzero" d="M527.709677,19 L4.29032258,19 C1.92084285,19 0,20.1192881 0,21.5 L0,49.5 C0,50.8807119 1.92084285,52 4.29032258,52 L527.709677,52 C530.079157,52 532,50.8807119 532,49.5 L532,21.5 C532,20.1192881 530.079157,19 527.709677,19 Z M4.5762987,20 L528.423701,20 C529.846552,20 531,20.6715729 531,21.5 L531,49.5 C531,50.3284271 529.846552,51 528.423701,51 L4.5762987,51 C3.15344822,51 2,50.3284271 2,49.5 L2,21.5 C2,20.6715729 3.15344822,20 4.5762987,20 Z"/>
            <rect id="--c-input-focus-bg" width="530" height="32" x="1" y="19.5" fill="#ECF7FF" rx="2"/>
            <text id="--c-text" fill="#272C37" font-family="SourceSansPro-Regular, Source Sans Pro" font-size="16" font-weight="normal">
              <tspan x="7" y="41">ADMIN</tspan>
            </text>
            <text id="--c-font-descriptor" fill="#919298" font-family="SourceSansPro-Regular, Source Sans Pro" font-size="12" font-weight="normal" opacity=".8">
              <tspan x="0" y="65">Description of the code here</tspan>
            </text>
          </g>
        </g>
        <g id="Header-Group" transform="translate(1 48)">
          <rect id="--c-group-bar" width="568" height="48" x="0" y="0" fill="#FBFBFB"/>
          <rect id="--c-accent" width="8" height="48" x="0" y="0" fill="#0076C2"/>
          <text id="--c-text" fill="#212B36" font-family="SourceSansPro-Bold, Source Sans Pro" font-size="16" font-weight="bold">
            <tspan x="46" y="31">Header</tspan>
          </text>
          <path id="--c-text" fill="#212B36" fill-rule="nonzero" d="M27.6015468,19.9062764 L33.382783,25.6484503 C33.4609078,25.7526169 33.4999702,25.8632935 33.4999702,25.9804807 C33.4999702,26.0976679 33.4609078,26.2083446 33.382783,26.3125112 L32.6015348,27.0937593 C32.4973682,27.1718841 32.380181,27.2109465 32.2499732,27.2109465 C32.1197654,27.2109465 32.0155987,27.1718841 31.9374739,27.0937593 L27.2499851,22.4453329 L22.5624963,27.0937593 C22.4843715,27.1718841 22.3802048,27.2109465 22.249997,27.2109465 C22.1197892,27.2109465 22.002602,27.1718841 21.8984354,27.0937593 L21.1562496,26.3125112 C21.052083,26.2083446 21,26.0976679 21,25.9804807 C21,25.8632935 21.0390624,25.7526169 21.1171872,25.6484503 L26.9374858,19.9062764 C27.0156107,19.8281516 27.1197773,19.7890892 27.2499851,19.7890892 C27.3801929,19.7890892 27.4973801,19.8281516 27.6015468,19.9062764 Z"/>
        </g>
        <g id="Header-Bar">
          <path id="--c-header-bar" fill="#FFF" d="M4.99905749,0 L564.999057,0 C567.208196,-4.05812251e-16 568.999057,1.790861 568.999057,4 L568.999057,48 L568.999057,48 L0.999057493,48 L0.999057493,4 C0.999057493,1.790861 2.78991849,4.05812251e-16 4.99905749,0 Z"/>
          <rect id="--c-border" width="568" height="1" x=".999" y="47" fill="#D8D8D8"/>
          <polygon id="--c-text" fill="#212B36" fill-rule="nonzero" points="542.155 19 540 21.155 541.101 22.256 543.822 25.023 541.101 27.744 540 28.799 542.155 31 543.256 29.899 546.023 27.132 548.744 29.899 549.799 31 552 28.799 550.899 27.744 548.132 25.023 550.899 22.256 552 21.155 549.799 19 548.744 20.101 546.023 22.822 543.256 20.101"/>
          <text id="--c-heading" fill="#212B36" font-family="SourceSansPro-Bold, Source Sans Pro" font-size="18" font-weight="bold">
            <tspan x="14.009" y="31">Edit Resource</tspan>
          </text>
        </g>
      </g>
    </g>
  </g>
</svg>
