<?xml version="1.0" encoding="UTF-8"?>
<svg width="1920px" height="49px" viewBox="0 0 1920 49" version="1.1" xmlns="http://www.w3.org/2000/svg" xmlns:xlink="http://www.w3.org/1999/xlink">
    <!-- Generator: Sketch 54.1 (76490) - https://sketchapp.com -->
    <title>Top Bar</title>
    <desc>Created with Sketch.</desc>
    <defs>
        <polygon id="path-1" points="0 1 1920 1 1920 49 0 49"></polygon>
        <filter x="-0.0%" y="-1.0%" width="100.1%" height="104.2%" filterUnits="objectBoundingBox" id="filter-2">
            <feOffset dx="0" dy="1" in="SourceAlpha" result="shadowOffsetOuter1"></feOffset>
            <feColorMatrix values="0 0 0 0 0.87175554   0 0 0 0 0.885920942   0 0 0 0 0.902849495  0 0 0 1 0" type="matrix" in="shadowOffsetOuter1"></feColorMatrix>
        </filter>
    </defs>
    <g id="Page-1" stroke="none" stroke-width="1" fill="none" fill-rule="evenodd">
        <g id="No-Odd-&amp;-Even">
            <g id="Base" transform="translate(-1.000000, -1.000000)">
                <g id="Top-Bar" transform="translate(1.000000, 0.000000)">
                    <g id="appbarbg">
                        <use fill="black" fill-opacity="1" filter="url(#filter-2)" xlink:href="#path-1"></use>
                        <use fill="#F4F4F4" fill-rule="evenodd" xlink:href="#path-1"></use>
                    </g>
                    <g id="Right-Menu" transform="translate(1776.000000, 0.000000)">
                        <g id="Error">
                            <polygon id="appbarbg-copy-3" fill="#B6B6B6" opacity="0" points="0 0 48 0 48 48 0 48"></polygon>
                            <path d="M34.7520358,30.8057502 C35.4570358,32.0277502 34.5720358,33.5557502 33.1640358,33.5557502 L14.8350358,33.5557502 C13.4250358,33.5557502 12.5440358,32.0257502 13.2470358,30.8057502 L22.4120358,14.9157502 C23.1170358,13.6937502 24.8840358,13.6957502 25.5880358,14.9157502 L34.7520358,30.8057502 Z M24.0000358,27.5207502 C23.0296715,27.5207502 22.2430358,28.3073858 22.2430358,29.2777502 C22.2430358,30.2481145 23.0296715,31.0347502 24.0000358,31.0347502 C24.9704001,31.0347502 25.7570358,30.2481145 25.7570358,29.2777502 C25.7570358,28.3073858 24.9704001,27.5207502 24.0000358,27.5207502 Z M22.3320358,21.2057502 L22.6150358,26.3997502 C22.6283269,26.6428839 22.8295394,26.8331132 23.0730358,26.8327502 L24.9270358,26.8327502 C25.1710358,26.8327502 25.3710358,26.6427502 25.3850358,26.3997502 L25.6680358,21.2057502 C25.6751951,21.0798423 25.6301212,20.9565537 25.5434413,20.8649532 C25.4567615,20.7733527 25.3361469,20.7215468 25.2100358,20.7217502 L22.7900358,20.7217502 C22.6639247,20.7215468 22.5433102,20.7733527 22.4566303,20.8649532 C22.3699505,20.9565537 22.3248765,21.0798423 22.3320358,21.2057502 L22.3320358,21.2057502 Z" id="Shape" fill="#292C36" fill-rule="nonzero"></path>
                        </g>
                        <g id="Assist" transform="translate(48.000000, 0.000000)">
                            <polygon id="appbarbg-copy-4" points="0 0 48 0 48 48 0 48"></polygon>
                            <path d="M20.2502729,16.844364 L20.2502729,19.6580911 C20.2502729,20.1244548 19.8722729,20.5016366 19.4059093,20.5016366 L15.8435458,20.5016366 C15.3775362,20.501185 15.0000002,20.1232828 15.0000004,19.657273 L15.0000004,16.8435458 C15.0000004,16.3780004 15.3780004,16.0008186 15.8435458,16.0008186 L19.4059093,16.0008186 C19.8722729,16.0008186 20.2502729,16.3788186 20.2502729,16.844364 Z M26.6247272,25.2822727 L26.6247272,22.4693637 C26.6249443,22.2457169 26.5362531,22.0311556 26.3781875,21.8729366 C26.220122,21.7147176 26.0056469,21.6258182 25.7819999,21.6258183 L22.2180001,21.6258183 C21.9942114,21.625601 21.779526,21.7144044 21.6212834,21.872647 C21.4630408,22.0308896 21.3742373,22.245575 21.3744547,22.4693637 L21.3744547,25.2822727 C21.3744547,25.7486363 21.7516365,26.1258181 22.2171819,26.1258181 L25.7803636,26.1258181 C26.0041523,26.1260355 26.2188377,26.037232 26.3770803,25.8789894 C26.5353229,25.7207468 26.6241264,25.5060614 26.623909,25.2822727 L26.6247272,25.2822727 Z M27.7497271,16.8435458 L27.7497271,19.6580911 C27.7497271,20.1244548 28.1277271,20.5016366 28.5940907,20.5016366 L32.1564542,20.5016366 C32.3802429,20.5018539 32.5949283,20.4130505 32.7531709,20.2548079 C32.9114135,20.0965653 33.000217,19.8818799 32.9999996,19.6580911 L32.9999996,16.8435458 C32.9999997,16.6198988 32.9111003,16.4054238 32.7528813,16.2473582 C32.5946623,16.0892927 32.3801011,16.0006014 32.1564542,16.0008186 L28.5940907,16.0008186 C28.1277271,16.0008186 27.7497271,16.3788186 27.7497271,16.844364 L27.7497271,16.8435458 Z M26.6247272,19.6580911 L26.6247272,16.8435458 C26.6249443,16.6198989 26.5362531,16.4053377 26.3781875,16.2471187 C26.220122,16.0888997 26.0056469,16.0000003 25.7819999,16.0000004 L22.2180001,16.0000004 C21.9942114,15.999783 21.779526,16.0885865 21.6212834,16.2468291 C21.4630408,16.4050717 21.3742373,16.6197571 21.3744547,16.8435458 L21.3744547,19.6580911 C21.3744547,20.1244548 21.7516365,20.5016366 22.2171819,20.5016366 L25.7803636,20.5016366 C26.0041523,20.5018539 26.2188377,20.4130505 26.3770803,20.2548079 C26.5353229,20.0965653 26.6241264,19.8818799 26.623909,19.6580911 L26.6247272,19.6580911 Z M19.4059093,21.6258183 L15.8435458,21.6258183 C15.6197571,21.625601 15.4050717,21.7144044 15.2468291,21.872647 C15.0885865,22.0308896 14.999783,22.245575 15.0000004,22.4693637 L15.0000004,25.2822727 C15.0000004,25.7486363 15.3780004,26.1258181 15.8435458,26.1258181 L19.4059093,26.1258181 C19.8722729,26.1258181 20.2502729,25.7478181 20.2502729,25.2822727 L20.2502729,22.4693637 C20.2502729,22.0030001 19.8722729,21.6258183 19.4059093,21.6258183 Z M15.0000004,28.0943635 L15.0000004,30.9072725 C15.0000004,31.3736361 15.3780004,31.7508179 15.8435458,31.7508179 L19.4059093,31.7508179 C19.8722729,31.7508179 20.2502729,31.3728179 20.2502729,30.9072725 L20.2502729,28.0935453 C20.2502729,27.6271817 19.8722729,27.2499999 19.4059093,27.2499999 L15.8435458,27.2499999 C15.6197571,27.2497825 15.4050717,27.338586 15.2468291,27.4968286 C15.0885865,27.6550712 14.999783,27.8697566 15.0000004,28.0935453 L15.0000004,28.0943635 Z M28.5940907,26.1258181 L32.1564542,26.1258181 C32.3802429,26.1260355 32.5949283,26.037232 32.7531709,25.8789894 C32.9114135,25.7207468 33.000217,25.5060614 32.9999996,25.2822727 L32.9999996,22.4693637 C33.000217,22.245575 32.9114135,22.0308896 32.7531709,21.872647 C32.5949283,21.7144044 32.3802429,21.625601 32.1564542,21.6258183 L28.5940907,21.6258183 C28.1277271,21.6258183 27.7497271,22.0038183 27.7497271,22.4693637 L27.7497271,25.2822727 C27.7497271,25.7486363 28.1277271,26.1258181 28.5940907,26.1258181 L28.5940907,26.1258181 Z M28.5940907,31.7508179 L32.1564542,31.7508179 C32.3802429,31.7510353 32.5949283,31.6622318 32.7531709,31.5039892 C32.9114135,31.3457466 33.000217,31.1310612 32.9999996,30.9072725 L32.9999996,28.0935453 C33.000217,27.8697566 32.9114135,27.6550712 32.7531709,27.4968286 C32.5949283,27.338586 32.3802429,27.2497825 32.1564542,27.2499999 L28.5940907,27.2499999 C28.1277271,27.2499999 27.7497271,27.6279999 27.7497271,28.0935453 L27.7497271,30.9064543 C27.7497271,31.3728179 28.1277271,31.7499997 28.5940907,31.7499997 L28.5940907,31.7508179 Z M21.3752728,28.0943635 L21.3752728,30.9072725 C21.3752728,31.3736361 21.7524546,31.7508179 22.2180001,31.7508179 L25.7811817,31.7508179 C26.0049705,31.7510353 26.2196559,31.6622318 26.3778985,31.5039892 C26.5361411,31.3457466 26.6249445,31.1310612 26.6247272,30.9072725 L26.6247272,28.0935453 C26.6249443,27.8698984 26.5362531,27.6553372 26.3781875,27.4971182 C26.220122,27.3388992 26.0056469,27.2499998 25.7819999,27.2499999 L22.2180001,27.2499999 C21.9942114,27.2497825 21.779526,27.338586 21.6212834,27.4968286 C21.4630408,27.6550712 21.3742373,27.8697566 21.3744547,28.0935453 L21.3752728,28.0943635 Z" id="Shape" fill="#292C36" fill-rule="nonzero"></path>
                        </g>
                        <g id="Overflow" transform="translate(96.000000, 0.000000)">
                            <polygon id="appbarbg-copy-3" fill="#B6B6B6" opacity="0" points="0 0 48 0 48 48 0 48"></polygon>
                            <path d="M25.6130008,23.6130008 C25.6135319,24.3061742 25.3384051,24.9711096 24.8482573,25.4612573 C24.3581096,25.9514051 23.6931742,26.2265319 23.0000008,26.2260008 C22.3068274,26.2265319 21.6418919,25.9514051 21.1517442,25.4612573 C20.6615964,24.9711096 20.3864696,24.3061742 20.3870008,23.6130008 C20.3864696,22.9198274 20.6615964,22.2548919 21.1517442,21.7647442 C21.6418919,21.2745964 22.3068274,20.9994696 23.0000008,21.0000008 C23.6931742,20.9994696 24.3581096,21.2745964 24.8482573,21.7647442 C25.3384051,22.2548919 25.6135319,22.9198274 25.6130008,23.6130008 L25.6130008,23.6130008 Z M29.3870008,21.0000008 C28.6938274,20.9994696 28.0288919,21.2745964 27.5387442,21.7647442 C27.0485964,22.2548919 26.7734696,22.9198274 26.7740008,23.6130008 C26.7734696,24.3061742 27.0485964,24.9711096 27.5387442,25.4612573 C28.0288919,25.9514051 28.6938274,26.2265319 29.3870008,26.2260008 C30.0801742,26.2265319 30.7451096,25.9514051 31.2352573,25.4612573 C31.7254051,24.9711096 32.0005319,24.3061742 32.0000008,23.6130008 C32.0005319,22.9198274 31.7254051,22.2548919 31.2352573,21.7647442 C30.7451096,21.2745964 30.0801742,20.9994696 29.3870008,21.0000008 L29.3870008,21.0000008 Z M16.6130008,21.0000008 C15.9198274,20.9994696 15.2548919,21.2745964 14.7647442,21.7647442 C14.2745964,22.2548919 13.9994696,22.9198274 14.0000008,23.6130008 C13.9994696,24.3061742 14.2745964,24.9711096 14.7647442,25.4612573 C15.2548919,25.9514051 15.9198274,26.2265319 16.6130008,26.2260008 C17.3061742,26.2265319 17.9711096,25.9514051 18.4612573,25.4612573 C18.9514051,24.9711096 19.2265319,24.3061742 19.2260008,23.6130008 C19.2265319,22.9198274 18.9514051,22.2548919 18.4612573,21.7647442 C17.9711096,21.2745964 17.3061742,20.9994696 16.6130008,21.0000008 L16.6130008,21.0000008 Z" id="Shape" fill="#000000" fill-rule="nonzero"></path>
                        </g>
                    </g>
                    <g id="Menu-Icon" transform="translate(0.000000, 1.000000)">
                        <rect id="Rectangle" x="0" y="0" width="48" height="48"></rect>
                        <path d="M32.5155838,18.9531561 L15.4843744,18.9531561 C15.4322914,18.9531561 15.3802078,18.9271143 15.3281248,18.8750313 C15.2760418,18.8229483 15.25,18.7708647 15.25,18.7187817 L15.25,17.7812839 C15.25,17.7292009 15.2760418,17.6771173 15.3281248,17.6250343 C15.3802078,17.5729513 15.4322914,17.5469095 15.4843744,17.5469095 L32.5155838,17.5469095 C32.5676668,17.5469095 32.6197505,17.5729513 32.6718335,17.6250343 C32.7239165,17.6771173 32.7499583,17.7292009 32.7499583,17.7812839 L32.7499583,18.7187817 C32.7499583,18.7708647 32.7239165,18.8229483 32.6718335,18.8750313 C32.6197505,18.9271143 32.5676668,18.9531561 32.5155838,18.9531561 Z M32.5155838,25.2031412 L15.4843744,25.2031412 C15.4322914,25.2031412 15.3802078,25.1770994 15.3281248,25.1250164 C15.2760418,25.0729334 15.25,25.0208498 15.25,24.9687668 L15.25,24.031269 C15.25,23.979186 15.2760418,23.9271024 15.3281248,23.8750194 C15.3802078,23.8229364 15.4322914,23.7968946 15.4843744,23.7968946 L32.5155838,23.7968946 C32.5676668,23.7968946 32.6197505,23.8229364 32.6718335,23.8750194 C32.7239165,23.9271024 32.7499583,23.979186 32.7499583,24.031269 L32.7499583,24.9687668 C32.7499583,25.0208498 32.7239165,25.0729334 32.6718335,25.1250164 C32.6197505,25.1770994 32.5676668,25.2031412 32.5155838,25.2031412 Z M32.5155838,31.4531263 L15.4843744,31.4531263 C15.4322914,31.4531263 15.3802078,31.4270845 15.3281248,31.3750015 C15.2760418,31.3229185 15.25,31.2708349 15.25,31.2187519 L15.25,30.2812541 C15.25,30.2291711 15.2760418,30.1770875 15.3281248,30.1250045 C15.3802078,30.0729215 15.4322914,30.0468797 15.4843744,30.0468797 L32.5155838,30.0468797 C32.5676668,30.0468797 32.6197505,30.0729215 32.6718335,30.1250045 C32.7239165,30.1770875 32.7499583,30.2291711 32.7499583,30.2812541 L32.7499583,31.2187519 C32.7499583,31.2708349 32.7239165,31.3229185 32.6718335,31.3750015 C32.6197505,31.4270845 32.5676668,31.4531263 32.5155838,31.4531263 Z" id="icon-menu" fill="#292C36" fill-rule="nonzero"></path>
                    </g>
                </g>
            </g>
        </g>
    </g>
</svg>