<?xml version="1.0" encoding="utf-8"?>
<!-- Generator: Adobe Illustrator 19.2.1, SVG Export Plug-In . SVG Version: 6.00 Build 0)  -->
<svg version="1.1" id="Layer_1" xmlns="http://www.w3.org/2000/svg" xmlns:xlink="http://www.w3.org/1999/xlink" x="0px" y="0px"
	 viewBox="0 0 130 30" enable-background="new 0 0 130 30" xml:space="preserve">
<g>
	<path fill="#FFFFFF" d="M32.9,2h2.9l10.6,17.9V2h5.2v26L46,28L35.4,10.1V28h-5.2V4.8C30.2,3.3,31.4,2,32.9,2z"/>
	<path fill="#FFFFFF" d="M65.3,2H68v10.1L77.7,2h6.8l-9.8,10.1L85.3,28h-6.5L71,16.5l-3,3.3V28h-5.3V4.8C62.7,3.3,63.9,2,65.3,2z"/>
	<path fill="#FFFFFF" d="M87.2,4.8C87.2,3,88,2,89.8,2h14.3v4.5H92.4v5.6h9.7c0,0,0,4.3,0,4.4h-9.7v6.7h11.7V28h-17V4.8z"/>
	<path fill="#FFFFFF" d="M114.5,28V17.8L106,2h6.1l5.1,10l4.2-8.5c0.5-1,1.3-1.6,2.4-1.6h4.5l-8.5,15.8V28H114.5z"/>
	<g>
		<polygon fill="#58C1EF" points="15.5,2 15.5,7.3 22.1,7.3 22.1,13.9 27.4,13.9 27.4,2 		"/>
		<g>
			<path fill="#FFFFFF" d="M21.9,17.5c-1.1,3-4,5.1-7.3,5.1c-4.3,0-7.8-3.5-7.8-7.8c0-3.4,2.2-6.3,5.2-7.4V2
				c-4.4,0.9-8.3,4.2-9.8,8.5c-0.4,1.3-0.7,2.9-0.7,4.3C1.4,22.1,7.3,28,14.6,28c5.3,0,10.9-3.5,12.5-8.7c0.2-0.6,0.3-1.1,0.4-1.7
				H21.9z"/>
		</g>
	</g>
</g>
</svg>
