<?xml version="1.0" encoding="UTF-8"?>
<svg width="24px" height="24px" viewBox="0 0 24 24" version="1.1" xmlns="http://www.w3.org/2000/svg" xmlns:xlink="http://www.w3.org/1999/xlink">
    <!-- Generator: Sketch 55.2 (78181) - https://sketchapp.com -->
    <title>align-right-solid</title>
    <desc>Created with Sketch.</desc>
    <g id="User-Journey-Final-1-Desktop" stroke="none" stroke-width="1" fill="none" fill-rule="evenodd">
        <g id="align-right-solid" fill="#000000" fill-rule="nonzero">
            <path d="M0.857142857,10.2857145 L23.1428571,10.2857145 C23.6162441,10.2857145 24,9.9019586 24,9.42857168 L24,7.714286 C24,7.24089908 23.6162441,6.85714316 23.1428571,6.85714316 L0.857142857,6.85714316 C0.383755929,6.85714316 0,7.24089908 0,7.714286 L0,9.42857168 C0,9.9019586 0.383755929,10.2857145 0.857142857,10.2857145 Z M23.1428571,20.5714286 L0.857142857,20.5714286 C0.383755929,20.5714286 0,20.9551846 0,21.4285715 L0,23.1428572 C0,23.6162441 0.383755929,24 0.857142857,24 L23.1428571,24 C23.6162441,24 24,23.6162441 24,23.1428572 L24,21.4285715 C24,20.9551846 23.6162441,20.5714286 23.1428571,20.5714286 Z M23.3126786,2.08787489e-07 L9.25875,2.08787489e-07 C9.07641744,-0.000141862448 8.90151187,0.0722264593 8.77258324,0.201155084 C8.64365461,0.330083709 8.57142836,0.504989281 8.57142836,0.687321835 L8.57142836,2.74125037 C8.57142836,2.92358292 8.64365461,3.0984885 8.77258324,3.22741712 C8.90151187,3.35634575 9.07641744,3.42871407 9.25875,3.428572 L23.3126786,3.428572 C23.4950111,3.42871407 23.6699167,3.35634575 23.7988453,3.22741712 C23.927774,3.0984885 24.0000002,2.92358292 24.0000002,2.74125037 L24.0000002,0.687321835 C24.0000002,0.504989281 23.927774,0.330083709 23.7988453,0.201155084 C23.6699167,0.0722264593 23.4950111,-0.000141862448 23.3126786,2.08787489e-07 Z M23.3126786,13.7142857 L9.25875,13.7142857 C9.07641744,13.7141436 8.90151187,13.7865119 8.77258324,13.9154406 C8.64365461,14.0443692 8.57142836,14.2192748 8.57142836,14.4016073 L8.57142836,16.4555358 C8.57142836,16.6378684 8.64365461,16.812774 8.77258324,16.9417026 C8.90151187,17.0706312 9.07641744,17.1429995 9.25875,17.1428575 L23.3126786,17.1428575 C23.4950111,17.1429995 23.6699167,17.0706312 23.7988453,16.9417026 C23.927774,16.812774 24.0000002,16.6378684 24.0000002,16.4555358 L24.0000002,14.4016073 C24.0000002,14.2192748 23.927774,14.0443692 23.7988453,13.9154406 C23.6699167,13.7865119 23.4950111,13.7141436 23.3126786,13.7142857 L23.3126786,13.7142857 Z" id="Shape"></path>
        </g>
    </g>
</svg>