<?xml version="1.0" encoding="UTF-8"?>
<svg width="24px" height="16px" viewBox="0 0 24 16" version="1.1" xmlns="http://www.w3.org/2000/svg" xmlns:xlink="http://www.w3.org/1999/xlink">
    <!-- Generator: Sketch 55.2 (78181) - https://sketchapp.com -->
    <title>eye-solid</title>
    <desc>Created with Sketch.</desc>
    <g id="User-Journey-Final-1-Desktop" stroke="none" stroke-width="1" fill="none" fill-rule="evenodd">
        <g id="eye-solid" fill="#000000" fill-rule="nonzero">
            <path d="M23.8550225,7.39166667 C21.5954349,2.98291667 17.1220931,0 12,0 C6.87790694,0 2.40331511,2.985 0.14497749,7.39208333 C-0.0483258301,7.77445825 -0.0483258301,8.22595841 0.14497749,8.60833333 C2.40456511,13.0170833 6.87790694,16 12,16 C17.1220931,16 21.5966849,13.015 23.8550225,8.60791667 C24.0483258,8.22554175 24.0483258,7.77404159 23.8550225,7.39166667 Z M12,14 C8.68628521,14 5.99998861,11.3137085 5.99998861,8 C5.99998861,4.6862915 8.68628521,2 12,2 C15.3137148,2 18.0000121,4.6862915 18.0000121,8 C18.0007856,9.59153616 17.368892,11.1181095 16.2435037,12.2434957 C15.1181154,13.3688818 13.5915392,14.0007742 12,14 L12,14 Z M12,3.99998885 C11.6429708,4.00498962 11.2882453,4.05810724 10.9454147,4.15791667 C11.5293849,4.95150825 11.446083,6.05266558 10.7493724,6.74937482 C10.0526619,7.44608405 8.95150246,7.52938577 8.15790937,6.94541667 C7.70951089,8.59740065 8.3645638,10.3513572 9.78608332,11.3049826 C11.2076028,12.2586081 13.0789593,12.1994915 14.4374538,11.1580449 C15.7959483,10.1165982 16.3389895,8.3247936 15.7872157,6.70440527 C15.2354418,5.08401694 13.7117554,3.9959707 12,3.99998885 L12,3.99998885 Z" id="Shape"></path>
        </g>
    </g>
</svg>