<svg width="24" height="24" xmlns="http://www.w3.org/2000/svg"><path d="M9.577.281c-4.66.91-8.415 4.655-9.333 9.3-1.735 8.766 6.173 15.3 12.131 14.377 1.931-.3 2.878-2.56 1.992-4.299-1.083-2.128.464-4.612 2.855-4.612h3.736c1.678 0 3.037-1.388 3.042-3.061C23.977 4.598 17.255-1.214 9.577.28zM4.5 15.047c-.83 0-1.5-.67-1.5-1.5s.67-1.5 1.5-1.5 1.5.67 1.5 1.5-.67 1.5-1.5 1.5zm1.5-6c-.83 0-1.5-.67-1.5-1.5s.67-1.5 1.5-1.5 1.5.67 1.5 1.5-.67 1.5-1.5 1.5zm6-3c-.83 0-1.5-.67-1.5-1.5s.67-1.5 1.5-1.5 1.5.67 1.5 1.5-.67 1.5-1.5 1.5zm6 3c-.83 0-1.5-.67-1.5-1.5s.67-1.5 1.5-1.5 1.5.67 1.5 1.5-.67 1.5-1.5 1.5z" fill="#000" fill-rule="nonzero"/></svg>