<svg viewBox="0 0 24 24">
<path d="M12 24c6.6-.07 11.93-5.4 12-12A12.12 12.12 0 0 0 12 0C5.4.07.07 5.4 0 12c.07 6.6 5.4 11.93 12 12zm0-2.32A9.75 9.75 0 0 1 2.32 12 9.75 9.75 0 0 1 12 2.32 9.75 9.75 0 0 1 21.68 12 9.75 9.75 0 0 1 12 21.68zm.77-3.49c.16 0 .31-.06.42-.15.1-.12.16-.27.16-.42v-4.26h4.26a.6.6 0 0 0 .41-.17.59.59 0 0 0 .17-.42v-1.54a.66.66 0 0 0-.15-.42.56.56 0 0 0-.43-.16h-4.26V6.4a.58.58 0 0 0-.16-.41.56.56 0 0 0-.42-.17h-1.54a.66.66 0 0 0-.42.15.56.56 0 0 0-.16.43v4.26H6.36a.55.55 0 0 0-.4.16.56.56 0 0 0-.15.42v1.54c0 .16.06.31.15.42.13.11.26.16.42.16h4.26v4.27c0 .16.06.3.17.4.11.11.26.17.42.17h1.54z"/>
</svg>