<svg width="24" height="24" xmlns="http://www.w3.org/2000/svg"><path d="M1 22.5c0-.139.055-.257.164-.354A.579.579 0 011.563 22h19.875c.156 0 .289.049.398.146.11.097.164.215.164.354v1a.457.457 0 01-.164.354.579.579 0 01-.398.146H1.563a.579.579 0 01-.399-.146A.457.457 0 011 23.5v-1zM14.523.569c0-.158.055-.293.164-.403A.537.537 0 0115.084 0h6.355c.156 0 .288.055.397.166.11.11.164.245.164.403v1.137a.552.552 0 01-.164.403.537.537 0 01-.397.166h-1.916v10.047c0 2.465-.7 4.376-2.102 5.735C16.05 19.352 14.227 20 11.953 20s-4.065-.648-5.374-1.943c-1.401-1.327-2.102-3.239-2.102-5.735V2.275H2.56a.537.537 0 01-.397-.166A.552.552 0 012 1.706V.57c0-.158.055-.293.164-.403A.537.537 0 012.56 0h6.355c.156 0 .288.055.397.166.11.11.164.245.164.403v1.137a.552.552 0 01-.164.403.537.537 0 01-.397.166h-1.87v10.047c0 1.77.43 3.089 1.286 3.958.856.868 2.08 1.303 3.668 1.303 1.589 0 2.82-.45 3.692-1.35.872-.901 1.308-2.22 1.308-3.958v-10h-1.916a.537.537 0 01-.397-.166.552.552 0 01-.164-.403V.57z" fill="#000" fill-rule="nonzero"/></svg>