<svg xmlns="http://www.w3.org/2000/svg" width="24" height="24">
  <path d="M1.175 19.282c.294-.147.596-.372.906-.676.31-.303.6-.701.874-1.193.273-.492.466-1.11.583-1.853l1.008-6.39h1.748c.158-.273.21-.547.158-.82H4.704l.157-.787c.115-.545.237-.976.363-1.292.125-.315.26-.559.401-.732a1.14 1.14 0 0 1 .45-.354c.157-.064.33-.12.519-.173l1.197.976c.21-.178.36-.39.45-.637.088-.247.144-.486.164-.717a2.231 2.231 0 0 0-.622-.19 3.904 3.904 0 0 0-.639-.063c-.43 0-.834.047-1.212.143a2.746 2.746 0 0 0-1.039.511c-.315.246-.59.583-.827 1.008-.236.425-.423.963-.559 1.614l-.11.552a5.878 5.878 0 0 0-1.339.538v.424h1.15l-1.023 6.688a6.734 6.734 0 0 1-.355 1.374 5.65 5.65 0 0 1-.488.998 3.201 3.201 0 0 1-.528.65 2.191 2.191 0 0 1-.457.338l.142.346a4.12 4.12 0 0 0 .676-.283zm5.639-4.9a6.5 6.5 0 0 0 .575 2.717c.383.846 1.025 1.657 1.929 2.434l.458-.316c-.62-.755-1.045-1.546-1.277-2.37a9.408 9.408 0 0 1-.33-2.653 8.777 8.777 0 0 1 .402-2.788A11.23 11.23 0 0 1 9.65 9.004c.44-.729.929-1.393 1.464-1.992a16.92 16.92 0 0 1 1.575-1.558l-.268-.285c-.63.4-1.276.885-1.937 1.458A11.374 11.374 0 0 0 8.68 8.619a10.712 10.712 0 0 0-1.338 2.567c-.353.955-.528 2.02-.528 3.196zm5.339-5.544v.394l1.008.126 1.07 2.898c-.168.148-.42.37-.756.67a20.12 20.12 0 0 0-1.04 1 12.24 12.24 0 0 0-.976 1.133c-.294.389-.488.74-.583 1.056.232.136.52.205.866.205.168 0 .343-.016.528-.048a2.53 2.53 0 0 0 .544-.158 1.816 1.816 0 0 1-.017-.291c0-.131.003-.273.008-.425l.016-.433a1.41 1.41 0 0 1 .04-.315 2.93 2.93 0 0 1 .3-.441 7.45 7.45 0 0 1 .409-.473c.147-.156.296-.31.449-.456.151-.147.286-.284.401-.41l.867 2.851c.053.168.138.31.254.425.117.116.288.174.512.174.137 0 .29-.02.454-.063a2.86 2.86 0 0 0 .463-.158c.145-.062.277-.126.4-.189a3.26 3.26 0 0 0 .279-.158v-.394l-1.023-.126-1.134-3.071c.104-.095.249-.223.433-.386.183-.162.38-.346.59-.552.21-.204.427-.425.654-.661.226-.236.438-.475.637-.717.2-.241.372-.483.52-.724.147-.242.252-.467.315-.678a1.835 1.835 0 0 0-.884-.205c-.18 0-.356.019-.529.056a4.16 4.16 0 0 0-.529.15c.011.064.022.16.032.29l.031.426c.011.153.016.296.016.433s-.005.242-.015.316a4.169 4.169 0 0 1-.655.865 39.91 39.91 0 0 1-.795.819l-.771-2.74a1.45 1.45 0 0 0-.255-.418c-.106-.12-.276-.181-.51-.181-.148 0-.302.02-.46.062-.16.042-.317.095-.472.159a3.508 3.508 0 0 0-.414.197 5.08 5.08 0 0 0-.278.166zm9.19-.993c.12.378.204.762.252 1.15.047.39.072.809.072 1.26 0 1.05-.15 2.037-.45 2.961a12.686 12.686 0 0 1-1.119 2.528c-.446.76-.934 1.436-1.463 2.023a13.789 13.789 0 0 1-1.49 1.449l.316.316c.672-.389 1.335-.88 1.992-1.474a11.48 11.48 0 0 0 1.772-2.04c.525-.765.95-1.619 1.276-2.558a9.265 9.265 0 0 0 .489-3.048c0-.986-.197-1.902-.59-2.747-.394-.846-1.043-1.678-1.946-2.497l-.41.284c.326.441.594.855.804 1.244.21.388.375.772.495 1.15z"/>
</svg>
