<svg xmlns="http://www.w3.org/2000/svg" width="24" height="24">
  <path d="M2.84 16v-1.428h1.656v-4.404H3.068V9.076c.828-.156 1.356-.372 1.896-.696H6.26v6.192h1.428V16H2.84zm5.94 0v-1.008c1.944-1.836 3.312-3.144 3.312-4.224 0-.744-.42-1.152-1.08-1.152-.552 0-.972.372-1.356.78l-.96-.948c.756-.804 1.464-1.212 2.556-1.212 1.5 0 2.52.96 2.52 2.424 0 1.284-1.2 2.652-2.436 3.948.384-.048.912-.096 1.272-.096h1.536V16H8.78zm8.808.144c-1.236 0-2.1-.432-2.652-1.08l.816-1.116c.456.444 1.02.768 1.668.768.744 0 1.236-.324 1.236-.9 0-.672-.396-1.092-2.052-1.092v-1.248c1.368 0 1.8-.408 1.8-1.02 0-.528-.336-.84-.936-.84-.54 0-.948.252-1.428.672l-.888-1.08c.696-.6 1.464-.972 2.4-.972 1.572 0 2.628.756 2.628 2.088 0 .792-.456 1.344-1.272 1.692v.048c.876.252 1.512.876 1.512 1.86 0 1.416-1.296 2.22-2.832 2.22z"/>
</svg>
