<svg xmlns="http://www.w3.org/2000/svg" width="22" height="23">
  <path d="M21.986 6.005V1.142c0-.097-.014-.187-.034-.27a1.044 1.044 0 0 0-1.017-.837H1.058a1.04 1.04 0 0 0-1.03.927c-.014.062-.014.117-.014.186v4.864c0 .574.47 1.038 1.038 1.038a1.041 1.041 0 0 0 1.037-1.038V2.117h17.829v3.895c0 .574.47 1.038 1.037 1.038.284 0 .547-.118.734-.305.18-.193.297-.456.297-.74z"/>
  <path d="M10.413 5.27l-6.317 8.562c-.315.417.194.91.799.758l3.195-.815v8.695c0 .284.29.53.677.53h4.478c.363 0 .677-.227.677-.53v-8.695l3.195.815c.581.151 1.09-.341.799-.758L11.599 5.27c-.29-.36-.92-.36-1.186 0z"/>
</svg>
