<?xml version="1.0" encoding="UTF-8"?>
<svg width="24px" height="24px" viewBox="0 0 24 24" version="1.1" xmlns="http://www.w3.org/2000/svg" xmlns:xlink="http://www.w3.org/1999/xlink">
    <!-- Generator: Sketch 57.1 (83088) - https://sketch.com -->
    <title>desktop</title>
    <desc>Created with Sketch.</desc>
    <g id="desktop" stroke="none" stroke-width="1" fill="none" fill-rule="evenodd">
        <path d="M22,2 C22.5555553,2 23.027778,2.19140646 23.4166667,2.57421875 C23.8055553,2.95703104 24,3.42187521 24,3.96875 L24,17.09375 C24,17.6406248 23.8055553,18.105469 23.4166667,18.4882812 C23.027778,18.8710935 22.5555553,19.0625 22,19.0625 L14,19.0625 L14.6666667,21.03125 L17.6666667,21.03125 C17.9444447,21.03125 18.1805553,21.1269529 18.375,21.3183594 C18.5694447,21.5097658 18.6666667,21.7421873 18.6666667,22.015625 C18.6666667,22.2890627 18.5694447,22.5214842 18.375,22.7128906 C18.1805553,22.9042971 17.9444447,23 17.6666667,23 L6.33333333,23 C6.05555534,23 5.81944466,22.9042971 5.625,22.7128906 C5.43055534,22.5214842 5.33333333,22.2890627 5.33333333,22.015625 C5.33333333,21.7421873 5.43055534,21.5097658 5.625,21.3183594 C5.81944466,21.1269529 6.05555534,21.03125 6.33333333,21.03125 L9.33333333,21.03125 L10,19.0625 L2,19.0625 C1.44444466,19.0625 0.97222201,18.8710935 0.583333333,18.4882812 C0.194444656,18.105469 0,17.6406248 0,17.09375 L0,3.96875 C0,3.42187521 0.194444656,2.95703104 0.583333333,2.57421875 C0.97222201,2.19140646 1.44444466,2 2,2 L22,2 Z" id="Combined-Shape" fill="#000000" fill-rule="nonzero"></path>
    </g>
</svg>