<?xml version="1.0" encoding="UTF-8"?>
<svg width="24px" height="24px" viewBox="0 0 24 24" version="1.1" xmlns="http://www.w3.org/2000/svg" xmlns:xlink="http://www.w3.org/1999/xlink">
    <!-- Generator: Sketch 54.1 (76490) - https://sketchapp.com -->
    <title>asset_value_management a copy 2</title>
    <desc>Created with Sketch.</desc>
    <g id="asset_value_management-a-copy-2" stroke="none" stroke-width="1" fill="none" fill-rule="evenodd">
        <path d="M14,13.6365852 L14,10.9088693 C14.9122288,10.3569741 16.364401,10 18,10 C20.7614237,10 23,11.0175347 23,12.2727273 C23,13.5279199 20.7614237,14.5454545 18,14.5454545 C16.364401,14.5454545 14.9122288,14.1884804 14,13.6365852 Z M14,14.6050923 C14.914052,15.1713944 16.2473853,15.4545455 18,15.4545455 C20.5641026,15.4545455 22.2307692,14.8484848 23,13.6363636 L23,15.7142857 C21.974359,16.7532468 20.3076923,17.2727273 18,17.2727273 C16.3316145,17.2727273 14.9982812,17.0012045 14,16.458159 L14,14.6050923 Z M14,17.3323651 C14.914052,17.8986671 16.2473853,18.1818182 18,18.1818182 C20.5641026,18.1818182 22.2307692,17.5757576 23,16.3636364 L23,18.4415584 C21.974359,19.4805195 20.3076923,20 18,20 C16.3316145,20 14.9982812,19.7284772 14,19.1854317 L14,17.3323651 Z" id="Combined-Shape" fill="#000000"></path>
        <g id="Group" transform="translate(1.000000, 2.000000)" fill="#000000">
            <ellipse id="Oval-Copy" cx="6" cy="2.5" rx="6" ry="2.5"></ellipse>
            <path d="M0,4 L0,6.28571429 C1.23076923,7.42857143 3.23076923,8 6,8 C8.76923077,8 10.7692308,7.42857143 12,6.28571429 L12,4 C11.0769231,5.33333333 9.07692308,6 6,6 C2.92307692,6 0.923076923,5.33333333 0,4 Z" id="Path-16-Copy-2"></path>
            <path d="M0,7 L0,9.28571429 C1.23076923,10.4285714 3.23076923,11 6,11 C8.76923077,11 10.7692308,10.4285714 12,9.28571429 L12,7 C11.0769231,8.33333333 9.07692308,9 6,9 C2.92307692,9 0.923076923,8.33333333 0,7 Z" id="Path-16-Copy-3"></path>
            <path d="M0,10 L0,12.2857143 C1.23076923,13.4285714 3.23076923,14 6,14 C8.76923077,14 10.7692308,13.4285714 12,12.2857143 L12,10 C11.0769231,11.3333333 9.07692308,12 6,12 C2.92307692,12 0.923076923,11.3333333 0,10 Z" id="Path-16-Copy-4"></path>
            <path d="M0,13 L0,15.2857143 C1.23076923,16.4285714 3.23076923,17 6,17 C8.76923077,17 10.7692308,16.4285714 12,15.2857143 L12,13 C11.0769231,14.3333333 9.07692308,15 6,15 C2.92307692,15 0.923076923,14.3333333 0,13 Z" id="Path-16-Copy-5"></path>
            <path d="M0,16 L0,18.2857143 C1.23076923,19.4285714 3.23076923,20 6,20 C8.76923077,20 10.7692308,19.4285714 12,18.2857143 L12,16 C11.0769231,17.3333333 9.07692308,18 6,18 C2.92307692,18 0.923076923,17.3333333 0,16 Z" id="Path-16-Copy-6"></path>
        </g>
    </g>
</svg>