<?xml version="1.0" encoding="UTF-8"?>
<svg width="24px" height="24px" viewBox="0 0 24 24" version="1.1" xmlns="http://www.w3.org/2000/svg" xmlns:xlink="http://www.w3.org/1999/xlink">
    <!-- Generator: Sketch 54.1 (76490) - https://sketchapp.com -->
    <title>contact_management</title>
    <desc>Created with Sketch.</desc>
    <g id="contact_management" stroke="none" stroke-width="1" fill="none" fill-rule="evenodd">
        <path d="M1.95918865,17.007803 C2.2720343,12.7655037 4.28542354,9.13484351 7.14455813,7.17841399 L10.2753239,13.4419314 L7.79861111,6.2522629 L10.2445649,5.51785714 L10.9879429,14.8676213 L11.1597222,15.2112889 L11.1597222,4.12102594 C11.7540377,3.92587281 12.5371319,3.9748887 13.0718172,4.20940427 L13.0718172,15.2112889 L13.3003695,14.7301309 L14.0328159,5.51785714 L16.4787697,6.2522629 L14.2390273,12.7540284 L16.8795939,7.19499428 C19.7259109,9.15531172 21.7288473,12.777459 22.0408114,17.007803 C22.6571608,17.3615607 23,17.7538011 23,18.1666667 C23,19.7314735 18.0751322,21 12,21 C5.92486775,21 1,19.7314735 1,18.1666667 C1,17.7538011 1.34283923,17.3615607 1.95918865,17.007803 Z M11.7964674,19 C17.7262615,19 20,17 20,17 C20,17 17.7262615,18 11.7964674,18 C5.86667322,18 3,17 3,17 C3,17 5.86667322,19 11.7964674,19 Z" id="Combined-Shape" fill="#000000"></path>
    </g>
</svg>