<?xml version="1.0" encoding="UTF-8"?>
<svg width="24px" height="24px" viewBox="0 0 24 24" version="1.1" xmlns="http://www.w3.org/2000/svg" xmlns:xlink="http://www.w3.org/1999/xlink">
    <!-- Generator: Sketch 54.1 (76490) - https://sketchapp.com -->
    <title>doc_management  copy</title>
    <desc>Created with Sketch.</desc>
    <g id="doc_management--copy" stroke="none" stroke-width="1" fill="none" fill-rule="evenodd">
        <g id="Group" transform="translate(1.000000, 1.000000)" fill="#000000" fill-rule="nonzero">
            <path d="M22,10.95996 L19.21216,10.95776 C19.2137,13.23454 18.29212,15.29506 16.80096,16.78622 C15.3098,18.27716 13.24928,19.19896 10.9725,19.19742 C8.69572,19.19588 6.61936,18.2864 5.12644,16.79348 L3.71932,15.36194 L5.68018,13.40108 L0.00264,13.40108 L0.00286,19.0784 L1.76242,17.31884 L3.18186,18.73806 C5.18914,20.74534 7.94926,21.99978 10.95996,22 C13.97088,22 16.731,20.74556 18.73806,18.73806 C20.74534,16.73078 22,13.97088 22,10.95996 Z M11.04136,0 C8.03,0 5.27076,1.25576 3.26326,3.26326 C1.25576,5.27076 0,8.03 0,11.04136 L2.78674,11.04136 C2.78674,8.76348 3.70788,6.7056 5.1975,5.21598 C6.69174,3.72174 8.74962,2.8006 11.0275,2.8006 C13.30538,2.80522 15.38174,3.71272 16.87576,5.20674 L18.28288,6.63674 L16.32114,8.59848 L21.99538,8.59848 L21.99538,2.91962 L20.23538,4.67962 L18.81902,3.26326 C16.81174,1.25576 14.0525,0 11.04136,0 Z" id="Shape" transform="translate(11.000000, 11.000000) rotate(-270.000000) translate(-11.000000, -11.000000) "></path>
            <path d="M22,10.95996 L19.21216,10.95776 C19.2137,13.23454 18.29212,15.29506 16.80096,16.78622 C15.3098,18.27716 13.24928,19.19896 10.9725,19.19742 C8.69572,19.19588 6.61936,18.2864 5.12644,16.79348 L3.71932,15.36194 L5.68018,13.40108 L0.00264,13.40108 L0.00286,19.0784 L1.76242,17.31884 L3.18186,18.73806 C5.18914,20.74534 7.94926,21.99978 10.95996,22 C13.97088,22 16.731,20.74556 18.73806,18.73806 C20.74534,16.73078 22,13.97088 22,10.95996 Z M11.04136,0 C8.03,0 5.27076,1.25576 3.26326,3.26326 C1.25576,5.27076 0,8.03 0,11.04136 L2.78674,11.04136 C2.78674,8.76348 3.70788,6.7056 5.1975,5.21598 C6.69174,3.72174 8.74962,2.8006 11.0275,2.8006 C13.30538,2.80522 15.38174,3.71272 16.87576,5.20674 L18.28288,6.63674 L16.32114,8.59848 L21.99538,8.59848 L21.99538,2.91962 L20.23538,4.67962 L18.81902,3.26326 C16.81174,1.25576 14.0525,0 11.04136,0 Z" id="Shape" transform="translate(11.000000, 11.000000) rotate(-180.000000) translate(-11.000000, -11.000000) "></path>
        </g>
        <rect id="Rectangle" fill="#FFFFFF" x="9.5" y="1" width="2" height="6"></rect>
        <rect id="Rectangle" fill="#FFFFFF" x="12.5" y="17" width="2" height="6"></rect>
        <rect id="Rectangle" fill="#FFFFFF" transform="translate(4.000000, 13.500000) rotate(90.000000) translate(-4.000000, -13.500000) " x="3" y="10.5" width="2" height="6"></rect>
        <rect id="Rectangle" fill="#FFFFFF" transform="translate(20.000000, 10.500000) rotate(90.000000) translate(-20.000000, -10.500000) " x="19" y="7.5" width="2" height="6"></rect>
    </g>
</svg>