<?xml version="1.0" encoding="UTF-8"?>
<svg width="24px" height="24px" viewBox="0 0 24 24" version="1.1" xmlns="http://www.w3.org/2000/svg" xmlns:xlink="http://www.w3.org/1999/xlink">
    <!-- Generator: Sketch 54.1 (76490) - https://sketchapp.com -->
    <title>general</title>
    <desc>Created with Sketch.</desc>
    <g id="general" stroke="none" stroke-width="1" fill="none" fill-rule="evenodd">
        <rect id="Rectangle" fill="#000000" x="1" y="3" width="22" height="3"></rect>
        <rect id="Rectangle-Copy" fill="#000000" x="1" y="10.5" width="22" height="3"></rect>
        <rect id="Rectangle-Copy-3" fill="#000000" x="1" y="18" width="22" height="3"></rect>
        <path d="M4.2819426,1 L6.7180574,1 C7.16381677,1 7.32545989,1.04641281 7.48842285,1.13356635 C7.65138581,1.2207199 7.7792801,1.34861419 7.86643365,1.51157715 C7.95358719,1.67454011 8,1.83618323 8,2.2819426 L8,6.7180574 C8,7.16381677 7.95358719,7.32545989 7.86643365,7.48842285 C7.7792801,7.65138581 7.65138581,7.7792801 7.48842285,7.86643365 C7.32545989,7.95358719 7.16381677,8 6.7180574,8 L4.2819426,8 C3.83618323,8 3.67454011,7.95358719 3.51157715,7.86643365 C3.34861419,7.7792801 3.2207199,7.65138581 3.13356635,7.48842285 C3.04641281,7.32545989 3,7.16381677 3,6.7180574 L3,2.2819426 C3,1.83618323 3.04641281,1.67454011 3.13356635,1.51157715 C3.2207199,1.34861419 3.34861419,1.2207199 3.51157715,1.13356635 C3.67454011,1.04641281 3.83618323,1 4.2819426,1 Z" id="Rectangle" fill="#000000"></path>
        <path d="M14.2819426,8.5 L16.7180574,8.5 C17.1638168,8.5 17.3254599,8.54641281 17.4884229,8.63356635 C17.6513858,8.7207199 17.7792801,8.84861419 17.8664336,9.01157715 C17.9535872,9.17454011 18,9.33618323 18,9.7819426 L18,14.2180574 C18,14.6638168 17.9535872,14.8254599 17.8664336,14.9884229 C17.7792801,15.1513858 17.6513858,15.2792801 17.4884229,15.3664336 C17.3254599,15.4535872 17.1638168,15.5 16.7180574,15.5 L14.2819426,15.5 C13.8361832,15.5 13.6745401,15.4535872 13.5115771,15.3664336 C13.3486142,15.2792801 13.2207199,15.1513858 13.1335664,14.9884229 C13.0464128,14.8254599 13,14.6638168 13,14.2180574 L13,9.7819426 C13,9.33618323 13.0464128,9.17454011 13.1335664,9.01157715 C13.2207199,8.84861419 13.3486142,8.7207199 13.5115771,8.63356635 C13.6745401,8.54641281 13.8361832,8.5 14.2819426,8.5 Z" id="Rectangle-Copy-2" fill="#000000"></path>
        <path d="M7.2819426,16 L9.7180574,16 C10.1638168,16 10.3254599,16.0464128 10.4884229,16.1335664 C10.6513858,16.2207199 10.7792801,16.3486142 10.8664336,16.5115771 C10.9535872,16.6745401 11,16.8361832 11,17.2819426 L11,21.7180574 C11,22.1638168 10.9535872,22.3254599 10.8664336,22.4884229 C10.7792801,22.6513858 10.6513858,22.7792801 10.4884229,22.8664336 C10.3254599,22.9535872 10.1638168,23 9.7180574,23 L7.2819426,23 C6.83618323,23 6.67454011,22.9535872 6.51157715,22.8664336 C6.34861419,22.7792801 6.2207199,22.6513858 6.13356635,22.4884229 C6.04641281,22.3254599 6,22.1638168 6,21.7180574 L6,17.2819426 C6,16.8361832 6.04641281,16.6745401 6.13356635,16.5115771 C6.2207199,16.3486142 6.34861419,16.2207199 6.51157715,16.1335664 C6.67454011,16.0464128 6.83618323,16 7.2819426,16 Z" id="Rectangle-Copy-4" fill="#000000"></path>
    </g>
</svg>