<?xml version="1.0" encoding="UTF-8"?>
<svg width="24px" height="24px" viewBox="0 0 24 24" version="1.1" xmlns="http://www.w3.org/2000/svg" xmlns:xlink="http://www.w3.org/1999/xlink">
    <!-- Generator: Sketch 54.1 (76490) - https://sketchapp.com -->
    <title>reporting</title>
    <desc>Created with Sketch.</desc>
    <g id="reporting" stroke="none" stroke-width="1" fill="none" fill-rule="evenodd">
        <path d="M6,2.02242151 L6,8 L11.9775785,8 C11.7249641,10.80325 9.36902128,13 6.5,13 C3.46243388,13 1,10.5375661 1,7.5 C1,4.63097872 3.19674999,2.2750359 6,2.02242151 Z" id="Combined-Shape" fill="#000000"></path>
        <path d="M7,1 C10.3137085,1 13,3.6862915 13,7 L7,7 L7,1 Z" id="Combined-Shape" fill="#000000"></path>
        <rect id="Rectangle" fill="#000000" x="1" y="17" width="2" height="4"></rect>
        <rect id="Rectangle-Copy" fill="#000000" x="4" y="15" width="3" height="6"></rect>
        <rect id="Rectangle-Copy-2" fill="#000000" x="8" y="16" width="3" height="5"></rect>
        <rect id="Rectangle-Copy-6" fill="#000000" x="1" y="22" width="22" height="1"></rect>
        <rect id="Rectangle-Copy-3" fill="#000000" x="12" y="13" width="3" height="8"></rect>
        <rect id="Rectangle-Copy-4" fill="#000000" x="16" y="8" width="3" height="13"></rect>
        <rect id="Rectangle-Copy-5" fill="#000000" x="20" y="11" width="3" height="10"></rect>
    </g>
</svg>