<?xml version="1.0" encoding="UTF-8"?>
<svg width="24px" height="24px" viewBox="0 0 24 24" version="1.1" xmlns="http://www.w3.org/2000/svg" xmlns:xlink="http://www.w3.org/1999/xlink">
    <!-- Generator: Sketch 54.1 (76490) - https://sketchapp.com -->
    <title>work_permit</title>
    <desc>Created with Sketch.</desc>
    <g id="work_permit" stroke="none" stroke-width="1" fill="none" fill-rule="evenodd">
        <rect id="Rectangle" stroke="#000000" stroke-width="2" x="2" y="2" width="20" height="20"></rect>
        <path d="M5.58333333,6 L18.5,6" id="Line" stroke="#000000" stroke-width="2" stroke-linecap="square"></path>
        <path d="M5.58333333,10 L18.5,10" id="Line" stroke="#000000" stroke-width="2" stroke-linecap="square"></path>
        <path d="M5.64285714,14 L14,14" id="Line" stroke="#000000" stroke-width="2" stroke-linecap="square"></path>
        <path d="M5.64285714,18 L14,18" id="Line" stroke="#000000" stroke-width="2" stroke-linecap="square"></path>
        <path d="M14.8353143,23.9639932 L14.8353143,23.9639932 C14.2366438,24.3388874 13.4474137,24.1574808 13.0725196,23.5588103 C13.0562848,23.532885 13.0409854,23.5063856 13.0266508,23.4793633 L13.0266508,23.4793633 C12.6327607,22.7368371 11.8493476,22.2845333 11.009356,22.3146776 L11.009356,22.3146776 C10.303445,22.3400102 9.71065502,21.7882925 9.6853224,21.0823815 C9.68422538,21.0518122 9.68422538,21.0212134 9.6853224,20.990644 L9.6853224,20.990644 C9.71546669,20.1506524 9.26316293,19.3672393 8.5206367,18.9733492 L8.5206367,18.9733492 C7.89663359,18.6423324 7.65912123,17.8681358 7.99013801,17.2441327 C8.00447263,17.2171104 8.01977205,17.190611 8.03600677,17.1646857 L8.03600677,17.1646857 C8.48210831,16.4523038 8.48210831,15.5476962 8.03600677,14.8353143 L8.03600677,14.8353143 C7.66111261,14.2366438 7.84251918,13.4474137 8.44118967,13.0725196 C8.46711498,13.0562848 8.49361437,13.0409854 8.5206367,13.0266508 L8.5206367,13.0266508 C9.26316293,12.6327607 9.71546669,11.8493476 9.6853224,11.009356 L9.6853224,11.009356 C9.65998978,10.303445 10.2117075,9.71065502 10.9176185,9.6853224 C10.9481878,9.68422538 10.9787866,9.68422538 11.009356,9.6853224 L11.009356,9.6853224 C11.8493476,9.71546669 12.6327607,9.26316293 13.0266508,8.5206367 L13.0266508,8.5206367 C13.3576676,7.89663359 14.1318642,7.65912123 14.7558673,7.99013801 C14.7828896,8.00447263 14.809389,8.01977205 14.8353143,8.03600677 L14.8353143,8.03600677 C15.5476962,8.48210831 16.4523038,8.48210831 17.1646857,8.03600677 L17.1646857,8.03600677 C17.7633562,7.66111261 18.5525863,7.84251918 18.9274804,8.44118967 C18.9437152,8.46711498 18.9590146,8.49361437 18.9733492,8.5206367 L18.9733492,8.5206367 C19.3672393,9.26316293 20.1506524,9.71546669 20.990644,9.6853224 L20.990644,9.6853224 C21.696555,9.65998978 22.289345,10.2117075 22.3146776,10.9176185 C22.3157746,10.9481878 22.3157746,10.9787866 22.3146776,11.009356 L22.3146776,11.009356 C22.2845333,11.8493476 22.7368371,12.6327607 23.4793633,13.0266508 L23.4793633,13.0266508 C24.1033664,13.3576676 24.3408788,14.1318642 24.009862,14.7558673 C23.9955274,14.7828896 23.9802279,14.809389 23.9639932,14.8353143 L23.9639932,14.8353143 C23.5178917,15.5476962 23.5178917,16.4523038 23.9639932,17.1646857 L23.9639932,17.1646857 C24.3388874,17.7633562 24.1574808,18.5525863 23.5588103,18.9274804 C23.532885,18.9437152 23.5063856,18.9590146 23.4793633,18.9733492 L23.4793633,18.9733492 C22.7368371,19.3672393 22.2845333,20.1506524 22.3146776,20.990644 L22.3146776,20.990644 C22.3400102,21.696555 21.7882925,22.289345 21.0823815,22.3146776 C21.0518122,22.3157746 21.0212134,22.3157746 20.990644,22.3146776 L20.990644,22.3146776 C20.1506524,22.2845333 19.3672393,22.7368371 18.9733492,23.4793633 L18.9733492,23.4793633 C18.6423324,24.1033664 17.8681358,24.3408788 17.2441327,24.009862 C17.2171104,23.9955274 17.190611,23.9802279 17.1646857,23.9639932 L17.1646857,23.9639932 C16.4523038,23.5178917 15.5476962,23.5178917 14.8353143,23.9639932 Z" id="Star" fill="#FFFFFF" transform="translate(16.000000, 16.000000) rotate(-270.000000) translate(-16.000000, -16.000000) "></path>
        <path d="M14.9647238,23.0791051 L14.9647238,23.0791051 C14.4325723,23.4123443 13.7310344,23.2510941 13.3977952,22.7189425 C13.3833643,22.6958978 13.3697648,22.6723428 13.3570229,22.6483229 L13.3570229,22.6483229 C13.0068984,21.9882996 12.3105312,21.5862518 11.563872,21.6130468 L11.563872,21.6130468 C10.9363956,21.6355646 10.4094711,21.1451489 10.3869532,20.5176725 C10.3859781,20.4904997 10.3859781,20.4633008 10.3869532,20.436128 L10.3869532,20.436128 C10.4137482,19.6894688 10.0117004,18.9931016 9.35167707,18.6429771 L9.35167707,18.6429771 C8.79700763,18.3487399 8.58588554,17.6605652 8.88012268,17.1058958 C8.89286456,17.0818759 8.90646405,17.0583209 8.92089491,17.0352762 L8.92089491,17.0352762 C9.31742961,16.4020478 9.31742961,15.5979522 8.92089491,14.9647238 L8.92089491,14.9647238 C8.58765566,14.4325723 8.74890594,13.7310344 9.28105749,13.3977952 C9.30410221,13.3833643 9.32765721,13.3697648 9.35167707,13.3570229 L9.35167707,13.3570229 C10.0117004,13.0068984 10.4137482,12.3105312 10.3869532,11.563872 L10.3869532,11.563872 C10.3644354,10.9363956 10.8548511,10.4094711 11.4823275,10.3869532 C11.5095003,10.3859781 11.5366992,10.3859781 11.563872,10.3869532 L11.563872,10.3869532 C12.3105312,10.4137482 13.0068984,10.0117004 13.3570229,9.35167707 L13.3570229,9.35167707 C13.6512601,8.79700763 14.3394348,8.58588554 14.8941042,8.88012268 C14.9181241,8.89286456 14.9416791,8.90646405 14.9647238,8.92089491 L14.9647238,8.92089491 C15.5979522,9.31742961 16.4020478,9.31742961 17.0352762,8.92089491 L17.0352762,8.92089491 C17.5674277,8.58765566 18.2689656,8.74890594 18.6022048,9.28105749 C18.6166357,9.30410221 18.6302352,9.32765721 18.6429771,9.35167707 L18.6429771,9.35167707 C18.9931016,10.0117004 19.6894688,10.4137482 20.436128,10.3869532 L20.436128,10.3869532 C21.0636044,10.3644354 21.5905289,10.8548511 21.6130468,11.4823275 C21.6140219,11.5095003 21.6140219,11.5366992 21.6130468,11.563872 L21.6130468,11.563872 C21.5862518,12.3105312 21.9882996,13.0068984 22.6483229,13.3570229 L22.6483229,13.3570229 C23.2029924,13.6512601 23.4141145,14.3394348 23.1198773,14.8941042 C23.1071354,14.9181241 23.093536,14.9416791 23.0791051,14.9647238 L23.0791051,14.9647238 C22.6825704,15.5979522 22.6825704,16.4020478 23.0791051,17.0352762 L23.0791051,17.0352762 C23.4123443,17.5674277 23.2510941,18.2689656 22.7189425,18.6022048 C22.6958978,18.6166357 22.6723428,18.6302352 22.6483229,18.6429771 L22.6483229,18.6429771 C21.9882996,18.9931016 21.5862518,19.6894688 21.6130468,20.436128 L21.6130468,20.436128 C21.6355646,21.0636044 21.1451489,21.5905289 20.5176725,21.6130468 C20.4904997,21.6140219 20.4633008,21.6140219 20.436128,21.6130468 L20.436128,21.6130468 C19.6894688,21.5862518 18.9931016,21.9882996 18.6429771,22.6483229 L18.6429771,22.6483229 C18.3487399,23.2029924 17.6605652,23.4141145 17.1058958,23.1198773 C17.0818759,23.1071354 17.0583209,23.093536 17.0352762,23.0791051 L17.0352762,23.0791051 C16.4020478,22.6825704 15.5979522,22.6825704 14.9647238,23.0791051 Z" id="Star" fill="#000000" transform="translate(16.000000, 16.000000) rotate(90.000000) translate(-16.000000, -16.000000) "></path>
        <circle id="Oval" fill="#FFFFFF" cx="16" cy="16" r="5"></circle>
        <g id="Group" transform="translate(11.000000, 13.000000)" fill="#000000">
            <path d="M1.43264624,4.10629562 L4.45252022,4.23491362 C4.71197179,4.2459638 4.91977659,4.4537948 4.93079406,4.71324777 L4.94532239,5.05537911 C4.957038,5.33127285 4.74287931,5.56442629 4.46698557,5.5761419 C4.45282895,5.57674305 4.43865316,5.57674216 4.42449661,5.57613922 L1.40462264,5.44752122 C1.14517107,5.43647104 0.937366265,5.22864004 0.926348801,4.96918708 L0.911820466,4.62705574 C0.900104857,4.351162 1.11426355,4.11800855 1.39015729,4.10629294 C1.40431391,4.10569179 1.41848969,4.10569269 1.43264624,4.10629562 Z" id="Rectangle" transform="translate(2.928571, 4.841217) rotate(44.000000) translate(-2.928571, -4.841217) "></path>
            <path d="M2.73722153,2.67941613 L9.77968416,2.97935827 C10.0391357,2.99040845 10.2469405,3.19823945 10.257958,3.45769241 L10.2724863,3.79982376 C10.2842019,4.0757175 10.0700433,4.30887094 9.79414951,4.32058655 C9.77999289,4.3211877 9.76581711,4.32118681 9.75166056,4.32058387 L2.70919792,4.02064173 C2.44974635,4.00959155 2.24194155,3.80176055 2.23092409,3.54230759 L2.21639575,3.20017624 C2.20468014,2.9242825 2.41883883,2.69112906 2.69473257,2.67941345 C2.7088892,2.6788123 2.72306498,2.67881319 2.73722153,2.67941613 Z" id="Rectangle" transform="translate(6.244441, 3.500000) scale(-1, 1) rotate(44.000000) translate(-6.244441, -3.500000) "></path>
        </g>
    </g>
</svg>