<?xml version="1.0" encoding="UTF-8"?>
<svg width="24px" height="24px" viewBox="0 0 24 24" version="1.1" xmlns="http://www.w3.org/2000/svg" xmlns:xlink="http://www.w3.org/1999/xlink">
    <!-- Generator: Sketch 54.1 (76490) - https://sketchapp.com -->
    <title>work_management</title>
    <desc>Created with Sketch.</desc>
    <g id="work_management" stroke="none" stroke-width="1" fill="none" fill-rule="evenodd">
        <path d="M14.5,14 L14.5,12 C14.5,11.4477153 14.0522847,11 13.5,11 L11.5,11 C10.9477153,11 10.5,11.4477153 10.5,12 L10.5,14 L2,14 C1.44771525,14 1,13.5522847 1,13 L1,8 C1,7.44771525 1.44771525,7 2,7 L6.58282248,7 C6.52893644,6.81894017 6.5,6.62713503 6.5,6.42857143 L6.5,5 C6.5,3.8954305 7.3954305,3 8.5,3 L15.5,3 C16.6045695,3 17.5,3.8954305 17.5,5 L17.5,6.42857143 C17.5,6.62713503 17.4710636,6.81894017 17.4171775,7 L22,7 C22.5522847,7 23,7.44771525 23,8 L23,13 C23,13.5522847 22.5522847,14 22,14 L14.5,14 Z M10.5,15 L10.5,16 C10.5,16.5522847 10.9477153,17 11.5,17 L13.5,17 C14.0522847,17 14.5,16.5522847 14.5,16 L14.5,15 L22,15 L23,15 L23,22 C23,22.5522847 22.5522847,23 22,23 L2,23 C1.44771525,23 1,22.5522847 1,22 L1,15 L10.5,15 Z M8.5,7 L15.5,7 L15.5,5.80952381 C15.5,5.25723906 15.0522847,4.80952381 14.5,4.80952381 L9.5,4.80952381 C8.94771525,4.80952381 8.5,5.25723906 8.5,5.80952381 L8.5,7 Z" id="Combined-Shape" fill="#000000"></path>
        <rect id="Rectangle" fill="#000000" x="11.5" y="12" width="2" height="4" rx="0.5"></rect>
    </g>
</svg>