<svg xmlns="http://www.w3.org/2000/svg" width="24" height="24" viewBox="0 0 24 24">
  <path d="M21.6655775,10.8828169 L19.3054648,10.8828169 L18.9897465,10.8828169 C18.2920563,10.8828169 17.7261972,11.4486761 17.7261972,12.1487324 L17.7261972,12.2859718 C17.7261972,12.9867042 18.2920563,13.5529014 18.9907606,13.5529014 L21.3532394,13.5529014 L21.6655775,13.5529014 C22.3646197,13.5529014 22.932169,12.984338 22.932169,12.2859718 L22.9308169,12.1470423 C22.932169,11.4486761 22.3646197,10.8828169 21.6655775,10.8828169 Z"/>
  <path d="M21.6669296,7.72461972 L21.1095211,7.72461972 L21.1095211,1.60022535 C21.1095211,0.72 20.3895211,0 19.5089577,0 L8.94929577,0 C8.06907042,0 7.34907042,0.720338028 7.34907042,1.60022535 L7.34907042,5.99425352 C5.21915493,7.19830986 3.02230986,8.45611268 3.01757746,8.45915493 C1.82501408,8.94997183 0.0777464789,10.5336338 0.0777464789,14.2732394 C0.0777464789,14.6072113 0.0997183099,14.915493 0.130478873,15.2132958 C0.14028169,15.300507 0.151098592,15.384338 0.162929577,15.468507 C0.193690141,15.6872113 0.232225352,15.8964507 0.278197183,16.0952113 C0.294760563,16.1661972 0.307605634,16.2402254 0.325521127,16.308169 C0.387380282,16.5380282 0.459042254,16.7536901 0.539492958,16.9588732 C0.580056338,17.0606197 0.624,17.1532394 0.66828169,17.2485634 C0.715605634,17.3489577 0.763267606,17.447662 0.814309859,17.5399437 C0.873464789,17.6511549 0.932619718,17.7583099 0.997521127,17.8600563 C1.01307042,17.8837183 1.02997183,17.9053521 1.04585915,17.9293521 C2.58591549,20.2573521 5.42704225,20.267831 5.42704225,20.267831 L7.34907042,20.267831 L7.34907042,22.0860845 C7.34907042,22.9652958 8.06907042,23.6852958 8.94929577,23.6852958 L19.5086197,23.6852958 C20.3891831,23.6852958 21.1091831,22.9649577 21.1091831,22.0860845 L21.1091831,19.8682817 L21.3532394,19.8682817 L21.3532394,19.8669296 L21.6645634,19.8669296 C22.3646197,19.8669296 22.932169,19.3007324 22.9308169,18.6006761 L22.932169,18.4627606 C22.9308169,17.7637183 22.3646197,17.1992113 21.6655775,17.1992113 L21.3532394,17.1992113 L19.3051268,17.1992113 L18.9894085,17.1992113 C18.2903662,17.1992113 17.7258592,17.7650704 17.7258592,18.4637746 L17.7258592,18.6040563 C17.7258592,19.3010704 18.2917183,19.8692958 18.9904225,19.8692958 L19.9957183,19.8692958 L19.9957183,20.7258592 L8.46219718,20.7258592 L8.46219718,9.23594366 C9.04157746,8.86850704 9.57802817,8.51492958 9.88394366,8.27797183 C11.4338028,7.07932394 12.9049014,6.12473239 13.104,5.25904225 C13.3632676,4.13577465 12.5009577,3.18929577 11.0051831,3.96642254 C10.5339718,4.21115493 9.56687324,4.74760563 8.46219718,5.36788732 L8.46219718,2.53588732 L19.9957183,2.53757746 L19.9957183,7.72394366 L19.3051268,7.72394366 L19.3051268,7.72529577 L18.9910986,7.72529577 C18.2917183,7.72529577 17.724169,8.29115493 17.724169,8.99188732 L17.724169,9.12912676 C17.724169,9.82952113 18.2917183,10.3940282 18.9894085,10.3940282 L19.3034366,10.3940282 L21.3515493,10.3940282 L21.6662535,10.3940282 C22.3646197,10.3940282 22.9308169,9.82816901 22.9308169,9.12912676 L22.9308169,8.98816901 C22.932169,8.29216901 22.3663099,7.72461972 21.6669296,7.72461972 Z M14.2276056,21.287662 C14.6710986,21.287662 15.0287324,21.6456338 15.0287324,22.0881127 C15.0287324,22.5316056 14.6707606,22.8882254 14.2276056,22.8882254 C13.7858028,22.8882254 13.4288451,22.5305915 13.4288451,22.0881127 C13.4295211,21.6469859 13.787493,21.287662 14.2276056,21.287662 Z M15.9187606,1.54073239 L12.539831,1.54073239 C12.4336901,1.54073239 12.3458028,1.45453521 12.3458028,1.34805634 C12.3458028,1.23988732 12.4336901,1.15369014 12.539831,1.15369014 L15.9187606,1.15369014 C16.0249014,1.15369014 16.1114366,1.2395493 16.1114366,1.34805634 C16.1114366,1.45419718 16.0249014,1.54073239 15.9187606,1.54073239 Z"/>
  <path d="M21.6655775,14.0410141 L21.3532394,14.0410141 L18.9897465,14.0410141 C18.2920563,14.0410141 17.724507,14.6085634 17.724507,15.3072676 L17.724507,15.4458592 C17.724507,16.1452394 18.2907042,16.7110986 18.9897465,16.7110986 L19.3037746,16.7110986 L21.3518873,16.7110986 L21.6649014,16.7110986 C22.3649577,16.7110986 22.9294648,16.1452394 22.9311549,15.4458592 L22.9311549,15.3072676 C22.9308169,14.6085634 22.3663099,14.0410141 21.6655775,14.0410141 Z"/>
</svg>
