<svg xmlns="http://www.w3.org/2000/svg" width="24" height="24" viewBox="0 0 24 24">
  <g fill="none" fill-rule="evenodd">
    <path fill="#000" fill-rule="nonzero" d="M12.4234286,0 L2.52685714,0 C1.57971429,0 0.815142857,0.768 0.815142857,1.71342857 L0.815142857,21.81 C0.815142857,22.7545714 1.57971429,23.5217143 2.52685714,23.5217143 L12.4234286,23.5217143 C13.3688571,23.5217143 14.1351429,22.7545714 14.1351429,21.81 L14.1351429,1.71342857 C14.1351429,0.768 13.3688571,0 12.4234286,0 Z M5.03314286,1.04057143 L9.91885714,1.04057143 C10.0422857,1.04057143 10.1425714,1.22485714 10.1425714,1.45285714 C10.1425714,1.68085714 10.0422857,1.866 9.91885714,1.866 L5.03314286,1.866 C4.90885714,1.866 4.81028571,1.68085714 4.81028571,1.45285714 C4.81028571,1.22485714 4.90885714,1.04057143 5.03314286,1.04057143 Z M7.476,21.8305714 C6.87342857,21.8305714 6.38314286,21.3402857 6.38314286,20.7368571 C6.38314286,20.1334286 6.87342857,19.6448571 7.476,19.6448571 C8.07685714,19.6448571 8.56714286,20.1334286 8.56714286,20.7368571 C8.56714286,21.3402857 8.07685714,21.8305714 7.476,21.8305714 Z M12.8528571,18.0857143 L2.09828571,18.0857143 L2.09828571,2.89114286 L12.8528571,2.89114286 L12.8528571,18.0857143 Z" transform="translate(5)"/>
    <path fill="#000" fill-rule="nonzero" d="M4.69411482,5.52727952 L4.44898427,4.98059609 C4.68266823,4.80827602 4.8833761,4.59390339 5.0401985,4.34922633 L5.59835398,4.56168937 C5.70509239,4.60233051 5.82435179,4.54832222 5.8647661,4.4411359 L6.06989557,3.89719232 C6.08931758,3.84571632 6.087582,3.78859456 6.06506073,3.73840546 C6.04253947,3.68821636 6.0011334,3.64906969 5.94985103,3.62955863 L5.39169554,3.41709558 C5.43566366,3.12941116 5.4267378,2.83533374 5.36537252,2.55067976 L5.90956069,2.30442521 C5.95952071,2.28180068 5.9984887,2.24020475 6.01791071,2.18868724 C6.03733272,2.13721124 6.03559713,2.08008948 6.01307587,2.02990038 L5.77525956,1.49957303 C5.7283988,1.39504354 5.60599882,1.34854908 5.50202908,1.3955832 L4.95784091,1.64183775 C4.78630738,1.40708228 4.57291322,1.2054541 4.32935296,1.04791263 L4.54084624,0.487197838 C4.58126055,0.38001152 4.5275401,0.260163765 4.42084302,0.219564145 L3.87942352,0.0134525765 C3.8282238,-0.00601697548 3.77136277,-0.00431494642 3.72136143,0.0183095863 C3.67140141,0.040934119 3.63243342,0.0825300489 3.61301141,0.134047563 L3.40155945,0.694720845 C3.11489886,0.650302038 2.82166784,0.65947639 2.53905695,0.721123052 L2.29396772,0.174481131 C2.27144645,0.12429203 2.23004038,0.0851453619 2.17875801,0.065634297 C2.12755829,0.0461647449 2.07065594,0.047866774 2.02069592,0.0704913067 L1.49274785,0.30939807 C1.38869547,0.356473703 1.34237191,0.479351899 1.38923268,0.583881391 L1.63436323,1.13056483 C1.40067926,1.30288489 1.19997139,1.51725753 1.043149,1.76193458 L0.484993515,1.54947154 C0.433793793,1.53000199 0.376932761,1.53174553 0.326931419,1.55432855 C0.276971399,1.57695308 0.23800341,1.61854901 0.218581401,1.67006653 L0.0134519251,2.2139686 C-0.0269623835,2.32115491 0.0267580676,2.44100267 0.133455148,2.48160229 L0.691610634,2.69406533 C0.647642511,2.98170824 0.656568371,3.27586868 0.717933655,3.56048115 L0.173704163,3.8067357 C0.123744143,3.82936023 0.0847761547,3.87095616 0.0653541455,3.92247368 C0.0459321362,3.97394968 0.04766772,4.03107143 0.0701889861,4.08126053 L0.30800529,4.61158788 C0.330485233,4.66177699 0.371932627,4.70092365 0.423173673,4.72043472 C0.474456042,4.73994578 0.53127575,4.73824375 0.581235769,4.71557771 L1.12542394,4.46932316 C1.29695747,4.70412015 1.51031031,4.90570681 1.75391189,5.06324828 L1.54241861,5.62396308 C1.5020043,5.73114939 1.55572475,5.85099715 1.66242183,5.89159677 L2.20388265,6.09766682 C2.22747833,6.10663361 2.25231371,6.11111701 2.27706644,6.11111701 C2.30603416,6.11111701 2.33500188,6.10501461 2.36194475,6.09280981 C2.41190477,6.07018528 2.45087276,6.02858935 2.47029477,5.97707184 L2.68174673,5.41639856 C2.96840732,5.46077585 3.26167966,5.45164301 3.54424923,5.38999635 L3.78933846,5.93663827 C3.81185972,5.98682737 3.85326579,6.02597404 3.90454816,6.0454851 C3.95578921,6.06499617 4.01269156,6.06329414 4.06261026,6.04062809 L4.590517,5.80176284 C4.6946107,5.75468721 4.74097559,5.63180901 4.69411482,5.52727952 Z M4.35170893,3.5542127 C4.14662078,4.09803175 3.62003639,4.46338682 3.04138449,4.46338682 C2.87212374,4.46338682 2.70521843,4.43250122 2.54529678,4.3716433 C2.19537003,4.2384699 1.91800721,3.97635743 1.76432539,3.63358538 C1.61064358,3.29085484 1.5990317,2.90847948 1.73159724,2.55694821 C1.9366854,2.01312917 2.46326979,1.6477741 3.04192169,1.6477741 C3.21118243,1.6477741 3.37808774,1.6786597 3.53800939,1.73951762 C3.88793615,1.87269101 4.16529897,2.13480349 4.31898078,2.47753402 C4.47270392,2.82030607 4.4843158,3.20268143 4.35170893,3.5542127 Z M8.94559264,6.38854774 C8.90856685,6.34798964 8.8569539,6.32387064 8.80224168,6.3215044 L8.41305768,6.30473319 C8.37723027,6.12020833 8.31251779,5.94207646 8.22160625,5.77764385 L8.50859743,5.5130406 C8.5926906,5.435536 8.59826926,5.30423069 8.52111843,5.21979344 L8.2361521,4.90786548 C8.19912631,4.86730737 8.14751336,4.84318838 8.09275982,4.84082214 C8.03813025,4.83878801 7.9845751,4.85809151 7.94420211,4.89528707 L7.65725226,5.15989032 C7.5019175,5.05482116 7.33079721,4.97482579 7.15087502,4.92318374 L7.16756968,4.53221521 C7.17244585,4.41768111 7.0839724,4.32087302 6.96996107,4.31597449 L6.5489167,4.29783335 C6.4354839,4.29351601 6.33853915,4.38181396 6.33366299,4.49630655 L6.31696833,4.88727508 C6.13332703,4.92326677 5.95600822,4.98827598 5.79228481,5.07956285 L5.52888931,4.79125573 C5.49186352,4.75069763 5.44025056,4.72657863 5.38553835,4.72421239 C5.33082614,4.7219707 5.27735363,4.74148176 5.23698064,4.77867732 L4.92647644,5.06495031 C4.84238327,5.1424549 4.83680461,5.27376022 4.91395544,5.35819746 L5.17735094,5.64650458 C5.07276136,5.80255159 4.99313112,5.97441501 4.94172478,6.15520371 L4.5525821,6.1384325 C4.43906665,6.13382456 4.34216322,6.22237159 4.33728706,6.33690569 L4.31922872,6.75988067 C4.31687329,6.81488527 4.33637794,6.86856145 4.37344505,6.90911956 C4.41047084,6.94967767 4.4620838,6.97379666 4.51683733,6.9761629 L4.90598002,6.9928926 C4.94180743,7.17741746 5.00651991,7.35554933 5.09739012,7.52002346 L4.81044026,7.78462671 C4.77006728,7.82182227 4.74605837,7.87367189 4.74370293,7.92863497 C4.7413475,7.98363957 4.76085215,8.03731575 4.79791926,8.07787386 L5.08288559,8.38980182 C5.11991138,8.43035993 5.17152434,8.45447893 5.22627788,8.45684516 C5.28078347,8.45904535 5.3344626,8.43957579 5.37483558,8.40238023 L5.66178544,8.13777698 C5.81712019,8.24284614 5.98824049,8.32284151 6.16816268,8.37448356 L6.15146801,8.76545209 C6.14659185,8.87998619 6.23502398,8.97679429 6.3490353,8.98169281 L6.77007967,8.99983395 C6.77305495,9 6.77598892,9 6.77892288,9 C6.83057716,9 6.88045453,8.98057196 6.91863738,8.94536902 C6.95901036,8.90817346 6.98301927,8.85632384 6.98537471,8.80136075 L7.00206937,8.41039222 C7.18571067,8.37440054 7.36302948,8.30939133 7.52675288,8.21810445 L7.79014839,8.50641157 C7.82717417,8.54696968 7.87878713,8.57108868 7.93349934,8.57345491 C7.9884595,8.57586266 8.04172539,8.55618554 8.08205705,8.51898998 L8.39256126,8.23271699 C8.47665443,8.1552124 8.48223309,8.02390709 8.40508226,7.93946984 L8.14168675,7.65116272 C8.24627634,7.49511571 8.32590658,7.32325229 8.37731292,7.14246359 L8.7664556,7.15923481 C8.88034295,7.16363518 8.97683315,7.07529572 8.98175064,6.96076161 L8.99980897,6.53778663 C9.00216441,6.48278204 8.98265975,6.42910585 8.94559264,6.38854774 Z M6.61821609,7.61583524 C6.08745803,7.59300314 5.67414114,7.14059551 5.69691035,6.60740377 C5.71905971,6.08791129 6.14150907,5.68096029 6.65863039,5.68096029 C6.67259771,5.68096029 6.68664768,5.68125088 6.70073896,5.68187358 C7.23149702,5.70474719 7.6448139,6.1571133 7.6220447,6.69030504 C7.59927549,7.2238704 7.1533131,7.63841826 6.61821609,7.61583524 Z" transform="translate(8 6)"/>
  </g>
</svg>
