<svg xmlns="http://www.w3.org/2000/svg" width="24" height="24" viewBox="0 0 24 24">
  <g fill="none" fill-rule="evenodd">
    <path fill="#000" fill-rule="nonzero" d="M12.4234286,0 L2.52685714,0 C1.57971429,0 0.815142857,0.768 0.815142857,1.71342857 L0.815142857,21.81 C0.815142857,22.7545714 1.57971429,23.5217143 2.52685714,23.5217143 L12.4234286,23.5217143 C13.3688571,23.5217143 14.1351429,22.7545714 14.1351429,21.81 L14.1351429,1.71342857 C14.1351429,0.768 13.3688571,0 12.4234286,0 Z M5.03314286,1.04057143 L9.91885714,1.04057143 C10.0422857,1.04057143 10.1425714,1.22485714 10.1425714,1.45285714 C10.1425714,1.68085714 10.0422857,1.866 9.91885714,1.866 L5.03314286,1.866 C4.90885714,1.866 4.81028571,1.68085714 4.81028571,1.45285714 C4.81028571,1.22485714 4.90885714,1.04057143 5.03314286,1.04057143 Z M7.476,21.8305714 C6.87342857,21.8305714 6.38314286,21.3402857 6.38314286,20.7368571 C6.38314286,20.1334286 6.87342857,19.6448571 7.476,19.6448571 C8.07685714,19.6448571 8.56714286,20.1334286 8.56714286,20.7368571 C8.56714286,21.3402857 8.07685714,21.8305714 7.476,21.8305714 Z M12.8528571,18.0857143 L2.09828571,18.0857143 L2.09828571,2.89114286 L12.8528571,2.89114286 L12.8528571,18.0857143 Z" transform="translate(4)"/>
    <path fill="#000" fill-rule="nonzero" stroke="#FFF" stroke-width="2" d="M15.2751425,7.86260914 C15.2793702,8.23418826 15.426206,8.60346397 15.710987,8.88071144 L16.1064213,9.26723184 L13.4285233,9.26723184 C13.0298153,9.26723184 12.6693905,9.43065407 12.4090914,9.69771843 C12.1579391,9.95539831 12,10.3110058 12,10.7068927 L12,11.2931073 C12,11.6889942 12.1579391,12.0446017 12.4090914,12.3022816 C12.6693905,12.5693459 13.0298153,12.7327682 13.4285233,12.7327682 L16.106419,12.7327682 L15.7095527,13.1206877 C15.4264367,13.3991653 15.2806981,13.7669111 15.2764828,14.1374012 C15.2722614,14.508433 15.4098576,14.8795467 15.6852848,15.1621325 L16.0816724,15.5688224 C16.3588744,15.856326 16.7294664,16 17.0997638,16 C17.467349,16 17.8371772,15.8581942 18.1192254,15.5687852 L21.5902333,12.0075817 C21.8605201,11.7332286 22,11.3675042 22,10.9997719 C22,10.6347766 21.8623855,10.2698191 21.5902351,9.99059536 L18.1190086,6.43099236 C17.9204411,6.22503761 17.6748983,6.0905708 17.3820169,6.04471873 C17.1728975,6.01197999 16.9250081,6.0210342 16.630591,6.14057147 C16.3957596,6.23591618 16.0461269,6.38498303 15.2751425,7.86260914 Z"/>
  </g>
</svg>
