<svg xmlns="http://www.w3.org/2000/svg" width="24" height="24" viewBox="0 0 24 24">
  <g fill="none" fill-rule="evenodd">
    <circle cx="20" cy="4" r="3.5" stroke="#000"/>
    <circle cx="7.5" cy="12.5" r="7" stroke="#000"/>
    <circle cx="20" cy="20" r="3.5" stroke="#000"/>
    <line x1="15.625" x2="13.625" y1="16.5" y2="17.5" stroke="#000" stroke-linecap="square" transform="matrix(-1 0 0 1 30.125 0)"/>
    <line x1="16.5" x2="13.5" y1="7.5" y2="5.5" stroke="#000" stroke-linecap="square" transform="matrix(-1 0 0 1 30 0)"/>
    <g fill="#000" fill-rule="nonzero" transform="rotate(-90 10 7)">
      <path d="M6.12665,0.124525 C5.980225,-0.021925 5.742775,-0.021925 5.596325,0.124525 C5.449875,0.270975 5.449875,0.5084 5.596325,0.65485 C6.662725,1.721225 7.25,3.140075 7.25,4.65 C7.25,6.159925 6.662725,7.578775 5.596325,8.64515 C5.449875,8.791575 5.449875,9.029025 5.596325,9.175475 C5.743025,9.322175 5.98045,9.321675 6.12665,9.175475 C7.3347,7.96745 8,6.360275 8,4.65 C8,2.939725 7.3347,1.33255 6.12665,0.124525 L6.12665,0.124525 Z"/>
      <path d="M4.99115,1.26 C4.8447,1.113575 4.60725,1.113575 4.460825,1.26 C4.3144,1.40645 4.3144,1.643875 4.460825,1.790325 C5.22415,2.5536 5.64455,3.5692 5.64455,4.65 C5.64455,5.7308 5.224175,6.746375 4.460825,7.509675 C4.314375,7.656125 4.314375,7.89355 4.460825,8.04 C4.607225,8.1864 4.84465,8.186475 4.99115,8.04 C5.89615,7.13505 6.39455,5.931125 6.39455,4.649975 C6.39455,3.368825 5.896125,2.164925 4.99115,1.26 Z"/>
      <path d="M3.854825 2.3963C3.708375 2.249875 3.470925 2.249875 3.3245 2.3963 3.17805 2.54275 3.178075 2.7802 3.3245 2.926625 3.7845 3.386575 4.037825 3.998625 4.037825 4.649975 4.037825 5.301325 3.7845 5.913375 3.3245 6.373325 3.17805 6.51975 3.17805 6.7572 3.3245 6.90365 3.470925 7.050075 3.70835 7.050125 3.854825 6.90365 4.456475 6.302025 4.787825 5.50165 4.787825 4.64995 4.787825 3.79825 4.456475 2.997925 3.854825 2.3963zM1.6 3.65C1.04859177 3.65.6 4.09860759.6 4.65.6 5.20139241 1.04860759 5.65 1.6 5.65 2.15139241 5.65 2.6 5.20139241 2.6 4.65 2.6 4.09860759 2.15140823 3.65 1.6 3.65z"/>
    </g>
    <path fill="#000" fill-rule="nonzero" d="M20 2C18.8971835 2 18 2.89721519 18 4 18 5.10278481 18.8972152 6 20 6 21.1027848 6 22 5.10278481 22 4 22 2.89721519 21.1028165 2 20 2zM20 18C18.8971835 18 18 18.8972152 18 20 18 21.1027848 18.8972152 22 20 22 21.1027848 22 22 21.1027848 22 20 22 18.8972152 21.1028165 18 20 18z"/>
  </g>
</svg>
