<svg xmlns="http://www.w3.org/2000/svg" width="24" height="24" viewBox="0 0 24 24">
  <g fill="none" fill-rule="evenodd">
    <rect width="23" height="7.143" x=".5" y="14.5" stroke="#000" rx="3.571"/>
    <g fill="#000" fill-rule="nonzero" transform="rotate(-90 9.553 4.447)">
      <path d="M9.38550638,0.190761702 C9.16119574,-0.033587234 8.79744255,-0.033587234 8.57309362,0.190761702 C8.34874468,0.415110638 8.34874468,0.778825532 8.57309362,1.00317447 C10.2067277,2.63677021 11.106383,4.81032766 11.106383,7.12340426 C11.106383,9.43648085 10.2067277,11.6100383 8.57309362,13.243634 C8.34874468,13.4679447 8.34874468,13.8316979 8.57309362,14.0560468 C8.79782553,14.2807787 9.16154043,14.2800128 9.38550638,14.0560468 C11.2361362,12.2054553 12.2553191,9.7434 12.2553191,7.12340426 C12.2553191,4.50340851 11.2361362,2.04135319 9.38550638,0.190761702 L9.38550638,0.190761702 Z"/>
      <path d="M7.64601702,1.93021277 C7.42166809,1.70590213 7.05791489,1.70590213 6.83360426,1.93021277 C6.60929362,2.1545617 6.60929362,2.5182766 6.83360426,2.74262553 C8.00295319,3.91189787 8.64697021,5.46771064 8.64697021,7.12340426 C8.64697021,8.77909787 8.00299149,10.3348723 6.83360426,11.504183 C6.60925532,11.7285319 6.60925532,12.0922468 6.83360426,12.3165957 C7.0578766,12.5408681 7.42159149,12.540983 7.64601702,12.3165957 C9.0324,10.9302894 9.79590638,9.08597872 9.79590638,7.12336596 C9.79590638,5.16075319 9.0323617,3.31648085 7.64601702,1.93021277 Z"/>
      <path d="M5.90526383 3.67092766C5.68091489 3.44661702 5.3171617 3.44661702 5.09285106 3.67092766 4.86850213 3.8952766 4.86854043 4.25902979 5.09285106 4.48334043 5.79753191 5.18794468 6.18560426 6.12555319 6.18560426 7.12336596 6.18560426 8.12117872 5.79753191 9.05878723 5.09285106 9.76339149 4.86850213 9.98770213 4.86850213 10.3514553 5.09285106 10.5758043 5.3171617 10.8001149 5.6808766 10.8001915 5.90526383 10.5758043 6.82694043 9.65416596 7.33454043 8.42805957 7.33454043 7.12332766 7.33454043 5.81859574 6.82694043 4.59256596 5.90526383 3.67092766zM2.45106383 5.59148936C1.60635335 5.59148936.919148936 6.27871802.919148936 7.12340426.919148936 7.96809049 1.60637759 8.65531915 2.45106383 8.65531915 3.29575007 8.65531915 3.98297872 7.96809049 3.98297872 7.12340426 3.98297872 6.27871802 3.29577431 5.59148936 2.45106383 5.59148936z"/>
    </g>
    <path stroke="#000" d="M18.5 16.7446809C17.6728877 16.7446809 17 17.4175922 17 18.2446809 17 19.0717695 17.6729114 19.7446809 18.5 19.7446809 19.3270886 19.7446809 20 19.0717695 20 18.2446809 20 17.4175922 19.3271123 16.7446809 18.5 16.7446809zM12.5 16.7446809C11.6728877 16.7446809 11 17.4175922 11 18.2446809 11 19.0717695 11.6729114 19.7446809 12.5 19.7446809 13.3270886 19.7446809 14 19.0717695 14 18.2446809 14 17.4175922 13.3271123 16.7446809 12.5 16.7446809zM6.5 16.7446809C5.67288766 16.7446809 5 17.4175922 5 18.2446809 5 19.0717695 5.67291139 19.7446809 6.5 19.7446809 7.32708861 19.7446809 8 19.0717695 8 18.2446809 8 17.4175922 7.32711234 16.7446809 6.5 16.7446809z"/>
  </g>
</svg>
