<svg xmlns="http://www.w3.org/2000/svg" width="24" height="24" viewBox="0 0 24 24">
  <g transform="translate(0 3)">
    <path d="M20.4874687,0.233484375 C20.2129219,-0.041109375 19.7677031,-0.041109375 19.4931094,0.233484375 C19.2185156,0.508078125 19.2185156,0.95325 19.4931094,1.22784375 C21.4926094,3.22729687 22.59375,5.88764063 22.59375,8.71875 C22.59375,11.5498594 21.4926094,14.2102031 19.4931094,16.2096563 C19.2185156,16.4842031 19.2185156,16.9294219 19.4931094,17.2040156 C19.7681719,17.4790781 20.2133437,17.4781406 20.4874687,17.2040156 C22.7525625,14.9389688 24,11.9255156 24,8.71875 C24,5.51198438 22.7525625,2.49853125 20.4874687,0.233484375 L20.4874687,0.233484375 Z"/>
    <path d="M18.3584063,2.3625 C18.0838125,2.08795313 17.6385938,2.08795313 17.3640469,2.3625 C17.0895,2.63709375 17.0895,3.08226562 17.3640469,3.35685937 C18.7952813,4.788 19.5835313,6.69225 19.5835313,8.71875 C19.5835313,10.74525 18.7953281,12.6494531 17.3640469,14.0806406 C17.0894531,14.3552344 17.0894531,14.8004062 17.3640469,15.075 C17.6385469,15.3495 18.0837187,15.3496406 18.3584063,15.075 C20.0552813,13.3782188 20.9897813,11.1208594 20.9897813,8.71870313 C20.9897813,6.31654688 20.0552344,4.05923438 18.3584063,2.3625 Z"/>
    <path d="M16.2277969 4.4930625C15.9532031 4.21851563 15.5079844 4.21851563 15.2334375 4.4930625 14.9588437 4.76765625 14.9588906 5.212875 15.2334375 5.48742187 16.0959375 6.34982812 16.5709219 7.49742187 16.5709219 8.71870312 16.5709219 9.93998437 16.0959375 11.0875781 15.2334375 11.9499844 14.9588437 12.2245312 14.9588437 12.66975 15.2334375 12.9443437 15.5079844 13.2188906 15.9531562 13.2189844 16.2277969 12.9443437 17.3558906 11.8162969 17.9771719 10.3155937 17.9771719 8.71865625 17.9771719 7.12171875 17.3558906 5.62110938 16.2277969 4.4930625zM1.40625 8.71875C1.40625 5.88764062 2.50739062 3.22729687 4.50689062 1.22784375 4.78148438.953296875 4.78148438.508078125 4.50689062.233484375 4.23234375-.0410625 3.78717188-.041109375 3.51253125.233484375 1.2474375 2.49853125 0 5.51198437 0 8.71875 0 11.9255156 1.2474375 14.9389687 3.51253125 17.2040156 3.78703125 17.4785625 4.23229688 17.4786562 4.50689062 17.2040156 4.78148437 16.9294219 4.78148437 16.48425 4.50689062 16.2096562 2.50739062 14.2102031 1.40625 11.5498594 1.40625 8.71875z"/>
    <path d="M4.41651562,8.71875 C4.41651562,6.69225 5.20471875,4.78804687 6.636,3.35685937 C6.91059375,3.08226562 6.91059375,2.63709375 6.636,2.3625 C6.36145312,2.08790625 5.91623437,2.08795312 5.64164062,2.3625 C3.94476562,4.05923437 3.01026563,6.31664062 3.01026563,8.71875 C3.01026563,11.1208594 3.94476563,13.3782656 5.64164062,15.0750469 C5.91660937,15.3499688 6.36178125,15.3492656 6.636,15.0750469 C6.91054687,14.8004531 6.91054687,14.3552812 6.636,14.0806875 C5.20471875,12.6495 4.41651562,10.74525 4.41651562,8.71875 Z"/>
    <path d="M8.76660937,4.49310938 C8.4920625,4.21851563 8.04684375,4.21851563 7.77225,4.49310938 C6.64415625,5.62115625 6.022875,7.12185937 6.022875,8.71879687 C6.022875,10.3157344 6.64415625,11.8164375 7.77225,12.9444844 C8.04721875,13.2194063 8.49239062,13.2187031 8.76660937,12.9444844 C9.04120312,12.6698906 9.04115625,12.2246719 8.76660937,11.950125 C7.90410937,11.0877187 7.429125,9.940125 7.429125,8.71884375 C7.429125,7.4975625 7.90410938,6.34996875 8.76660938,5.4875625 C9.04115625,5.21292187 9.04115625,4.76770312 8.76660938,4.49310937 L8.76660937,4.49310938 Z"/>
    <path d="M12,5.75625 C10.3664531,5.75625 9.0375,7.08525 9.0375,8.71875 C9.0375,10.35225 10.3665,11.68125 12,11.68125 C13.6335,11.68125 14.9625,10.35225 14.9625,8.71875 C14.9625,7.08525 13.6335469,5.75625 12,5.75625 Z"/>
  </g>
</svg>
