<svg xmlns="http://www.w3.org/2000/svg" width="24" height="24" viewBox="0 0 24 24">
  <g transform="translate(0 2)">
    <path d="M23.7351563,2.70464063 C23.3803125,2.34890625 22.8054375,2.34796875 22.449375,2.70220312 L15.5466563,9.57703125 L13.5517969,7.58217188 C13.196625,7.22732813 12.6215156,7.227 12.2663438,7.58217188 L4.1754375,15.673125 C3.82026563,16.0279688 3.82026563,16.6037344 4.1754375,16.9585781 C4.35271875,17.1361406 4.58545313,17.2249219 4.8181875,17.2249219 C5.05059375,17.2249219 5.28365625,17.1361406 5.46089063,16.9585781 L12.9090938,9.51070313 L14.9027344,11.5040156 C15.2575781,11.8588594 15.8312344,11.8591875 16.1869688,11.5055156 L23.7324375,3.990375 C24.0881719,3.63614063 24.0893906,3.060375 23.7351563,2.70464063 Z"/>
    <path d="M23.060625 20.0128125L1.8181875 20.0128125 1.8181875.921890625C1.8181875.419765625 1.41121875.012796875.90909375.012796875.40696875.012796875 0 .419765625 0 .921890625L0 20.9219062C0 21.4240312.40696875 21.831.90909375 21.831L23.060625 21.831C23.56275 21.831 23.9697187 21.4240312 23.9697187 20.9219062 23.9697187 20.4197812 23.56275 20.0128125 23.060625 20.0128125zM23.0909062 2.40675L16.27275 2.40675C15.770625 2.40675 15.3636563 2.81371875 15.3636563 3.31584375 15.3636563 3.81796875 15.770625 4.2249375 16.27275 4.2249375L22.1818594 4.2249375 22.1818594 10.1343281C22.1818594 10.636125 22.5888281 11.0434219 23.0909531 11.0434219 23.5930781 11.0434219 24 10.636125 24 10.134L24 3.31584375C24 2.81371875 23.5930312 2.40675 23.0909062 2.40675z"/>
  </g>
</svg>
