<svg xmlns="http://www.w3.org/2000/svg" width="24" height="24" viewBox="0 0 24 24">
  <g transform="translate(0 5)">
    <path d="M2,17 L2,0 L0,0 L0,18 C0,18.5522847 0.44771525,19 1,19 L24,19 L24,17 L2,17 Z"/>
    <path d="M9 9C9 8.44771525 8.55228475 8 8 8L5 8C4.44771525 8 4 8.44771525 4 9L4 16 9 16 9 9zM16 5C16 4.44771525 15.5522847 4 15 4L12 4C11.4477153 4 11 4.44771525 11 5L11 16 16 16 16 5zM23 1C23 .44771525 22.5522847 0 22 0L19 0C18.4477153 0 18 .44771525 18 1L18 16 23 16 23 1z"/>
  </g>
</svg>
