<svg xmlns="http://www.w3.org/2000/svg" width="24" height="24" viewBox="0 0 24 24">
  <path d="M3.5625,11.25 C4.12976072,11.25 4.6431885,11.0223999 5.02258303,10.6569214 L7.10394286,11.6975098 C7.09350586,11.7822876 7.078125,11.8656006 7.078125,11.953125 C7.078125,13.1162109 8.02441406,14.0625 9.1875,14.0625 C10.3505859,14.0625 11.296875,13.1162109 11.296875,11.953125 C11.296875,11.628479 11.217041,11.3245239 11.0853882,11.0494995 L13.9088745,8.22601317 C14.1838989,8.35766602 14.487854,8.4375 14.8125,8.4375 C15.9755859,8.4375 16.921875,7.49121094 16.921875,6.328125 C16.921875,6.10913086 16.8788452,5.90203856 16.8165893,5.70336914 L19.2698364,3.86389162 C19.6045532,4.08746339 20.0057373,4.21875 20.4375,4.21875 C21.6005859,4.21875 22.546875,3.27246094 22.546875,2.109375 C22.546875,0.946289062 21.6005859,0 20.4375,0 C19.2744141,0 18.328125,0.946289062 18.328125,2.109375 C18.328125,2.32836914 18.3711548,2.53546144 18.4334107,2.73413086 L15.9801636,4.57360838 C15.6454468,4.35003661 15.2442627,4.21875 14.8125,4.21875 C13.6494141,4.21875 12.703125,5.16503906 12.703125,6.328125 C12.703125,6.65277098 12.782959,6.95672606 12.9146118,7.2317505 L10.0911255,10.0552368 C9.81610106,9.92358398 9.51214598,9.84375 9.1875,9.84375 C8.62023928,9.84375 8.1068115,10.0713501 7.72741697,10.4368286 L5.64605714,9.39624023 C5.65649414,9.31146239 5.671875,9.22814944 5.671875,9.140625 C5.671875,7.97753906 4.72558594,7.03125 3.5625,7.03125 C2.39941406,7.03125 1.453125,7.97753906 1.453125,9.140625 C1.453125,10.3037109 2.39941406,11.25 3.5625,11.25 Z"/>
  <path d="M23.296875,22.59375 L22.546875,22.59375 L22.546875,7.734375 C22.546875,7.34582522 22.2322998,7.03125 21.84375,7.03125 L19.03125,7.03125 C18.6427002,7.03125 18.328125,7.34582522 18.328125,7.734375 L18.328125,22.59375 L16.921875,22.59375 L16.921875,11.953125 C16.921875,11.5645752 16.6072998,11.25 16.21875,11.25 L13.40625,11.25 C13.0177002,11.25 12.703125,11.5645752 12.703125,11.953125 L12.703125,22.59375 L11.296875,22.59375 L11.296875,17.578125 C11.296875,17.1895752 10.9822998,16.875 10.59375,16.875 L7.78125,16.875 C7.39270022,16.875 7.078125,17.1895752 7.078125,17.578125 L7.078125,22.59375 L5.671875,22.59375 L5.671875,14.765625 C5.671875,14.3770752 5.35729978,14.0625 4.96875,14.0625 L2.15625,14.0625 C1.76770022,14.0625 1.453125,14.3770752 1.453125,14.765625 L1.453125,22.59375 L0.703125,22.59375 C0.314575219,22.59375 0,22.9083252 0,23.296875 C0,23.6854248 0.314575219,24 0.703125,24 L23.296875,24 C23.6854248,24 24,23.6854248 24,23.296875 C24,22.9083252 23.6854248,22.59375 23.296875,22.59375 Z"/>
</svg>
