<svg xmlns="http://www.w3.org/2000/svg" width="24" height="24" viewBox="0 0 24 24">
  <g fill="none" fill-rule="evenodd">
    <g fill="#000" fill-rule="nonzero" transform="translate(0 3)">
      <rect width="1.451" height="1.406" x="2.201" y="2.172"/>
      <rect width="1.451" height="1.406" x="4.603" y="2.172"/>
      <rect width="1.451" height="1.406" x="7.005" y="2.172"/>
      <path d="M0,0.031640625 L0,4.31278125 L0,5.71907812 L0,20.6871094 L24,20.6871094 L24,5.71907812 L24,4.31278125 L24,0.031640625 L0,0.031640625 Z M22.5937031,19.2807656 L1.40629688,19.2807656 L1.40629688,5.71907812 L22.5937031,5.71907812 L22.5937031,19.2807656 L22.5937031,19.2807656 Z M22.5937031,4.31278125 L1.40629688,4.31278125 L1.40629688,1.4379375 L22.5937031,1.4379375 L22.5937031,4.31278125 L22.5937031,4.31278125 Z"/>
    </g>
    <g fill="#000" transform="translate(6 12)">
      <rect width="1.333" height="1.333"/>
      <rect width="1.333" height="1.333" x="2.667" y="2.667"/>
      <rect width="1.333" height="1.333" x="2.667" y="5.333"/>
      <rect width="6.667" height="1.333" x="2.667"/>
      <rect width="6.667" height="1.333" x="5.333" y="2.667"/>
      <rect width="6.667" height="1.333" x="5.333" y="5.333"/>
    </g>
  </g>
</svg>
