<svg xmlns="http://www.w3.org/2000/svg" width="24" height="24" viewBox="0 0 24 24">
  <g fill="none" fill-rule="evenodd">
    <path fill="#000" fill-rule="nonzero" d="M2.58853333 15.5589333L21.4114667 15.5589333C22.148 15.5589333 22.7448 14.9621333 22.7448 14.2256L22.7448 1.53706667C22.7448.8008 22.148.203733333 21.4114667.203733333L2.58853333.203733333C1.852.203733333 1.2552.8008 1.2552 1.53706667L1.2552 14.2256C1.2552 14.9618667 1.852 15.5589333 2.58853333 15.5589333zM2.45546667 1.404L21.5445333 1.404 21.5445333 14.3589333 2.45546667 14.3589333 2.45546667 1.404zM22.8728 16.1386667L14.8 16.1386667 9.2 16.1386667 1.1272 16.1386667C.527466667 16.1386667.0413333333 16.6245333.0413333333 17.2245333.0413333333 17.9744.621866667 18.9965333 1.51786667 18.9965333L9.2 18.9965333 14.8 18.9965333 22.4824 18.9965333C23.3786667 18.9965333 23.9589333 17.9746667 23.9589333 17.2245333 23.9589333 16.6245333 23.4728 16.1386667 22.8728 16.1386667zM14.6056 17.6869333L9.39413333 17.6869333C9.18453333 17.6869333 9.01466667 17.5170667 9.01466667 17.3072 9.01466667 17.0978667 9.18453333 16.928 9.39413333 16.928L14.6056 16.928C14.8152 16.928 14.9853333 17.0978667 14.9853333 17.3072 14.9853333 17.5170667 14.8154667 17.6869333 14.6056 17.6869333z" transform="translate(0 2)"/>
    <g fill="#000" transform="translate(6 6)">
      <rect width="1.444" height="1.444"/>
      <rect width="1.444" height="1.444" x="2.889" y="2.889"/>
      <rect width="1.444" height="1.444" x="2.889" y="5.778"/>
      <rect width="7.222" height="1.444" x="2.889"/>
      <rect width="7.222" height="1.444" x="5.778" y="2.889"/>
      <rect width="7.222" height="1.444" x="5.778" y="5.778"/>
    </g>
    <path fill="#000" fill-rule="nonzero" d="M358.847656,26.332031 C313.066406,72.140625 340.625,126.144531 340.875,129.144531 L129.65625,340.414062 C126.65625,340.183594 72.777344,312.425781 26.84375,358.359375 C-0.078125,385.296875 -7.136719,426.457031 9.25,460.804688 L69.277344,400.792969 L111.699219,443.214844 L51.6875,503.226562 C85.277344,519.289062 126.554688,513.222656 154.117188,485.632812 C199.921875,439.855469 172.339844,385.835938 172.089844,382.835938 L383.308594,171.578125 C386.308594,171.875 440.375,199.390625 486.121094,153.605469 C513.058594,126.683594 520.117188,85.523438 503.714844,51.171875 L443.703125,111.183594 L401.28125,68.765625 L461.292969,8.738281 C427.914062,-7.144531 386.652344,-1.429688 358.847656,26.332031 Z" transform="translate(-269 17)"/>
  </g>
</svg>
