<svg xmlns="http://www.w3.org/2000/svg" width="24" height="24" viewBox="0 0 24 24">
  <g fill="none" fill-rule="evenodd">
    <path fill="#000" fill-rule="nonzero" d="M21.9999844,0.015609375 L2.00001563,0.015609375 C0.89746875,0.015609375 0,0.912609375 0,2.015625 L0,16.0156406 C0,17.1186562 0.89746875,18.0156562 2.00001563,18.0156562 L9.00225,18.0156562 C8.98125,18.813375 8.82890625,20.0894062 8.25684375,20.6919375 C8.04689062,20.912625 7.80665625,21.0156562 7.5,21.0156562 C7.223625,21.0156562 6.99998438,21.2392969 6.99998438,21.5156719 C6.99998438,21.7920469 7.223625,22.0156875 7.5,22.0156875 L16.5,22.0156875 C16.776375,22.0156875 17.0000156,21.7920469 17.0000156,21.5156719 C17.0000156,21.2392969 16.776375,21.0156562 16.5,21.0156562 C16.1933438,21.0156562 15.9531094,20.9130937 15.7441406,20.6924062 C15.1734844,20.092875 15.0201563,18.8150156 14.9983594,18.0156562 L22.0000312,18.0156562 C23.1025781,18.0156562 24.0000469,17.1187031 24.0000469,16.0156406 L24.0000469,2.015625 C24.0000469,0.912609375 23.1025313,0.015609375 21.9999844,0.015609375 Z M12,17.0185313 C11.44725,17.0185313 10.9970625,16.5683438 10.9970625,16.0155937 C10.9970625,15.4628437 11.44725,15.0126563 12,15.0126563 C12.55275,15.0126563 13.0029375,15.4628437 13.0029375,16.0155937 C13.0029375,16.5683438 12.55275,17.0185313 12,17.0185313 Z M2.00001562,14.015625 L2.00001562,2.015625 L22.0000312,2.015625 L22.000875,14.015625 L2.00001562,14.015625 Z"/>
    <g fill="#000" transform="translate(6 5)">
      <rect width="1.333" height="1.333"/>
      <rect width="1.333" height="1.333" x="2.667" y="2.667"/>
      <rect width="1.333" height="1.333" x="2.667" y="5.333"/>
      <rect width="6.667" height="1.333" x="2.667"/>
      <rect width="6.667" height="1.333" x="5.333" y="2.667"/>
      <rect width="6.667" height="1.333" x="5.333" y="5.333"/>
    </g>
    <path fill="#000" fill-rule="nonzero" d="M256,0 C179.87,0 107.961,35.406 60,92.529 L60,76 C60,67.709 53.291,61 45,61 C36.709,61 30,67.709 30,76 L30,139.721 C30,154.036 48.49,156.085 45,154.721 C45.308,154.721 45.615,154.706 45.923,154.692 L105.923,150.971 C114.199,150.458 120.484,143.339 119.971,135.077 C119.458,126.815 112.237,120.59 104.077,121.029 L73.683,122.919 C115.783,65.651 183.9,30 256,30 C380.072,30 482,131.928 482,256 C482,264.291 488.709,271 497,271 C505.291,271 512,264.291 512,256 C512,115.39 396.61,0 256,0 Z" transform="translate(-89 11)"/>
  </g>
</svg>
