<svg xmlns="http://www.w3.org/2000/svg" width="24" height="24" viewBox="0 0 24 24">
  <g fill="none" fill-rule="evenodd">
    <path fill="#000" fill-rule="nonzero" stroke="#000" stroke-width=".5" d="M4.91871429 4.74407238C5.03236921 4.74404811 5.14136026 4.69887926 5.22171429 4.61850095 8.82326016 1.01179523 14.6414892.927627273 18.3458571 4.42864381L17.1428571 4.42864381C16.9061637 4.42864381 16.7142857 4.62052178 16.7142857 4.85721524 16.7142857 5.0939087 16.9061637 5.28578667 17.1428571 5.28578667L19.7142857 5.28578667 19.7142857 2.7143581C19.7142857 2.47766463 19.5224077 2.28578667 19.2857143 2.28578667 19.0490208 2.28578667 18.8571429 2.47766463 18.8571429 2.7143581L18.8571429 3.72278667C14.80103-.0169538866 8.51637878.110895172 4.61571429 4.01250095 4.49318232 4.13506992 4.45653347 4.31937379 4.5228523 4.47949577 4.58917112 4.63961774 4.74540176 4.74403538 4.91871429 4.74407238L4.91871429 4.74407238zM19.3842857 20.2733581C19.5467024 20.1051957 19.5443796 19.8378932 19.3790651 19.6725787 19.2137506 19.5072642 18.9464481 19.5049414 18.7782857 19.6673581 15.1767398 23.2740638 9.35851083 23.3582318 5.65414286 19.8572152L6.85714286 19.8572152C7.09383632 19.8572152 7.28571429 19.6653373 7.28571429 19.4286438 7.28571429 19.1919503 7.09383632 19.0000724 6.85714286 19.0000724L4.28571429 19.0000724 4.28571429 21.571501C4.28571429 21.8081944 4.47759225 22.0000724 4.71428571 22.0000724 4.95097918 22.0000724 5.14285714 21.8081944 5.14285714 21.571501L5.14285714 20.5630724C9.19897003 24.3028129 15.4836212 24.1749639 19.3842857 20.2733581L19.3842857 20.2733581z"/>
    <g fill="#000" fill-rule="nonzero" transform="translate(0 8)">
      <path d="M5.97333333 5.56L5.97333333 4.45333333C5.22666667 4.90666667 4.05333333 5.08 2.98666667 5.08 1.92 5.08.76 4.90666667.0133333333 4.46666667L.0133333333 5.56C.0133333333 6.10666667 1.34666667 6.56 2.98666667 6.56 4.62666667 6.56 5.97333333 6.10666667 5.97333333 5.56zM5.97333333 7.69333333L5.97333333 6.58666667C5.22666667 7.04 4.05333333 7.21333333 2.98666667 7.21333333 1.92 7.21333333.76 7.04.0133333333 6.6L.0133333333 7.69333333C.0133333333 8.24 1.34666667 8.69333333 2.98666667 8.69333333 4.62666667 8.69333333 5.97333333 8.24 5.97333333 7.69333333zM.0133333333 2.18666667L.0133333333 3.28C.0133333333 3.82666667 1.34666667 4.29333333 2.98666667 4.29333333 4.62666667 4.29333333 5.97333333 3.84 5.97333333 3.28L5.97333333 2.17333333C5.22666667 2.62666667 4.05333333 2.8 2.98666667 2.8 1.92 2.8.76 2.62666667.0133333333 2.18666667z"/>
      <ellipse cx="2.987" cy="1" rx="2.987" ry="1"/>
    </g>
    <g fill="#000" fill-rule="nonzero" transform="translate(18 8)">
      <path d="M5.97333333 5.56L5.97333333 4.45333333C5.22666667 4.90666667 4.05333333 5.08 2.98666667 5.08 1.92 5.08.76 4.90666667.0133333333 4.46666667L.0133333333 5.56C.0133333333 6.10666667 1.34666667 6.56 2.98666667 6.56 4.62666667 6.56 5.97333333 6.10666667 5.97333333 5.56zM5.97333333 7.69333333L5.97333333 6.58666667C5.22666667 7.04 4.05333333 7.21333333 2.98666667 7.21333333 1.92 7.21333333.76 7.04.0133333333 6.6L.0133333333 7.69333333C.0133333333 8.24 1.34666667 8.69333333 2.98666667 8.69333333 4.62666667 8.69333333 5.97333333 8.24 5.97333333 7.69333333zM.0133333333 2.18666667L.0133333333 3.28C.0133333333 3.82666667 1.34666667 4.29333333 2.98666667 4.29333333 4.62666667 4.29333333 5.97333333 3.84 5.97333333 3.28L5.97333333 2.17333333C5.22666667 2.62666667 4.05333333 2.8 2.98666667 2.8 1.92 2.8.76 2.62666667.0133333333 2.18666667z"/>
      <ellipse cx="2.987" cy="1" rx="2.987" ry="1"/>
    </g>
  </g>
</svg>
