<svg xmlns="http://www.w3.org/2000/svg" width="24" height="24" viewBox="0 0 24 24">
  <path d="M6.41258964 0L6.41258964 11.1747729 18.1195219 11.1747729 18.1195219 0 6.41258964 0zM15.4588685 4.78919522L9.07329084 4.78919522 9.07329084 3.19281275 15.4588685 3.19281275 15.4588685 4.78919522 15.4588685 4.78919522zM.0270119522 12.7711554L.0270119522 24.4780876 11.2017849 24.4780876 11.2017849 12.7711554.0270119522 12.7711554zM8.54113147 17.5603506L2.68766534 17.5603506 2.68766534 15.9639681 8.54113147 15.9639681 8.54113147 17.5603506zM12.7982151 12.7711554L12.7982151 24.4780876 23.972988 24.4780876 23.972988 12.7711554 12.7982151 12.7711554zM21.3123347 17.5603506L15.4588685 17.5603506 15.4588685 15.9639681 21.3123347 15.9639681 21.3123347 17.5603506z"/>
</svg>
