<svg xmlns="http://www.w3.org/2000/svg" width="24" height="24" viewBox="0 0 24 24">
  <path d="M11.25 1L9.25 1 9.25 2.25C9.25 2.66 8.91 3 8.5 3 8.09 3 7.75 2.66 7.75 2.25L7.75 1 5.75 1C5.34 1 5 1.34 5 1.75L5 5.25C5 5.66 5.34 6 5.75 6L11.25 6C11.66 6 12 5.66 12 5.25L12 1.75C12 1.34 11.66 1 11.25 1zM8.25 7L6.25 7 6.25 8.25C6.25 8.66 5.91 9 5.5 9 5.09 9 4.75 8.66 4.75 8.25L4.75 7 2.75 7C2.34 7 2 7.34 2 7.75L2 11.25C2 11.66 2.34 12 2.75 12L8.25 12C8.66 12 9 11.66 9 11.25L9 7.75C9 7.34 8.66 7 8.25 7z"/>
  <path d="M14.25 7L12.25 7 12.25 8.25C12.25 8.66 11.91 9 11.5 9 11.09 9 10.75 8.66 10.75 8.25L10.75 7 8.75 7C8.34 7 8 7.34 8 7.75L8 11.25C8 11.66 8.34 12 8.75 12L14.25 12C14.66 12 15 11.66 15 11.25L15 7.75C15 7.34 14.66 7 14.25 7zM8.25 13L6.25 13 6.25 14.25C6.25 14.66 5.91 15 5.5 15 5.09 15 4.75 14.66 4.75 14.25L4.75 13 2.75 13C2.34 13 2 13.34 2 13.75L2 17.25C2 17.66 2.34 18 2.75 18L8.25 18C8.66 18 9 17.66 9 17.25L9 13.75C9 13.34 8.66 13 8.25 13z"/>
  <path d="M14.25,13 L12.25,13 L12.25,14.25 C12.25,14.66 11.91,15 11.5,15 C11.09,15 10.75,14.66 10.75,14.25 L10.75,13 L8.75,13 C8.34,13 8,13.34 8,13.75 L8,17.25 C8,17.66 8.34,18 8.75,18 L14.25,18 C14.66,18 15,17.66 15,17.25 L15,13.75 C15,13.34 14.66,13 14.25,13 Z"/>
  <path d="M22.5,19.212 L22.5,1 C22.5,0.448 22.053,0 21.5,0 C20.947,0 20.5,0.448 20.5,1 L20.5,16 L19,16 C17.346,16 16,17.346 16,19 L16,20 L1,20 C0.447,20 0,20.448 0,21 C0,21.552 0.447,22 1,22 L1.512,22 C1.509,22.042 1.5,22.082 1.5,22.125 C1.5,23.159 2.397,24 3.5,24 C4.603,24 5.5,23.159 5.5,22.125 C5.5,22.082 5.491,22.042 5.488,22 L17,22 C17.553,22 18,21.552 18,21 L18,19 C18,18.449 18.448,18 19,18 L20.5,18 L20.5,19.212 C19.618,19.599 19,20.477 19,21.5 C19,22.878 20.121,24 21.5,24 C22.879,24 24,22.878 24,21.5 C24,20.477 23.382,19.599 22.5,19.212 Z"/>
</svg>
