<svg xmlns="http://www.w3.org/2000/svg" width="24" height="24" viewBox="0 0 24 24">
  <g fill="none" fill-rule="evenodd">
    <path fill="#000" fill-rule="nonzero" d="M5.19230769 8.30769231L5.19230769 9.34615385C5.19230769 9.91938462 4.72707692 10.3846154 4.15384615 10.3846154 3.58061538 10.3846154 3.11538462 9.91938462 3.11538462 9.34615385L3.11538462 8.30769231.692307692 8.30769231C.310153846 8.30769231-6.14892752e-16 8.61784615-6.14892752e-16 9L-6.14892752e-16 14.5384615C-6.14892752e-16 14.9206154.310153846 15.2307692.692307692 15.2307692L7.61538462 15.2307692C7.99753846 15.2307692 8.30769231 14.9206154 8.30769231 14.5384615L8.30769231 9C8.30769231 8.61784615 7.99753846 8.30769231 7.61538462 8.30769231L5.19230769 8.30769231zM14.8846154 8.30769231L14.8846154 9.34615385C14.8846154 9.91938462 14.4193846 10.3846154 13.8461538 10.3846154 13.2729231 10.3846154 12.8076923 9.91938462 12.8076923 9.34615385L12.8076923 8.30769231 10.3846154 8.30769231C10.0024615 8.30769231 9.69230769 8.61784615 9.69230769 9L9.69230769 14.5384615C9.69230769 14.9206154 10.0024615 15.2307692 10.3846154 15.2307692L17.3076923 15.2307692C17.6898462 15.2307692 18 14.9206154 18 14.5384615L18 9C18 8.61784615 17.6898462 8.30769231 17.3076923 8.30769231L14.8846154 8.30769231zM10.0384615 0L10.0384615 1.03846154C10.0384615 1.61169231 9.57323077 2.07692308 9 2.07692308 8.42676923 2.07692308 7.96153846 1.61169231 7.96153846 1.03846154L7.96153846 0 5.53846154 0C5.15630769 0 4.84615385.310153846 4.84615385.692307692L4.84615385 6.23076923C4.84615385 6.61292308 5.15630769 6.92307692 5.53846154 6.92307692L12.4615385 6.92307692C12.8436923 6.92307692 13.1538462 6.61292308 13.1538462 6.23076923L13.1538462.692307692C13.1538462.310153846 12.8436923 0 12.4615385 0L10.0384615 0z" transform="translate(3 7)"/>
    <path fill="#000" fill-rule="nonzero" d="M22.25,24.00075 L1.75,24.00075 C0.785,24.00075 0,23.21575 0,22.25075 L0,8.50075 C0,8.25375 0.122,8.02275 0.325,7.88275 L11.575,0.13275 C11.831,-0.04425 12.17,-0.04425 12.426,0.13275 L23.676,7.88275 C23.878,8.02275 24,8.25375 24,8.50075 L24,22.25075 C24,23.21575 23.215,24.00075 22.25,24.00075 Z M1.5,8.89475 L1.5,22.25075 C1.5,22.38875 1.612,22.50075 1.75,22.50075 L22.25,22.50075 C22.388,22.50075 22.5,22.38875 22.5,22.25075 L22.5,8.89475 L12,1.66175 L1.5,8.89475 Z"/>
  </g>
</svg>
