<svg xmlns="http://www.w3.org/2000/svg" width="24" height="24" viewBox="0 0 24 24">
  <g fill="none" fill-rule="evenodd">
    <g fill="#000" fill-rule="nonzero" transform="translate(0 3)">
      <path d="M13.3084565 4.19282609C13.0834565 2.77219565 12.1717174 1.58204348 10.9238478.9675L11.1093261 3.16584783C11.1255652 3.35563043 10.9845 3.52154348 10.7955 3.5373913 10.7857174 3.53876087 10.7757391 3.53876087 10.7663478 3.53876087 10.5892826 3.53876087 10.439413 3.40336957 10.4239565 3.22376087L10.1729348.252195652C9.38367391.0749347826 8.61632609.0749347826 7.82647826.252195652L7.57643478 3.22376087C7.56019565 3.41295652 7.39330435 3.55773913 7.20469565 3.5373913 7.0155 3.52154348 6.87482609 3.35543478 6.89106522 3.16584783L7.07615217.9675C5.82847826 1.58204348 4.91654348 2.77219565 4.69173913 4.19282609L3.77608696 4.19282609 3.77608696 5.10280435 3.77608696 5.57315217C5.50291304 5.71597826 7.25928261 5.79013043 9 5.79013043 10.7405217 5.79013043 12.4972826 5.71597826 14.223913 5.57315217L14.223913 5.10280435 14.223913 4.19282609 13.3084565 4.19282609zM9 6.74002174C7.67817391 6.74002174 6.33815217 6.69736957 5.00047826 6.61382609 5.00243478 6.7725 5.00752174 6.92686957 5.01769565 7.07302174 5.11415217 8.42184783 6.00084783 10.413587 6.69013043 11.5166739 7.39369565 12.6422609 8.99726087 12.6289636 9 12.6289636 9.00273913 12.6289636 10.6061087 12.6422609 11.3092826 11.5166739 11.9989565 10.413587 12.8860435 8.42184783 12.9825 7.07302174 12.9926739 6.92686957 12.9977609 6.7725 12.9997174 6.61382609 11.6620435 6.69736957 10.3220217 6.74002174 9 6.74002174zM2.86552174 12.6743478C2.7806087 12.7021304 2.69726087 12.7279565 2.61136957 12.7573043 1.61823913 13.0951957.877695652 13.9948043.51123913 15.0014348.263543478 15.6815217.128152174 16.3277609.052826087 16.8362609.0389347826 16.9335.0268043478 17.0250652.0166304348 17.1113478.036 17.5388478.386217391 17.8806522.819 17.8806522L2.86532609 17.8806522 2.86532609 12.6743478 2.86552174 12.6743478z"/>
      <path d="M13.3135435 12.1740652C12.8772391 12.0756522 12.4847609 12.0013043 12.1578261 11.9476957 12.1437391 11.97 12.1286739 11.9987609 12.1149783 12.0198913 11.1682174 13.5352174 9.22167391 13.5790435 9.00273913 13.5790435 9.00176087 13.5790435 9.00097826 13.5790435 9 13.5790435 8.99902174 13.5790435 8.99823913 13.5790435 8.99726087 13.5790435 8.77832609 13.5790435 6.83178261 13.5352174 5.88502174 12.0198913 5.87152174 11.9987609 5.85626087 11.97 5.84236957 11.9476957 5.51543478 12.0013043 5.12295652 12.0756522 4.68665217 12.1740652L4.68665217 17.8806522 9 17.8806522 13.3135435 17.8806522 13.3135435 12.1740652zM17.9469783 16.8362609C17.8716522 16.3277609 17.7364565 15.6815217 17.4887609 15.0014348 17.1223043 13.9948043 16.3813696 13.0951957 15.3884348 12.7573043 15.3027391 12.7281522 15.2193913 12.7021304 15.1342826 12.6743478L15.1342826 17.8806522 17.1808043 17.8806522C17.6133913 17.8806522 17.9636087 17.5388478 17.9831739 17.1113478 17.973 17.0250652 17.9608696 16.9335 17.9469783 16.8362609z"/>
    </g>
    <path fill="#000" fill-rule="nonzero" d="M7.8016,3.256 L7.08768,3.17024 C7.01472,2.89792 6.90784,2.64064 6.77024,2.40192 L7.21408,1.83776 C7.28192,1.75104 7.27424,1.61696 7.19584,1.53888 L6.46016,0.80288 C6.38272,0.72512 6.24832,0.7168 6.16128,0.78464 L5.59616,1.22912 C5.3584,1.09152 5.10112,0.98464 4.82944,0.91232 L4.744,0.1984 C4.73088,0.08928 4.63008,0 4.52,0 L3.47936,0 C3.36928,0 3.26848,0.08928 3.25568,0.1984 L3.16992,0.91232 C2.89792,0.98496 2.64032,1.09216 2.40256,1.22944 L1.83776,0.7856 C1.75136,0.71776 1.61696,0.72576 1.5392,0.80352 L0.8032,1.53984 C0.72576,1.61728 0.71776,1.75168 0.78592,1.83872 L1.22944,2.4032 C1.09184,2.64128 0.98496,2.89888 0.91232,3.1712 L0.19872,3.25664 C0.0896,3.26944 0,3.37024 0,3.48064 L0,4.52128 C0,4.63136 0.08928,4.73152 0.19872,4.74496 L0.91264,4.83072 C0.9856,5.10208 1.09216,5.35936 1.22976,5.59744 L0.78624,6.16256 C0.71872,6.24928 0.7264,6.38336 0.80448,6.46144 L1.5392,7.19776 C1.61696,7.2752 1.75136,7.28384 1.83776,7.216 L2.40288,6.7712 C2.64096,6.9088 2.89824,7.016 3.17024,7.08832 L3.256,7.80192 C3.26912,7.91136 3.3696,8.00032 3.47968,8.00032 L4.52032,8.00032 C4.63072,8.00032 4.7312,7.91136 4.744,7.80192 L4.82976,7.08832 C5.10208,7.01536 5.35936,6.90848 5.59712,6.7712 L6.16224,7.21504 C6.24896,7.28288 6.38304,7.27488 6.4608,7.19712 L7.19648,6.4608 C7.27456,6.38336 7.28256,6.24896 7.2144,6.1616 L6.77024,5.59712 C6.90816,5.35904 7.01472,5.10176 7.08768,4.83008 L7.80128,4.74432 C7.91072,4.7312 8,4.63136 8,4.52064 L8,3.48 C8.00032,3.36928 7.91136,3.26912 7.8016,3.256 Z M4.00032,6 C2.89568,6 2.00032,5.10464 2.00032,4 C2.00032,2.89536 2.89568,2 4.00032,2 C5.10496,2 6.00032,2.89536 6.00032,4 C6.00032,5.10464 5.10528,6 4.00032,6 Z" transform="translate(16 8)"/>
  </g>
</svg>
