<svg xmlns="http://www.w3.org/2000/svg" width="24" height="24" viewBox="0 0 24 24">
  <polygon points="6.314 7.324 9.658 10.667 10.667 9.657 7.324 6.314 7.324 3.633 2.285 0 0 2.285 3.633 7.324"/>
  <path d="M16.7983594,1.23429695 C14.6522551,3.38157607 15.9441293,5.91301066 15.9558487,6.05363574 L6.05447042,15.9569009 C5.91383833,15.9460977 3.38813724,14.6449494 1.23489143,16.7980879 C-0.0271351066,18.060784 -0.358023387,19.9901674 0.410142805,21.6002148 L3.22406646,18.7871638 L5.21269214,20.7756904 L2.39950094,23.5887413 C3.97410429,24.3416715 5.90907737,24.0573085 7.20113471,22.7640338 C9.3483377,20.6182196 8.05536479,18.0860526 8.04364545,17.9454275 L17.9450237,8.04271164 C18.0856558,8.05662766 20.6201464,9.34642335 22.7646027,7.20024289 C24.0273617,5.93827925 24.35825,4.0088958 23.5893513,2.39866533 L20.7761601,5.21171632 L18.7875344,3.22337285 L21.6007256,0.409589434 C20.0360104,-0.334917819 18.1017699,-0.0670343948 16.7983594,1.23429695 Z"/>
  <polygon points="12.667 15.663 15.663 12.667 16.667 13.67 13.67 16.667"/>
  <polygon points="21.075 24 14.667 17.592 17.592 14.667 24 21.074"/>
</svg>
