<svg xmlns="http://www.w3.org/2000/svg" width="24" height="24" viewBox="0 0 24 24">
  <g fill="none" fill-rule="evenodd">
    <path fill="#000" fill-rule="nonzero" d="M12 0C8.43140625 0 5.06067188 1.65965625 2.8125 4.33729687L2.8125 3.5625C2.8125 3.17385938 2.49801562 2.859375 2.109375 2.859375 1.72073438 2.859375 1.40625 3.17385938 1.40625 3.5625L1.40625 6.54942187C1.40625 7.2204375 2.27296875 7.31648438 2.109375 7.25254688 2.1238125 7.25254688 2.13820312 7.25184375 2.15264063 7.2511875L4.96514063 7.07676563C5.35307812 7.05271875 5.6476875 6.71901562 5.62364063 6.33173437 5.59959375 5.94445312 5.26110938 5.65265625 4.87860937 5.67323437L3.45389062 5.76182812C5.42732812 3.07739063 8.6203125 1.40625 12 1.40625 17.815875 1.40625 22.59375 6.184125 22.59375 12 22.59375 12.3886406 22.9082344 12.703125 23.296875 12.703125 23.6855156 12.703125 24 12.3886406 24 12 24 5.40890625 18.5910937 0 12 0zM21.8473594 16.7488125L19.0348594 16.9232344C18.6469219 16.9472812 18.3523125 17.2809844 18.3763594 17.6682656 18.4004062 18.0555469 18.7464844 18.3508125 19.1213906 18.3267656L20.5461094 18.2381719C18.5726719 20.9226094 15.3796875 22.59375 12 22.59375 6.184125 22.59375 1.40625 17.815875 1.40625 12 1.40625 11.6113594 1.09176563 11.296875.703125 11.296875.314484375 11.296875 0 11.6113594 0 12 0 18.5910937 5.40890625 24 12 24 15.5685937 24 18.9393281 22.3403437 21.1875 19.6627031L21.1875 20.4375C21.1875 20.8261406 21.5019844 21.140625 21.890625 21.140625 22.2792656 21.140625 22.59375 20.8261406 22.59375 20.4375L22.59375 17.4505781C22.59375 17.0643281 22.2233906 16.727625 21.8473594 16.7488125z"/>
    <path fill="#000" fill-rule="nonzero" d="M11.7023987,4.88380465 L10.6315189,4.75516979 C10.5220789,4.34670613 10.3617589,3.96080157 10.1553589,3.60273589 L10.8211188,2.75652974 C10.9228788,2.62645494 10.9113588,2.42534299 10.7937588,2.30822767 L9.69023896,1.20427183 C9.57407897,1.08763649 9.37247899,1.07515699 9.24191901,1.17691292 L8.3942391,1.84360626 C8.03759914,1.63721451 7.65167918,1.47690092 7.24415922,1.36842526 L7.11599923,0.297588096 C7.09631924,0.133914643 6.94511925,0 6.77999927,0 L5.21903944,0 C5.05391946,0 4.90271947,0.133914643 4.88351947,0.297588096 L4.75487949,1.36842526 C4.34687953,1.4773809 3.96047957,1.63817447 3.60383961,1.84408624 L2.7566397,1.17835287 C2.62703972,1.07659694 2.42543974,1.08859646 2.30879975,1.20523179 L1.20479987,2.30966761 C1.08863988,2.42582297 1.07663988,2.6274149 1.17887987,2.75796968 L1.8441598,3.60465581 C1.63775982,3.96176153 1.47743984,4.34814607 1.36847985,4.75660974 L0.298079968,4.88476461 C0.134399986,4.90396384 0,5.05515779 0,5.22075117 L0,6.78164873 C0,6.94676213 0.133919986,7.09699612 0.298079968,7.11715531 L1.36895985,7.24579017 C1.47839984,7.65281389 1.63823982,8.03871845 1.8446398,8.39582417 L1.17935987,9.24347026 C1.07807988,9.37354506 1.08959988,9.57465701 1.20671987,9.69177233 L2.30879975,10.7962082 C2.42543974,10.9123635 2.62703972,10.925323 2.7566397,10.8235671 L3.60431961,10.1563937 C3.96143957,10.3627855 4.34735953,10.5235791 4.75535949,10.6320547 L4.88399947,11.7024119 C4.90367947,11.8665653 5.05439946,12 5.21951944,12 L6.78047927,12 C6.94607925,12 7.09679924,11.8665653 7.11599923,11.7024119 L7.24463922,10.6320547 C7.65311918,10.5226191 8.03903914,10.3623055 8.3956791,10.1563937 L9.24335901,10.8221271 C9.37343899,10.923883 9.57455897,10.9118835 9.69119896,10.7952482 L10.7947188,9.69081237 C10.9118388,9.57465701 10.9238388,9.37306508 10.8215988,9.24203032 L10.1553589,8.39534419 C10.3622389,8.03823847 10.5220789,7.65233391 10.6315189,7.24483021 L11.7019187,7.11619535 C11.8660787,7.09651614 12,6.94676213 12,6.78068877 L12,5.21979121 C12.0004787,5.05371785 11.8670387,4.90348386 11.7023987,4.88380465 Z M6.00047968,8.99964001 C4.34351953,8.99964001 3.00047968,7.65665373 3.00047968,5.99976001 C3.00047968,4.34286629 4.34351953,2.99988 6.00047968,2.99988 C7.65743918,2.99988 9.00047968,4.34286629 9.00047968,5.99976001 C9.00047968,7.65665373 7.65791918,8.99964001 6.00047968,8.99964001 Z" transform="translate(6 6)"/>
  </g>
</svg>
