<?xml version="1.0" encoding="UTF-8"?>
<svg width="24px" height="24px" viewBox="0 0 24 24" version="1.1" xmlns="http://www.w3.org/2000/svg" xmlns:xlink="http://www.w3.org/1999/xlink">
    <!-- Generator: Sketch 57.1 (83088) - https://sketch.com -->
    <title>tablet</title>
    <desc>Created with Sketch.</desc>
    <g id="tablet" stroke="none" stroke-width="1" fill="none" fill-rule="evenodd">
        <path d="M19.75,0 C20.3749998,0 20.9062502,0.218750238 21.34375,0.65625 C21.7812498,1.09374976 22,1.62500024 22,2.25 L22,21.75 C22,22.3749998 21.7812498,22.9062502 21.34375,23.34375 C20.9062502,23.7812498 20.3749998,24 19.75,24 L3.25,24 C2.62500024,24 2.09374976,23.7812498 1.65625,23.34375 C1.21875024,22.9062502 1,22.3749998 1,21.75 L1,2.25 C1,1.62500024 1.21875024,1.09374976 1.65625,0.65625 C2.09374976,0.218750238 2.62500024,0 3.25,0 L19.75,0 Z M11.5,22 C11.9062502,22 12.2578127,21.8515623 12.5546875,21.5546875 C12.8515623,21.2578127 13,20.9062502 13,20.5 C13,20.0937498 12.8515623,19.7421873 12.5546875,19.4453125 C12.2578127,19.1484377 11.9062502,19 11.5,19 C11.0937498,19 10.7421873,19.1484377 10.4453125,19.4453125 C10.1484377,19.7421873 10,20.0937498 10,20.5 C10,20.9062502 10.1484377,21.2578127 10.4453125,21.5546875 C10.7421873,21.8515623 11.0937498,22 11.5,22 Z" id="t" fill="#000000" fill-rule="nonzero"></path>
    </g>
</svg>