<?xml version="1.0" encoding="UTF-8"?>
<svg width="2721px" height="2016px" viewBox="0 0 2721 2016" version="1.1" xmlns="http://www.w3.org/2000/svg" xmlns:xlink="http://www.w3.org/1999/xlink">
    <title>Artboard</title>
    <defs>
        <filter id="filter-1">
            <feColorMatrix in="SourceGraphic" type="matrix" values="0 0 0 0 0.000000 0 0 0 0 0.000000 0 0 0 0 0.000000 0 0 0 1.000000 0"></feColorMatrix>
        </filter>
    </defs>
    <g id="Artboard" stroke="none" stroke-width="1" fill="none" fill-rule="evenodd">
        <g filter="url(#filter-1)" id="Walls">
            <g transform="translate(43.000000, 35.000000)">
                <polygon id="Path-2-Copy" stroke="#272C37" stroke-width="3" points="18.029436 187.084314 0 187.084314 0 270.084314 18.029436 270.084314"></polygon>
                <polygon id="Path-2-Copy-2" stroke="#272C37" stroke-width="3" points="18.029436 360 0 360 0 483 18.029436 483 18.029436 432.539063 28.9667969 432.539063 28.9667969 426.535156 538.775391 426.535156 538.775391 418.613281 396.049805 418.613281 396.049805 409.928711 373.84375 409.928711 373.84375 394.282227 367.195312 394.282227 367.195312 418.613281 28.9667969 418.613281 28.9667969 396.529297 18.029436 396.529297"></polygon>
                <polygon id="Path-2-Copy-3" stroke="#272C37" stroke-width="3" points="18.029436 573 0 573 0 665 18.029436 665"></polygon>
                <polygon id="Path-2-Copy-4" stroke="#272C37" stroke-width="3" points="18.029436 755 0 755 0 847 18.029436 847"></polygon>
                <polygon id="Path-2-Copy-5" stroke="#272C37" stroke-width="3" points="18.029436 1131.5 0 1131.5 0 1221.5 18.029436 1221.5 394.638672 1221.5 394.638672 1204.42578 18.5 1204.42578"></polygon>
                <polygon id="Path-2-Copy-11" stroke="#272C37" stroke-width="3" points="18.029436 935.5 0 935.5 0 1043.5 18.029436 1043.5 18.029436 998 37 998 37 980 18.029436 980"></polygon>
                <polygon id="Path-2-Copy-6" stroke="#272C37" stroke-width="3" points="18.029436 1311 0 1311 0 1396 18.029436 1396"></polygon>
                <polygon id="Path-2-Copy-7" stroke="#272C37" stroke-width="3" points="18.029436 1486 0 1486 0 1600 18.029436 1600 18.029436 1562.73242 24.0507812 1562.73242 24.0507812 1532.46875 18.029436 1532.46875"></polygon>
                <polygon id="Path-2-Copy-8" stroke="#272C37" stroke-width="3" points="18.029436 1690 0 1690 0 1741 18.029436 1741"></polygon>
                <polygon id="Path-2-Copy-12" stroke="#272C37" stroke-width="3" points="623.5 1919 537.800781 1919 537.800781 1904.5 502.794922 1904.5 502.794922 1919 456.5 1919 456.5 1937 623.5 1937"></polygon>
                <polygon id="Path-2-Copy-12" stroke="#272C37" stroke-width="3" points="668 1738.25391 618.154297 1738.25391 618.154297 1641.66211 668 1641.66211 668 1634.08008 609.976563 1634.08008 609.976563 1745.78906 660.339844 1745.78906 660.339844 1874.5 668 1874.5"></polygon>
                <polygon id="Path-2-Copy-12" stroke="#272C37" stroke-width="3" points="770.333984 1557.85156 676.177734 1557.85156 676.177734 1508.58203 726.023438 1508.58203 726.023438 1501 668 1501 668 1566.61719 777.976562 1566.61719 777.976562 1540.05664 770.333984 1540.05664"></polygon>
                <polygon id="Path-2-Copy-12" stroke="#272C37" stroke-width="3" points="777.692383 268.310547 761.955078 268.310547 761.955078 252.575195 735.985352 252.575195 735.985352 260.705078 755.02832 260.705078 755.02832 275.617187 777.692383 275.617187"></polygon>
                <polygon id="Path-2-Copy-12" stroke="#272C37" stroke-width="3" points="623.5 1919 537.800781 1919 537.800781 1904.5 502.794922 1904.5 502.794922 1919 456.5 1919 456.5 1937 623.5 1937"></polygon>
                <polygon id="Path-2-Copy-18" stroke="#272C37" stroke-width="3" points="2619 1690 2602 1690 2602 1779 2619 1779"></polygon>
                <polygon id="Path-2-Copy-20" stroke="#272C37" stroke-width="3" points="2619 1313 2602 1313 2602 1408 2619 1408"></polygon>
                <polygon id="Path-2-Copy-21" stroke="#272C37" stroke-width="3" points="2619 1131 2602 1131 2602 1211 2244.37305 1211 2244.37305 1004.9043 2252.26514 1004.9043 2252.26514 981.187988 1906.20508 981.187988 1906.20508 1004.9043 1910.45752 1004.9043 1910.45752 1078.9624 1918.09961 1078.9624 1918.18799 1004.9043 2236.23242 1004.9043 2236.23242 1211 1918.09961 1211 1918.09961 1149.4082 1918.09961 1135.42188 1910 1135.42188 1910 1318.61719 1918.09961 1318.61719 1918.24805 1218 2602 1218 2602 1224 2619 1224"></polygon>
                <polygon id="Path-2-Copy-22" stroke="#272C37" stroke-width="3" points="2619 937 2602 937 2602 981.187988 2309.29688 981.187988 2309.29688 1004.5625 2602 1004.5625 2602 1040 2619 1040"></polygon>
                <polygon id="Path-2-Copy-23" stroke="#272C37" stroke-width="3" points="2619 755 2602 755 2602 847 2619 847"></polygon>
                <polygon id="Path-2-Copy-24" stroke="#272C37" stroke-width="3" points="2619 573 2602 573 2602 665 2619 665"></polygon>
                <polygon id="Path-2-Copy-25" stroke="#272C37" stroke-width="3" points="2619 378 2602 378 2602 408.488281 2593.08594 408.488281 2593.08594 444.960938 2602 444.960938 2602 483 2619 483"></polygon>
                <polygon id="Path-2-Copy-26" stroke="#272C37" stroke-width="3" points="2619 200 2602 200 2602 290 2619 290"></polygon>
                <polygon id="Path-2-Copy-27" stroke="#272C37" stroke-width="3" points="2619 15 2557 15 2557 33 2591.33594 33 2591.33594 56.7128906 2602 56.7128906 2602 110 2619 110"></polygon>
                <polygon id="Path-2-Copy-28" stroke="#272C37" stroke-width="3" points="2468 15 2394 15 2394 33 2468 33"></polygon>
                <polygon id="Path-2-Copy-29" stroke="#272C37" stroke-width="3" points="2304.5 15 2215.5 15 2216 90 2213 90 2213 107 2233 107 2233 40.7421875 2258.21289 40.7421875 2258.21289 33 2304.5 33"></polygon>
                <polygon id="Path-2-Copy-30" stroke="#272C37" stroke-width="3" points="1984 15 1895 15 1895 33 1965 33 1965 107 1975 107 1975 310 1984 310 1983 107 1985 107 1985 90 1983 90"></polygon>
                <polygon id="Path-2-Copy-31" stroke="#272C37" stroke-width="3" points="1805.5 15 1732 15 1732 33 1755.92578 33 1755.92578 308.253906 1749 308.253906 1749 318.535156 1755.92578 318.535156 1755.92578 382.542969 1985 382.542969 1985 366.982422 1978.06836 366.982422 1978.06836 374.285156 1765.125 374.285156 1765.125 33 1805.5 33"></polygon>
                <polygon id="Path-2-Copy-33" stroke="#272C37" stroke-width="3" points="1405 4 1204 4 1204 173 1405 173"></polygon>
                <polygon id="Path-2-Copy-38" stroke="#272C37" stroke-width="3" points="1389 22.5 1220 22.5 1220 159.5 1389 159.5"></polygon>
                <polygon id="Path-2-Copy-34" stroke="#272C37" stroke-width="3" points="1029 0 953 0 953 18 995 18 995 28 1011 28 1011 266.851562 803.373047 266.851563 803.373047 275.507812 1011 275.507812 1011 409.990234 951.818359 409.990234 951.818359 403 917 403 917 427 1029 427"></polygon>
                <polygon id="Path-2-Copy-35" stroke="#272C37" stroke-width="3" points="864 0 789 -1.2490009e-16 789 18 864 18"></polygon>
                <polygon id="Path-2-Copy-9" stroke="#272C37" stroke-width="3" points="18.029436 1830 0 1830 0 1937 18.029436 1937 137 1937 137 1919 24.0507812 1919 24.0507812 1895.04297 18.029436 1895.04297"></polygon>
                <polygon id="Path-2-Copy-10" stroke="#272C37" stroke-width="3" points="227 1919 227 1937 245.029436 1937 367 1937 367 1919"></polygon>
                <polygon id="Path-2-Copy-10" stroke="#272C37" stroke-width="3" points="1029 751.996094 1012.05859 751.996094 1012.05859 833 1028 833 1028 815"></polygon>
                <polygon id="Path-2-Copy-13" stroke="#272C37" stroke-width="3" points="778 1540 778 1555 788.946443 1555 863 1555 863 1540"></polygon>
                <polygon id="Path-3" stroke="#272C37" stroke-width="3" points="713 1919 781.474609 1919 781.474609 1640 862.884766 1640 861.126946 1647.69658 799.164062 1647.69658 799.164063 1748.71484 851.738281 1748.71484 851.738281 1758.07813 799.164062 1758.07813 799.164063 1919 925 1919 925 1648.67871 918.681641 1647.69658 918.681641 1640.3418 925 1640.3418 925 1540 1097 1540 1216 1540 1216 1547.375 1102.96094 1547.375 1102.96094 1566.46875 1085.25391 1566.46875 1085.25391 1553.89453 932.388672 1553.89453 932.388672 1667.38867 1085.25391 1667.38867 1085.25391 1623 1102.96094 1623 1102.96094 1640 1115.26953 1640 1115.26953 1658 1092.56445 1658 1092.56445 1672.92578 932.388672 1672.92578 932.732994 1745.5 1080.38867 1745.87402 1080.38867 1748.03711 932.732994 1748.03711 932.388672 1808.97266 1081.56348 1809.7793 1081.56348 1811.94043 932.388672 1810.94043 932.388672 1874.70898 1202.7168 1874.70898 1202.7168 1658 1183.54102 1658 1183.54102 1640 1216 1640 1216 1933 1390 1933 1390 1640 1421.11914 1640 1421.11914 1658 1405.15234 1658 1405.15234 1871 1662.33398 1871 1662 1801.93066 1554.33398 1801.93066 1554.33398 1799.70703 1662 1799.70703 1662.33398 1728 1514.71875 1727.5 1514.71875 1658 1488.70703 1658 1488.70703 1640 1504.7207 1640 1504.7207 1609.0957 1533.08203 1609.0957 1533.08203 1557 1509 1557 1509 1540 1693 1540 1693 1547.375 1947.38477 1548.75195 1947.38477 1557 1541.86328 1557 1541.86328 1617.26367 1521.10742 1617.26367 1521.10742 1721 1667.09766 1721 1667.09766 1928.91406 1670.43247 1928.8255 1670.1582 1721 1670.1582 1728 1686 1728 1693 1728 1693 1919 1913.72461 1919 1913.72461 1643.34766 1920.67188 1643.34766 1920.67188 1919 2070.03613 1919 2070.03613 1912.37012 2100.22852 1912.37012 2100.22852 1919 2334.09961 1919 2334.09961 1556 2033.89844 1556 2033.89844 1548.75195 2057.20215 1548.75195 2057.20215 1395.9502 1909.85938 1395.9502 1909.85938 1374.98438 1916.67676 1374.98438 1916.67676 1387.79492 2065.5957 1387.79492 2065.5957 1548.75195 2224.04004 1548.75195 2224.04004 1535.42578 2259.37695 1535.42578 2259.37695 1548.75195 2591.88574 1548.75195 2591.88574 1528.44043 2602 1528.44043 2602 1495.17383 2620 1495.17383 2620 1600.17285 2602 1600.17285 2602 1556 2342.56152 1556 2344.08203 1919 2591.88574 1919 2591.88574 1905.87207 2602 1905.87207 2602 1868.35059 2619 1868.35059 2620 1936 1562 1936 1562 1887 1408 1887 1408 1951 1199 1951 1199 1933 1199 1891 1046 1891 1046 1936 713 1936"></polygon>
                <rect id="Rectangle" stroke="#272C37" stroke-width="3" x="931" y="1881" width="107" height="47"></rect>
                <polygon id="Rectangle-Copy" stroke="#272C37" stroke-width="3" points="1569 1878 1662 1878 1662 1911.91016 1639.64941 1911.91016 1639.64941 1928 1569 1928"></polygon>
                <polygon id="Path-6" stroke="#272C37" stroke-width="3" points="1597 33 1597 422 1674.21875 422 1674.21875 307.996094 1690.24414 307.996094 1690.24414 316.853516 1682.45508 316.853516 1682.45508 439 1580 439 1580 15 1640.55664 15 1640.55664 33"></polygon>
                <polygon id="Path-7" stroke="#272C37" stroke-width="3" points="665 88 665 252.612305 474.378906 252.612305 474.378906 260.902344 678.548828 260.952148 678.548828 252.612305 673 252.508789 673 29 673 18 696 18 700 18 700 2.74126831e-14 4.48408671e-14 0 5.68434189e-14 98.0605469 18.029436 98.0605469 18.029436 40.4707031 27.7050781 40.4707031 27.7050781 18 352.648438 18 352.648438 25.6777344 367.320958 25.666738 367.320958 311.880859 374.569985 311.880859 374.569985 260.952148 390.569985 260.902344 390.569985 251.970703 374.569985 251.682617 374.569985 25.6613051 389.155589 25.6503739 389.155589 18 632.949219 18 632.949219 25.6777344 665 25.6777344"></polygon>
                <polygon id="Path-8" stroke="#272C37" stroke-width="3" points="747 1006 755 1006 755 991 952 991 952 1034.91992 1029 1034.91992 1029 1024.80842 1019.97656 1024.80842 1019.97656 1021.04102 968.28125 1021.04102 968.28125 957.810547 1019.97656 957.810547 1019.97656 961.258789 1029 961.258789 1029 943.339844 951.521484 943.339844 952 974 756 974 755 576.202148 767.976562 576.202148 767.976562 567.550781 756 567.550781 756 418 675.658203 418 675.658203 427 747 427 747 963"></polygon>
                <polygon id="Path-10" stroke="#272C37" stroke-width="3" points="893 577 851 577 851 569 917 569 917 560 1029 560 1029 640 1011 640 1011 577 902 577"></polygon>
                <polygon id="Path-12" stroke="#272C37" stroke-width="3" points="1580 571 1580 591 1598.40332 591 1617 591 1617 656 1598.40332 656 1598.40332 646 1580 646 1580 956.713867 1639.19922 956.713867 1640.46484 1021.84082 1580 1021.84082 1580 1026.40039 1475.51758 1026.40039 1475.51758 997.711914 1490.1084 997.711914 1490.1084 980.637695 1466.42969 980.637695 1466.42969 1083.17285 1490.1084 1083.17285 1490.1084 1076.25195 1475.51758 1076.25195 1475.51758 1032.93848 1580 1032.93848 1580 1359.06836 1490.1084 1359.06836 1490.1084 1350.28125 1475.51758 1350.28125 1475.51758 1273.82422 1490.1084 1273.82422 1490.1084 1267.26172 1466.42969 1267.26172 1466.42969 1367.84766 1580 1367.84766 1580 1408.30273 1692.5332 1408.30273 1692.5332 1395.9375 1776.14453 1395.9375 1776.14453 1352.93945 1770.09375 1352.93945 1770.09375 1388.41602 1598.40332 1388.41602 1598.40332 1036.01953 1654.26074 1032.93848 1654.26074 1005.31055 1770.09375 1005.31055 1770.09375 1297.78906 1776.14453 1297.78906 1778.8125 891.34375 1770.09375 891.34375 1770.09375 981.187988 1654.26074 980.637695 1654.26074 943.075195 1598.40332 943.075195 1598.40332 787.835938 1770.09375 787.835938 1770.09375 834.439453 1778.8125 834.439453 1776.14453 577.067383 1743.00391 577.067383 1743.00391 583.305664 1770.09375 583.305664 1770.09375 779.736328 1598.40332 779.736328 1598.40332 663 1623.30859 663 1623.30859 591 1681.76465 591 1681.76465 583.305664 1685.35831 583.242555 1685.35831 577.067383 1683.34766 577.067383 1683.34766 571 1676 571"></polygon>
                <circle id="Oval" stroke="#FF0000" stroke-width="3" cx="1378.5" cy="420.5" r="10"></circle>
                <circle id="Oval-Copy" stroke="#FF0000" stroke-width="3" cx="1223" cy="420" r="10"></circle>
                <line x1="2334" y1="1731" x2="2343" y2="1731" id="Line" stroke="#FF0000" stroke-width="3" stroke-linecap="square"></line>
                <line x1="2334" y1="1792" x2="2343" y2="1792" id="Line-Copy" stroke="#FF0000" stroke-width="3" stroke-linecap="square"></line>
                <polygon id="Path-2" stroke="#FF0000" stroke-width="3" points="1118.98047 611.996094 1118.98047 627.636719 1139.27344 627.636719 1139.27344 611.996094"></polygon>
                <polygon id="Path-2-Copy-14" stroke="#FF0000" stroke-width="3" points="1119 1350 1119 1365.64062 1139.29297 1365.64062 1139.29297 1350"></polygon>
                <polygon id="Path-2-Copy-15" stroke="#FF0000" stroke-width="3" points="1119 981 1119 996.640625 1139.29297 996.640625 1139.29297 981"></polygon>
                <polygon id="Path-2-Copy-17" stroke="#FF0000" stroke-width="3" points="371 964 371 989 391.292969 989 391.292969 964"></polygon>
                <polygon id="Path-2-Copy-19" stroke="#FF0000" stroke-width="3" points="367 1540 367 1556 396 1556 396 1540"></polygon>
                <polygon id="Path-2-Copy-16" stroke="#FF0000" stroke-width="3" points="1468 612 1468 627.640625 1488.29297 627.640625 1488.29297 612"></polygon>
                <polygon id="Path-2-Copy-32" stroke="#FF0000" stroke-width="3" points="2244 415 2244 441 2278 441 2278 415"></polygon>
                <polygon id="Path-18" stroke="#272C37" points="1393 173 1396 173 1396 366 1393 366"></polygon>
            </g>
        </g>
        <g id="Ext-Windows" transform="translate(45.000000, 36.250000)" stroke="#272C37">
            <g id="Window/Ext" transform="translate(0.000000, 1222.750000)">
                <g id="Window">
                    <polygon id="Path-17" points="-7.10542736e-15 0 3 0 3 3 0 3"></polygon>
                    <polygon id="Path-17-Copy" points="-7.10542736e-15 82.5 3 82.5 3 85.5 0 85.5"></polygon>
                    <line x1="14.5" y1="0.5" x2="14.5" y2="85.5" id="Line-4" stroke-width="2" stroke-linecap="square"></line>
                    <line x1="1.5" y1="3.55916116" x2="1.5" y2="81.7973129" id="Line-3" stroke-width="2" stroke-linecap="square"></line>
                </g>
            </g>
            <g id="Window/Ext" transform="translate(0.000000, 1601.750000)">
                <g id="Window">
                    <polygon id="Path-17" points="-7.10542736e-15 0 3 0 3 3 0 3"></polygon>
                    <polygon id="Path-17-Copy" points="-7.10542736e-15 82.5 3 82.5 3 85.5 0 85.5"></polygon>
                    <line x1="14.5" y1="0.5" x2="14.5" y2="85.5" id="Line-4" stroke-width="2" stroke-linecap="square"></line>
                    <line x1="1.5" y1="3.55916116" x2="1.5" y2="81.7973129" id="Line-3" stroke-width="2" stroke-linecap="square"></line>
                </g>
            </g>
            <g id="Window/Ext" transform="translate(0.000000, 1741.750000)">
                <g id="Window">
                    <polygon id="Path-17" points="-7.10542736e-15 0 3 0 3 3 0 3"></polygon>
                    <polygon id="Path-17-Copy" points="-7.10542736e-15 82.5 3 82.5 3 85.5 0 85.5"></polygon>
                    <line x1="14.5" y1="0.5" x2="14.5" y2="85.5" id="Line-4" stroke-width="2" stroke-linecap="square"></line>
                    <line x1="1.5" y1="3.55916116" x2="1.5" y2="81.7973129" id="Line-3" stroke-width="2" stroke-linecap="square"></line>
                </g>
            </g>
            <g id="Window/Ext" transform="translate(180.500000, 1925.750000) rotate(-90.000000) translate(-180.500000, -1925.750000) translate(173.000000, 1882.750000)">
                <g id="Window">
                    <polygon id="Path-17" points="-7.10542736e-15 0 3 0 3 3 0 3"></polygon>
                    <polygon id="Path-17-Copy" points="-7.10542736e-15 82.5 3 82.5 3 85.5 0 85.5"></polygon>
                    <line x1="14.5" y1="0.5" x2="14.5" y2="85.5" id="Line-4" stroke-width="2" stroke-linecap="square"></line>
                    <line x1="1.5" y1="3.55916116" x2="1.5" y2="81.7973129" id="Line-3" stroke-width="2" stroke-linecap="square"></line>
                </g>
            </g>
            <g id="Window/Ext" transform="translate(409.500000, 1925.750000) rotate(-90.000000) translate(-409.500000, -1925.750000) translate(402.000000, 1882.750000)">
                <g id="Window">
                    <polygon id="Path-17" points="-7.10542736e-15 0 3 0 3 3 0 3"></polygon>
                    <polygon id="Path-17-Copy" points="-7.10542736e-15 82.5 3 82.5 3 85.5 0 85.5"></polygon>
                    <line x1="14.5" y1="0.5" x2="14.5" y2="85.5" id="Line-4" stroke-width="2" stroke-linecap="square"></line>
                    <line x1="1.5" y1="3.55916116" x2="1.5" y2="81.7973129" id="Line-3" stroke-width="2" stroke-linecap="square"></line>
                </g>
            </g>
            <g id="Window/Ext" transform="translate(666.500000, 1925.750000) rotate(-90.000000) translate(-666.500000, -1925.750000) translate(659.000000, 1882.750000)">
                <g id="Window">
                    <polygon id="Path-17" points="-7.10542736e-15 0 3 0 3 3 0 3"></polygon>
                    <polygon id="Path-17-Copy" points="-7.10542736e-15 82.5 3 82.5 3 85.5 0 85.5"></polygon>
                    <line x1="14.5" y1="0.5" x2="14.5" y2="85.5" id="Line-4" stroke-width="2" stroke-linecap="square"></line>
                    <line x1="1.5" y1="3.55916116" x2="1.5" y2="81.7973129" id="Line-3" stroke-width="2" stroke-linecap="square"></line>
                </g>
            </g>
            <g id="Window/Ext" transform="translate(2609.500000, 1821.750000) rotate(-180.000000) translate(-2609.500000, -1821.750000) translate(2602.000000, 1778.750000)">
                <g id="Window">
                    <polygon id="Path-17" points="-7.10542736e-15 0 3 0 3 3 0 3"></polygon>
                    <polygon id="Path-17-Copy" points="-7.10542736e-15 82.5 3 82.5 3 85.5 0 85.5"></polygon>
                    <line x1="14.5" y1="0.5" x2="14.5" y2="85.5" id="Line-4" stroke-width="2" stroke-linecap="square"></line>
                    <line x1="1.5" y1="3.55916116" x2="1.5" y2="81.7973129" id="Line-3" stroke-width="2" stroke-linecap="square"></line>
                </g>
            </g>
            <g id="Window/Ext" transform="translate(2609.500000, 1450.750000) rotate(-180.000000) translate(-2609.500000, -1450.750000) translate(2602.000000, 1407.750000)">
                <g id="Window">
                    <polygon id="Path-17" points="-7.10542736e-15 0 3 0 3 3 0 3"></polygon>
                    <polygon id="Path-17-Copy" points="-7.10542736e-15 82.5 3 82.5 3 85.5 0 85.5"></polygon>
                    <line x1="14.5" y1="0.5" x2="14.5" y2="85.5" id="Line-4" stroke-width="2" stroke-linecap="square"></line>
                    <line x1="1.5" y1="3.55916116" x2="1.5" y2="81.7973129" id="Line-3" stroke-width="2" stroke-linecap="square"></line>
                </g>
            </g>
            <g id="Window/Ext" transform="translate(2609.500000, 1084.000000) rotate(-180.000000) translate(-2609.500000, -1084.000000) translate(2602.000000, 1040.250000)">
                <g id="Window">
                    <polygon id="Path-17" points="-7.10542736e-15 0 3 0 3 3 0 3"></polygon>
                    <polygon id="Path-17-Copy" points="-7.10542736e-15 84 3 84 3 87 0 87"></polygon>
                    <line x1="14.5" y1="0.50872093" x2="14.5" y2="86.9912791" id="Line-4" stroke-width="2" stroke-linecap="square"></line>
                    <line x1="1.5" y1="3.56977815" x2="1.5" y2="83.2934644" id="Line-3" stroke-width="2" stroke-linecap="square"></line>
                </g>
            </g>
            <g id="Window/Ext" transform="translate(2609.500000, 707.750000) rotate(-180.000000) translate(-2609.500000, -707.750000) translate(2602.000000, 664.750000)">
                <g id="Window">
                    <polygon id="Path-17" points="-7.10542736e-15 0 3 0 3 3 0 3"></polygon>
                    <polygon id="Path-17-Copy" points="-7.10542736e-15 82.5 3 82.5 3 85.5 0 85.5"></polygon>
                    <line x1="14.5" y1="0.5" x2="14.5" y2="85.5" id="Line-4" stroke-width="2" stroke-linecap="square"></line>
                    <line x1="1.5" y1="3.55916116" x2="1.5" y2="81.7973129" id="Line-3" stroke-width="2" stroke-linecap="square"></line>
                </g>
            </g>
            <g id="Window/Ext" transform="translate(2609.500000, 1643.750000) rotate(-180.000000) translate(-2609.500000, -1643.750000) translate(2602.000000, 1600.750000)">
                <g id="Window">
                    <polygon id="Path-17" points="-7.10542736e-15 0 3 0 3 3 0 3"></polygon>
                    <polygon id="Path-17-Copy" points="-7.10542736e-15 82.5 3 82.5 3 85.5 0 85.5"></polygon>
                    <line x1="14.5" y1="0.5" x2="14.5" y2="85.5" id="Line-4" stroke-width="2" stroke-linecap="square"></line>
                    <line x1="1.5" y1="3.55916116" x2="1.5" y2="81.7973129" id="Line-3" stroke-width="2" stroke-linecap="square"></line>
                </g>
            </g>
            <g id="Window/Ext" transform="translate(2609.500000, 1266.750000) rotate(-180.000000) translate(-2609.500000, -1266.750000) translate(2602.000000, 1223.750000)">
                <g id="Window">
                    <polygon id="Path-17" points="-7.10542736e-15 0 3 0 3 3 0 3"></polygon>
                    <polygon id="Path-17-Copy" points="-7.10542736e-15 82.5 3 82.5 3 85.5 0 85.5"></polygon>
                    <line x1="14.5" y1="0.5" x2="14.5" y2="85.5" id="Line-4" stroke-width="2" stroke-linecap="square"></line>
                    <line x1="1.5" y1="3.55916116" x2="1.5" y2="81.7973129" id="Line-3" stroke-width="2" stroke-linecap="square"></line>
                </g>
            </g>
            <g id="Window/Ext" transform="translate(2609.500000, 890.000000) rotate(-180.000000) translate(-2609.500000, -890.000000) translate(2602.000000, 846.250000)">
                <g id="Window">
                    <polygon id="Path-17" points="-7.10542736e-15 0 3 0 3 3 0 3"></polygon>
                    <polygon id="Path-17-Copy" points="-7.10542736e-15 84 3 84 3 87 0 87"></polygon>
                    <line x1="14.5" y1="0.50872093" x2="14.5" y2="86.9912791" id="Line-4" stroke-width="2" stroke-linecap="square"></line>
                    <line x1="1.5" y1="3.56977815" x2="1.5" y2="83.2934644" id="Line-3" stroke-width="2" stroke-linecap="square"></line>
                </g>
            </g>
            <g id="Window/Ext" transform="translate(2609.500000, 526.250000) rotate(-180.000000) translate(-2609.500000, -526.250000) translate(2602.000000, 483.250000)">
                <g id="Window">
                    <polygon id="Path-17" points="-7.10542736e-15 0 3 0 3 3 0 3"></polygon>
                    <polygon id="Path-17-Copy" points="-7.10542736e-15 82.5 3 82.5 3 85.5 0 85.5"></polygon>
                    <line x1="14.5" y1="0.5" x2="14.5" y2="85.5" id="Line-4" stroke-width="2" stroke-linecap="square"></line>
                    <line x1="1.5" y1="3.55916116" x2="1.5" y2="81.7973129" id="Line-3" stroke-width="2" stroke-linecap="square"></line>
                </g>
            </g>
            <g id="Window/Ext" transform="translate(2609.500000, 335.750000) rotate(-180.000000) translate(-2609.500000, -335.750000) translate(2602.000000, 292.750000)">
                <g id="Window">
                    <polygon id="Path-17" points="-7.10542736e-15 0 3 0 3 3 0 3"></polygon>
                    <polygon id="Path-17-Copy" points="-7.10542736e-15 82.5 3 82.5 3 85.5 0 85.5"></polygon>
                    <line x1="14.5" y1="0.5" x2="14.5" y2="85.5" id="Line-4" stroke-width="2" stroke-linecap="square"></line>
                    <line x1="1.5" y1="3.55916116" x2="1.5" y2="81.7973129" id="Line-3" stroke-width="2" stroke-linecap="square"></line>
                </g>
            </g>
            <g id="Window/Ext" transform="translate(2609.500000, 152.750000) rotate(-180.000000) translate(-2609.500000, -152.750000) translate(2602.000000, 109.750000)">
                <g id="Window">
                    <polygon id="Path-17" points="-7.10542736e-15 0 3 0 3 3 0 3"></polygon>
                    <polygon id="Path-17-Copy" points="-7.10542736e-15 82.5 3 82.5 3 85.5 0 85.5"></polygon>
                    <line x1="14.5" y1="0.5" x2="14.5" y2="85.5" id="Line-4" stroke-width="2" stroke-linecap="square"></line>
                    <line x1="1.5" y1="3.55916116" x2="1.5" y2="81.7973129" id="Line-3" stroke-width="2" stroke-linecap="square"></line>
                </g>
            </g>
            <g id="Window/Ext" transform="translate(2347.250000, 22.750000) rotate(-270.000000) translate(-2347.250000, -22.750000) translate(2339.750000, -20.500000)">
                <g id="Window">
                    <polygon id="Path-17" points="-7.10542736e-15 0 3 0 3 3 0 3"></polygon>
                    <polygon id="Path-17-Copy" points="-7.10542736e-15 83 3 83 3 86 0 86"></polygon>
                    <line x1="14.5" y1="0.502906977" x2="14.5" y2="85.997093" id="Line-4" stroke-width="2" stroke-linecap="square"></line>
                    <line x1="1.5" y1="3.56270016" x2="1.5" y2="82.2960301" id="Line-3" stroke-width="2" stroke-linecap="square"></line>
                </g>
            </g>
            <g id="Window/Ext" transform="translate(1685.250000, 22.750000) rotate(-270.000000) translate(-1685.250000, -22.750000) translate(1677.750000, -20.500000)">
                <g id="Window">
                    <polygon id="Path-17" points="-7.10542736e-15 0 3 0 3 3 0 3"></polygon>
                    <polygon id="Path-17-Copy" points="-7.10542736e-15 83 3 83 3 86 0 86"></polygon>
                    <line x1="14.5" y1="0.502906977" x2="14.5" y2="85.997093" id="Line-4" stroke-width="2" stroke-linecap="square"></line>
                    <line x1="1.5" y1="3.56270016" x2="1.5" y2="82.2960301" id="Line-3" stroke-width="2" stroke-linecap="square"></line>
                </g>
            </g>
            <g id="Window/Ext" transform="translate(1490.750000, 139.500000) rotate(-270.000000) translate(-1490.750000, -139.500000) translate(1485.750000, 53.500000)">
                <g id="Window">
                    <polygon id="Path-17" points="-0.5 0 2.5 0 2.5 3 -0.5 3"></polygon>
                    <polygon id="Path-17-Copy" points="-0.5 168.5 2.5 168.5 2.5 171.5 -0.5 171.5"></polygon>
                    <line x1="9.66666667" y1="1" x2="9.66666667" y2="171" id="Line-4" stroke-width="2" stroke-linecap="square"></line>
                    <line x1="1" y1="4.16786825" x2="1" y2="167.576666" id="Line-3" stroke-width="2" stroke-linecap="square"></line>
                </g>
            </g>
            <g id="Window/Ext" transform="translate(1491.000000, 140.750000) rotate(-270.000000) translate(-1491.000000, -140.750000) translate(1490.000000, 54.750000)">
                <g id="Window">
                    <polygon id="Path-17" points="-1.2 0 1.8 0 1.8 3 -1.2 3"></polygon>
                    <polygon id="Path-17-Copy" points="-1.2 168.5 1.8 168.5 1.8 171.5 -1.2 171.5"></polygon>
                    <line x1="2.9" y1="1" x2="2.9" y2="171" id="Line-4" stroke-width="2" stroke-linecap="square"></line>
                    <line x1="0.3" y1="4.16786825" x2="0.3" y2="167.576666" id="Line-3" stroke-width="2" stroke-linecap="square"></line>
                </g>
            </g>
            <g id="Group-6" transform="translate(1028.000000, 137.750000)">
                <g id="Window/Ext" transform="translate(86.000000, 6.000000) rotate(-270.000000) translate(-86.000000, -6.000000) translate(84.000000, -80.000000)">
                    <g id="Window">
                        <polygon id="Path-17" points="-1.1 0 1.9 0 1.9 3 -1.1 3"></polygon>
                        <polygon id="Path-17-Copy" points="-1.1 168.5 1.9 168.5 1.9 171.5 -1.1 171.5"></polygon>
                        <line x1="3.86666667" y1="1" x2="3.86666667" y2="171" id="Line-4" stroke-width="2" stroke-linecap="square"></line>
                        <line x1="0.4" y1="4.16786825" x2="0.4" y2="167.576666" id="Line-3" stroke-width="2" stroke-linecap="square"></line>
                    </g>
                </g>
                <g id="Window/Ext" transform="translate(86.000000, 2.000000) scale(1, -1) rotate(-270.000000) translate(-86.000000, -2.000000) translate(84.000000, -84.000000)">
                    <g id="Window">
                        <polygon id="Path-17" points="-1.1 0 1.9 0 1.9 3 -1.1 3"></polygon>
                        <polygon id="Path-17-Copy" points="-1.1 168.5 1.9 168.5 1.9 171.5 -1.1 171.5"></polygon>
                        <line x1="3.86666667" y1="1" x2="3.86666667" y2="171" id="Line-4" stroke-width="2" stroke-linecap="square"></line>
                        <line x1="0.4" y1="4.16786825" x2="0.4" y2="167.576666" id="Line-3" stroke-width="2" stroke-linecap="square"></line>
                    </g>
                </g>
            </g>
            <g id="Window/Ext" transform="translate(906.500000, 8.250000) rotate(-270.000000) translate(-906.500000, -8.250000) translate(899.000000, -35.000000)">
                <g id="Window">
                    <polygon id="Path-17" points="-7.10542736e-15 0 3 0 3 3 0 3"></polygon>
                    <polygon id="Path-17-Copy" points="-7.10542736e-15 83 3 83 3 86 0 86"></polygon>
                    <line x1="14.5" y1="0.502906977" x2="14.5" y2="85.997093" id="Line-4" stroke-width="2" stroke-linecap="square"></line>
                    <line x1="1.5" y1="3.56270016" x2="1.5" y2="82.2960301" id="Line-3" stroke-width="2" stroke-linecap="square"></line>
                </g>
            </g>
            <g id="Window/Ext" transform="translate(742.500000, 8.250000) rotate(-270.000000) translate(-742.500000, -8.250000) translate(735.000000, -35.000000)">
                <g id="Window">
                    <polygon id="Path-17" points="-7.10542736e-15 0 3 0 3 3 0 3"></polygon>
                    <polygon id="Path-17-Copy" points="-7.10542736e-15 83 3 83 3 86 0 86"></polygon>
                    <line x1="14.5" y1="0.502906977" x2="14.5" y2="85.997093" id="Line-4" stroke-width="2" stroke-linecap="square"></line>
                    <line x1="1.5" y1="3.56270016" x2="1.5" y2="82.2960301" id="Line-3" stroke-width="2" stroke-linecap="square"></line>
                </g>
            </g>
            <g id="Window/Ext" transform="translate(2510.000000, 22.750000) rotate(-270.000000) translate(-2510.000000, -22.750000) translate(2502.500000, -20.500000)">
                <g id="Window">
                    <polygon id="Path-17" points="-7.10542736e-15 0 3 0 3 3 0 3"></polygon>
                    <polygon id="Path-17-Copy" points="-7.10542736e-15 83 3 83 3 86 0 86"></polygon>
                    <line x1="14.5" y1="0.502906977" x2="14.5" y2="85.997093" id="Line-4" stroke-width="2" stroke-linecap="square"></line>
                    <line x1="1.5" y1="3.56270016" x2="1.5" y2="82.2960301" id="Line-3" stroke-width="2" stroke-linecap="square"></line>
                </g>
            </g>
            <g id="Window/Ext" transform="translate(1848.000000, 22.750000) rotate(-270.000000) translate(-1848.000000, -22.750000) translate(1840.500000, -20.500000)">
                <g id="Window">
                    <polygon id="Path-17" points="-7.10542736e-15 0 3 0 3 3 0 3"></polygon>
                    <polygon id="Path-17-Copy" points="-7.10542736e-15 83 3 83 3 86 0 86"></polygon>
                    <line x1="14.5" y1="0.502906977" x2="14.5" y2="85.997093" id="Line-4" stroke-width="2" stroke-linecap="square"></line>
                    <line x1="1.5" y1="3.56270016" x2="1.5" y2="82.2960301" id="Line-3" stroke-width="2" stroke-linecap="square"></line>
                </g>
            </g>
            <g id="Window/Ext" transform="translate(0.000000, 846.750000)">
                <g id="Window">
                    <polygon id="Path-17" points="-7.10542736e-15 0 3 0 3 3 0 3"></polygon>
                    <polygon id="Path-17-Copy" points="-7.10542736e-15 82.5 3 82.5 3 85.5 0 85.5"></polygon>
                    <line x1="14.5" y1="0.5" x2="14.5" y2="85.5" id="Line-4" stroke-width="2" stroke-linecap="square"></line>
                    <line x1="1.5" y1="3.55916116" x2="1.5" y2="81.7973129" id="Line-3" stroke-width="2" stroke-linecap="square"></line>
                </g>
            </g>
            <g id="Window/Ext" transform="translate(0.000000, 483.250000)">
                <g id="Window">
                    <polygon id="Path-17" points="-7.10542736e-15 0 3 0 3 3 0 3"></polygon>
                    <polygon id="Path-17-Copy" points="-7.10542736e-15 83 3 83 3 86 0 86"></polygon>
                    <line x1="14.5" y1="0.502906977" x2="14.5" y2="85.997093" id="Line-4" stroke-width="2" stroke-linecap="square"></line>
                    <line x1="1.5" y1="3.56270016" x2="1.5" y2="82.2960301" id="Line-3" stroke-width="2" stroke-linecap="square"></line>
                </g>
            </g>
            <g id="Window/Ext" transform="translate(0.000000, 1042.750000)">
                <g id="Window">
                    <polygon id="Path-17" points="-7.10542736e-15 0 3 0 3 3 0 3"></polygon>
                    <polygon id="Path-17-Copy" points="-7.10542736e-15 82.5 3 82.5 3 85.5 0 85.5"></polygon>
                    <line x1="14.5" y1="0.5" x2="14.5" y2="85.5" id="Line-4" stroke-width="2" stroke-linecap="square"></line>
                    <line x1="1.5" y1="3.55916116" x2="1.5" y2="81.7973129" id="Line-3" stroke-width="2" stroke-linecap="square"></line>
                </g>
            </g>
            <g id="Window/Ext" transform="translate(0.000000, 1396.750000)">
                <g id="Window">
                    <polygon id="Path-17" points="-7.10542736e-15 0 3 0 3 3 0 3"></polygon>
                    <polygon id="Path-17-Copy" points="-7.10542736e-15 82.5 3 82.5 3 85.5 0 85.5"></polygon>
                    <line x1="14.5" y1="0.5" x2="14.5" y2="85.5" id="Line-4" stroke-width="2" stroke-linecap="square"></line>
                    <line x1="1.5" y1="3.55916116" x2="1.5" y2="81.7973129" id="Line-3" stroke-width="2" stroke-linecap="square"></line>
                </g>
            </g>
            <g id="Window/Ext" transform="translate(0.000000, 664.750000)">
                <g id="Window">
                    <polygon id="Path-17" points="-7.10542736e-15 0 3 0 3 3 0 3"></polygon>
                    <polygon id="Path-17-Copy" points="-7.10542736e-15 82.5 3 82.5 3 85.5 0 85.5"></polygon>
                    <line x1="14.5" y1="0.5" x2="14.5" y2="85.5" id="Line-4" stroke-width="2" stroke-linecap="square"></line>
                    <line x1="1.5" y1="3.55916116" x2="1.5" y2="81.7973129" id="Line-3" stroke-width="2" stroke-linecap="square"></line>
                </g>
            </g>
            <g id="Window/Ext" transform="translate(0.000000, 270.750000)">
                <g id="Window">
                    <polygon id="Path-17" points="-7.10542736e-15 0 3 0 3 3 0 3"></polygon>
                    <polygon id="Path-17-Copy" points="-7.10542736e-15 83.5 3 83.5 3 86.5 0 86.5"></polygon>
                    <line x1="14.5" y1="0.505813953" x2="14.5" y2="86.494186" id="Line-4" stroke-width="2" stroke-linecap="square"></line>
                    <line x1="1.5" y1="3.56623915" x2="1.5" y2="82.7947473" id="Line-3" stroke-width="2" stroke-linecap="square"></line>
                </g>
            </g>
            <g id="Window/Ext" transform="translate(0.000000, 98.750000)">
                <g id="Window">
                    <polygon id="Path-17" points="-7.10542736e-15 0 3 0 3 3 0 3"></polygon>
                    <polygon id="Path-17-Copy" points="-7.10542736e-15 83.5 3 83.5 3 86.5 0 86.5"></polygon>
                    <line x1="14.5" y1="0.505813953" x2="14.5" y2="86.494186" id="Line-4" stroke-width="2" stroke-linecap="square"></line>
                    <line x1="1.5" y1="3.56623915" x2="1.5" y2="82.7947473" id="Line-3" stroke-width="2" stroke-linecap="square"></line>
                </g>
            </g>
        </g>
        <g id="Int-Windows" transform="translate(414.000000, 136.000000)">
            <g id="Window/Int" transform="translate(646.909076, 594.943660) rotate(-180.000000) translate(-646.909076, -594.943660) translate(644.527738, 540.443660)" stroke="#272C37">
                <g id="Window">
                    <polygon id="Path-17" points="0.881337476 0 3.88133748 0 3.88133748 3 0.881337476 3"></polygon>
                    <polygon id="Path-17-Copy" points="0.881337476 105.5 3.88133748 105.5 3.88133748 108.5 0.881337476 108.5"></polygon>
                    <line x1="2.38133748" y1="3.72195492" x2="2.38133748" y2="104.931307" id="Line-3" stroke-width="2" stroke-linecap="square"></line>
                </g>
            </g>
            <g id="Window/Int" transform="translate(465.290413, 473.943660) rotate(90.000000) translate(-465.290413, -473.943660) translate(462.909076, 462.943660)" stroke="#272C37">
                <g id="Window">
                    <polygon id="Path-17" points="0.881337476 0 3.88133748 0 3.88133748 3 0.881337476 3"></polygon>
                    <polygon id="Path-17-Copy" points="0.881337476 18.5 3.88133748 18.5 3.88133748 21.5 0.881337476 21.5"></polygon>
                    <line x1="2.38133748" y1="3.10616984" x2="2.38133748" y2="17.9898982" id="Line-3" stroke-width="2" stroke-linecap="square"></line>
                </g>
            </g>
            <g id="Window/Int" transform="translate(522.790413, 1451.943660) rotate(90.000000) translate(-522.790413, -1451.943660) translate(520.409076, 1423.443660)" stroke="#272C37">
                <g id="Window">
                    <polygon id="Path-17" points="0.881337476 0 3.88133748 0 3.88133748 3 0.881337476 3"></polygon>
                    <polygon id="Path-17-Copy" points="0.881337476 53.5 3.88133748 53.5 3.88133748 56.5 0.881337476 56.5"></polygon>
                    <line x1="2.38133748" y1="3.35389947" x2="2.38133748" y2="52.9663272" id="Line-3" stroke-width="2" stroke-linecap="square"></line>
                </g>
            </g>
            <g id="Window/Int" transform="translate(290.790413, 319.443660) rotate(90.000000) translate(-290.790413, -319.443660) translate(288.409076, 308.443660)" stroke="#272C37">
                <g id="Window">
                    <polygon id="Path-17" points="0.881337476 0 3.88133748 0 3.88133748 3 0.881337476 3"></polygon>
                    <polygon id="Path-17-Copy" points="0.881337476 18.5 3.88133748 18.5 3.88133748 21.5 0.881337476 21.5"></polygon>
                    <line x1="2.38133748" y1="3.10616984" x2="2.38133748" y2="17.9898982" id="Line-3" stroke-width="2" stroke-linecap="square"></line>
                </g>
            </g>
            <g id="Window/Int" transform="translate(418.790413, 173.443660) rotate(90.000000) translate(-418.790413, -173.443660) translate(416.409076, 162.443660)" stroke="#272C37">
                <g id="Window">
                    <polygon id="Path-17" points="0.881337476 0 3.88133748 0 3.88133748 3 0.881337476 3"></polygon>
                    <polygon id="Path-17-Copy" points="0.881337476 18.5 3.88133748 18.5 3.88133748 21.5 0.881337476 21.5"></polygon>
                    <line x1="2.38133748" y1="3.10616984" x2="2.38133748" y2="17.9898982" id="Line-3" stroke-width="2" stroke-linecap="square"></line>
                </g>
            </g>
            <g id="Window/Int" transform="translate(91.381337, 153.000000) rotate(90.000000) translate(-91.381337, -153.000000) translate(89.000000, 142.000000)" stroke="#272C37">
                <g id="Window">
                    <polygon id="Path-17" points="0.881337476 0 3.88133748 0 3.88133748 3 0.881337476 3"></polygon>
                    <polygon id="Path-17-Copy" points="0.881337476 18.5 3.88133748 18.5 3.88133748 21.5 0.881337476 21.5"></polygon>
                    <line x1="2.38133748" y1="3.10616984" x2="2.38133748" y2="17.9898982" id="Line-3" stroke-width="2" stroke-linecap="square"></line>
                </g>
            </g>
            <g id="Window/Int" transform="translate(-0.000000, 213.000000)" stroke="#272C37">
                <g id="Window">
                    <polygon id="Path-17" points="0.881337476 0 3.88133748 0 3.88133748 3 0.881337476 3"></polygon>
                    <polygon id="Path-17-Copy" points="0.881337476 18.5 3.88133748 18.5 3.88133748 21.5 0.881337476 21.5"></polygon>
                    <line x1="2.38133748" y1="3.10616984" x2="2.38133748" y2="17.9898982" id="Line-3" stroke-width="2" stroke-linecap="square"></line>
                </g>
            </g>
            <g id="Window/Int" transform="translate(645.409076, 734.443660)" stroke="#272C37">
                <g id="Window">
                    <polygon id="Path-17" points="-7.10542736e-15 0 3 0 3 3 0 3"></polygon>
                    <polygon id="Path-17-Copy" points="-7.10542736e-15 103.5 3 103.5 3 106.5 0 106.5"></polygon>
                    <line x1="1.5" y1="3.70779894" x2="1.5" y2="102.932654" id="Line-3" stroke-width="2" stroke-linecap="square"></line>
                </g>
            </g>
            <g id="Window/Int" transform="translate(1644.172145, 1.943660) rotate(-90.000000) translate(-1644.172145, -1.943660) translate(1642.672145, -26.819409)" stroke="#272C37">
                <g id="Window">
                    <polygon id="Path-17" points="-7.10542736e-15 0 3 0 3 3 0 3"></polygon>
                    <polygon id="Path-17-Copy" points="-7.10542736e-15 54.0261375 3 54.0261375 3 57.0261375 0 57.0261375"></polygon>
                    <line x1="1.5" y1="3.35762347" x2="1.5" y2="53.4921104" id="Line-3" stroke-width="2" stroke-linecap="square"></line>
                </g>
            </g>
            <g id="Window/Int" transform="translate(1698.801144, 4.943660) rotate(-90.000000) translate(-1698.801144, -4.943660) translate(1697.301144, -24.349938)" stroke="#272C37">
                <g id="Window">
                    <polygon id="Path-17" points="-7.10542736e-15 0 3 0 3 3 0 3"></polygon>
                    <polygon id="Path-17-Copy" points="-7.10542736e-15 55.087196 3 55.087196 3 58.087196 0 58.087196"></polygon>
                    <line x1="1.5" y1="3.36513363" x2="1.5" y2="54.5524542" id="Line-3" stroke-width="2" stroke-linecap="square"></line>
                </g>
            </g>
            <g id="Window/Int" transform="translate(1757.388340, 4.943660) rotate(-90.000000) translate(-1757.388340, -4.943660) translate(1755.888340, -24.349938)" stroke="#272C37">
                <g id="Window">
                    <polygon id="Path-17" points="-7.10542736e-15 0 3 0 3 3 0 3"></polygon>
                    <polygon id="Path-17-Copy" points="-7.10542736e-15 55.087196 3 55.087196 3 58.087196 0 58.087196"></polygon>
                    <line x1="1.5" y1="3.36513363" x2="1.5" y2="54.5524542" id="Line-3" stroke-width="2" stroke-linecap="square"></line>
                </g>
            </g>
            <g id="Window/Int" transform="translate(1811.440396, 1.943660) rotate(-90.000000) translate(-1811.440396, -1.943660) translate(1809.940396, -26.403893)" stroke="#272C37">
                <g id="Window">
                    <polygon id="Path-17" points="-7.10542736e-15 0 3 0 3 3 0 3"></polygon>
                    <polygon id="Path-17-Copy" points="-7.10542736e-15 53.1951052 3 53.1951052 3 56.1951052 0 56.1951052"></polygon>
                    <line x1="1.5" y1="3.35174143" x2="1.5" y2="52.6616377" id="Line-3" stroke-width="2" stroke-linecap="square"></line>
                </g>
            </g>
            <polygon id="Path" stroke="#000000" stroke-width="3" points="75.1289062 150.618663 80.3813375 150.618663 80.3813375 161.069336 75.1289062 161.069336"></polygon>
        </g>
        <g id="Doors" transform="translate(351.000000, 230.000000)">
            <g id="Door/-Solid" transform="translate(1208.000000, 763.000000)" stroke="#272C37">
                <line x1="62.5" y1="0.5" x2="0.5" y2="0.5" id="Line-3" stroke-width="3" stroke-linecap="square"></line>
                <path d="M1,1 C4.33333333,41.6666667 25,62.3333333 63,63" id="Path-17" stroke-width="1"></path>
            </g>
            <g id="Door/-Solid" transform="translate(754.500000, 797.500000) scale(-1, 1) translate(-754.500000, -797.500000) translate(723.000000, 766.000000)" stroke="#272C37">
                <line x1="62.5" y1="0.5" x2="0.5" y2="0.5" id="Line-3" stroke-width="3" stroke-linecap="square"></line>
                <path d="M1,1 C4.33333333,41.6666667 25,62.3333333 63,63" id="Path-17" stroke-width="1"></path>
            </g>
            <g id="Door/-Solid" transform="translate(1296.000000, 1213.000000)" stroke="#272C37">
                <line x1="62.5" y1="0.5" x2="0.5" y2="0.5" id="Line-3" stroke-width="3" stroke-linecap="square"></line>
                <path d="M1,1 C4.33333333,41.6666667 25,62.3333333 63,63" id="Path-17" stroke-width="1"></path>
            </g>
            <g id="Door/-Solid" transform="translate(1327.500000, 1308.500000) scale(1, -1) translate(-1327.500000, -1308.500000) translate(1296.000000, 1277.000000)" stroke="#272C37">
                <line x1="62.5" y1="0.5" x2="0.5" y2="0.5" id="Line-3" stroke-width="3" stroke-linecap="square"></line>
                <path d="M1,1 C4.33333333,41.6666667 25,62.3333333 63,63" id="Path-17" stroke-width="1"></path>
            </g>
            <g id="Door/-Solid" transform="translate(1185.000000, 1541.000000)" stroke="#272C37">
                <line x1="58.0357143" y1="0.432539683" x2="0.464285714" y2="0.432539683" id="Line-3" stroke-width="3" stroke-linecap="square"></line>
                <path d="M0.928571429,0.865079365 C4.02380952,36.0449735 23.2142857,53.9232804 58.5,54.5" id="Path-17" stroke-width="1"></path>
            </g>
            <g id="Door/-Solid" transform="translate(743.250000, 1584.250000) scale(1, -1) translate(-743.250000, -1584.250000) translate(714.000000, 1557.000000)" stroke="#272C37">
                <line x1="58.0357143" y1="0.432539683" x2="0.464285714" y2="0.432539683" id="Line-3" stroke-width="3" stroke-linecap="square"></line>
                <path d="M0.928571429,0.865079365 C4.02380952,36.0449735 23.2142857,53.9232804 58.5,54.5" id="Path-17" stroke-width="1"></path>
            </g>
            <g id="Door/-Solid" transform="translate(826.250000, 1400.250000) scale(-1, -1) translate(-826.250000, -1400.250000) translate(797.000000, 1371.000000)" stroke="#272C37">
                <line x1="58.0357143" y1="0.464285714" x2="0.464285714" y2="0.464285714" id="Line-3" stroke-width="3" stroke-linecap="square"></line>
                <path d="M0.928571429,0.928571429 C4.02380952,38.6904762 23.2142857,57.8809524 58.5,58.5" id="Path-17" stroke-width="1"></path>
            </g>
            <g id="Door/-Solid" transform="translate(840.500000, 1496.500000) scale(-1, -1) rotate(90.000000) translate(-840.500000, -1496.500000) translate(809.000000, 1465.000000)" stroke="#272C37">
                <line x1="62.5" y1="0.5" x2="0.5" y2="0.5" id="Line-3" stroke-width="3" stroke-linecap="square"></line>
                <path d="M1,1 C4.33333333,41.6666667 25,62.3333333 63,63" id="Path-17" stroke-width="1"></path>
            </g>
            <g id="Door/-Solid" transform="translate(1146.500000, 1496.500000) scale(1, -1) rotate(90.000000) translate(-1146.500000, -1496.500000) translate(1115.000000, 1465.000000)" stroke="#272C37">
                <line x1="62.5" y1="0.5" x2="0.5" y2="0.5" id="Line-3" stroke-width="3" stroke-linecap="square"></line>
                <path d="M1,1 C4.33333333,41.6666667 25,62.3333333 63,63" id="Path-17" stroke-width="1"></path>
            </g>
            <g id="Door/-Solid" transform="translate(581.000000, 1483.500000) scale(1, -1) rotate(90.000000) translate(-581.000000, -1483.500000) translate(552.500000, 1455.500000)" stroke="#272C37">
                <line x1="56.547619" y1="0.444444444" x2="0.452380952" y2="0.444444444" id="Line-3" stroke-width="3" stroke-linecap="square"></line>
                <path d="M0.904761905,0.888888889 C3.92063492,37.037037 22.6190476,55.4074074 57,56" id="Path-17" stroke-width="1"></path>
            </g>
            <g id="Door/-Solid" transform="translate(1185.000000, 1611.000000)" stroke="#272C37">
                <line x1="58.0357143" y1="0.432539683" x2="0.464285714" y2="0.432539683" id="Line-3" stroke-width="3" stroke-linecap="square"></line>
                <path d="M0.928571429,0.865079365 C4.02380952,36.0449735 23.2142857,53.9232804 58.5,54.5" id="Path-17" stroke-width="1"></path>
            </g>
            <g id="Door/-Solid" transform="translate(743.250000, 1646.250000) scale(1, -1) translate(-743.250000, -1646.250000) translate(714.000000, 1619.000000)" stroke="#272C37">
                <line x1="58.0357143" y1="0.432539683" x2="0.464285714" y2="0.432539683" id="Line-3" stroke-width="3" stroke-linecap="square"></line>
                <path d="M0.928571429,0.865079365 C4.02380952,36.0449735 23.2142857,53.9232804 58.5,54.5" id="Path-17" stroke-width="1"></path>
            </g>
            <g id="Door/-Solid" transform="translate(1214.000000, 395.000000)" stroke="#272C37">
                <line x1="56.547619" y1="0.428571429" x2="0.452380952" y2="0.428571429" id="Line-3" stroke-width="3" stroke-linecap="square"></line>
                <path d="M0.904761905,0.857142857 C3.92063492,35.7142857 22.6190476,53.4285714 57,54" id="Path-17" stroke-width="1"></path>
            </g>
            <g id="Door/-Solid" transform="translate(1291.000000, 248.000000)" stroke="#272C37">
                <line x1="62.5" y1="0.5" x2="0.5" y2="0.5" id="Line-3" stroke-width="3" stroke-linecap="square"></line>
                <path d="M1,1 C4.33333333,41.6666667 25,62.3333333 63,63" id="Path-17" stroke-width="1"></path>
            </g>
            <g id="Door/-Solid" transform="translate(655.500000, 266.500000) scale(-1, 1) translate(-655.500000, -266.500000) translate(624.000000, 235.000000)" stroke="#272C37">
                <line x1="62.5" y1="0.5" x2="0.5" y2="0.5" id="Line-3" stroke-width="3" stroke-linecap="square"></line>
                <path d="M1,1 C4.33333333,41.6666667 25,62.3333333 63,63" id="Path-17" stroke-width="1"></path>
            </g>
            <g id="Door/-Solid" transform="translate(315.500000, 259.000000) scale(1, -1) rotate(90.000000) translate(-315.500000, -259.000000) translate(287.500000, 231.500000)" stroke="#272C37">
                <line x1="55.5555556" y1="0.436507937" x2="0.444444444" y2="0.436507937" id="Line-3" stroke-width="3" stroke-linecap="square"></line>
                <path d="M0.888888889,0.873015873 C3.85185185,36.3756614 22.2222222,54.4179894 56,55" id="Path-17" stroke-width="1"></path>
            </g>
            <g id="Door/-Solid" transform="translate(260.000000, 259.000000) scale(-1, -1) rotate(90.000000) translate(-260.000000, -259.000000) translate(232.000000, 231.500000)" stroke="#272C37">
                <line x1="55.5555556" y1="0.436507937" x2="0.444444444" y2="0.436507937" id="Line-3" stroke-width="3" stroke-linecap="square"></line>
                <path d="M0.888888889,0.873015873 C3.85185185,36.3756614 22.2222222,54.4179894 56,55" id="Path-17" stroke-width="1"></path>
            </g>
            <g id="Door-Copy/-Glass" transform="translate(489.000000, 411.000000) scale(-1, -1) rotate(90.000000) translate(-489.000000, -411.000000) translate(461.500000, 383.500000)" stroke="#272C37">
                <path d="M0.436507937,0.436507937 C3.37002902,36.2254651 21.5578597,54.4132958 55,55" id="Path-17"></path>
                <line x1="54.5634921" y1="0.436507937" x2="0.436507937" y2="0.436507937" id="Line-3" stroke-linecap="square"></line>
                <line x1="54.5634921" y1="0.118879623" x2="54.5634921" y2="0.478366112" id="Line" stroke-linecap="square"></line>
                <line x1="54.5634921" y1="0.118879623" x2="54.5634921" y2="0.478366112" id="Line-Copy" stroke-linecap="square"></line>
                <line x1="54.5634921" y1="2.80422252" x2="1.10885876" y2="2.80422252" id="Line-3-Copy" stroke-linecap="square"></line>
            </g>
            <g id="Door-Copy/-Glass" transform="translate(400.000000, 28.500000) scale(-1, 1) rotate(90.000000) translate(-400.000000, -28.500000) translate(372.000000, 1.000000)" stroke="#272C37">
                <path d="M0.444444444,0.436507937 C3.43130227,36.2254651 21.9498208,54.4132958 56,55" id="Path-17"></path>
                <line x1="55.5555556" y1="0.436507937" x2="0.444444444" y2="0.436507937" id="Line-3" stroke-linecap="square"></line>
                <line x1="55.5555556" y1="0.118879623" x2="55.5555556" y2="0.478366112" id="Line" stroke-linecap="square"></line>
                <line x1="55.5555556" y1="0.118879623" x2="55.5555556" y2="0.478366112" id="Line-Copy" stroke-linecap="square"></line>
                <line x1="55.5555556" y1="2.80422252" x2="1.12901982" y2="2.80422252" id="Line-3-Copy" stroke-linecap="square"></line>
            </g>
            <g id="Door-Copy/-Glass" transform="translate(110.000000, 29.500000) scale(-1, 1) rotate(90.000000) translate(-110.000000, -29.500000) translate(83.000000, 4.000000)" stroke="#272C37">
                <path d="M0.428571429,0.404761905 C3.30875576,33.5908858 21.1658986,50.4559652 54,51" id="Path-17"></path>
                <line x1="53.5714286" y1="0.404761905" x2="0.428571429" y2="0.404761905" id="Line-3" stroke-linecap="square"></line>
                <line x1="53.5714286" y1="0.118879623" x2="53.5714286" y2="0.478366112" id="Line" stroke-linecap="square"></line>
                <line x1="53.5714286" y1="0.118879623" x2="53.5714286" y2="0.478366112" id="Line-Copy" stroke-linecap="square"></line>
                <line x1="53.5714286" y1="2.77123544" x2="1.08869769" y2="2.77123544" id="Line-3-Copy" stroke-linecap="square"></line>
            </g>
            <g id="Door-Copy/-Glass" transform="translate(31.500000, 170.000000) scale(1, -1) translate(-31.500000, -170.000000) translate(0.000000, 143.000000)" stroke="#272C37">
                <path d="M0.5,0.428571429 C3.86021505,35.5668203 24.6935484,53.4239631 63,54" id="Path-17"></path>
                <line x1="62.5" y1="0.428571429" x2="0.5" y2="0.428571429" id="Line-3" stroke-linecap="square"></line>
                <line x1="62.5" y1="0.118879623" x2="62.5" y2="0.478366112" id="Line" stroke-linecap="square"></line>
                <line x1="62.5" y1="0.118879623" x2="62.5" y2="0.478366112" id="Line-Copy" stroke-linecap="square"></line>
                <line x1="62.5" y1="2.79597575" x2="1.2701473" y2="2.79597575" id="Line-3-Copy" stroke-linecap="square"></line>
            </g>
            <g id="Door/-Solid" transform="translate(1322.500000, 342.500000) scale(1, -1) translate(-1322.500000, -342.500000) translate(1291.000000, 311.000000)" stroke="#272C37">
                <line x1="62.5" y1="0.5" x2="0.5" y2="0.5" id="Line-3" stroke-width="3" stroke-linecap="square"></line>
                <path d="M1,1 C4.33333333,41.6666667 25,62.3333333 63,63" id="Path-17" stroke-width="1"></path>
            </g>
            <g id="Door/-Solid" transform="translate(655.500000, 329.500000) scale(-1, -1) translate(-655.500000, -329.500000) translate(624.000000, 298.000000)" stroke="#272C37">
                <line x1="62.5" y1="0.5" x2="0.5" y2="0.5" id="Line-3" stroke-width="3" stroke-linecap="square"></line>
                <path d="M1,1 C4.33333333,41.6666667 25,62.3333333 63,63" id="Path-17" stroke-width="1"></path>
            </g>
            <g id="Door/-Solid" transform="translate(1413.000000, 85.000000) scale(-1, 1) rotate(90.000000) translate(-1413.000000, -85.000000) translate(1385.000000, 57.000000)" stroke="#272C37">
                <line x1="55.5555556" y1="0.444444444" x2="0.444444444" y2="0.444444444" id="Line-3" stroke-width="3" stroke-linecap="square"></line>
                <path d="M0.888888889,0.888888889 C3.85185185,37.037037 22.2222222,55.4074074 56,56" id="Path-17" stroke-width="1"></path>
            </g>
            <g id="Door/-Solid" transform="translate(1644.500000, 142.000000) scale(1, -1) translate(-1644.500000, -142.000000) translate(1613.000000, 113.000000)" stroke="#272C37">
                <line x1="62.5" y1="0.46031746" x2="0.5" y2="0.46031746" id="Line-3" stroke-width="3" stroke-linecap="square"></line>
                <path d="M1,0.920634921 C4.33333333,38.3597884 25,57.3862434 63,58" id="Path-17" stroke-width="1"></path>
            </g>
            <g id="Door-Copy/-Glass" transform="translate(1406.000000, 640.000000)" stroke="#272C37">
                <path d="M0.444444444,0.452380952 C3.43130227,37.5427547 21.9498208,56.3919611 56,57" id="Path-17"></path>
                <line x1="55.5555556" y1="0.452380952" x2="0.444444444" y2="0.452380952" id="Line-3" stroke-linecap="square"></line>
                <line x1="55.5555556" y1="0.118879623" x2="55.5555556" y2="0.478366112" id="Line" stroke-linecap="square"></line>
                <line x1="55.5555556" y1="0.118879623" x2="55.5555556" y2="0.478366112" id="Line-Copy" stroke-linecap="square"></line>
                <line x1="55.5555556" y1="2.82071606" x2="1.12901982" y2="2.82071606" id="Line-3-Copy" stroke-linecap="square"></line>
            </g>
            <g id="Door-Copy/-Glass" transform="translate(1566.250000, 843.500000) scale(1, -1) rotate(90.000000) translate(-1566.250000, -843.500000) translate(1537.500000, 812.500000)" stroke="#272C37">
                <path d="M0.456349206,0.492063492 C3.52321215,40.8359788 22.5377624,61.3386243 57.5,62" id="Path-17"></path>
                <line x1="57.0436508" y1="0.492063492" x2="0.456349206" y2="0.492063492" id="Line-3" stroke-linecap="square"></line>
                <line x1="57.0436508" y1="0.475518492" x2="57.0436508" y2="1.91346445" id="Line" stroke-linecap="square"></line>
                <line x1="57.0436508" y1="0.475518492" x2="57.0436508" y2="1.91346445" id="Line-Copy" stroke-linecap="square"></line>
                <line x1="57.0436508" y1="2.86194991" x2="1.15926143" y2="2.86194991" id="Line-3-Copy" stroke-linecap="square"></line>
            </g>
            <g id="Door-Copy/-Glass" transform="translate(1503.750000, 844.000000) scale(-1, -1) rotate(90.000000) translate(-1503.750000, -844.000000) translate(1475.000000, 813.000000)" stroke="#272C37">
                <path d="M0.456349206,0.492063492 C3.52321215,40.8359788 22.5377624,61.3386243 57.5,62" id="Path-17"></path>
                <line x1="57.0436508" y1="0.492063492" x2="0.456349206" y2="0.492063492" id="Line-3" stroke-linecap="square"></line>
                <line x1="57.0436508" y1="0.475518492" x2="57.0436508" y2="1.91346445" id="Line" stroke-linecap="square"></line>
                <line x1="57.0436508" y1="0.475518492" x2="57.0436508" y2="1.91346445" id="Line-Copy" stroke-linecap="square"></line>
                <line x1="57.0436508" y1="2.86194991" x2="1.15926143" y2="2.86194991" id="Line-3-Copy" stroke-linecap="square"></line>
            </g>
            <g id="Door-Copy/-Glass" transform="translate(1639.500000, 912.000000) scale(-1, 1) translate(-1639.500000, -912.000000) translate(1611.000000, 884.000000)" stroke="#272C37">
                <path d="M0.452380952,0.444444444 C3.49257552,36.8841099 22.3417819,55.4026284 57,56" id="Path-17"></path>
                <line x1="56.547619" y1="0.444444444" x2="0.452380952" y2="0.444444444" id="Line-3" stroke-linecap="square"></line>
                <line x1="56.547619" y1="0.118879623" x2="56.547619" y2="0.478366112" id="Line" stroke-linecap="square"></line>
                <line x1="56.547619" y1="0.118879623" x2="56.547619" y2="0.478366112" id="Line-Copy" stroke-linecap="square"></line>
                <line x1="56.547619" y1="2.81246929" x2="1.14918089" y2="2.81246929" id="Line-3-Copy" stroke-linecap="square"></line>
            </g>
            <g id="Door-Copy/-Glass" transform="translate(1644.500000, 1417.500000) scale(-1, -1) translate(-1644.500000, -1417.500000) translate(1613.000000, 1387.000000)" stroke="#272C37">
                <path d="M0.5,0.484126984 C3.86021505,40.177334 24.6935484,60.3492917 63,61" id="Path-17"></path>
                <line x1="62.5" y1="0.484126984" x2="0.5" y2="0.484126984" id="Line-3" stroke-linecap="square"></line>
                <line x1="62.5" y1="0.237759246" x2="62.5" y2="0.956732225" id="Line" stroke-linecap="square"></line>
                <line x1="62.5" y1="0.237759246" x2="62.5" y2="0.956732225" id="Line-Copy" stroke-linecap="square"></line>
                <line x1="62.5" y1="2.85370314" x2="1.2701473" y2="2.85370314" id="Line-3-Copy" stroke-linecap="square"></line>
            </g>
            <g id="Door-Copy/-Glass" transform="translate(1695.250000, 1323.250000) rotate(-270.000000) translate(-1695.250000, -1323.250000) translate(1663.750000, 1292.750000)" stroke="#272C37">
                <path d="M0.5,0.484126984 C3.86021505,40.177334 24.6935484,60.3492917 63,61" id="Path-17"></path>
                <line x1="62.5" y1="0.484126984" x2="0.5" y2="0.484126984" id="Line-3" stroke-linecap="square"></line>
                <line x1="62.5" y1="0.237759246" x2="62.5" y2="0.956732225" id="Line" stroke-linecap="square"></line>
                <line x1="62.5" y1="0.237759246" x2="62.5" y2="0.956732225" id="Line-Copy" stroke-linecap="square"></line>
                <line x1="62.5" y1="2.85370314" x2="1.2701473" y2="2.85370314" id="Line-3-Copy" stroke-linecap="square"></line>
            </g>
            <g id="Door-Copy/-Glass" transform="translate(1973.000000, 837.500000) scale(1, -1) rotate(-270.000000) translate(-1973.000000, -837.500000) translate(1944.500000, 809.500000)" stroke="#272C37">
                <path d="M0.452380952,0.444444444 C3.49257552,36.8841099 22.3417819,55.4026284 57,56" id="Path-17"></path>
                <line x1="56.547619" y1="0.444444444" x2="0.452380952" y2="0.444444444" id="Line-3" stroke-linecap="square"></line>
                <line x1="56.547619" y1="0.118879623" x2="56.547619" y2="0.478366112" id="Line" stroke-linecap="square"></line>
                <line x1="56.547619" y1="0.118879623" x2="56.547619" y2="0.478366112" id="Line-Copy" stroke-linecap="square"></line>
                <line x1="56.547619" y1="2.81246929" x2="1.14918089" y2="2.81246929" id="Line-3-Copy" stroke-linecap="square"></line>
            </g>
            <g id="Door-Copy/-Glass" transform="translate(1653.500000, 1342.750000) scale(-1, 1) rotate(-270.000000) translate(-1653.500000, -1342.750000) translate(1641.500000, 1331.250000)" stroke="#272C37">
                <path d="M0.19047619,0.182539683 C1.47055812,15.1488309 9.40706605,22.754651 24,23" id="Path-17"></path>
                <line x1="23.8095238" y1="0.182539683" x2="0.19047619" y2="0.182539683" id="Line-3" stroke-linecap="square"></line>
                <line x1="23.8095238" y1="0.118879623" x2="23.8095238" y2="0.478366112" id="Line" stroke-linecap="square"></line>
                <line x1="23.8095238" y1="0.118879623" x2="23.8095238" y2="0.478366112" id="Line-Copy" stroke-linecap="square"></line>
                <line x1="23.8095238" y1="2.62019667" x2="0.483865639" y2="2.62019667" id="Line-3-Copy" stroke-linecap="square"></line>
            </g>
            <g id="Door-Copy/-Glass" transform="translate(1625.000000, 1375.500000) scale(-1, 1) translate(-1625.000000, -1375.500000) translate(1613.000000, 1364.000000)" stroke="#272C37">
                <path d="M0.19047619,0.182539683 C1.47055812,15.1488309 9.40706605,22.754651 24,23" id="Path-17"></path>
                <line x1="23.8095238" y1="0.182539683" x2="0.19047619" y2="0.182539683" id="Line-3" stroke-linecap="square"></line>
                <line x1="23.8095238" y1="0.118879623" x2="23.8095238" y2="0.478366112" id="Line" stroke-linecap="square"></line>
                <line x1="23.8095238" y1="0.118879623" x2="23.8095238" y2="0.478366112" id="Line-Copy" stroke-linecap="square"></line>
                <line x1="23.8095238" y1="2.62019667" x2="0.483865639" y2="2.62019667" id="Line-3-Copy" stroke-linecap="square"></line>
            </g>
            <g id="Door-Copy/-Glass" transform="translate(1431.000000, 1128.500000) scale(1, -1) translate(-1431.000000, -1128.500000) translate(1402.000000, 1100.000000)" stroke="#272C37">
                <path d="M0.46031746,0.452380952 C3.55384878,37.5427547 22.733743,56.3919611 58,57" id="Path-17"></path>
                <line x1="57.5396825" y1="0.452380952" x2="0.46031746" y2="0.452380952" id="Line-3" stroke-linecap="square"></line>
                <line x1="57.5396825" y1="0.118879623" x2="57.5396825" y2="0.478366112" id="Line" stroke-linecap="square"></line>
                <line x1="57.5396825" y1="0.118879623" x2="57.5396825" y2="0.478366112" id="Line-Copy" stroke-linecap="square"></line>
                <line x1="57.5396825" y1="2.82071606" x2="1.16934196" y2="2.82071606" id="Line-3-Copy" stroke-linecap="square"></line>
            </g>
            <g id="Door-Copy/-Glass" transform="translate(1639.000000, 1150.500000) scale(-1, -1) translate(-1639.000000, -1150.500000) translate(1610.000000, 1122.000000)" stroke="#272C37">
                <path d="M0.46031746,0.452380952 C3.55384878,37.5427547 22.733743,56.3919611 58,57" id="Path-17"></path>
                <line x1="57.5396825" y1="0.452380952" x2="0.46031746" y2="0.452380952" id="Line-3" stroke-linecap="square"></line>
                <line x1="57.5396825" y1="0.118879623" x2="57.5396825" y2="0.478366112" id="Line" stroke-linecap="square"></line>
                <line x1="57.5396825" y1="0.118879623" x2="57.5396825" y2="0.478366112" id="Line-Copy" stroke-linecap="square"></line>
                <line x1="57.5396825" y1="2.82071606" x2="1.16934196" y2="2.82071606" id="Line-3-Copy" stroke-linecap="square"></line>
            </g>
            <g id="Door-Copy/-Glass" transform="translate(2066.000000, 1566.500000) scale(-1, -1) translate(-2066.000000, -1566.500000) translate(2037.000000, 1538.000000)" stroke="#272C37">
                <path d="M0.46031746,0.452380952 C3.55384878,37.5427547 22.733743,56.3919611 58,57" id="Path-17"></path>
                <line x1="57.5396825" y1="0.452380952" x2="0.46031746" y2="0.452380952" id="Line-3" stroke-linecap="square"></line>
                <line x1="57.5396825" y1="0.118879623" x2="57.5396825" y2="0.478366112" id="Line" stroke-linecap="square"></line>
                <line x1="57.5396825" y1="0.118879623" x2="57.5396825" y2="0.478366112" id="Line-Copy" stroke-linecap="square"></line>
                <line x1="57.5396825" y1="2.82071606" x2="1.16934196" y2="2.82071606" id="Line-3-Copy" stroke-linecap="square"></line>
            </g>
            <rect id="Rectangle" stroke="#FFFFFF" fill="#FFFFFF" x="2020" y="1538" width="17" height="57"></rect>
        </g>
        <g id="Stairs" transform="translate(1259.000000, 205.000000)" stroke="#272C37">
            <g id="Bottom" transform="translate(87.500000, 1621.000000) rotate(-180.000000) translate(-87.500000, -1621.000000) translate(0.500000, 1521.500000)">
                <line x1="0.468918919" y1="198" x2="172.562162" y2="198" id="Line-3" stroke-width="2" stroke-linecap="square"></line>
                <line x1="95.6594595" y1="179.5" x2="172.562162" y2="179.5" id="Line-3-Copy" stroke-linecap="square"></line>
                <line x1="0.493902439" y1="179.5" x2="80.367897" y2="179.5" id="Line-3-Copy-2" stroke-linecap="square"></line>
                <line x1="95.6594595" y1="161" x2="172.562162" y2="161" id="Line-3-Copy-3" stroke-linecap="square"></line>
                <line x1="0.499812686" y1="161" x2="79.470217" y2="161" id="Line-3-Copy-4" stroke-linecap="square"></line>
                <line x1="95.6594595" y1="142" x2="172.562162" y2="142" id="Line-3-Copy-6" stroke-linecap="square"></line>
                <line x1="0.499812686" y1="142" x2="79.470217" y2="142" id="Line-3-Copy-5" stroke-linecap="square"></line>
                <line x1="0.499812686" y1="71" x2="79.470217" y2="71" id="Line-3-Copy-13" stroke-linecap="square"></line>
                <line x1="95.6594595" y1="88" x2="172.562162" y2="88" id="Line-3-Copy-12" stroke-linecap="square"></line>
                <line x1="0.499812686" y1="88" x2="79.470217" y2="88" id="Line-3-Copy-11" stroke-linecap="square"></line>
                <line x1="95.6594595" y1="105" x2="172.562162" y2="105" id="Line-3-Copy-10" stroke-linecap="square"></line>
                <line x1="0.499812686" y1="105" x2="79.470217" y2="105" id="Line-3-Copy-9" stroke-linecap="square"></line>
                <line x1="95.6594595" y1="124" x2="172.562162" y2="124" id="Line-3-Copy-8" stroke-linecap="square"></line>
                <line x1="0.499812686" y1="124" x2="79.470217" y2="124" id="Line-3-Copy-7" stroke-linecap="square"></line>
                <line x1="95.6594595" y1="71" x2="172.562162" y2="71" id="Line-3-Copy-14" stroke-linecap="square"></line>
                <line x1="80.9027027" y1="50.5" x2="172.562162" y2="50.5" id="Line-3-Copy-15" stroke-linecap="square"></line>
                <path d="M134,196 L134,9.54969437e-12 L38,9.54969437e-12 L38,196" id="Path-19" stroke-dasharray="21,15"></path>
                <polyline id="Path-20" points="27 171 38 196 49 171"></polyline>
                <line x1="95.6594595" y1="198" x2="95.6594595" y2="50.5" id="Line-4-Copy" stroke-linecap="square"></line>
                <line x1="80.9027027" y1="198" x2="80.9027027" y2="51.3388535" id="Line-4" stroke-width="2" stroke-linecap="square"></line>
            </g>
            <g id="Top" transform="translate(180.000000, 0.000000)">
                <line x1="0.5" y1="197" x2="184" y2="197" id="Line-3" stroke-width="2" stroke-linecap="square"></line>
                <line x1="102" y1="178.5" x2="184" y2="178.5" id="Line-3-Copy" stroke-linecap="square"></line>
                <line x1="0.5" y1="178.5" x2="81.3600932" y2="178.5" id="Line-3-Copy-2" stroke-linecap="square"></line>
                <line x1="102" y1="160" x2="184" y2="160" id="Line-3-Copy-3" stroke-linecap="square"></line>
                <line x1="0.505983213" y1="160" x2="80.4513308" y2="160" id="Line-3-Copy-4" stroke-linecap="square"></line>
                <line x1="102" y1="141" x2="184" y2="141" id="Line-3-Copy-6" stroke-linecap="square"></line>
                <line x1="0.505983213" y1="141" x2="80.4513308" y2="141" id="Line-3-Copy-5" stroke-linecap="square"></line>
                <line x1="0.505983213" y1="70" x2="80.4513308" y2="70" id="Line-3-Copy-13" stroke-linecap="square"></line>
                <line x1="102" y1="87" x2="184" y2="87" id="Line-3-Copy-12" stroke-linecap="square"></line>
                <line x1="0.505983213" y1="87" x2="80.4513308" y2="87" id="Line-3-Copy-11" stroke-linecap="square"></line>
                <line x1="102" y1="104" x2="184" y2="104" id="Line-3-Copy-10" stroke-linecap="square"></line>
                <line x1="0.505983213" y1="104" x2="80.4513308" y2="104" id="Line-3-Copy-9" stroke-linecap="square"></line>
                <line x1="102" y1="123" x2="184" y2="123" id="Line-3-Copy-8" stroke-linecap="square"></line>
                <line x1="0.505983213" y1="123" x2="80.4513308" y2="123" id="Line-3-Copy-7" stroke-linecap="square"></line>
                <line x1="102" y1="70" x2="184" y2="70" id="Line-3-Copy-14" stroke-linecap="square"></line>
                <line x1="81.5" y1="49.5" x2="184" y2="49.5" id="Line-3-Copy-15" stroke-linecap="square"></line>
                <line x1="82" y1="197" x2="82" y2="50.3388535" id="Line-4" stroke-width="2" stroke-linecap="square"></line>
                <line x1="102" y1="197" x2="102" y2="49.5" id="Line-4-Copy" stroke-linecap="square"></line>
                <path d="M143.5,196.5 L143.5,0.5 L40.5,0.5 L40.5,196.5" id="Path-19" stroke-dasharray="21,15"></path>
                <polyline id="Path-20" points="28.5 171.5 40.5 196.5 52.5 171.5"></polyline>
            </g>
        </g>
        <g id="Slideing-Doors" transform="translate(486.781250, 1214.348633)" stroke="#000000" stroke-width="2">
            <path d="M31.8664789,1.54056609 L1.28200887,36.5812315 L2.57286708,38.3272712 L33.6525882,3.68220432 L31.8664789,1.54056609 Z" id="Path-4"></path>
            <path d="M101.085229,2.19193328 L70.5007589,37.2325987 L71.7916171,38.9786384 L102.871338,4.33357151 L101.085229,2.19193328 Z" id="Path-4-Copy"></path>
            <path d="M136.085229,2.19193328 L105.500759,37.2325987 L106.791617,38.9786384 L137.871338,4.33357151 L136.085229,2.19193328 Z" id="Path-4-Copy-2" transform="translate(121.706055, 20.605469) scale(-1, 1) translate(-121.706055, -20.605469) "></path>
            <path d="M66.0852289,2.19193328 L35.5007589,37.2325987 L36.7916171,38.9786384 L67.8713382,4.33357151 L66.0852289,2.19193328 Z" id="Path-4-Copy-3" transform="translate(51.706055, 20.605469) scale(-1, 1) translate(-51.706055, -20.605469) "></path>
        </g>
        <g id="Slideing-Doors-Copy" transform="translate(777.000000, 1117.500000) scale(-1, 1) rotate(90.000000) translate(-777.000000, -1117.500000) translate(707.000000, 1097.000000)" stroke="#000000" stroke-width="2">
            <path d="M31.8664789,1.54056609 L1.28200887,36.5812315 L2.57286708,38.3272712 L33.6525882,3.68220432 L31.8664789,1.54056609 Z" id="Path-4"></path>
            <path d="M101.085229,2.19193328 L70.5007589,37.2325987 L71.7916171,38.9786384 L102.871338,4.33357151 L101.085229,2.19193328 Z" id="Path-4-Copy"></path>
            <path d="M136.085229,2.19193328 L105.500759,37.2325987 L106.791617,38.9786384 L137.871338,4.33357151 L136.085229,2.19193328 Z" id="Path-4-Copy-2" transform="translate(121.706055, 20.605469) scale(-1, 1) translate(-121.706055, -20.605469) "></path>
            <path d="M66.0852289,2.19193328 L35.5007589,37.2325987 L36.7916171,38.9786384 L67.8713382,4.33357151 L66.0852289,2.19193328 Z" id="Path-4-Copy-3" transform="translate(51.706055, 20.605469) scale(-1, 1) translate(-51.706055, -20.605469) "></path>
        </g>
    </g>
</svg>