<?xml version="1.0" encoding="UTF-8"?>
<svg width="2702px" height="2048px" viewBox="0 0 2702 2048" version="1.1" xmlns="http://www.w3.org/2000/svg" xmlns:xlink="http://www.w3.org/1999/xlink">
    <title>Artboard</title>
    <g id="Artboard" stroke="none" stroke-width="1" fill="none" fill-rule="evenodd">
        <g id="Walls" transform="translate(37.000000, 35.000000)" stroke="#272C37">
            <polygon id="Path" stroke-width="3" points="0 2 0 60 18 60 18 2"></polygon>
            <polygon id="Path-2-Copy-2" stroke-width="3" points="18.029436 398 0 398 0 507 18.029436 507"></polygon>
            <polygon id="Path-2-Copy-11" stroke-width="3" points="0 1071.5 18.029436 1071.5 18.029436 947.896484 0 947.896484"></polygon>
            <polygon id="Path-2-Copy-7" stroke-width="3" points="0 1512 0 1622 18.029436 1622 18.029436 1599 369.921875 1599 369.921875 1825.87109 380.054688 1825.87109 380.054688 1599 509 1599 509 1645.38867 516.914063 1645.38867 516.914063 1591 18.029436 1591 18.029436 1512"></polygon>
            <polygon id="Path-2-Copy-12" stroke-width="3" points="380 1906 371 1906 371 1924 380 1924"></polygon>
            <polygon id="Path-2-Copy-16" stroke-width="3" points="2253 1924 2253 1642 2267 1642 2267 1635 2118 1635 2118 1642 2244 1642 2244 1924"></polygon>
            <polygon id="Path-2-Copy-32" stroke-width="3" points="2030 1924 2030 1642 2036 1642 2036 1635 2021 1635 2021 1924"></polygon>
            <polygon id="Path-2-Copy-17" stroke-width="3" points="2624 1923 2594 1923 2594 1942 2624 1942"></polygon>
            <polygon id="Path-2-Copy-19" stroke-width="3" points="2623 1514 2606 1514 2606 1616 2385 1616 2385 1636 2349 1636 2349 1642 2393 1642 2393 1624 2623 1624"></polygon>
            <polygon id="Path-2-Copy-22" stroke-width="3" points="2623 948 2606 948 2606 988.601562 2239.53906 988.601562 2239.53906 977.5 2220.5293 977.5 2220.5293 988.601562 2035.72461 988.601562 2035.72461 832.599609 2028.35352 832.599609 2028.35352 996.761719 2219.92969 996.761719 2220.5293 1000.98437 2239.0525 1000.78146 2239.53906 996.761719 2606 996.761719 2606 1072 2623 1072"></polygon>
            <polygon id="Path-2-Copy-22" stroke-width="3" points="2606 742.601563 2290 742.601563 2290 758.732422 2008.1582 758.732422 2008.1582 765.701172 2026.51758 765.701172 2026.51758 774.650391 2036.20494 774.33019 2036.20494 765.701172 2297.26758 765.701172 2297.26758 750.761719 2606 750.761719"></polygon>
            <polygon id="Path-2-Copy-24" stroke-width="3" points="2606 564 2284.52832 564 2284.52832 571 2288.66699 571 2288.66699 683 2295.18457 683 2295.18457 571 2586.34375 571 2606 571"></polygon>
            <polygon id="Path-2-Copy-24" stroke-width="3" points="2606.47168 251 2429.13672 251 2429.39258 258 2586.81543 258 2606.47168 258"></polygon>
            <polygon id="Path-2-Copy-24" stroke-width="3" transform="translate(2283.235840, 407.000000) scale(-1, 1) rotate(90.000000) translate(-2283.235840, -407.000000) " points="2447.47168 343 2119 343 2119 350 2126.13867 350 2126.13867 471 2132.65625 471 2132.65625 350 2420.81543 350 2447.47168 350"></polygon>
            <polygon id="Path-2-Copy-25" stroke-width="3" points="2623 372 2606 372 2606 508 2623 508"></polygon>
            <polygon id="Path-2-Copy-27" stroke-width="3" points="2623 15 2594.23047 15 2594.23047 33 2623 33.4511719"></polygon>
            <polygon id="Path-2-Copy-29" stroke-width="3" points="2284.5 15 2217.5 15 2218 90 2215 90 2215 107 2219.6875 107 2219.6875 184.162109 2225.62109 184.162109 2225.62109 107 2235 107 2235 33 2284.5 33"></polygon>
            <polygon id="Path-2-Copy-30" stroke-width="3" points="1986 16 1910 16 1910 34 1968 34 1968 108 1989 108 1989 91 1985 91"></polygon>
            <polygon id="Path-2-Copy-33" stroke-width="3" points="1405 4 1204 4 1204 173 1405 173"></polygon>
            <polygon id="Path-2-Copy-38" stroke-width="3" points="1389 22.5 1220 22.5 1220 159.5 1389 159.5"></polygon>
            <path d="M1029,0 L953,0 L953,18 L1011,18 L1011,28 L1011,405.857422 C990.479344,405.311094 959.146011,405.311094 917,405.857422 C874.853989,406.403749 832.709458,406.403749 790.566406,405.857422 L783.131836,399.289062 L777.649414,404.525391 L786.535156,413.236328 L917,413.236328 L917,427 L1029,427 L1029,0 Z" id="Path-2-Copy-34" stroke-width="3"></path>
            <polygon id="Path-2-Copy-9" stroke-width="3" points="0 1921.67188 0 1940 18.029436 1940 18.029436 1922"></polygon>
            <polygon id="Path" stroke-width="3" transform="translate(367.485840, 45.000000) scale(-1, 1) translate(-367.485840, -45.000000) " points="406.97168 2 331.97168 2 331.97168 71.3242187 328 71.3242187 328 88 349.97168 88 349.97168 27 349.97168 18 372.97168 18 406.97168 18"></polygon>
            <polygon id="Path-3" stroke-width="3" points="892 1923 925 1923 925 1643.66992 754.931641 1644 754.931641 1635.89063 925 1635.89063 925 1623 932 1623 932 1733 953.425781 1733 1080 1733 1080 1557 932 1557 932 1566 925 1566 925 1540 1097 1540 1097 1644 1117.93945 1644 1117.93945 1661.35547 1089.89258 1661.35547 1089.89258 1741.00586 1082.82715 1741.00586 1082.82715 1747.5 1079.98438 1747.5 1079.98438 1741.00586 932 1741.00586 932 1807.88379 1080 1807.88379 1080 1801.94531 1078.37207 1801.94531 1082.82715 1801.94531 1082.82715 1814.50879 1080 1814.50879 1080 1810.66016 932 1810.66016 932 1878 1079.48242 1878 1079.48242 1871.31348 1082.82715 1871.31348 1082.82715 1878 1202.47461 1878 1202.47461 1661.35547 1185.87305 1661.35547 1185.87305 1644 1216 1644 1216 1937 1390 1937 1390 1644 1423.79102 1644 1423.79102 1661.35547 1408 1661.35547 1408 1874.44141 1552.33496 1874.44141 1552.33496 1865.96777 1557 1865.96777 1557.22461 1874.44141 1562 1874.44141 1562 1891 1564.61621 1891 1564.61621 1874.44141 1671 1874.44141 1671 1881.25293 1672 1881.25293 1671.46264 1805.32031 1556.84229 1805.32031 1556.94971 1810.32031 1553.58252 1810.32031 1553.58252 1797.67334 1556.84229 1797.67334 1556.84229 1803.46836 1671.46264 1803.46836 1671 1736.5 1522.19141 1736.5 1522.19141 1661.35547 1491.20117 1661.35547 1491.20117 1644 1512 1644 1512 1613 1530 1613 1530 1615 1549 1615 1549 1557 1530 1557 1530 1561 1512 1561 1512 1540 1689.35547 1540 1689.35547 1557 1557 1557 1557 1622 1530 1622 1530 1726 1766.56055 1726 1766.56055 1557 1748.94922 1557 1748.94922 1549.02148 1774.56055 1549.02148 1774.56055 1736.5 1693 1736.5 1693 1923 1719 1923 1719 1940 1562 1940 1562 1934.35449 1567.43555 1934.35449 1567.43555 1931.72656 1562 1931.72656 1562 1891 1408 1891 1408 1955 1199 1955 1199 1937 1199 1895 1046 1895 1046 1940 892 1940"></polygon>
            <rect id="Rectangle" stroke-width="3" x="933" y="1886" width="107" height="47"></rect>
            <rect id="Rectangle-Copy" stroke-width="3" x="1570" y="1883" width="102" height="50"></rect>
            <polygon id="Path-6" stroke-width="3" points="1665 15 1665 33 1598 33 1598 407 1680.70508 407 1680.70508 427.142578 1581 427.142578 1581 15"></polygon>
            <polygon id="Path-7" stroke-width="3" points="706.498047 88.5 706.498047 325.658203 723.576172 345.148438 728.210938 340.494141 713 325.658203 713 83.2128906 656 83.2128906 656 29 656 18 679 18 713 18 713 0 638 0 638 70 638 88"></polygon>
            <polygon id="Path-11" stroke-width="3" points="954 939 954 975.941406 790.839844 977.5 790.839844 778.205078 1012 778.205078 1012 826.083984 1028 826.083984 1028 770.447266 896.90625 770.447266 896.90625 581.335938 1002.61328 581.335938 1002.61328 645.375 1020.48242 645.375 1020.48242 561.609375 916.451172 561.609375 916.451172 573.806641 849.304687 573.806641 849.304687 581.335938 888.789062 581.335938 888.789062 770.447266 773.556641 770.447266 773.556641 778.205078 782.115234 778.205078 782.115234 986.078125 804.503906 986.078125 804.503906 1129.33203 812.876953 1129.33203 812.876953 986.078125 931.570312 986.078125 931.570312 1000.69922 954 1000.69922 954 1031 1012 1031 1012 1199.56641 810.612581 1199.56641 810.612581 1187.27138 804.503906 1186.89844 804.146484 1199.56641 708.644531 1199.56641 700 1199.56641 700 1297.39453 708.644531 1297.39453 708.644531 1207.56641 1012 1207.56641 1012 1388 708.644531 1388 708.644531 1380.56445 702 1380.56445 702 1395.06445 924.777344 1395.06445 924.777344 1406 1028 1406 1029 1018 968 1018 968 953.035156 1012 953.035156 1012 956.962891 1028 956.962891 1028 939"></polygon>
            <polygon id="Path-12" stroke-width="3" points="1581 561 1581 580 1596 580 1596 578 1610 578 1610 645 1597 645 1597 643 1581 643 1581 654 1597 654 1597 652 1618 652 1618 578 1679 578 1679 569 1859 569 1859 686 1868 686 1868 562 1679 562 1679 560"></polygon>
            <polygon id="Path-13" stroke-width="3" points="1599 762 1580 762 1580 827 1599 827 1599 773 1860 772 1860 785 1869 785 1869 767.174316 1952.86084 767.174316 1952.86084 758.469727 1869 758.469727 1869 743 1860 743 1860 765 1599 766"></polygon>
            <polygon id="Path-14" stroke-width="3" points="1580 937 1655 937 1655 972 1860 972 1860 841 1868 841 1868 975 1868 992 1868 1020 1860 1020 1860 980.292969 1670.9043 980.292969 1670.9043 994 1655 994 1655 1035 1580 1035 1580 1018 1596 1018 1596 1021 1639 1021 1639 952 1597 952 1597 961 1580 961"></polygon>
            <polygon id="Path-15" stroke-width="3" points="1580 1146 1580 1200 1596 1200 1596 1191 1860 1191 1860 1195 1868 1195 1868 1185 1868 1178 1868 1177 1860 1177 1860 1182 1596 1182 1596 1146"></polygon>
            <polygon id="Path-15-Copy" stroke-width="3" points="434 469 700 469 700 777 716.167969 777 716.167969 769.324219 707.826172 769.324219 707.826172 581.6875 758.605469 581.6875 758.605469 573.522461 707.826172 573.522461 707.826172 460 698 460 434 460"></polygon>
            <polygon id="Path-15-Copy-2" stroke-width="3" points="18 1340 510 1340.6875 510 1506.55859 517.826172 1506.55859 517.826172 1340.6875 516.914062 1198.17383 510 1198.17383 510 1331 18 1331"></polygon>
            <polygon id="Path-15-Copy-3" stroke-width="3" points="675 1758.51367 675 1924.38477 682.826172 1924.38477 682.826172 1758.51367 682.826172 1642.57227 698.947122 1642.57227 698.947122 1635 675 1635 675 1748.82617"></polygon>
            <polygon id="Path-16" stroke-width="3" points="1580 1310 1597 1310 1597 1386.44727 1687 1386.44727 1687 1396.59375 1860 1396.59375 1860 1359.64453 1868 1359.64453 1868 1406 1702.4375 1406 1687 1406 1669 1406 1669 1402 1580 1402"></polygon>
            <polygon id="Path-17" points="1213 173 1213 362 1029 362 1029 366 1217 366 1217 173"></polygon>
            <polygon id="Path-18" points="1393 173 1396 173 1396 366 1393 366"></polygon>
            <rect id="Rectangle" x="1298.5" y="1694.5" width="6.5" height="140.5"></rect>
            <line x1="1033.5" y1="356.5" x2="1202.5" y2="100.5" id="Line-5" stroke-linecap="square" stroke-dasharray="28,2"></line>
            <line x1="1033.5" y1="361.5" x2="1212.5" y2="100.5" id="Line-5" stroke-linecap="square" stroke-dasharray="28,2" transform="translate(1123.000000, 231.000000) scale(-1, 1) translate(-1123.000000, -231.000000) "></line>
        </g>
        <g id="Stairs" transform="translate(1252.500000, 203.500000)" stroke="#272C37">
            <g id="Bottom" transform="translate(87.500000, 1621.000000) rotate(-180.000000) translate(-87.500000, -1621.000000) translate(0.500000, 1521.500000)">
                <line x1="0.468918919" y1="198" x2="172.562162" y2="198" id="Line-3" stroke-width="2" stroke-linecap="square"></line>
                <line x1="95.6594595" y1="179.5" x2="172.562162" y2="179.5" id="Line-3-Copy" stroke-linecap="square"></line>
                <line x1="0.493902439" y1="179.5" x2="80.367897" y2="179.5" id="Line-3-Copy-2" stroke-linecap="square"></line>
                <line x1="95.6594595" y1="161" x2="172.562162" y2="161" id="Line-3-Copy-3" stroke-linecap="square"></line>
                <line x1="0.499812686" y1="161" x2="79.470217" y2="161" id="Line-3-Copy-4" stroke-linecap="square"></line>
                <line x1="95.6594595" y1="142" x2="172.562162" y2="142" id="Line-3-Copy-6" stroke-linecap="square"></line>
                <line x1="0.499812686" y1="142" x2="79.470217" y2="142" id="Line-3-Copy-5" stroke-linecap="square"></line>
                <line x1="0.499812686" y1="71" x2="79.470217" y2="71" id="Line-3-Copy-13" stroke-linecap="square"></line>
                <line x1="95.6594595" y1="88" x2="172.562162" y2="88" id="Line-3-Copy-12" stroke-linecap="square"></line>
                <line x1="0.499812686" y1="88" x2="79.470217" y2="88" id="Line-3-Copy-11" stroke-linecap="square"></line>
                <line x1="95.6594595" y1="105" x2="172.562162" y2="105" id="Line-3-Copy-10" stroke-linecap="square"></line>
                <line x1="0.499812686" y1="105" x2="79.470217" y2="105" id="Line-3-Copy-9" stroke-linecap="square"></line>
                <line x1="95.6594595" y1="124" x2="172.562162" y2="124" id="Line-3-Copy-8" stroke-linecap="square"></line>
                <line x1="0.499812686" y1="124" x2="79.470217" y2="124" id="Line-3-Copy-7" stroke-linecap="square"></line>
                <line x1="95.6594595" y1="71" x2="172.562162" y2="71" id="Line-3-Copy-14" stroke-linecap="square"></line>
                <line x1="80.9027027" y1="50.5" x2="172.562162" y2="50.5" id="Line-3-Copy-15" stroke-linecap="square"></line>
                <path d="M134,196 L134,9.54969437e-12 L38,9.54969437e-12 L38,196" id="Path-19" stroke-dasharray="21,15"></path>
                <polyline id="Path-20" points="27 171 38 196 49 171"></polyline>
                <line x1="95.6594595" y1="198" x2="95.6594595" y2="50.5" id="Line-4-Copy" stroke-linecap="square"></line>
                <line x1="80.9027027" y1="198" x2="80.9027027" y2="51.3388535" id="Line-4" stroke-width="2" stroke-linecap="square"></line>
            </g>
            <g id="Top" transform="translate(180.000000, 0.000000)">
                <line x1="0.5" y1="197" x2="184" y2="197" id="Line-3" stroke-width="2" stroke-linecap="square"></line>
                <line x1="102" y1="178.5" x2="184" y2="178.5" id="Line-3-Copy" stroke-linecap="square"></line>
                <line x1="0.5" y1="178.5" x2="81.3600932" y2="178.5" id="Line-3-Copy-2" stroke-linecap="square"></line>
                <line x1="102" y1="160" x2="184" y2="160" id="Line-3-Copy-3" stroke-linecap="square"></line>
                <line x1="0.505983213" y1="160" x2="80.4513308" y2="160" id="Line-3-Copy-4" stroke-linecap="square"></line>
                <line x1="102" y1="141" x2="184" y2="141" id="Line-3-Copy-6" stroke-linecap="square"></line>
                <line x1="0.505983213" y1="141" x2="80.4513308" y2="141" id="Line-3-Copy-5" stroke-linecap="square"></line>
                <line x1="0.505983213" y1="70" x2="80.4513308" y2="70" id="Line-3-Copy-13" stroke-linecap="square"></line>
                <line x1="102" y1="87" x2="184" y2="87" id="Line-3-Copy-12" stroke-linecap="square"></line>
                <line x1="0.505983213" y1="87" x2="80.4513308" y2="87" id="Line-3-Copy-11" stroke-linecap="square"></line>
                <line x1="102" y1="104" x2="184" y2="104" id="Line-3-Copy-10" stroke-linecap="square"></line>
                <line x1="0.505983213" y1="104" x2="80.4513308" y2="104" id="Line-3-Copy-9" stroke-linecap="square"></line>
                <line x1="102" y1="123" x2="184" y2="123" id="Line-3-Copy-8" stroke-linecap="square"></line>
                <line x1="0.505983213" y1="123" x2="80.4513308" y2="123" id="Line-3-Copy-7" stroke-linecap="square"></line>
                <line x1="102" y1="70" x2="184" y2="70" id="Line-3-Copy-14" stroke-linecap="square"></line>
                <line x1="81.5" y1="49.5" x2="184" y2="49.5" id="Line-3-Copy-15" stroke-linecap="square"></line>
                <line x1="82" y1="197" x2="82" y2="50.3388535" id="Line-4" stroke-width="2" stroke-linecap="square"></line>
                <line x1="102" y1="197" x2="102" y2="49.5" id="Line-4-Copy" stroke-linecap="square"></line>
                <path d="M143.5,196.5 L143.5,0.5 L40.5,0.5 L40.5,196.5" id="Path-19" stroke-dasharray="21,15"></path>
                <polyline id="Path-20" points="28.5 171.5 40.5 196.5 52.5 171.5"></polyline>
            </g>
        </g>
        <g id="Ext-Windows" transform="translate(32.000000, 38.000000)" stroke="#272C37">
            <g id="Window/Ext" transform="translate(0.000000, 1620.750000)">
                <g id="Window">
                    <polygon id="Path-17" points="-7.10542736e-15 0 3 0 3 3 0 3"></polygon>
                    <polygon id="Path-17-Copy" points="-7.10542736e-15 292.5 3 292.5 3 295.5 0 295.5"></polygon>
                    <line x1="14.5" y1="1.72093023" x2="14.5" y2="294.27907" id="Line-4" stroke-width="2" stroke-linecap="square"></line>
                    <line x1="1.5" y1="5.04553894" x2="1.5" y2="291.258525" id="Line-3" stroke-width="2" stroke-linecap="square"></line>
                </g>
            </g>
            <g id="Window/Ext" transform="translate(454.500000, 1928.750000) rotate(-90.000000) translate(-454.500000, -1928.750000) translate(447.000000, 1491.750000)">
                <g id="Window">
                    <polygon id="Path-17" points="-7.10542736e-15 0 3 0 3 3 0 3"></polygon>
                    <polygon id="Path-17-Copy" points="-7.10542736e-15 870.5 3 870.5 3 873.5 0 873.5"></polygon>
                    <line x1="14.5" y1="5.08139535" x2="14.5" y2="868.918605" id="Line-4" stroke-width="2" stroke-linecap="square"></line>
                    <line x1="1.5" y1="9.13661681" x2="1.5" y2="867.775574" id="Line-3" stroke-width="2" stroke-linecap="square"></line>
                </g>
            </g>
            <g id="Window/Ext" transform="translate(2154.000000, 1929.750000) rotate(-90.000000) translate(-2154.000000, -1929.750000) translate(2146.500000, 1493.250000)">
                <g id="Window">
                    <polygon id="Path-17" points="-7.10542736e-15 0 3 0 3 3 0 3"></polygon>
                    <polygon id="Path-17-Copy" points="-7.10542736e-15 869.5 3 869.5 3 872.5 0 872.5"></polygon>
                    <line x1="14.5" y1="5.0755814" x2="14.5" y2="867.924419" id="Line-4" stroke-width="2" stroke-linecap="square"></line>
                    <line x1="1.5" y1="9.12953882" x2="1.5" y2="866.778139" id="Line-3" stroke-width="2" stroke-linecap="square"></line>
                </g>
            </g>
            <g id="Window/Ext" transform="translate(2612.500000, 1769.750000) rotate(-180.000000) translate(-2612.500000, -1769.750000) translate(2605.000000, 1621.750000)">
                <g id="Window">
                    <polygon id="Path-17" points="-7.10542736e-15 0 3 0 3 3 0 3"></polygon>
                    <polygon id="Path-17-Copy" points="-7.10542736e-15 292.5 3 292.5 3 295.5 0 295.5"></polygon>
                    <line x1="14.5" y1="1.72093023" x2="14.5" y2="294.27907" id="Line-4" stroke-width="2" stroke-linecap="square"></line>
                    <line x1="1.5" y1="5.04553894" x2="1.5" y2="291.258525" id="Line-3" stroke-width="2" stroke-linecap="square"></line>
                </g>
            </g>
            <g id="Window/Ext" transform="translate(2612.500000, 1289.750000) rotate(-180.000000) translate(-2612.500000, -1289.750000) translate(2605.000000, 1070.750000)">
                <g id="Window">
                    <polygon id="Path-17" points="-7.10542736e-15 0 3 0 3 3 0 3"></polygon>
                    <polygon id="Path-17-Copy" points="-7.10542736e-15 434.5 3 434.5 3 437.5 0 437.5"></polygon>
                    <line x1="14.5" y1="2.54651163" x2="14.5" y2="435.453488" id="Line-4" stroke-width="2" stroke-linecap="square"></line>
                    <line x1="1.5" y1="6.05061343" x2="1.5" y2="432.894201" id="Line-3" stroke-width="2" stroke-linecap="square"></line>
                </g>
            </g>
            <g id="Window/Ext" transform="translate(2611.500000, 723.750000) rotate(-180.000000) translate(-2611.500000, -723.750000) translate(2604.000000, 505.250000)">
                <g id="Window">
                    <polygon id="Path-17" points="-7.10542736e-15 0 3 0 3 3 0 3"></polygon>
                    <polygon id="Path-17-Copy" points="-7.10542736e-15 433.5 3 433.5 3 436.5 0 436.5"></polygon>
                    <line x1="14.5" y1="2.54069767" x2="14.5" y2="434.459302" id="Line-4" stroke-width="2" stroke-linecap="square"></line>
                    <line x1="1.5" y1="6.04353544" x2="1.5" y2="431.896767" id="Line-3" stroke-width="2" stroke-linecap="square"></line>
                </g>
            </g>
            <g id="Window/Ext" transform="translate(2611.500000, 325.750000) rotate(-180.000000) translate(-2611.500000, -325.750000) translate(2604.000000, 284.750000)">
                <g id="Window">
                    <polygon id="Path-17" points="-7.10542736e-15 0 3 0 3 3 0 3"></polygon>
                    <polygon id="Path-17-Copy" points="-7.10542736e-15 78.5 3 78.5 3 81.5 0 81.5"></polygon>
                    <line x1="14.5" y1="0.476744186" x2="14.5" y2="81.5232558" id="Line-4" stroke-width="2" stroke-linecap="square"></line>
                    <line x1="1.5" y1="3.53084921" x2="1.5" y2="77.8075756" id="Line-3" stroke-width="2" stroke-linecap="square"></line>
                </g>
            </g>
            <g id="Window/Ext" transform="translate(2611.500000, 240.750000) rotate(-180.000000) translate(-2611.500000, -240.750000) translate(2604.000000, 199.750000)">
                <g id="Window">
                    <polygon id="Path-17" points="-7.10542736e-15 0 3 0 3 3 0 3"></polygon>
                    <polygon id="Path-17-Copy" points="-7.10542736e-15 78.5 3 78.5 3 81.5 0 81.5"></polygon>
                    <line x1="14.5" y1="0.476744186" x2="14.5" y2="81.5232558" id="Line-4" stroke-width="2" stroke-linecap="square"></line>
                    <line x1="1.5" y1="3.53084921" x2="1.5" y2="77.8075756" id="Line-3" stroke-width="2" stroke-linecap="square"></line>
                </g>
            </g>
            <g id="Window/Ext" transform="translate(2611.500000, 156.750000) rotate(-180.000000) translate(-2611.500000, -156.750000) translate(2604.000000, 115.750000)">
                <g id="Window">
                    <polygon id="Path-17" points="-7.10542736e-15 0 3 0 3 3 0 3"></polygon>
                    <polygon id="Path-17-Copy" points="-7.10542736e-15 78.5 3 78.5 3 81.5 0 81.5"></polygon>
                    <line x1="14.5" y1="0.476744186" x2="14.5" y2="81.5232558" id="Line-4" stroke-width="2" stroke-linecap="square"></line>
                    <line x1="1.5" y1="3.53084921" x2="1.5" y2="77.8075756" id="Line-3" stroke-width="2" stroke-linecap="square"></line>
                </g>
            </g>
            <g id="Window/Ext" transform="translate(2611.500000, 73.750000) rotate(-180.000000) translate(-2611.500000, -73.750000) translate(2604.000000, 32.750000)">
                <g id="Window">
                    <polygon id="Path-17" points="-7.10542736e-15 0 3 0 3 3 0 3"></polygon>
                    <polygon id="Path-17-Copy" points="-7.10542736e-15 78.5 3 78.5 3 81.5 0 81.5"></polygon>
                    <line x1="14.5" y1="0.476744186" x2="14.5" y2="81.5232558" id="Line-4" stroke-width="2" stroke-linecap="square"></line>
                    <line x1="1.5" y1="3.53084921" x2="1.5" y2="77.8075756" id="Line-3" stroke-width="2" stroke-linecap="square"></line>
                </g>
            </g>
            <g id="Window/Ext" transform="translate(830.250000, 8.000000) rotate(-270.000000) translate(-830.250000, -8.000000) translate(822.750000, -110.500000)">
                <g id="Window">
                    <polygon id="Path-17" points="-7.10542736e-15 0 3 0 3 3 0 3"></polygon>
                    <polygon id="Path-17-Copy" points="-7.10542736e-15 233.5 3 233.5 3 236.5 0 236.5"></polygon>
                    <line x1="14.5" y1="1.37790698" x2="14.5" y2="235.622093" id="Line-4" stroke-width="2" stroke-linecap="square"></line>
                    <line x1="1.5" y1="4.62793756" x2="1.5" y2="232.409898" id="Line-3" stroke-width="2" stroke-linecap="square"></line>
                </g>
            </g>
            <g id="Window/Ext" transform="translate(208.750000, 11.000000) rotate(-270.000000) translate(-208.750000, -11.000000) translate(201.250000, -25.500000)">
                <g id="Window">
                    <polygon id="Path-17" points="-7.10542736e-15 0 3 0 3 3 0 3"></polygon>
                    <polygon id="Path-17-Copy" points="-7.10542736e-15 69.5 3 69.5 3 72.5 0 72.5"></polygon>
                    <line x1="14.5" y1="0.424418605" x2="14.5" y2="72.5755814" id="Line-4" stroke-width="2" stroke-linecap="square"></line>
                    <line x1="1.5" y1="3.4671473" x2="1.5" y2="68.8306665" id="Line-3" stroke-width="2" stroke-linecap="square"></line>
                </g>
            </g>
            <g id="Window/Ext" transform="translate(285.500000, 11.000000) rotate(-270.000000) translate(-285.500000, -11.000000) translate(278.000000, -25.500000)">
                <g id="Window">
                    <polygon id="Path-17" points="-7.10542736e-15 0 3 0 3 3 0 3"></polygon>
                    <polygon id="Path-17-Copy" points="-7.10542736e-15 69.5 3 69.5 3 72.5 0 72.5"></polygon>
                    <line x1="14.5" y1="0.424418605" x2="14.5" y2="72.5755814" id="Line-4" stroke-width="2" stroke-linecap="square"></line>
                    <line x1="1.5" y1="3.4671473" x2="1.5" y2="68.8306665" id="Line-3" stroke-width="2" stroke-linecap="square"></line>
                </g>
            </g>
            <g id="Window/Ext" transform="translate(53.750000, 11.250000) rotate(-270.000000) translate(-53.750000, -11.250000) translate(46.250000, -25.250000)">
                <g id="Window">
                    <polygon id="Path-17" points="-7.10542736e-15 0 3 0 3 3 0 3"></polygon>
                    <polygon id="Path-17-Copy" points="-7.10542736e-15 69.5 3 69.5 3 72.5 0 72.5"></polygon>
                    <line x1="14.5" y1="0.424418605" x2="14.5" y2="72.5755814" id="Line-4" stroke-width="2" stroke-linecap="square"></line>
                    <line x1="1.5" y1="3.4671473" x2="1.5" y2="68.8306665" id="Line-3" stroke-width="2" stroke-linecap="square"></line>
                </g>
            </g>
            <g id="Window/Ext" transform="translate(131.000000, 11.250000) rotate(-270.000000) translate(-131.000000, -11.250000) translate(123.500000, -26.750000)">
                <g id="Window">
                    <polygon id="Path-17" points="-7.10542736e-15 0 3 0 3 3 0 3"></polygon>
                    <polygon id="Path-17-Copy" points="-7.10542736e-15 72.5 3 72.5 3 75.5 0 75.5"></polygon>
                    <line x1="14.5" y1="0.441860465" x2="14.5" y2="75.5581395" id="Line-4" stroke-width="2" stroke-linecap="square"></line>
                    <line x1="1.5" y1="3.48838127" x2="1.5" y2="71.8229695" id="Line-3" stroke-width="2" stroke-linecap="square"></line>
                </g>
            </g>
            <g id="Window/Ext" transform="translate(2552.750000, 20.750000) rotate(-270.000000) translate(-2552.750000, -20.750000) translate(2545.250000, -16.750000)">
                <g id="Window">
                    <polygon id="Path-17" points="-7.10542736e-15 0 3 0 3 3 0 3"></polygon>
                    <polygon id="Path-17-Copy" points="-7.10542736e-15 71.5 3 71.5 3 74.5 0 74.5"></polygon>
                    <line x1="14.5" y1="0.436046512" x2="14.5" y2="74.5639535" id="Line-4" stroke-width="2" stroke-linecap="square"></line>
                    <line x1="1.5" y1="3.48130328" x2="1.5" y2="70.8255352" id="Line-3" stroke-width="2" stroke-linecap="square"></line>
                </g>
            </g>
            <g id="Window/Ext" transform="translate(2475.500000, 20.250000) rotate(-270.000000) translate(-2475.500000, -20.250000) translate(2468.000000, -17.250000)">
                <g id="Window">
                    <polygon id="Path-17" points="-7.10542736e-15 0 3 0 3 3 0 3"></polygon>
                    <polygon id="Path-17-Copy" points="-7.10542736e-15 71.5 3 71.5 3 74.5 0 74.5"></polygon>
                    <line x1="14.5" y1="0.436046512" x2="14.5" y2="74.5639535" id="Line-4" stroke-width="2" stroke-linecap="square"></line>
                    <line x1="1.5" y1="3.48130328" x2="1.5" y2="70.8255352" id="Line-3" stroke-width="2" stroke-linecap="square"></line>
                </g>
            </g>
            <g id="Window/Ext" transform="translate(2398.500000, 20.250000) rotate(-270.000000) translate(-2398.500000, -20.250000) translate(2391.000000, -17.250000)">
                <g id="Window">
                    <polygon id="Path-17" points="-7.10542736e-15 0 3 0 3 3 0 3"></polygon>
                    <polygon id="Path-17-Copy" points="-7.10542736e-15 71.5 3 71.5 3 74.5 0 74.5"></polygon>
                    <line x1="14.5" y1="0.436046512" x2="14.5" y2="74.5639535" id="Line-4" stroke-width="2" stroke-linecap="square"></line>
                    <line x1="1.5" y1="3.48130328" x2="1.5" y2="70.8255352" id="Line-3" stroke-width="2" stroke-linecap="square"></line>
                </g>
            </g>
            <g id="Window/Ext" transform="translate(2321.500000, 20.250000) rotate(-270.000000) translate(-2321.500000, -20.250000) translate(2314.000000, -17.250000)">
                <g id="Window">
                    <polygon id="Path-17" points="-7.10542736e-15 0 3 0 3 3 0 3"></polygon>
                    <polygon id="Path-17-Copy" points="-7.10542736e-15 71.5 3 71.5 3 74.5 0 74.5"></polygon>
                    <line x1="14.5" y1="0.436046512" x2="14.5" y2="74.5639535" id="Line-4" stroke-width="2" stroke-linecap="square"></line>
                    <line x1="1.5" y1="3.48130328" x2="1.5" y2="70.8255352" id="Line-3" stroke-width="2" stroke-linecap="square"></line>
                </g>
            </g>
            <g id="Window/Ext" transform="translate(1785.750000, 21.000000) rotate(-270.000000) translate(-1785.750000, -21.000000) translate(1778.250000, -100.000000)">
                <g id="Window">
                    <polygon id="Path-17" points="-7.10542736e-15 0 3 0 3 3 0 3"></polygon>
                    <polygon id="Path-17-Copy" points="-7.10542736e-15 238.5 3 238.5 3 241.5 0 241.5"></polygon>
                    <line x1="14.5" y1="1.40697674" x2="14.5" y2="240.593023" id="Line-4" stroke-width="2" stroke-linecap="square"></line>
                    <line x1="1.5" y1="4.66332751" x2="1.5" y2="237.39707" id="Line-3" stroke-width="2" stroke-linecap="square"></line>
                </g>
            </g>
            <g id="Window/Ext" transform="translate(0.000000, 505.750000)">
                <g id="Window">
                    <polygon id="Path-17" points="-7.10542736e-15 0 3 0 3 3 0 3"></polygon>
                    <polygon id="Path-17-Copy" points="-7.10542736e-15 432.5 3 432.5 3 435.5 0 435.5"></polygon>
                    <line x1="14.5" y1="2.53488372" x2="14.5" y2="433.465116" id="Line-4" stroke-width="2" stroke-linecap="square"></line>
                    <line x1="1.5" y1="6.03645745" x2="1.5" y2="430.899332" id="Line-3" stroke-width="2" stroke-linecap="square"></line>
                </g>
            </g>
            <g id="Window/Ext" transform="translate(0.000000, 1068.750000)">
                <g id="Window">
                    <polygon id="Path-17" points="-7.10542736e-15 0 3 0 3 3 0 3"></polygon>
                    <polygon id="Path-17-Copy" points="-7.10542736e-15 435.5 3 435.5 3 438.5 0 438.5"></polygon>
                    <line x1="14.5" y1="2.55232558" x2="14.5" y2="436.447674" id="Line-4" stroke-width="2" stroke-linecap="square"></line>
                    <line x1="1.5" y1="6.05769142" x2="1.5" y2="433.891635" id="Line-3" stroke-width="2" stroke-linecap="square"></line>
                </g>
            </g>
            <g id="Window/Ext" transform="translate(0.000000, 59.750000)">
                <g id="Window">
                    <polygon id="Path-17" points="-7.10542736e-15 0 3 0 3 3 0 3"></polygon>
                    <polygon id="Path-17-Copy" points="-7.10542736e-15 77.5 3 77.5 3 80.5 0 80.5"></polygon>
                    <line x1="14.5" y1="0.470930233" x2="14.5" y2="80.5290698" id="Line-4" stroke-width="2" stroke-linecap="square"></line>
                    <line x1="1.5" y1="3.52377122" x2="1.5" y2="76.8101412" id="Line-3" stroke-width="2" stroke-linecap="square"></line>
                </g>
            </g>
            <g id="Window/Ext" transform="translate(0.000000, 140.750000)">
                <g id="Window">
                    <polygon id="Path-17" points="-7.10542736e-15 0 3 0 3 3 0 3"></polygon>
                    <polygon id="Path-17-Copy" points="-7.10542736e-15 77.5 3 77.5 3 80.5 0 80.5"></polygon>
                    <line x1="14.5" y1="0.470930233" x2="14.5" y2="80.5290698" id="Line-4" stroke-width="2" stroke-linecap="square"></line>
                    <line x1="1.5" y1="3.52377122" x2="1.5" y2="76.8101412" id="Line-3" stroke-width="2" stroke-linecap="square"></line>
                </g>
            </g>
            <g id="Window/Ext" transform="translate(0.000000, 221.750000)">
                <g id="Window">
                    <polygon id="Path-17" points="-7.10542736e-15 0 3 0 3 3 0 3"></polygon>
                    <polygon id="Path-17-Copy" points="-7.10542736e-15 83.5 3 83.5 3 86.5 0 86.5"></polygon>
                    <line x1="14.5" y1="0.505813953" x2="14.5" y2="86.494186" id="Line-4" stroke-width="2" stroke-linecap="square"></line>
                    <line x1="1.5" y1="3.56623915" x2="1.5" y2="82.7947473" id="Line-3" stroke-width="2" stroke-linecap="square"></line>
                </g>
            </g>
            <g id="Window/Ext" transform="translate(0.000000, 308.750000)">
                <g id="Window">
                    <polygon id="Path-17" points="-7.10542736e-15 0 3 0 3 3 0 3"></polygon>
                    <polygon id="Path-17-Copy" points="-7.10542736e-15 80.5 3 80.5 3 83.5 0 83.5"></polygon>
                    <line x1="14.5" y1="0.488372093" x2="14.5" y2="83.5116279" id="Line-4" stroke-width="2" stroke-linecap="square"></line>
                    <line x1="1.5" y1="3.54500518" x2="1.5" y2="79.8024443" id="Line-3" stroke-width="2" stroke-linecap="square"></line>
                </g>
            </g>
        </g>
        <g id="Void" transform="translate(1155.000000, 616.000000)" stroke="#272C37">
            <rect id="Rectangle" x="22.5" y="0.5" width="326" height="38.2"></rect>
            <rect id="Rectangle" x="13" y="45.5" width="2.5" height="352.5"></rect>
            <rect id="Rectangle-Copy-11" x="13" y="416.744461" width="2.5" height="352.5"></rect>
            <rect id="Rectangle-Copy-9" x="344.75" y="45.5" width="2.5" height="352.5"></rect>
            <rect id="Rectangle-Copy-12" x="344.75" y="416.744461" width="2.5" height="352.5"></rect>
            <g id="Group-6" transform="translate(183.250000, 774.744461) rotate(-270.000000) translate(-183.250000, -774.744461) translate(178.250000, 611.744461)">
                <rect id="Rectangle-Copy-15" x="0.5" y="0.5" width="2.5" height="324.539548"></rect>
                <rect id="Rectangle-Copy-16" x="6.5" y="0.5" width="2.5" height="324.539548"></rect>
            </g>
            <rect id="Rectangle-Copy-8" x="19" y="45.5" width="2.5" height="352.5"></rect>
            <rect id="Rectangle-Copy-13" x="19" y="416.744461" width="2.5" height="352.5"></rect>
            <rect id="Rectangle-Copy-10" x="350.75" y="45.5" width="2.5" height="352.5"></rect>
            <rect id="Rectangle-Copy-14" x="350.75" y="416.744461" width="2.5" height="352.5"></rect>
            <rect id="Rectangle" x="0.5" y="28.7555395" width="21" height="16.7444605"></rect>
            <rect id="Rectangle-Copy-4" x="0.5" y="399" width="21" height="16.7444605"></rect>
            <rect id="Rectangle-Copy-6" x="0.5" y="769.244461" width="21" height="16.7444605"></rect>
            <rect id="Rectangle-Copy-3" x="349.5" y="28.7555395" width="21" height="16.7444605"></rect>
            <rect id="Rectangle-Copy-5" x="349.5" y="399" width="21" height="16.7444605"></rect>
            <rect id="Rectangle-Copy-7" x="349.5" y="769.244461" width="21" height="16.7444605"></rect>
            <line x1="22" y1="41.5" x2="349.5" y2="41.5" id="Line-6" stroke-linecap="square"></line>
            <line x1="22" y1="46" x2="349.5" y2="46" id="Line-6-Copy" stroke-linecap="square"></line>
            <line x1="20.5" y1="53.5" x2="344.25" y2="764.5" id="Line-7" stroke-linecap="square" stroke-dasharray="20"></line>
            <line x1="20.5" y1="53.5" x2="344.25" y2="764.5" id="Line-7-Copy" stroke-linecap="square" stroke-dasharray="20" transform="translate(182.500000, 409.000000) scale(-1, 1) translate(-182.500000, -409.000000) "></line>
        </g>
        <g id="Doors" transform="translate(825.000000, 465.000000)" stroke="#272C37">
            <g id="Door/-Solid" transform="translate(728.000000, 525.000000)">
                <line x1="62.5" y1="0.5" x2="0.5" y2="0.5" id="Line-3" stroke-width="3" stroke-linecap="square"></line>
                <path d="M1,1 C4.33333333,41.6666667 25,62.3333333 63,63" id="Path-17" stroke-width="1"></path>
            </g>
            <g id="Door/-Solid" transform="translate(270.500000, 551.500000) scale(-1, 1) translate(-270.500000, -551.500000) translate(239.000000, 520.000000)">
                <line x1="62.5" y1="0.5" x2="0.5" y2="0.5" id="Line-3" stroke-width="3" stroke-linecap="square"></line>
                <path d="M1,1 C4.33333333,41.6666667 25,62.3333333 63,63" id="Path-17" stroke-width="1"></path>
            </g>
            <g id="Door/-Solid" transform="translate(816.000000, 978.000000)">
                <line x1="62.5" y1="0.5" x2="0.5" y2="0.5" id="Line-3" stroke-width="3" stroke-linecap="square"></line>
                <path d="M1,1 C4.33333333,41.6666667 25,62.3333333 63,63" id="Path-17" stroke-width="1"></path>
            </g>
            <g id="Door/-Solid" transform="translate(186.500000, 1010.500000) scale(-1, 1) translate(-186.500000, -1010.500000) translate(155.000000, 979.000000)">
                <line x1="62.5" y1="0.5" x2="0.5" y2="0.5" id="Line-3" stroke-width="3" stroke-linecap="square"></line>
                <path d="M1,1 C4.33333333,41.6666667 25,62.3333333 63,63" id="Path-17" stroke-width="1"></path>
            </g>
            <g id="Door/-Solid" transform="translate(847.500000, 1073.500000) scale(1, -1) translate(-847.500000, -1073.500000) translate(816.000000, 1042.000000)">
                <line x1="62.5" y1="0.5" x2="0.5" y2="0.5" id="Line-3" stroke-width="3" stroke-linecap="square"></line>
                <path d="M1,1 C4.33333333,41.6666667 25,62.3333333 63,63" id="Path-17" stroke-width="1"></path>
            </g>
            <g id="Door/-Solid" transform="translate(186.500000, 1074.500000) scale(-1, -1) translate(-186.500000, -1074.500000) translate(155.000000, 1043.000000)">
                <line x1="62.5" y1="0.5" x2="0.5" y2="0.5" id="Line-3" stroke-width="3" stroke-linecap="square"></line>
                <path d="M1,1 C4.33333333,41.6666667 25,62.3333333 63,63" id="Path-17" stroke-width="1"></path>
            </g>
            <g id="Door/-Solid" transform="translate(695.250000, 1155.750000) scale(1, -1) translate(-695.250000, -1155.750000) translate(666.000000, 1128.500000)">
                <line x1="58.0357143" y1="0.432539683" x2="0.464285714" y2="0.432539683" id="Line-3" stroke-width="3" stroke-linecap="square"></line>
                <path d="M0.928571429,0.865079365 C4.02380952,36.0449735 23.2142857,53.9232804 58.5,54.5" id="Path-17" stroke-width="1"></path>
            </g>
            <g id="Door/-Solid" transform="translate(705.000000, 1306.000000)">
                <line x1="58.0357143" y1="0.432539683" x2="0.464285714" y2="0.432539683" id="Line-3" stroke-width="3" stroke-linecap="square"></line>
                <path d="M0.928571429,0.865079365 C4.02380952,36.0449735 23.2142857,53.9232804 58.5,54.5" id="Path-17" stroke-width="1"></path>
            </g>
            <g id="Door/-Solid" transform="translate(263.250000, 1335.250000) scale(1, -1) translate(-263.250000, -1335.250000) translate(234.000000, 1308.000000)">
                <line x1="58.0357143" y1="0.432539683" x2="0.464285714" y2="0.432539683" id="Line-3" stroke-width="3" stroke-linecap="square"></line>
                <path d="M0.928571429,0.865079365 C4.02380952,36.0449735 23.2142857,53.9232804 58.5,54.5" id="Path-17" stroke-width="1"></path>
            </g>
            <g id="Door/-Solid" transform="translate(174.250000, 1167.306340) scale(-1, 1) translate(-174.250000, -1167.306340) translate(145.000000, 1138.056340)">
                <line x1="58.0357143" y1="0.464285714" x2="0.464285714" y2="0.464285714" id="Line-3" stroke-width="3" stroke-linecap="square"></line>
                <path d="M0.928571429,0.928571429 C4.02380952,38.6904762 23.2142857,57.8809524 58.5,58.5" id="Path-17" stroke-width="1"></path>
            </g>
            <g id="Door/-Solid" transform="translate(705.000000, 1376.000000)">
                <line x1="58.0357143" y1="0.432539683" x2="0.464285714" y2="0.432539683" id="Line-3" stroke-width="3" stroke-linecap="square"></line>
                <path d="M0.928571429,0.865079365 C4.02380952,36.0449735 23.2142857,53.9232804 58.5,54.5" id="Path-17" stroke-width="1"></path>
            </g>
            <g id="Door/-Solid" transform="translate(263.250000, 1405.250000) scale(1, -1) translate(-263.250000, -1405.250000) translate(234.000000, 1378.000000)">
                <line x1="58.0357143" y1="0.432539683" x2="0.464285714" y2="0.432539683" id="Line-3" stroke-width="3" stroke-linecap="square"></line>
                <path d="M0.928571429,0.865079365 C4.02380952,36.0449735 23.2142857,53.9232804 58.5,54.5" id="Path-17" stroke-width="1"></path>
            </g>
            <g id="Door/-Solid" transform="translate(928.250000, 1155.750000) scale(-1, -1) rotate(-270.000000) translate(-928.250000, -1155.750000) translate(899.000000, 1128.500000)">
                <line x1="58.0357143" y1="0.432539683" x2="0.464285714" y2="0.432539683" id="Line-3" stroke-width="3" stroke-linecap="square"></line>
                <path d="M0.928571429,0.865079365 C4.02380952,36.0449735 23.2142857,53.9232804 58.5,54.5" id="Path-17" stroke-width="1"></path>
            </g>
            <g id="Door/-Solid" transform="translate(759.500000, 182.500000) scale(1, -1) translate(-759.500000, -182.500000) translate(728.000000, 151.000000)">
                <line x1="62.5" y1="0.5" x2="0.5" y2="0.5" id="Line-3" stroke-width="3" stroke-linecap="square"></line>
                <path d="M1,1 C4.33333333,41.6666667 25,62.3333333 63,63" id="Path-17" stroke-width="1"></path>
            </g>
            <g id="Door/-Solid" transform="translate(808.000000, 1.000000)">
                <line x1="62.5" y1="0.5" x2="0.5" y2="0.5" id="Line-3" stroke-width="3" stroke-linecap="square"></line>
                <path d="M1,1 C4.33333333,41.6666667 25,62.3333333 63,63" id="Path-17" stroke-width="1"></path>
            </g>
            <g id="Door/-Solid" transform="translate(185.500000, 31.500000) scale(-1, 1) translate(-185.500000, -31.500000) translate(154.000000, 0.000000)">
                <line x1="62.5" y1="0.5" x2="0.5" y2="0.5" id="Line-3" stroke-width="3" stroke-linecap="square"></line>
                <path d="M1,1 C4.33333333,41.6666667 25,62.3333333 63,63" id="Path-17" stroke-width="1"></path>
            </g>
            <g id="Door/-Solid" transform="translate(839.500000, 95.500000) scale(1, -1) translate(-839.500000, -95.500000) translate(808.000000, 64.000000)">
                <line x1="62.5" y1="0.5" x2="0.5" y2="0.5" id="Line-3" stroke-width="3" stroke-linecap="square"></line>
                <path d="M1,1 C4.33333333,41.6666667 25,62.3333333 63,63" id="Path-17" stroke-width="1"></path>
            </g>
            <g id="Door/-Solid" transform="translate(185.500000, 94.500000) scale(-1, -1) translate(-185.500000, -94.500000) translate(154.000000, 63.000000)">
                <line x1="62.5" y1="0.5" x2="0.5" y2="0.5" id="Line-3" stroke-width="3" stroke-linecap="square"></line>
                <path d="M1,1 C4.33333333,41.6666667 25,62.3333333 63,63" id="Path-17" stroke-width="1"></path>
            </g>
            <g id="Door-Copy/-Glass" transform="translate(1026.000000, 350.056340)">
                <path d="M0.444444444,0.452380952 C3.43130227,37.5427547 21.9498208,56.3919611 56,57" id="Path-17"></path>
                <line x1="55.5555556" y1="0.452380952" x2="0.444444444" y2="0.452380952" id="Line-3" stroke-linecap="square"></line>
                <line x1="55.5555556" y1="0.118879623" x2="55.5555556" y2="0.478366112" id="Line" stroke-linecap="square"></line>
                <line x1="55.5555556" y1="0.118879623" x2="55.5555556" y2="0.478366112" id="Line-Copy" stroke-linecap="square"></line>
                <line x1="55.5555556" y1="2.82071606" x2="1.12901982" y2="2.82071606" id="Line-3-Copy" stroke-linecap="square"></line>
            </g>
            <g id="Door-Copy/-Glass" transform="translate(1045.750000, 714.500000) scale(1, -1) translate(-1045.750000, -714.500000) translate(1017.000000, 686.000000)">
                <path d="M0.456349206,0.452380952 C3.52321215,37.5427547 22.5377624,56.3919611 57.5,57" id="Path-17"></path>
                <line x1="57.0436508" y1="0.452380952" x2="0.456349206" y2="0.452380952" id="Line-3" stroke-linecap="square"></line>
                <line x1="57.0436508" y1="0.118879623" x2="57.0436508" y2="0.478366112" id="Line" stroke-linecap="square"></line>
                <line x1="57.0436508" y1="0.118879623" x2="57.0436508" y2="0.478366112" id="Line-Copy" stroke-linecap="square"></line>
                <line x1="57.0436508" y1="2.82071606" x2="1.15926143" y2="2.82071606" id="Line-3-Copy" stroke-linecap="square"></line>
            </g>
            <g id="Door-Copy/-Glass" transform="translate(28.000000, 175.000000) scale(1, -1) rotate(-270.000000) translate(-28.000000, -175.000000) translate(-0.000000, 147.000000)">
                <path d="M0.444444444,0.444444444 C3.43130227,36.8841099 21.9498208,55.4026284 56,56" id="Path-17"></path>
                <line x1="55.5555556" y1="0.444444444" x2="0.444444444" y2="0.444444444" id="Line-3" stroke-linecap="square"></line>
                <line x1="55.5555556" y1="0.118879623" x2="55.5555556" y2="0.478366112" id="Line" stroke-linecap="square"></line>
                <line x1="55.5555556" y1="0.118879623" x2="55.5555556" y2="0.478366112" id="Line-Copy" stroke-linecap="square"></line>
                <line x1="55.5555556" y1="2.81246929" x2="1.12901982" y2="2.81246929" id="Line-3-Copy" stroke-linecap="square"></line>
            </g>
            <g id="Door-Copy/-Glass" transform="translate(1277.750000, 1238.000000) scale(-1, -1) rotate(-270.000000) translate(-1277.750000, -1238.000000) translate(1249.000000, 1210.000000)">
                <path d="M0.456349206,0.444444444 C3.52321215,36.8841099 22.5377624,55.4026284 57.5,56" id="Path-17"></path>
                <line x1="57.0436508" y1="0.444444444" x2="0.456349206" y2="0.444444444" id="Line-3" stroke-linecap="square"></line>
                <line x1="57.0436508" y1="0.118879623" x2="57.0436508" y2="0.478366112" id="Line" stroke-linecap="square"></line>
                <line x1="57.0436508" y1="0.118879623" x2="57.0436508" y2="0.478366112" id="Line-Copy" stroke-linecap="square"></line>
                <line x1="57.0436508" y1="2.81246929" x2="1.15926143" y2="2.81246929" id="Line-3-Copy" stroke-linecap="square"></line>
            </g>
            <g id="Door-Copy/-Glass" transform="translate(1513.750000, 1223.250000) scale(-1, -1) rotate(-270.000000) translate(-1513.750000, -1223.250000) translate(1485.000000, 1195.250000)">
                <path d="M0.456349206,0.444444444 C3.52321215,36.8841099 22.5377624,55.4026284 57.5,56" id="Path-17"></path>
                <line x1="57.0436508" y1="0.444444444" x2="0.456349206" y2="0.444444444" id="Line-3" stroke-linecap="square"></line>
                <line x1="57.0436508" y1="0.118879623" x2="57.0436508" y2="0.478366112" id="Line" stroke-linecap="square"></line>
                <line x1="57.0436508" y1="0.118879623" x2="57.0436508" y2="0.478366112" id="Line-Copy" stroke-linecap="square"></line>
                <line x1="57.0436508" y1="2.81246929" x2="1.15926143" y2="2.81246929" id="Line-3-Copy" stroke-linecap="square"></line>
            </g>
            <g id="Door-Copy/-Glass" transform="translate(1017.000000, 767.000000)">
                <path d="M0.46031746,0.452380952 C3.55384878,37.5427547 22.733743,56.3919611 58,57" id="Path-17"></path>
                <line x1="57.5396825" y1="0.452380952" x2="0.46031746" y2="0.452380952" id="Line-3" stroke-linecap="square"></line>
                <line x1="57.5396825" y1="0.118879623" x2="57.5396825" y2="0.478366112" id="Line" stroke-linecap="square"></line>
                <line x1="57.5396825" y1="0.118879623" x2="57.5396825" y2="0.478366112" id="Line-Copy" stroke-linecap="square"></line>
                <line x1="57.5396825" y1="2.82071606" x2="1.16934196" y2="2.82071606" id="Line-3-Copy" stroke-linecap="square"></line>
            </g>
            <g id="Door-Copy/-Glass" transform="translate(1045.000000, 285.000000) scale(1, -1) translate(-1045.000000, -285.000000) translate(1017.000000, 257.000000)">
                <path d="M0.444444444,0.444444444 C3.43130227,36.8841099 21.9498208,55.4026284 56,56" id="Path-17"></path>
                <line x1="55.5555556" y1="0.444444444" x2="0.444444444" y2="0.444444444" id="Line-3" stroke-linecap="square"></line>
                <line x1="55.5555556" y1="0.118879623" x2="55.5555556" y2="0.478366112" id="Line" stroke-linecap="square"></line>
                <line x1="55.5555556" y1="0.118879623" x2="55.5555556" y2="0.478366112" id="Line-Copy" stroke-linecap="square"></line>
                <line x1="55.5555556" y1="2.81246929" x2="1.12901982" y2="2.81246929" id="Line-3-Copy" stroke-linecap="square"></line>
            </g>
        </g>
    </g>
</svg>