<svg xmlns="http://www.w3.org/2000/svg" width="24" height="24"><path stroke="#000" stroke-width=".4" d="M17.05 13.85a.28.28 0 0 0-.08.2v5.88c0 .2-.06.35-.18.47a.64.64 0 0 1-.47.18H1.96a.64.64 0 0 1-.47-.18.64.64 0 0 1-.18-.47V5.57c0-.2.06-.35.18-.47a.64.64 0 0 1 .47-.18h11.1c.08 0 .15-.03.2-.08l.77-.82c.09-.08.1-.17.07-.27-.04-.1-.12-.14-.23-.14H1.96A1.94 1.94 0 0 0 0 5.57v14.36c0 .54.19 1 .57 1.39.38.38.84.57 1.39.57h14.36a1.96 1.96 0 0 0 1.96-1.96v-6.69c0-.1-.05-.18-.15-.22a.26.26 0 0 0-.26.02l-.82.81zm5.96-7.8c.33-.32.49-.72.49-1.2 0-.47-.16-.87-.49-1.2L20.85 1.5a1.64 1.64 0 0 0-1.2-.49c-.48 0-.88.16-1.2.49L5.66 14.26l-.45 4.08c-.02.27.06.5.25.7.19.18.42.26.7.24l4.07-.45L23.01 6.06zm-3.83 2l-9.51 9.51-3.06.37.33-3.1 9.5-9.5 2.74 2.73zm2.9-3.5c.07.08.11.18.11.3 0 .13-.04.23-.12.31l-1.96 1.96-2.73-2.73 1.96-1.96a.42.42 0 0 1 .3-.12c.13 0 .23.04.31.12l2.12 2.12z"/></svg>