<svg xmlns="http://www.w3.org/2000/svg" width="24" height="24"><g stroke="#000" stroke-width=".4"><path d="M12.94 6.26c.06 0 .1.03.16.08.05.05.08.1.08.15l-.31 7.66c0 .08-.02.14-.06.18-.04.04-.1.05-.18.05h-.78c-.08 0-.14-.01-.18-.05-.04-.04-.05-.1-.05-.18l-.32-7.66c0-.05.03-.1.08-.15.05-.05.1-.08.16-.08h1.4zm-.7 9.91a1.06 1.06 0 0 1 1.1 1.09 1.06 1.06 0 0 1-1.1 1.1 1.06 1.06 0 0 1-1.1-1.1 1.06 1.06 0 0 1 1.1-1.1z"/><path d="M12.88 1.1c.43.15.77.43 1 .85l9.38 16.25c.2.41.27.84.2 1.27A1.87 1.87 0 0 1 21.61 21H2.87a1.87 1.87 0 0 1-1.6-2.81L10.6 1.95c.23-.42.57-.7 1-.84.43-.15.86-.15 1.28 0zm-.64 1.16c-.23 0-.42.1-.55.31h0L2.32 18.82c-.1.21-.1.42.02.63.12.2.3.31.53.31h18.75c.23 0 .4-.1.52-.31s.13-.42.02-.63h0L12.8 2.57a.61.61 0 0 0-.55-.31z"/></g></svg>