<svg viewBox="0 0 24 24"><path d="M21.43 24c.71 0 1.32-.25 1.82-.75s.75-1.1.75-1.82V7.07c0-.71-.25-1.32-.75-1.82l-4.5-4.5c-.5-.5-1.1-.75-1.82-.75H2.57C1.86 0 1.25.25.75.75S0 1.85 0 2.57v18.86c0 .71.25 1.32.75 1.82s1.1.75 1.82.75h18.86zM14.57 6.86H7.71V2.57h6.86v4.29zm6.54 14.57H2.89c-.07 0-.14-.04-.21-.1-.07-.08-.1-.15-.1-.22V2.89c0-.07.03-.14.1-.21.07-.07.14-.1.21-.1h2.25v5.56c0 .36.13.66.38.91s.55.38.9.38h9.44c.35 0 .66-.13.9-.38.26-.25.38-.55.38-.9V2.78l4.18 4.17c.07.08.1.15.1.22V21.1c0 .07-.03.14-.1.21-.07.07-.14.1-.21.1zM12 20.14a4.5 4.5 0 0 0 3.32-1.39 4.53 4.53 0 0 0 1.4-3.32c0-1.29-.47-2.4-1.4-3.32A4.53 4.53 0 0 0 12 10.7c-1.29 0-2.4.47-3.32 1.4a4.53 4.53 0 0 0-1.4 3.32c0 1.28.47 2.4 1.4 3.32.93.93 2.03 1.4 3.32 1.4zm0-2.57c-.6 0-1.12-.2-1.53-.61a2.07 2.07 0 0 1-.61-1.53A2.09 2.09 0 0 1 12 13.29a2.09 2.09 0 0 1 2.14 2.14c0 .6-.2 1.11-.61 1.53-.41.4-.92.61-1.53.61z"/></svg>