<svg xmlns="http://www.w3.org/2000/svg" width="24" height="24"><path stroke="#000" stroke-width=".2" d="M12.52.09c.34.12.6.36.78.72l2.92 5.92 6.55.94c.38.06.69.24.91.54.23.3.33.63.32.99-.02.35-.16.67-.43.94l-4.75 4.62 1.12 6.55c.06.35 0 .7-.2 1-.2.32-.47.52-.83.61-.36.09-.7.05-1.03-.13L12 19.74l-5.88 3.05c-.32.18-.67.22-1.03.13s-.63-.3-.83-.6a1.4 1.4 0 0 1-.2-1.01l1.12-6.55-4.75-4.62A1.38 1.38 0 0 1 0 9.2a1.5 1.5 0 0 1 .32-1c.22-.3.53-.47.91-.53l6.55-.94L10.7.8c.18-.36.44-.6.78-.72.35-.12.7-.12 1.04 0zM12 1.44L8.73 8.03 1.46 9.1l5.25 5.15-1.21 7.27 6.5-3.45 6.55 3.45-1.26-7.27 5.3-5.15-7.32-1.08L12 1.43z"/></svg>