<svg xmlns="http://www.w3.org/2000/svg" width="24" height="24"><path stroke="#000" stroke-width=".4" d="M12 15.73a1.2 1.2 0 0 1 1.24 1.24A1.2 1.2 0 0 1 12 18.2a1.2 1.2 0 0 1-1.24-1.24A1.2 1.2 0 0 1 12 15.73zm-.35-1.07a.51.51 0 0 1-.38-.15.51.51 0 0 1-.16-.38c0-.77.21-1.42.62-1.95.24-.26.62-.57 1.14-.91l.24-.16c.44-.28.74-.51.91-.68l.06-.07c.3-.3.45-.64.45-1.02 0-.47-.2-.87-.62-1.2A2.83 2.83 0 0 0 12 7.56c-.62 0-1.13.1-1.53.32-.33.17-.65.42-.95.76l-.18.21c-.06.09-.16.15-.31.18a.48.48 0 0 1-.4-.09l-.58-.4a.57.57 0 0 1-.22-.35.48.48 0 0 1 .09-.4 6.16 6.16 0 0 1 1.64-1.47A5.3 5.3 0 0 1 12 5.79a4.8 4.8 0 0 1 3.06.98 3.1 3.1 0 0 1 1.24 2.57c0 .74-.2 1.36-.62 1.86-.23.29-.61.6-1.14.96l-.23.15c-.5.33-.85.58-1.02.75-.27.33-.4.68-.4 1.07a.5.5 0 0 1-.16.38c-.1.1-.23.15-.38.15h-.7zM12 2.42a9.59 9.59 0 1 0 0 19.16 9.59 9.59 0 0 0 0-19.16zM12 1a11.12 11.12 0 0 1 11 11 11.12 11.12 0 0 1-11 11A11.12 11.12 0 0 1 1 12 11.12 11.12 0 0 1 12 1z"/></svg>