<svg xmlns="http://www.w3.org/2000/svg" width="24" height="24"><path stroke="#000" stroke-width=".2" d="M20.44 11.5c.97 0 1.8.37 2.5 1.1A3.7 3.7 0 0 1 24 15.25c0 .22-.07.4-.21.54a.73.73 0 0 1-.54.21.73.73 0 0 1-.54-.21.73.73 0 0 1-.21-.54c0-.63-.2-1.16-.6-1.6-.42-.43-.9-.65-1.46-.65h-1.88c-.25 0-.5.05-.75.14a7.48 7.48 0 0 0-1.17-1.03c.6-.4 1.23-.61 1.92-.61h1.88zm-7.69.94c.87 0 1.7.18 2.46.56a4.5 4.5 0 0 1 1.85 1.64c.63.9.94 1.9.94 3v2.11c0 .62-.22 1.16-.66 1.6-.43.43-.97.65-1.59.65H2.25c-.63 0-1.16-.22-1.6-.66A2.17 2.17 0 0 1 0 19.75v-2.1c0-1.1.31-2.1.94-3A4.58 4.58 0 0 1 2.79 13a5.52 5.52 0 0 1 4.2-.28A8 8 0 0 0 9 13a8 8 0 0 0 2.02-.28 6.42 6.42 0 0 1 1.73-.28zm0 1.5c-.31 0-.69.05-1.13.16l-.28.07a8.75 8.75 0 0 1-4.28.1l-.4-.1a5.45 5.45 0 0 0-1.41-.23c-.66 0-1.26.13-1.8.4-.55.26-.98.64-1.3 1.14a3.8 3.8 0 0 0-.65 2.16v2.11c0 .22.07.4.21.54.14.14.32.21.54.21h13.5c.22 0 .4-.07.54-.21a.73.73 0 0 0 .21-.54v-2.1c0-.8-.22-1.5-.66-2.17-.34-.5-.78-.88-1.3-1.14a3.93 3.93 0 0 0-1.79-.4zM19.5 2.5c1.03 0 1.91.37 2.65 1.1.73.74 1.1 1.62 1.1 2.65 0 1.03-.37 1.91-1.1 2.65A3.61 3.61 0 0 1 19.5 10a3.61 3.61 0 0 1-2.65-1.1 3.61 3.61 0 0 1-1.1-2.65c0-1.03.37-1.91 1.1-2.65a3.61 3.61 0 0 1 2.65-1.1zm0 1.5c-.63 0-1.16.22-1.6.66-.43.43-.65.96-.65 1.59 0 .62.22 1.16.66 1.6.43.43.96.65 1.59.65.62 0 1.16-.22 1.6-.66.43-.43.65-.97.65-1.59 0-.63-.22-1.16-.66-1.6A2.17 2.17 0 0 0 19.5 4zM9 1a5.17 5.17 0 0 1 4.55 2.62 5.17 5.17 0 0 1 0 5.25 5.17 5.17 0 0 1-7.17 1.92 5.17 5.17 0 0 1-1.92-7.17A5.17 5.17 0 0 1 9 1zm0 1.5c-1.03 0-1.91.37-2.65 1.1a3.61 3.61 0 0 0-1.1 2.65c0 1.03.37 1.91 1.1 2.65C7.1 9.63 7.97 10 9 10c1.03 0 1.91-.37 2.65-1.1a3.61 3.61 0 0 0 1.1-2.65c0-1.03-.37-1.91-1.1-2.65A3.61 3.61 0 0 0 9 2.5z"/></svg>