<svg viewBox="0 0 24 24"><path d="M11.9 4.1h6.65c.43.04.8.2 1.13.47l.13.13 3.6 3.59.12.13c.27.33.43.7.46 1.13l.01.2v11.62a2 2 0 0 1-.6 1.26c-.35.36-.77.55-1.26.6H6.72a1.96 1.96 0 0 1-1.26-.6 1.96 1.96 0 0 1-.6-1.26v-9.24l.15.01h.91c.4 0 .72-.1 1-.31v9.15a.3.3 0 0 0 .08.11.3.3 0 0 0 .11.08l.06.01h14.52c.06 0 .12-.03.17-.09a.3.3 0 0 0 .08-.1V9.76a.26.26 0 0 0-.04-.08l-.04-.03-3.33-3.34v4.42a.98.98 0 0 1-.3.6.98.98 0 0 1-.58.28l-.14.01H9.85a.98.98 0 0 1-.59-.3.98.98 0 0 1-.29-.59V7.6h1.51c.2 0 .37-.02.53-.07v2.05h5.47V6.15h-4.34v-.1l.01-.13v-.9c0-.36-.09-.66-.26-.92zm2.53 8.55c1.03 0 1.9.37 2.65 1.1a3.62 3.62 0 0 1 1.11 2.66 3.6 3.6 0 0 1-1.11 2.64 3.62 3.62 0 0 1-2.65 1.11c-1.02 0-1.9-.37-2.65-1.1a3.62 3.62 0 0 1-1.1-2.65 3.6 3.6 0 0 1 1.1-2.65 3.62 3.62 0 0 1 2.65-1.11zm0 2.05a1.68 1.68 0 0 0-1.71 1.71c0 .48.17.89.5 1.21.32.33.73.5 1.21.5s.89-.17 1.22-.5c.33-.32.49-.73.49-1.21 0-.49-.16-.9-.5-1.22-.32-.33-.73-.5-1.21-.5zM5.27 0h.08a.4.4 0 0 1 .32.4v3.65H9.4a.4.4 0 0 1 .32.4v.91a.38.38 0 0 1-.11.2.4.4 0 0 1-.3.12H5.68V9.4a.38.38 0 0 1-.11.2.4.4 0 0 1-.3.12h-.89a.38.38 0 0 1-.2-.11.4.4 0 0 1-.12-.3V5.68H.32a.38.38 0 0 1-.2-.11.4.4 0 0 1-.12-.3v-.89a.38.38 0 0 1 .11-.2.4.4 0 0 1 .3-.12h3.64V.32a.38.38 0 0 1 .11-.2.4.4 0 0 1 .3-.12h.8z"/></svg>
