<svg viewBox="0 0 24 24"><path d="M21.96 23c.57 0 1.05-.2 1.45-.6.4-.39.59-.87.59-1.44V9.6c0-.57-.2-1.05-.6-1.44l-3.56-3.57c-.4-.4-.87-.59-1.44-.59H7.04c-.57 0-1.05.2-1.45.6-.4.39-.59.87-.59 1.44v14.92c0 .57.2 1.05.6 1.45.39.4.87.59 1.44.59h14.92zM17 10h-6V6h6v4zm4.74 11H7.26a.22.22 0 0 1-.17-.09c-.06-.05-.09-.1-.09-.17V6.26c0-.06.03-.12.09-.17.05-.06.1-.09.17-.09h1.79v4.43c0 .29.1.53.3.73.2.2.43.3.72.3h7.5c.28 0 .52-.1.72-.3.2-.2.3-.44.3-.73V6.17l3.32 3.32c.06.06.09.12.09.17v11.08c0 .06-.03.12-.09.17-.05.06-.1.09-.17.09zM15 20c1.1 0 2.03-.4 2.82-1.18A3.85 3.85 0 0 0 19 16c0-1.1-.4-2.03-1.18-2.82A3.85 3.85 0 0 0 15 12c-1.1 0-2.03.4-2.82 1.18A3.85 3.85 0 0 0 11 16c0 1.1.4 2.03 1.18 2.82A3.85 3.85 0 0 0 15 20zm0-2a2 2 0 0 1-1.43-.57A1.94 1.94 0 0 1 13 16a2 2 0 0 1 .57-1.43c.39-.38.86-.57 1.43-.57s1.04.2 1.43.57c.38.39.57.86.57 1.43s-.2 1.04-.57 1.43c-.39.38-.86.57-1.43.57z"/></svg>