<svg viewBox="0 0 24 24"><path d="M12 0c2.16 0 4.16.54 6 1.62A12.13 12.13 0 0 1 24 12c0 2.16-.54 4.16-1.62 6A12.13 12.13 0 0 1 12 24c-2.16 0-4.16-.54-6-1.62A12.13 12.13 0 0 1 0 12c0-2.16.54-4.16 1.62-6A12.13 12.13 0 0 1 12 0zm0 2.32A9.76 9.76 0 0 0 2.32 12 9.76 9.76 0 0 0 12 21.68 9.76 9.76 0 0 0 21.68 12 9.76 9.76 0 0 0 12 2.32zm5.27 5.03a.6.6 0 0 1 .44.2l1.06 1.06.07.08c.09.11.13.23.13.36 0 .16-.07.29-.2.39l-8.32 8.27-.08.07a.57.57 0 0 1-.35.12.46.46 0 0 1-.4-.19l-4.4-4.4-.06-.08a.57.57 0 0 1-.13-.36c0-.16.07-.29.2-.39l1.1-1.1.07-.06c.09-.06.2-.1.33-.1.16 0 .3.05.43.15l2.86 2.95 6.87-6.82.06-.05c.09-.06.2-.1.32-.1z"/></svg>