<?xml version="1.0" encoding="UTF-8"?>
<svg width="1921px" height="808px" viewBox="0 0 1921 808" version="1.1" xmlns="http://www.w3.org/2000/svg" xmlns:xlink="http://www.w3.org/1999/xlink">
    <!-- Generator: Sketch 55.2 (78181) - https://sketchapp.com -->
    <title>node</title>
    <desc>Created with Sketch.</desc>
    <g id="Page-1" stroke="none" stroke-width="1" fill="none" fill-rule="evenodd">
        <g id="node">
            <rect id="Rectangle" fill="#F4F6F8" fill-rule="nonzero" opacity="0.00576636905" x="0" y="0" width="1921" height="807"></rect>
            <g id="Modal" transform="translate(1.000000, 49.000000)" fill="#292C36" fill-rule="nonzero" opacity="0.5">
                <rect id="--c-overlay" x="0.5" y="0.5" width="1583" height="758"></rect>
            </g>
            <g id="Node-Wrapper" transform="translate(25.000000, 102.000000)">
                <rect id="--c-surface-bg" fill="#FFFFFF" x="0" y="0" width="1530" height="668" rx="4"></rect>
                <g id="Footer" transform="translate(0.000000, 620.000000)">
                    <path d="M0,0 L1530,0 L1530,44 C1530,46.209139 1528.20914,48 1526,48 L4,48 C1.790861,48 2.705415e-16,46.209139 0,44 L0,0 Z" id="--c-footer-bar" fill="#DDDCDF"></path>
                    <g id="secondary" transform="translate(1310.500000, 8.000000)">
                        <rect id="--c-s-button-bg" fill="#DDDCDF" opacity="0" x="0.5" y="0" width="90" height="32" rx="4"></rect>
                        <text id="--c-s-button" font-family="SourceSansPro-Bold, Source Sans Pro" font-size="16" font-weight="bold" line-spacing="20" fill="#292C36">
                            <tspan x="21.884" y="21">Cancel</tspan>
                        </text>
                    </g>
                    <g id="primary" transform="translate(1411.000000, 8.000000)">
                        <rect id="--c-p-button-bg" stroke="#292C36" fill="#F4F4F4" x="0.5" y="0.5" width="102" height="31" rx="4"></rect>
                        <text id="--c-p-button" font-family="SourceSansPro-Bold, Source Sans Pro" font-size="16" font-weight="bold" line-spacing="20" fill="#292C36">
                            <tspan x="33.292" y="21">Apply</tspan>
                        </text>
                    </g>
                </g>
                <g id="Query-String" transform="translate(0.000000, 483.000000)">
                    <text id="--c-font-label" font-family="SourceSansPro-Regular, Source Sans Pro" font-size="14" font-weight="normal" fill="#637381">
                        <tspan x="8" y="14">Query String</tspan>
                    </text>
                    <path d="M2,23 L1528,23 C1529.10457,23 1530,23.8954305 1530,25 L1530,113 C1530,114.104569 1529.10457,115 1528,115 L2,115 C0.8954305,115 0,114.104569 0,113 L0,25 C0,23.8954305 0.8954305,23 2,23 Z M2,24 C1.44771525,24 1,24.4477153 1,25 L1,113 C1,113.552285 1.44771525,114 2,114 L1528,114 C1528.55228,114 1529,113.552285 1529,113 L1529,25 C1529,24.4477153 1528.55228,24 1528,24 L2,24 Z" id="--c-border" fill="#979797" fill-rule="nonzero"></path>
                    <text id="--c-text" font-family="SourceSansPro-Regular, Source Sans Pro" font-size="14" font-weight="normal" fill="#272C37">
                        <tspan x="8" y="45">Asset-&gt;IsActive eq true</tspan>
                    </text>
                </g>
                <g id="Arrows" transform="translate(766.000000, 459.000000)" fill="#000000" fill-rule="nonzero">
                    <path d="M8.12896983,23.6400947 L14.8970607,12.2241515 C15.2341687,11.6685083 14.6896096,11.011839 14.0413251,11.2138911 L10.6183826,12.2999211 L10.6183826,0.70718232 C10.6183826,0.328334649 10.307206,0 9.89230385,0 L5.09499806,0 C4.70602732,0 4.36891935,0.303078137 4.36891935,0.70718232 L4.36891935,12.2999211 L0.945976839,11.2138911 C0.323623656,11.011839 -0.22093538,11.6685083 0.0902412116,12.2241515 L6.85833208,23.6400947 C7.16950868,24.1199684 7.84372463,24.1199684 8.12896983,23.6400947 Z" id="--c-text"></path>
                    <path d="M43.6709012,23.6400947 L50.8901981,12.2241515 C51.2497799,11.6685083 50.668917,11.011839 49.9774134,11.2138911 L46.3262747,12.2999211 L46.3262747,0.70718232 C46.3262747,0.328334649 45.994353,0 45.5517908,0 L40.4346646,0 C40.0197625,0 39.6601806,0.303078137 39.6601806,0.70718232 L39.6601806,12.2999211 L36.009042,11.2138911 C35.3451986,11.011839 34.7643356,11.6685083 35.0962573,12.2241515 L42.3155542,23.6400947 C42.6474759,24.1199684 43.3666396,24.1199684 43.6709012,23.6400947 Z" id="--c-text" transform="translate(43.000000, 12.000000) rotate(-180.000000) translate(-43.000000, -12.000000) "></path>
                </g>
                <g id="Node" transform="translate(34.000000, 190.000000)">
                    <g id="Lines" transform="translate(160.000000, 7.000000)">
                        <path d="M1,8.5 L20,8.5" id="Line-Copy" stroke="#98999D" stroke-linecap="square"></path>
                        <path d="M49,8.5 L68,8.5" id="Line-Copy" stroke="#98999D" stroke-linecap="square"></path>
                        <path d="M153,8.5 L172,8.5" id="Line-Copy" stroke="#98999D" stroke-linecap="square"></path>
                        <path d="M627,8.5 L646,8.5" id="Line-Copy-2" stroke="#98999D" stroke-linecap="square"></path>
                        <path d="M219,8.5 L238,8.5" id="Line-Copy" stroke="#98999D" stroke-linecap="square"></path>
                        <path d="M684,8.5 L703,8.5" id="Line-Copy-3" stroke="#98999D" stroke-linecap="square"></path>
                        <path d="M267,8.5 L286,8.5" id="Line-Copy" stroke="#98999D" stroke-linecap="square"></path>
                        <path d="M423,8.5 L442,8.5" id="Line-Copy" stroke="#98999D" stroke-linecap="square"></path>
                        <path d="M471,8.5 L490,8.5" id="Line-Copy" stroke="#98999D" stroke-linecap="square"></path>
                        <path d="M1031,8.5 L1050,8.5" id="Line-Copy" stroke="#98999D" stroke-linecap="square"></path>
                        <path d="M1079,8.5 L1098,8.5" id="Line-Copy" stroke="#98999D" stroke-linecap="square"></path>
                        <path d="M1235,8.5 L1254,8.5" id="Line-Copy" stroke="#98999D" stroke-linecap="square"></path>
                        <path d="M1283,8.5 L1302,8.5" id="Line-Copy" stroke="#98999D" stroke-linecap="square"></path>
                        <path d="M1310.90279,-1.42108547e-14 C1312.50625,-1.42108547e-14 1313.99005,0.400865094 1315.35419,1.20259473 C1316.71832,2.00432437 1317.80126,3.08725812 1318.60299,4.45139543 C1319.40472,5.81553274 1319.80558,7.29933104 1319.80558,8.90279087 C1319.80558,10.5062507 1319.40472,11.990049 1318.60299,13.3541863 C1317.80126,14.7183236 1316.71832,15.8012574 1315.35419,16.602987 C1313.99005,17.4047166 1312.50625,17.8055817 1310.90279,17.8055817 C1309.29933,17.8055817 1307.81553,17.4047166 1306.4514,16.602987 C1305.08726,15.8012574 1304.00432,14.7183236 1303.20259,13.3541863 C1302.40087,11.990049 1302,10.5062507 1302,8.90279087 C1302,7.29933104 1302.40087,5.81553274 1303.20259,4.45139543 C1304.00432,3.08725812 1305.08726,2.00432437 1306.4514,1.20259473 C1307.81553,0.400865094 1309.29933,-1.42108547e-14 1310.90279,-1.42108547e-14 Z M1316.07215,9.90794468 L1316.07215,7.89763706 C1316.07215,7.77797607 1316.03027,7.67626372 1315.94651,7.59250108 C1315.86275,7.50873845 1315.76103,7.46685686 1315.64137,7.46685686 L1312.33872,7.46685686 L1312.33872,4.16420863 C1312.33872,4.04454765 1312.29684,3.94283529 1312.21308,3.85907265 C1312.12932,3.77531002 1312.02761,3.73342843 1311.90794,3.73342843 L1309.89764,3.73342843 C1309.77798,3.73342843 1309.67626,3.77531002 1309.5925,3.85907265 C1309.50874,3.94283529 1309.46686,4.04454765 1309.46686,4.16420863 L1309.46686,7.46685686 L1306.16421,7.46685686 C1306.04455,7.46685686 1305.94284,7.50873845 1305.85907,7.59250108 C1305.77531,7.67626372 1305.73343,7.77797607 1305.73343,7.89763706 L1305.73343,9.90794468 C1305.73343,10.0276057 1305.77531,10.129318 1305.85907,10.2130807 C1305.94284,10.2968433 1306.04455,10.3387249 1306.16421,10.3387249 L1309.46686,10.3387249 L1309.46686,13.6413731 C1309.46686,13.7610341 1309.50874,13.8627464 1309.5925,13.9465091 C1309.67626,14.0302717 1309.77798,14.0721533 1309.89764,14.0721533 L1311.90794,14.0721533 C1312.02761,14.0721533 1312.12932,14.0302717 1312.21308,13.9465091 C1312.29684,13.8627464 1312.33872,13.7610341 1312.33872,13.6413731 L1312.33872,10.3387249 L1315.64137,10.3387249 C1315.76103,10.3387249 1315.86275,10.2968433 1315.94651,10.2130807 C1316.03027,10.129318 1316.07215,10.0276057 1316.07215,9.90794468 Z" id="--c-accent" fill="#0076C2" fill-rule="nonzero"></path>
                    </g>
                    <g id="Close-Bracket" transform="translate(1414.000000, 0.000000)">
                        <rect id="--c-node-fill" fill="#F4F4F4" x="0" y="0" width="29" height="32" rx="3"></rect>
                        <path d="M3,0 L26,0 C27.6568542,0 29,1.34314575 29,3 L29,29 C29,30.6568542 27.6568542,32 26,32 L3,32 C1.34314575,32 0,30.6568542 0,29 L0,3 C0,1.34314575 1.34314575,0 3,0 Z M3,1 C1.8954305,1 1,1.8954305 1,3 L1,29 C1,30.1045695 1.8954305,31 3,31 L26,31 C27.1045695,31 28,30.1045695 28,29 L28,3 C28,1.8954305 27.1045695,1 26,1 L3,1 Z" id="--c-node-border" fill="#0276C2" fill-rule="nonzero"></path>
                        <text id="--c-text" font-family="SourceSansPro-Regular, Source Sans Pro" font-size="16" font-weight="normal" fill="#292C36">
                            <tspan x="14" y="21">)</tspan>
                        </text>
                    </g>
                    <g id="UtcNow" transform="translate(1258.000000, 0.000000)">
                        <rect id="--c-node-fill" fill="#F4F4F4" x="0" y="0" width="137" height="32" rx="3"></rect>
                        <path d="M3,0 L134,0 C135.656854,0 137,1.34314575 137,3 L137,29 C137,30.6568542 135.656854,32 134,32 L3,32 C1.34314575,32 0,30.6568542 0,29 L0,3 C0,1.34314575 1.34314575,0 3,0 Z M3,1 C1.8954305,1 1,1.8954305 1,3 L1,29 C1,30.1045695 1.8954305,31 3,31 L134,31 C135.104569,31 136,30.1045695 136,29 L136,3 C136,1.8954305 135.104569,1 134,1 L3,1 Z" id="--c-node-border" fill="#0276C2" fill-rule="nonzero"></path>
                        <text id="--c-text" font-family="SourceSansPro-Regular, Source Sans Pro" font-size="16" font-weight="normal" fill="#292C36">
                            <tspan x="44" y="22">UtcNow</tspan>
                        </text>
                        <rect id="--c-node-line" fill="#94959A" x="37" y="1" width="2" height="28"></rect>
                        <path d="M119.749989,18.8750075 L115.125,14.2812684 C115.041666,14.1979351 115,14.1093938 115,14.015644 C115,13.9218943 115.03125,13.833353 115.09375,13.7500197 L115.718748,13.1250212 C115.802082,13.0625213 115.895831,13.0312714 116,13.0312714 C116.104164,13.0312714 116.187497,13.0625213 116.249997,13.1250212 L119.999988,16.8437623 L123.749979,13.1250212 C123.812479,13.0625213 123.895812,13.0312714 123.999979,13.0312714 C124.104145,13.0312714 124.197895,13.0625213 124.281228,13.1250212 L124.906226,13.7500197 C124.968726,13.833353 124.999976,13.9218943 124.999976,14.015644 C124.999976,14.1093938 124.968726,14.1979351 124.906226,14.2812684 L120.281237,18.8750075 C120.197904,18.9375073 120.104154,18.9687572 119.999988,18.9687572 C119.895822,18.9687572 119.802072,18.9375073 119.718739,18.8750075 L119.749989,18.8750075 Z" id="--c-text" fill="#292C36" fill-rule="nonzero"></path>
                        <path d="M10.818,23.901 C11.112,23.754 11.414,23.529 11.724,23.225 C12.034,22.922 12.324,22.524 12.598,22.032 C12.871,21.54 13.064,20.922 13.181,20.179 L14.189,13.789 L15.937,13.789 C16.095,13.516 16.147,13.242 16.095,12.969 L14.347,12.969 L14.504,12.182 C14.619,11.637 14.741,11.206 14.867,10.89 C14.992,10.575 15.127,10.331 15.268,10.158 C15.385443,10.0036401 15.5403278,9.88179738 15.718,9.804 C15.875,9.74 16.048,9.684 16.237,9.631 L17.434,10.607 C17.644,10.429 17.794,10.217 17.884,9.97 C17.972,9.723 18.028,9.484 18.048,9.253 C17.8510606,9.15962394 17.6415012,9.09561059 17.426,9.063 C17.2150912,9.02448966 17.0013685,9.00341841 16.787,9 C16.357,9 15.953,9.047 15.575,9.143 C15.1962841,9.23755106 14.8420779,9.41175641 14.536,9.654 C14.221,9.9 13.946,10.237 13.709,10.662 C13.473,11.087 13.286,11.625 13.15,12.276 L13.04,12.828 C12.5732641,12.9516576 12.1235427,13.1323523 11.701,13.366 L11.701,13.79 L12.851,13.79 L11.828,20.478 C11.758391,20.9472252 11.6393971,21.4077819 11.473,21.852 C11.3435127,22.1998898 11.1800561,22.5341719 10.985,22.85 C10.8382232,23.0888532 10.6607044,23.3073895 10.457,23.5 C10.3199895,23.6320325 10.1663637,23.7456551 10,23.838 L10.142,24.184 C10.3752924,24.1099344 10.6015205,24.0152265 10.818,23.901 L10.818,23.901 Z M16.457,19.001 C16.4506925,19.9375146 16.6468355,20.8643328 17.032,21.718 C17.415,22.564 18.057,23.375 18.961,24.152 L19.419,23.836 C18.799,23.081 18.374,22.29 18.142,21.466 C17.9062709,20.6018844 17.7951493,19.7085334 17.812,18.813 C17.7950265,17.8680847 17.9307743,16.9266298 18.214,16.025 C18.4782269,15.1847904 18.8403825,14.3785829 19.293,13.623 C19.733,12.894 20.222,12.23 20.757,11.631 C21.2474006,11.0778173 21.7735281,10.5573687 22.332,10.073 L22.064,9.788 C21.434,10.188 20.788,10.673 20.127,11.246 C19.4490585,11.8363751 18.8434992,12.5050416 18.323,13.238 C17.7629056,14.0291847 17.3127967,14.8927345 16.985,15.805 C16.632,16.76 16.457,17.825 16.457,19.001 L16.457,19.001 Z M21.796,13.457 L21.796,13.851 L22.804,13.977 L23.874,16.875 C23.706,17.023 23.454,17.245 23.118,17.545 C22.7594896,17.8657927 22.4125999,18.1993404 22.078,18.545 C21.7298786,18.9024214 21.4039371,19.280794 21.102,19.678 C20.808,20.067 20.614,20.418 20.519,20.734 C20.751,20.87 21.039,20.939 21.385,20.939 C21.553,20.939 21.728,20.923 21.913,20.891 C22.0996763,20.8588642 22.2821532,20.8058654 22.457,20.733 C22.4435449,20.6366122 22.4378599,20.5392988 22.44,20.442 C22.44,20.311 22.443,20.169 22.448,20.017 L22.464,19.584 C22.4654302,19.4778288 22.4788486,19.372159 22.504,19.269 C22.5903845,19.113185 22.6908004,18.9655735 22.804,18.828 C22.9336535,18.6646788 23.070107,18.5068732 23.213,18.355 C23.36,18.199 23.509,18.045 23.662,17.899 C23.813,17.752 23.948,17.615 24.063,17.489 L24.93,20.34 C24.983,20.508 25.068,20.65 25.184,20.765 C25.301,20.881 25.472,20.939 25.696,20.939 C25.833,20.939 25.986,20.919 26.15,20.876 C26.3085628,20.836654 26.4634626,20.783794 26.613,20.718 C26.758,20.656 26.89,20.592 27.013,20.529 C27.1085352,20.4809414 27.2016478,20.428211 27.292,20.371 L27.292,19.977 L26.269,19.851 L25.135,16.78 C25.239,16.685 25.384,16.557 25.568,16.394 C25.751,16.232 25.948,16.048 26.158,15.842 C26.368,15.638 26.585,15.417 26.812,15.181 C27.038,14.945 27.25,14.706 27.449,14.464 C27.649,14.223 27.821,13.981 27.969,13.74 C28.116,13.498 28.221,13.273 28.284,13.062 C28.0111433,12.9207348 27.7071824,12.8502462 27.4,12.857 C27.22,12.857 27.044,12.876 26.871,12.913 C26.6915516,12.9512789 26.5148323,13.0013884 26.342,13.063 C26.353,13.127 26.364,13.223 26.374,13.353 L26.405,13.779 C26.416,13.932 26.421,14.075 26.421,14.212 C26.421,14.349 26.416,14.454 26.406,14.528 C26.2262794,14.843635 26.0060817,15.1344304 25.751,15.393 C25.4899175,15.6697756 25.2248905,15.9428036 24.956,16.212 L24.185,13.472 C24.12431,13.3192188 24.0380808,13.1778706 23.93,13.054 C23.824,12.934 23.654,12.873 23.42,12.873 C23.272,12.873 23.118,12.893 22.96,12.935 C22.8,12.977 22.643,13.03 22.488,13.094 C22.3458519,13.1505687 22.2075566,13.2163759 22.074,13.291 C21.979593,13.3433653 21.8868793,13.3987268 21.796,13.457 L21.796,13.457 Z M30.986,12.464 C31.106,12.842 31.19,13.226 31.238,13.614 C31.285,14.004 31.31,14.423 31.31,14.874 C31.31,15.924 31.16,16.911 30.86,17.835 C30.5802067,18.7159148 30.2049792,19.5636137 29.741,20.363 C29.295,21.123 28.807,21.799 28.278,22.386 C27.8184932,22.9057963 27.3204121,23.3901719 26.788,23.835 L27.104,24.151 C27.776,23.762 28.439,23.271 29.096,22.677 C29.7649148,22.0691286 30.3597006,21.3843864 30.868,20.637 C31.393,19.872 31.818,19.018 32.144,18.079 C32.476303,17.0974947 32.6415968,16.0671969 32.633,15.031 C32.633,14.045 32.436,13.129 32.043,12.284 C31.649,11.438 31,10.606 30.097,9.787 L29.687,10.071 C30.013,10.512 30.281,10.926 30.491,11.315 C30.701,11.703 30.866,12.087 30.986,12.465 L30.986,12.464 Z" id="--c-node-icon" fill="#C4C4C7" fill-rule="nonzero"></path>
                    </g>
                    <g id="Arrow" transform="translate(1210.000000, 0.000000)">
                        <rect id="--c-node-fill" fill="#F4F4F4" x="0" y="0" width="29" height="32" rx="3"></rect>
                        <path d="M3,0 L26,0 C27.6568542,0 29,1.34314575 29,3 L29,29 C29,30.6568542 27.6568542,32 26,32 L3,32 C1.34314575,32 0,30.6568542 0,29 L0,3 C0,1.34314575 1.34314575,0 3,0 Z M3,1 C1.8954305,1 1,1.8954305 1,3 L1,29 C1,30.1045695 1.8954305,31 3,31 L26,31 C27.1045695,31 28,30.1045695 28,29 L28,3 C28,1.8954305 27.1045695,1 26,1 L3,1 Z" id="--c-node-border" fill="#0276C2" fill-rule="nonzero"></path>
                        <path d="M18.874986,15.2500137 L14.2812469,19.8750027 C14.1979137,19.958336 14.1093724,20.0000024 14.0156226,20.0000024 C13.9218728,20.0000024 13.8333315,19.9687525 13.7499982,19.9062526 L13.1249997,19.2812541 C13.0624999,19.1979208 13.0312499,19.104171 13.0312499,19.0000048 C13.0312499,18.8958385 13.0624999,18.8125052 13.1249997,18.7500054 L16.8437408,15.0000143 L13.1249997,11.2500232 C13.0624999,11.1875234 13.0312499,11.1041901 13.0312499,11.0000262 C13.0312499,10.8958576 13.0624999,10.8021078 13.1249997,10.7187745 L13.7499982,10.093776 C13.8333315,10.0312762 13.9218728,10.0000262 14.0156226,10.0000262 C14.1093724,10.0000262 14.1979137,10.0312762 14.2812469,10.093776 L18.874986,14.718765 C18.9374858,14.8020983 18.9687358,14.895848 18.9687358,15.0000143 C18.9687358,15.1041806 18.9374858,15.1979303 18.874986,15.2812636 L18.874986,15.2500137 Z" id="--c-text" fill="#292C36" fill-rule="nonzero"></path>
                    </g>
                    <g id="Arrow" transform="translate(1210.000000, 0.000000)" fill-rule="nonzero">
                        <path d="M3,0 L26,0 C27.6568542,0 29,1.34314575 29,3 L29,29 C29,30.6568542 27.6568542,32 26,32 L3,32 C1.34314575,32 0,30.6568542 0,29 L0,3 C0,1.34314575 1.34314575,0 3,0 Z M3,1 C1.8954305,1 1,1.8954305 1,3 L1,29 C1,30.1045695 1.8954305,31 3,31 L26,31 C27.1045695,31 28,30.1045695 28,29 L28,3 C28,1.8954305 27.1045695,1 26,1 L3,1 Z" id="Rectangle" fill="#0276C2"></path>
                        <path d="M18.874986,15.2500137 L14.2812469,19.8750027 C14.1979137,19.958336 14.1093724,20.0000024 14.0156226,20.0000024 C13.9218728,20.0000024 13.8333315,19.9687525 13.7499982,19.9062526 L13.1249997,19.2812541 C13.0624999,19.1979208 13.0312499,19.104171 13.0312499,19.0000048 C13.0312499,18.8958385 13.0624999,18.8125052 13.1249997,18.7500054 L16.8437408,15.0000143 L13.1249997,11.2500232 C13.0624999,11.1875234 13.0312499,11.1041901 13.0312499,11.0000262 C13.0312499,10.8958576 13.0624999,10.8021078 13.1249997,10.7187745 L13.7499982,10.093776 C13.8333315,10.0312762 13.9218728,10.0000262 14.0156226,10.0000262 C14.1093724,10.0000262 14.1979137,10.0312762 14.2812469,10.093776 L18.874986,14.718765 C18.9374858,14.8020983 18.9687358,14.895848 18.9687358,15.0000143 C18.9687358,15.1041806 18.9374858,15.1979303 18.874986,15.2812636 L18.874986,15.2500137 Z" id="--c-text" fill="#292C36"></path>
                    </g>
                    <g id="Asset" transform="translate(865.000000, 0.000000)">
                        <rect id="--c-node-fill" fill="#F4F4F4" x="0" y="0" width="326" height="32" rx="3"></rect>
                        <path d="M3,0 L323,0 C324.656854,0 326,1.34314575 326,3 L326,29 C326,30.6568542 324.656854,32 323,32 L3,32 C1.34314575,32 0,30.6568542 0,29 L0,3 C0,1.34314575 1.34314575,0 3,0 Z M3,1 C1.8954305,1 1,1.8954305 1,3 L1,29 C1,30.1045695 1.8954305,31 3,31 L323,31 C324.104569,31 325,30.1045695 325,29 L325,3 C325,1.8954305 324.104569,1 323,1 L3,1 Z" id="--c-node-border" fill="#0276C2" fill-rule="nonzero"></path>
                        <text id="--c-text" font-family="SourceSansPro-Regular, Source Sans Pro" font-size="16" font-weight="normal" fill="#292C36">
                            <tspan x="44" y="22">Asset -&gt; *Id.WorkOrder.Asset_CreatedOn</tspan>
                        </text>
                        <rect id="--c-node-line" fill="#94959A" x="37" y="1" width="2" height="28"></rect>
                        <path d="M14,16.1093914 L14,8.93753353 C14,8.46878482 14.1640623,8.07034792 14.4921863,7.74222388 C14.8203104,7.41409984 15.2187473,7.25003755 15.687496,7.25003755 L22.8593539,7.25003755 C23.3281026,7.25003755 23.7265395,7.41409984 24.0546635,7.74222388 L31.5077708,15.1953311 C31.8358948,15.5234551 31.9999571,15.9218921 31.9999571,16.3906408 C31.9999571,16.8593895 31.8358948,17.2578264 31.5077708,17.5859504 L24.3359129,24.7578083 C24.0077888,25.0859323 23.6093519,25.2499946 23.1406032,25.2499946 C22.6718545,25.2499946 22.2734176,25.0859323 21.9452936,24.7578083 L14.4921863,17.3047011 C14.1640623,16.976577 14,16.5781401 14,16.1093914 Z M17.9374906,9.50003219 C17.4687419,9.50003219 17.070305,9.66409447 16.742181,9.99221851 C16.4140569,10.3203426 16.2499946,10.7187795 16.2499946,11.1875282 C16.2499946,11.6562769 16.4140569,12.0547138 16.742181,12.3828378 C17.070305,12.7109619 17.4687419,12.8750241 17.9374906,12.8750241 C18.4062393,12.8750241 18.8046762,12.7109619 19.1328003,12.3828378 C19.4609243,12.0547138 19.6249866,11.6562769 19.6249866,11.1875282 C19.6249866,10.7187795 19.4609243,10.3203426 19.1328003,9.99221851 C18.8046762,9.66409447 18.4062393,9.50003219 17.9374906,9.50003219 Z" id="--c-node-icon" fill="#94959A" fill-rule="nonzero"></path>
                    </g>
                    <g id="Or" transform="translate(806.000000, 0.000000)">
                        <rect id="--c-node-fill" fill="#F4F4F4" x="0" y="0" width="38" height="32" rx="3"></rect>
                        <path d="M3,0 L35,0 C36.6568542,0 38,1.34314575 38,3 L38,29 C38,30.6568542 36.6568542,32 35,32 L3,32 C1.34314575,32 0,30.6568542 0,29 L0,3 C0,1.34314575 1.34314575,0 3,0 Z M3,1 C1.8954305,1 1,1.8954305 1,3 L1,29 C1,30.1045695 1.8954305,31 3,31 L35,31 C36.1045695,31 37,30.1045695 37,29 L37,3 C37,1.8954305 36.1045695,1 35,1 L3,1 Z" id="--c-node-border" fill="#0276C2" fill-rule="nonzero"></path>
                        <text id="--c-text" font-family="SourceSansPro-Regular, Source Sans Pro" font-size="16" font-weight="normal" fill="#292C36">
                            <tspan x="11" y="22">or</tspan>
                        </text>
                    </g>
                    <g id="UtcNow" transform="translate(650.000000, 0.000000)">
                        <rect id="--c-node-fill" fill="#F4F4F4" x="0" y="0" width="137" height="32" rx="3"></rect>
                        <path d="M3,0 L134,0 C135.656854,0 137,1.34314575 137,3 L137,29 C137,30.6568542 135.656854,32 134,32 L3,32 C1.34314575,32 0,30.6568542 0,29 L0,3 C0,1.34314575 1.34314575,0 3,0 Z M3,1 C1.8954305,1 1,1.8954305 1,3 L1,29 C1,30.1045695 1.8954305,31 3,31 L134,31 C135.104569,31 136,30.1045695 136,29 L136,3 C136,1.8954305 135.104569,1 134,1 L3,1 Z" id="--c-node-border" fill="#0276C2" fill-rule="nonzero"></path>
                        <text id="--c-text" font-family="SourceSansPro-Regular, Source Sans Pro" font-size="16" font-weight="normal" fill="#292C36">
                            <tspan x="44" y="22">UtcNow</tspan>
                        </text>
                        <rect id="--c-node-line" fill="#94959A" x="36" y="1" width="2" height="28"></rect>
                        <path d="M119.749989,18.8750075 L115.125,14.2812684 C115.041666,14.1979351 115,14.1093938 115,14.015644 C115,13.9218943 115.03125,13.833353 115.09375,13.7500197 L115.718748,13.1250212 C115.802082,13.0625213 115.895831,13.0312714 116,13.0312714 C116.104164,13.0312714 116.187497,13.0625213 116.249997,13.1250212 L119.999988,16.8437623 L123.749979,13.1250212 C123.812479,13.0625213 123.895812,13.0312714 123.999979,13.0312714 C124.104145,13.0312714 124.197895,13.0625213 124.281228,13.1250212 L124.906226,13.7500197 C124.968726,13.833353 124.999976,13.9218943 124.999976,14.015644 C124.999976,14.1093938 124.968726,14.1979351 124.906226,14.2812684 L120.281237,18.8750075 C120.197904,18.9375073 120.104154,18.9687572 119.999988,18.9687572 C119.895822,18.9687572 119.802072,18.9375073 119.718739,18.8750075 L119.749989,18.8750075 Z" id="--c-text" fill="#292C36" fill-rule="nonzero"></path>
                        <g id="function" transform="translate(8.000000, 10.000000)" fill="#C4C4C7" fill-rule="nonzero">
                            <path d="M1.175,15.282 C1.469,15.135 1.771,14.91 2.081,14.606 C2.391,14.303 2.681,13.905 2.955,13.413 C3.228,12.921 3.421,12.303 3.538,11.56 L4.546,5.17 L6.294,5.17 C6.452,4.897 6.504,4.623 6.452,4.35 L4.704,4.35 L4.861,3.563 C4.976,3.018 5.098,2.587 5.224,2.271 C5.349,1.956 5.484,1.712 5.625,1.539 C5.742443,1.38464013 5.89732784,1.26279738 6.075,1.185 C6.232,1.121 6.405,1.065 6.594,1.012 L7.791,1.988 C8.001,1.81 8.151,1.598 8.241,1.351 C8.329,1.104 8.385,0.865 8.405,0.634 C8.20806064,0.540623942 7.99850116,0.476610595 7.783,0.444 C7.57209122,0.405489657 7.35836854,0.384418407 7.144,0.381 C6.714,0.381 6.31,0.428 5.932,0.524 C5.5532841,0.618551056 5.1990779,0.792756414 4.893,1.035 C4.578,1.281 4.303,1.618 4.066,2.043 C3.83,2.468 3.643,3.006 3.507,3.657 L3.397,4.209 C2.93026414,4.33265765 2.4805427,4.5133523 2.058,4.747 L2.058,5.171 L3.208,5.171 L2.185,11.859 C2.11539101,12.3282252 1.99639709,12.7887819 1.83,13.233 C1.70051273,13.5808898 1.53705614,13.9151719 1.342,14.231 C1.19522319,14.4698532 1.01770445,14.6883895 0.814,14.881 C0.676989504,15.0130325 0.523363688,15.1266551 0.357,15.219 L0.499,15.565 C0.732292422,15.4909344 0.958520483,15.3962265 1.175,15.282 L1.175,15.282 Z M6.814,10.382 C6.80769252,11.3185146 7.00383551,12.2453328 7.389,13.099 C7.772,13.945 8.414,14.756 9.318,15.533 L9.776,15.217 C9.156,14.462 8.731,13.671 8.499,12.847 C8.26327094,11.9828844 8.15214926,11.0895334 8.169,10.194 C8.15202647,9.24908466 8.28777427,8.30762979 8.571,7.406 C8.83522688,6.56579039 9.19738254,5.75958287 9.65,5.004 C10.09,4.275 10.579,3.611 11.114,3.012 C11.6044006,2.45881731 12.1305281,1.93836868 12.689,1.454 L12.421,1.169 C11.791,1.569 11.145,2.054 10.484,2.627 C9.80605853,3.21737514 9.20049917,3.88604157 8.68,4.619 C8.11990556,5.41018472 7.66979665,6.27373446 7.342,7.186 C6.989,8.141 6.814,9.206 6.814,10.382 L6.814,10.382 Z M12.153,4.838 L12.153,5.232 L13.161,5.358 L14.231,8.256 C14.063,8.404 13.811,8.626 13.475,8.926 C13.1164896,9.24679267 12.7695999,9.58034039 12.435,9.926 C12.0868786,10.2834214 11.7609371,10.661794 11.459,11.059 C11.165,11.448 10.971,11.799 10.876,12.115 C11.108,12.251 11.396,12.32 11.742,12.32 C11.91,12.32 12.085,12.304 12.27,12.272 C12.4566763,12.2398642 12.6391532,12.1868654 12.814,12.114 C12.8005449,12.0176122 12.7948599,11.9202988 12.797,11.823 C12.797,11.692 12.8,11.55 12.805,11.398 L12.821,10.965 C12.8224302,10.8588288 12.8358486,10.753159 12.861,10.65 C12.9473845,10.494185 13.0478004,10.3465735 13.161,10.209 C13.2906535,10.0456788 13.427107,9.88787316 13.57,9.736 C13.717,9.58 13.866,9.426 14.019,9.28 C14.17,9.133 14.305,8.996 14.42,8.87 L15.287,11.721 C15.34,11.889 15.425,12.031 15.541,12.146 C15.658,12.262 15.829,12.32 16.053,12.32 C16.19,12.32 16.343,12.3 16.507,12.257 C16.6655628,12.217654 16.8204626,12.164794 16.97,12.099 C17.115,12.037 17.247,11.973 17.37,11.91 C17.4655352,11.8619414 17.5586478,11.809211 17.649,11.752 L17.649,11.358 L16.626,11.232 L15.492,8.161 C15.596,8.066 15.741,7.938 15.925,7.775 C16.108,7.613 16.305,7.429 16.515,7.223 C16.725,7.019 16.942,6.798 17.169,6.562 C17.395,6.326 17.607,6.087 17.806,5.845 C18.006,5.604 18.178,5.362 18.326,5.121 C18.473,4.879 18.578,4.654 18.641,4.443 C18.3681433,4.30173484 18.0641824,4.23124617 17.757,4.238 C17.577,4.238 17.401,4.257 17.228,4.294 C17.0485516,4.33227895 16.8718323,4.38238838 16.699,4.444 C16.71,4.508 16.721,4.604 16.731,4.734 L16.762,5.16 C16.773,5.313 16.778,5.456 16.778,5.593 C16.778,5.73 16.773,5.835 16.763,5.909 C16.5832794,6.22463497 16.3630817,6.51543043 16.108,6.774 C15.8469175,7.05077564 15.5818905,7.32380355 15.313,7.593 L14.542,4.853 C14.48131,4.70021876 14.3950808,4.55887057 14.287,4.435 C14.181,4.315 14.011,4.254 13.777,4.254 C13.629,4.254 13.475,4.274 13.317,4.316 C13.157,4.358 13,4.411 12.845,4.475 C12.7028519,4.53156875 12.5645566,4.59737592 12.431,4.672 C12.336593,4.72436532 12.2438793,4.77972677 12.153,4.838 L12.153,4.838 Z M21.343,3.845 C21.463,4.223 21.547,4.607 21.595,4.995 C21.642,5.385 21.667,5.804 21.667,6.255 C21.667,7.305 21.517,8.292 21.217,9.216 C20.9372067,10.0969148 20.5619792,10.9446137 20.098,11.744 C19.652,12.504 19.164,13.18 18.635,13.767 C18.1754932,14.2867963 17.6774121,14.7711719 17.145,15.216 L17.461,15.532 C18.133,15.143 18.796,14.652 19.453,14.058 C20.1219148,13.4501286 20.7167006,12.7653864 21.225,12.018 C21.75,11.253 22.175,10.399 22.501,9.46 C22.833303,8.47849471 22.9985968,7.44819689 22.99,6.412 C22.99,5.426 22.793,4.51 22.4,3.665 C22.006,2.819 21.357,1.987 20.454,1.168 L20.044,1.452 C20.37,1.893 20.638,2.307 20.848,2.696 C21.058,3.084 21.223,3.468 21.343,3.846 L21.343,3.845 Z" id="--c-node-icon"></path>
                        </g>
                    </g>
                    <g id="Arrow" transform="translate(602.000000, 0.000000)">
                        <rect id="--c-node-fill" fill="#F4F4F4" x="0" y="0" width="29" height="32" rx="3"></rect>
                        <path d="M3,0 L26,0 C27.6568542,0 29,1.34314575 29,3 L29,29 C29,30.6568542 27.6568542,32 26,32 L3,32 C1.34314575,32 0,30.6568542 0,29 L0,3 C0,1.34314575 1.34314575,0 3,0 Z M3,1 C1.8954305,1 1,1.8954305 1,3 L1,29 C1,30.1045695 1.8954305,31 3,31 L26,31 C27.1045695,31 28,30.1045695 28,29 L28,3 C28,1.8954305 27.1045695,1 26,1 L3,1 Z" id="--c-node-border" fill="#0276C2" fill-rule="nonzero"></path>
                        <path d="M18.874986,15.2500137 L14.2812469,19.8750027 C14.1979137,19.958336 14.1093724,20.0000024 14.0156226,20.0000024 C13.9218728,20.0000024 13.8333315,19.9687525 13.7499982,19.9062526 L13.1249997,19.2812541 C13.0624999,19.1979208 13.0312499,19.104171 13.0312499,19.0000048 C13.0312499,18.8958385 13.0624999,18.8125052 13.1249997,18.7500054 L16.8437408,15.0000143 L13.1249997,11.2500232 C13.0624999,11.1875234 13.0312499,11.1041901 13.0312499,11.0000262 C13.0312499,10.8958576 13.0624999,10.8021078 13.1249997,10.7187745 L13.7499982,10.093776 C13.8333315,10.0312762 13.9218728,10.0000262 14.0156226,10.0000262 C14.1093724,10.0000262 14.1979137,10.0312762 14.2812469,10.093776 L18.874986,14.718765 C18.9374858,14.8020983 18.9687358,14.895848 18.9687358,15.0000143 C18.9687358,15.1041806 18.9374858,15.1979303 18.874986,15.2812636 L18.874986,15.2500137 Z" id="A" fill="#292C36" fill-rule="nonzero"></path>
                    </g>
                    <g id="Time" transform="translate(488.000000, 112.000000)">
                        <rect id="--c-node-fill" fill="#F4F4F4" x="0" y="0" width="127" height="32" rx="3"></rect>
                        <rect id="--c-node-line" fill="#94959A" x="37" y="0" width="2" height="28"></rect>
                        <path d="M3,0 L124,0 C125.656854,0 127,1.34314575 127,3 L127,29 C127,30.6568542 125.656854,32 124,32 L3,32 C1.34314575,32 0,30.6568542 0,29 L0,3 C0,1.34314575 1.34314575,0 3,0 Z M3,1 C1.8954305,1 1,1.8954305 1,3 L1,29 C1,30.1045695 1.8954305,31 3,31 L124,31 C125.104569,31 126,30.1045695 126,29 L126,3 C126,1.8954305 125.104569,1 124,1 L3,1 Z" id="--c-node-border" fill="#0276C2" fill-rule="nonzero"></path>
                        <path d="M155.189978,6.20472588 C156.793437,6.20472588 158.277236,6.60559097 159.641373,7.40732061 C161.00551,8.20905025 162.088444,9.291984 162.890174,10.6561213 C163.691903,12.0202586 164.092769,13.5040569 164.092769,15.1075167 C164.092769,16.7109766 163.691903,18.1947749 162.890174,19.5589122 C162.088444,20.9230495 161.00551,22.0059832 159.641373,22.8077129 C158.277236,23.6094425 156.793437,24.0103076 155.189978,24.0103076 C153.586518,24.0103076 152.10272,23.6094425 150.738582,22.8077129 C149.374445,22.0059832 148.291511,20.9230495 147.489782,19.5589122 C146.688052,18.1947749 146.287187,16.7109766 146.287187,15.1075167 C146.287187,13.5040569 146.688052,12.0202586 147.489782,10.6561213 C148.291511,9.291984 149.374445,8.20905025 150.738582,7.40732061 C152.10272,6.60559097 153.586518,6.20472588 155.189978,6.20472588 Z M160.35934,16.1126706 L160.35934,14.1023629 C160.35934,13.982702 160.317459,13.8809896 160.233696,13.797227 C160.149933,13.7134643 160.048221,13.6715827 159.92856,13.6715827 L156.625912,13.6715827 L156.625912,10.3689345 C156.625912,10.2492735 156.58403,10.1475612 156.500267,10.0637985 C156.416505,9.9800359 156.314792,9.93815431 156.195131,9.93815431 L154.184824,9.93815431 C154.065163,9.93815431 153.963451,9.9800359 153.879688,10.0637985 C153.795925,10.1475612 153.754044,10.2492735 153.754044,10.3689345 L153.754044,13.6715827 L150.451395,13.6715827 C150.331734,13.6715827 150.230022,13.7134643 150.146259,13.797227 C150.062497,13.8809896 150.020615,13.982702 150.020615,14.1023629 L150.020615,16.1126706 C150.020615,16.2323315 150.062497,16.3340439 150.146259,16.4178065 C150.230022,16.5015692 150.331734,16.5434508 150.451395,16.5434508 L153.754044,16.5434508 L153.754044,19.846099 C153.754044,19.96576 153.795925,20.0674723 153.879688,20.151235 C153.963451,20.2349976 154.065163,20.2768792 154.184824,20.2768792 L156.195131,20.2768792 C156.314792,20.2768792 156.416505,20.2349976 156.500267,20.151235 C156.58403,20.0674723 156.625912,19.96576 156.625912,19.846099 L156.625912,16.5434508 L159.92856,16.5434508 C160.048221,16.5434508 160.149933,16.5015692 160.233696,16.4178065 C160.317459,16.3340439 160.35934,16.2323315 160.35934,16.1126706 Z" id="--c-accent" fill="#0076C2" fill-rule="nonzero"></path>
                        <path d="M127,15.5 L146,15.5" id="Line-Copy" stroke="#98999D" stroke-linecap="square"></path>
                        <text id="--c-text" font-family="SourceSansPro-Regular, Source Sans Pro" font-size="16" font-weight="normal" fill="#292C36">
                            <tspan x="44" y="22">-1.00:00:00</tspan>
                        </text>
                        <path d="M22.9999785,7.53128688 C24.5702875,7.53128688 26.0234088,7.92386425 27.3593431,8.70901845 C28.6952775,9.49417265 29.755822,10.5547172 30.5409762,11.8906515 C31.3261304,13.2265858 31.7187078,14.6797072 31.7187078,16.2500161 C31.7187078,17.820325 31.3261304,19.2734464 30.5409762,20.6093807 C29.755822,21.945315 28.6952775,23.0058595 27.3593431,23.7910137 C26.0234088,24.5761679 24.5702875,24.9687453 22.9999785,24.9687453 C21.4296696,24.9687453 19.9765483,24.5761679 18.6406139,23.7910137 C17.3046796,23.0058595 16.2441351,21.945315 15.4589809,20.6093807 C14.6738267,19.2734464 14.2812493,17.820325 14.2812493,16.2500161 C14.2812493,14.6797072 14.6738267,13.2265858 15.4589809,11.8906515 C16.2441351,10.5547172 17.3046796,9.49417265 18.6406139,8.70901845 C19.9765483,7.92386425 21.4296696,7.53128688 22.9999785,7.53128688 Z M25.00388,19.835945 C25.09763,19.9062574 25.2030985,19.929695 25.3202855,19.9062574 C25.4374726,19.8828198 25.5312225,19.8242265 25.6015348,19.7304765 L26.5859075,18.3945422 C26.6562198,18.3007923 26.6855165,18.1953238 26.6737979,18.0781367 C26.6620794,17.9609497 26.6093451,17.8671997 26.5155952,17.7968874 L24.2656005,16.1797038 L24.2656005,11.3281528 C24.2656005,11.2109658 24.2245848,11.1113563 24.1425539,11.0293254 C24.0605231,10.9472945 23.9609136,10.9062788 23.8437265,10.9062788 L22.1562306,10.9062788 C22.0390435,10.9062788 21.939434,10.9472945 21.8574031,11.0293254 C21.7753723,11.1113563 21.7343566,11.2109658 21.7343566,11.3281528 L21.7343566,17.2343887 C21.7343566,17.3750134 21.7929503,17.4922005 21.9101374,17.5859504 L25.00388,19.835945 Z" id="--c-node-icon" fill="#94959A" fill-rule="nonzero"></path>
                    </g>
                    <g id="Asset-ID" transform="translate(488.000000, 61.000000)">
                        <rect id="--c-node-fill" fill="#F4F4F4" x="0" y="0" width="326" height="32" rx="3"></rect>
                        <path d="M3,0 L323,0 C324.656854,0 326,1.34314575 326,3 L326,29 C326,30.6568542 324.656854,32 323,32 L3,32 C1.34314575,32 0,30.6568542 0,29 L0,3 C0,1.34314575 1.34314575,0 3,0 Z M3,1 C1.8954305,1 1,1.8954305 1,3 L1,29 C1,30.1045695 1.8954305,31 3,31 L323,31 C324.104569,31 325,30.1045695 325,29 L325,3 C325,1.8954305 324.104569,1 323,1 L3,1 Z" id="--c-node-border" fill="#0276C2" fill-rule="nonzero"></path>
                        <text id="--c-text" font-family="SourceSansPro-Regular, Source Sans Pro" font-size="16" font-weight="normal" fill="#292C36">
                            <tspan x="44" y="22">Asset -&gt; *Id.WorkOrder.Asset_CreatedOn</tspan>
                        </text>
                        <rect id="--c-node-line" fill="#94959A" x="37" y="1" width="2" height="28"></rect>
                        <path d="M14,16.1093914 L14,8.93753353 C14,8.46878482 14.1640623,8.07034792 14.4921863,7.74222388 C14.8203104,7.41409984 15.2187473,7.25003755 15.687496,7.25003755 L22.8593539,7.25003755 C23.3281026,7.25003755 23.7265395,7.41409984 24.0546635,7.74222388 L31.5077708,15.1953311 C31.8358948,15.5234551 31.9999571,15.9218921 31.9999571,16.3906408 C31.9999571,16.8593895 31.8358948,17.2578264 31.5077708,17.5859504 L24.3359129,24.7578083 C24.0077888,25.0859323 23.6093519,25.2499946 23.1406032,25.2499946 C22.6718545,25.2499946 22.2734176,25.0859323 21.9452936,24.7578083 L14.4921863,17.3047011 C14.1640623,16.976577 14,16.5781401 14,16.1093914 Z M17.9374906,9.50003219 C17.4687419,9.50003219 17.070305,9.66409447 16.742181,9.99221851 C16.4140569,10.3203426 16.2499946,10.7187795 16.2499946,11.1875282 C16.2499946,11.6562769 16.4140569,12.0547138 16.742181,12.3828378 C17.070305,12.7109619 17.4687419,12.8750241 17.9374906,12.8750241 C18.4062393,12.8750241 18.8046762,12.7109619 19.1328003,12.3828378 C19.4609243,12.0547138 19.6249866,11.6562769 19.6249866,11.1875282 C19.6249866,10.7187795 19.4609243,10.3203426 19.1328003,9.99221851 C18.8046762,9.66409447 18.4062393,9.50003219 17.9374906,9.50003219 Z" id="--c-node-icon" fill="#94959A" fill-rule="nonzero"></path>
                    </g>
                    <g id="Lines" transform="translate(468.000000, 32.000000)" stroke="#979797" stroke-dasharray="4">
                        <path d="M0,0 C0,11.4736328 0,25.9648438 0,43.4736328 C0,60.9824219 0,78.4912109 0,96 L20,96" id="Line-3" stroke-linecap="square"></path>
                        <path d="M0,45 L20,45" id="Path"></path>
                    </g>
                    <g id="DateMod" transform="translate(446.000000, 0.000000)">
                        <rect id="--c-node-fill" fill="#F4F4F4" x="0" y="0" width="137" height="32" rx="3"></rect>
                        <path d="M3,0 L134,0 C135.656854,0 137,1.34314575 137,3 L137,29 C137,30.6568542 135.656854,32 134,32 L3,32 C1.34314575,32 0,30.6568542 0,29 L0,3 C0,1.34314575 1.34314575,0 3,0 Z M3,1 C1.8954305,1 1,1.8954305 1,3 L1,29 C1,30.1045695 1.8954305,31 3,31 L134,31 C135.104569,31 136,30.1045695 136,29 L136,3 C136,1.8954305 135.104569,1 134,1 L3,1 Z" id="--c-node-border" fill="#0276C2" fill-rule="nonzero"></path>
                        <text id="--c-text" font-family="SourceSansPro-Regular, Source Sans Pro" font-size="16" font-weight="normal" fill="#292C36">
                            <tspan x="44" y="22">DateMod</tspan>
                        </text>
                        <rect id="--c-node-line" fill="#94959A" x="37" y="1" width="2" height="28"></rect>
                        <path d="M120.281237,13.1250212 L124.906226,17.7187602 C124.968726,17.8020935 124.999976,17.8906348 124.999976,17.9843846 C124.999976,18.0781344 124.968726,18.1666756 124.906226,18.2500089 L124.281228,18.8750075 C124.197895,18.9375073 124.104145,18.9687572 123.999979,18.9687572 C123.895812,18.9687572 123.812479,18.9375073 123.749979,18.8750075 L119.999988,15.1562663 L116.249997,18.8750075 C116.187497,18.9375073 116.104164,18.9687572 116,18.9687572 C115.895831,18.9687572 115.802082,18.9375073 115.718748,18.8750075 L115.125,18.2500089 C115.041666,18.1666756 115,18.0781344 115,17.9843846 C115,17.8906348 115.03125,17.8020935 115.09375,17.7187602 L119.749989,13.1250212 C119.812489,13.0625213 119.895822,13.0312714 119.999988,13.0312714 C120.104154,13.0312714 120.197904,13.0625213 120.281237,13.1250212 Z" id="--c-text" fill="#292C36" fill-rule="nonzero"></path>
                        <path d="M10.818,23.901 C11.112,23.754 11.414,23.529 11.724,23.225 C12.034,22.922 12.324,22.524 12.598,22.032 C12.871,21.54 13.064,20.922 13.181,20.179 L14.189,13.789 L15.937,13.789 C16.095,13.516 16.147,13.242 16.095,12.969 L14.347,12.969 L14.504,12.182 C14.619,11.637 14.741,11.206 14.867,10.89 C14.992,10.575 15.127,10.331 15.268,10.158 C15.385443,10.0036401 15.5403278,9.88179738 15.718,9.804 C15.875,9.74 16.048,9.684 16.237,9.631 L17.434,10.607 C17.644,10.429 17.794,10.217 17.884,9.97 C17.972,9.723 18.028,9.484 18.048,9.253 C17.8510606,9.15962394 17.6415012,9.09561059 17.426,9.063 C17.2150912,9.02448966 17.0013685,9.00341841 16.787,9 C16.357,9 15.953,9.047 15.575,9.143 C15.1962841,9.23755106 14.8420779,9.41175641 14.536,9.654 C14.221,9.9 13.946,10.237 13.709,10.662 C13.473,11.087 13.286,11.625 13.15,12.276 L13.04,12.828 C12.5732641,12.9516576 12.1235427,13.1323523 11.701,13.366 L11.701,13.79 L12.851,13.79 L11.828,20.478 C11.758391,20.9472252 11.6393971,21.4077819 11.473,21.852 C11.3435127,22.1998898 11.1800561,22.5341719 10.985,22.85 C10.8382232,23.0888532 10.6607044,23.3073895 10.457,23.5 C10.3199895,23.6320325 10.1663637,23.7456551 10,23.838 L10.142,24.184 C10.3752924,24.1099344 10.6015205,24.0152265 10.818,23.901 L10.818,23.901 Z M16.457,19.001 C16.4506925,19.9375146 16.6468355,20.8643328 17.032,21.718 C17.415,22.564 18.057,23.375 18.961,24.152 L19.419,23.836 C18.799,23.081 18.374,22.29 18.142,21.466 C17.9062709,20.6018844 17.7951493,19.7085334 17.812,18.813 C17.7950265,17.8680847 17.9307743,16.9266298 18.214,16.025 C18.4782269,15.1847904 18.8403825,14.3785829 19.293,13.623 C19.733,12.894 20.222,12.23 20.757,11.631 C21.2474006,11.0778173 21.7735281,10.5573687 22.332,10.073 L22.064,9.788 C21.434,10.188 20.788,10.673 20.127,11.246 C19.4490585,11.8363751 18.8434992,12.5050416 18.323,13.238 C17.7629056,14.0291847 17.3127967,14.8927345 16.985,15.805 C16.632,16.76 16.457,17.825 16.457,19.001 L16.457,19.001 Z M21.796,13.457 L21.796,13.851 L22.804,13.977 L23.874,16.875 C23.706,17.023 23.454,17.245 23.118,17.545 C22.7594896,17.8657927 22.4125999,18.1993404 22.078,18.545 C21.7298786,18.9024214 21.4039371,19.280794 21.102,19.678 C20.808,20.067 20.614,20.418 20.519,20.734 C20.751,20.87 21.039,20.939 21.385,20.939 C21.553,20.939 21.728,20.923 21.913,20.891 C22.0996763,20.8588642 22.2821532,20.8058654 22.457,20.733 C22.4435449,20.6366122 22.4378599,20.5392988 22.44,20.442 C22.44,20.311 22.443,20.169 22.448,20.017 L22.464,19.584 C22.4654302,19.4778288 22.4788486,19.372159 22.504,19.269 C22.5903845,19.113185 22.6908004,18.9655735 22.804,18.828 C22.9336535,18.6646788 23.070107,18.5068732 23.213,18.355 C23.36,18.199 23.509,18.045 23.662,17.899 C23.813,17.752 23.948,17.615 24.063,17.489 L24.93,20.34 C24.983,20.508 25.068,20.65 25.184,20.765 C25.301,20.881 25.472,20.939 25.696,20.939 C25.833,20.939 25.986,20.919 26.15,20.876 C26.3085628,20.836654 26.4634626,20.783794 26.613,20.718 C26.758,20.656 26.89,20.592 27.013,20.529 C27.1085352,20.4809414 27.2016478,20.428211 27.292,20.371 L27.292,19.977 L26.269,19.851 L25.135,16.78 C25.239,16.685 25.384,16.557 25.568,16.394 C25.751,16.232 25.948,16.048 26.158,15.842 C26.368,15.638 26.585,15.417 26.812,15.181 C27.038,14.945 27.25,14.706 27.449,14.464 C27.649,14.223 27.821,13.981 27.969,13.74 C28.116,13.498 28.221,13.273 28.284,13.062 C28.0111433,12.9207348 27.7071824,12.8502462 27.4,12.857 C27.22,12.857 27.044,12.876 26.871,12.913 C26.6915516,12.9512789 26.5148323,13.0013884 26.342,13.063 C26.353,13.127 26.364,13.223 26.374,13.353 L26.405,13.779 C26.416,13.932 26.421,14.075 26.421,14.212 C26.421,14.349 26.416,14.454 26.406,14.528 C26.2262794,14.843635 26.0060817,15.1344304 25.751,15.393 C25.4899175,15.6697756 25.2248905,15.9428036 24.956,16.212 L24.185,13.472 C24.12431,13.3192188 24.0380808,13.1778706 23.93,13.054 C23.824,12.934 23.654,12.873 23.42,12.873 C23.272,12.873 23.118,12.893 22.96,12.935 C22.8,12.977 22.643,13.03 22.488,13.094 C22.3458519,13.1505687 22.2075566,13.2163759 22.074,13.291 C21.979593,13.3433653 21.8868793,13.3987268 21.796,13.457 L21.796,13.457 Z M30.986,12.464 C31.106,12.842 31.19,13.226 31.238,13.614 C31.285,14.004 31.31,14.423 31.31,14.874 C31.31,15.924 31.16,16.911 30.86,17.835 C30.5802067,18.7159148 30.2049792,19.5636137 29.741,20.363 C29.295,21.123 28.807,21.799 28.278,22.386 C27.8184932,22.9057963 27.3204121,23.3901719 26.788,23.835 L27.104,24.151 C27.776,23.762 28.439,23.271 29.096,22.677 C29.7649148,22.0691286 30.3597006,21.3843864 30.868,20.637 C31.393,19.872 31.818,19.018 32.144,18.079 C32.476303,17.0974947 32.6415968,16.0671969 32.633,15.031 C32.633,14.045 32.436,13.129 32.043,12.284 C31.649,11.438 31,10.606 30.097,9.787 L29.687,10.071 C30.013,10.512 30.281,10.926 30.491,11.315 C30.701,11.703 30.866,12.087 30.986,12.465 L30.986,12.464 Z" id="--c-node-icon" fill="#C4C4C7" fill-rule="nonzero"></path>
                    </g>
                    <g id="Open-Bracket" transform="translate(398.000000, 0.000000)">
                        <rect id="--c-node-fill" fill="#F4F4F4" x="0" y="0" width="29" height="32" rx="3"></rect>
                        <path d="M3,0 L26,0 C27.6568542,0 29,1.34314575 29,3 L29,29 C29,30.6568542 27.6568542,32 26,32 L3,32 C1.34314575,32 0,30.6568542 0,29 L0,3 C0,1.34314575 1.34314575,0 3,0 Z M3,1 C1.8954305,1 1,1.8954305 1,3 L1,29 C1,30.1045695 1.8954305,31 3,31 L26,31 C27.1045695,31 28,30.1045695 28,29 L28,3 C28,1.8954305 27.1045695,1 26,1 L3,1 Z" id="--c-node-border" fill="#0276C2" fill-rule="nonzero"></path>
                        <text id="--c-text" font-family="SourceSansPro-Regular, Source Sans Pro" font-size="16" font-weight="normal" fill="#292C36">
                            <tspan x="11" y="22">(</tspan>
                        </text>
                    </g>
                    <g id="And" transform="translate(331.000000, 0.000000)">
                        <rect id="--c-node-fill" fill="#F4F4F4" x="0" y="0" width="50" height="32" rx="3"></rect>
                        <path d="M3,0 L47,0 C48.6568542,0 50,1.34314575 50,3 L50,29 C50,30.6568542 48.6568542,32 47,32 L3,32 C1.34314575,32 0,30.6568542 0,29 L0,3 C0,1.34314575 1.34314575,0 3,0 Z M3,1 C1.8954305,1 1,1.8954305 1,3 L1,29 C1,30.1045695 1.8954305,31 3,31 L47,31 C48.1045695,31 49,30.1045695 49,29 L49,3 C49,1.8954305 48.1045695,1 47,1 L3,1 Z" id="--c-node-border" fill="#0276C2" fill-rule="nonzero"></path>
                        <text id="--c-text" font-family="SourceSansPro-Regular, Source Sans Pro" font-size="16" font-weight="normal" fill="#292C36">
                            <tspan x="12.152" y="22">and</tspan>
                        </text>
                    </g>
                    <g id="True" transform="translate(228.000000, 0.000000)">
                        <rect id="--c-node-active" fill="#B9D8EC" x="0" y="0" width="85" height="32" rx="3"></rect>
                        <path d="M3,0 L82,0 C83.6568542,0 85,1.34314575 85,3 L85,29 C85,30.6568542 83.6568542,32 82,32 L3,32 C1.34314575,32 0,30.6568542 0,29 L0,3 C0,1.34314575 1.34314575,0 3,0 Z M3,1 C1.8954305,1 1,1.8954305 1,3 L1,29 C1,30.1045695 1.8954305,31 3,31 L82,31 C83.1045695,31 84,30.1045695 84,29 L84,3 C84,1.8954305 83.1045695,1 82,1 L3,1 Z" id="--c-node-border" fill="#0276C2" fill-rule="nonzero"></path>
                        <rect id="--c-node-line" fill="#94959A" x="37" y="1" width="2" height="28"></rect>
                        <text id="--c-text" font-family="SourceSansPro-Regular, Source Sans Pro" font-size="16" font-weight="normal" fill="#292C36">
                            <tspan x="44" y="22">True</tspan>
                        </text>
                        <g id="Group" transform="translate(14.000000, 7.000000)" fill="#94959A" fill-rule="nonzero">
                            <path d="M7.5937319,6.00001431 L10.7187244,9.12500685 C10.906224,9.31250641 10.9999738,9.54167237 10.9999738,9.81250522 C10.9999738,10.0833381 10.906224,10.3229205 10.7187244,10.5312535 L10.0312261,11.2187519 C9.82289309,11.4062514 9.58331064,11.5000012 9.3124778,11.5000012 C9.04164495,11.5000012 8.81247899,11.4062514 8.62497944,11.2187519 L5.49998689,8.09375931 L2.37499434,11.2187519 C2.18749478,11.4062514 1.95832882,11.5000012 1.68749598,11.5000012 C1.41666313,11.5000012 1.17708069,11.4062514 0.96874769,11.2187519 L0.281249329,10.5312535 C0.0937497765,10.3229205 0,10.0833381 0,9.81250522 C0,9.54167237 0.0937497765,9.31250641 0.281249329,9.12500685 L3.40624188,6.00001431 L0.281249329,2.87502176 C0.0937497765,2.6875222 0,2.45835624 0,2.18752339 C0,1.91669055 0.0937497765,1.6771081 0.281249329,1.46877511 L0.96874769,0.781276748 C1.17708069,0.593777195 1.41666313,0.500027418 1.68749598,0.500027418 C1.95832882,0.500027418 2.18749478,0.593777195 2.37499434,0.781276748 L5.49998689,3.9062693 L8.62497944,0.781276748 C8.81247899,0.593777195 9.04164495,0.500027418 9.3124778,0.500027418 C9.58331064,0.500027418 9.82289309,0.593777195 10.0312261,0.781276748 L10.7187244,1.46877511 C10.906224,1.6771081 10.9999738,1.91669055 10.9999738,2.18752339 C10.9999738,2.45835624 10.906224,2.6875222 10.7187244,2.87502176 L7.5937319,6.00001431 Z" id="--c-node-icon"></path>
                            <path d="M8.43748704,18.7187507 L3.21874948,13.531263 C3.07291633,13.3854299 3,13.1979303 3,12.9687644 C3,12.7395984 3.07291633,12.5520989 3.21874948,12.4062657 L4.37499672,11.2812684 C4.52082987,11.1146023 4.70312094,11.0312785 4.92187042,11.0312785 C5.1406199,11.0312785 5.33332793,11.1146023 5.5,11.2812684 L8.99998569,14.7812601 L16.4999678,7.28127794 C16.6666339,7.11461183 16.859342,7.03127854 17.0780914,7.03127854 C17.2968409,7.03127854 17.479132,7.11461183 17.6249651,7.28127794 L18.7812124,8.40627526 C18.9270455,8.5521084 18.9999619,8.73960796 18.9999619,8.96877392 C18.9999619,9.19793988 18.9270455,9.38543943 18.7812124,9.53127854 L9.56248435,18.7187507 C9.41665121,18.8854168 9.22915166,18.9687501 8.99998569,18.9687501 C8.77081973,18.9687501 8.58332018,18.8854168 8.43748704,18.7187507 Z" id="--c-node-icon"></path>
                        </g>
                    </g>
                    <g id="Equal" transform="translate(180.000000, 0.000000)">
                        <rect id="--c-node-fill" fill="#F4F4F4" x="0" y="0" width="30" height="32" rx="3"></rect>
                        <path d="M3,0 L27,0 C28.6568542,0 30,1.34314575 30,3 L30,29 C30,30.6568542 28.6568542,32 27,32 L3,32 C1.34314575,32 0,30.6568542 0,29 L0,3 C0,1.34314575 1.34314575,0 3,0 Z M3,1 C1.8954305,1 1,1.8954305 1,3 L1,29 C1,30.1045695 1.8954305,31 3,31 L27,31 C28.1045695,31 29,30.1045695 29,29 L29,3 C29,1.8954305 28.1045695,1 27,1 L3,1 Z" id="--c-node-border" fill="#0276C2" fill-rule="nonzero"></path>
                        <text id="--c-text" font-family="SourceSansPro-Regular, Source Sans Pro" font-size="16" font-weight="normal" fill="#292C36">
                            <tspan x="11" y="22">=</tspan>
                        </text>
                    </g>
                    <g id="Asset-isActive">
                        <rect id="--c-hover" fill="#DBDBDB" x="0" y="0" width="161" height="32" rx="3"></rect>
                        <path d="M3,0 L158,0 C159.656854,0 161,1.34314575 161,3 L161,29 C161,30.6568542 159.656854,32 158,32 L3,32 C1.34314575,32 0,30.6568542 0,29 L0,3 C0,1.34314575 1.34314575,0 3,0 Z M3,1 C1.8954305,1 1,1.8954305 1,3 L1,29 C1,30.1045695 1.8954305,31 3,31 L158,31 C159.104569,31 160,30.1045695 160,29 L160,3 C160,1.8954305 159.104569,1 158,1 L3,1 Z" id="--c-node-border" fill="#0276C2" fill-rule="nonzero"></path>
                        <rect id="--c-node-line" fill="#94959A" x="37" y="1" width="2" height="28"></rect>
                        <text id="--c-text" font-family="SourceSansPro-Regular, Source Sans Pro" font-size="16" font-weight="normal" fill="#292C36">
                            <tspan x="44" y="22">Asset -&gt; IsActive</tspan>
                        </text>
                        <path d="M14,16.1093914 L14,8.93753353 C14,8.46878482 14.1640623,8.07034792 14.4921863,7.74222388 C14.8203104,7.41409984 15.2187473,7.25003755 15.687496,7.25003755 L22.8593539,7.25003755 C23.3281026,7.25003755 23.7265395,7.41409984 24.0546635,7.74222388 L31.5077708,15.1953311 C31.8358948,15.5234551 31.9999571,15.9218921 31.9999571,16.3906408 C31.9999571,16.8593895 31.8358948,17.2578264 31.5077708,17.5859504 L24.3359129,24.7578083 C24.0077888,25.0859323 23.6093519,25.2499946 23.1406032,25.2499946 C22.6718545,25.2499946 22.2734176,25.0859323 21.9452936,24.7578083 L14.4921863,17.3047011 C14.1640623,16.976577 14,16.5781401 14,16.1093914 Z M17.9374906,9.50003219 C17.4687419,9.50003219 17.070305,9.66409447 16.742181,9.99221851 C16.4140569,10.3203426 16.2499946,10.7187795 16.2499946,11.1875282 C16.2499946,11.6562769 16.4140569,12.0547138 16.742181,12.3828378 C17.070305,12.7109619 17.4687419,12.8750241 17.9374906,12.8750241 C18.4062393,12.8750241 18.8046762,12.7109619 19.1328003,12.3828378 C19.4609243,12.0547138 19.6249866,11.6562769 19.6249866,11.1875282 C19.6249866,10.7187795 19.4609243,10.3203426 19.1328003,9.99221851 C18.8046762,9.66409447 18.4062393,9.50003219 17.9374906,9.50003219 Z" id="--c-text" fill="#272C37" fill-rule="nonzero"></path>
                    </g>
                </g>
                <g id="Tabs" transform="translate(0.000000, 58.000000)">
                    <rect id="--c-border" fill="#E7E8EC" transform="translate(765.000000, 31.500000) scale(1, -1) translate(-765.000000, -31.500000) " x="0" y="31" width="1530" height="1"></rect>
                    <text id="--c-accent" font-family="SourceSansPro-Bold, Source Sans Pro" font-size="14" font-weight="bold" line-spacing="20" fill="#0076C2">
                        <tspan x="83.399" y="14.2592593">Filter Criteria</tspan>
                    </text>
                    <rect id="--c-accent" fill="#0076C2" x="77" y="29" width="102" height="2"></rect>
                    <text id="--c-text" font-family="SourceSansPro-Regular, Source Sans Pro" font-size="14" font-weight="normal" line-spacing="20" fill="#272C37">
                        <tspan x="18.245" y="14">Fields</tspan>
                    </text>
                    <text id="--c-text-copy" font-family="SourceSansPro-Regular, Source Sans Pro" font-size="14" font-weight="normal" line-spacing="20" fill="#272C37">
                        <tspan x="197.078" y="14">Parameters</tspan>
                    </text>
                </g>
                <g id="Head-bar">
                    <path d="M5,0 L1526,0 C1528.20914,-4.05812251e-16 1530,1.790861 1530,4 L1530,48 L1,48 L1,4 C1,1.790861 2.790861,4.05812251e-16 5,0 Z" id="--c-header-bar" fill="#FFFFFF"></path>
                    <rect id="--c-border" fill="#E7E8EC" transform="translate(765.000000, 46.500000) scale(1, -1) translate(-765.000000, -46.500000) " x="0" y="46" width="1530" height="1"></rect>
                    <polygon id="--c-text" fill="#212B36" fill-rule="nonzero" transform="translate(1509.000000, 24.000000) rotate(-360.000000) translate(-1509.000000, -24.000000) " points="1505.15541 18 1503 20.155414 1504.10064 21.256051 1506.82166 24.0229299 1504.10064 26.743949 1503 27.7987261 1505.15541 30 1506.25605 28.8993631 1509.02293 26.1324841 1511.74395 28.8993631 1512.79873 30 1515 27.7987261 1513.89936 26.743949 1511.13248 24.0229299 1513.89936 21.256051 1515 20.155414 1512.79873 18 1511.74395 19.1006369 1509.02293 21.8216561 1506.25605 19.1006369"></polygon>
                    <text id="--c-heading" font-family="SourceSansPro-Bold, Source Sans Pro" font-size="16" font-weight="bold" fill="#212B36">
                        <tspan x="19" y="30">Query Builder</tspan>
                    </text>
                </g>
            </g>
        </g>
    </g>
</svg>