<svg xmlns="http://www.w3.org/2000/svg" width="48" height="48" viewBox="0 0 48 48">
  <path d="M9.30295008 10.8850165L4.21747353 10.8850165 3.70688351 12.4153132 4.21747353 12.4153132C4.72125819 12.4153132 5.08036958 12.5316147 5.29481846 12.7642209 5.50926733 12.9968273 5.61649017 13.3008432 5.61649017 13.6762777 5.61649017 14.043551 5.50926733 14.343486 5.29481846 14.5760924 5.08036958 14.8086985 4.72125819 14.925 4.21747353 14.925L1.39901664 14.925C.895231974 14.925.536120588 14.8086985.321671709 14.5760924.107222831 14.343486 0 14.0394702 0 13.6640355 0 13.2886008.11232868 12.9825444.336989411 12.7458574.56165014 12.5091704.932675174 12.3989901 1.45007564 12.4153132L4.73827534 2.59692911 3.3698941 2.59692911C2.86610943 2.59692911 2.50699805 2.48062772 2.29254917 2.24802144 2.07810029 2.01541517 1.97087746 1.71139924 1.97087746 1.33596455 1.97087746.96052986 2.07810029.65651394 2.29254917.423907665 2.50699805.19130139 2.86610943.075 3.3698941.075L7.89372163.08724237 12.0601362 12.4153132C12.550305 12.4153132 12.8736755 12.4806053 13.0302572 12.6111912 13.3434206 12.8805249 13.5 13.2355501 13.5 13.6762777 13.5 14.043551 13.3944791 14.343486 13.1834342 14.5760924 12.9723893 14.8086985 12.6149798 14.925 12.1111952 14.925L9.29273827 14.925C8.78895362 14.925 8.42984221 14.8086985 8.21539335 14.5760924 8.00094447 14.343486 7.89372163 14.0394702 7.89372163 13.6640355 7.89372163 13.2967625 8.00094447 12.9968273 8.21539335 12.7642209 8.42984221 12.5316147 8.78895362 12.4153132 9.29273827 12.4153132L9.80332828 12.4153132 9.30295008 10.8850165zM8.43494704 8.37532976L6.75 3.40492581 5.05484115 8.37532976 8.43494704 8.37532976zM20.3583257 14.5201083L20.3583257 13.9484964C19.862463 14.2739992 19.3150903 14.5181227 18.7161914 14.6808741 18.1172923 14.8436255 17.5731394 14.925 17.0837166 14.925 16.0211538 14.925 15.158237 14.5776699 14.4949402 13.8829992 13.8316434 13.1883285 13.5 12.4202328 13.5 11.5786888 13.5 10.5545459 13.9234088 9.60385362 14.7702392 8.72658379 15.6170696 7.84931399 16.787481 7.41068565 18.2815088 7.41068565 18.8804077 7.41068565 19.5726732 7.49007538 20.3583257 7.64885725L20.3583257 7.06533681C20.3583257 6.70013851 20.231142 6.40242698 19.976771 6.17219327 19.7223999 5.94195956 19.2378141 5.82684443 18.5229992 5.82684443 17.9369796 5.82684443 17.1770976 5.96974596 16.2433302 6.25555334 15.8955825 6.35876154 15.625116 6.41036487 15.4319228 6.41036487 15.167892 6.41036487 14.9441131 6.293265 14.7605796 6.05906175 14.577046 5.82485849 14.4852806 5.5251622 14.4852806 5.15996391 14.4852806 4.95354748 14.517479 4.77492056 14.5818767 4.62407778 14.6462745 4.47323501 14.73643 4.35216566 14.8523459 4.26086608 14.9682618 4.1695665 15.2097498 4.06040561 15.5768169 3.93338011 16.0662398 3.76665915 16.5653148 3.63368133 17.0740571 3.53444266 17.5827993 3.435204 18.0432361 3.38558541 18.4553819 3.38558541 19.6853787 3.38558541 20.640061 3.7130681 21.3194572 4.36804331 21.9988534 5.02301851 22.3385465 5.91813788 22.3385465 7.05342824L22.3385465 12.0788493 22.6766329 12.0788493C23.1531762 12.0788493 23.4928692 12.1919796 23.6957222 12.4182438 23.8985751 12.644508 24 12.9402348 24 13.3054331 24 13.6626923 23.8985751 13.9544496 23.6957222 14.1807137 23.4928692 14.4069779 23.1531762 14.5201083 22.6766329 14.5201083L20.3583257 14.5201083zM20.3583256 10.1496592C19.5662334 9.95912094 18.8353299 9.86385326 18.1655934 9.86385326 17.3606216 9.86385326 16.6683561 10.105992 16.0887765 10.5902766 15.7281491 10.8999014 15.5478381 11.2134908 15.5478381 11.5310546 15.5478381 11.7612882 15.6347737 11.9478542 15.8086476 12.0907578 16.1306364 12.352748 16.5717543 12.483741 17.1320146 12.483741 17.608558 12.483741 18.1478811 12.3686259 18.75 12.1383921 19.3521189 11.9081585 19.888222 11.5945689 20.3583256 11.1976143L20.3583256 10.1496592z" transform="translate(12 17)"/>
</svg>
