<svg xmlns="http://www.w3.org/2000/svg" width="48" height="48" viewBox="0 0 48 48">
  <g transform="translate(14 12)">
    <path d="M9.77777778 19.4222222C5.91111111 19.4222222 2 18.7111111 0 17.3333333L0 21.0222222C0 22.1777778 3.82222222 23.8666667 9.77777778 23.8666667 15.7333333 23.8666667 19.5555556 22.1777778 19.5555556 21.0222222L19.5555556 17.3333333C17.5555556 18.7111111 13.6444444 19.4222222 9.77777778 19.4222222zM9.77777778 5.86666667C15.7333333 5.86666667 19.5555556 4.17777778 19.5555556 3.02222222 19.5555556 1.86666667 15.7333333.177777778 9.77777778.177777778 3.82222222.177777778 0 1.86666667 0 3.02222222 0 4.17777778 3.82222222 5.86666667 9.77777778 5.86666667z"/>
    <path d="M9.77777778,13.2 C5.91111111,13.2 2,12.4888889 0,11.1111111 L0,15.2444444 C0,16.4 3.82222222,18.0888889 9.77777778,18.0888889 C15.7333333,18.0888889 19.5555556,16.4 19.5555556,15.2444444 L19.5555556,11.1111111 C17.5555556,12.4888889 13.6444444,13.2 9.77777778,13.2 Z"/>
    <path d="M9.77777778,7.2 C5.91111111,7.2 2,6.48888889 0,5.11111111 L0,8.97777778 C0,10.1333333 3.82222222,11.8222222 9.77777778,11.8222222 C15.7333333,11.8222222 19.5555556,10.1333333 19.5555556,8.97777778 L19.5555556,5.11111111 C17.5555556,6.48888889 13.6444444,7.2 9.77777778,7.2 Z"/>
  </g>
</svg>
