<svg xmlns="http://www.w3.org/2000/svg" width="48" height="48" viewBox="0 0 48 48">
  <path d="M1.567 20.376C1.959 20.18 2.361 19.88 2.774 19.475 3.187 19.07 3.575 18.54 3.94 17.884 4.304 17.228 4.562 16.405 4.717 15.413L6.061 6.893 8.392 6.893C8.603 6.529 8.672 6.164 8.603 5.801L6.272 5.801 6.481 4.751C6.635 4.024 6.797 3.449 6.965 3.028 7.132 2.608 7.311 2.283 7.5 2.052 7.689 1.821 7.888 1.664 8.099 1.58 8.31 1.495 8.541 1.419 8.792 1.349L10.388 2.651C10.668 2.413 10.868 2.13 10.987 1.801 11.106 1.472 11.18 1.153 11.207.845 10.983.733 10.707.649 10.378.593 10.049.537 9.764.508 9.526.508 8.952.508 8.413.571 7.91.698 7.406.824 6.943 1.051 6.524 1.38 6.104 1.708 5.737 2.157 5.422 2.724 5.106 3.29 4.857 4.008 4.676 4.876L4.53 5.612C4.25 5.684 3.952 5.782 3.637 5.905 3.322 6.028 3.025 6.17 2.744 6.329L2.744 6.894 4.277 6.894 2.913 15.812C2.801 16.511 2.644 17.12 2.44 17.644 2.238 18.168 2.02 18.611 1.789 18.974 1.558 19.336 1.324 19.626 1.086 19.842.848 20.058.644 20.208.476 20.292L.666 20.753C.874 20.697 1.174 20.571 1.567 20.376zM9.085 13.843C9.085 15.131 9.341 16.338 9.852 17.465 10.362 18.593 11.219 19.674 12.424 20.711L13.034 20.29C12.207 19.282 11.641 18.228 11.332 17.13 11.024 16.031 10.878 14.851 10.892 13.592 10.878 12.275 11.056 11.037 11.428 9.875 11.799 8.713 12.278 7.645 12.866 6.672 13.454 5.7 14.105 4.814 14.818 4.016 15.532 3.219 16.232 2.526 16.918 1.938L16.561 1.559C15.722 2.092 14.86 2.739 13.978 3.502 13.096 4.265 12.294 5.151 11.573 6.158 10.852 7.166 10.256 8.307 9.789 9.581 9.319 10.854 9.085 12.275 9.085 13.843zM16.204 6.451L16.204 6.976 17.548 7.144 18.975 11.008C18.751 11.205 18.414 11.502 17.967 11.901 17.519 12.3 17.056 12.745 16.581 13.234 16.105 13.725 15.67 14.229 15.279 14.746 14.887 15.264 14.628 15.733 14.501 16.153 14.81 16.335 15.194 16.426 15.656 16.426 15.88 16.426 16.114 16.405 16.36 16.363 16.605 16.321 16.845 16.251 17.085 16.152 17.07 16.069 17.063 15.939 17.063 15.764 17.063 15.589 17.067 15.4 17.074 15.198 17.081 14.994 17.088 14.802 17.095 14.62 17.102 14.438 17.12 14.299 17.148 14.2 17.245 14.018 17.379 13.823 17.547 13.612 17.714 13.401 17.896 13.192 18.093 12.982 18.289 12.773 18.488 12.569 18.692 12.374 18.894 12.177 19.073 11.995 19.227 11.827L20.382 15.628C20.453 15.852 20.567 16.042 20.722 16.195 20.878 16.349 21.105 16.426 21.404 16.426 21.587 16.426 21.79 16.399 22.01 16.343 22.23 16.287 22.435 16.217 22.627 16.132 22.82 16.049 22.996 15.964 23.16 15.88 23.323 15.795 23.447 15.726 23.532 15.669L23.532 15.144 22.168 14.976 20.656 10.881C20.795 10.755 20.988 10.584 21.233 10.367 21.478 10.15 21.74 9.905 22.02 9.631 22.3 9.359 22.59 9.064 22.892 8.749 23.193 8.435 23.476 8.116 23.742 7.793 24.007 7.472 24.238 7.149 24.435 6.828 24.631 6.505 24.77 6.205 24.855 5.924 24.517 5.742 24.125 5.651 23.676 5.651 23.437 5.651 23.202 5.676 22.971 5.725 22.739 5.774 22.503 5.841 22.266 5.925 22.28 6.01 22.295 6.138 22.308 6.313 22.322 6.488 22.335 6.678 22.35 6.88 22.364 7.084 22.371 7.275 22.371 7.457 22.371 7.64 22.364 7.78 22.35 7.878 22.153 8.242 21.863 8.627 21.478 9.032 21.092 9.439 20.74 9.803 20.418 10.124L19.389 6.471C19.304 6.26 19.191 6.075 19.049 5.913 18.908 5.753 18.681 5.672 18.37 5.672 18.172 5.672 17.967 5.699 17.755 5.755 17.542 5.811 17.334 5.881 17.127 5.966 16.922 6.049 16.737 6.137 16.575 6.229 16.412 6.322 16.287 6.395 16.204 6.451zM28.458 5.127C28.618 5.631 28.73 6.143 28.793 6.661 28.856 7.179 28.889 7.738 28.889 8.341 28.889 9.741 28.689 11.056 28.29 12.288 27.891 13.52 27.393 14.644 26.798 15.659 26.203 16.673 25.552 17.573 24.846 18.356 24.139 19.141 23.477 19.785 22.861 20.288L23.281 20.709C24.178 20.191 25.062 19.536 25.937 18.744 26.812 17.954 27.599 17.047 28.3 16.025 29 15.004 29.567 13.866 30.002 12.613 30.435 11.361 30.653 10.006 30.653 8.55 30.653 7.235 30.391 6.013 29.866 4.886 29.341 3.759 28.476 2.649 27.272 1.557L26.725 1.936C27.16 2.524 27.517 3.076 27.797 3.594 28.077 4.112 28.297 4.624 28.458 5.127z" transform="translate(9 14)"/>
</svg>
