<svg xmlns="http://www.w3.org/2000/svg" width="48" height="48" viewBox="0 0 48 48">
  <g transform="translate(12 12)">
    <circle cx="12" cy="12" r="4.756"/>
    <path d="M21.0666667,11.1111111 C20.6666667,6.8 17.2,3.37777778 12.8888889,2.93333333 L12.8888889,0.0888888889 L11.1111111,0.0888888889 L11.1111111,2.93333333 C6.8,3.33333333 3.37777778,6.8 2.93333333,11.1111111 L0.0888888889,11.1111111 L0.0888888889,12.8888889 L2.93333333,12.8888889 C3.33333333,17.2 6.8,20.6222222 11.1111111,21.0666667 L11.1111111,23.9111111 L12.8888889,23.9111111 L12.8888889,21.0666667 C17.2,20.6666667 20.6222222,17.2 21.0666667,12.8888889 L23.9111111,12.8888889 L23.9111111,11.1111111 L21.0666667,11.1111111 Z M12,19.3333333 C7.95555556,19.3333333 4.66666667,16.0444444 4.66666667,12 C4.66666667,7.95555556 7.95555556,4.66666667 12,4.66666667 C16.0444444,4.66666667 19.3333333,7.95555556 19.3333333,12 C19.3333333,16.0444444 16.0444444,19.3333333 12,19.3333333 Z"/>
  </g>
</svg>
