<svg xmlns="http://www.w3.org/2000/svg" width="48" height="48" viewBox="0 0 48 48">
  <path d="M7.05 8.4C5.57218806 8.39771731 4.27303834 9.37820767 3.87 10.8L.15 10.8.15 12.6 3.87 12.6C4.26626375 14.0290036 5.56707169 15.0181837 7.05 15.0181837 8.53292831 15.0181837 9.83373625 14.0290036 10.23 12.6L23.85 12.6 23.85 10.8 10.23 10.8C9.82696166 9.37820767 8.52781194 8.39771731 7.05 8.4zM7.05 13.2C6.22157288 13.2 5.55 12.5284271 5.55 11.7 5.55 10.8715729 6.22157288 10.2 7.05 10.2 7.87842712 10.2 8.55 10.8715729 8.55 11.7 8.55 12.5284271 7.87842712 13.2 7.05 13.2zM16.95.15C15.4721881.14771731 14.1730383 1.12820767 13.77 2.55L.15 2.55.15 4.35 13.77 4.35C14.1662637 5.77900364 15.4670717 6.76818369 16.95 6.76818369 18.4329283 6.76818369 19.7337363 5.77900364 20.13 4.35L23.85 4.35 23.85 2.55 20.13 2.55C19.7269617 1.12820767 18.4278119.14771731 16.95.15zM16.95 4.95C16.1215729 4.95 15.45 4.27842712 15.45 3.45 15.45 2.62157288 16.1215729 1.95 16.95 1.95 17.7784271 1.95 18.45 2.62157288 18.45 3.45 18.45 4.27842712 17.7784271 4.95 16.95 4.95zM16.95 16.65C15.4721881 16.6477173 14.1730383 17.6282077 13.77 19.05L.15 19.05.15 20.85 13.77 20.85C14.1662637 22.2790036 15.4670717 23.2681837 16.95 23.2681837 18.4329283 23.2681837 19.7337363 22.2790036 20.13 20.85L23.85 20.85 23.85 19.05 20.13 19.05C19.7269617 17.6282077 18.4278119 16.6477173 16.95 16.65L16.95 16.65zM16.95 21.45C16.1215729 21.45 15.45 20.7784271 15.45 19.95 15.45 19.1215729 16.1215729 18.45 16.95 18.45 17.7784271 18.45 18.45 19.1215729 18.45 19.95 18.45 20.7784271 17.7784271 21.45 16.95 21.45z" transform="translate(12 12)"/>
</svg>
