<svg xmlns="http://www.w3.org/2000/svg" width="24" height="24">
  <path d="M11.875 0C5.325 0 0 5.325 0 11.875S5.325 23.75 11.875 23.75 23.75 18.425 23.75 11.875 18.425 0 11.875 0zm.925 13.575V17.6c0 .3-.225.525-.525.525h-.8a.513.513 0 0 1-.525-.525v-4.025c0-.425-.35-.75-.75-.75H6.175a.513.513 0 0 1-.525-.525v-.8c0-.3.225-.525.525-.525H10.2c.425 0 .75-.35.75-.75V6.2c0-.3.225-.525.525-.525h.8c.3 0 .525.225.525.525v4.025c0 .425.35.75.75.75h4.025c.3 0 .525.225.525.525v.8c0 .3-.225.525-.525.525H13.55c-.4-.025-.75.325-.75.75z"/>
</svg>
