<?xml version="1.0" encoding="UTF-8"?>
<svg width="282px" height="121px" viewBox="0 0 282 121" version="1.1" xmlns="http://www.w3.org/2000/svg" xmlns:xlink="http://www.w3.org/1999/xlink">
    <title>assetTypeTree</title>
    <g id="assetTypeTree" stroke="none" stroke-width="1" fill="none" fill-rule="evenodd">
        <rect id="Rectangle" stroke="#DADADA" x="0.5" y="0.5" width="281" height="120" rx="4"></rect>
        <path d="M7.016,17 L7.576,14.83 L10.362,14.83 L10.922,17 L13.106,17 L10.25,7.872 L7.772,7.872 L4.916,17 L7.016,17 Z M9.942,13.22 L7.996,13.22 L8.22,12.38 C8.472,11.47 8.71,10.406 8.934,9.44 L8.99,9.44 C9.228,10.392 9.48,11.47 9.732,12.38 L9.942,13.22 Z M15.976,17.168 C17.838,17.168 18.832,16.188 18.832,14.928 C18.832,13.654 17.838,13.164 16.956,12.842 C16.242,12.576 15.598,12.408 15.598,11.96 C15.598,11.61 15.85,11.414 16.382,11.414 C16.872,11.414 17.348,11.638 17.852,12.002 L18.776,10.77 C18.174,10.322 17.39,9.888 16.326,9.888 C14.716,9.888 13.666,10.77 13.666,12.058 C13.666,13.206 14.66,13.78 15.5,14.102 C16.214,14.382 16.914,14.592 16.914,15.054 C16.914,15.418 16.648,15.642 16.032,15.642 C15.444,15.642 14.87,15.39 14.24,14.914 L13.316,16.202 C14.016,16.776 15.066,17.168 15.976,17.168 Z M22.178,17.168 C24.04,17.168 25.034,16.188 25.034,14.928 C25.034,13.654 24.04,13.164 23.158,12.842 C22.444,12.576 21.8,12.408 21.8,11.96 C21.8,11.61 22.052,11.414 22.584,11.414 C23.074,11.414 23.55,11.638 24.054,12.002 L24.978,10.77 C24.376,10.322 23.592,9.888 22.528,9.888 C20.918,9.888 19.868,10.77 19.868,12.058 C19.868,13.206 20.862,13.78 21.702,14.102 C22.416,14.382 23.116,14.592 23.116,15.054 C23.116,15.418 22.85,15.642 22.234,15.642 C21.646,15.642 21.072,15.39 20.442,14.914 L19.518,16.202 C20.218,16.776 21.268,17.168 22.178,17.168 Z M29.444,17.168 C30.27,17.168 31.194,16.874 31.908,16.384 L31.222,15.138 C30.718,15.446 30.242,15.6 29.724,15.6 C28.8,15.6 28.1,15.138 27.918,14.13 L32.076,14.13 C32.118,13.962 32.16,13.584 32.16,13.22 C32.16,11.33 31.18,9.888 29.206,9.888 C27.54,9.888 25.93,11.274 25.93,13.528 C25.93,15.824 27.456,17.168 29.444,17.168 Z M30.41,12.772 L27.904,12.772 C28.044,11.89 28.604,11.456 29.248,11.456 C30.074,11.456 30.41,12.002 30.41,12.772 Z M36.262,17.168 C36.934,17.168 37.438,17.028 37.802,16.916 L37.48,15.418 C37.298,15.488 37.046,15.558 36.822,15.558 C36.276,15.558 35.926,15.236 35.926,14.452 L35.926,11.666 L37.592,11.666 L37.592,10.056 L35.926,10.056 L35.926,8.208 L34.218,8.208 L33.98,10.056 L32.916,10.14 L32.916,11.666 L33.868,11.666 L33.868,14.48 C33.868,16.09 34.54,17.168 36.262,17.168 Z M45.768,17 L45.768,9.608 L48.274,9.608 L48.274,7.872 L41.19,7.872 L41.19,9.608 L43.696,9.608 L43.696,17 L45.768,17 Z M50.304,19.716 C51.942,19.716 52.684,18.82 53.342,17.07 L55.75,10.056 L53.776,10.056 L52.936,13.038 C52.768,13.696 52.614,14.354 52.46,15.012 L52.404,15.012 C52.222,14.326 52.054,13.668 51.858,13.038 L50.864,10.056 L48.792,10.056 L51.466,16.818 L51.368,17.182 C51.186,17.728 50.836,18.092 50.15,18.092 C49.996,18.092 49.814,18.036 49.688,18.008 L49.324,19.576 C49.604,19.66 49.884,19.716 50.304,19.716 Z M58.886,19.576 L58.886,17.546 L58.816,16.44 C59.306,16.902 59.866,17.168 60.468,17.168 C61.966,17.168 63.394,15.796 63.394,13.416 C63.394,11.274 62.358,9.888 60.678,9.888 C59.95,9.888 59.25,10.252 58.704,10.742 L58.648,10.742 L58.508,10.056 L56.828,10.056 L56.828,19.576 L58.886,19.576 Z M59.992,15.488 C59.642,15.488 59.25,15.376 58.886,15.04 L58.886,12.198 C59.292,11.764 59.656,11.568 60.076,11.568 C60.902,11.568 61.28,12.198 61.28,13.444 C61.28,14.872 60.706,15.488 59.992,15.488 Z M67.958,17.168 C68.784,17.168 69.708,16.874 70.422,16.384 L69.736,15.138 C69.232,15.446 68.756,15.6 68.238,15.6 C67.314,15.6 66.614,15.138 66.432,14.13 L70.59,14.13 C70.632,13.962 70.674,13.584 70.674,13.22 C70.674,11.33 69.694,9.888 67.72,9.888 C66.054,9.888 64.444,11.274 64.444,13.528 C64.444,15.824 65.97,17.168 67.958,17.168 Z M68.924,12.772 L66.418,12.772 C66.558,11.89 67.118,11.456 67.762,11.456 C68.588,11.456 68.924,12.002 68.924,12.772 Z M78.92,17 L78.92,9.608 L81.426,9.608 L81.426,7.872 L74.342,7.872 L74.342,9.608 L76.848,9.608 L76.848,17 L78.92,17 Z M84.744,17 L84.744,12.968 C85.108,12.03 85.752,11.694 86.27,11.694 C86.564,11.694 86.774,11.736 87.026,11.806 L87.362,10.028 C87.166,9.944 86.928,9.888 86.536,9.888 C85.822,9.888 85.066,10.336 84.562,11.274 L84.506,11.274 L84.366,10.056 L82.686,10.056 L82.686,17 L84.744,17 Z M91.366,17.168 C92.192,17.168 93.116,16.874 93.83,16.384 L93.144,15.138 C92.64,15.446 92.164,15.6 91.646,15.6 C90.722,15.6 90.022,15.138 89.84,14.13 L93.998,14.13 C94.04,13.962 94.082,13.584 94.082,13.22 C94.082,11.33 93.102,9.888 91.128,9.888 C89.462,9.888 87.852,11.274 87.852,13.528 C87.852,15.824 89.378,17.168 91.366,17.168 Z M92.332,12.772 L89.826,12.772 C89.966,11.89 90.526,11.456 91.17,11.456 C91.996,11.456 92.332,12.002 92.332,12.772 Z M98.618,17.168 C99.444,17.168 100.368,16.874 101.082,16.384 L100.396,15.138 C99.892,15.446 99.416,15.6 98.898,15.6 C97.974,15.6 97.274,15.138 97.092,14.13 L101.25,14.13 C101.292,13.962 101.334,13.584 101.334,13.22 C101.334,11.33 100.354,9.888 98.38,9.888 C96.714,9.888 95.104,11.274 95.104,13.528 C95.104,15.824 96.63,17.168 98.618,17.168 Z M99.584,12.772 L97.078,12.772 C97.218,11.89 97.778,11.456 98.422,11.456 C99.248,11.456 99.584,12.002 99.584,12.772 Z" id="AssetTypeTree" fill="#272C37" fill-rule="nonzero"></path>
        <line x1="0.5" y1="24.5" x2="283.5" y2="24.5" id="Line-3-Copy" stroke="#DADADA" stroke-linecap="square"></line>
        <rect id="Rectangle-Copy-12" fill="#ADADAD" opacity="0.800000012" x="17" y="32" width="41" height="4"></rect>
        <rect id="Rectangle-Copy-13" fill="#ADADAD" opacity="0.800000012" x="31" y="44" width="41" height="4"></rect>
        <rect id="Rectangle" stroke="#979797" x="5.5" y="31.5" width="5" height="5"></rect>
        <rect id="Rectangle-Copy" stroke="#979797" x="18.5" y="43.5" width="5" height="5"></rect>
        <rect id="Rectangle-Copy-14" fill="#ADADAD" opacity="0.800000012" x="31" y="57" width="41" height="4"></rect>
        <rect id="Rectangle-Copy-2" stroke="#979797" x="18.5" y="56.5" width="5" height="5"></rect>
        <rect id="Rectangle-Copy-16" fill="#ADADAD" opacity="0.800000012" x="44" y="70" width="41" height="4"></rect>
        <rect id="Rectangle-Copy-4" stroke="#979797" x="31.5" y="69.5" width="5" height="5"></rect>
        <rect id="Rectangle-Copy-15" fill="#ADADAD" opacity="0.800000012" x="44" y="83" width="41" height="4"></rect>
        <rect id="Rectangle-Copy-3" stroke="#979797" x="31.5" y="82.5" width="5" height="5"></rect>
        <rect id="Rectangle-Copy-17" fill="#ADADAD" opacity="0.800000012" x="57" y="96" width="41" height="4"></rect>
        <rect id="Rectangle-Copy-5" stroke="#979797" x="44.5" y="95.5" width="5" height="5"></rect>
        <rect id="Rectangle-Copy-18" fill="#ADADAD" opacity="0.800000012" x="57" y="109" width="41" height="4"></rect>
        <rect id="Rectangle-Copy-6" stroke="#979797" x="44.5" y="108.5" width="5" height="5"></rect>
    </g>
</svg>