<?xml version="1.0" encoding="UTF-8"?>
<svg width="282px" height="121px" viewBox="0 0 282 121" version="1.1" xmlns="http://www.w3.org/2000/svg" xmlns:xlink="http://www.w3.org/1999/xlink">
    <title>assetTree</title>
    <g id="assetTree" stroke="none" stroke-width="1" fill="none" fill-rule="evenodd">
        <rect id="Rectangle" stroke="#DADADA" x="0.5" y="0.5" width="281" height="120" rx="4"></rect>
        <path d="M7.016,17 L7.576,14.83 L10.362,14.83 L10.922,17 L13.106,17 L10.25,7.872 L7.772,7.872 L4.916,17 L7.016,17 Z M9.942,13.22 L7.996,13.22 L8.22,12.38 C8.472,11.47 8.71,10.406 8.934,9.44 L8.99,9.44 C9.228,10.392 9.48,11.47 9.732,12.38 L9.942,13.22 Z M15.976,17.168 C17.838,17.168 18.832,16.188 18.832,14.928 C18.832,13.654 17.838,13.164 16.956,12.842 C16.242,12.576 15.598,12.408 15.598,11.96 C15.598,11.61 15.85,11.414 16.382,11.414 C16.872,11.414 17.348,11.638 17.852,12.002 L18.776,10.77 C18.174,10.322 17.39,9.888 16.326,9.888 C14.716,9.888 13.666,10.77 13.666,12.058 C13.666,13.206 14.66,13.78 15.5,14.102 C16.214,14.382 16.914,14.592 16.914,15.054 C16.914,15.418 16.648,15.642 16.032,15.642 C15.444,15.642 14.87,15.39 14.24,14.914 L13.316,16.202 C14.016,16.776 15.066,17.168 15.976,17.168 Z M22.178,17.168 C24.04,17.168 25.034,16.188 25.034,14.928 C25.034,13.654 24.04,13.164 23.158,12.842 C22.444,12.576 21.8,12.408 21.8,11.96 C21.8,11.61 22.052,11.414 22.584,11.414 C23.074,11.414 23.55,11.638 24.054,12.002 L24.978,10.77 C24.376,10.322 23.592,9.888 22.528,9.888 C20.918,9.888 19.868,10.77 19.868,12.058 C19.868,13.206 20.862,13.78 21.702,14.102 C22.416,14.382 23.116,14.592 23.116,15.054 C23.116,15.418 22.85,15.642 22.234,15.642 C21.646,15.642 21.072,15.39 20.442,14.914 L19.518,16.202 C20.218,16.776 21.268,17.168 22.178,17.168 Z M29.444,17.168 C30.27,17.168 31.194,16.874 31.908,16.384 L31.222,15.138 C30.718,15.446 30.242,15.6 29.724,15.6 C28.8,15.6 28.1,15.138 27.918,14.13 L32.076,14.13 C32.118,13.962 32.16,13.584 32.16,13.22 C32.16,11.33 31.18,9.888 29.206,9.888 C27.54,9.888 25.93,11.274 25.93,13.528 C25.93,15.824 27.456,17.168 29.444,17.168 Z M30.41,12.772 L27.904,12.772 C28.044,11.89 28.604,11.456 29.248,11.456 C30.074,11.456 30.41,12.002 30.41,12.772 Z M36.262,17.168 C36.934,17.168 37.438,17.028 37.802,16.916 L37.48,15.418 C37.298,15.488 37.046,15.558 36.822,15.558 C36.276,15.558 35.926,15.236 35.926,14.452 L35.926,11.666 L37.592,11.666 L37.592,10.056 L35.926,10.056 L35.926,8.208 L34.218,8.208 L33.98,10.056 L32.916,10.14 L32.916,11.666 L33.868,11.666 L33.868,14.48 C33.868,16.09 34.54,17.168 36.262,17.168 Z M45.768,17 L45.768,9.608 L48.274,9.608 L48.274,7.872 L41.19,7.872 L41.19,9.608 L43.696,9.608 L43.696,17 L45.768,17 Z M51.592,17 L51.592,12.968 C51.956,12.03 52.6,11.694 53.118,11.694 C53.412,11.694 53.622,11.736 53.874,11.806 L54.21,10.028 C54.014,9.944 53.776,9.888 53.384,9.888 C52.67,9.888 51.914,10.336 51.41,11.274 L51.354,11.274 L51.214,10.056 L49.534,10.056 L49.534,17 L51.592,17 Z M58.214,17.168 C59.04,17.168 59.964,16.874 60.678,16.384 L59.992,15.138 C59.488,15.446 59.012,15.6 58.494,15.6 C57.57,15.6 56.87,15.138 56.688,14.13 L60.846,14.13 C60.888,13.962 60.93,13.584 60.93,13.22 C60.93,11.33 59.95,9.888 57.976,9.888 C56.31,9.888 54.7,11.274 54.7,13.528 C54.7,15.824 56.226,17.168 58.214,17.168 Z M59.18,12.772 L56.674,12.772 C56.814,11.89 57.374,11.456 58.018,11.456 C58.844,11.456 59.18,12.002 59.18,12.772 Z M65.466,17.168 C66.292,17.168 67.216,16.874 67.93,16.384 L67.244,15.138 C66.74,15.446 66.264,15.6 65.746,15.6 C64.822,15.6 64.122,15.138 63.94,14.13 L68.098,14.13 C68.14,13.962 68.182,13.584 68.182,13.22 C68.182,11.33 67.202,9.888 65.228,9.888 C63.562,9.888 61.952,11.274 61.952,13.528 C61.952,15.824 63.478,17.168 65.466,17.168 Z M66.432,12.772 L63.926,12.772 C64.066,11.89 64.626,11.456 65.27,11.456 C66.096,11.456 66.432,12.002 66.432,12.772 Z" id="AssetTree" fill="#272C37" fill-rule="nonzero"></path>
        <line x1="0.5" y1="24.5" x2="283.5" y2="24.5" id="Line-3-Copy" stroke="#DADADA" stroke-linecap="square"></line>
        <rect id="Rectangle-Copy-12" fill="#ADADAD" opacity="0.800000012" x="17" y="32" width="41" height="4"></rect>
        <rect id="Rectangle-Copy-13" fill="#ADADAD" opacity="0.800000012" x="31" y="44" width="41" height="4"></rect>
        <rect id="Rectangle" stroke="#979797" x="5.5" y="31.5" width="5" height="5"></rect>
        <rect id="Rectangle-Copy" stroke="#979797" x="18.5" y="43.5" width="5" height="5"></rect>
        <rect id="Rectangle-Copy-14" fill="#ADADAD" opacity="0.800000012" x="31" y="57" width="41" height="4"></rect>
        <rect id="Rectangle-Copy-2" stroke="#979797" x="18.5" y="56.5" width="5" height="5"></rect>
        <rect id="Rectangle-Copy-16" fill="#ADADAD" opacity="0.800000012" x="44" y="70" width="41" height="4"></rect>
        <rect id="Rectangle-Copy-4" stroke="#979797" x="31.5" y="69.5" width="5" height="5"></rect>
        <rect id="Rectangle-Copy-15" fill="#ADADAD" opacity="0.800000012" x="44" y="83" width="41" height="4"></rect>
        <rect id="Rectangle-Copy-3" stroke="#979797" x="31.5" y="82.5" width="5" height="5"></rect>
        <rect id="Rectangle-Copy-17" fill="#ADADAD" opacity="0.800000012" x="57" y="96" width="41" height="4"></rect>
        <rect id="Rectangle-Copy-5" stroke="#979797" x="44.5" y="95.5" width="5" height="5"></rect>
        <rect id="Rectangle-Copy-18" fill="#ADADAD" opacity="0.800000012" x="57" y="109" width="41" height="4"></rect>
        <rect id="Rectangle-Copy-6" stroke="#979797" x="44.5" y="108.5" width="5" height="5"></rect>
    </g>
</svg>