<?xml version="1.0" encoding="UTF-8"?>
<svg width="282px" height="122px" viewBox="0 0 282 122" version="1.1" xmlns="http://www.w3.org/2000/svg" xmlns:xlink="http://www.w3.org/1999/xlink">
    <title>barChart</title>
    <g id="barChart" stroke="none" stroke-width="1" fill="none" fill-rule="evenodd">
        <path d="M12.466,20 C14.44,20 16.008,19.174 16.008,17.312 C16.008,16.094 15.294,15.408 14.37,15.17 L14.37,15.114 C15.112,14.834 15.56,13.952 15.56,13.14 C15.56,11.39 14.09,10.872 12.2,10.872 L9.078,10.872 L9.078,20 L12.466,20 Z M12.102,14.526 L11.136,14.526 L11.136,12.468 L12.116,12.468 C13.082,12.468 13.544,12.734 13.544,13.448 C13.544,14.106 13.11,14.526 12.102,14.526 Z M12.298,18.404 L11.136,18.404 L11.136,16.052 L12.298,16.052 C13.432,16.052 13.992,16.374 13.992,17.172 C13.992,18.012 13.418,18.404 12.298,18.404 Z M19.13,20.168 C19.914,20.168 20.558,19.804 21.146,19.286 L21.202,19.286 L21.342,20 L23.022,20 L23.022,16.024 C23.022,13.896 22.042,12.888 20.264,12.888 C19.172,12.888 18.178,13.266 17.296,13.798 L18.038,15.156 C18.71,14.764 19.284,14.526 19.872,14.526 C20.628,14.526 20.922,14.918 20.964,15.534 C18.22,15.814 17.058,16.612 17.058,18.068 C17.058,19.244 17.856,20.168 19.13,20.168 Z M19.83,18.572 C19.34,18.572 19.032,18.362 19.032,17.914 C19.032,17.382 19.508,16.962 20.964,16.766 L20.964,17.984 C20.6,18.348 20.292,18.572 19.83,18.572 Z M26.816,20 L26.816,15.968 C27.18,15.03 27.824,14.694 28.342,14.694 C28.636,14.694 28.846,14.736 29.098,14.806 L29.434,13.028 C29.238,12.944 29,12.888 28.608,12.888 C27.894,12.888 27.138,13.336 26.634,14.274 L26.578,14.274 L26.438,13.056 L24.758,13.056 L24.758,20 L26.816,20 Z M37.106,20.168 C38.296,20.168 39.304,19.706 40.06,18.824 L38.968,17.536 C38.52,18.012 37.932,18.39 37.19,18.39 C35.846,18.39 34.978,17.298 34.978,15.422 C34.978,13.588 35.972,12.482 37.218,12.482 C37.876,12.482 38.366,12.79 38.828,13.21 L39.92,11.894 C39.304,11.264 38.352,10.704 37.176,10.704 C34.866,10.704 32.864,12.468 32.864,15.492 C32.864,18.558 34.796,20.168 37.106,20.168 Z M43.336,20 L43.336,15.31 C43.784,14.876 44.106,14.638 44.624,14.638 C45.212,14.638 45.478,14.946 45.478,15.954 L45.478,20 L47.536,20 L47.536,15.688 C47.536,13.952 46.892,12.888 45.38,12.888 C44.442,12.888 43.756,13.378 43.238,13.84 L43.336,12.594 L43.336,10.186 L41.278,10.186 L41.278,20 L43.336,20 Z M51.022,20.168 C51.806,20.168 52.45,19.804 53.038,19.286 L53.094,19.286 L53.234,20 L54.914,20 L54.914,16.024 C54.914,13.896 53.934,12.888 52.156,12.888 C51.064,12.888 50.07,13.266 49.188,13.798 L49.93,15.156 C50.602,14.764 51.176,14.526 51.764,14.526 C52.52,14.526 52.814,14.918 52.856,15.534 C50.112,15.814 48.95,16.612 48.95,18.068 C48.95,19.244 49.748,20.168 51.022,20.168 Z M51.722,18.572 C51.232,18.572 50.924,18.362 50.924,17.914 C50.924,17.382 51.4,16.962 52.856,16.766 L52.856,17.984 C52.492,18.348 52.184,18.572 51.722,18.572 Z M58.708,20 L58.708,15.968 C59.072,15.03 59.716,14.694 60.234,14.694 C60.528,14.694 60.738,14.736 60.99,14.806 L61.326,13.028 C61.13,12.944 60.892,12.888 60.5,12.888 C59.786,12.888 59.03,13.336 58.526,14.274 L58.47,14.274 L58.33,13.056 L56.65,13.056 L56.65,20 L58.708,20 Z M64.896,20.168 C65.568,20.168 66.072,20.028 66.436,19.916 L66.114,18.418 C65.932,18.488 65.68,18.558 65.456,18.558 C64.91,18.558 64.56,18.236 64.56,17.452 L64.56,14.666 L66.226,14.666 L66.226,13.056 L64.56,13.056 L64.56,11.208 L62.852,11.208 L62.614,13.056 L61.55,13.14 L61.55,14.666 L62.502,14.666 L62.502,17.48 C62.502,19.09 63.174,20.168 64.896,20.168 Z" id="BarChart" fill="#272C37" fill-rule="nonzero"></path>
        <line x1="33" y1="33" x2="32.5" y2="108.5" id="Line-2" stroke="#979797" stroke-width="2" stroke-linecap="square"></line>
        <rect id="Rectangle" fill="#B9D8EC" x="37" y="40" width="182" height="11"></rect>
        <rect id="Rectangle-Copy" fill="#B9D8EC" x="37" y="56" width="39" height="11"></rect>
        <rect id="Rectangle-Copy-2" fill="#B9D8EC" x="37" y="72" width="69" height="11"></rect>
        <rect id="Rectangle-Copy-3" fill="#B9D8EC" x="37" y="88" width="120" height="11"></rect>
        <rect id="Rectangle-Copy-16" fill="#ADADAD" opacity="0.800000012" x="10" y="43" width="19" height="4"></rect>
        <rect id="Rectangle-Copy-17" fill="#ADADAD" opacity="0.800000012" x="10" y="59" width="19" height="4"></rect>
        <rect id="Rectangle-Copy-18" fill="#ADADAD" opacity="0.800000012" x="10" y="75" width="19" height="4"></rect>
        <rect id="Rectangle-Copy-19" fill="#ADADAD" opacity="0.800000012" x="10" y="91" width="19" height="4"></rect>
    </g>
</svg>