<svg xmlns="http://www.w3.org/2000/svg" width="282" height="47" viewBox="0 0 282 47">
  <g fill="none" fill-rule="evenodd">
    <rect width="22" height="22" x="11" y="12" fill="#0276C2" rx="4"/>
    <path fill="#FFF" fill-rule="nonzero" d="M20.5656725,29.7643505 L29.7656934,20.511418 C30.0781022,20.1971828 30.0781022,19.6877401 29.7656934,19.3735356 L28.6343447,18.2356533 C28.321936,17.9214489 27.8153742,17.9214489 27.5029655,18.2356533 L20,25.7817471 L16.4970345,22.2586488 C16.1846258,21.9444137 15.678064,21.9444137 15.3656553,22.2586488 L14.2343066,23.3965311 C13.9218978,23.7107662 13.9218978,24.220209 14.2343066,24.5344134 L19.4343237,29.7643198 C19.746702,30.0785549 20.2532332,30.0785549 20.5656725,29.7643505 Z"/>
    <path fill="#272C37" fill-rule="nonzero" d="M44.732,28.168 C45.922,28.168 46.818,27.678 47.546,26.838 L46.902,26.11 C46.314,26.754 45.656,27.146 44.774,27.146 C43.038,27.146 41.932,25.69 41.932,23.38 C41.932,21.098 43.08,19.67 44.816,19.67 C45.6,19.67 46.202,20.02 46.692,20.538 L47.322,19.782 C46.79,19.18 45.922,18.648 44.802,18.648 C42.464,18.648 40.728,20.454 40.728,23.408 C40.728,26.404 42.436,28.168 44.732,28.168 Z M50.29,28 L50.29,23.072 C50.976,22.386 51.452,22.022 52.152,22.022 C53.048,22.022 53.44,22.568 53.44,23.842 L53.44,28 L54.588,28 L54.588,23.688 C54.588,21.952 53.944,21.028 52.516,21.028 C51.578,21.028 50.892,21.532 50.248,22.148 L50.29,20.748 L50.29,18.032 L49.142,18.032 L49.142,28 L50.29,28 Z M59.516,28.168 C60.44,28.168 61.168,27.846 61.756,27.468 L61.35,26.712 C60.846,27.034 60.3,27.244 59.656,27.244 C58.354,27.244 57.472,26.32 57.388,24.878 L61.98,24.878 C62.008,24.71 62.022,24.458 62.022,24.22 C62.022,22.274 61.042,21.028 59.306,21.028 C57.752,21.028 56.254,22.386 56.254,24.612 C56.254,26.838 57.696,28.168 59.516,28.168 Z M61.014,24.052 L57.374,24.052 C57.514,22.708 58.382,21.938 59.334,21.938 C60.398,21.938 61.014,22.68 61.014,24.052 Z M66.39,28.168 C67.202,28.168 67.972,27.846 68.588,27.3 L68.084,26.53 C67.664,26.908 67.118,27.216 66.488,27.216 C65.242,27.216 64.388,26.166 64.388,24.612 C64.388,23.044 65.284,21.98 66.516,21.98 C67.062,21.98 67.482,22.232 67.874,22.582 L68.462,21.826 C67.986,21.392 67.37,21.028 66.474,21.028 C64.724,21.028 63.198,22.33 63.198,24.612 C63.198,26.866 64.584,28.168 66.39,28.168 Z M71.22,28 L71.22,26.208 L72.494,24.724 L74.482,28 L75.742,28 L73.152,23.926 L75.434,21.196 L74.16,21.196 L71.262,24.78 L71.22,24.78 L71.22,18.032 L70.086,18.032 L70.086,28 L71.22,28 Z M80.026,28.168 C81.58,28.168 82.966,26.81 82.966,24.486 C82.966,22.386 82.028,21.028 80.264,21.028 C79.508,21.028 78.752,21.434 78.136,21.98 L78.164,20.748 L78.164,18.032 L77.016,18.032 L77.016,28 L77.94,28 L78.038,27.3 L78.08,27.3 C78.682,27.846 79.396,28.168 80.026,28.168 Z M79.83,27.202 C79.382,27.202 78.766,27.006 78.164,26.488 L78.164,22.918 C78.808,22.316 79.41,21.994 79.984,21.994 C81.272,21.994 81.776,23.002 81.776,24.5 C81.776,26.18 80.95,27.202 79.83,27.202 Z M87.404,28.168 C89.07,28.168 90.554,26.866 90.554,24.612 C90.554,22.33 89.07,21.028 87.404,21.028 C85.738,21.028 84.254,22.33 84.254,24.612 C84.254,26.866 85.738,28.168 87.404,28.168 Z M87.404,27.216 C86.242,27.216 85.444,26.166 85.444,24.612 C85.444,23.044 86.242,21.98 87.404,21.98 C88.58,21.98 89.364,23.044 89.364,24.612 C89.364,26.166 88.58,27.216 87.404,27.216 Z M92.598,28 L93.522,26.418 C93.746,25.998 93.97,25.592 94.208,25.2 L94.264,25.2 C94.516,25.592 94.768,26.012 95.006,26.418 L96,28 L97.246,28 L95.034,24.57 L97.092,21.196 L95.888,21.196 L95.062,22.694 C94.852,23.058 94.642,23.45 94.446,23.828 L94.39,23.828 C94.152,23.45 93.928,23.058 93.718,22.694 L92.808,21.196 L91.562,21.196 L93.62,24.444 L91.394,28 L92.598,28 Z" opacity=".803"/>
  </g>
</svg>
