<?xml version="1.0" encoding="UTF-8"?>
<svg width="282px" height="121px" viewBox="0 0 282 121" version="1.1" xmlns="http://www.w3.org/2000/svg" xmlns:xlink="http://www.w3.org/1999/xlink">
    <title>customLayout</title>
    <g id="customLayout" stroke="none" stroke-width="1" fill="none" fill-rule="evenodd">
        <path d="M11.886,17.168 C13.076,17.168 14.084,16.706 14.84,15.824 L13.748,14.536 C13.3,15.012 12.712,15.39 11.97,15.39 C10.626,15.39 9.758,14.298 9.758,12.422 C9.758,10.588 10.752,9.482 11.998,9.482 C12.656,9.482 13.146,9.79 13.608,10.21 L14.7,8.894 C14.084,8.264 13.132,7.704 11.956,7.704 C9.646,7.704 7.644,9.468 7.644,12.492 C7.644,15.558 9.576,17.168 11.886,17.168 Z M18.144,17.168 C19.096,17.168 19.74,16.734 20.328,16.034 L20.37,16.034 L20.524,17 L22.204,17 L22.204,10.056 L20.146,10.056 L20.146,14.648 C19.74,15.194 19.432,15.418 18.914,15.418 C18.312,15.418 18.046,15.096 18.046,14.102 L18.046,10.056 L15.988,10.056 L15.988,14.368 C15.988,16.104 16.632,17.168 18.144,17.168 Z M26.054,17.168 C27.916,17.168 28.91,16.188 28.91,14.928 C28.91,13.654 27.916,13.164 27.034,12.842 C26.32,12.576 25.676,12.408 25.676,11.96 C25.676,11.61 25.928,11.414 26.46,11.414 C26.95,11.414 27.426,11.638 27.93,12.002 L28.854,10.77 C28.252,10.322 27.468,9.888 26.404,9.888 C24.794,9.888 23.744,10.77 23.744,12.058 C23.744,13.206 24.738,13.78 25.578,14.102 C26.292,14.382 26.992,14.592 26.992,15.054 C26.992,15.418 26.726,15.642 26.11,15.642 C25.522,15.642 24.948,15.39 24.318,14.914 L23.394,16.202 C24.094,16.776 25.144,17.168 26.054,17.168 Z M32.886,17.168 C33.558,17.168 34.062,17.028 34.426,16.916 L34.104,15.418 C33.922,15.488 33.67,15.558 33.446,15.558 C32.9,15.558 32.55,15.236 32.55,14.452 L32.55,11.666 L34.216,11.666 L34.216,10.056 L32.55,10.056 L32.55,8.208 L30.842,8.208 L30.604,10.056 L29.54,10.14 L29.54,11.666 L30.492,11.666 L30.492,14.48 C30.492,16.09 31.164,17.168 32.886,17.168 Z M38.556,17.168 C40.306,17.168 41.93,15.838 41.93,13.528 C41.93,11.218 40.306,9.888 38.556,9.888 C36.792,9.888 35.168,11.218 35.168,13.528 C35.168,15.838 36.792,17.168 38.556,17.168 Z M38.556,15.502 C37.702,15.502 37.282,14.732 37.282,13.528 C37.282,12.324 37.702,11.554 38.556,11.554 C39.396,11.554 39.83,12.324 39.83,13.528 C39.83,14.732 39.396,15.502 38.556,15.502 Z M45.402,17 L45.402,12.31 C45.836,11.862 46.242,11.638 46.578,11.638 C47.166,11.638 47.432,11.946 47.432,12.954 L47.432,17 L49.49,17 L49.49,12.31 C49.938,11.862 50.33,11.638 50.68,11.638 C51.268,11.638 51.534,11.946 51.534,12.954 L51.534,17 L53.592,17 L53.592,12.688 C53.592,10.952 52.92,9.888 51.422,9.888 C50.498,9.888 49.854,10.42 49.238,11.05 C48.888,10.308 48.3,9.888 47.32,9.888 C46.41,9.888 45.794,10.378 45.22,10.952 L45.164,10.952 L45.024,10.056 L43.344,10.056 L43.344,17 L45.402,17 Z M63.98,17 L63.98,15.264 L60.368,15.264 L60.368,7.872 L58.31,7.872 L58.31,17 L63.98,17 Z M67.144,17.168 C67.928,17.168 68.572,16.804 69.16,16.286 L69.216,16.286 L69.356,17 L71.036,17 L71.036,13.024 C71.036,10.896 70.056,9.888 68.278,9.888 C67.186,9.888 66.192,10.266 65.31,10.798 L66.052,12.156 C66.724,11.764 67.298,11.526 67.886,11.526 C68.642,11.526 68.936,11.918 68.978,12.534 C66.234,12.814 65.072,13.612 65.072,15.068 C65.072,16.244 65.87,17.168 67.144,17.168 Z M67.844,15.572 C67.354,15.572 67.046,15.362 67.046,14.914 C67.046,14.382 67.522,13.962 68.978,13.766 L68.978,14.984 C68.614,15.348 68.306,15.572 67.844,15.572 Z M73.542,19.716 C75.18,19.716 75.922,18.82 76.58,17.07 L78.988,10.056 L77.014,10.056 L76.174,13.038 C76.006,13.696 75.852,14.354 75.698,15.012 L75.642,15.012 C75.46,14.326 75.292,13.668 75.096,13.038 L74.102,10.056 L72.03,10.056 L74.704,16.818 L74.606,17.182 C74.424,17.728 74.074,18.092 73.388,18.092 C73.234,18.092 73.052,18.036 72.926,18.008 L72.562,19.576 C72.842,19.66 73.122,19.716 73.542,19.716 Z M83.048,17.168 C84.798,17.168 86.422,15.838 86.422,13.528 C86.422,11.218 84.798,9.888 83.048,9.888 C81.284,9.888 79.66,11.218 79.66,13.528 C79.66,15.838 81.284,17.168 83.048,17.168 Z M83.048,15.502 C82.194,15.502 81.774,14.732 81.774,13.528 C81.774,12.324 82.194,11.554 83.048,11.554 C83.888,11.554 84.322,12.324 84.322,13.528 C84.322,14.732 83.888,15.502 83.048,15.502 Z M89.922,17.168 C90.874,17.168 91.518,16.734 92.106,16.034 L92.148,16.034 L92.302,17 L93.982,17 L93.982,10.056 L91.924,10.056 L91.924,14.648 C91.518,15.194 91.21,15.418 90.692,15.418 C90.09,15.418 89.824,15.096 89.824,14.102 L89.824,10.056 L87.766,10.056 L87.766,14.368 C87.766,16.104 88.41,17.168 89.922,17.168 Z M98.462,17.168 C99.134,17.168 99.638,17.028 100.002,16.916 L99.68,15.418 C99.498,15.488 99.246,15.558 99.022,15.558 C98.476,15.558 98.126,15.236 98.126,14.452 L98.126,11.666 L99.792,11.666 L99.792,10.056 L98.126,10.056 L98.126,8.208 L96.418,8.208 L96.18,10.056 L95.116,10.14 L95.116,11.666 L96.068,11.666 L96.068,14.48 C96.068,16.09 96.74,17.168 98.462,17.168 Z" id="CustomLayout" fill="#272C37" fill-rule="nonzero"></path>
        <path d="M18.829,51 L18.829,50.252 L17.377,50.252 L17.377,43.982 L16.684,43.982 C16.299,44.213 15.837,44.389 15.199,44.499 L15.199,45.082 L16.475,45.082 L16.475,50.252 L14.869,50.252 L14.869,51 L18.829,51 Z" id="1" fill="#7B7B7B" fill-rule="nonzero"></path>
        <path d="M58.972,51 L58.972,50.219 L56.937,50.219 C56.574,50.219 56.145,50.252 55.76,50.285 C57.421,48.547 58.62,47.238 58.62,45.918 C58.62,44.675 57.817,43.85 56.519,43.85 C55.606,43.85 54.979,44.279 54.396,44.917 L54.913,45.434 C55.32,44.961 55.826,44.587 56.409,44.587 C57.3,44.587 57.74,45.159 57.74,45.962 C57.74,47.095 56.552,48.36 54.44,50.461 L54.44,51 L58.972,51 Z" id="2" fill="#7B7B7B" fill-rule="nonzero"></path>
        <path d="M96.596,51.132 C97.883,51.132 98.906,50.373 98.906,49.13 C98.906,48.162 98.235,47.546 97.388,47.348 L97.388,47.304 C98.147,47.018 98.664,46.479 98.664,45.632 C98.664,44.499 97.784,43.85 96.563,43.85 C95.738,43.85 95.089,44.224 94.55,44.73 L95.034,45.302 C95.452,44.884 95.947,44.587 96.53,44.587 C97.278,44.587 97.74,45.016 97.74,45.698 C97.74,46.435 97.245,47.007 95.749,47.007 L95.749,47.7 C97.421,47.7 97.993,48.261 97.993,49.097 C97.993,49.878 97.388,50.384 96.541,50.384 C95.716,50.384 95.166,49.988 94.748,49.548 L94.286,50.142 C94.759,50.659 95.474,51.132 96.596,51.132 Z" id="3" fill="#7B7B7B" fill-rule="nonzero"></path>
        <path d="M138.202,51 L138.202,49.064 L139.159,49.064 L139.159,48.338 L138.202,48.338 L138.202,43.982 L137.19,43.982 L134.187,48.47 L134.187,49.064 L137.344,49.064 L137.344,51 L138.202,51 Z M137.344,48.338 L135.144,48.338 L136.783,45.94 C136.981,45.599 137.179,45.291 137.355,44.95 L137.399,44.95 C137.377,45.324 137.344,45.929 137.344,46.303 L137.344,48.338 Z" id="4" fill="#7B7B7B" fill-rule="nonzero"></path>
        <path d="M176.574,51.132 C177.795,51.132 178.939,50.274 178.939,48.756 C178.939,47.238 177.96,46.556 176.761,46.556 C176.332,46.556 176.013,46.666 175.683,46.842 L175.87,44.763 L178.587,44.763 L178.587,43.982 L175.078,43.982 L174.847,47.359 L175.331,47.667 C175.749,47.392 176.046,47.238 176.53,47.238 C177.432,47.238 178.026,47.81 178.026,48.778 C178.026,49.757 177.344,50.384 176.486,50.384 C175.661,50.384 175.133,49.999 174.715,49.581 L174.275,50.175 C174.759,50.659 175.452,51.132 176.574,51.132 Z" id="5" fill="#7B7B7B" fill-rule="nonzero"></path>
        <path d="M216.948,51.132 C218.081,51.132 219.027,50.219 219.027,48.877 C219.027,47.436 218.235,46.71 217.025,46.71 C216.453,46.71 215.826,47.051 215.386,47.59 C215.43,45.368 216.255,44.609 217.234,44.609 C217.674,44.609 218.103,44.818 218.389,45.159 L218.895,44.598 C218.499,44.169 217.96,43.85 217.201,43.85 C215.804,43.85 214.528,44.939 214.528,47.755 C214.528,50.01 215.573,51.132 216.948,51.132 Z M216.948,50.417 C216.057,50.417 215.518,49.68 215.408,48.316 C215.848,47.667 216.42,47.392 216.871,47.392 C217.74,47.392 218.169,47.964 218.169,48.877 C218.169,49.801 217.641,50.417 216.948,50.417 Z" id="6" fill="#7B7B7B" fill-rule="nonzero"></path>
        <path d="M256.882,51 C257.003,48.261 257.344,46.666 259.005,44.543 L259.005,43.982 L254.484,43.982 L254.484,44.763 L257.982,44.763 C256.596,46.688 256.068,48.36 255.947,51 L256.882,51 Z" id="7" fill="#7B7B7B" fill-rule="nonzero"></path>
        <path d="M16.75,86.132 C18.114,86.132 19.016,85.307 19.016,84.262 C19.016,83.316 18.422,82.821 17.795,82.458 L17.795,82.414 C18.224,82.084 18.763,81.457 18.763,80.72 C18.763,79.631 18.004,78.85 16.783,78.85 C15.65,78.85 14.792,79.576 14.792,80.654 C14.792,81.391 15.254,81.908 15.771,82.271 L15.771,82.315 C15.111,82.667 14.451,83.294 14.451,84.207 C14.451,85.318 15.43,86.132 16.75,86.132 Z M17.245,82.172 C16.398,81.842 15.628,81.49 15.628,80.654 C15.628,79.972 16.112,79.521 16.761,79.521 C17.531,79.521 17.982,80.071 17.982,80.764 C17.982,81.281 17.718,81.754 17.245,82.172 Z M16.772,85.461 C15.914,85.461 15.265,84.9 15.265,84.119 C15.265,83.481 15.683,82.964 16.244,82.59 C17.256,82.997 18.147,83.327 18.147,84.229 C18.147,84.955 17.586,85.461 16.772,85.461 Z" id="8" fill="#7B7B7B" fill-rule="nonzero"></path>
        <path d="M56.255,86.132 C57.652,86.132 58.928,85.043 58.928,82.227 C58.928,79.972 57.894,78.85 56.508,78.85 C55.386,78.85 54.44,79.763 54.44,81.105 C54.44,82.546 55.221,83.272 56.431,83.272 C57.014,83.272 57.641,82.931 58.081,82.37 C58.048,84.614 57.212,85.384 56.222,85.384 C55.782,85.384 55.353,85.164 55.067,84.823 L54.561,85.395 C54.946,85.813 55.507,86.132 56.255,86.132 Z M56.585,82.59 C55.716,82.59 55.287,82.018 55.287,81.105 C55.287,80.181 55.826,79.565 56.508,79.565 C57.399,79.565 57.938,80.291 58.059,81.655 C57.608,82.315 57.047,82.59 56.585,82.59 Z" id="9" fill="#7B7B7B" fill-rule="nonzero"></path>
        <path d="M96.829,86 L96.829,85.252 L95.377,85.252 L95.377,78.982 L94.684,78.982 C94.299,79.213 93.837,79.389 93.199,79.499 L93.199,80.082 L94.475,80.082 L94.475,85.252 L92.869,85.252 L92.869,86 L96.829,86 Z M100.206,86.132 C101.603,86.132 102.45,84.823 102.45,82.469 C102.45,80.115 101.603,78.85 100.206,78.85 C98.798,78.85 97.951,80.115 97.951,82.469 C97.951,84.823 98.798,86.132 100.206,86.132 Z M100.206,85.406 C99.381,85.406 98.831,84.526 98.831,82.469 C98.831,80.412 99.381,79.576 100.206,79.576 C101.02,79.576 101.57,80.412 101.57,82.469 C101.57,84.526 101.02,85.406 100.206,85.406 Z" id="10" fill="#7B7B7B" fill-rule="nonzero"></path>
        <path d="M136.829,86 L136.829,85.252 L135.377,85.252 L135.377,78.982 L134.684,78.982 C134.299,79.213 133.837,79.389 133.199,79.499 L133.199,80.082 L134.475,80.082 L134.475,85.252 L132.869,85.252 L132.869,86 L136.829,86 Z M142.296,86 L142.296,85.252 L140.844,85.252 L140.844,78.982 L140.151,78.982 C139.766,79.213 139.304,79.389 138.666,79.499 L138.666,80.082 L139.942,80.082 L139.942,85.252 L138.336,85.252 L138.336,86 L142.296,86 Z" id="11" fill="#7B7B7B" fill-rule="nonzero"></path>
        <path d="M176.829,86 L176.829,85.252 L175.377,85.252 L175.377,78.982 L174.684,78.982 C174.299,79.213 173.837,79.389 173.199,79.499 L173.199,80.082 L174.475,80.082 L174.475,85.252 L172.869,85.252 L172.869,86 L176.829,86 Z M182.439,86 L182.439,85.219 L180.404,85.219 C180.041,85.219 179.612,85.252 179.227,85.285 C180.888,83.547 182.087,82.238 182.087,80.918 C182.087,79.675 181.284,78.85 179.986,78.85 C179.073,78.85 178.446,79.279 177.863,79.917 L178.38,80.434 C178.787,79.961 179.293,79.587 179.876,79.587 C180.767,79.587 181.207,80.159 181.207,80.962 C181.207,82.095 180.019,83.36 177.907,85.461 L177.907,86 L182.439,86 Z" id="12" fill="#7B7B7B" fill-rule="nonzero"></path>
        <path d="M216.829,86 L216.829,85.252 L215.377,85.252 L215.377,78.982 L214.684,78.982 C214.299,79.213 213.837,79.389 213.199,79.499 L213.199,80.082 L214.475,80.082 L214.475,85.252 L212.869,85.252 L212.869,86 L216.829,86 Z M220.063,86.132 C221.35,86.132 222.373,85.373 222.373,84.13 C222.373,83.162 221.702,82.546 220.855,82.348 L220.855,82.304 C221.614,82.018 222.131,81.479 222.131,80.632 C222.131,79.499 221.251,78.85 220.03,78.85 C219.205,78.85 218.556,79.224 218.017,79.73 L218.501,80.302 C218.919,79.884 219.414,79.587 219.997,79.587 C220.745,79.587 221.207,80.016 221.207,80.698 C221.207,81.435 220.712,82.007 219.216,82.007 L219.216,82.7 C220.888,82.7 221.46,83.261 221.46,84.097 C221.46,84.878 220.855,85.384 220.008,85.384 C219.183,85.384 218.633,84.988 218.215,84.548 L217.753,85.142 C218.226,85.659 218.941,86.132 220.063,86.132 Z" id="13" fill="#7B7B7B" fill-rule="nonzero"></path>
        <path d="M256.829,86 L256.829,85.252 L255.377,85.252 L255.377,78.982 L254.684,78.982 C254.299,79.213 253.837,79.389 253.199,79.499 L253.199,80.082 L254.475,80.082 L254.475,85.252 L252.869,85.252 L252.869,86 L256.829,86 Z M261.669,86 L261.669,84.064 L262.626,84.064 L262.626,83.338 L261.669,83.338 L261.669,78.982 L260.657,78.982 L257.654,83.47 L257.654,84.064 L260.811,84.064 L260.811,86 L261.669,86 Z M260.811,83.338 L258.611,83.338 L260.25,80.94 C260.448,80.599 260.646,80.291 260.822,79.95 L260.866,79.95 C260.844,80.324 260.811,80.929 260.811,81.303 L260.811,83.338 Z" id="14" fill="#7B7B7B" fill-rule="nonzero"></path>
        <path d="M16.829,113 L16.829,112.252 L15.377,112.252 L15.377,105.982 L14.684,105.982 C14.299,106.213 13.837,106.389 13.199,106.499 L13.199,107.082 L14.475,107.082 L14.475,112.252 L12.869,112.252 L12.869,113 L16.829,113 Z M20.041,113.132 C21.262,113.132 22.406,112.274 22.406,110.756 C22.406,109.238 21.427,108.556 20.228,108.556 C19.799,108.556 19.48,108.666 19.15,108.842 L19.337,106.763 L22.054,106.763 L22.054,105.982 L18.545,105.982 L18.314,109.359 L18.798,109.667 C19.216,109.392 19.513,109.238 19.997,109.238 C20.899,109.238 21.493,109.81 21.493,110.778 C21.493,111.757 20.811,112.384 19.953,112.384 C19.128,112.384 18.6,111.999 18.182,111.581 L17.742,112.175 C18.226,112.659 18.919,113.132 20.041,113.132 Z" id="15" fill="#7B7B7B" fill-rule="nonzero"></path>
        <path d="M56.829,113 L56.829,112.252 L55.377,112.252 L55.377,105.982 L54.684,105.982 C54.299,106.213 53.837,106.389 53.199,106.499 L53.199,107.082 L54.475,107.082 L54.475,112.252 L52.869,112.252 L52.869,113 L56.829,113 Z M60.415,113.132 C61.548,113.132 62.494,112.219 62.494,110.877 C62.494,109.436 61.702,108.71 60.492,108.71 C59.92,108.71 59.293,109.051 58.853,109.59 C58.897,107.368 59.722,106.609 60.701,106.609 C61.141,106.609 61.57,106.818 61.856,107.159 L62.362,106.598 C61.966,106.169 61.427,105.85 60.668,105.85 C59.271,105.85 57.995,106.939 57.995,109.755 C57.995,112.01 59.04,113.132 60.415,113.132 Z M60.415,112.417 C59.524,112.417 58.985,111.68 58.875,110.316 C59.315,109.667 59.887,109.392 60.338,109.392 C61.207,109.392 61.636,109.964 61.636,110.877 C61.636,111.801 61.108,112.417 60.415,112.417 Z" id="16" fill="#7B7B7B" fill-rule="nonzero"></path>
        <path d="M96.829,113 L96.829,112.252 L95.377,112.252 L95.377,105.982 L94.684,105.982 C94.299,106.213 93.837,106.389 93.199,106.499 L93.199,107.082 L94.475,107.082 L94.475,112.252 L92.869,112.252 L92.869,113 L96.829,113 Z M100.349,113 C100.47,110.261 100.811,108.666 102.472,106.543 L102.472,105.982 L97.951,105.982 L97.951,106.763 L101.449,106.763 C100.063,108.688 99.535,110.36 99.414,113 L100.349,113 Z" id="17" fill="#7B7B7B" fill-rule="nonzero"></path>
        <path d="M136.829,113 L136.829,112.252 L135.377,112.252 L135.377,105.982 L134.684,105.982 C134.299,106.213 133.837,106.389 133.199,106.499 L133.199,107.082 L134.475,107.082 L134.475,112.252 L132.869,112.252 L132.869,113 L136.829,113 Z M140.217,113.132 C141.581,113.132 142.483,112.307 142.483,111.262 C142.483,110.316 141.889,109.821 141.262,109.458 L141.262,109.414 C141.691,109.084 142.23,108.457 142.23,107.72 C142.23,106.631 141.471,105.85 140.25,105.85 C139.117,105.85 138.259,106.576 138.259,107.654 C138.259,108.391 138.721,108.908 139.238,109.271 L139.238,109.315 C138.578,109.667 137.918,110.294 137.918,111.207 C137.918,112.318 138.897,113.132 140.217,113.132 Z M140.712,109.172 C139.865,108.842 139.095,108.49 139.095,107.654 C139.095,106.972 139.579,106.521 140.228,106.521 C140.998,106.521 141.449,107.071 141.449,107.764 C141.449,108.281 141.185,108.754 140.712,109.172 Z M140.239,112.461 C139.381,112.461 138.732,111.9 138.732,111.119 C138.732,110.481 139.15,109.964 139.711,109.59 C140.723,109.997 141.614,110.327 141.614,111.229 C141.614,111.955 141.053,112.461 140.239,112.461 Z" id="18" fill="#7B7B7B" fill-rule="nonzero"></path>
        <path d="M176.829,113 L176.829,112.252 L175.377,112.252 L175.377,105.982 L174.684,105.982 C174.299,106.213 173.837,106.389 173.199,106.499 L173.199,107.082 L174.475,107.082 L174.475,112.252 L172.869,112.252 L172.869,113 L176.829,113 Z M179.722,113.132 C181.119,113.132 182.395,112.043 182.395,109.227 C182.395,106.972 181.361,105.85 179.975,105.85 C178.853,105.85 177.907,106.763 177.907,108.105 C177.907,109.546 178.688,110.272 179.898,110.272 C180.481,110.272 181.108,109.931 181.548,109.37 C181.515,111.614 180.679,112.384 179.689,112.384 C179.249,112.384 178.82,112.164 178.534,111.823 L178.028,112.395 C178.413,112.813 178.974,113.132 179.722,113.132 Z M180.052,109.59 C179.183,109.59 178.754,109.018 178.754,108.105 C178.754,107.181 179.293,106.565 179.975,106.565 C180.866,106.565 181.405,107.291 181.526,108.655 C181.075,109.315 180.514,109.59 180.052,109.59 Z" id="19" fill="#7B7B7B" fill-rule="nonzero"></path>
        <path d="M216.972,113 L216.972,112.219 L214.937,112.219 C214.574,112.219 214.145,112.252 213.76,112.285 C215.421,110.547 216.62,109.238 216.62,107.918 C216.62,106.675 215.817,105.85 214.519,105.85 C213.606,105.85 212.979,106.279 212.396,106.917 L212.913,107.434 C213.32,106.961 213.826,106.587 214.409,106.587 C215.3,106.587 215.74,107.159 215.74,107.962 C215.74,109.095 214.552,110.36 212.44,112.461 L212.44,113 L216.972,113 Z M220.206,113.132 C221.603,113.132 222.45,111.823 222.45,109.469 C222.45,107.115 221.603,105.85 220.206,105.85 C218.798,105.85 217.951,107.115 217.951,109.469 C217.951,111.823 218.798,113.132 220.206,113.132 Z M220.206,112.406 C219.381,112.406 218.831,111.526 218.831,109.469 C218.831,107.412 219.381,106.576 220.206,106.576 C221.02,106.576 221.57,107.412 221.57,109.469 C221.57,111.526 221.02,112.406 220.206,112.406 Z" id="20" fill="#7B7B7B" fill-rule="nonzero"></path>
        <path d="M256.972,113 L256.972,112.219 L254.937,112.219 C254.574,112.219 254.145,112.252 253.76,112.285 C255.421,110.547 256.62,109.238 256.62,107.918 C256.62,106.675 255.817,105.85 254.519,105.85 C253.606,105.85 252.979,106.279 252.396,106.917 L252.913,107.434 C253.32,106.961 253.826,106.587 254.409,106.587 C255.3,106.587 255.74,107.159 255.74,107.962 C255.74,109.095 254.552,110.36 252.44,112.461 L252.44,113 L256.972,113 Z M262.296,113 L262.296,112.252 L260.844,112.252 L260.844,105.982 L260.151,105.982 C259.766,106.213 259.304,106.389 258.666,106.499 L258.666,107.082 L259.942,107.082 L259.942,112.252 L258.336,112.252 L258.336,113 L262.296,113 Z" id="21" fill="#7B7B7B" fill-rule="nonzero"></path>
        <line x1="0.5" y1="24.5" x2="283.5" y2="24.5" id="Line-3-Copy" stroke="#DADADA" stroke-linecap="square" stroke-dasharray="3"></line>
        <line x1="37" y1="25" x2="37.5" y2="121.5" id="Line-3-Copy-4" stroke="#DADADA" stroke-linecap="square" stroke-dasharray="3"></line>
        <line x1="78" y1="25" x2="78.5" y2="121.5" id="Line-3-Copy-5" stroke="#DADADA" stroke-linecap="square" stroke-dasharray="3"></line>
        <line x1="117" y1="25" x2="117.5" y2="121.5" id="Line-3-Copy-7" stroke="#DADADA" stroke-linecap="square" stroke-dasharray="3"></line>
        <line x1="158" y1="25" x2="158.5" y2="121.5" id="Line-3-Copy-6" stroke="#DADADA" stroke-linecap="square" stroke-dasharray="3"></line>
        <line x1="197" y1="25" x2="197.5" y2="121.5" id="Line-3-Copy-9" stroke="#DADADA" stroke-linecap="square" stroke-dasharray="3"></line>
        <line x1="238" y1="25" x2="238.5" y2="121.5" id="Line-3-Copy-8" stroke="#DADADA" stroke-linecap="square" stroke-dasharray="3"></line>
        <line x1="0.5" y1="68.5" x2="283.5" y2="68.5" id="Line-3-Copy-2" stroke="#DADADA" stroke-linecap="square" stroke-dasharray="3"></line>
        <line x1="0.5" y1="94.5" x2="283.5" y2="94.5" id="Line-3-Copy-3" stroke="#DADADA" stroke-linecap="square" stroke-dasharray="3"></line>
    </g>
</svg>