<svg xmlns="http://www.w3.org/2000/svg" width="282" height="47" viewBox="0 0 282 47">
  <g fill="none" fill-rule="evenodd">
    <g transform="translate(1 -4)">
      <path fill="#272C37" fill-rule="nonzero" d="M3.612,15 C6.384,15 7.896,13.292 7.896,10.366 C7.896,7.454 6.384,5.816 3.556,5.816 L1.26,5.816 L1.26,15 L3.612,15 Z M3.472,14.048 L2.422,14.048 L2.422,6.768 L3.472,6.768 C5.614,6.768 6.692,8.056 6.692,10.366 C6.692,12.69 5.614,14.048 3.472,14.048 Z M11.326,15.168 C12.18,15.168 12.936,14.72 13.58,14.188 L13.622,14.188 L13.72,15 L14.672,15 L14.672,10.828 C14.672,9.134 13.972,8.028 12.306,8.028 C11.214,8.028 10.262,8.504 9.632,8.91 L10.08,9.708 C10.612,9.344 11.326,8.98 12.11,8.98 C13.23,8.98 13.51,9.82 13.51,10.688 C10.612,11.01 9.338,11.752 9.338,13.236 C9.338,14.454 10.192,15.168 11.326,15.168 Z M11.662,14.244 C10.99,14.244 10.458,13.922 10.458,13.152 C10.458,12.284 11.242,11.724 13.51,11.444 L13.51,13.334 C12.852,13.922 12.32,14.244 11.662,14.244 Z M18.956,15.168 C19.376,15.168 19.838,15.042 20.216,14.916 L19.992,14.048 C19.768,14.132 19.46,14.23 19.222,14.23 C18.438,14.23 18.172,13.754 18.172,12.914 L18.172,9.134 L20.006,9.134 L20.006,8.196 L18.172,8.196 L18.172,6.292 L17.206,6.292 L17.066,8.196 L16.002,8.266 L16.002,9.134 L17.01,9.134 L17.01,12.9 C17.01,14.244 17.5,15.168 18.956,15.168 Z M24.304,15.168 C25.228,15.168 25.956,14.846 26.544,14.468 L26.138,13.712 C25.634,14.034 25.088,14.244 24.444,14.244 C23.142,14.244 22.26,13.32 22.176,11.878 L26.768,11.878 C26.796,11.71 26.81,11.458 26.81,11.22 C26.81,9.274 25.83,8.028 24.094,8.028 C22.54,8.028 21.042,9.386 21.042,11.612 C21.042,13.838 22.484,15.168 24.304,15.168 Z M25.802,11.052 L22.162,11.052 C22.302,9.708 23.17,8.938 24.122,8.938 C25.186,8.938 25.802,9.68 25.802,11.052 Z M38.15,15.168 L38.458,14.216 C37.954,14.076 37.366,13.768 36.736,13.334 C37.464,12.368 37.982,11.248 38.346,10.044 L37.268,10.044 C36.988,11.094 36.54,12.004 35.98,12.76 C35.112,12.032 34.258,11.122 33.656,10.184 C34.678,9.442 35.728,8.672 35.728,7.468 C35.728,6.39 35.056,5.648 33.922,5.648 C32.648,5.648 31.794,6.6 31.794,7.818 C31.794,8.49 32.018,9.218 32.396,9.974 C31.458,10.618 30.59,11.388 30.59,12.62 C30.59,14.104 31.724,15.168 33.39,15.168 C34.468,15.168 35.336,14.748 36.036,14.118 C36.778,14.636 37.506,14.986 38.15,15.168 Z M33.222,9.414 C32.956,8.854 32.788,8.308 32.788,7.804 C32.788,7.048 33.236,6.474 33.922,6.474 C34.538,6.474 34.79,6.95 34.79,7.482 C34.79,8.294 34.062,8.854 33.222,9.414 Z M33.516,14.244 C32.508,14.244 31.71,13.572 31.71,12.55 C31.71,11.836 32.214,11.29 32.858,10.772 C33.502,11.766 34.37,12.718 35.266,13.502 C34.734,13.964 34.146,14.244 33.516,14.244 Z M45.808,15 L45.808,6.796 L48.58,6.796 L48.58,5.816 L41.86,5.816 L41.86,6.796 L44.632,6.796 L44.632,15 L45.808,15 Z M50.708,6.796 C51.156,6.796 51.506,6.488 51.506,6.054 C51.506,5.606 51.156,5.312 50.708,5.312 C50.26,5.312 49.91,5.606 49.91,6.054 C49.91,6.488 50.26,6.796 50.708,6.796 Z M51.268,15 L51.268,8.196 L50.12,8.196 L50.12,15 L51.268,15 Z M54.712,15 L54.712,10.072 C55.342,9.372 55.916,9.022 56.42,9.022 C57.288,9.022 57.694,9.568 57.694,10.842 L57.694,15 L58.842,15 L58.842,10.072 C59.472,9.372 60.018,9.022 60.55,9.022 C61.404,9.022 61.81,9.568 61.81,10.842 L61.81,15 L62.958,15 L62.958,10.688 C62.958,8.952 62.286,8.028 60.886,8.028 C60.06,8.028 59.36,8.56 58.646,9.33 C58.366,8.518 57.806,8.028 56.77,8.028 C55.958,8.028 55.244,8.532 54.656,9.176 L54.614,9.176 L54.516,8.196 L53.564,8.196 L53.564,15 L54.712,15 Z M67.928,15.168 C68.852,15.168 69.58,14.846 70.168,14.468 L69.762,13.712 C69.258,14.034 68.712,14.244 68.068,14.244 C66.766,14.244 65.884,13.32 65.8,11.878 L70.392,11.878 C70.42,11.71 70.434,11.458 70.434,11.22 C70.434,9.274 69.454,8.028 67.718,8.028 C66.164,8.028 64.666,9.386 64.666,11.612 C64.666,13.838 66.108,15.168 67.928,15.168 Z M69.426,11.052 L65.786,11.052 C65.926,9.708 66.794,8.938 67.746,8.938 C68.81,8.938 69.426,9.68 69.426,11.052 Z" opacity=".803"/>
      <path stroke="#C8C8C8" d="M2,18 L214,18 L214,18 L214,50 L2,50 C0.8954305,50 1.87533573e-15,49.1045695 0,48 L0,20 C-5.7935996e-16,18.8954305 0.8954305,18 2,18 Z"/>
      <rect width="33" height="32" x="214" y="18" fill="#F7F7F6" stroke="#C8C8C8"/>
    </g>
    <path fill="#F7F7F6" stroke="#C8C8C8" d="M248,14 L278,14 C279.104569,14 280,14.8954305 280,16 L280,44 C280,45.1045695 279.104569,46 278,46 L248,46 L248,46 L248,14 Z"/>
    <path fill="#2D313A" fill-rule="nonzero" d="M263.999983 36.5312463C267.746068 36.5312463 270.781217 33.4960973 270.781217 29.7500125 270.781217 26.0039277 267.746068 22.9687787 263.999983 22.9687787 260.253898 22.9687787 257.218749 26.0039277 257.218749 29.7500125 257.218749 33.4960973 260.253898 36.5312463 263.999983 36.5312463zM263.999983 35.2187495C260.978506 35.2187495 258.531246 32.7714897 258.531246 29.7500125 258.531246 26.7285353 260.978506 24.2812756 263.999983 24.2812756 267.02146 24.2812756 269.46872 26.7285353 269.46872 29.7500125 269.46872 32.7714897 267.02146 35.2187495 263.999983 35.2187495zM266.149186 32.2929752L266.663269 31.5847631C266.769893 31.4371232 266.739826 31.2320456 266.592159 31.1253945L264.765606 29.7965021 264.765606 25.9218966C264.765606 25.741439 264.61794 25.5937724 264.437482 25.5937724L263.562484 25.5937724C263.382027 25.5937724 263.23436 25.741439 263.23436 25.9218966L263.23436 30.411735C263.23436 30.5156357 263.283573 30.6140623 263.368355 30.6769741L265.689818 32.3640581C265.837484 32.4707092 266.042562 32.4378914 266.149186 32.2929752zM235.714286 36.7143191C236.424107 36.7143191 237 36.1384262 237 35.4286048L237 26.0000334C237 25.290212 236.424107 24.7143191 235.714286 24.7143191L234.428571 24.7143191 234.428571 23.321462C234.428571 23.1446867 234.283918 23.0000334 234.107143 23.0000334L233.035714 23.0000334C232.858939 23.0000334 232.714286 23.1446867 232.714286 23.321462L232.714286 24.7143191 229.285714 24.7143191 229.285714 23.321462C229.285714 23.1446867 229.141061 23.0000334 228.964286 23.0000334L227.892857 23.0000334C227.716082 23.0000334 227.571429 23.1446867 227.571429 23.321462L227.571429 24.7143191 226.285714 24.7143191C225.575893 24.7143191 225 25.290212 225 26.0000334L225 35.4286048C225 36.1384262 225.575893 36.7143191 226.285714 36.7143191L235.714286 36.7143191zM235.553571 35.4286048L226.446429 35.4286048C226.358041 35.4286048 226.285714 35.3562781 226.285714 35.2678905L226.285714 27.2857477 235.714286 27.2857477 235.714286 35.2678905C235.714286 35.3562781 235.641959 35.4286048 235.553571 35.4286048z"/>
  </g>
</svg>
