<?xml version="1.0" encoding="UTF-8"?>
<svg width="282px" height="133px" viewBox="0 0 282 133" version="1.1" xmlns="http://www.w3.org/2000/svg" xmlns:xlink="http://www.w3.org/1999/xlink">
    <title>donutChart</title>
    <g id="donutChart" stroke="none" stroke-width="1" fill="none" fill-rule="evenodd">
        <path d="M15.766,24 C18.44,24 20.232,22.53 20.232,19.394 C20.232,16.258 18.44,14.872 15.654,14.872 L13.078,14.872 L13.078,24 L15.766,24 Z M15.528,22.334 L15.136,22.334 L15.136,16.538 L15.528,16.538 C17.082,16.538 18.118,17.21 18.118,19.394 C18.118,21.578 17.082,22.334 15.528,22.334 Z M24.782,24.168 C26.532,24.168 28.156,22.838 28.156,20.528 C28.156,18.218 26.532,16.888 24.782,16.888 C23.018,16.888 21.394,18.218 21.394,20.528 C21.394,22.838 23.018,24.168 24.782,24.168 Z M24.782,22.502 C23.928,22.502 23.508,21.732 23.508,20.528 C23.508,19.324 23.928,18.554 24.782,18.554 C25.622,18.554 26.056,19.324 26.056,20.528 C26.056,21.732 25.622,22.502 24.782,22.502 Z M31.628,24 L31.628,19.31 C32.076,18.876 32.398,18.638 32.916,18.638 C33.504,18.638 33.77,18.946 33.77,19.954 L33.77,24 L35.828,24 L35.828,19.688 C35.828,17.952 35.184,16.888 33.672,16.888 C32.734,16.888 32.034,17.378 31.446,17.938 L31.39,17.938 L31.25,17.056 L29.57,17.056 L29.57,24 L31.628,24 Z M39.664,24.168 C40.616,24.168 41.26,23.734 41.848,23.034 L41.89,23.034 L42.044,24 L43.724,24 L43.724,17.056 L41.666,17.056 L41.666,21.648 C41.26,22.194 40.952,22.418 40.434,22.418 C39.832,22.418 39.566,22.096 39.566,21.102 L39.566,17.056 L37.508,17.056 L37.508,21.368 C37.508,23.104 38.152,24.168 39.664,24.168 Z M48.204,24.168 C48.876,24.168 49.38,24.028 49.744,23.916 L49.422,22.418 C49.24,22.488 48.988,22.558 48.764,22.558 C48.218,22.558 47.868,22.236 47.868,21.452 L47.868,18.666 L49.534,18.666 L49.534,17.056 L47.868,17.056 L47.868,15.208 L46.16,15.208 L45.922,17.056 L44.858,17.14 L44.858,18.666 L45.81,18.666 L45.81,21.48 C45.81,23.09 46.482,24.168 48.204,24.168 Z M57.668,24.168 C58.858,24.168 59.866,23.706 60.622,22.824 L59.53,21.536 C59.082,22.012 58.494,22.39 57.752,22.39 C56.408,22.39 55.54,21.298 55.54,19.422 C55.54,17.588 56.534,16.482 57.78,16.482 C58.438,16.482 58.928,16.79 59.39,17.21 L60.482,15.894 C59.866,15.264 58.914,14.704 57.738,14.704 C55.428,14.704 53.426,16.468 53.426,19.492 C53.426,22.558 55.358,24.168 57.668,24.168 Z M63.898,24 L63.898,19.31 C64.346,18.876 64.668,18.638 65.186,18.638 C65.774,18.638 66.04,18.946 66.04,19.954 L66.04,24 L68.098,24 L68.098,19.688 C68.098,17.952 67.454,16.888 65.942,16.888 C65.004,16.888 64.318,17.378 63.8,17.84 L63.898,16.594 L63.898,14.186 L61.84,14.186 L61.84,24 L63.898,24 Z M71.584,24.168 C72.368,24.168 73.012,23.804 73.6,23.286 L73.656,23.286 L73.796,24 L75.476,24 L75.476,20.024 C75.476,17.896 74.496,16.888 72.718,16.888 C71.626,16.888 70.632,17.266 69.75,17.798 L70.492,19.156 C71.164,18.764 71.738,18.526 72.326,18.526 C73.082,18.526 73.376,18.918 73.418,19.534 C70.674,19.814 69.512,20.612 69.512,22.068 C69.512,23.244 70.31,24.168 71.584,24.168 Z M72.284,22.572 C71.794,22.572 71.486,22.362 71.486,21.914 C71.486,21.382 71.962,20.962 73.418,20.766 L73.418,21.984 C73.054,22.348 72.746,22.572 72.284,22.572 Z M79.27,24 L79.27,19.968 C79.634,19.03 80.278,18.694 80.796,18.694 C81.09,18.694 81.3,18.736 81.552,18.806 L81.888,17.028 C81.692,16.944 81.454,16.888 81.062,16.888 C80.348,16.888 79.592,17.336 79.088,18.274 L79.032,18.274 L78.892,17.056 L77.212,17.056 L77.212,24 L79.27,24 Z M85.458,24.168 C86.13,24.168 86.634,24.028 86.998,23.916 L86.676,22.418 C86.494,22.488 86.242,22.558 86.018,22.558 C85.472,22.558 85.122,22.236 85.122,21.452 L85.122,18.666 L86.788,18.666 L86.788,17.056 L85.122,17.056 L85.122,15.208 L83.414,15.208 L83.176,17.056 L82.112,17.14 L82.112,18.666 L83.064,18.666 L83.064,21.48 C83.064,23.09 83.736,24.168 85.458,24.168 Z" id="DonutChart" fill="#272C37" fill-rule="nonzero"></path>
        <g id="Group" transform="translate(8.000000, 38.000000)">
            <path d="M57.9028394,76.0330579 C56.4008693,73.0178952 54.5767152,69.3234616 52.4303769,64.9497571 C64.2830983,58.1270868 67.9111063,48.5454364 67.3292812,38.0165289 C66.4666536,22.4061194 52.4303769,13.027816 41.1042158,13.027816 C40.8511352,9.35020508 41.1042158,3.58895107 41.1042158,0 C60.5521079,0 80,16.9654049 80,38.0165289 C80,55.361489 72.6342798,68.0336653 57.9028394,76.0330579 Z" id="Path" fill="#A8C8DC"></path>
            <path d="M49.3362085,65.3900862 L54.8760331,76.8551876 C41.7573867,81.6935766 30.2374017,80.9489597 20.3160779,74.6213368 C10.3947541,68.293714 4.28388517,60.8570009 1.98347107,52.3111977 L13.852269,47.6033058 C15.5310696,54.6398818 19.9405066,60.0636615 27.0805797,63.8746448 C34.2206529,67.6856281 41.6391958,68.1907753 49.3362085,65.3900862 Z" id="Path-6" fill="#D0DCE3"></path>
            <path d="M0.641757249,48.9256198 L13.1098147,44.8791174 C12.33388,41.1877261 12.4670652,37.2909542 13.5093704,33.1888016 C14.5516756,29.0866491 16.6601224,25.3387976 19.8347107,21.9452472 L10.6045598,13.2231405 C5.49976771,18.8420377 2.31860933,24.4652549 1.06108469,30.0927922 C-0.196439952,35.7203294 -0.336215766,41.9979386 0.641757249,48.9256198 Z" id="Path-7" fill="#9CB7C9"></path>
            <path d="M13.2231405,10.3855421 L21.8284351,19.8347107 C25.2483984,17.1692048 27.8796104,15.5246448 29.7220712,14.9010307 C32.5319633,13.725451 35.4069754,13.0725879 38.3471074,12.9424416 L38.3471074,0 C32.5988198,0.62461175 28.0042752,1.68578059 24.5634735,3.18350651 C21.1226718,4.68123244 17.3425608,7.08191097 13.2231405,10.3855421 Z" id="Path-8" fill="#B9D8EC"></path>
        </g>
    </g>
</svg>