<svg xmlns="http://www.w3.org/2000/svg" width="282" height="47" viewBox="0 0 282 47">
  <g fill="none" fill-rule="evenodd">
    <g transform="translate(1 1)">
      <path fill="#272C37" fill-rule="nonzero" d="M3.612,10 C6.384,10 7.896,8.292 7.896,5.366 C7.896,2.454 6.384,0.816 3.556,0.816 L1.26,0.816 L1.26,10 L3.612,10 Z M3.472,9.048 L2.422,9.048 L2.422,1.768 L3.472,1.768 C5.614,1.768 6.692,3.056 6.692,5.366 C6.692,7.69 5.614,9.048 3.472,9.048 Z M11.746,10.168 C12.684,10.168 13.356,9.678 13.986,8.936 L14.028,8.936 L14.126,10 L15.078,10 L15.078,3.196 L13.93,3.196 L13.93,8.026 C13.286,8.824 12.796,9.174 12.096,9.174 C11.2,9.174 10.822,8.628 10.822,7.354 L10.822,3.196 L9.66,3.196 L9.66,7.508 C9.66,9.244 10.304,10.168 11.746,10.168 Z M18.522,10 L18.522,5.632 C18.984,4.484 19.67,4.064 20.244,4.064 C20.524,4.064 20.678,4.106 20.902,4.176 L21.126,3.168 C20.902,3.07 20.692,3.028 20.398,3.028 C19.628,3.028 18.928,3.574 18.466,4.428 L18.424,4.428 L18.326,3.196 L17.374,3.196 L17.374,10 L18.522,10 Z M23.8,10.168 C24.654,10.168 25.41,9.72 26.054,9.188 L26.096,9.188 L26.194,10 L27.146,10 L27.146,5.828 C27.146,4.134 26.446,3.028 24.78,3.028 C23.688,3.028 22.736,3.504 22.106,3.91 L22.554,4.708 C23.086,4.344 23.8,3.98 24.584,3.98 C25.704,3.98 25.984,4.82 25.984,5.688 C23.086,6.01 21.812,6.752 21.812,8.236 C21.812,9.454 22.666,10.168 23.8,10.168 Z M24.136,9.244 C23.464,9.244 22.932,8.922 22.932,8.152 C22.932,7.284 23.716,6.724 25.984,6.444 L25.984,8.334 C25.326,8.922 24.794,9.244 24.136,9.244 Z M31.43,10.168 C31.85,10.168 32.312,10.042 32.69,9.916 L32.466,9.048 C32.242,9.132 31.934,9.23 31.696,9.23 C30.912,9.23 30.646,8.754 30.646,7.914 L30.646,4.134 L32.48,4.134 L32.48,3.196 L30.646,3.196 L30.646,1.292 L29.68,1.292 L29.54,3.196 L28.476,3.266 L28.476,4.134 L29.484,4.134 L29.484,7.9 C29.484,9.244 29.974,10.168 31.43,10.168 Z M34.608,1.796 C35.056,1.796 35.406,1.488 35.406,1.054 C35.406,0.606 35.056,0.312 34.608,0.312 C34.16,0.312 33.81,0.606 33.81,1.054 C33.81,1.488 34.16,1.796 34.608,1.796 Z M35.168,10 L35.168,3.196 L34.02,3.196 L34.02,10 L35.168,10 Z M40.11,10.168 C41.776,10.168 43.26,8.866 43.26,6.612 C43.26,4.33 41.776,3.028 40.11,3.028 C38.444,3.028 36.96,4.33 36.96,6.612 C36.96,8.866 38.444,10.168 40.11,10.168 Z M40.11,9.216 C38.948,9.216 38.15,8.166 38.15,6.612 C38.15,5.044 38.948,3.98 40.11,3.98 C41.286,3.98 42.07,5.044 42.07,6.612 C42.07,8.166 41.286,9.216 40.11,9.216 Z M46.2,10 L46.2,5.072 C46.886,4.386 47.362,4.022 48.062,4.022 C48.958,4.022 49.35,4.568 49.35,5.842 L49.35,10 L50.498,10 L50.498,5.688 C50.498,3.952 49.854,3.028 48.426,3.028 C47.488,3.028 46.788,3.532 46.144,4.176 L46.102,4.176 L46.004,3.196 L45.052,3.196 L45.052,10 L46.2,10 Z" opacity=".803"/>
      <path stroke="#C8C8C8" d="M2,13 L247,13 L247,13 L247,45 L2,45 C0.8954305,45 1.3527075e-16,44.1045695 0,43 L0,15 C-1.3527075e-16,13.8954305 0.8954305,13 2,13 Z"/>
    </g>
    <path fill="#F7F7F6" stroke="#C8C8C8" d="M248,14 L278,14 C279.104569,14 280,14.8954305 280,16 L280,44 C280,45.1045695 279.104569,46 278,46 L248,46 L248,46 L248,14 Z"/>
    <g fill="#2D313A" transform="translate(257 20)">
      <path fill-rule="nonzero" d="M14.2857143,18.2857143 C15.2321429,18.2857143 16,17.5178571 16,16.5714286 L16,4 C16,3.05357143 15.2321429,2.28571429 14.2857143,2.28571429 L12.5714286,2.28571429 L12.5714286,0.428571429 C12.5714286,0.192871094 12.3785575,2.48689958e-14 12.1428571,2.48689958e-14 L10.7142857,2.48689958e-14 C10.4785854,2.48689958e-14 10.2857143,0.192871094 10.2857143,0.428571429 L10.2857143,2.28571429 L5.71428571,2.28571429 L5.71428571,0.428571429 C5.71428571,0.192871094 5.52141462,2.48689958e-14 5.28571429,2.48689958e-14 L3.85714286,2.48689958e-14 C3.62144252,2.48689958e-14 3.42857143,0.192871094 3.42857143,0.428571429 L3.42857143,2.28571429 L1.71428571,2.28571429 C0.767857143,2.28571429 0,3.05357143 0,4 L0,16.5714286 C0,17.5178571 0.767857143,18.2857143 1.71428571,18.2857143 L14.2857143,18.2857143 Z M14.0714286,16.5714286 L1.92857143,16.5714286 C1.81072126,16.5714286 1.71428571,16.474993 1.71428571,16.3571429 L1.71428571,5.71428571 L14.2857143,5.71428571 L14.2857143,16.3571429 C14.2857143,16.474993 14.1892787,16.5714286 14.0714286,16.5714286 Z"/>
      <rect width="6" height="2" x="3" y="8" rx="1"/>
      <circle cx="12" cy="9" r="1"/>
      <circle cx="12" cy="13" r="1"/>
      <circle cx="8" cy="13" r="1"/>
      <circle cx="4" cy="13" r="1"/>
    </g>
  </g>
</svg>
