<?xml version="1.0" encoding="UTF-8"?>
<svg width="1575px" height="692px" viewBox="0 0 1575 692" version="1.1" xmlns="http://www.w3.org/2000/svg" xmlns:xlink="http://www.w3.org/1999/xlink">
    <!-- Generator: Sketch 54.1 (76490) - https://sketchapp.com -->
    <title>Grid</title>
    <desc>Created with Sketch.</desc>
    <defs>
        <filter x="-1.1%" y="-2.8%" width="102.7%" height="108.0%" filterUnits="objectBoundingBox" id="filter-1">
            <feOffset dx="0" dy="0" in="SourceAlpha" result="shadowOffsetOuter1"></feOffset>
            <feGaussianBlur stdDeviation="2.5" in="shadowOffsetOuter1" result="shadowBlurOuter1"></feGaussianBlur>
            <feColorMatrix values="0 0 0 0 0   0 0 0 0 0   0 0 0 0 0  0 0 0 0.3 0" type="matrix" in="shadowBlurOuter1" result="shadowMatrixOuter1"></feColorMatrix>
            <feMerge>
                <feMergeNode in="shadowMatrixOuter1"></feMergeNode>
                <feMergeNode in="SourceGraphic"></feMergeNode>
            </feMerge>
        </filter>
        <rect id="path-2" x="10" y="0" width="1543" height="660" rx="4"></rect>
        <filter x="-1.8%" y="-3.0%" width="103.6%" height="108.5%" filterUnits="objectBoundingBox" id="filter-3">
            <feOffset dx="0" dy="8" in="SourceAlpha" result="shadowOffsetOuter1"></feOffset>
            <feGaussianBlur stdDeviation="8" in="shadowOffsetOuter1" result="shadowBlurOuter1"></feGaussianBlur>
            <feColorMatrix values="0 0 0 0 0   0 0 0 0 0   0 0 0 0 0  0 0 0 0.1 0" type="matrix" in="shadowBlurOuter1"></feColorMatrix>
        </filter>
        <polygon id="path-4" points="6.71428571 15 1 9.23208707 2.61142839 7.61082471 6.71428571 11.7272215 15.3885715 3 17 4.63276089"></polygon>
        <filter x="-43.7%" y="-41.7%" width="187.5%" height="216.7%" filterUnits="objectBoundingBox" id="filter-5">
            <feOffset dx="0" dy="2" in="SourceAlpha" result="shadowOffsetOuter1"></feOffset>
            <feGaussianBlur stdDeviation="2" in="shadowOffsetOuter1" result="shadowBlurOuter1"></feGaussianBlur>
            <feColorMatrix values="0 0 0 0 0   0 0 0 0 0   0 0 0 0 0  0 0 0 0.3 0" type="matrix" in="shadowBlurOuter1"></feColorMatrix>
        </filter>
        <polygon id="path-6" points="4.80952381 10 1 6.15472471 2.07428559 5.07388314 4.80952381 7.81814768 10.592381 2 11.6666667 3.08850726"></polygon>
        <filter x="-65.6%" y="-62.5%" width="231.2%" height="275.0%" filterUnits="objectBoundingBox" id="filter-7">
            <feOffset dx="0" dy="2" in="SourceAlpha" result="shadowOffsetOuter1"></feOffset>
            <feGaussianBlur stdDeviation="2" in="shadowOffsetOuter1" result="shadowBlurOuter1"></feGaussianBlur>
            <feColorMatrix values="0 0 0 0 0   0 0 0 0 0   0 0 0 0 0  0 0 0 0.3 0" type="matrix" in="shadowBlurOuter1"></feColorMatrix>
        </filter>
        <polygon id="path-8" points="0 0 1543 0 1543 59 0 59"></polygon>
        <filter x="-0.0%" y="-0.8%" width="100.1%" height="103.4%" filterUnits="objectBoundingBox" id="filter-9">
            <feOffset dx="0" dy="1" in="SourceAlpha" result="shadowOffsetOuter1"></feOffset>
            <feColorMatrix values="0 0 0 0 0.854901961   0 0 0 0 0.854901961   0 0 0 0 0.854901961  0 0 0 1 0" type="matrix" in="shadowOffsetOuter1"></feColorMatrix>
        </filter>
        <filter x="-0.0%" y="-0.8%" width="100.1%" height="103.4%" filterUnits="objectBoundingBox" id="filter-10">
            <feOffset dx="0" dy="1" in="SourceAlpha" result="shadowOffsetInner1"></feOffset>
            <feComposite in="shadowOffsetInner1" in2="SourceAlpha" operator="arithmetic" k2="-1" k3="1" result="shadowInnerInner1"></feComposite>
            <feColorMatrix values="0 0 0 0 0.854901961   0 0 0 0 0.854901961   0 0 0 0 0.854901961  0 0 0 1 0" type="matrix" in="shadowInnerInner1"></feColorMatrix>
        </filter>
        <rect id="path-11" x="0" y="20" width="1506" height="1"></rect>
        <path d="M4,1 L1536,1 C1538.20914,1 1540,2.790861 1540,5 L1540,49 L0,49 L0,5 C-2.705415e-16,2.790861 1.790861,1 4,1 Z" id="path-13"></path>
        <filter x="-0.0%" y="-1.0%" width="100.1%" height="104.2%" filterUnits="objectBoundingBox" id="filter-14">
            <feOffset dx="0" dy="1" in="SourceAlpha" result="shadowOffsetOuter1"></feOffset>
            <feColorMatrix values="0 0 0 0 0.811764706   0 0 0 0 0.823529412   0 0 0 0 0.850980392  0 0 0 0.5 0" type="matrix" in="shadowOffsetOuter1"></feColorMatrix>
        </filter>
    </defs>
    <g id="Page-1" stroke="none" stroke-width="1" fill="none" fill-rule="evenodd">
        <g id="No-Odd-&amp;-Even" transform="translate(-2.000000, -110.000000)">
            <g id="Base" transform="translate(-1.000000, -1.000000)">
                <g id="Grid" filter="url(#filter-1)" transform="translate(9.000000, 119.000000)">
                    <g id="Grid-Background">
                        <use fill="black" fill-opacity="1" filter="url(#filter-3)" xlink:href="#path-2"></use>
                        <use fill="#FFFFFF" fill-rule="evenodd" xlink:href="#path-2"></use>
                    </g>
                    <text id="text" font-family="SourceSansPro-Regular, Source Sans Pro" font-size="13.9200001" font-weight="normal" letter-spacing="0.400000006" fill="#292929" fill-opacity="0.8">
                        <tspan x="1435.10352" y="626">Total Records: </tspan>
                        <tspan x="1525.50048" y="626" font-family="SourceSansPro-Bold, Source Sans Pro" font-weight="bold">13</tspan>
                    </text>
                    <g id="Tier-2-Details" transform="translate(0.452767, 168.000000)">
                        <polygon id="Background-light" stroke="#DADADA" fill="#FFFFFF" stroke-linecap="square" points="9.54723347 0 1552.54723 0 1552.54723 443 9.54723347 443"></polygon>
                        <rect id="Rectangle" fill="#BAD8EC" x="10" y="0" width="1543" height="49"></rect>
                        <g id="Row-9" transform="translate(10.547935, 393.000000)">
                            <polygon id="Background-light" fill-opacity="0" fill="#FFFFFF" points="0 0 951.32978 0 951.32978 49 0 49"></polygon>
                            <g id="Group-17" transform="translate(56.849583, 1.000000)" fill="#292929" font-family="SourceSansPro-Regular, Source Sans Pro" font-size="16" font-weight="normal" line-spacing="19" opacity="0.800000012">
                                <g id="Group-3">
                                    <text id="text">
                                        <tspan x="-1.42108547e-14" y="16">BERA</tspan>
                                    </text>
                                </g>
                            </g>
                            <g id="Group-17-Copy" transform="translate(274.310317, 1.000000)" fill="#292929" font-family="SourceSansPro-Regular, Source Sans Pro" font-size="16" font-weight="normal" line-spacing="19" opacity="0.800000012">
                                <g id="Group-3">
                                    <text id="text">
                                        <tspan x="0" y="16">Ben Randell</tspan>
                                    </text>
                                </g>
                            </g>
                            <g id="Group-17-Copy-2" transform="translate(603.729309, 1.000000)" fill="#292929" font-family="SourceSansPro-Regular, Source Sans Pro" font-size="16" font-weight="normal" line-spacing="19" opacity="0.800000012">
                                <g id="Group-3">
                                    <text id="text">
                                        <tspan x="0" y="16">1</tspan>
                                    </text>
                                </g>
                            </g>
                            <g id="Group-17-Copy-3" transform="translate(862.702850, 1.000000)" fill="#292929" font-family="SourceSansPro-Regular, Source Sans Pro" font-size="16" font-weight="normal" line-spacing="19" opacity="0.800000012">
                                <g id="Group-3">
                                    <text id="text">
                                        <tspan x="0" y="16">A31</tspan>
                                    </text>
                                </g>
                            </g>
                            <rect id="checkbox-on-hover-copy-2" stroke-opacity="0.8" stroke="#292929" fill="#FFFFFF" x="14.7227256" y="18.875" width="13.8082638" height="13.25" rx="2"></rect>
                        </g>
                        <g id="Row-8" transform="translate(9.570997, 344.000000)">
                            <polygon id="Background-light" stroke="#DADADA" stroke-linecap="square" points="0 -1.13686838e-13 1542.41027 -1.13686838e-13 1542.41027 49 0 49"></polygon>
                            <g id="Group" transform="translate(15.022116, -0.000000)">
                                <text id="text" opacity="0.800000012" font-family="SourceSansPro-Regular, Source Sans Pro" font-size="16" font-weight="normal" line-spacing="19" fill="#292929">
                                    <tspan x="41" y="16">BBB</tspan>
                                </text>
                                <rect id="checkbox-on-hover-copy-2" stroke-opacity="0.8" stroke="#292929" fill="#FFFFFF" x="-0.5" y="17.875" width="13.3076791" height="13.25" rx="2"></rect>
                                <g id="Group-17-Copy" transform="translate(258.070917, 0.000000)" fill="#292929" font-family="SourceSansPro-Regular, Source Sans Pro" font-size="16" font-weight="normal" line-spacing="19" opacity="0.800000012">
                                    <g id="Group-3" transform="translate(-0.000000, 0.000000)">
                                        <text id="text">
                                            <tspan x="-5.68434189e-14" y="16">BBB</tspan>
                                        </text>
                                    </g>
                                </g>
                                <g id="Group-17-Copy-2" transform="translate(589.456205, 0.000000)" fill="#292929" font-family="SourceSansPro-Regular, Source Sans Pro" font-size="16" font-weight="normal" line-spacing="19" opacity="0.800000012">
                                    <g id="Group-3">
                                        <text id="text">
                                            <tspan x="0" y="16">1</tspan>
                                        </text>
                                    </g>
                                </g>
                                <g id="Group-17-Copy-3" transform="translate(847.575049, 0.000000)" fill="#292929" font-family="SourceSansPro-Regular, Source Sans Pro" font-size="16" font-weight="normal" line-spacing="19" opacity="0.800000012">
                                    <g id="Group-3">
                                        <text id="text">
                                            <tspan x="0" y="16">A11</tspan>
                                        </text>
                                    </g>
                                </g>
                            </g>
                        </g>
                        <g id="Row-7" transform="translate(24.591496, 295.000000)">
                            <g id="Group-17-Copy" transform="translate(258.174235, 0.000000)" fill="#292929" font-family="SourceSansPro-Regular, Source Sans Pro" font-size="16" font-weight="normal" line-spacing="19" opacity="0.800000012">
                                <g id="Group-3">
                                    <text id="text">
                                        <tspan x="0" y="16">Arch Welder</tspan>
                                    </text>
                                </g>
                            </g>
                            <g id="Group-17-Copy-2" transform="translate(588.880876, 0.000000)" fill="#292929" font-family="SourceSansPro-Regular, Source Sans Pro" font-size="16" font-weight="normal" line-spacing="19" opacity="0.800000012">
                                <g id="Group-3">
                                    <text id="text">
                                        <tspan x="0" y="16">1</tspan>
                                    </text>
                                </g>
                            </g>
                            <g id="Group-17-Copy-3" transform="translate(848.028442, 0.000000)" fill="#292929" font-family="SourceSansPro-Regular, Source Sans Pro" font-size="16" font-weight="normal" line-spacing="19" opacity="0.800000012">
                                <g id="Group-3">
                                    <text id="text">
                                        <tspan x="0" y="16">VIRTUAL _ GLOBAL</tspan>
                                    </text>
                                </g>
                            </g>
                            <g id="checkbox-copy-3" transform="translate(0.000000, 18.500000)" fill="#FFFFFF" stroke="#292929" stroke-opacity="0.8">
                                <rect id="checkbox-on-hover-copy-2" x="-0.5" y="-0.5" width="13" height="13" rx="2"></rect>
                            </g>
                            <text id="text-copy" opacity="0.800000012" font-family="SourceSansPro-Regular, Source Sans Pro" font-size="16" font-weight="normal" line-spacing="19" fill="#292929">
                                <tspan x="41" y="16">AW001</tspan>
                            </text>
                        </g>
                        <g id="Row-6" transform="translate(9.570997, 246.000000)">
                            <polygon id="Background-light" stroke="#DADADA" stroke-linecap="square" points="0 0 1542.41027 0 1542.41027 49 0 49"></polygon>
                            <rect id="checkbox-on-hover-copy-2" stroke-opacity="0.8" stroke="#292929" fill="#FFFFFF" x="13.4539745" y="17.875" width="13.8176924" height="13.25" rx="2"></rect>
                            <g id="Group-17" transform="translate(56.679616, 0.000000)" fill="#292929" font-family="SourceSansPro-Regular, Source Sans Pro" font-size="16" font-weight="normal" line-spacing="19" opacity="0.800000012">
                                <g id="Group-3">
                                    <text id="text">
                                        <tspan x="0" y="16">ANWA</tspan>
                                    </text>
                                </g>
                            </g>
                            <g id="Group-17-Copy" transform="translate(273.217566, 0.000000)" fill="#292929" font-family="SourceSansPro-Regular, Source Sans Pro" font-size="16" font-weight="normal" line-spacing="19" opacity="0.800000012">
                                <g id="Group-3">
                                    <text id="text">
                                        <tspan x="0" y="16">Andre Watson</tspan>
                                    </text>
                                </g>
                            </g>
                            <g id="Group-17-Copy-2" transform="translate(603.954557, 0.000000)" fill="#292929" font-family="SourceSansPro-Regular, Source Sans Pro" font-size="16" font-weight="normal" line-spacing="19" opacity="0.800000012">
                                <g id="Group-3">
                                    <text id="text">
                                        <tspan x="0" y="16">1</tspan>
                                    </text>
                                </g>
                            </g>
                            <g id="Group-17-Copy-3" transform="translate(863.126097, 0.000000)" fill="#292929" font-family="SourceSansPro-Regular, Source Sans Pro" font-size="16" font-weight="normal" line-spacing="19" opacity="0.800000012">
                                <g id="Group-3">
                                    <text id="text">
                                        <tspan x="0" y="16">A11</tspan>
                                    </text>
                                </g>
                            </g>
                        </g>
                        <g id="Row-5" transform="translate(0.560747, 196.000000)">
                            <g id="Group-17" transform="translate(67.255935, 0.000000)" fill="#292929" font-family="SourceSansPro-Regular, Source Sans Pro" font-size="16" font-weight="normal" line-spacing="19" opacity="0.800000012">
                                <g id="Group-3">
                                    <text id="text">
                                        <tspan x="0" y="16">ANSM</tspan>
                                    </text>
                                </g>
                            </g>
                            <g id="Group-17-Copy" transform="translate(282.618413, 0.000000)" fill="#292929" font-family="SourceSansPro-Regular, Source Sans Pro" font-size="16" font-weight="normal" line-spacing="19" opacity="0.800000012">
                                <g id="Group-3">
                                    <text id="text">
                                        <tspan x="0" y="16">Anton Smith</tspan>
                                    </text>
                                </g>
                            </g>
                            <g id="Group-17-Copy-2" transform="translate(613.168307, 0.000000)" fill="#292929" font-family="SourceSansPro-Regular, Source Sans Pro" font-size="16" font-weight="normal" line-spacing="19">
                                <g id="Group-3">
                                    <text id="text">
                                        <tspan x="0" y="16">1</tspan>
                                    </text>
                                </g>
                            </g>
                            <g id="Group-17-Copy-3" transform="translate(872.192047, 0.000000)" fill="#292929" font-family="SourceSansPro-Regular, Source Sans Pro" font-size="16" font-weight="normal" line-spacing="19" opacity="0.800000012">
                                <g id="Group-3">
                                    <text id="text">
                                        <tspan x="0" y="16">A31</tspan>
                                    </text>
                                </g>
                            </g>
                            <g id="checkbox" opacity="0" transform="translate(0.000000, 15.500000)">
                                <g id="check">
                                    <rect id="checkbox-on-hover-copy" stroke="#9B9B9B" stroke-width="2" fill-opacity="0.8" fill="#292929" x="-1" y="-1" width="20" height="20" rx="2"></rect>
                                    <g id="tick-copy-3">
                                        <use fill="black" fill-opacity="1" filter="url(#filter-5)" xlink:href="#path-4"></use>
                                        <use fill="#FFFFFF" fill-rule="evenodd" xlink:href="#path-4"></use>
                                    </g>
                                </g>
                                <rect id="checkbox-on-hover-copy-2" stroke="#9B9B9B" stroke-width="2" fill="#9B9B9B" x="-1" y="-1" width="20" height="20" rx="2"></rect>
                            </g>
                            <rect id="checkbox-on-hover-copy-2" stroke-opacity="0.8" stroke="#292929" fill="#FFFFFF" x="24.0537541" y="17.875" width="13.8106543" height="13.25" rx="2"></rect>
                        </g>
                        <g id="Row-4" transform="translate(10.573559, 148.000000)">
                            <polygon id="Background-light" stroke="#DADADA" stroke-linecap="square" points="0 0 1540.32539 0 1540.32539 49 0 49"></polygon>
                            <rect id="checkbox-on-hover-copy-2" stroke-opacity="0.8" stroke="#292929" fill="#FFFFFF" x="13.3862774" y="17.875" width="12.749927" height="13.25" rx="2"></rect>
                            <g id="Group-17" transform="translate(54.476934, 0.000000)" fill="#292929" font-family="SourceSansPro-Regular, Source Sans Pro" font-size="16" font-weight="normal" line-spacing="19" opacity="0.800000012">
                                <g id="Group-3">
                                    <text id="text">
                                        <tspan x="0" y="16">ANHO</tspan>
                                    </text>
                                </g>
                            </g>
                            <g id="Group-17-Copy" transform="translate(272.089344, 0.000000)" fill="#292929" font-family="SourceSansPro-Regular, Source Sans Pro" font-size="16" font-weight="normal" line-spacing="19" opacity="0.800000012">
                                <g id="Group-3">
                                    <text id="text">
                                        <tspan x="0" y="16">Andrew Howlett</tspan>
                                    </text>
                                </g>
                            </g>
                            <g id="Group-17-Copy-2" transform="translate(602.837228, 0.000000)" fill="#292929" font-family="SourceSansPro-Regular, Source Sans Pro" font-size="16" font-weight="normal" line-spacing="19" opacity="0.800000012">
                                <g id="Group-3">
                                    <text id="text">
                                        <tspan x="0" y="16">1</tspan>
                                    </text>
                                </g>
                            </g>
                            <g id="Group-17-Copy-3" transform="translate(862.017374, 0.000000)" fill="#292929" font-family="SourceSansPro-Regular, Source Sans Pro" font-size="16" font-weight="normal" line-spacing="19" opacity="0.800000012">
                                <g id="Group-3">
                                    <text id="text">
                                        <tspan x="0" y="16">A12</tspan>
                                    </text>
                                </g>
                            </g>
                        </g>
                        <g id="Row-3-Selected" transform="translate(9.570997, 99.000000)">
                            <text id="text" opacity="0.800000012" font-family="SourceSansPro-Regular, Source Sans Pro" font-size="16" font-weight="normal" line-spacing="19" fill="#292929">
                                <tspan x="52" y="16">ALDA</tspan>
                            </text>
                            <g id="checkbox" transform="translate(14.000000, 18.500000)" fill="#FFFFFF" stroke="#292929" stroke-opacity="0.8">
                                <rect id="checkbox-on-hover-copy-2" x="-0.5" y="-0.5" width="13" height="13" rx="2"></rect>
                            </g>
                            <g id="Group-17-Copy" transform="translate(273.217566, 0.000000)" fill="#292929" font-family="SourceSansPro-Regular, Source Sans Pro" font-size="16" font-weight="normal" line-spacing="19" opacity="0.800000012">
                                <g id="Group-3">
                                    <text id="text">
                                        <tspan x="0" y="16">Alan Dawson</tspan>
                                    </text>
                                </g>
                            </g>
                            <g id="Group-17-Copy-2" transform="translate(603.954557, 0.000000)" fill="#292929" font-family="SourceSansPro-Regular, Source Sans Pro" font-size="16" font-weight="normal" line-spacing="19" opacity="0.800000012">
                                <g id="Group-3">
                                    <text id="text">
                                        <tspan x="0" y="16">1</tspan>
                                    </text>
                                </g>
                            </g>
                            <g id="Group-17-Copy-3" transform="translate(863.126097, 0.000000)" fill="#292929" font-family="SourceSansPro-Regular, Source Sans Pro" font-size="16" font-weight="normal" line-spacing="19" opacity="0.800000012">
                                <g id="Group-3">
                                    <text id="text">
                                        <tspan x="0" y="16">A31</tspan>
                                    </text>
                                </g>
                            </g>
                        </g>
                        <g id="Row-2" transform="translate(9.570997, 49.000000)">
                            <polygon id="Background-light" stroke="#DADADA" stroke-linecap="square" points="0 1.13686838e-13 1542.41027 1.13686838e-13 1542.41027 49 0 49"></polygon>
                            <g id="checkbox" transform="translate(13.000000, 18.500000)" fill="#FFFFFF" stroke="#292929" stroke-opacity="0.8">
                                <rect id="checkbox-on-hover-copy-2" x="-0.5" y="-0.5" width="13" height="13" rx="2"></rect>
                            </g>
                            <g id="Group-17" transform="translate(56.679616, 0.000000)" fill="#292929" font-family="SourceSansPro-Regular, Source Sans Pro" font-size="16" font-weight="normal" line-spacing="19" opacity="0.800000012">
                                <g id="Group-3">
                                    <text id="text">
                                        <tspan x="0" y="16">ADMIN</tspan>
                                    </text>
                                </g>
                            </g>
                            <g id="Group-17-Copy" transform="translate(273.217566, 0.000000)" fill="#292929" font-family="SourceSansPro-Regular, Source Sans Pro" font-size="16" font-weight="normal" line-spacing="19" opacity="0.800000012">
                                <g id="Group-3">
                                    <text id="text">
                                        <tspan x="0" y="16">A21 Administrator</tspan>
                                    </text>
                                </g>
                            </g>
                            <g id="Group-17-Copy-2" transform="translate(603.954557, 0.000000)" fill="#292929" font-family="SourceSansPro-Regular, Source Sans Pro" font-size="16" font-weight="normal" line-spacing="19" opacity="0.800000012">
                                <g id="Group-3">
                                    <text id="text">
                                        <tspan x="0" y="16">1</tspan>
                                    </text>
                                </g>
                            </g>
                            <g id="Group-17-Copy-3" transform="translate(863.126097, 0.000000)" fill="#292929" font-family="SourceSansPro-Regular, Source Sans Pro" font-size="16" font-weight="normal" line-spacing="19" opacity="0.800000012">
                                <g id="Group-3">
                                    <text id="text">
                                        <tspan x="0" y="16">A21</tspan>
                                    </text>
                                </g>
                            </g>
                        </g>
                        <g id="Row-1" transform="translate(23.590215, 0.000000)">
                            <g id="Group-17" transform="translate(41.632833, -0.000000)">
                                <g id="Group-3"></g>
                            </g>
                            <g id="Group-17-Copy" transform="translate(260.189422, -0.000000)" fill="#292929" font-family="SourceSansPro-Regular, Source Sans Pro" font-size="16" font-weight="normal" line-spacing="19" opacity="0.800000012">
                                <g id="Group-3" transform="translate(0.000000, 0.000000)">
                                    <text id="text">
                                        <tspan x="5.68434189e-14" y="16">AAA A</tspan>
                                    </text>
                                </g>
                            </g>
                            <g id="Group-17-Copy-2" transform="translate(593.927173, -0.000000)" fill="#292929" font-family="SourceSansPro-Regular, Source Sans Pro" font-size="16" font-weight="normal" line-spacing="19" opacity="0.800000012">
                                <g id="Group-3" transform="translate(-0.000000, 0.000000)">
                                    <text id="text">
                                        <tspan x="-4.54747351e-13" y="16">1</tspan>
                                    </text>
                                </g>
                            </g>
                            <g id="Group-17-Copy-3" transform="translate(849.736801, -0.000000)" fill="#292929" font-family="SourceSansPro-Regular, Source Sans Pro" font-size="16" font-weight="normal" line-spacing="19" opacity="0.800000012">
                                <g id="Group-3">
                                    <text id="text">
                                        <tspan x="0" y="16">A11</tspan>
                                    </text>
                                </g>
                            </g>
                            <text id="text" opacity="0.800000012" font-family="SourceSansPro-Regular, Source Sans Pro" font-size="16" font-weight="normal" line-spacing="19" fill="#292929">
                                <tspan x="42.6603974" y="18">AAA</tspan>
                            </text>
                            <g id="check" transform="translate(0.000000, 18.000000)">
                                <rect id="checkbox-on-hover-copy" stroke="#0076C2" fill="#0076C2" x="-0.5" y="-0.5" width="13.5" height="13.5" rx="2"></rect>
                                <g id="tick-copy-3">
                                    <use fill="black" fill-opacity="1" filter="url(#filter-7)" xlink:href="#path-6"></use>
                                    <use fill="#FFFFFF" fill-rule="evenodd" xlink:href="#path-6"></use>
                                </g>
                            </g>
                        </g>
                    </g>
                    <g id="Deviders" transform="translate(51.000000, 168.000000)" fill="#DADADA">
                        <rect id="Rectangle" x="214" y="0" width="1" height="443"></rect>
                        <rect id="Rectangle" x="0" y="0" width="1" height="443"></rect>
                        <rect id="Rectangle" x="546" y="0" width="1" height="443"></rect>
                        <rect id="Rectangle" x="809" y="0" width="1" height="443"></rect>
                    </g>
                    <g id="Grid-Top" transform="translate(10.000000, 110.000000)">
                        <polygon id="Background-light" fill="#FFFFFF" points="0 1 1513 1 1513 57 0 57"></polygon>
                        <text id="text" font-family="SourceSansPro-Bold, Source Sans Pro" font-size="13.9200001" font-weight="bold" letter-spacing="0.400000006" fill="#292929" fill-opacity="0.8">
                            <tspan x="870" y="14">SITE CODE</tspan>
                        </text>
                        <rect id="Rectangle" fill="#DADADA" x="849.792261" y="0" width="1" height="57"></rect>
                        <text id="text" font-family="SourceSansPro-Bold, Source Sans Pro" font-size="13.9200001" font-weight="bold" letter-spacing="0.400000006" fill="#292929" fill-opacity="0.8">
                            <tspan x="606.733964" y="14">SEQUENCE NUMBER</tspan>
                        </text>
                        <rect id="Rectangle" fill="#DADADA" x="586.315003" y="0" width="1" height="57"></rect>
                        <text id="text" font-family="SourceSansPro-Bold, Source Sans Pro" font-size="13.9200001" font-weight="bold" letter-spacing="0.400000006" fill="#292929" fill-opacity="0.8">
                            <tspan x="277.336287" y="14">DESCRIPTION</tspan>
                        </text>
                        <rect id="Rectangle" fill="#DADADA" x="255.145961" y="0" width="1" height="57"></rect>
                        <text id="text" font-family="SourceSansPro-Bold, Source Sans Pro" font-size="13.9200001" font-weight="bold" letter-spacing="0.400000006" fill="#292929" fill-opacity="0.8">
                            <tspan x="55" y="14">CODE</tspan>
                        </text>
                        <rect id="Rectangle" fill="#DADADA" x="40.6150713" y="0" width="1" height="57"></rect>
                        <rect id="checkbox-on-hover-copy" stroke-opacity="0.8" stroke="#292929" fill="#FFFFFF" x="16.1625933" y="21.5" width="13.496945" height="13" rx="2"></rect>
                    </g>
                    <g id="Filter" transform="translate(10.000000, 50.000000)">
                        <g id="Background-light">
                            <use fill="black" fill-opacity="1" filter="url(#filter-9)" xlink:href="#path-8"></use>
                            <use fill="#F3F4F7" fill-rule="evenodd" xlink:href="#path-8"></use>
                            <use fill="black" fill-opacity="1" filter="url(#filter-10)" xlink:href="#path-8"></use>
                        </g>
                        <g transform="translate(18.000000, 21.000000)">
                            <g>
                                <text id="Icon" font-family="FontAwesome5ProLight, Font Awesome 5 Pro" font-size="16" font-weight="300" fill="#292C36">
                                    <tspan x="1481.59997" y="14">search</tspan>
                                </text>
                                <text id="Placeholder" font-family="SourceSansPro-Regular, Source Sans Pro" font-size="14" font-weight="normal" fill="#292C36">
                                    <tspan x="0" y="14">Filter</tspan>
                                </text>
                                <mask id="mask-12" fill="white">
                                    <use xlink:href="#path-11"></use>
                                </mask>
                                <use id="Rectangle" fill="#4A4A4A" xlink:href="#path-11"></use>
                            </g>
                        </g>
                    </g>
                    <g id="Top" transform="translate(13.000000, 1.000000)">
                        <g id="card-bg-copy-5">
                            <use fill="black" fill-opacity="1" filter="url(#filter-14)" xlink:href="#path-13"></use>
                            <use fill="#FFFFFF" fill-rule="evenodd" xlink:href="#path-13"></use>
                        </g>
                        <text id="Details" opacity="0.800000012" font-family="SourceSansPro-Bold, Source Sans Pro" font-size="16" font-weight="bold" line-spacing="19" fill="#292929">
                            <tspan x="1464.30616" y="14.856">Details</tspan>
                        </text>
                        <text id="View" opacity="0.800000012" font-family="SourceSansPro-Bold, Source Sans Pro" font-size="16" font-weight="bold" line-spacing="19" fill="#292929">
                            <tspan x="1383.87895" y="14.856">View</tspan>
                        </text>
                        <path d="M1341.39591,19.6250271 L1341.39591,18.7500292 C1341.39591,18.5416962 1341.46883,18.3646136 1341.61466,18.2187805 C1341.76049,18.0729473 1341.93758,18.000031 1342.14591,18.000031 L1345.6459,18.000031 L1345.92715,17.4062824 C1345.98965,17.2812827 1346.0834,17.1823245 1346.2084,17.1094081 C1346.3334,17.0364918 1346.46882,17.0000334 1346.61465,17.0000334 L1350.17714,17.0000334 C1350.32297,17.0000334 1350.45839,17.0364918 1350.58339,17.1094081 C1350.70839,17.1823245 1350.80214,17.2812827 1350.86464,17.4062824 L1351.14589,18.000031 L1354.64588,18.000031 C1354.85421,18.000031 1355.03129,18.0729473 1355.17713,18.2187805 C1355.32296,18.3646136 1355.39588,18.5416962 1355.39588,18.7500292 L1355.39588,19.6250271 C1355.39588,19.7291934 1355.35942,19.8177352 1355.2865,19.8906515 C1355.21359,19.9635678 1355.12504,20.0000262 1355.02088,20.0000262 L1341.77091,20.0000262 C1341.66674,20.0000262 1341.5782,19.9635678 1341.50529,19.8906515 C1341.43237,19.8177352 1341.39591,19.7291934 1341.39591,19.6250271 Z M1354.36463,21.4062729 L1353.73963,31.5937486 C1353.7188,31.9895811 1353.56255,32.3229134 1353.27088,32.5937462 C1352.97922,32.864579 1352.63547,32.9999952 1352.23963,32.9999952 L1344.55215,32.9999952 C1344.15632,32.9999952 1343.81257,32.864579 1343.52091,32.5937462 C1343.22924,32.3229134 1343.07299,31.9895811 1343.05216,31.5937486 L1342.42716,21.4062729 C1342.42716,21.3021066 1342.46362,21.2083568 1342.53653,21.1250235 C1342.60945,21.0416903 1342.69799,21.0000238 1342.80216,21.0000238 L1353.98963,21.0000238 C1354.0938,21.0000238 1354.18234,21.0416903 1354.25526,21.1250235 C1354.32817,21.2083568 1354.36463,21.3021066 1354.36463,21.4062729 Z" id="icon-delete" fill="#292929" fill-rule="nonzero" opacity="0.800000012"></path>
                        <path d="M1311.39581,17.2500328 C1312.41664,17.2500328 1313.38538,17.4375323 1314.30205,17.8125314 C1315.21871,18.1875305 1316.03121,18.7187793 1316.73954,19.4062776 L1317.86454,18.2812803 C1318.01037,18.1354472 1318.18746,18.0625308 1318.39579,18.0625308 C1318.60412,18.0625308 1318.7812,18.1354472 1318.92704,18.2812803 C1319.07287,18.4271135 1319.14579,18.6041961 1319.14579,18.8125291 L1319.14579,23.0000191 C1319.14579,23.2083521 1319.07287,23.3854347 1318.92704,23.5312678 C1318.7812,23.677101 1318.60412,23.7500173 1318.39579,23.7500173 L1314.2083,23.7500173 C1313.99997,23.7500173 1313.82288,23.677101 1313.67705,23.5312678 C1313.53122,23.3854347 1313.4583,23.2083521 1313.4583,23.0000191 C1313.4583,22.7916861 1313.53122,22.6146035 1313.67705,22.4687703 L1314.98955,21.1562735 C1314.51038,20.7187745 1313.96351,20.3750253 1313.34893,20.1250259 C1312.73434,19.8750265 1312.09372,19.7500268 1311.42706,19.7500268 C1310.48956,19.7500268 1309.61456,19.9844013 1308.80206,20.4531501 C1307.98956,20.921899 1307.34373,21.5625225 1306.86457,22.3750206 C1306.3854,23.1875186 1306.14582,24.067725 1306.14582,25.0156393 C1306.14582,25.9635535 1306.38019,26.8385514 1306.84894,27.640633 C1307.31769,28.4427146 1307.95311,29.0781296 1308.75519,29.5468785 C1309.55727,30.0156273 1310.43747,30.2500018 1311.39581,30.2500018 C1312.04164,30.2500018 1312.66143,30.140627 1313.25518,29.9218776 C1313.84892,29.7031281 1314.38538,29.3750039 1314.86455,28.9375049 C1314.92705,28.8750051 1315.01038,28.8489636 1315.11455,28.8593801 C1315.21871,28.8697966 1315.30205,28.906255 1315.36455,28.9687548 L1316.61454,30.2187519 C1316.67704,30.2812517 1316.70829,30.369793 1316.70829,30.4843762 C1316.70829,30.5989594 1316.66663,30.6875007 1316.58329,30.7500006 C1315.89579,31.3749991 1315.10413,31.8645814 1314.2083,32.2187471 C1313.31247,32.5729128 1312.37497,32.7499958 1311.39581,32.7499958 C1309.99998,32.7499958 1308.70831,32.4010382 1307.52081,31.7031233 C1306.33332,31.0052085 1305.39061,30.0625022 1304.6927,28.8750051 C1303.99478,27.6875079 1303.64582,26.3958445 1303.64582,25.0000143 C1303.64582,23.6041841 1303.99478,22.3125207 1304.6927,21.1250235 C1305.39061,19.9375264 1306.33332,18.9948201 1307.52081,18.2969053 C1308.70831,17.5989904 1309.99998,17.2500328 1311.39581,17.2500328 Z" id="icon-refresh" fill="#292929" fill-rule="nonzero" opacity="0.800000012"></path>
                        <path d="M1281.3957,19.2812779 L1281.3957,20.7187745 C1281.3957,21.13544 1281.08321,21.5156476 1280.45821,21.8593968 C1279.83321,22.203146 1278.98425,22.4791868 1277.91134,22.6875198 C1276.83842,22.8958528 1275.66655,23.0000191 1274.39572,23.0000191 C1273.12489,23.0000191 1271.95302,22.8958528 1270.88011,22.6875198 C1269.80719,22.4791868 1268.95823,22.203146 1268.33324,21.8593968 C1267.70824,21.5156476 1267.39574,21.13544 1267.39574,20.7187745 L1267.39574,19.2812779 C1267.39574,18.8646124 1267.70824,18.4844048 1268.33324,18.1406557 C1268.95823,17.7969065 1269.80719,17.5208656 1270.88011,17.3125326 C1271.95302,17.1041996 1273.12489,17.0000334 1274.39572,17.0000334 C1275.66655,17.0000334 1276.83842,17.1041996 1277.91134,17.3125326 C1278.98425,17.5208656 1279.83321,17.7969065 1280.45821,18.1406557 C1281.08321,18.4844048 1281.3957,18.8646124 1281.3957,19.2812779 Z M1281.3957,22.5000203 L1281.3957,25.7187626 C1281.3957,26.1354281 1281.08321,26.5156357 1280.45821,26.8593849 C1279.83321,27.2031341 1278.98425,27.4791749 1277.91134,27.6875079 C1276.83842,27.8958409 1275.66655,28.0000072 1274.39572,28.0000072 C1273.12489,28.0000072 1271.95302,27.8958409 1270.88011,27.6875079 C1269.80719,27.4791749 1268.95823,27.2031341 1268.33324,26.8593849 C1267.70824,26.5156357 1267.39574,26.1354281 1267.39574,25.7187626 L1267.39574,22.5000203 C1268.1249,23.0000191 1269.13532,23.3854347 1270.42698,23.6562675 C1271.63531,23.9062669 1272.95823,24.0312666 1274.39572,24.0312666 C1275.83322,24.0312666 1277.15613,23.9062669 1278.36446,23.6562675 C1279.65613,23.3854347 1280.66654,23.0000191 1281.3957,22.5000203 Z M1281.3957,27.5000083 L1281.3957,30.7187507 C1281.3957,31.1354162 1281.08321,31.5156238 1280.45821,31.859373 C1279.83321,32.2031221 1278.98425,32.479163 1277.91134,32.687496 C1276.83842,32.895829 1275.66655,32.9999952 1274.39572,32.9999952 C1273.12489,32.9999952 1271.95302,32.895829 1270.88011,32.687496 C1269.80719,32.479163 1268.95823,32.2031221 1268.33324,31.859373 C1267.70824,31.5156238 1267.39574,31.1354162 1267.39574,30.7187507 L1267.39574,27.5000083 C1268.1249,28.0000072 1269.13532,28.3854227 1270.42698,28.6562556 C1271.63531,28.906255 1272.95823,29.0312547 1274.39572,29.0312547 C1275.83322,29.0312547 1277.15613,28.906255 1278.36446,28.6562556 C1279.65613,28.3854227 1280.66654,28.0000072 1281.3957,27.5000083 Z" id="icon-querybuilder" fill="#292929" fill-rule="nonzero" opacity="0.800000012"></path>
                        <path d="M1243.39562,23.5000179 C1243.66645,23.5000179 1243.90083,23.5989761 1244.09874,23.7968922 C1244.29666,23.9948082 1244.39562,24.2291827 1244.39562,24.5000155 L1244.39562,25.5000131 C1244.39562,25.770846 1244.29666,26.0052204 1244.09874,26.2031364 C1243.90083,26.4010525 1243.66645,26.5000107 1243.39562,26.5000107 L1238.89563,26.5000107 L1238.89563,31 C1238.89563,31.2708328 1238.79667,31.5052073 1238.59876,31.7031233 C1238.40084,31.9010394 1238.16647,31.9999976 1237.89563,31.9999976 L1236.89564,31.9999976 C1236.6248,31.9999976 1236.39043,31.9010394 1236.19251,31.7031233 C1235.9946,31.5052073 1235.89564,31.2708328 1235.89564,31 L1235.89564,26.5000107 L1231.39565,26.5000107 C1231.12482,26.5000107 1230.89044,26.4010525 1230.69253,26.2031364 C1230.49461,26.0052204 1230.39565,25.770846 1230.39565,25.5000131 L1230.39565,24.5000155 C1230.39565,24.2291827 1230.49461,23.9948082 1230.69253,23.7968922 C1230.89044,23.5989761 1231.12482,23.5000179 1231.39565,23.5000179 L1235.89564,23.5000179 L1235.89564,19.0000286 C1235.89564,18.7291958 1235.9946,18.4948213 1236.19251,18.2969053 C1236.39043,18.0989893 1236.6248,18.000031 1236.89564,18.000031 L1237.89563,18.000031 C1238.16647,18.000031 1238.40084,18.0989893 1238.59876,18.2969053 C1238.79667,18.4948213 1238.89563,18.7291958 1238.89563,19.0000286 L1238.89563,23.5000179 L1243.39562,23.5000179 Z" id="icon-add" fill="#292929" fill-rule="nonzero" opacity="0.800000012"></path>
                        <text id="List-of-Heros" opacity="0.800000012" font-family="SourceSansPro-Bold, Source Sans Pro" font-size="16" font-weight="bold" line-spacing="19" fill="#292929">
                            <tspan x="14" y="16">List of Heros</tspan>
                        </text>
                    </g>
                </g>
            </g>
        </g>
    </g>
</svg>