<?xml version="1.0" encoding="UTF-8"?>
<svg width="282px" height="121px" viewBox="0 0 282 121" version="1.1" xmlns="http://www.w3.org/2000/svg" xmlns:xlink="http://www.w3.org/1999/xlink">
    <title>grid</title>
    <g id="grid" stroke="none" stroke-width="1" fill="none" fill-rule="evenodd">
        <text id="Grid" font-family="SourceSansPro-Bold, Source Sans Pro" font-size="12" font-weight="bold" fill="#272C37">
            <tspan x="7" y="16">Grid </tspan>
        </text>
        <rect id="Rectangle" stroke="#DADADA" stroke-width="0.5" fill="#F2F2F2" x="0.25" y="21.25" width="281.5" height="14.5"></rect>
        <rect id="Rectangle" stroke="#DADADA" x="0.5" y="0.5" width="281" height="120" rx="4"></rect>
        <line x1="-0.5" y1="48.5" x2="282.5" y2="48.5" id="Line-3-Copy" stroke="#DADADA" stroke-linecap="square"></line>
        <line x1="14.5" y1="36.5" x2="14.5" y2="121.5" id="Line-3-Copy-6" stroke="#DADADA" stroke-linecap="square"></line>
        <line x1="62.5" y1="36.5" x2="62.5" y2="121.5" id="Line-3-Copy-7" stroke="#DADADA" stroke-linecap="square"></line>
        <line x1="110.5" y1="36.5" x2="110.5" y2="121.5" id="Line-3-Copy-8" stroke="#DADADA" stroke-linecap="square"></line>
        <line x1="142.5" y1="36.5" x2="142.5" y2="121.5" id="Line-3-Copy-9" stroke="#DADADA" stroke-linecap="square"></line>
        <line x1="214.5" y1="36.5" x2="214.5" y2="121.5" id="Line-3-Copy-10" stroke="#DADADA" stroke-linecap="square"></line>
        <line x1="254.5" y1="36.5" x2="254.5" y2="121.5" id="Line-3-Copy-11" stroke="#DADADA" stroke-linecap="square"></line>
        <line x1="-0.5" y1="63" x2="282.5" y2="63" id="Line-3-Copy-2" stroke="#DADADA" stroke-linecap="square"></line>
        <line x1="-0.5" y1="77.5" x2="282.5" y2="77.5" id="Line-3-Copy-3" stroke="#DADADA" stroke-linecap="square"></line>
        <line x1="-0.5" y1="92" x2="282.5" y2="92" id="Line-3-Copy-4" stroke="#DADADA" stroke-linecap="square"></line>
        <line x1="-0.5" y1="107" x2="282.5" y2="107" id="Line-3-Copy-5" stroke="#DADADA" stroke-linecap="square"></line>
        <rect id="Rectangle" fill="#272C37" x="18" y="40" width="41" height="4"></rect>
        <rect id="Rectangle-Copy-11" fill="#C9C9C9" x="6" y="26" width="41" height="4"></rect>
        <rect id="Rectangle-Copy" fill="#272C37" x="66" y="40" width="41" height="4"></rect>
        <rect id="Rectangle-Copy-2" fill="#272C37" x="114" y="40" width="26" height="4"></rect>
        <rect id="Rectangle-Copy-3" fill="#272C37" x="145" y="40" width="67" height="4"></rect>
        <rect id="Rectangle-Copy-4" fill="#272C37" x="217" y="40" width="34" height="4"></rect>
        <rect id="Rectangle-Copy-5" fill="#272C37" x="257" y="40" width="21" height="4"></rect>
        <rect id="Rectangle" stroke="#979797" x="4.5" y="39.5" width="5" height="5"></rect>
        <rect id="Rectangle-Copy-6" stroke="#979797" x="4.5" y="53.5" width="5" height="5"></rect>
        <rect id="Rectangle-Copy-7" stroke="#979797" x="4.5" y="68.5" width="5" height="5"></rect>
        <rect id="Rectangle-Copy-8" stroke="#979797" x="4.5" y="82.5" width="5" height="5"></rect>
        <rect id="Rectangle-Copy-9" stroke="#979797" x="4.5" y="97.5" width="5" height="5"></rect>
        <rect id="Rectangle-Copy-10" stroke="#979797" x="4.5" y="111.5" width="5" height="5"></rect>
    </g>
</svg>