<svg xmlns="http://www.w3.org/2000/svg" width="282" height="48" viewBox="0 0 282 48">
  <g fill="none" fill-rule="evenodd">
    <rect width="336" height="48" fill="#F4F4F4"/>
    <path fill="#292C36" fill-rule="nonzero" d="M48.7658918,30.192 C50.2218918,30.192 51.4858918,29.632 52.2058918,28.928 L52.2058918,24.128 L48.3978918,24.128 L48.3978918,26.048 L50.1258918,26.048 L50.1258918,27.84 C49.8698918,28.048 49.4378918,28.16 49.0058918,28.16 C47.0538918,28.16 46.0778918,26.912 46.0778918,24.768 C46.0778918,22.672 47.2138918,21.408 48.8298918,21.408 C49.7258918,21.408 50.2698918,21.776 50.7978918,22.24 L52.0298918,20.736 C51.3418918,20.032 50.2538918,19.376 48.7498918,19.376 C45.9658918,19.376 43.6618918,21.392 43.6618918,24.848 C43.6618918,28.352 45.9018918,30.192 48.7658918,30.192 Z M56.5258918,30 L56.5258918,25.392 C56.9418918,24.32 57.6778918,23.936 58.2698918,23.936 C58.6058918,23.936 58.8458918,23.984 59.1338918,24.064 L59.5178918,22.032 C59.2938918,21.936 59.0218918,21.872 58.5738918,21.872 C57.7578918,21.872 56.8938918,22.384 56.3178918,23.456 L56.2538918,23.456 L56.0938918,22.064 L54.1738918,22.064 L54.1738918,30 L56.5258918,30 Z M63.9498918,30.192 C65.9498918,30.192 67.8058918,28.672 67.8058918,26.032 C67.8058918,23.392 65.9498918,21.872 63.9498918,21.872 C61.9338918,21.872 60.0778918,23.392 60.0778918,26.032 C60.0778918,28.672 61.9338918,30.192 63.9498918,30.192 Z M63.9498918,28.288 C62.9738918,28.288 62.4938918,27.408 62.4938918,26.032 C62.4938918,24.656 62.9738918,23.776 63.9498918,23.776 C64.9098918,23.776 65.4058918,24.656 65.4058918,26.032 C65.4058918,27.408 64.9098918,28.288 63.9498918,28.288 Z M71.8058918,30.192 C72.8938918,30.192 73.6298918,29.696 74.3018918,28.896 L74.3498918,28.896 L74.5258918,30 L76.4458918,30 L76.4458918,22.064 L74.0938918,22.064 L74.0938918,27.312 C73.6298918,27.936 73.2778918,28.192 72.6858918,28.192 C71.9978918,28.192 71.6938918,27.824 71.6938918,26.688 L71.6938918,22.064 L69.3418918,22.064 L69.3418918,26.992 C69.3418918,28.976 70.0778918,30.192 71.8058918,30.192 Z M80.8618918,32.944 L80.8618918,30.624 L80.7818918,29.36 C81.3418918,29.888 81.9818918,30.192 82.6698918,30.192 C84.3818918,30.192 86.0138918,28.624 86.0138918,25.904 C86.0138918,23.456 84.8298918,21.872 82.9098918,21.872 C82.0778918,21.872 81.2778918,22.288 80.6538918,22.848 L80.5898918,22.848 L80.4298918,22.064 L78.5098918,22.064 L78.5098918,32.944 L80.8618918,32.944 Z M82.1258918,28.272 C81.7258918,28.272 81.2778918,28.144 80.8618918,27.76 L80.8618918,24.512 C81.3258918,24.016 81.7418918,23.792 82.2218918,23.792 C83.1658918,23.792 83.5978918,24.512 83.5978918,25.936 C83.5978918,27.568 82.9418918,28.272 82.1258918,28.272 Z"/>
    <path fill="#272C37" fill-rule="nonzero" d="M24.5303165,28.921117 L30.6035137,22.8478893 C30.8963902,22.5550128 30.8963902,22.0801604 30.6035137,21.7872534 L29.8951719,21.0789116 C29.6027532,20.7864929 29.1288468,20.7859435 28.8357567,21.0776604 L23.9999833,25.8907898 L19.1641794,21.0776604 C18.8710893,20.7859435 18.3971829,20.7864929 18.1047642,21.0789116 L17.3964224,21.7872534 C17.1035459,22.0801299 17.1035459,22.5549823 17.3964224,22.8478893 L23.4696501,28.921117 C23.7625571,29.2139935 24.2374095,29.2139935 24.5303165,28.921117 Z"/>
    <rect width="5" height="48" fill="#0076C2"/>
  </g>
</svg>
