<?xml version="1.0" encoding="UTF-8"?>
<svg width="282px" height="47px" viewBox="0 0 282 47" version="1.1" xmlns="http://www.w3.org/2000/svg" xmlns:xlink="http://www.w3.org/1999/xlink">
    <title>h1</title>
    <g id="h1" stroke="none" stroke-width="1" fill="none" fill-rule="evenodd">
        <path d="M17.032,29 L17.032,24.104 L21.082,24.104 L21.082,29 L23.746,29 L23.746,17.264 L21.082,17.264 L21.082,21.782 L17.032,21.782 L17.032,17.264 L14.386,17.264 L14.386,29 L17.032,29 Z M30.298,29.216 C31.36,29.216 32.548,28.838 33.466,28.208 L32.584,26.606 C31.936,27.002 31.324,27.2 30.658,27.2 C29.47,27.2 28.57,26.606 28.336,25.31 L33.682,25.31 C33.736,25.094 33.79,24.608 33.79,24.14 C33.79,21.71 32.53,19.856 29.992,19.856 C27.85,19.856 25.78,21.638 25.78,24.536 C25.78,27.488 27.742,29.216 30.298,29.216 Z M31.54,23.564 L28.318,23.564 C28.498,22.43 29.218,21.872 30.046,21.872 C31.108,21.872 31.54,22.574 31.54,23.564 Z M37.876,29.216 C38.884,29.216 39.712,28.748 40.468,28.082 L40.54,28.082 L40.72,29 L42.88,29 L42.88,23.888 C42.88,21.152 41.62,19.856 39.334,19.856 C37.93,19.856 36.652,20.342 35.518,21.026 L36.472,22.772 C37.336,22.268 38.074,21.962 38.83,21.962 C39.802,21.962 40.18,22.466 40.234,23.258 C36.706,23.618 35.212,24.644 35.212,26.516 C35.212,28.028 36.238,29.216 37.876,29.216 Z M38.776,27.164 C38.146,27.164 37.75,26.894 37.75,26.318 C37.75,25.634 38.362,25.094 40.234,24.842 L40.234,26.408 C39.766,26.876 39.37,27.164 38.776,27.164 Z M48.298,29.216 C49.162,29.216 50.044,28.748 50.674,28.118 L50.746,28.118 L50.926,29 L53.086,29 L53.086,16.382 L50.44,16.382 L50.44,19.424 L50.548,20.792 C49.936,20.216 49.342,19.856 48.352,19.856 C46.462,19.856 44.644,21.62 44.644,24.536 C44.644,27.452 46.084,29.216 48.298,29.216 Z M48.982,27.056 C47.956,27.056 47.362,26.264 47.362,24.5 C47.362,22.808 48.118,22.016 48.964,22.016 C49.45,22.016 49.972,22.16 50.44,22.592 L50.44,26.246 C50.008,26.84 49.558,27.056 48.982,27.056 Z M56.74,18.758 C57.64,18.758 58.27,18.182 58.27,17.372 C58.27,16.562 57.64,16.004 56.74,16.004 C55.858,16.004 55.21,16.562 55.21,17.372 C55.21,18.182 55.858,18.758 56.74,18.758 Z M58.072,29 L58.072,20.072 L55.426,20.072 L55.426,29 L58.072,29 Z M63.04,29 L63.04,22.97 C63.616,22.412 64.03,22.106 64.696,22.106 C65.452,22.106 65.794,22.502 65.794,23.798 L65.794,29 L68.44,29 L68.44,23.456 C68.44,21.224 67.612,19.856 65.668,19.856 C64.462,19.856 63.562,20.486 62.806,21.206 L62.734,21.206 L62.554,20.072 L60.394,20.072 L60.394,29 L63.04,29 Z M73.876,32.798 C76.936,32.798 78.862,31.448 78.862,29.594 C78.862,27.992 77.656,27.326 75.46,27.326 L74.02,27.326 C73.03,27.326 72.67,27.11 72.67,26.66 C72.67,26.354 72.76,26.192 72.994,25.994 C73.39,26.12 73.75,26.174 74.074,26.174 C76.036,26.174 77.584,25.22 77.584,23.168 C77.584,22.7 77.458,22.268 77.296,21.998 L78.718,21.998 L78.718,20.072 L75.46,20.072 C75.064,19.928 74.578,19.856 74.074,19.856 C72.148,19.856 70.384,20.936 70.384,23.078 C70.384,24.122 70.96,24.968 71.59,25.4 L71.59,25.472 C71.014,25.868 70.582,26.498 70.582,27.146 C70.582,27.884 70.942,28.352 71.41,28.658 L71.41,28.73 C70.582,29.198 70.132,29.792 70.132,30.53 C70.132,32.114 71.788,32.798 73.876,32.798 Z M74.074,24.572 C73.372,24.572 72.85,24.068 72.85,23.078 C72.85,22.124 73.372,21.638 74.074,21.638 C74.776,21.638 75.298,22.142 75.298,23.078 C75.298,24.068 74.776,24.572 74.074,24.572 Z M74.29,31.142 C73.102,31.142 72.31,30.782 72.31,30.116 C72.31,29.792 72.472,29.522 72.796,29.234 C73.084,29.306 73.444,29.342 74.056,29.342 L74.974,29.342 C75.856,29.342 76.342,29.486 76.342,30.044 C76.342,30.656 75.478,31.142 74.29,31.142 Z M91.264,29 L91.264,26.858 L89.122,26.858 L89.122,17.57 L87.178,17.57 C86.368,18.056 85.576,18.38 84.334,18.614 L84.334,20.252 L86.476,20.252 L86.476,26.858 L83.992,26.858 L83.992,29 L91.264,29 Z" id="Heading1" fill="#272C37" fill-rule="nonzero"></path>
    </g>
</svg>