<?xml version="1.0" encoding="UTF-8"?>
<svg width="282px" height="47px" viewBox="0 0 282 47" version="1.1" xmlns="http://www.w3.org/2000/svg" xmlns:xlink="http://www.w3.org/1999/xlink">
    <title>h2</title>
    <g id="h2" stroke="none" stroke-width="1" fill="none" fill-rule="evenodd">
        <path d="M15.768,29 L15.768,24.056 L20.648,24.056 L20.648,29 L21.992,29 L21.992,18.504 L20.648,18.504 L20.648,22.904 L15.768,22.904 L15.768,18.504 L14.44,18.504 L14.44,29 L15.768,29 Z M27.896,29.192 C28.952,29.192 29.784,28.824 30.456,28.392 L29.992,27.528 C29.416,27.896 28.792,28.136 28.056,28.136 C26.568,28.136 25.56,27.08 25.464,25.432 L30.712,25.432 C30.744,25.24 30.76,24.952 30.76,24.68 C30.76,22.456 29.64,21.032 27.656,21.032 C25.88,21.032 24.168,22.584 24.168,25.128 C24.168,27.672 25.816,29.192 27.896,29.192 Z M29.608,24.488 L25.448,24.488 C25.608,22.952 26.6,22.072 27.688,22.072 C28.904,22.072 29.608,22.92 29.608,24.488 Z M34.472,29.192 C35.448,29.192 36.312,28.68 37.048,28.072 L37.096,28.072 L37.208,29 L38.296,29 L38.296,24.232 C38.296,22.296 37.496,21.032 35.592,21.032 C34.344,21.032 33.256,21.576 32.536,22.04 L33.048,22.952 C33.656,22.536 34.472,22.12 35.368,22.12 C36.648,22.12 36.968,23.08 36.968,24.072 C33.656,24.44 32.2,25.288 32.2,26.984 C32.2,28.376 33.176,29.192 34.472,29.192 Z M34.856,28.136 C34.088,28.136 33.48,27.768 33.48,26.888 C33.48,25.896 34.376,25.256 36.968,24.936 L36.968,27.096 C36.216,27.768 35.608,28.136 34.856,28.136 Z M43.4,29.192 C44.312,29.192 45.144,28.68 45.752,28.088 L45.8,28.088 L45.912,29 L47,29 L47,17.608 L45.672,17.608 L45.672,20.6 L45.736,21.928 C45.048,21.368 44.456,21.032 43.56,21.032 C41.784,21.032 40.184,22.6 40.184,25.128 C40.184,27.72 41.448,29.192 43.4,29.192 Z M43.688,28.088 C42.328,28.088 41.544,26.968 41.544,25.112 C41.544,23.336 42.536,22.136 43.784,22.136 C44.424,22.136 45.016,22.36 45.672,22.952 L45.672,27.016 C45.032,27.736 44.408,28.088 43.688,28.088 Z M50.296,19.624 C50.808,19.624 51.208,19.272 51.208,18.776 C51.208,18.264 50.808,17.928 50.296,17.928 C49.784,17.928 49.384,18.264 49.384,18.776 C49.384,19.272 49.784,19.624 50.296,19.624 Z M50.936,29 L50.936,21.224 L49.624,21.224 L49.624,29 L50.936,29 Z M54.872,29 L54.872,23.368 C55.656,22.584 56.2,22.168 57,22.168 C58.024,22.168 58.472,22.792 58.472,24.248 L58.472,29 L59.784,29 L59.784,24.072 C59.784,22.088 59.048,21.032 57.416,21.032 C56.344,21.032 55.544,21.608 54.808,22.344 L54.76,22.344 L54.648,21.224 L53.56,21.224 L53.56,29 L54.872,29 Z M64.936,32.584 C67.352,32.584 68.872,31.336 68.872,29.896 C68.872,28.6 67.96,28.04 66.152,28.04 L64.648,28.04 C63.592,28.04 63.272,27.688 63.272,27.192 C63.272,26.76 63.496,26.504 63.768,26.264 C64.12,26.44 64.552,26.536 64.936,26.536 C66.52,26.536 67.784,25.496 67.784,23.832 C67.784,23.176 67.512,22.584 67.144,22.232 L68.744,22.232 L68.744,21.224 L66.04,21.224 C65.752,21.112 65.368,21.032 64.936,21.032 C63.352,21.032 62.008,22.104 62.008,23.8 C62.008,24.728 62.504,25.48 63.016,25.896 L63.016,25.96 C62.616,26.232 62.168,26.744 62.168,27.4 C62.168,28.008 62.472,28.424 62.856,28.664 L62.856,28.728 C62.152,29.208 61.72,29.832 61.72,30.488 C61.72,31.832 63.032,32.584 64.936,32.584 Z M64.936,25.656 C64.04,25.656 63.288,24.936 63.288,23.8 C63.288,22.664 64.024,21.992 64.936,21.992 C65.848,21.992 66.584,22.664 66.584,23.8 C66.584,24.936 65.832,25.656 64.936,25.656 Z M65.128,31.672 C63.72,31.672 62.872,31.144 62.872,30.312 C62.872,29.864 63.112,29.4 63.672,29 C64.008,29.096 64.376,29.128 64.68,29.128 L66.024,29.128 C67.032,29.128 67.592,29.368 67.592,30.088 C67.592,30.904 66.616,31.672 65.128,31.672 Z M79.496,29 L79.496,27.864 L76.536,27.864 C76.008,27.864 75.384,27.912 74.824,27.96 C77.24,25.432 78.984,23.528 78.984,21.608 C78.984,19.8 77.816,18.6 75.928,18.6 C74.6,18.6 73.688,19.224 72.84,20.152 L73.592,20.904 C74.184,20.216 74.92,19.672 75.768,19.672 C77.064,19.672 77.704,20.504 77.704,21.672 C77.704,23.32 75.976,25.16 72.904,28.216 L72.904,29 L79.496,29 Z" id="Heading2" fill="#272C37" fill-rule="nonzero"></path>
    </g>
</svg>