<?xml version="1.0" encoding="UTF-8"?>
<svg width="282px" height="47px" viewBox="0 0 282 47" version="1.1" xmlns="http://www.w3.org/2000/svg" xmlns:xlink="http://www.w3.org/1999/xlink">
    <title>h3</title>
    <g id="h3" stroke="none" stroke-width="1" fill="none" fill-rule="evenodd">
        <path d="M16.136,29 L16.136,25.192 L19.286,25.192 L19.286,29 L21.358,29 L21.358,19.872 L19.286,19.872 L19.286,23.386 L16.136,23.386 L16.136,19.872 L14.078,19.872 L14.078,29 L16.136,29 Z M26.454,29.168 C27.28,29.168 28.204,28.874 28.918,28.384 L28.232,27.138 C27.728,27.446 27.252,27.6 26.734,27.6 C25.81,27.6 25.11,27.138 24.928,26.13 L29.086,26.13 C29.128,25.962 29.17,25.584 29.17,25.22 C29.17,23.33 28.19,21.888 26.216,21.888 C24.55,21.888 22.94,23.274 22.94,25.528 C22.94,27.824 24.466,29.168 26.454,29.168 Z M27.42,24.772 L24.914,24.772 C25.054,23.89 25.614,23.456 26.258,23.456 C27.084,23.456 27.42,24.002 27.42,24.772 Z M32.348,29.168 C33.132,29.168 33.776,28.804 34.364,28.286 L34.42,28.286 L34.56,29 L36.24,29 L36.24,25.024 C36.24,22.896 35.26,21.888 33.482,21.888 C32.39,21.888 31.396,22.266 30.514,22.798 L31.256,24.156 C31.928,23.764 32.502,23.526 33.09,23.526 C33.846,23.526 34.14,23.918 34.182,24.534 C31.438,24.814 30.276,25.612 30.276,27.068 C30.276,28.244 31.074,29.168 32.348,29.168 Z M33.048,27.572 C32.558,27.572 32.25,27.362 32.25,26.914 C32.25,26.382 32.726,25.962 34.182,25.766 L34.182,26.984 C33.818,27.348 33.51,27.572 33.048,27.572 Z M40.454,29.168 C41.126,29.168 41.812,28.804 42.302,28.314 L42.358,28.314 L42.498,29 L44.178,29 L44.178,19.186 L42.12,19.186 L42.12,21.552 L42.204,22.616 C41.728,22.168 41.266,21.888 40.496,21.888 C39.026,21.888 37.612,23.26 37.612,25.528 C37.612,27.796 38.732,29.168 40.454,29.168 Z M40.986,27.488 C40.188,27.488 39.726,26.872 39.726,25.5 C39.726,24.184 40.314,23.568 40.972,23.568 C41.35,23.568 41.756,23.68 42.12,24.016 L42.12,26.858 C41.784,27.32 41.434,27.488 40.986,27.488 Z M47.02,21.034 C47.72,21.034 48.21,20.586 48.21,19.956 C48.21,19.326 47.72,18.892 47.02,18.892 C46.334,18.892 45.83,19.326 45.83,19.956 C45.83,20.586 46.334,21.034 47.02,21.034 Z M48.056,29 L48.056,22.056 L45.998,22.056 L45.998,29 L48.056,29 Z M51.92,29 L51.92,24.31 C52.368,23.876 52.69,23.638 53.208,23.638 C53.796,23.638 54.062,23.946 54.062,24.954 L54.062,29 L56.12,29 L56.12,24.688 C56.12,22.952 55.476,21.888 53.964,21.888 C53.026,21.888 52.326,22.378 51.738,22.938 L51.682,22.938 L51.542,22.056 L49.862,22.056 L49.862,29 L51.92,29 Z M60.348,31.954 C62.728,31.954 64.226,30.904 64.226,29.462 C64.226,28.216 63.288,27.698 61.58,27.698 L60.46,27.698 C59.69,27.698 59.41,27.53 59.41,27.18 C59.41,26.942 59.48,26.816 59.662,26.662 C59.97,26.76 60.25,26.802 60.502,26.802 C62.028,26.802 63.232,26.06 63.232,24.464 C63.232,24.1 63.134,23.764 63.008,23.554 L64.114,23.554 L64.114,22.056 L61.58,22.056 C61.272,21.944 60.894,21.888 60.502,21.888 C59.004,21.888 57.632,22.728 57.632,24.394 C57.632,25.206 58.08,25.864 58.57,26.2 L58.57,26.256 C58.122,26.564 57.786,27.054 57.786,27.558 C57.786,28.132 58.066,28.496 58.43,28.734 L58.43,28.79 C57.786,29.154 57.436,29.616 57.436,30.19 C57.436,31.422 58.724,31.954 60.348,31.954 Z M60.502,25.556 C59.956,25.556 59.55,25.164 59.55,24.394 C59.55,23.652 59.956,23.274 60.502,23.274 C61.048,23.274 61.454,23.666 61.454,24.394 C61.454,25.164 61.048,25.556 60.502,25.556 Z M60.67,30.666 C59.746,30.666 59.13,30.386 59.13,29.868 C59.13,29.616 59.256,29.406 59.508,29.182 C59.732,29.238 60.012,29.266 60.488,29.266 L61.202,29.266 C61.888,29.266 62.266,29.378 62.266,29.812 C62.266,30.288 61.594,30.666 60.67,30.666 Z M70.638,29.168 C72.43,29.168 73.942,28.23 73.942,26.578 C73.942,25.43 73.2,24.702 72.178,24.408 L72.178,24.352 C73.13,23.946 73.662,23.302 73.662,22.378 C73.662,20.824 72.43,19.942 70.596,19.942 C69.504,19.942 68.608,20.376 67.796,21.076 L68.832,22.336 C69.392,21.846 69.868,21.552 70.498,21.552 C71.198,21.552 71.59,21.916 71.59,22.532 C71.59,23.246 71.086,23.722 69.49,23.722 L69.49,25.178 C71.422,25.178 71.884,25.668 71.884,26.452 C71.884,27.124 71.31,27.502 70.442,27.502 C69.686,27.502 69.028,27.124 68.496,26.606 L67.544,27.908 C68.188,28.664 69.196,29.168 70.638,29.168 Z" id="Heading3" fill="#272C37" fill-rule="nonzero"></path>
    </g>
</svg>