<?xml version="1.0" encoding="UTF-8"?>
<svg width="282px" height="47px" viewBox="0 0 282 47" version="1.1" xmlns="http://www.w3.org/2000/svg" xmlns:xlink="http://www.w3.org/1999/xlink">
    <title>h4</title>
    <g id="h4" stroke="none" stroke-width="1" fill="none" fill-rule="evenodd">
        <path d="M15.422,29 L15.422,24.674 L19.692,24.674 L19.692,29 L20.868,29 L20.868,19.816 L19.692,19.816 L19.692,23.666 L15.422,23.666 L15.422,19.816 L14.26,19.816 L14.26,29 L15.422,29 Z M26.034,29.168 C26.958,29.168 27.686,28.846 28.274,28.468 L27.868,27.712 C27.364,28.034 26.818,28.244 26.174,28.244 C24.872,28.244 23.99,27.32 23.906,25.878 L28.498,25.878 C28.526,25.71 28.54,25.458 28.54,25.22 C28.54,23.274 27.56,22.028 25.824,22.028 C24.27,22.028 22.772,23.386 22.772,25.612 C22.772,27.838 24.214,29.168 26.034,29.168 Z M27.532,25.052 L23.892,25.052 C24.032,23.708 24.9,22.938 25.852,22.938 C26.916,22.938 27.532,23.68 27.532,25.052 Z M31.788,29.168 C32.642,29.168 33.398,28.72 34.042,28.188 L34.084,28.188 L34.182,29 L35.134,29 L35.134,24.828 C35.134,23.134 34.434,22.028 32.768,22.028 C31.676,22.028 30.724,22.504 30.094,22.91 L30.542,23.708 C31.074,23.344 31.788,22.98 32.572,22.98 C33.692,22.98 33.972,23.82 33.972,24.688 C31.074,25.01 29.8,25.752 29.8,27.236 C29.8,28.454 30.654,29.168 31.788,29.168 Z M32.124,28.244 C31.452,28.244 30.92,27.922 30.92,27.152 C30.92,26.284 31.704,25.724 33.972,25.444 L33.972,27.334 C33.314,27.922 32.782,28.244 32.124,28.244 Z M39.6,29.168 C40.398,29.168 41.126,28.72 41.658,28.202 L41.7,28.202 L41.798,29 L42.75,29 L42.75,19.032 L41.588,19.032 L41.588,21.65 L41.644,22.812 C41.042,22.322 40.524,22.028 39.74,22.028 C38.186,22.028 36.786,23.4 36.786,25.612 C36.786,27.88 37.892,29.168 39.6,29.168 Z M39.852,28.202 C38.662,28.202 37.976,27.222 37.976,25.598 C37.976,24.044 38.844,22.994 39.936,22.994 C40.496,22.994 41.014,23.19 41.588,23.708 L41.588,27.264 C41.028,27.894 40.482,28.202 39.852,28.202 Z M45.634,20.796 C46.082,20.796 46.432,20.488 46.432,20.054 C46.432,19.606 46.082,19.312 45.634,19.312 C45.186,19.312 44.836,19.606 44.836,20.054 C44.836,20.488 45.186,20.796 45.634,20.796 Z M46.194,29 L46.194,22.196 L45.046,22.196 L45.046,29 L46.194,29 Z M49.638,29 L49.638,24.072 C50.324,23.386 50.8,23.022 51.5,23.022 C52.396,23.022 52.788,23.568 52.788,24.842 L52.788,29 L53.936,29 L53.936,24.688 C53.936,22.952 53.292,22.028 51.864,22.028 C50.926,22.028 50.226,22.532 49.582,23.176 L49.54,23.176 L49.442,22.196 L48.49,22.196 L48.49,29 L49.638,29 Z M58.444,32.136 C60.558,32.136 61.888,31.044 61.888,29.784 C61.888,28.65 61.09,28.16 59.508,28.16 L58.192,28.16 C57.268,28.16 56.988,27.852 56.988,27.418 C56.988,27.04 57.184,26.816 57.422,26.606 C57.73,26.76 58.108,26.844 58.444,26.844 C59.83,26.844 60.936,25.934 60.936,24.478 C60.936,23.904 60.698,23.386 60.376,23.078 L61.776,23.078 L61.776,22.196 L59.41,22.196 C59.158,22.098 58.822,22.028 58.444,22.028 C57.058,22.028 55.882,22.966 55.882,24.45 C55.882,25.262 56.316,25.92 56.764,26.284 L56.764,26.34 C56.414,26.578 56.022,27.026 56.022,27.6 C56.022,28.132 56.288,28.496 56.624,28.706 L56.624,28.762 C56.008,29.182 55.63,29.728 55.63,30.302 C55.63,31.478 56.778,32.136 58.444,32.136 Z M58.444,26.074 C57.66,26.074 57.002,25.444 57.002,24.45 C57.002,23.456 57.646,22.868 58.444,22.868 C59.242,22.868 59.886,23.456 59.886,24.45 C59.886,25.444 59.228,26.074 58.444,26.074 Z M58.612,31.338 C57.38,31.338 56.638,30.876 56.638,30.148 C56.638,29.756 56.848,29.35 57.338,29 C57.632,29.084 57.954,29.112 58.22,29.112 L59.396,29.112 C60.278,29.112 60.768,29.322 60.768,29.952 C60.768,30.666 59.914,31.338 58.612,31.338 Z M70.204,29 L70.204,26.536 L71.422,26.536 L71.422,25.612 L70.204,25.612 L70.204,20.068 L68.916,20.068 L65.094,25.78 L65.094,26.536 L69.112,26.536 L69.112,29 L70.204,29 Z M69.112,25.612 L66.312,25.612 L68.398,22.56 C68.65,22.126 68.902,21.734 69.126,21.3 L69.182,21.3 C69.154,21.776 69.112,22.546 69.112,23.022 L69.112,25.612 Z" id="Heading4" fill="#272C37" fill-rule="nonzero"></path>
    </g>
</svg>