<?xml version="1.0" encoding="UTF-8"?>
<svg width="282px" height="121px" viewBox="0 0 282 121" version="1.1" xmlns="http://www.w3.org/2000/svg" xmlns:xlink="http://www.w3.org/1999/xlink">
    <title>image</title>
    <g id="image" stroke="none" stroke-width="1" fill="none" fill-rule="evenodd">
        <rect id="Rectangle" fill="#E3E3E3" x="0" y="-11" width="282" height="160"></rect>
        <path d="M160.499896,79 C162.985181,79 164.999886,76.9852953 164.999886,74.5000107 L164.999886,47.5000751 C164.999886,45.0147905 162.985181,43.0000858 160.499896,43.0000858 L121.499989,43.0000858 C119.014705,43.0000858 117,45.0147905 117,47.5000751 L117,74.5000107 C117,76.9852953 119.014705,79 121.499989,79 L160.499896,79 Z M160.499896,76.0000072 L121.499993,76.0000072 C120.672904,76.0000072 119.999993,75.3270962 119.999993,74.5000107 L119.999993,47.5000787 C119.999993,46.6729897 120.672904,46.0000787 121.499993,46.0000787 L160.499896,46.0000787 C161.326982,46.0000787 161.999893,46.6729897 161.999893,47.5000787 L161.999893,74.5000107 C161.999893,75.3270962 161.326982,76.0000072 160.499896,76.0000072 Z M127.499975,58.7500483 C130.399443,58.7500483 132.749962,56.399529 132.749962,53.5000608 C132.749962,50.6005926 130.399443,48.2500733 127.499975,48.2500733 C124.600507,48.2500733 122.249987,50.6005926 122.249987,53.5000608 C122.249987,56.399529 124.600507,58.7500483 127.499975,58.7500483 Z M127.499975,55.7500554 C126.259255,55.7500554 125.24998,54.7407805 125.24998,53.5000608 C125.24998,52.2593411 126.259255,51.2500662 127.499975,51.2500662 C128.740695,51.2500662 129.74997,52.2593411 129.74997,53.5000608 C129.74997,54.7407805 128.740695,55.7500554 127.499975,55.7500554 Z M157.874903,73.0000143 C158.496178,73.0000143 158.9999,72.4962924 158.9999,71.875017 L158.9999,63.2500376 C158.9999,62.6532983 158.762779,62.0810035 158.340905,61.6590379 L150.090925,53.4090576 C149.212203,52.5304281 147.787646,52.5304281 146.908925,53.4090576 L137.99995,62.3180329 L135.09096,59.4091348 C134.212239,58.5304138 132.787682,58.5304138 131.909053,59.4091348 L123.659072,67.6591152 C123.295243,68.0228533 122.999986,68.7355897 122.999986,69.2500232 L122.999986,71.875017 C122.999986,72.4962924 123.503708,73.0000143 124.124983,73.0000143 L157.874903,73.0000143 Z M155.999907,70.0000215 L125.999979,70.0000215 L125.999979,69.5607525 L133.499961,62.0607704 L137.99995,66.5607596 L148.499925,56.0607847 L155.999907,63.5607668 L155.999907,70.0000215 Z" id="i" fill="#FFFFFF" fill-rule="nonzero"></path>
    </g>
</svg>