<svg xmlns="http://www.w3.org/2000/svg" width="282" height="47" viewBox="0 0 282 47">
  <g fill="none" fill-rule="evenodd">
    <rect width="279" height="32" stroke="#C8C8C8" rx="2" transform="translate(1 14)"/>
    <path fill="#51555E" fill-rule="nonzero" d="M3.422,11 L3.422,6.884 L6.922,6.884 L6.922,5.904 L3.422,5.904 L3.422,2.796 L7.552,2.796 L7.552,1.816 L2.26,1.816 L2.26,11 L3.422,11 Z M9.652,2.796 C10.1,2.796 10.45,2.488 10.45,2.054 C10.45,1.606 10.1,1.312 9.652,1.312 C9.204,1.312 8.854,1.606 8.854,2.054 C8.854,2.488 9.204,2.796 9.652,2.796 Z M10.212,11 L10.212,4.196 L9.064,4.196 L9.064,11 L10.212,11 Z M15.266,11.168 C16.19,11.168 16.918,10.846 17.506,10.468 L17.1,9.712 C16.596,10.034 16.05,10.244 15.406,10.244 C14.104,10.244 13.222,9.32 13.138,7.878 L17.73,7.878 C17.758,7.71 17.772,7.458 17.772,7.22 C17.772,5.274 16.792,4.028 15.056,4.028 C13.502,4.028 12.004,5.386 12.004,7.612 C12.004,9.838 13.446,11.168 15.266,11.168 Z M16.764,7.052 L13.124,7.052 C13.264,5.708 14.132,4.938 15.084,4.938 C16.148,4.938 16.764,5.68 16.764,7.052 Z M20.67,11.168 C20.978,11.168 21.174,11.126 21.328,11.056 L21.174,10.188 C21.048,10.216 20.992,10.216 20.922,10.216 C20.754,10.216 20.6,10.076 20.6,9.712 L20.6,1.032 L19.452,1.032 L19.452,9.628 C19.452,10.622 19.802,11.168 20.67,11.168 Z M25.346,11.168 C26.144,11.168 26.872,10.72 27.404,10.202 L27.446,10.202 L27.544,11 L28.496,11 L28.496,1.032 L27.334,1.032 L27.334,3.65 L27.39,4.812 C26.788,4.322 26.27,4.028 25.486,4.028 C23.932,4.028 22.532,5.4 22.532,7.612 C22.532,9.88 23.638,11.168 25.346,11.168 Z M25.598,10.202 C24.408,10.202 23.722,9.222 23.722,7.598 C23.722,6.044 24.59,4.994 25.682,4.994 C26.242,4.994 26.76,5.19 27.334,5.708 L27.334,9.264 C26.774,9.894 26.228,10.202 25.598,10.202 Z"/>
  </g>
</svg>
