<?xml version="1.0" encoding="UTF-8"?>
<svg width="282px" height="122px" viewBox="0 0 282 122" version="1.1" xmlns="http://www.w3.org/2000/svg" xmlns:xlink="http://www.w3.org/1999/xlink">
    <title>lineChart</title>
    <g id="lineChart" stroke="none" stroke-width="1" fill="none" fill-rule="evenodd">
        <path d="M14.748,20 L14.748,18.264 L11.136,18.264 L11.136,10.872 L9.078,10.872 L9.078,20 L14.748,20 Z M17.184,12.034 C17.884,12.034 18.374,11.586 18.374,10.956 C18.374,10.326 17.884,9.892 17.184,9.892 C16.498,9.892 15.994,10.326 15.994,10.956 C15.994,11.586 16.498,12.034 17.184,12.034 Z M18.22,20 L18.22,13.056 L16.162,13.056 L16.162,20 L18.22,20 Z M22.084,20 L22.084,15.31 C22.532,14.876 22.854,14.638 23.372,14.638 C23.96,14.638 24.226,14.946 24.226,15.954 L24.226,20 L26.284,20 L26.284,15.688 C26.284,13.952 25.64,12.888 24.128,12.888 C23.19,12.888 22.49,13.378 21.902,13.938 L21.846,13.938 L21.706,13.056 L20.026,13.056 L20.026,20 L22.084,20 Z M31.142,20.168 C31.968,20.168 32.892,19.874 33.606,19.384 L32.92,18.138 C32.416,18.446 31.94,18.6 31.422,18.6 C30.498,18.6 29.798,18.138 29.616,17.13 L33.774,17.13 C33.816,16.962 33.858,16.584 33.858,16.22 C33.858,14.33 32.878,12.888 30.904,12.888 C29.238,12.888 27.628,14.274 27.628,16.528 C27.628,18.824 29.154,20.168 31.142,20.168 Z M32.108,15.772 L29.602,15.772 C29.742,14.89 30.302,14.456 30.946,14.456 C31.772,14.456 32.108,15.002 32.108,15.772 Z M42.062,20.168 C43.252,20.168 44.26,19.706 45.016,18.824 L43.924,17.536 C43.476,18.012 42.888,18.39 42.146,18.39 C40.802,18.39 39.934,17.298 39.934,15.422 C39.934,13.588 40.928,12.482 42.174,12.482 C42.832,12.482 43.322,12.79 43.784,13.21 L44.876,11.894 C44.26,11.264 43.308,10.704 42.132,10.704 C39.822,10.704 37.82,12.468 37.82,15.492 C37.82,18.558 39.752,20.168 42.062,20.168 Z M48.292,20 L48.292,15.31 C48.74,14.876 49.062,14.638 49.58,14.638 C50.168,14.638 50.434,14.946 50.434,15.954 L50.434,20 L52.492,20 L52.492,15.688 C52.492,13.952 51.848,12.888 50.336,12.888 C49.398,12.888 48.712,13.378 48.194,13.84 L48.292,12.594 L48.292,10.186 L46.234,10.186 L46.234,20 L48.292,20 Z M55.978,20.168 C56.762,20.168 57.406,19.804 57.994,19.286 L58.05,19.286 L58.19,20 L59.87,20 L59.87,16.024 C59.87,13.896 58.89,12.888 57.112,12.888 C56.02,12.888 55.026,13.266 54.144,13.798 L54.886,15.156 C55.558,14.764 56.132,14.526 56.72,14.526 C57.476,14.526 57.77,14.918 57.812,15.534 C55.068,15.814 53.906,16.612 53.906,18.068 C53.906,19.244 54.704,20.168 55.978,20.168 Z M56.678,18.572 C56.188,18.572 55.88,18.362 55.88,17.914 C55.88,17.382 56.356,16.962 57.812,16.766 L57.812,17.984 C57.448,18.348 57.14,18.572 56.678,18.572 Z M63.664,20 L63.664,15.968 C64.028,15.03 64.672,14.694 65.19,14.694 C65.484,14.694 65.694,14.736 65.946,14.806 L66.282,13.028 C66.086,12.944 65.848,12.888 65.456,12.888 C64.742,12.888 63.986,13.336 63.482,14.274 L63.426,14.274 L63.286,13.056 L61.606,13.056 L61.606,20 L63.664,20 Z M69.852,20.168 C70.524,20.168 71.028,20.028 71.392,19.916 L71.07,18.418 C70.888,18.488 70.636,18.558 70.412,18.558 C69.866,18.558 69.516,18.236 69.516,17.452 L69.516,14.666 L71.182,14.666 L71.182,13.056 L69.516,13.056 L69.516,11.208 L67.808,11.208 L67.57,13.056 L66.506,13.14 L66.506,14.666 L67.458,14.666 L67.458,17.48 C67.458,19.09 68.13,20.168 69.852,20.168 Z" id="LineChart" fill="#272C37" fill-rule="nonzero"></path>
        <line x1="249.63523" y1="97" x2="17.6352299" y2="96.5012846" id="Line-2-Copy" stroke="#979797" stroke-width="2" stroke-linecap="square"></line>
        <rect id="Rectangle-Copy-20" fill="#ADADAD" opacity="0.800000012" x="17.6352299" y="105" width="18" height="4"></rect>
        <rect id="Rectangle-Copy-21" fill="#ADADAD" opacity="0.800000012" x="123.63523" y="105" width="17" height="4"></rect>
        <rect id="Rectangle-Copy-22" fill="#ADADAD" opacity="0.800000012" x="231.63523" y="105" width="18" height="4"></rect>
        <polyline id="Path-5" stroke="#B9D8EC" stroke-width="3" points="17.982 69.6992188 178 48.5507812 178 69.6992188 249.63523 48.5507812"></polyline>
    </g>
</svg>