<?xml version="1.0" encoding="UTF-8"?>
<svg width="282px" height="47px" viewBox="0 0 282 47" version="1.1" xmlns="http://www.w3.org/2000/svg" xmlns:xlink="http://www.w3.org/1999/xlink">
    <title>link</title>
    <g id="link" stroke="none" stroke-width="1" fill="none" fill-rule="evenodd">
        <g id="Link" transform="translate(15.000000, 15.608000)" fill="#0276C2" fill-rule="nonzero">
            <path d="M7.36,11.392 L7.36,10.256 L2.768,10.256 L2.768,0.896 L1.44,0.896 L1.44,11.392 L7.36,11.392 Z M9.76,2.016 C10.272,2.016 10.672,1.664 10.672,1.168 C10.672,0.656 10.272,0.32 9.76,0.32 C9.248,0.32 8.848,0.656 8.848,1.168 C8.848,1.664 9.248,2.016 9.76,2.016 Z M10.4,11.392 L10.4,3.616 L9.088,3.616 L9.088,11.392 L10.4,11.392 Z M14.336,11.392 L14.336,5.76 C15.12,4.976 15.664,4.56 16.464,4.56 C17.488,4.56 17.936,5.184 17.936,6.64 L17.936,11.392 L19.248,11.392 L19.248,6.464 C19.248,4.48 18.512,3.424 16.88,3.424 C15.808,3.424 15.008,4 14.272,4.736 L14.224,4.736 L14.112,3.616 L13.024,3.616 L13.024,11.392 L14.336,11.392 Z M23.072,11.392 L23.072,9.344 L24.528,7.648 L26.8,11.392 L28.24,11.392 L25.28,6.736 L27.888,3.616 L26.432,3.616 L23.12,7.712 L23.072,7.712 L23.072,1.4033219e-13 L21.776,1.4033219e-13 L21.776,11.392 L23.072,11.392 Z"></path>
            <polygon id="Decoration" points="-7.10542736e-15 11.792 -7.10542736e-15 12.592 26.948 12.592 26.948 11.792"></polygon>
        </g>
    </g>
</svg>