<svg xmlns="http://www.w3.org/2000/svg" width="282" height="47" viewBox="0 0 282 47">
  <g fill="none" fill-rule="evenodd">
    <g transform="translate(1 -4)">
      <path fill="#272C37" fill-rule="nonzero" d="M6.44,15 L6.44,14.006 L2.422,14.006 L2.422,5.816 L1.26,5.816 L1.26,15 L6.44,15 Z M10.598,15.168 C12.264,15.168 13.748,13.866 13.748,11.612 C13.748,9.33 12.264,8.028 10.598,8.028 C8.932,8.028 7.448,9.33 7.448,11.612 C7.448,13.866 8.932,15.168 10.598,15.168 Z M10.598,14.216 C9.436,14.216 8.638,13.166 8.638,11.612 C8.638,10.044 9.436,8.98 10.598,8.98 C11.774,8.98 12.558,10.044 12.558,11.612 C12.558,13.166 11.774,14.216 10.598,14.216 Z M18.186,15.168 C19.852,15.168 21.336,13.866 21.336,11.612 C21.336,9.33 19.852,8.028 18.186,8.028 C16.52,8.028 15.036,9.33 15.036,11.612 C15.036,13.866 16.52,15.168 18.186,15.168 Z M18.186,14.216 C17.024,14.216 16.226,13.166 16.226,11.612 C16.226,10.044 17.024,8.98 18.186,8.98 C19.362,8.98 20.146,10.044 20.146,11.612 C20.146,13.166 19.362,14.216 18.186,14.216 Z M24.262,15 L24.262,13.208 L25.536,11.724 L27.524,15 L28.784,15 L26.194,10.926 L28.476,8.196 L27.202,8.196 L24.304,11.78 L24.262,11.78 L24.262,5.032 L23.128,5.032 L23.128,15 L24.262,15 Z M32.046,15.168 C32.984,15.168 33.656,14.678 34.286,13.936 L34.328,13.936 L34.426,15 L35.378,15 L35.378,8.196 L34.23,8.196 L34.23,13.026 C33.586,13.824 33.096,14.174 32.396,14.174 C31.5,14.174 31.122,13.628 31.122,12.354 L31.122,8.196 L29.96,8.196 L29.96,12.508 C29.96,14.244 30.604,15.168 32.046,15.168 Z M38.822,17.87 L38.822,15.574 L38.794,14.384 C39.424,14.874 40.054,15.168 40.684,15.168 C42.238,15.168 43.624,13.81 43.624,11.5 C43.624,9.386 42.686,8.028 40.936,8.028 C40.138,8.028 39.382,8.462 38.766,8.98 L38.724,8.98 L38.626,8.196 L37.674,8.196 L37.674,17.87 L38.822,17.87 Z M40.488,14.202 C40.04,14.202 39.438,14.006 38.822,13.488 L38.822,9.918 C39.494,9.316 40.068,8.994 40.642,8.994 C41.93,8.994 42.434,10.002 42.434,11.5 C42.434,13.18 41.608,14.202 40.488,14.202 Z" opacity=".803"/>
      <path stroke="#C8C8C8" d="M2,18 L247,18 L247,18 L247,50 L2,50 C0.8954305,50 1.3527075e-16,49.1045695 0,48 L0,20 C-1.3527075e-16,18.8954305 0.8954305,18 2,18 Z"/>
    </g>
    <path fill="#F7F7F6" stroke="#C8C8C8" d="M248,14 L278,14 C279.104569,14 280,14.8954305 280,16 L280,44 C280,45.1045695 279.104569,46 278,46 L248,46 L248,46 L248,14 Z"/>
    <path fill="#2D313A" fill-rule="nonzero" d="M14.4395645,15.831 L14.4395645,5.4 L9.18956449,0 L2.18956449,0 C1.22706449,0 0.448314488,0.81 0.448314488,1.8 L0.439564488,16.2 C0.439564488,17.19 1.21831449,18 2.18081449,18 L12.6895645,18 C13.0833145,18 13.4333145,17.865 13.7308145,17.64 L9.85456449,13.653 C9.15456449,14.121 8.33206449,14.4 7.43956449,14.4 C5.02456449,14.4 3.06456449,12.384 3.06456449,9.9 C3.06456449,7.416 5.02456449,5.4 7.43956449,5.4 C9.85456449,5.4 11.8145645,7.416 11.8145645,9.9 C11.8145645,10.818 11.5433145,11.664 11.0883145,12.375 L14.4395645,15.831 Z M4.56588028,9.9 C4.56588028,11.56 5.88237151,12.9 7.5132487,12.9 C9.14412589,12.9 10.4606171,11.56 10.4606171,9.9 C10.4606171,8.24 9.14412589,6.9 7.5132487,6.9 C5.88237151,6.9 4.56588028,8.24 4.56588028,9.9 Z" transform="translate(256.56 21)"/>
  </g>
</svg>
