<svg xmlns="http://www.w3.org/2000/svg" width="282" height="47" viewBox="0 0 282 47">
  <g fill="none" fill-rule="evenodd">
    <path fill="#272C37" fill-rule="nonzero" d="M1.366,10 L1.366,5.198 C1.366,4.232 1.282,3.252 1.212,2.328 L1.268,2.328 L2.262,4.218 L5.594,10 L6.798,10 L6.798,0.816 L5.692,0.816 L5.692,5.562 C5.692,6.528 5.776,7.564 5.832,8.488 L5.776,8.488 L4.782,6.584 L1.464,0.816 L0.26,0.816 L0.26,10 L1.366,10 Z M11.194,10.168 C12.132,10.168 12.804,9.678 13.434,8.936 L13.476,8.936 L13.574,10 L14.526,10 L14.526,3.196 L13.378,3.196 L13.378,8.026 C12.734,8.824 12.244,9.174 11.544,9.174 C10.648,9.174 10.27,8.628 10.27,7.354 L10.27,3.196 L9.108,3.196 L9.108,7.508 C9.108,9.244 9.752,10.168 11.194,10.168 Z M17.97,10 L17.97,5.072 C18.6,4.372 19.174,4.022 19.678,4.022 C20.546,4.022 20.952,4.568 20.952,5.842 L20.952,10 L22.1,10 L22.1,5.072 C22.73,4.372 23.276,4.022 23.808,4.022 C24.662,4.022 25.068,4.568 25.068,5.842 L25.068,10 L26.216,10 L26.216,5.688 C26.216,3.952 25.544,3.028 24.144,3.028 C23.318,3.028 22.618,3.56 21.904,4.33 C21.624,3.518 21.064,3.028 20.028,3.028 C19.216,3.028 18.502,3.532 17.914,4.176 L17.872,4.176 L17.774,3.196 L16.822,3.196 L16.822,10 L17.97,10 Z M31.438,10.168 C32.992,10.168 34.378,8.81 34.378,6.486 C34.378,4.386 33.44,3.028 31.676,3.028 C30.92,3.028 30.164,3.434 29.548,3.98 L29.576,2.748 L29.576,0.032 L28.428,0.032 L28.428,10 L29.352,10 L29.45,9.3 L29.492,9.3 C30.094,9.846 30.808,10.168 31.438,10.168 Z M31.242,9.202 C30.794,9.202 30.178,9.006 29.576,8.488 L29.576,4.918 C30.22,4.316 30.822,3.994 31.396,3.994 C32.684,3.994 33.188,5.002 33.188,6.5 C33.188,8.18 32.362,9.202 31.242,9.202 Z M38.928,10.168 C39.852,10.168 40.58,9.846 41.168,9.468 L40.762,8.712 C40.258,9.034 39.712,9.244 39.068,9.244 C37.766,9.244 36.884,8.32 36.8,6.878 L41.392,6.878 C41.42,6.71 41.434,6.458 41.434,6.22 C41.434,4.274 40.454,3.028 38.718,3.028 C37.164,3.028 35.666,4.386 35.666,6.612 C35.666,8.838 37.108,10.168 38.928,10.168 Z M40.426,6.052 L36.786,6.052 C36.926,4.708 37.794,3.938 38.746,3.938 C39.81,3.938 40.426,4.68 40.426,6.052 Z M44.262,10 L44.262,5.632 C44.724,4.484 45.41,4.064 45.984,4.064 C46.264,4.064 46.418,4.106 46.642,4.176 L46.866,3.168 C46.642,3.07 46.432,3.028 46.138,3.028 C45.368,3.028 44.668,3.574 44.206,4.428 L44.164,4.428 L44.066,3.196 L43.114,3.196 L43.114,10 L44.262,10 Z" opacity=".803" transform="translate(2 1)"/>
    <rect width="279" height="32" x="1" y="14" stroke="#C8C8C8" rx="2"/>
    <g fill="#272C37" fill-rule="nonzero" transform="translate(260 22.143)">
      <path d="M1.34766226,6.25372042 L5.34804987,2.2934434 L9.34843749,6.25372042 C9.50551829,6.41080123 9.75949769,6.41080123 9.91657849,6.25372042 L10.5782891,5.59200978 C10.7353699,5.43492897 10.7353699,5.18094957 10.5782891,5.02386877 L5.63212037,0.117810604 C5.47503957,-0.0392702014 5.22106017,-0.0392702014 5.06397937,0.117810604 L0.117810604,5.02386877 C-0.0392702014,5.18094957 -0.0392702014,5.43492897 0.117810604,5.59200978 L0.779521249,6.25372042 C0.936602055,6.41080123 1.19058145,6.41080123 1.34766226,6.25372042 Z"/>
      <path d="M1.34766226,17.2537204 L5.34804987,13.2934434 L9.34843749,17.2537204 C9.50551829,17.4108012 9.75949769,17.4108012 9.91657849,17.2537204 L10.5782891,16.5920098 C10.7353699,16.434929 10.7353699,16.1809496 10.5782891,16.0238688 L5.63212037,11.1178106 C5.47503957,10.9607298 5.22106017,10.9607298 5.06397937,11.1178106 L0.117810604,16.0238688 C-0.0392702014,16.1809496 -0.0392702014,16.434929 0.117810604,16.5920098 L0.779521249,17.2537204 C0.936602055,17.4108012 1.19058145,17.4108012 1.34766226,17.2537204 Z" transform="rotate(180 5.348 14.186)"/>
    </g>
  </g>
</svg>
