<?xml version="1.0" encoding="UTF-8"?>
<svg width="282px" height="47px" viewBox="0 0 282 47" version="1.1" xmlns="http://www.w3.org/2000/svg" xmlns:xlink="http://www.w3.org/1999/xlink">
    <title>paragraph</title>
    <g id="paragraph" stroke="none" stroke-width="1" fill="none" fill-rule="evenodd">
        <path d="M15.422,29 L15.422,25.36 L16.934,25.36 C18.95,25.36 20.322,24.45 20.322,22.518 C20.322,20.502 18.936,19.816 16.878,19.816 L14.26,19.816 L14.26,29 L15.422,29 Z M16.794,24.408 L15.422,24.408 L15.422,20.754 L16.738,20.754 C18.348,20.754 19.16,21.188 19.16,22.518 C19.16,23.82 18.39,24.408 16.794,24.408 Z M23.64,29.168 C24.494,29.168 25.25,28.72 25.894,28.188 L25.936,28.188 L26.034,29 L26.986,29 L26.986,24.828 C26.986,23.134 26.286,22.028 24.62,22.028 C23.528,22.028 22.576,22.504 21.946,22.91 L22.394,23.708 C22.926,23.344 23.64,22.98 24.424,22.98 C25.544,22.98 25.824,23.82 25.824,24.688 C22.926,25.01 21.652,25.752 21.652,27.236 C21.652,28.454 22.506,29.168 23.64,29.168 Z M23.976,28.244 C23.304,28.244 22.772,27.922 22.772,27.152 C22.772,26.284 23.556,25.724 25.824,25.444 L25.824,27.334 C25.166,27.922 24.634,28.244 23.976,28.244 Z M30.276,29 L30.276,24.632 C30.738,23.484 31.424,23.064 31.998,23.064 C32.278,23.064 32.432,23.106 32.656,23.176 L32.88,22.168 C32.656,22.07 32.446,22.028 32.152,22.028 C31.382,22.028 30.682,22.574 30.22,23.428 L30.178,23.428 L30.08,22.196 L29.128,22.196 L29.128,29 L30.276,29 Z M35.554,29.168 C36.408,29.168 37.164,28.72 37.808,28.188 L37.85,28.188 L37.948,29 L38.9,29 L38.9,24.828 C38.9,23.134 38.2,22.028 36.534,22.028 C35.442,22.028 34.49,22.504 33.86,22.91 L34.308,23.708 C34.84,23.344 35.554,22.98 36.338,22.98 C37.458,22.98 37.738,23.82 37.738,24.688 C34.84,25.01 33.566,25.752 33.566,27.236 C33.566,28.454 34.42,29.168 35.554,29.168 Z M35.89,28.244 C35.218,28.244 34.686,27.922 34.686,27.152 C34.686,26.284 35.47,25.724 37.738,25.444 L37.738,27.334 C37.08,27.922 36.548,28.244 35.89,28.244 Z M43.338,32.136 C45.452,32.136 46.782,31.044 46.782,29.784 C46.782,28.65 45.984,28.16 44.402,28.16 L43.086,28.16 C42.162,28.16 41.882,27.852 41.882,27.418 C41.882,27.04 42.078,26.816 42.316,26.606 C42.624,26.76 43.002,26.844 43.338,26.844 C44.724,26.844 45.83,25.934 45.83,24.478 C45.83,23.904 45.592,23.386 45.27,23.078 L46.67,23.078 L46.67,22.196 L44.304,22.196 C44.052,22.098 43.716,22.028 43.338,22.028 C41.952,22.028 40.776,22.966 40.776,24.45 C40.776,25.262 41.21,25.92 41.658,26.284 L41.658,26.34 C41.308,26.578 40.916,27.026 40.916,27.6 C40.916,28.132 41.182,28.496 41.518,28.706 L41.518,28.762 C40.902,29.182 40.524,29.728 40.524,30.302 C40.524,31.478 41.672,32.136 43.338,32.136 Z M43.338,26.074 C42.554,26.074 41.896,25.444 41.896,24.45 C41.896,23.456 42.54,22.868 43.338,22.868 C44.136,22.868 44.78,23.456 44.78,24.45 C44.78,25.444 44.122,26.074 43.338,26.074 Z M43.506,31.338 C42.274,31.338 41.532,30.876 41.532,30.148 C41.532,29.756 41.742,29.35 42.232,29 C42.526,29.084 42.848,29.112 43.114,29.112 L44.29,29.112 C45.172,29.112 45.662,29.322 45.662,29.952 C45.662,30.666 44.808,31.338 43.506,31.338 Z M49.246,29 L49.246,24.632 C49.708,23.484 50.394,23.064 50.968,23.064 C51.248,23.064 51.402,23.106 51.626,23.176 L51.85,22.168 C51.626,22.07 51.416,22.028 51.122,22.028 C50.352,22.028 49.652,22.574 49.19,23.428 L49.148,23.428 L49.05,22.196 L48.098,22.196 L48.098,29 L49.246,29 Z M54.524,29.168 C55.378,29.168 56.134,28.72 56.778,28.188 L56.82,28.188 L56.918,29 L57.87,29 L57.87,24.828 C57.87,23.134 57.17,22.028 55.504,22.028 C54.412,22.028 53.46,22.504 52.83,22.91 L53.278,23.708 C53.81,23.344 54.524,22.98 55.308,22.98 C56.428,22.98 56.708,23.82 56.708,24.688 C53.81,25.01 52.536,25.752 52.536,27.236 C52.536,28.454 53.39,29.168 54.524,29.168 Z M54.86,28.244 C54.188,28.244 53.656,27.922 53.656,27.152 C53.656,26.284 54.44,25.724 56.708,25.444 L56.708,27.334 C56.05,27.922 55.518,28.244 54.86,28.244 Z M61.16,31.87 L61.16,29.574 L61.132,28.384 C61.762,28.874 62.392,29.168 63.022,29.168 C64.576,29.168 65.962,27.81 65.962,25.5 C65.962,23.386 65.024,22.028 63.274,22.028 C62.476,22.028 61.72,22.462 61.104,22.98 L61.062,22.98 L60.964,22.196 L60.012,22.196 L60.012,31.87 L61.16,31.87 Z M62.826,28.202 C62.378,28.202 61.776,28.006 61.16,27.488 L61.16,23.918 C61.832,23.316 62.406,22.994 62.98,22.994 C64.268,22.994 64.772,24.002 64.772,25.5 C64.772,27.18 63.946,28.202 62.826,28.202 Z M68.93,29 L68.93,24.072 C69.616,23.386 70.092,23.022 70.792,23.022 C71.688,23.022 72.08,23.568 72.08,24.842 L72.08,29 L73.228,29 L73.228,24.688 C73.228,22.952 72.584,22.028 71.156,22.028 C70.218,22.028 69.532,22.532 68.888,23.148 L68.93,21.748 L68.93,19.032 L67.782,19.032 L67.782,29 L68.93,29 Z" id="Paragraph" fill="#272C37" fill-rule="nonzero"></path>
    </g>
</svg>