<?xml version="1.0" encoding="UTF-8"?>
<svg width="282px" height="121px" viewBox="0 0 282 121" version="1.1" xmlns="http://www.w3.org/2000/svg" xmlns:xlink="http://www.w3.org/1999/xlink">
    <title>splitView</title>
    <g id="splitView" stroke="none" stroke-width="1" fill="none" fill-rule="evenodd">
        <rect id="Rectangle" stroke="#DADADA" x="0.5" y="0.5" width="281" height="120" rx="4"></rect>
        <line x1="0.5" y1="24.5" x2="283.5" y2="24.5" id="Line-3-Copy" stroke="#DADADA" stroke-linecap="square"></line>
        <line x1="141" y1="25" x2="141.5" y2="121.5" id="Line-3-Copy-2" stroke="#DADADA" stroke-linecap="square"></line>
        <rect id="Rectangle-Copy-12" fill="#ADADAD" opacity="0.800000012" x="17" y="32" width="41" height="4"></rect>
        <rect id="Rectangle-Copy-13" fill="#ADADAD" opacity="0.800000012" x="31" y="44" width="41" height="4"></rect>
        <rect id="Rectangle" stroke="#979797" x="5.5" y="31.5" width="5" height="5"></rect>
        <rect id="Rectangle-Copy" stroke="#979797" x="18.5" y="43.5" width="5" height="5"></rect>
        <rect id="Rectangle-Copy-14" fill="#ADADAD" opacity="0.800000012" x="31" y="57" width="41" height="4"></rect>
        <rect id="Rectangle-Copy-2" stroke="#979797" x="18.5" y="56.5" width="5" height="5"></rect>
        <rect id="Rectangle-Copy-16" fill="#ADADAD" opacity="0.800000012" x="44" y="70" width="41" height="4"></rect>
        <rect id="Rectangle-Copy-4" stroke="#979797" x="31.5" y="69.5" width="5" height="5"></rect>
        <rect id="Rectangle-Copy-15" fill="#ADADAD" opacity="0.800000012" x="44" y="83" width="41" height="4"></rect>
        <rect id="Rectangle-Copy-3" stroke="#979797" x="31.5" y="82.5" width="5" height="5"></rect>
        <rect id="Rectangle-Copy-17" fill="#ADADAD" opacity="0.800000012" x="57" y="96" width="41" height="4"></rect>
        <rect id="Rectangle-Copy-5" stroke="#979797" x="44.5" y="95.5" width="5" height="5"></rect>
        <rect id="Rectangle-Copy-18" fill="#ADADAD" opacity="0.800000012" x="57" y="109" width="41" height="4"></rect>
        <rect id="Rectangle-Copy-6" stroke="#979797" x="44.5" y="108.5" width="5" height="5"></rect>
        <rect id="Rectangle-Copy-27" fill="#ADADAD" opacity="0.800000012" x="161" y="32" width="41" height="4"></rect>
        <rect id="Rectangle-Copy-26" fill="#ADADAD" opacity="0.800000012" x="175" y="44" width="41" height="4"></rect>
        <rect id="Rectangle-Copy-25" stroke="#979797" x="149.5" y="31.5" width="5" height="5"></rect>
        <rect id="Rectangle-Copy-24" stroke="#979797" x="162.5" y="43.5" width="5" height="5"></rect>
        <rect id="Rectangle-Copy-23" fill="#ADADAD" opacity="0.800000012" x="175" y="57" width="41" height="4"></rect>
        <rect id="Rectangle-Copy-11" stroke="#979797" x="162.5" y="56.5" width="5" height="5"></rect>
        <rect id="Rectangle-Copy-22" fill="#ADADAD" opacity="0.800000012" x="188" y="70" width="41" height="4"></rect>
        <rect id="Rectangle-Copy-10" stroke="#979797" x="175.5" y="69.5" width="5" height="5"></rect>
        <rect id="Rectangle-Copy-21" fill="#ADADAD" opacity="0.800000012" x="188" y="83" width="41" height="4"></rect>
        <rect id="Rectangle-Copy-9" stroke="#979797" x="175.5" y="82.5" width="5" height="5"></rect>
        <rect id="Rectangle-Copy-20" fill="#ADADAD" opacity="0.800000012" x="201" y="96" width="41" height="4"></rect>
        <rect id="Rectangle-Copy-8" stroke="#979797" x="188.5" y="95.5" width="5" height="5"></rect>
        <rect id="Rectangle-Copy-19" fill="#ADADAD" opacity="0.800000012" x="201" y="109" width="41" height="4"></rect>
        <rect id="Rectangle-Copy-7" stroke="#979797" x="188.5" y="108.5" width="5" height="5"></rect>
        <path d="M9.864,18.168 C12.048,18.168 13.308,16.852 13.308,15.34 C13.308,14.052 12.608,13.31 11.502,12.862 L10.326,12.386 C9.542,12.064 8.94,11.868 8.94,11.308 C8.94,10.79 9.388,10.482 10.102,10.482 C10.83,10.482 11.39,10.748 11.992,11.21 L13.042,9.908 C12.258,9.124 11.152,8.704 10.102,8.704 C8.198,8.704 6.854,9.908 6.854,11.42 C6.854,12.75 7.75,13.534 8.688,13.912 L9.878,14.416 C10.676,14.752 11.194,14.934 11.194,15.508 C11.194,16.054 10.774,16.39 9.92,16.39 C9.164,16.39 8.324,15.998 7.666,15.438 L6.49,16.852 C7.414,17.72 8.674,18.168 9.864,18.168 Z M16.752,20.576 L16.752,18.546 L16.682,17.44 C17.172,17.902 17.732,18.168 18.334,18.168 C19.832,18.168 21.26,16.796 21.26,14.416 C21.26,12.274 20.224,10.888 18.544,10.888 C17.816,10.888 17.116,11.252 16.57,11.742 L16.514,11.742 L16.374,11.056 L14.694,11.056 L14.694,20.576 L16.752,20.576 Z M17.858,16.488 C17.508,16.488 17.116,16.376 16.752,16.04 L16.752,13.198 C17.158,12.764 17.522,12.568 17.942,12.568 C18.768,12.568 19.146,13.198 19.146,14.444 C19.146,15.872 18.572,16.488 17.858,16.488 Z M24.606,18.168 C25.068,18.168 25.418,18.098 25.642,18 L25.39,16.474 C25.278,16.502 25.222,16.502 25.138,16.502 C24.97,16.502 24.774,16.362 24.774,15.928 L24.774,8.186 L22.716,8.186 L22.716,15.844 C22.716,17.244 23.192,18.168 24.606,18.168 Z M27.742,10.034 C28.442,10.034 28.932,9.586 28.932,8.956 C28.932,8.326 28.442,7.892 27.742,7.892 C27.056,7.892 26.552,8.326 26.552,8.956 C26.552,9.586 27.056,10.034 27.742,10.034 Z M28.778,18 L28.778,11.056 L26.72,11.056 L26.72,18 L28.778,18 Z M33.258,18.168 C33.93,18.168 34.434,18.028 34.798,17.916 L34.476,16.418 C34.294,16.488 34.042,16.558 33.818,16.558 C33.272,16.558 32.922,16.236 32.922,15.452 L32.922,12.666 L34.588,12.666 L34.588,11.056 L32.922,11.056 L32.922,9.208 L31.214,9.208 L30.976,11.056 L29.912,11.14 L29.912,12.666 L30.864,12.666 L30.864,15.48 C30.864,17.09 31.536,18.168 33.258,18.168 Z M42.974,18 L45.718,8.872 L43.618,8.872 L42.54,13.128 C42.274,14.122 42.078,15.046 41.812,16.054 L41.756,16.054 C41.476,15.046 41.294,14.122 41.014,13.128 L39.922,8.872 L37.738,8.872 L40.496,18 L42.974,18 Z M47.552,10.034 C48.252,10.034 48.742,9.586 48.742,8.956 C48.742,8.326 48.252,7.892 47.552,7.892 C46.866,7.892 46.362,8.326 46.362,8.956 C46.362,9.586 46.866,10.034 47.552,10.034 Z M48.588,18 L48.588,11.056 L46.53,11.056 L46.53,18 L48.588,18 Z M53.502,18.168 C54.328,18.168 55.252,17.874 55.966,17.384 L55.28,16.138 C54.776,16.446 54.3,16.6 53.782,16.6 C52.858,16.6 52.158,16.138 51.976,15.13 L56.134,15.13 C56.176,14.962 56.218,14.584 56.218,14.22 C56.218,12.33 55.238,10.888 53.264,10.888 C51.598,10.888 49.988,12.274 49.988,14.528 C49.988,16.824 51.514,18.168 53.502,18.168 Z M54.468,13.772 L51.962,13.772 C52.102,12.89 52.662,12.456 53.306,12.456 C54.132,12.456 54.468,13.002 54.468,13.772 Z M61.16,18 L61.776,15.228 C61.902,14.584 62,13.94 62.126,13.198 L62.182,13.198 C62.308,13.94 62.42,14.584 62.56,15.228 L63.19,18 L65.598,18 L67.264,11.056 L65.36,11.056 L64.702,14.276 C64.576,14.962 64.506,15.634 64.38,16.334 L64.324,16.334 C64.184,15.634 64.058,14.962 63.89,14.276 L63.106,11.056 L61.328,11.056 L60.558,14.276 C60.39,14.934 60.278,15.634 60.152,16.334 L60.096,16.334 C59.984,15.634 59.9,14.962 59.788,14.276 L59.116,11.056 L57.072,11.056 L58.808,18 L61.16,18 Z" id="SplitView" fill="#272C37" fill-rule="nonzero"></path>
    </g>
</svg>