<svg xmlns="http://www.w3.org/2000/svg" width="282" height="84" viewBox="0 0 282 84">
  <g fill="none" fill-rule="evenodd">
    <g transform="translate(1 1)">
      <path fill="#272C37" fill-rule="nonzero" d="M4.34,10 L4.34,1.796 L7.112,1.796 L7.112,0.816 L0.392,0.816 L0.392,1.796 L3.164,1.796 L3.164,10 L4.34,10 Z M11.41,10.168 C12.334,10.168 13.062,9.846 13.65,9.468 L13.244,8.712 C12.74,9.034 12.194,9.244 11.55,9.244 C10.248,9.244 9.366,8.32 9.282,6.878 L13.874,6.878 C13.902,6.71 13.916,6.458 13.916,6.22 C13.916,4.274 12.936,3.028 11.2,3.028 C9.646,3.028 8.148,4.386 8.148,6.612 C8.148,8.838 9.59,10.168 11.41,10.168 Z M12.908,6.052 L9.268,6.052 C9.408,4.708 10.276,3.938 11.228,3.938 C12.292,3.938 12.908,4.68 12.908,6.052 Z M15.848,10 L16.772,8.418 C16.996,7.998 17.22,7.592 17.458,7.2 L17.514,7.2 C17.766,7.592 18.018,8.012 18.256,8.418 L19.25,10 L20.496,10 L18.284,6.57 L20.342,3.196 L19.138,3.196 L18.312,4.694 C18.102,5.058 17.892,5.45 17.696,5.828 L17.64,5.828 C17.402,5.45 17.178,5.058 16.968,4.694 L16.058,3.196 L14.812,3.196 L16.87,6.444 L14.644,10 L15.848,10 Z M23.982,10.168 C24.402,10.168 24.864,10.042 25.242,9.916 L25.018,9.048 C24.794,9.132 24.486,9.23 24.248,9.23 C23.464,9.23 23.198,8.754 23.198,7.914 L23.198,4.134 L25.032,4.134 L25.032,3.196 L23.198,3.196 L23.198,1.292 L22.232,1.292 L22.092,3.196 L21.028,3.266 L21.028,4.134 L22.036,4.134 L22.036,7.9 C22.036,9.244 22.526,10.168 23.982,10.168 Z M29.456,10 L30.338,7.2 L33.684,7.2 L34.552,10 L35.798,10 L32.69,0.816 L31.374,0.816 L28.266,10 L29.456,10 Z M33.39,6.262 L30.632,6.262 L31.066,4.862 C31.402,3.84 31.696,2.832 31.976,1.768 L32.032,1.768 C32.326,2.832 32.62,3.84 32.956,4.862 L33.39,6.262 Z M38.136,10 L38.136,5.632 C38.598,4.484 39.284,4.064 39.858,4.064 C40.138,4.064 40.292,4.106 40.516,4.176 L40.74,3.168 C40.516,3.07 40.306,3.028 40.012,3.028 C39.242,3.028 38.542,3.574 38.08,4.428 L38.038,4.428 L37.94,3.196 L36.988,3.196 L36.988,10 L38.136,10 Z M44.604,10.168 C45.528,10.168 46.256,9.846 46.844,9.468 L46.438,8.712 C45.934,9.034 45.388,9.244 44.744,9.244 C43.442,9.244 42.56,8.32 42.476,6.878 L47.068,6.878 C47.096,6.71 47.11,6.458 47.11,6.22 C47.11,4.274 46.13,3.028 44.394,3.028 C42.84,3.028 41.342,4.386 41.342,6.612 C41.342,8.838 42.784,10.168 44.604,10.168 Z M46.102,6.052 L42.462,6.052 C42.602,4.708 43.47,3.938 44.422,3.938 C45.486,3.938 46.102,4.68 46.102,6.052 Z M50.358,10.168 C51.212,10.168 51.968,9.72 52.612,9.188 L52.654,9.188 L52.752,10 L53.704,10 L53.704,5.828 C53.704,4.134 53.004,3.028 51.338,3.028 C50.246,3.028 49.294,3.504 48.664,3.91 L49.112,4.708 C49.644,4.344 50.358,3.98 51.142,3.98 C52.262,3.98 52.542,4.82 52.542,5.688 C49.644,6.01 48.37,6.752 48.37,8.236 C48.37,9.454 49.224,10.168 50.358,10.168 Z M50.694,9.244 C50.022,9.244 49.49,8.922 49.49,8.152 C49.49,7.284 50.274,6.724 52.542,6.444 L52.542,8.334 C51.884,8.922 51.352,9.244 50.694,9.244 Z" opacity=".803"/>
      <rect width="279" height="69" y="13" stroke="#C8C8C8" rx="2"/>
    </g>
    <line x1="268.173" x2="277.365" y1="80.4" y2="71.915" stroke="#979797" stroke-linecap="square"/>
    <line x1="272.187" x2="277.56" y1="80.757" y2="75.129" stroke="#979797" stroke-linecap="square"/>
  </g>
</svg>
