<svg width="35" height="34" xmlns="http://www.w3.org/2000/svg"><g fill="#000" fill-rule="nonzero"><path d="M0 0h2v4H0V0zm14 0h2v4h-2V0zM2 0h2v2H2V0zm4 0h4v2H6V0zm0 32h4v2H6v-2z"/><path d="M12 0h4v2h-4V0zm2 30h2v4h-2v-4zM0 30h2v4H0v-4zm0-18h2v4H0v-4zm0-6h2v4H0V6zm14 6h2v4h-2v-4zM0 18h2v4H0v-4zm14 0h2v4h-2v-4zM0 24h2v4H0v-4zm14 0h2v4h-2v-4zm0-18h2v4h-2V6zm-2 26h2v2h-2v-2z"/><path d="M0 32h4v2H0v-2zM19 0h2v4h-2V0zm14 0h2v4h-2V0zM21 0h2v2h-2V0zm4 0h4v2h-4V0zm0 32h4v2h-4v-2z"/><path d="M31 0h4v2h-4V0zm2 30h2v4h-2v-4zm-14 0h2v4h-2v-4zm0-18h2v4h-2v-4zm0-6h2v4h-2V6zm14 6h2v4h-2v-4zm-14 6h2v4h-2v-4zm14 0h2v4h-2v-4zm-14 6h2v4h-2v-4zm14 0h2v4h-2v-4zm0-18h2v4h-2V6zm-2 26h2v2h-2v-2z"/><path d="M19 32h4v2h-4z"/></g></svg>