<?xml version="1.0" encoding="UTF-8"?>
<svg width="24px" height="24px" viewBox="0 0 24 24" version="1.1" xmlns="http://www.w3.org/2000/svg" xmlns:xlink="http://www.w3.org/1999/xlink">
    <!-- Generator: Sketch 58 (84663) - https://sketch.com -->
    <title>container</title>
    <desc>Created with Sketch.</desc>
    <g id="container" stroke="none" stroke-width="1" fill="none" fill-rule="evenodd">
        <path d="M11.2941176,22.5882353 L11.2941176,24 L8.47058824,24 L8.47058824,22.5882353 L11.2941176,22.5882353 Z M7.05882353,22.5882353 L7.05882353,24 L4.23529412,24 L4.23529412,22.5882353 L7.05882353,22.5882353 Z M15.5294118,22.5882353 L15.5294118,24 L12.7058824,24 L12.7058824,22.5882353 L15.5294118,22.5882353 Z M19.7647059,22.5882353 L19.7647059,24 L16.9411765,24 L16.9411765,22.5882353 L19.7647059,22.5882353 Z M24,21.1764706 L24,24 L22.5882353,24 L22.5882353,24 L21.1764706,24 L21.1764706,22.5882353 L22.5882353,22.5882353 L22.5882353,21.1764706 L24,21.1764706 Z M1.41176471,21.1764706 L1.411,23 L3,23 L3,24 L1.15463195e-14,24 L1.15463195e-14,21.1764706 L1.41176471,21.1764706 Z M1.41176471,16.9411765 L1.41176471,19.7647059 L1.15463195e-14,19.7647059 L1.15463195e-14,16.9411765 L1.41176471,16.9411765 Z M24,16.9411765 L24,19.7647059 L22.5882353,19.7647059 L22.5882353,16.9411765 L24,16.9411765 Z M1.41176471,12.7058824 L1.41176471,15.5294118 L1.15463195e-14,15.5294118 L1.15463195e-14,12.7058824 L1.41176471,12.7058824 Z M24,12.7058824 L24,15.5294118 L22.5882353,15.5294118 L22.5882353,12.7058824 L24,12.7058824 Z M1.41176471,8.47058824 L1.41176471,11.2941176 L1.15463195e-14,11.2941176 L1.15463195e-14,8.47058824 L1.41176471,8.47058824 Z M24,8.47058824 L24,11.2941176 L22.5882353,11.2941176 L22.5882353,8.47058824 L24,8.47058824 Z M1.41176471,4.23529412 L1.41176471,7.05882353 L1.15463195e-14,7.05882353 L1.15463195e-14,4.23529412 L1.41176471,4.23529412 Z M24,4.23529412 L24,7.05882353 L22.5882353,7.05882353 L22.5882353,4.23529412 L24,4.23529412 Z M24,3.99680289e-14 L24,2.82352941 L22.5882353,2.82352941 L22.588,1.411 L21.1764706,1.41176471 L21.1764706,3.99680289e-14 L24,3.99680289e-14 Z M2.82352941,0 L2.82352941,1.41176471 L1.41176471,1.41176471 L1.41176471,2.82352941 L0,2.82352941 L0,0 L2.82352941,0 Z M11.2941176,0 L11.2941176,1.41176471 L8.47058824,1.41176471 L8.47058824,0 L11.2941176,0 Z M7.05882353,0 L7.05882353,1.41176471 L4.23529412,1.41176471 L4.23529412,0 L7.05882353,0 Z M15.5294118,0 L15.5294118,1.41176471 L12.7058824,1.41176471 L12.7058824,0 L15.5294118,0 Z M19.7647059,0 L19.7647059,1.41176471 L16.9411765,1.41176471 L16.9411765,0 L19.7647059,0 Z" id="Combined-Shape" fill="#000000" fill-rule="nonzero"></path>
    </g>
</svg>