<svg width="34" height="34" xmlns="http://www.w3.org/2000/svg"><g fill-rule="nonzero" fill="none"><path d="M0 0h2v4H0V0zm32 0h2v4h-2V0zM2 0h2v2H2V0zm10 0h4v2h-4V0zM6 0h4v2H6V0zm12 0h4v2h-4V0zm-6 32h4v2h-4v-2zm-6 0h4v2H6v-2zm12 0h4v2h-4v-2zm6-32h4v2h-4V0zm0 32h4v2h-4v-2z" fill="#000"/><path d="M30 0h4v2h-4V0zm2 30h2v4h-2v-4zM0 30h2v4H0v-4zm0-18h2v4H0v-4zm0-6h2v4H0V6zm32 6h2v4h-2v-4zM0 18h2v4H0v-4zm32 0h2v4h-2v-4zM0 24h2v4H0v-4zm32 0h2v4h-2v-4zm0-18h2v4h-2V6zm-2 26h2v2h-2v-2z" fill="#000"/><path fill="#292C36" d="M0 32h4v2H0z"/></g></svg>