<?xml version="1.0" encoding="UTF-8"?>
<svg width="24px" height="24px" viewBox="0 0 24 24" version="1.1" xmlns="http://www.w3.org/2000/svg" xmlns:xlink="http://www.w3.org/1999/xlink">
    <!-- Generator: Sketch 58 (84663) - https://sketch.com -->
    <title>grouping</title>
    <desc>Created with Sketch.</desc>
    <g id="grouping" stroke="none" stroke-width="1" fill="none" fill-rule="evenodd">
        <rect id="Rectangle" fill="#000000" x="9" y="11" width="12" height="1"></rect>
        <rect id="Rectangle" stroke="#000000" stroke-width="1.3" x="0.65" y="7.65" width="22.7" height="7.7"></rect>
        <path d="M6.47737557,11.1818182 C6.49245852,11.2028986 6.5,11.226614 6.5,11.2529644 C6.5,11.2793148 6.49245852,11.3003953 6.47737557,11.3162055 L4.90120664,12.9762846 C4.88109599,12.9920949 4.85847156,13 4.83333333,13 C4.80819511,13 4.78808446,12.9920949 4.77300151,12.9762846 L3.1892911,11.3162055 C3.17420814,11.3003953 3.16666667,11.2793148 3.16666667,11.2529644 C3.16666667,11.226614 3.17420814,11.2028986 3.1892911,11.1818182 L3.34012066,11.0237154 C3.35520362,11.0079051 3.37531427,11 3.40045249,11 C3.42559071,11 3.44821515,11.0079051 3.46832579,11.0237154 L4.83333333,12.4545455 L6.19834087,11.0237154 C6.21845152,11.0079051 6.24107596,11 6.26621418,11 C6.2913524,11 6.31146305,11.0079051 6.326546,11.0237154 L6.47737557,11.1818182 Z" id="c" stroke="#000000" stroke-width="0.25" fill="#000000" fill-rule="nonzero"></path>
    </g>
</svg>