<?xml version="1.0" encoding="UTF-8"?>
<svg width="24px" height="24px" viewBox="0 0 24 24" version="1.1" xmlns="http://www.w3.org/2000/svg" xmlns:xlink="http://www.w3.org/1999/xlink">
    <!-- Generator: Sketch 58 (84663) - https://sketch.com -->
    <title>list copy</title>
    <desc>Created with Sketch.</desc>
    <g id="list-copy" stroke="none" stroke-width="1" fill="none" fill-rule="evenodd">
        <path d="M3,17 L3,19 L0,19 L0,17 L3,17 Z M24,17 L24,19 L5,19 L5,17 L24,17 Z M3,10 L3,12 L0,12 L0,10 L3,10 Z M24,10 L24,12 L5,12 L5,10 L24,10 Z M3,3 L3,5 L0,5 L0,3 L3,3 Z M24,3 L24,5 L5,5 L5,3 L24,3 Z" id="Combined-Shape" fill="#000000"></path>
    </g>
</svg>