<svg width="23" height="23" xmlns="http://www.w3.org/2000/svg"><path d="M22.687 19.885l-4.479-4.478a1.077 1.077 0 0 0-.764-.315h-.732a9.296 9.296 0 0 0 1.977-5.75A9.342 9.342 0 0 0 9.344 0 9.342 9.342 0 0 0 0 9.343a9.342 9.342 0 0 0 9.344 9.343 9.3 9.3 0 0 0 5.75-1.977v.732c0 .288.113.562.315.764l4.48 4.478a1.074 1.074 0 0 0 1.522 0l1.272-1.27a1.083 1.083 0 0 0 .004-1.528zM9.344 15.092a5.747 5.747 0 0 1-5.75-5.75c0-3.175 2.57-5.749 5.75-5.749 3.177 0 5.75 2.57 5.75 5.75 0 3.176-2.569 5.75-5.75 5.75z" fill="#000" fill-rule="nonzero"/></svg>