<?xml version="1.0" encoding="UTF-8"?>
<svg width="24px" height="24px" viewBox="0 0 24 24" version="1.1" xmlns="http://www.w3.org/2000/svg" xmlns:xlink="http://www.w3.org/1999/xlink">
    <!-- Generator: Sketch 58 (84663) - https://sketch.com -->
    <title>rows</title>
    <desc>Created with Sketch.</desc>
    <g id="rows" stroke="none" stroke-width="1" fill="none" fill-rule="evenodd">
        <g id="columns" transform="translate(12.000000, 12.000000) rotate(90.000000) translate(-12.000000, -12.000000) " fill="#000000" fill-rule="nonzero">
            <path d="M1.375,21.1764706 L1.375,22.588 L2.74285714,22.5882353 L2.74285714,24 L5.24025268e-14,24 L0,21.1764706 L1.375,21.1764706 Z M19.8857143,22.5882353 L19.8857143,24 L17.1428571,24 L17.1428571,22.5882353 L19.8857143,22.5882353 Z M6.875,22.5882353 L6.875,24 L4.125,24 L4.125,22.5882353 L6.875,22.5882353 Z M11,21.1764706 L11,24 L8.25,24 L8.25,22.5882353 L9.625,22.588 L9.625,21.1764706 L11,21.1764706 Z M14.375,21.1764706 L14.375,22.588 L15.7428571,22.5882353 L15.7428571,24 L14.375,24 L13,24 L13,22.5882353 L13,21.1764706 L14.375,21.1764706 Z M24,21.1764706 L24,24 L22.625,24 L21.25,24 L21.25,22.5882353 L22.625,22.588 L22.625,21.1764706 L24,21.1764706 Z M1.375,16.9411765 L1.375,19.7647059 L0,19.7647059 L0,16.9411765 L1.375,16.9411765 Z M11,16.9411765 L11,19.7647059 L9.625,19.7647059 L9.625,16.9411765 L11,16.9411765 Z M24,16.9411765 L24,19.7647059 L22.625,19.7647059 L22.625,16.9411765 L24,16.9411765 Z M14.375,16.9411765 L14.375,19.7647059 L13,19.7647059 L13,16.9411765 L14.375,16.9411765 Z M1.375,12.7058824 L1.375,15.5294118 L0,15.5294118 L0,12.7058824 L1.375,12.7058824 Z M11,12.7058824 L11,15.5294118 L9.625,15.5294118 L9.625,12.7058824 L11,12.7058824 Z M24,12.7058824 L24,15.5294118 L22.625,15.5294118 L22.625,12.7058824 L24,12.7058824 Z M14.375,12.7058824 L14.375,15.5294118 L13,15.5294118 L13,12.7058824 L14.375,12.7058824 Z M1.375,8.47058824 L1.375,11.2941176 L0,11.2941176 L0,8.47058824 L1.375,8.47058824 Z M11,8.47058824 L11,11.2941176 L9.625,11.2941176 L9.625,8.47058824 L11,8.47058824 Z M24,8.47058824 L24,11.2941176 L22.625,11.2941176 L22.625,8.47058824 L24,8.47058824 Z M14.375,8.47058824 L14.375,11.2941176 L13,11.2941176 L13,8.47058824 L14.375,8.47058824 Z M1.375,4.23529412 L1.375,7.05882353 L0,7.05882353 L0,4.23529412 L1.375,4.23529412 Z M11,4.23529412 L11,7.05882353 L9.625,7.05882353 L9.625,4.23529412 L11,4.23529412 Z M24,4.23529412 L24,7.05882353 L22.625,7.05882353 L22.625,4.23529412 L24,4.23529412 Z M14.375,4.23529412 L14.375,7.05882353 L13,7.05882353 L13,4.23529412 L14.375,4.23529412 Z M14.4,2.44249065e-14 L14.4,2.82352941 L13.0285714,2.82352941 L13.0285714,2.44249065e-14 L14.4,2.44249065e-14 Z M24,0 L24,1.41176471 L23.999,1.411 L24,2.82352941 L22.6285714,2.82352941 L22.628,1.411 L21.25,1.41176471 L21.25,0 L24,0 Z M2.75,0 L2.75,1.41176471 L1.375,1.41176471 L1.375,2.82352941 L0,2.82352941 L0,0 L2.75,0 Z M11,0 L11,2.82352941 L9.625,2.82352941 L9.625,1.411 L8.25,1.41176471 L8.25,0 L11,0 Z M15.7714286,-1.62092562e-14 L15.7714286,1.41176471 L14.4,1.41176471 L14.4,-1.62092562e-14 L15.7714286,-1.62092562e-14 Z M6.875,0 L6.875,1.41176471 L4.125,1.41176471 L4.125,0 L6.875,0 Z M19.8857143,-1.62092562e-14 L19.8857143,1.41176471 L17.1428571,1.41176471 L17.1428571,-1.62092562e-14 L19.8857143,-1.62092562e-14 Z" id="Combined-Shape"></path>
        </g>
    </g>
</svg>