<svg width="35" height="36" xmlns="http://www.w3.org/2000/svg"><g fill="#000" fill-rule="nonzero"><path d="M.5 35.5v-2h4v2h-4zm0-14v-2h4v2h-4zm0 12v-2h2v2h-2zm0-4v-4h2v4h-2zm32 0v-4h2v4h-2z"/><path d="M.5 23.5v-4h2v4h-2zm30-2v-2h4v2h-4zm0 14v-2h4v2h-4zm-18 0v-2h4v2h-4zm-6 0v-2h4v2h-4zm6-14v-2h4v2h-4zm6 14v-2h4v2h-4zm0-14v-2h4v2h-4zm6 14v-2h4v2h-4zm0-14v-2h4v2h-4zm-18 0v-2h4v2h-4zm26 2v-2h2v2h-2z"/><path d="M32.5 35.5v-4h2v4h-2zm-32-19v-2h4v2h-4zm0-14v-2h4v2h-4zm0 12v-2h2v2h-2zm0-4v-4h2v4h-2zm32 0v-4h2v4h-2z"/><path d="M.5 4.5v-4h2v4h-2zm30-2v-2h4v2h-4zm0 14v-2h4v2h-4zm-18 0v-2h4v2h-4zm-6 0v-2h4v2h-4zm6-14v-2h4v2h-4zm6 14v-2h4v2h-4zm0-14v-2h4v2h-4zm6 14v-2h4v2h-4zm0-14v-2h4v2h-4zm-18 0v-2h4v2h-4zm26 2v-2h2v2h-2z"/><path d="M32.5 16.5v-4h2v4z"/></g></svg>