<?xml version="1.0" encoding="UTF-8"?>
<svg width="24px" height="24px" viewBox="0 0 24 24" version="1.1" xmlns="http://www.w3.org/2000/svg" xmlns:xlink="http://www.w3.org/1999/xlink">
    <!-- Generator: Sketch 58 (84663) - https://sketch.com -->
    <title>text</title>
    <desc>Created with Sketch.</desc>
    <g id="text" stroke="none" stroke-width="1" fill="none" fill-rule="evenodd">
        <g id="Group" transform="translate(0.000000, 4.000000)" fill="#000000">
            <g id="Group-3">
                <path d="M24,0 L24,0.9375 L22.5,0.937 L22.5,14.062 L24,14.0625 L24,15 L20,15 L20,14.0625 L21.5,14.062 L21.5,0.937 L20,0.9375 L20,0 L24,0 Z M15.4250239,4.60240964 C17.7297039,4.60240964 19,5.90361446 19,8.65060241 L19,8.65060241 L19,13.7831325 L16.8223496,13.7831325 L16.6408787,12.8614458 L16.5682904,12.8614458 C15.8061127,13.5301205 14.9713467,14 13.9551098,14 C12.3037249,14 11.269341,12.8072289 11.269341,11.2891566 C11.269341,9.40963855 12.7755492,8.37951807 16.3323782,8.01807229 C16.277937,7.22289157 15.8968481,6.71686747 14.9169054,6.71686747 C14.1547278,6.71686747 13.4106972,7.02409639 12.5396371,7.53012048 L12.5396371,7.53012048 L11.5778415,5.77710843 C12.7211079,5.09036145 14.0095511,4.60240964 15.4250239,4.60240964 Z M6.91404011,2 L10.6160458,13.7831325 L7.78510029,13.7831325 L7.05921681,10.9819277 L3.44794651,10.9819277 L2.72206304,13.7831325 L0,13.7831325 L3.70200573,2 L6.91404011,2 Z M16.3323782,9.60843373 C14.4450812,9.86144578 13.8280802,10.4036145 13.8280802,11.0903614 C13.8280802,11.6686747 14.2273161,11.939759 14.8624642,11.939759 C15.4613181,11.939759 15.860554,11.6506024 16.3323782,11.1807229 L16.3323782,11.1807229 Z M5.28080229,4.02409639 L5.20821394,4.02409639 C4.91786055,5.27108434 4.60936008,6.64457831 4.28271251,7.81927711 L4.28271251,7.81927711 L3.99235912,8.90361446 L6.5148042,8.90361446 L6.2425979,7.81927711 C6.07927412,7.23192771 5.91595033,6.59036145 5.75489494,5.94201807 L5.75489494,5.94201807 L5.28080229,4.02409639 Z" id="Combined-Shape"></path>
            </g>
        </g>
    </g>
</svg>