<svg width="27" height="16" xmlns="http://www.w3.org/2000/svg"><g fill="#000" fill-rule="evenodd"><path d="M24.5 16V0h1v16z"/><path d="M23 15h4v1h-4zM23 0h4v1h-4z"/><path d="M5.6 7.4l-.32 1.2h2.78l-.3-1.2C7.4 6.1 7.04 4.56 6.7 3.2h-.08C6.3 4.58 5.96 6.1 5.6 7.4zM.88 14L4.96.96H8.5L12.58 14H9.46l-.8-3.1H4.68l-.8 3.1h-3zm15.38.24c-1.82 0-2.96-1.32-2.96-3 0-2.08 1.66-3.22 5.58-3.62-.06-.88-.48-1.44-1.56-1.44-.84 0-1.66.34-2.62.9l-1.06-1.94c1.26-.76 2.68-1.3 4.24-1.3 2.54 0 3.94 1.44 3.94 4.48V14h-2.4l-.2-1.02h-.08c-.84.74-1.76 1.26-2.88 1.26zm1-2.28c.66 0 1.1-.32 1.62-.84V9.38c-2.08.28-2.76.88-2.76 1.64 0 .64.44.94 1.14.94z" fill-rule="nonzero"/></g></svg>