<svg viewBox="0 0 24 24" version="1.1" xmlns="http://www.w3.org/2000/svg"><g class="nc-icon-wrapper"><g id="Translated-3" stroke="none" stroke-width="1" fill="none" fill-rule="evenodd"><g id="language-solid" transform="translate(1 7)" fill-rule="nonzero"><path d="M.25.825v9.35c0 .457.368.825.825.825H10.7V0H1.075A.823.823 0 0 0 .25.825z" id="Path" fill="#000"/><path d="M2.275 8.253L4.25 2.441a.411.411 0 0 1 .392-.279H5.76c.176 0 .334.114.392.279L8.13 8.253a.414.414 0 0 1-.392.547H6.95a.413.413 0 0 1-.396-.296l-.323-1.096h-2.07L3.85 8.5a.416.416 0 0 1-.395.299h-.787a.415.415 0 0 1-.392-.547z" id="Path" fill="#FFF"/><path d="M5.478 4.82c-.12-.417-.268-1.142-.268-1.142h-.017s-.148.725-.268 1.141l-.382 1.29h1.31l-.375-1.29z" id="Path" fill="#000"/><path d="M11.5.25v10.5h9.375c.32 0 .575-.256.575-.575V.825a.573.573 0 0 0-.575-.575H11.5z" id="Path" stroke="#000" stroke-width=".5" fill="#FFF"/><path d="M20.05 4.125a.414.414 0 0 1-.413.412h-.391c-.238.812-.746 1.63-1.468 2.403.289.22.588.43.897.62.19.116.25.36.14.556l-.27.478a.414.414 0 0 1-.575.148 11.96 11.96 0 0 1-1.217-.856c-.374.299-.78.587-1.216.856a.414.414 0 0 1-.575-.148l-.271-.478a.412.412 0 0 1 .144-.557c.32-.196.62-.402.897-.619a7.976 7.976 0 0 1-.721-.883.411.411 0 0 1 .127-.588l.223-.134.251-.148a.416.416 0 0 1 .55.117c.172.24.371.481.598.718.464-.488.818-.993 1.032-1.485h-3.93a.414.414 0 0 1-.412-.412v-.55c0-.227.186-.413.413-.413h2.2v-.55c0-.226.185-.412.412-.412h.55c.227 0 .413.186.413.412v.55h2.2c.226 0 .412.186.412.413v.55z" id="Path" fill="#000"/></g></g></g></svg>