<svg viewBox="0 0 24 24" version="1.1" xmlns="http://www.w3.org/2000/svg"><g class="nc-icon-wrapper"><g id="Translated-2" stroke="none" stroke-width="1" fill="none" fill-rule="evenodd"><g id="Group-Copy-3" transform="translate(0 2)"><path d="M20.441 5.438l1.018-1.375a.192.192 0 0 0 .04-.137.217.217 0 0 0-.05-.125.14.14 0 0 0-.11-.051h-.536c-.01-.714-.092-1.245-.248-1.594-.197-.437-.53-.656-.998-.656a1.06 1.06 0 0 0-.59.195c-.182.12-.33.271-.441.453a.16.16 0 0 0-.024.114c.007.039.024.07.05.093.027.024.059.028.094.012.317-.114.566-.138.747-.07.175.065.3.216.377.452l.008.024c.072.224.11.55.114.977h-.59a.14.14 0 0 0-.11.05.217.217 0 0 0-.05.126.192.192 0 0 0 .04.136L20.2 5.438a.144.144 0 0 0 .12.063c.05 0 .09-.02.121-.063z" id="r-copy-2" stroke="#000" stroke-width=".2" fill="#000" fill-rule="nonzero"/><path d="M3.559 14.563L2.54 15.937a.192.192 0 0 0-.04.137c.004.05.021.091.05.125a.14.14 0 0 0 .11.051h.536c.01.714.092 1.245.248 1.594.197.437.53.656.998.656.196 0 .393-.065.59-.195.182-.12.33-.271.441-.453a.16.16 0 0 0 .024-.114.155.155 0 0 0-.05-.093c-.027-.024-.059-.028-.094-.012-.317.114-.566.138-.747.07-.175-.065-.3-.216-.377-.452l-.008-.024c-.072-.224-.11-.55-.114-.977h.59a.14.14 0 0 0 .11-.05.217.217 0 0 0 .05-.126.192.192 0 0 0-.04-.137L3.8 14.563a.144.144 0 0 0-.12-.063c-.05 0-.09.02-.121.063z" id="r-copy" stroke="#000" stroke-width=".2" fill="#FFF" fill-rule="nonzero"/><path d="M17.47.731H3.05C1.394.731.836 2.094.836 2.688v8.577a37841036089323680 37841036089323680 0 0 0 13.164 0V5.642c0-1.058.788-2.268 1.384-2.954C16.75 1.119 18.052.73 17.47.73z" id="Path-Copy-3" stroke="#000" stroke-width=".5" fill="#FFF" stroke-linejoin="bevel"/><path d="M9.584 9.783c-.986-.592-1.687-1.074-2.102-1.448C8.448 7.26 9.32 5.8 9.584 4.365h1.489c.57 0 .57-.762 0-.762H7.335V2.354c0-.472-.744-.472-.744 0v1.249H2.85c-.468 0-.468.761 0 .761h6C8.57 5.7 7.645 7.017 6.914 7.802c-.605-.591-1.152-1.3-1.355-1.715-.206-.289-.935-.063-.635.416.313.577.989 1.299 1.447 1.832-1.176 1.037-1.897 1.354-3.288 1.951-.394.154-.09.868.344.684 1.458-.579 2.267-.993 3.487-2.123.515.494 1.405 1.086 2.67 1.777v-.841z" id="Path-Copy-2" fill="#000" fill-rule="nonzero"/><path d="M6.547 19.22h14.774c1.553 0 1.826-.972 1.826-2.256v-7.63c0-1.03.244-2.978-1.826-2.978h-9.236c-1.897 0-1.792 2.159-1.792 2.977v4.516c0 .814-.661 2.473-1.118 3.001-1.042 1.207-3.073 2.37-2.628 2.37z" id="Path-Copy" stroke="#000" stroke-width=".5" fill="#000" stroke-linejoin="bevel"/><path d="M13.663 16.12c-.076.242.076.44.234.44.084 0 .184.004.272-.078.076-.07.114-.114.216-.362.216-.589.436-1.165.66-1.727h3.288l.664 1.714c.075.147.13.242.169.286.107.127.212.154.27.154.06 0 .25-.02.33-.154.025-.043.025-.138 0-.286L17 9.31a.425.425 0 0 0-.174-.213c-.114-.048-.24-.048-.292 0-.048.03-.095.102-.14.213a96.055 96.055 0 0 0-2.731 6.81z" id="Path-2-Copy" stroke="#FFF" stroke-width=".5" fill="#FFF"/><path id="Path-3-Copy" fill="#000" d="M16.686 10.388l-1.318 3.226h2.637z"/></g></g></g></svg>