<?xml version="1.0" encoding="UTF-8"?>
<svg width="24px" height="24px" viewBox="0 0 24 24" version="1.1" xmlns="http://www.w3.org/2000/svg" xmlns:xlink="http://www.w3.org/1999/xlink">
    <!-- Generator: Sketch 58 (84663) - https://sketch.com -->
    <title>calculate icon</title>
    <desc>Created with Sketch.</desc>
    <g id="calculate-icon" stroke="none" stroke-width="1" fill="none" fill-rule="evenodd">
        <g id="calculator" transform="translate(3.000000, 0.000000)" fill="#000000" fill-rule="nonzero">
            <path d="M16.5,0 L1.49995545,0 C0.671606684,0 0,0.671605686 0,1.5 L0,22.5 C0,23.3283409 0.671606684,24 1.5,24 L16.5,24 C17.3283399,24 18,23.3283943 18,22.5 L18,1.5 C18,0.671605686 17.3283399,0 16.5,0 Z M5.99998218,20.9999866 L2.99996436,20.9999866 L2.99996436,17.9999733 L5.99998218,17.9999733 L5.99998218,20.9999866 Z M5.99998218,14.9999599 L2.99996436,14.9999599 L2.99996436,11.9999465 L5.99998218,11.9999465 L5.99998218,14.9999599 Z M10.4999555,20.9999866 L7.49993763,20.9999866 L7.49993763,17.9999733 L10.4999555,17.9999733 L10.4999555,20.9999866 Z M10.4999555,14.9999599 L7.49993763,14.9999599 L7.49993763,11.9999465 L10.4999555,11.9999465 L10.4999555,14.9999599 Z M14.9999822,20.9999866 L11.9999644,20.9999866 L11.9999644,17.9999733 L14.9999822,17.9999733 L14.9999822,20.9999866 Z M14.9999822,14.9999599 L11.9999644,14.9999599 L11.9999644,11.9999465 L14.9999822,11.9999465 L14.9999822,14.9999599 Z M14.9999822,8.99998664 L2.99996436,8.99998664 L2.99996436,3.00001336 L14.9999822,3.00001336 L14.9999822,8.99998664 Z" id="Shape"></path>
        </g>
    </g>
</svg>