<?xml version="1.0" encoding="UTF-8"?>
<svg width="24px" height="24px" viewBox="0 0 24 24" version="1.1" xmlns="http://www.w3.org/2000/svg" xmlns:xlink="http://www.w3.org/1999/xlink">
    <!-- Generator: Sketch 54.1 (76490) - https://sketchapp.com -->
    <title>forcast_management</title>
    <desc>Created with Sketch.</desc>
    <g id="forcast_management" stroke="none" stroke-width="1" fill="none" fill-rule="evenodd">
        <path d="M16,11.0353004 L16,23.0187439 L12,23.0323758 L12,12.5062139 L13.4878143,13.0664556 L16,11.0353004 Z M17,10.2267792 L21.5,6.58843418 L21.5,23 L17,23.0153359 L17,10.2267792 Z M11,12.1296605 L11,23.0357838 L7,23.0494157 L7,12.0192506 L8,11 L11,12.1296605 Z M6,13.0385011 L6,23.0528237 L2,23.0664556 L2,17.1155034 L6,13.0385011 Z" id="Combined-Shape" fill="#000000"></path>
        <g id="Group" transform="translate(11.982550, 6.999695) rotate(2.000000) translate(-11.982550, -6.999695) translate(0.982550, -0.000305)">
            <polygon id="Path" fill="#000000" fill-rule="nonzero" transform="translate(19.036249, 3.417721) rotate(-91.000000) translate(-19.036249, -3.417721) " points="18.2704749 4.06580004 16.2866674 6.32722789 21.7858297 6.23123966 21.685934 0.508214197 20.3350686 1.93023879"></polygon>
            <polyline id="Path-7" stroke="#000000" stroke-width="3" points="19.8723692 2.68803664 12.321614 9.29272921 6.69259826 7.1843879 0.733243045 13.3624851"></polyline>
        </g>
    </g>
</svg>