<?xml version="1.0" encoding="UTF-8"?>
<svg width="24px" height="24px" viewBox="0 0 24 24" version="1.1" xmlns="http://www.w3.org/2000/svg" xmlns:xlink="http://www.w3.org/1999/xlink">
    <!-- Generator: Sketch 54.1 (76490) - https://sketchapp.com -->
    <title>hsse</title>
    <desc>Created with Sketch.</desc>
    <g id="hsse" stroke="none" stroke-width="1" fill="none" fill-rule="evenodd">
        <path d="M3,1 L21,1 C22.1045695,1 23,1.8954305 23,3 L23,21 C23,22.1045695 22.1045695,23 21,23 L3,23 C1.8954305,23 1,22.1045695 1,21 L1,3 C1,1.8954305 1.8954305,1 3,1 Z M14,10 L14,4 L10,4 L10,10 L4,10 L4,14 L10,14 L10,20 L14,20 L14,14 L20,14 L20,10 L14,10 Z" id="Combined-Shape" fill="#000000"></path>
    </g>
</svg>