<?xml version="1.0" encoding="UTF-8"?>
<svg width="24px" height="24px" viewBox="0 0 24 24" version="1.1" xmlns="http://www.w3.org/2000/svg" xmlns:xlink="http://www.w3.org/1999/xlink">
    <!-- Generator: Sketch 57.1 (83088) - https://sketch.com -->
    <title>mobile</title>
    <desc>Created with Sketch.</desc>
    <g id="mobile" stroke="none" stroke-width="1" fill="none" fill-rule="evenodd">
        <path d="M17.75,0 C18.3749998,0 18.9062502,0.218750238 19.34375,0.65625 C19.7812498,1.09374976 20,1.62500024 20,2.25 L20,21.75 C20,22.3749998 19.7812498,22.9062502 19.34375,23.34375 C18.9062502,23.7812498 18.3749998,24 17.75,24 L7.25,24 C6.62500024,24 6.09374976,23.7812498 5.65625,23.34375 C5.21875024,22.9062502 5,22.3749998 5,21.75 L5,2.25 C5,1.62500024 5.21875024,1.09374976 5.65625,0.65625 C6.09374976,0.218750238 6.62500024,0 7.25,0 L17.75,0 Z M12.5,22 C12.9062502,22 13.2578127,21.8515623 13.5546875,21.5546875 C13.8515623,21.2578127 14,20.9062502 14,20.5 C14,20.0937498 13.8515623,19.7421873 13.5546875,19.4453125 C13.2578127,19.1484377 12.9062502,19 12.5,19 C12.0937498,19 11.7421873,19.1484377 11.4453125,19.4453125 C11.1484377,19.7421873 11,20.0937498 11,20.5 C11,20.9062502 11.1484377,21.2578127 11.4453125,21.5546875 C11.7421873,21.8515623 12.0937498,22 12.5,22 Z" id="m" fill="#000000" fill-rule="nonzero"></path>
    </g>
</svg>