<svg xmlns="http://www.w3.org/2000/svg"><g class="nc-icon-wrapper"><path d="M12.12 1C18.13 1 23 5.87 23 11.88c0 6.007-4.87 10.878-10.88 10.878H1.243l3.186-3.186A10.88 10.88 0 0 1 12.121 1zm.151 17.368c1.25-.005 2.341-1.105 2.336-2.354l-.038-9.309c-.006-1.363-.745-2.208-1.93-2.204h-.003c-1.067.006-1.837.932-1.832 2.203l.028 6.767c.004.935.118 1.93 1.429 1.925 1.312-.005 1.418-1.002 1.413-1.936l-.016-3.912a.297.297 0 1 0-.593.002l.016 3.912c.004 1.135-.212 1.338-.822 1.34-.61.003-.828-.199-.833-1.333l-.028-6.767c-.003-.771.385-1.602 1.242-1.607 1.198-.004 1.333 1.126 1.335 1.613l.037 9.309c.005.932-.81 1.753-1.743 1.757-.932.003-1.752-.811-1.756-1.743l-.032-8.022a.297.297 0 0 0-.594.003l.032 8.021c.005 1.249 1.105 2.34 2.352 2.335z"/></g></svg>