<?xml version="1.0" encoding="UTF-8"?>
<svg width="24px" height="19px" viewBox="0 0 24 19" version="1.1" xmlns="http://www.w3.org/2000/svg" xmlns:xlink="http://www.w3.org/1999/xlink">
    <!-- Generator: Sketch 55.2 (78181) - https://sketchapp.com -->
    <title>Group</title>
    <desc>Created with Sketch.</desc>
    <g id="Page-1" stroke="none" stroke-width="1" fill="none" fill-rule="evenodd">
        <g id="Properties-Panel" transform="translate(0.000000, -2.000000)" fill="#000000" fill-rule="nonzero">
            <g id="Group" transform="translate(0.000000, 2.000000)">
                <path d="M23.3777318,1.93697668 L8.58617413,1.93697668 L8.58617413,1.40773857 C8.58617413,0.631505721 7.88829642,0 7.03048056,0 L4.61640865,0 C3.75859279,0 3.06071508,0.631505721 3.06071508,1.40773857 L3.06071508,1.93697668 L0.622268054,1.93697668 C0.278579213,1.93697668 0,2.18914631 0,2.50010604 C0,2.81106578 0.278579213,3.06319299 0.622268054,3.06319299 L3.06062132,3.06319299 L3.06062132,3.59226142 C3.06062132,4.36849427 3.75849905,5 4.61631489,5 L7.03043369,5 C7.88824953,5 8.58612726,4.36849427 8.58612726,3.59226142 L8.58612726,3.06319299 L23.3777318,3.06319299 C23.7214207,3.06319299 24,2.81102335 24,2.50010604 C24,2.18914631 23.7214207,1.93697668 23.3777318,1.93697668 Z M7.34163803,3.59226142 C7.34163803,3.74750799 7.20204373,3.87382611 7.03048056,3.87382611 L4.61636176,3.87382611 C4.44479859,3.87382611 4.30520431,3.74750799 4.30520431,3.59226142 L4.30520431,1.40773857 C4.30520431,1.252492 4.44479859,1.12617389 4.61636176,1.12617389 L7.03048056,1.12617389 C7.20204373,1.12617389 7.34163803,1.252492 7.34163803,1.40773857 L7.34163803,3.59226142 Z" id="Shape"></path>
                <path d="M23.3777801,15.9368234 L12.9577753,15.9368234 L12.9577753,15.4077505 C12.9577753,14.6315111 12.259899,14 11.4020848,14 L8.9879707,14 C8.13015652,14 7.43228015,14.6315111 7.43228015,15.4077505 L7.43228015,15.9368234 L0.622266842,15.9368234 C0.27857867,15.9368234 0,16.1889952 0,16.4999151 C0,16.8108775 0.27857867,17.063007 0.622266842,17.063007 L7.43223328,17.063007 L7.43223328,17.5922495 C7.43223328,18.3684889 8.13010965,19 8.98792383,19 L11.4020379,19 C12.2598521,19 12.9577285,18.3684889 12.9577285,17.5922495 L12.9577285,17.063007 L23.3777332,17.063007 C23.7214214,17.063007 24,16.8108352 24,16.4999151 C24,16.1889103 23.7214683,15.9368234 23.3777801,15.9368234 Z M11.7131948,17.5922919 C11.7131948,17.7475398 11.5736008,17.8738589 11.4020379,17.8738589 L8.98792383,17.8738589 C8.81636099,17.8738589 8.67676696,17.7475398 8.67676696,17.5922919 L8.67676696,15.4077505 C8.67676696,15.2525026 8.81636099,15.1261835 8.98792383,15.1261835 L11.4020379,15.1261835 C11.5736008,15.1261835 11.7131948,15.2525026 11.7131948,15.4077505 L11.7131948,17.5922919 Z" id="Shape"></path>
                <path d="M23.3777801,8.93716278 L20.9393848,8.93716278 L20.9393848,8.40775052 C20.9393848,7.63151108 20.2415083,7 19.3836941,7 L16.96958,7 C16.1117658,7 15.4138895,7.63151108 15.4138895,8.40775052 L15.4138895,8.93716278 L0.622266842,8.93716278 C0.27857867,8.93716278 0,9.18929215 0,9.50025451 C0,9.81121688 0.27857867,10.0633462 0.622266842,10.0633462 L15.4138426,10.0633462 L15.4138426,10.5922495 C15.4138426,11.3684889 16.1117191,12 16.9695332,12 L19.3836472,12 C20.2414615,12 20.9393379,11.3684889 20.9393379,10.5922495 L20.9393379,10.0633462 L23.3777332,10.0633462 C23.7214214,10.0633462 24,9.81117446 24,9.50025451 C24,9.18929215 23.7214683,8.93716278 23.3777801,8.93716278 Z M19.6948041,10.5922919 C19.6948041,10.7475398 19.5552102,10.873859 19.3836472,10.873859 L16.9695332,10.873859 C16.7979704,10.873859 16.6583763,10.7475398 16.6583763,10.5922919 L16.6583763,8.40775052 C16.6583763,8.25250263 16.7979704,8.12618346 16.9695332,8.12618346 L19.3836472,8.12618346 C19.5552102,8.12618346 19.6948041,8.25250263 19.6948041,8.40775052 L19.6948041,10.5922919 Z" id="Shape"></path>
            </g>
        </g>
    </g>
</svg>