<?xml version="1.0" encoding="UTF-8"?>
<svg width="24px" height="24px" viewBox="0 0 24 24" version="1.1" xmlns="http://www.w3.org/2000/svg" xmlns:xlink="http://www.w3.org/1999/xlink">
    <!-- Generator: Sketch 54.1 (76490) - https://sketchapp.com -->
    <title>device_management</title>
    <desc>Created with Sketch.</desc>
    <g id="device_management" stroke="none" stroke-width="1" fill="none" fill-rule="evenodd">
        <path d="M3.5,-1 L12,-1 L12,11 L3.5,11 C3.22385763,11 3,10.7761424 3,10.5 L3,-0.5 C3,-0.776142375 3.22385763,-1 3.5,-1 Z" id="Rectangle" fill="#FFFFFF"></path>
        <g id="Group" transform="translate(1.000000, 1.000000)">
            <rect id="Rectangle-Copy" stroke="#000000" stroke-width="2" fill="#FFFFFF" x="1" y="1" width="13" height="20" rx="0.5"></rect>
            <path d="M1.75,19.5 L15.25,19.5" id="Line-2" stroke="#000000" stroke-linecap="square"></path>
            <path d="M1.75,18.5 L15.25,18.5" id="Line-2" stroke="#000000" stroke-linecap="square"></path>
            <circle id="Oval" fill="#FFFFFF" cx="7.5" cy="20" r="1.5"></circle>
        </g>
        <path d="M12.5,5 L20.5,5 C20.7761424,5 21,5.22385763 21,5.5 L21,23 L12.5,23 C12.2238576,23 12,22.7761424 12,22.5 L12,5.5 C12,5.22385763 12.2238576,5 12.5,5 Z" id="Rectangle" fill="#FFFFFF"></path>
        <g id="Group-2" transform="translate(13.000000, 6.000000)">
            <rect id="Rectangle-Copy-3" stroke="#000000" stroke-width="2" fill="#FFFFFF" x="1" y="1" width="8" height="14" rx="0.5"></rect>
            <path d="M0.9,12.5 L8.1,12.5" id="Line" stroke="#000000" stroke-linecap="square"></path>
            <path d="M0.9,13.5 L8.1,13.5" id="Line" stroke="#000000" stroke-linecap="square"></path>
            <circle id="Oval" fill="#FFFFFF" cx="5" cy="14" r="1"></circle>
        </g>
    </g>
</svg>