<?xml version="1.0" encoding="UTF-8"?>
<svg width="24px" height="24px" viewBox="0 0 24 24" version="1.1" xmlns="http://www.w3.org/2000/svg" xmlns:xlink="http://www.w3.org/1999/xlink">
    <!-- Generator: Sketch 54.1 (76490) - https://sketchapp.com -->
    <title>material_management a copy</title>
    <desc>Created with Sketch.</desc>
    <g id="material_management-a-copy" stroke="none" stroke-width="1" fill="none" fill-rule="evenodd">
        <rect id="Rectangle" fill="#000000" x="1" y="1" width="3.5" height="5" rx="0.5"></rect>
        <rect id="Rectangle-Copy" fill="#000000" x="5" y="1" width="5" height="5" rx="0.5"></rect>
        <rect id="Rectangle-Copy-2" fill="#000000" x="10.5" y="1" width="3.5" height="5" rx="0.5"></rect>
        <rect id="Rectangle-Copy-3" fill="#000000" x="5" y="6.5" width="5" height="6" rx="0.5"></rect>
        <path d="M5.89792252,13.1436942 L9.04970609,13.0080531 C9.55238476,12.9864197 9.97742369,13.3763839 9.99905712,13.8790626 C9.99924882,13.8835169 9.99940781,13.8879726 9.9995341,13.8924293 L9.9995341,13.8924293 C10.0140578,14.4049903 9.61436995,14.8342586 9.10207748,14.8563058 L5.95029391,14.9919469 C5.44761524,15.0135803 5.02257631,14.6236161 5.00094288,14.1209374 C5.00075118,14.1164831 5.00059219,14.1120274 5.0004659,14.1075707 L5.0004659,14.1075707 C4.98594217,13.5950097 5.38563005,13.1657414 5.89792252,13.1436942 Z" id="Rectangle" fill="#000000"></path>
        <path d="M5.89792252,15.8103609 L9.04970609,15.6747198 C9.55238476,15.6530864 9.97742369,16.0430506 9.99905712,16.5457292 C9.99924882,16.5501836 9.99940781,16.5546393 9.9995341,16.559096 L9.9995341,16.559096 C10.0140578,17.0716569 9.61436995,17.5009253 9.10207748,17.5229725 L5.95029391,17.6586136 C5.44761524,17.680247 5.02257631,17.2902828 5.00094288,16.7876041 C5.00075118,16.7831497 5.00059219,16.778694 5.0004659,16.7742373 L5.0004659,16.7742373 C4.98594217,16.2616764 5.38563005,15.832408 5.89792252,15.8103609 Z" id="Rectangle-Copy-4" fill="#000000"></path>
        <path d="M5.89792252,18.4770275 L9.04970609,18.3413864 C9.55238476,18.319753 9.97742369,18.7097172 9.99905712,19.2123959 C9.99924882,19.2168503 9.99940781,19.221306 9.9995341,19.2257627 L9.9995341,19.2257627 C10.0140578,19.7383236 9.61436995,20.167592 9.10207748,20.1896391 L5.95029391,20.3252802 C5.44761524,20.3469136 5.02257631,19.9569494 5.00094288,19.4542708 C5.00075118,19.4498164 5.00059219,19.4453607 5.0004659,19.440904 L5.0004659,19.440904 C4.98594217,18.9283431 5.38563005,18.4990747 5.89792252,18.4770275 Z" id="Rectangle-Copy-5" fill="#000000"></path>
        <path d="M5.89792252,21.1436942 L9.04970609,21.0080531 C9.55238476,20.9864197 9.97742369,21.3763839 9.99905712,21.8790626 C9.99924882,21.8835169 9.99940781,21.8879726 9.9995341,21.8924293 L9.9995341,21.8924293 C10.0140578,22.4049903 9.61436995,22.8342586 9.10207748,22.8563058 L5.95029391,22.9919469 C5.44761524,23.0135803 5.02257631,22.6236161 5.00094288,22.1209374 C5.00075118,22.1164831 5.00059219,22.1120274 5.0004659,22.1075707 L5.0004659,22.1075707 C4.98594217,21.5950097 5.38563005,21.1657414 5.89792252,21.1436942 Z" id="Rectangle-Copy-5" fill="#000000"></path>
        <path d="M22.9484241,15.8355263 C23.017192,15.9342105 23.017192,16.0657895 22.9484241,16.1644737 L20.1289398,20.8355263 C20.0601719,20.9342105 19.9570201,21 19.8194842,21 L14.1805158,21 C14.0429799,21 13.9398281,20.9342105 13.8710602,20.8355263 L11.0515759,16.1644737 C10.982808,16.0657895 10.982808,15.9342105 11.0515759,15.8355263 L13.8710602,11.1644737 C13.9398281,11.0657895 14.0429799,11 14.1805158,11 L19.8194842,11 C19.9570201,11 20.0601719,11.0657895 20.1289398,11.1644737 L22.9484241,15.8355263 Z M17,19 C18.6714286,19 20,17.618705 20,16.0215827 C20,14.3381295 18.6285714,13 17,13 C15.3285714,13 14,14.381295 14,16.0215827 C14,17.6618705 15.3714286,19 17,19 Z" id="Combined-Shape" fill="#000000" fill-rule="nonzero"></path>
    </g>
</svg>