<?xml version="1.0" encoding="UTF-8"?>
<svg width="24px" height="24px" viewBox="0 0 24 24" version="1.1" xmlns="http://www.w3.org/2000/svg" xmlns:xlink="http://www.w3.org/1999/xlink">
    <!-- Generator: Sketch 54.1 (76490) - https://sketchapp.com -->
    <title>user_role</title>
    <desc>Created with Sketch.</desc>
    <g id="user_role" stroke="none" stroke-width="1" fill="none" fill-rule="evenodd">
        <path d="M12.1387613,14.0869565 L13.1623833,14.0869565 C13.5035907,14.0869565 13.6741943,14.2608696 13.6741943,14.6086957 C13.6741943,14.9565217 13.332987,15.3043478 12.6505723,15.6521739 L13.1623833,17.2173913 L15.7214384,12 L16.7450605,13.0434783 L19.8159266,14.0869565 C20.8395487,14.4347826 21.5219634,14.9565217 21.8631707,15.6521739 C22.2043781,16.3478261 22.5455854,17.5652174 22.8867928,19.3043478 C23.4327245,21.7681159 23.0915172,23 21.8631707,23 C20.6348243,23 17.3933544,23 12.1387613,23 C8.45658264,23 5.58705114,23 3.53016677,23 C1.4732824,23 0.743266262,21.7681159 1.34011835,19.3043478 C1.68293241,17.5652174 2.02574647,16.3478261 2.36856053,15.6521739 C2.71137459,14.9565217 3.39700271,14.4347826 4.4254449,14.0869565 L7.51077145,13.0434783 L8.53921363,12 L11.1103191,17.2173913 L11.6245402,15.6521739 C10.9389121,15.3043478 10.596098,14.9565217 10.596098,14.6086957 C10.596098,14.2608696 10.767505,14.0869565 11.1103191,14.0869565 L12.1387613,14.0869565 Z" id="Combined-Shape" fill="#000000"></path>
        <path d="M12.1387613,13 C15.1869131,13 17.6579283,7.28571429 17.0446876,5 C16.4314468,2.71428571 15.7775225,1 12.1387613,1 C8.5,1 7.84607577,2.71428571 7.23283498,5 C6.6195942,7.28571429 9.09060946,13 12.1387613,13 Z" id="Oval" fill="#000000"></path>
    </g>
</svg>