<svg xmlns="http://www.w3.org/2000/svg"><g class="nc-icon-wrapper"><path d="M7.417 3.031V6.47c0 .57-.462 1.031-1.032 1.031H2.031A1.032 1.032 0 0 1 1 6.469V3.03C1 2.461 1.462 2 2.031 2h4.354c.57 0 1.032.462 1.032 1.031zm7.791 10.313V9.906a1.03 1.03 0 0 0-1.03-1.031H9.822a1.03 1.03 0 0 0-1.031 1.031v3.438c0 .57.461 1.031 1.03 1.031h4.355a1.03 1.03 0 0 0 1.031-1.031zM16.583 3.03v3.44c0 .57.462 1.031 1.032 1.031h4.354A1.03 1.03 0 0 0 23 6.47V3.03A1.03 1.03 0 0 0 21.969 2h-4.354c-.57 0-1.032.462-1.032 1.031zm-1.375 3.44V3.03a1.03 1.03 0 0 0-1.03-1.031H9.822A1.03 1.03 0 0 0 8.791 3.03v3.44c0 .57.461 1.031 1.03 1.031h4.355a1.03 1.03 0 0 0 1.031-1.031zM6.385 8.875H2.031A1.03 1.03 0 0 0 1 9.906v3.438c0 .57.462 1.031 1.031 1.031h4.354c.57 0 1.032-.462 1.032-1.031V9.906c0-.57-.462-1.031-1.032-1.031zM1 16.781v3.438c0 .57.462 1.031 1.031 1.031h4.354c.57 0 1.032-.462 1.032-1.031V16.78c0-.57-.462-1.031-1.032-1.031H2.031A1.03 1.03 0 0 0 1 16.78zm16.615-2.406h4.354A1.03 1.03 0 0 0 23 13.344V9.906a1.03 1.03 0 0 0-1.031-1.031h-4.354c-.57 0-1.032.462-1.032 1.031v3.438c0 .57.462 1.031 1.032 1.031zm0 6.875h4.354A1.03 1.03 0 0 0 23 20.219V16.78a1.03 1.03 0 0 0-1.031-1.031h-4.354c-.57 0-1.032.462-1.032 1.031v3.438c0 .57.462 1.031 1.032 1.031zm-8.823-4.469v3.438c0 .57.461 1.031 1.03 1.031h4.355a1.03 1.03 0 0 0 1.031-1.031V16.78a1.03 1.03 0 0 0-1.03-1.031H9.822a1.03 1.03 0 0 0-1.031 1.031z"/></g></svg>