<?xml version="1.0" encoding="UTF-8"?>
<svg width="24px" height="24px" viewBox="0 0 24 24" version="1.1" xmlns="http://www.w3.org/2000/svg" xmlns:xlink="http://www.w3.org/1999/xlink">
    <!-- Generator: Sketch 54.1 (76490) - https://sketchapp.com -->
    <title>doc_management</title>
    <desc>Created with Sketch.</desc>
    <g id="doc_management" stroke="none" stroke-width="1" fill="none" fill-rule="evenodd">
        <g id="Group" transform="translate(1.000000, 1.000000)" fill="#000000" fill-rule="nonzero">
            <path d="M0.303312769,13.5 L3.19570076,13.5 C3.60041605,14.7599187 4.30026672,15.8873119 5.21378,16.80096 C6.70494,18.29212 8.76546,19.2137 11.04224,19.21216 L11.04004,22 C8.02912,22 5.26922,20.74534 3.26194,18.73806 C1.83568263,17.3121152 0.789539614,15.5060561 0.303312769,13.5 Z M0.0134842006,11.5 C0.00453101324,11.3209652 3.55271368e-15,11.1409156 3.55271368e-15,10.95996 C0.00022,7.94926 1.25466,5.18914 3.26194,3.18186 L4.68116,1.76242 L2.9216,0.00286 L8.59892,0.00264 L8.59892,5.68018 L6.63806,3.71932 L5.20652,5.12644 C3.7136,6.61936 2.80412,8.69572 2.80258,10.9725 C2.80246014,11.1496988 2.80793324,11.3255876 2.8188323,11.5 L0.0134842006,11.5 Z M19.1828374,10.5 L21.9864392,10.5 C21.995443,10.6794656 22,10.8599553 22,11.04136 C22,14.0525 20.74424,16.81174 18.73674,18.81902 L17.32038,20.23538 L19.08038,21.99538 L13.40152,21.99538 L13.40152,16.32114 L15.36326,18.28288 L16.79326,16.87576 C18.28728,15.38174 19.19478,13.30538 19.1994,11.0275 C19.1994,10.8502811 19.1938245,10.6743938 19.1828374,10.5 Z M18.8051686,8.5 C18.3999948,7.24025456 17.6995903,6.11307027 16.78402,5.1975 C15.2944,3.70788 13.23652,2.78674 10.95864,2.78674 L10.95864,-7.59770874e-18 C13.97,5.45580149e-16 16.72924,1.25576 18.73674,3.26326 C20.1627116,4.68923161 21.2093872,6.49449927 21.6961268,8.5 L18.8051686,8.5 Z" id="Combined-Shape"></path>
            <path d="M11.5,19.1828374 L11.5,21.9864392 C11.3205344,21.995443 11.1400447,22 10.95864,22 C7.9475,22 5.18826,20.74424 3.18098,18.73674 L1.76462,17.32038 L0.00462,19.08038 L0.00462,13.40152 L5.67886,13.40152 L3.71712,15.36326 L5.12424,16.79326 C6.61826,18.28728 8.69462,19.19478 10.9725,19.1994 C11.1497189,19.1994 11.3256062,19.1938245 11.5,19.1828374 Z M13.5,18.8051686 C14.7597454,18.3999948 15.8869297,17.6995903 16.8025,16.78402 C18.29212,15.2944 19.21326,13.23652 19.21326,10.95864 L22,10.95864 C22,13.97 20.74424,16.72924 18.73674,18.73674 C17.3107684,20.1627116 15.5055007,21.2093872 13.5,21.6961268 L13.5,18.8051686 Z M8.5,0.303312769 L8.5,3.19570076 C7.24008133,3.60041605 6.11268807,4.30026672 5.19904,5.21378 C3.70788,6.70494 2.7863,8.76546 2.78784,11.04224 L-3.90798505e-14,11.04004 C-3.90798505e-14,8.02912 1.25466,5.26922 3.26194,3.26194 C4.68788477,1.83568263 6.4939439,0.789539614 8.5,0.303312769 Z M10.5,0.0134842006 C10.6790348,0.00453101324 10.8590844,7.10542736e-15 11.04004,7.10542736e-15 C14.05074,0.00022 16.81086,1.25466 18.81814,3.26194 L20.23758,4.68116 L21.99714,2.9216 L21.99736,8.59892 L16.31982,8.59892 L18.28068,6.63806 L16.87356,5.20652 C15.38064,3.7136 13.30428,2.80412 11.0275,2.80258 C10.8503012,2.80246014 10.6744124,2.80793324 10.5,2.8188323 L10.5,0.0134842006 Z" id="Combined-Shape"></path>
        </g>
    </g>
</svg>