<svg viewBox="0 0 24 24" version="1.1" xmlns="http://www.w3.org/2000/svg"><g class="nc-icon-wrapper"><g id="general" stroke="none" fill="none" fill-rule="evenodd"><path id="Rectangle" d="M1 3h22v3H1z"/><path id="Rectangle-Copy" d="M1 10.5h22v3H1z"/><path id="Rectangle-Copy-3" d="M1 18h22v3H1z"/><path d="M4.282 1h2.436c.446 0 .607.046.77.134.163.087.291.215.378.378.088.163.134.324.134.77v4.436c0 .446-.046.607-.134.77a.909.909 0 0 1-.378.378c-.163.088-.324.134-.77.134H4.282c-.446 0-.607-.046-.77-.134a.909.909 0 0 1-.378-.378C3.046 7.325 3 7.164 3 6.718V2.282c0-.446.046-.607.134-.77a.909.909 0 0 1 .378-.378c.163-.088.324-.134.77-.134z" id="Rectangle"/><path d="M14.282 8.5h2.436c.446 0 .607.046.77.134.163.087.291.215.378.378.088.163.134.324.134.77v4.436c0 .446-.046.607-.134.77a.909.909 0 0 1-.378.378c-.163.088-.324.134-.77.134h-2.436c-.446 0-.607-.046-.77-.134a.909.909 0 0 1-.378-.378c-.088-.163-.134-.324-.134-.77V9.782c0-.446.046-.607.134-.77a.909.909 0 0 1 .378-.378c.163-.088.324-.134.77-.134z" id="Rectangle-Copy-2"/><path d="M7.282 16h2.436c.446 0 .607.046.77.134.163.087.291.215.378.378.088.163.134.324.134.77v4.436c0 .446-.046.607-.134.77a.909.909 0 0 1-.378.378c-.163.088-.324.134-.77.134H7.282c-.446 0-.607-.046-.77-.134a.909.909 0 0 1-.378-.378c-.088-.163-.134-.324-.134-.77v-4.436c0-.446.046-.607.134-.77a.909.909 0 0 1 .378-.378c.163-.088.324-.134.77-.134z" id="Rectangle-Copy-4"/></g></g></svg>