<svg viewBox="0 0 24 24">
            <path d="M13.4166667,11.8333333 C13.5868057,11.8333333 13.7265625,11.8880208 13.8359375,11.9973958 C13.9453125,12.1067708 14,12.2465276 14,12.4166667 L14,13.5833333 C14,13.7534724 13.9453125,13.8932292 13.8359375,14.0026042 C13.7265625,14.1119792 13.5868057,14.1666667 13.4166667,14.1666667 L8.16666667,14.1666667 L8.16666667,19.4166667 C8.16666667,19.5868057 8.11197917,19.7265625 8.00260417,19.8359375 C7.89322917,19.9453125 7.75347241,20 7.58333333,20 L6.41666667,20 C6.24652759,20 6.10677083,19.9453125 5.99739583,19.8359375 C5.88802083,19.7265625 5.83333333,19.5868057 5.83333333,19.4166667 L5.83333333,14.1666667 L0.583333333,14.1666667 C0.413194259,14.1666667 0.2734375,14.1119792 0.1640625,14.0026042 C0.0546875,13.8932292 0,13.7534724 0,13.5833333 L0,12.4166667 C0,12.2465276 0.0546875,12.1067708 0.1640625,11.9973958 C0.2734375,11.8880208 0.413194259,11.8333333 0.583333333,11.8333333 L5.83333333,11.8333333 L5.83333333,6.58333333 C5.83333333,6.41319426 5.88802083,6.2734375 5.99739583,6.1640625 C6.10677083,6.0546875 6.24652759,6 6.41666667,6 L7.58333333,6 C7.75347241,6 7.89322917,6.0546875 8.00260417,6.1640625 C8.11197917,6.2734375 8.16666667,6.41319426 8.16666667,6.58333333 L8.16666667,11.8333333 L13.4166667,11.8333333 Z"></path>
            <path d="M23.5833333,3.75 C23.7048612,3.75 23.8046875,3.78515625 23.8828125,3.85546875 C23.9609375,3.92578125 24,4.01562488 24,4.125 L24,4.875 C24,4.98437512 23.9609375,5.07421875 23.8828125,5.14453125 C23.8046875,5.21484375 23.7048612,5.25 23.5833333,5.25 L19.8333333,5.25 L19.8333333,8.625 C19.8333333,8.73437512 19.7942708,8.82421875 19.7161458,8.89453125 C19.6380208,8.96484375 19.5381946,9 19.4166667,9 L18.5833333,9 C18.4618054,9 18.3619792,8.96484375 18.2838542,8.89453125 C18.2057292,8.82421875 18.1666667,8.73437512 18.1666667,8.625 L18.1666667,5.25 L14.4166667,5.25 C14.2951388,5.25 14.1953125,5.21484375 14.1171875,5.14453125 C14.0390625,5.07421875 14,4.98437512 14,4.875 L14,4.125 C14,4.01562488 14.0390625,3.92578125 14.1171875,3.85546875 C14.1953125,3.78515625 14.2951388,3.75 14.4166667,3.75 L18.1666667,3.75 L18.1666667,0.375 C18.1666667,0.265624881 18.2057292,0.17578125 18.2838542,0.10546875 C18.3619792,0.03515625 18.4618054,0 18.5833333,0 L19.4166667,0 C19.5381946,0 19.6380208,0.03515625 19.7161458,0.10546875 C19.7942708,0.17578125 19.8333333,0.265624881 19.8333333,0.375 L19.8333333,3.75 L23.5833333,3.75 Z"></path>
</svg>