<svg xmlns="http://www.w3.org/2000/svg">
<path d="M35.286 16.1H20.552v-.574A1.54 1.54 0 0 0 19.002 14h-2.404c-.854 0-1.55.684-1.55 1.526v.573H12.62a.615.615 0 0 0-.62.61c0 .338.277.611.62.611h2.429v.573a1.54 1.54 0 0 0 1.55 1.526h2.404c.854 0 1.55-.684 1.55-1.526v-.573h14.733c.342 0 .62-.273.62-.61a.615.615 0 0 0-.62-.61zm-15.973 1.793a.308.308 0 0 1-.31.306h-2.405a.308.308 0 0 1-.31-.306v-2.367c0-.169.14-.305.31-.305h2.405c.17 0 .31.136.31.305v2.367zm15.973 5.004h-2.429v-.574c0-.841-.695-1.526-1.55-1.526h-2.404c-.854 0-1.55.685-1.55 1.526v.574H12.62a.615.615 0 0 0-.62.61c0 .337.277.61.62.61h14.733v.574c0 .841.695 1.525 1.55 1.525h2.405c.854 0 1.55-.684 1.55-1.525v-.574h2.428c.342 0 .62-.273.62-.61a.615.615 0 0 0-.62-.61zm-3.668 1.794a.308.308 0 0 1-.31.305h-2.405a.308.308 0 0 1-.31-.305v-2.368c0-.168.139-.305.31-.305h2.405c.17 0 .31.137.31.305v2.368zm3.668 5.503h-10.38v-.574a1.54 1.54 0 0 0-1.549-1.526h-2.404c-.855 0-1.55.685-1.55 1.526v.574H12.62a.615.615 0 0 0-.62.61c0 .337.277.61.62.61h6.783v.574c0 .841.695 1.526 1.55 1.526h2.404c.855 0 1.55-.685 1.55-1.526v-.574h10.379c.342 0 .62-.273.62-.61a.615.615 0 0 0-.62-.61zm-11.619 1.794a.308.308 0 0 1-.31.305h-2.404a.308.308 0 0 1-.31-.305V29.62c0-.168.139-.305.31-.305h2.404c.171 0 .31.137.31.305v2.368z"/>
</svg>