<svg viewBox="0 0 24 24" version="1.1" xmlns="http://www.w3.org/2000/svg"><g class="nc-icon-wrapper"><g id="work_management" stroke="none" fill="none" fill-rule="evenodd"><path d="M14.5 14v-2a1 1 0 0 0-1-1h-2a1 1 0 0 0-1 1v2H2a1 1 0 0 1-1-1V8a1 1 0 0 1 1-1h4.583a2 2 0 0 1-.083-.571V5a2 2 0 0 1 2-2h7a2 2 0 0 1 2 2v1.429a2 2 0 0 1-.083.571H22a1 1 0 0 1 1 1v5a1 1 0 0 1-1 1h-7.5zm-4 1v1a1 1 0 0 0 1 1h2a1 1 0 0 0 1-1v-1H23v7a1 1 0 0 1-1 1H2a1 1 0 0 1-1-1v-7h9.5zm-2-8h7V5.81a1 1 0 0 0-1-1h-5a1 1 0 0 0-1 1V7z" id="Combined-Shape"/><rect id="Rectangle" x="11.5" y="12" width="2" height="4" rx=".5"/></g></g></svg>