<svg viewBox="0 0 24 24"><path d="M18.15 2.13l-1.1 2.44.27.2a8.97 8.97 0 0 1 2.23 2.37l.17.27.3-.12 2.2-.83c.22-.08.46.03.54.24l.81 2.14a.41.41 0 0 1-.24.53l-2.5.95.05.32a8.97 8.97 0 0 1-.1 3.26l-.07.31.3.14 2.14.96a.42.42 0 0 1 .2.55l-.93 2.09c-.1.2-.34.3-.55.2l-2.44-1.1-.2.27a8.97 8.97 0 0 1-2.37 2.23l-.27.17.12.3.83 2.2a.42.42 0 0 1-.24.54l-2.14.81a.42.42 0 0 1-.53-.24l-.95-2.5-.32.05a8.95 8.95 0 0 1-3.26-.1l-.31-.07-.14.3-.96 2.14a.42.42 0 0 1-.55.2l-2.09-.93a.42.42 0 0 1-.2-.55l1.1-2.44-.27-.2a8.97 8.97 0 0 1-2.23-2.37l-.17-.27-.3.12-2.2.83a.42.42 0 0 1-.54-.24l-.81-2.14a.42.42 0 0 1 .24-.53l2.5-.95-.05-.32a8.97 8.97 0 0 1 .1-3.26l.07-.31-.3-.14L.86 8.7a.42.42 0 0 1-.2-.55l.93-2.09a.41.41 0 0 1 .55-.2l2.44 1.1.2-.27a8.97 8.97 0 0 1 2.37-2.23l.27-.17-.12-.3-.83-2.2a.42.42 0 0 1 .24-.54L8.84.43a.42.42 0 0 1 .53.24l.95 2.5.32-.05a8.95 8.95 0 0 1 3.26.1l.31.07.14-.3.96-2.14a.42.42 0 0 1 .55-.2l2.09.93c.2.1.3.34.2.55h0z"/><path d="M16.67 10.23a5.02 5.02 0 0 0-6.44-2.9 4.96 4.96 0 0 0-2.9 6.44 5.02 5.02 0 0 0 6.44 2.9 4.96 4.96 0 0 0 2.9-6.44z"/></svg>