<?xml version="1.0" encoding="UTF-8"?>
<svg width="24px" height="24px" viewBox="0 0 24 24" version="1.1" xmlns="http://www.w3.org/2000/svg" xmlns:xlink="http://www.w3.org/1999/xlink">
    <!-- Generator: Sketch 56.2 (81672) - https://sketch.com -->
    <title>component</title>
    <desc>Created with Sketch.</desc>
    <g id="component" stroke="none" stroke-width="1" fill="none" fill-rule="evenodd">
        <g id="component-3d" transform="translate(-10.699537, 77.245762) scale(1, -1) translate(10.699537, -77.245762) translate(-46.199537, 1.245762)" fill="#000000" fill-rule="nonzero">
            <path d="M70.0963851,140.4492 C70.2339209,140.655504 70.2339209,140.930576 70.0963851,141.13688 L64.4574166,150.901923 C64.3198808,151.108226 64.1135771,151.245762 63.8385055,151.245762 L52.5605685,151.245762 C52.2854969,151.245762 52.0791931,151.108226 51.9416573,150.901923 L46.3026888,141.13688 C46.165153,140.930576 46.165153,140.655504 46.3026888,140.4492 L51.9416573,130.684157 C52.0791931,130.477854 52.2854969,130.340318 52.5605685,130.340318 L63.8385055,130.340318 C64.1135771,130.340318 64.3198808,130.477854 64.4574166,130.684157 L70.0963851,140.4492 Z M58.199537,147.006892 C61.6864467,147.006892 64.4580929,144.145838 64.4580929,140.837744 C64.4580929,137.350834 61.5970388,134.579188 58.199537,134.579188 C54.7126273,134.579188 51.9409811,137.440242 51.9409811,140.837744 C51.9409811,144.235246 54.8020352,147.006892 58.199537,147.006892 Z" id="Combined-Shape"></path>
        </g>
    </g>
</svg>