<?xml version="1.0" encoding="UTF-8"?>
<svg width="24px" height="24px" viewBox="0 0 24 24" version="1.1" xmlns="http://www.w3.org/2000/svg" xmlns:xlink="http://www.w3.org/1999/xlink">
    <!-- Generator: Sketch 56.2 (81672) - https://sketch.com -->
    <title>component_placeholder </title>
    <desc>Created with Sketch.</desc>
    <g id="component_placeholder-" stroke="none" stroke-width="1" fill="none" fill-rule="evenodd">
        <g id="component-2d" transform="translate(12.302734, 12.153846) scale(1, -1) translate(-12.302734, -12.153846) translate(-0.197266, 1.153846)" fill-rule="nonzero" stroke="#000000">
            <path d="M23.6780886,10.8988801 L23.6611225,10.8715672 L18.0391201,1.13383717 C17.9814059,1.04726581 17.9220603,1.01264753 17.8362341,1.01264753 L6.55829714,1.01264753 C6.47247098,1.01264753 6.41312535,1.04726581 6.3723772,1.10652426 L0.716442635,10.8988801 C0.690873288,10.9372342 0.690873288,10.993505 0.733408716,11.0591719 L6.35541112,20.796902 C6.41312535,20.8834734 6.47247098,20.9180917 6.55829714,20.9180917 L17.8362341,20.9180917 C17.9220603,20.9180917 17.9814059,20.8834734 18.0221541,20.8242149 L23.6780886,11.031859 C23.703658,10.993505 23.703658,10.9372342 23.6780886,10.8988801 Z" id="Path"></path>
            <path d="M12.1972656,16.9653696 C8.91669009,16.9653696 6.15410016,14.2891106 6.15410016,11.0085351 C6.15410016,7.72795952 8.83035915,4.96536959 12.1972656,4.96536959 C15.4778412,4.96536959 18.2404311,7.64162858 18.2404311,11.0085351 C18.2404311,14.2027797 15.5641721,16.9653696 12.1972656,16.9653696 Z" id="Path"></path>
        </g>
        <circle id="Oval" fill="#000000" transform="translate(12.000000, 12.188477) scale(-1, 1) translate(-12.000000, -12.188477) " cx="12" cy="12.1884766" r="4"></circle>
    </g>
</svg>