<?xml version="1.0" encoding="UTF-8"?>
<svg width="24px" height="24px" viewBox="0 0 24 24" version="1.1" xmlns="http://www.w3.org/2000/svg" xmlns:xlink="http://www.w3.org/1999/xlink">
    <!-- Generator: Sketch 56.2 (81672) - https://sketch.com -->
    <title>deleted-awaiting confirmation</title>
    <desc>Created with Sketch.</desc>
    <g id="deleted-awaiting-confirmation" stroke="none" stroke-width="1" fill="none" fill-rule="evenodd">
        <g transform="translate(2.000000, -0.500000)" id="Group-12">
            <g transform="translate(0.000000, 0.500000)">
                <g id="trash-solid-(1)" fill="#000000" fill-rule="nonzero">
                    <path d="M20.2714286,1.47428571 L14.6404762,1.47428571 L14.1993849,0.61275 C14.0087973,0.23705719 13.6179924,-0.000301024526 13.190506,-8.12105647e-06 L7.82702381,-8.12105647e-06 C7.40034139,-0.00161042875 7.0102736,0.23640715 6.8228373,0.61275 L6.38174603,1.47428571 L0.750793651,1.47428571 C0.336141767,1.47428571 0,1.80431581 0,2.21142857 L0,3.68571429 C0,4.09282704 0.336141767,4.42285714 0.750793651,4.42285714 L20.2714286,4.42285714 C20.6860805,4.42285714 21.0222222,4.09282704 21.0222222,3.68571429 L21.0222222,2.21142857 C21.0222222,1.80431581 20.6860805,1.47428571 20.2714286,1.47428571 Z M2.49638889,21.5153571 C2.57071277,22.6806354 3.55489506,23.5885714 4.74407738,23.5885714 L16.2781448,23.5885714 C17.4673272,23.5885714 18.4515094,22.6806354 18.5258333,21.5153571 L19.5206349,5.89714286 L1.5015873,5.89714286 L2.49638889,21.5153571 Z" id="Shape"></path>
                </g>
                <g id="Group" transform="translate(6.285714, 9.000000)" fill="#FFFFFF">
                    <g id="Group-6">
                        <g id="Group-11" transform="translate(0.000000, 0.000000)">
                            <rect id="Rectangle" x="0" y="1.0658141e-14" width="3.14285714" height="9.65634454"></rect>
                            <rect id="Rectangle" x="4.71428571" y="1.0658141e-14" width="3.14285714" height="9.65634454"></rect>
                        </g>
                    </g>
                </g>
            </g>
        </g>
    </g>
</svg>