<?xml version="1.0" encoding="UTF-8"?>
<svg width="24px" height="24px" viewBox="0 0 24 24" version="1.1" xmlns="http://www.w3.org/2000/svg" xmlns:xlink="http://www.w3.org/1999/xlink">
    <!-- Generator: Sketch 56.2 (81672) - https://sketch.com -->
    <title>deleted-confirmed</title>
    <desc>Created with Sketch.</desc>
    <g id="deleted-confirmed" stroke="none" stroke-width="1" fill="none" fill-rule="evenodd">
        <g transform="translate(2.000000, 0.000000)" fill-rule="nonzero">
            <g id="Group" fill="#000000">
                <g id="trash-solid-(1)">
                    <path d="M19.35,1.47428571 L13.975,1.47428571 L13.5539583,0.61275 C13.3720338,0.23705719 12.9989927,-0.000301024526 12.5909375,-8.12105647e-06 L7.47125,-8.12105647e-06 C7.06396224,-0.00161042875 6.6916248,0.23640715 6.51270833,0.61275 L6.09166667,1.47428571 L0.716666667,1.47428571 C0.320862596,1.47428571 0,1.80431581 0,2.21142857 L0,3.68571429 C0,4.09282704 0.320862596,4.42285714 0.716666667,4.42285714 L19.35,4.42285714 C19.7458041,4.42285714 20.0666667,4.09282704 20.0666667,3.68571429 L20.0666667,2.21142857 C20.0666667,1.80431581 19.7458041,1.47428571 19.35,1.47428571 Z M2.38291667,21.5153571 C2.45386219,22.6806354 3.39330892,23.5885714 4.5284375,23.5885714 L15.5382292,23.5885714 C16.6733577,23.5885714 17.6128045,22.6806354 17.68375,21.5153571 L18.6333333,5.89714286 L1.43333333,5.89714286 L2.38291667,21.5153571 Z" id="Shape"></path>
                </g>
            </g>
            <path d="M8.0757325,17.8428803 L4.17572869,14.356278 C3.94142377,14.1468095 3.94142377,13.8071801 4.17572869,13.5976906 L5.02423733,12.8391031 C5.25854224,12.6296137 5.63846449,12.6296137 5.87276941,12.8391031 L8.5,15.1878243 L14.1272306,10.1571014 C14.3615355,9.94763287 14.7414578,9.94763287 14.9757627,10.1571014 L15.8242713,10.9156888 C16.0585762,11.1251574 16.0585762,11.4647868 15.8242713,11.6742763 L8.92426457,17.8429012 C8.68993622,18.0523698 8.31003741,18.0523698 8.0757325,17.8428803 L8.0757325,17.8428803 Z" id="Path" fill="#FFFFFF"></path>
        </g>
    </g>
</svg>