<?xml version="1.0" encoding="UTF-8"?>
<svg width="24px" height="24px" viewBox="0 0 24 24" version="1.1" xmlns="http://www.w3.org/2000/svg" xmlns:xlink="http://www.w3.org/1999/xlink">
    <!-- Generator: Sketch 56.2 (81672) - https://sketch.com -->
    <title>linked component</title>
    <desc>Created with Sketch.</desc>
    <g id="linked-component" stroke="none" stroke-width="1" fill="none" fill-rule="evenodd">
        <g id="component-2d" transform="translate(12.302734, 12.153846) scale(1, -1) translate(-12.302734, -12.153846) translate(-0.197266, 1.153846)" fill="#000000" fill-rule="nonzero">
            <path d="M24.0941138,10.62153 C24.2316496,10.8278338 24.2316496,11.1029054 24.0941138,11.3092091 L18.4551453,21.0742521 C18.3176095,21.2805558 18.1113057,21.4180917 17.8362341,21.4180917 L6.55829714,21.4180917 C6.28322551,21.4180917 6.07692179,21.2805558 5.93938597,21.0742521 L0.300417487,11.3092091 C0.162881671,11.1029054 0.162881671,10.8278338 0.300417487,10.62153 L5.93938597,0.85648707 C6.07692179,0.650183345 6.28322551,0.512647528 6.55829714,0.512647528 L17.8362341,0.512647528 C18.1113057,0.512647528 18.3176095,0.650183345 18.4551453,0.85648707 L24.0941138,10.62153 Z M12.1972656,16.9653696 C15.5641721,16.9653696 18.2404311,14.2027797 18.2404311,11.0085351 C18.2404311,7.64162858 15.4778412,4.96536959 12.1972656,4.96536959 C8.83035915,4.96536959 6.15410016,7.72795952 6.15410016,11.0085351 C6.15410016,14.2891106 8.91669009,16.9653696 12.1972656,16.9653696 Z" id="Combined-Shape"></path>
        </g>
        <circle id="Oval" fill="#000000" transform="translate(12.000000, 12.188477) scale(-1, 1) translate(-12.000000, -12.188477) " cx="12" cy="12.1884766" r="4"></circle>
    </g>
</svg>